<?xml version="1.0" encoding="UTF-8"?> <svg xmlns="http://www.w3.org/2000/svg" width="196" height="100" viewBox="0 0 196 100" fill="none"><path d="M19.209 66.3809L22.9863 73.3643H15.4316L19.209 66.3809Z" fill="#29292B"></path><path d="M27.5684 66.3809L31.335 73.3643H23.791L27.5684 66.3809Z" fill="#29292B"></path><path d="M31.7529 73.3643L27.9863 66.3809H35.541L31.7529 73.3643Z" fill="#29292B"></path><path d="M23.4043 73.3643L19.627 66.3809H27.1816L23.4043 73.3643Z" fill="#29292B"></path><path d="M23.082 59.063L26.8486 66.0465H19.3047L23.082 59.063Z" fill="#29292B"></path><path d="M31.4414 59.063L35.208 66.0465H27.6641L31.4414 59.063Z" fill="#29292B"></path><path d="M35.6279 66.0465L31.8613 59.063H39.4053L35.6279 66.0465Z" fill="#29292B"></path><path d="M27.2686 66.0465L23.502 59.063H31.0566L27.2686 66.0465Z" fill="#29292B"></path><path d="M27.1064 51.7124L30.873 58.6959H23.3184L27.1064 51.7124Z" fill="#29292B"></path><path d="M35.4658 51.7124L39.2324 58.6959H31.6777L35.4658 51.7124Z" fill="#29292B"></path><path d="M39.6514 58.6959L35.8848 51.7124H43.4287L39.6514 58.6959Z" fill="#29292B"></path><path d="M31.292 58.6959L27.5254 51.7124H35.0693L31.292 58.6959Z" fill="#29292B"></path><path d="M31.0029 44.3833L34.7695 51.3668H27.2148L31.0029 44.3833Z" fill="#29292B"></path><path d="M39.3516 44.3833L43.1182 51.3668H35.5742L39.3516 44.3833Z" fill="#29292B"></path><path d="M43.5469 51.3668L39.7695 44.3833H47.3242L43.5469 51.3668Z" fill="#29292B"></path><path d="M35.1865 51.3668L31.4199 44.3833H38.9639L35.1865 51.3668Z" fill="#29292B"></path><path d="M35.0156 37.0332L38.7822 44.0167H31.2383L35.0156 37.0332Z" fill="#29292B"></path><path d="M43.375 37.0332L47.1416 44.0167H39.5977L43.375 37.0332Z" fill="#29292B"></path><path d="M47.5596 44.0167L43.793 37.0332H51.3369L47.5596 44.0167Z" fill="#29292B"></path><path d="M39.2002 44.0167L35.4336 37.0332H42.9883L39.2002 44.0167Z" fill="#29292B"></path><path d="M38.9863 29.5854L42.7529 36.5581H35.209L38.9863 29.5854Z" fill="#29292B"></path><path d="M47.3457 29.5854L51.1123 36.5581H43.5684L47.3457 29.5854Z" fill="#29292B"></path><path d="M51.5303 36.5581L47.7637 29.5854H55.3184L51.5303 36.5581Z" fill="#29292B"></path><path d="M43.1709 36.5581L39.4043 29.5854H46.959L43.1709 36.5581Z" fill="#29292B"></path><path d="M43.0098 22.2349L46.7764 29.2184H39.2324L43.0098 22.2349Z" fill="#29292B"></path><path d="M51.3701 22.2349L55.1367 29.2184H47.582L51.3701 22.2349Z" fill="#29292B"></path><path d="M55.5557 29.2076L51.7891 22.2349H59.333L55.5557 29.2076Z" fill="#29292B"></path><path d="M47.1943 29.2076L43.4277 22.2349H50.9717L47.1943 29.2076Z" fill="#29292B"></path><path d="M47.0342 14.7549L50.8008 21.7384H43.2461L47.0342 14.7549Z" fill="#29292B"></path><path d="M55.3828 14.7549L59.1602 21.7384H51.6055L55.3828 14.7549Z" fill="#29292B"></path><path d="M59.5674 21.7384L55.8008 14.7549H63.3555L59.5674 21.7384Z" fill="#29292B"></path><path d="M51.2187 21.7384L47.4414 14.7549H54.9961L51.2187 21.7384Z" fill="#29292B"></path><path d="M51.0469 7.4043L54.8135 14.3878H47.2695L51.0469 7.4043Z" fill="#29292B"></path><path d="M59.4082 7.4043L63.1748 14.3878H55.6309L59.4082 7.4043Z" fill="#29292B"></path><path d="M63.5928 14.3878L59.8262 7.4043H67.3808L63.5928 14.3878Z" fill="#29292B"></path><path d="M55.2334 14.3878L51.4668 7.4043H59.0215L55.2334 14.3878Z" fill="#29292B"></path><path d="M54.9961 0L58.7627 6.98349H51.2188L54.9961 0Z" fill="#29292B"></path><path d="M63.3564 0L67.123 6.98349H59.5684L63.3564 0Z" fill="#29292B"></path><path d="M67.542 6.98349L63.7754 0H71.3193L67.542 6.98349Z" fill="#29292B"></path><path d="M59.1826 6.98349L55.416 0H62.96L59.1826 6.98349Z" fill="#29292B"></path><path d="M42.7099 7.4043L46.4766 14.3878H38.9219L42.7099 7.4043Z" fill="#29292B"></path><path d="M46.8955 14.3878L43.1289 7.4043H50.6729L46.8955 14.3878Z" fill="#29292B"></path><path d="M46.6484 0L50.415 6.98349H42.8711L46.6484 0Z" fill="#29292B"></path><path d="M50.833 6.98349L47.0664 0H54.6211L50.833 6.98349Z" fill="#29292B"></path><path d="M34.3389 7.4043L38.1055 14.3878H30.5508L34.3389 7.4043Z" fill="#29292B"></path><path d="M38.5244 14.3878L34.7578 7.4043H42.3018L38.5244 14.3878Z" fill="#29292B"></path><path d="M38.2773 0L42.0439 6.98349H34.5L38.2773 0Z" fill="#29292B"></path><path d="M42.4619 6.98349L38.6953 0H46.25L42.4619 6.98349Z" fill="#29292B"></path><path d="M25.9902 7.4043L29.7568 14.3878H22.2129L25.9902 7.4043Z" fill="#29292B"></path><path d="M30.1748 14.3878L26.4082 7.4043H33.9522L30.1748 14.3878Z" fill="#29292B"></path><path d="M29.9404 0L33.707 6.98349H26.1523L29.9404 0Z" fill="#29292B"></path><path d="M34.124 6.98349L30.3574 0H37.9014L34.124 6.98349Z" fill="#29292B"></path><path d="M17.6426 7.4043L21.4092 14.3878H13.8652L17.6426 7.4043Z" fill="#29292B"></path><path d="M21.8272 14.3878L18.0605 7.4043H25.6152L21.8272 14.3878Z" fill="#29292B"></path><path d="M21.5908 0L25.3574 6.98349H17.8027L21.5908 0Z" fill="#29292B"></path><path d="M25.7764 6.98349L22.0098 0H29.5537L25.7764 6.98349Z" fill="#29292B"></path><path d="M13.4561 14.3878L9.68945 7.4043H17.2441L13.4561 14.3878Z" fill="#29292B"></path><path d="M13.2217 0L16.9883 6.98349H9.43359L13.2217 0Z" fill="#29292B"></path><path d="M17.4053 6.98349L13.6387 0H21.1826L17.4053 6.98349Z" fill="#29292B"></path><path d="M9.08984 6.98349L5.3125 0H12.8672L9.08984 6.98349Z" fill="#29292B"></path><path d="M47.5918 67.3633L50.4892 65.6147C52.5281 69.3925 54.8889 71.2814 57.561 71.2814C58.7092 71.2814 59.7823 71.0115 60.7803 70.4826C61.789 69.943 62.5509 69.2198 63.0767 68.3239C63.6026 67.4172 63.8601 66.4674 63.8601 65.4528C63.8601 64.2979 63.4738 63.1753 62.7012 62.0744C61.6388 60.5525 59.6857 58.7176 56.8634 56.5696C54.0197 54.4109 52.2491 52.8458 51.5516 51.8852C50.3497 50.2661 49.7487 48.5176 49.7487 46.6395C49.7487 45.1499 50.1029 43.7899 50.8111 42.5487C51.5194 41.3182 52.5281 40.3576 53.8158 39.6452C55.1036 38.9328 56.5093 38.5874 58.0224 38.5874C59.6321 38.5874 61.1344 38.9868 62.5295 39.7855C63.9245 40.5842 65.4054 42.063 66.9721 44.2001L64.1928 46.3264C62.905 44.6211 61.8212 43.4877 60.9091 42.948C60.0077 42.3976 59.0204 42.1277 57.958 42.1277C56.5844 42.1277 55.4577 42.5487 54.5777 43.3906C53.7085 44.2325 53.2793 45.2687 53.2793 46.4884C53.2793 47.2331 53.4295 47.9563 53.7407 48.6579C54.0412 49.3595 54.6099 50.1258 55.4362 50.9461C55.8762 51.3779 57.3463 52.522 59.836 54.3785C62.787 56.5696 64.8152 58.5233 65.9097 60.2287C67.0043 61.9341 67.5623 63.6503 67.5623 65.3772C67.5623 67.8598 66.618 70.0293 64.7401 71.8534C62.8621 73.6884 60.5764 74.6058 57.8936 74.6058C55.8225 74.6058 53.9446 74.0445 52.2598 72.9328C50.5643 71.8426 49.0083 69.9753 47.5918 67.3633Z" fill="#29292B"></path><path d="M74.7852 39.4507H94.3265V42.8075H78.1976V53.558H94.187V56.9148H78.1976V70.3961H94.187V73.7529H74.7852V39.4507Z" fill="#29292B"></path><path d="M97.6211 39.4507H101.334L112.634 65.9491L124.116 39.4507H127.829L112.988 73.7529H112.248L97.6211 39.4507Z" fill="#29292B"></path><path d="M133.58 39.4507H153.121V42.8075H136.982V53.558H152.982V56.9148H136.982V70.3961H152.982V73.7529H133.58V39.4507Z" fill="#29292B"></path><path d="M159.035 73.7529V39.4507H159.776L182.472 65.744V39.4507H185.841V73.7529H185.069L162.555 47.7726V73.7529H159.035Z" fill="#29292B"></path><rect y="79.6138" width="195.424" height="1.97523" fill="#29292B"></rect><path fill-rule="evenodd" clip-rule="evenodd" d="M39.5822 96.8854C40.0292 96.6959 40.5018 96.3844 40.9744 95.9511C41.0127 96.3303 41.1149 96.6688 41.2426 96.9667H42.6093C42.456 96.6552 42.341 96.3167 42.29 95.9782C42.2389 95.6397 42.2005 94.8137 42.2005 93.5273V91.6722C42.2005 91.0628 42.175 90.6295 42.1367 90.3993C42.06 90.0202 41.9196 89.7087 41.7152 89.4515C41.5236 89.1942 41.2171 88.9911 40.8084 88.8286C40.3996 88.6661 39.8632 88.5713 39.2118 88.5713C38.5476 88.5713 37.9473 88.6796 37.4492 88.8692C36.9383 89.0588 36.5551 89.3296 36.2869 89.6816C36.0187 90.0473 35.8143 90.5212 35.7122 91.1035L36.9894 91.293C37.1427 90.6972 37.347 90.3045 37.6536 90.0743C37.9473 89.8441 38.3944 89.7223 39.0074 89.7223C39.6716 89.7223 40.157 89.8983 40.5018 90.2097C40.7573 90.4399 40.885 90.8326 40.885 91.3878C40.885 91.442 40.885 91.5638 40.8722 91.7534C40.3741 91.9294 39.595 92.1055 38.5349 92.2409C38.0112 92.2951 37.628 92.3628 37.3726 92.444C37.015 92.5523 36.7084 92.7148 36.4274 92.9044C36.1592 93.1075 35.9293 93.3783 35.7633 93.7033C35.5972 94.0283 35.5078 94.3939 35.5078 94.8001C35.5078 95.4772 35.7377 96.0459 36.1847 96.4792C36.6446 96.9396 37.2959 97.1427 38.1389 97.1427C38.6498 97.1427 39.1352 97.0479 39.5822 96.8854ZM38.7393 93.3783C39.6717 93.2294 40.3997 93.0534 40.8723 92.8502H40.8851V93.3783C40.8851 94.0012 40.8212 94.4616 40.6807 94.7595C40.4891 95.1657 40.2082 95.4907 39.8122 95.7209C39.4163 95.9511 38.9692 96.073 38.4583 96.073C37.9474 96.073 37.5643 95.9511 37.2961 95.7074C37.0278 95.4501 36.9001 95.1522 36.9001 94.7866C36.9001 94.5429 36.964 94.3127 37.0917 94.1231C37.2066 93.9335 37.3855 93.7575 37.6026 93.6627C37.8197 93.5544 38.1901 93.4731 38.7393 93.3783Z" fill="#29292B"></path><path fill-rule="evenodd" clip-rule="evenodd" d="M51.1309 88.7457V99.9864V99.9999H52.5214V96.0428C52.751 96.3379 53.048 96.5793 53.4125 96.7805C53.777 96.9683 54.1956 97.0622 54.6546 97.0622C55.2891 97.0622 55.8832 96.8744 56.4637 96.5257C57.0442 96.1769 57.4763 95.6672 57.7733 94.9965C58.0703 94.3392 58.2323 93.6015 58.2323 92.7564C58.2323 91.9784 58.0838 91.2809 57.8273 90.6236C57.5438 89.9797 57.1252 89.4834 56.6122 89.1213C56.0722 88.7591 55.4511 88.5713 54.7491 88.5713C54.2226 88.5713 53.777 88.6652 53.399 88.8798C53.0345 89.081 52.697 89.3895 52.3999 89.8054V88.7457H51.1309ZM53.048 95.1709C52.6025 94.6746 52.3999 93.91 52.3999 92.8637C52.3999 91.8174 52.6295 91.0126 53.0885 90.4492C53.5475 89.9261 54.0741 89.6444 54.6546 89.6444C55.2351 89.6444 55.7482 89.8993 56.1802 90.409C56.6257 90.9321 56.8282 91.7101 56.8282 92.743C56.8282 93.8295 56.6122 94.6209 56.1802 95.1575C55.7347 95.6672 55.2081 95.9221 54.5871 95.9221C53.993 95.9221 53.4665 95.6672 53.048 95.1709Z" fill="#29292B"></path><path d="M63.9141 88.5713H71.0155V89.7877H68.2066V97.1427H66.7374V89.7877H63.9141V88.5713Z" fill="#29292B"></path><rect x="80.5059" y="92.9194" width="3.36956" height="1.11175" fill="#29292B"></rect><path d="M99.4807 93.942L100.842 94.1183C100.693 95.0541 100.33 95.8 99.6963 96.3425C99.0899 96.8715 98.3488 97.1427 97.4459 97.1427C96.3275 97.1427 95.4381 96.7765 94.7644 96.0442C94.0771 95.2982 93.7402 94.2539 93.7402 92.8841C93.7402 92.0026 93.8885 91.216 94.1849 90.565C94.4679 89.9004 94.9261 89.3986 95.519 89.0731C96.0984 88.7476 96.7452 88.5713 97.4729 88.5713C98.3622 88.5713 99.063 88.8018 99.6424 89.2494C100.195 89.697 100.559 90.3344 100.707 91.1617L99.3729 91.3787C99.2381 90.8226 99.0091 90.4158 98.6856 90.131C98.3622 89.8597 97.9715 89.7105 97.5133 89.7105C96.8126 89.7105 96.2601 89.9547 95.8154 90.4565C95.3707 90.9583 95.1551 91.7585 95.1551 92.8434C95.1551 93.942 95.3573 94.7422 95.7885 95.244C96.2062 95.7458 96.7452 95.9899 97.4324 95.9899C97.9849 95.9899 98.4296 95.8407 98.7934 95.4881C99.1438 95.1491 99.3729 94.6337 99.4807 93.942Z" fill="#29292B"></path><path d="M107.943 88.5713H115.045V89.7877H112.239V97.1427H110.749V89.7877H107.943V88.5713Z" fill="#29292B"></path><path d="M121.416 99.8255L121.275 98.5378C121.556 98.6182 121.812 98.6719 122.017 98.6719C122.298 98.6719 122.529 98.6048 122.721 98.5109C122.887 98.417 123.041 98.2695 123.156 98.0817C123.245 97.9475 123.36 97.5988 123.552 97.0622C123.578 96.9818 123.616 96.8744 123.655 96.7135L120.725 88.5847H122.145L123.77 93.293C123.975 93.8966 124.154 94.5002 124.32 95.1709C124.461 94.5404 124.653 93.91 124.858 93.3064L126.521 88.5713H127.826L124.883 96.8342C124.576 97.7195 124.32 98.35 124.141 98.6719C123.911 99.128 123.642 99.4633 123.335 99.6779C123.041 99.8791 122.67 99.9999 122.26 99.9999C122.004 99.9999 121.735 99.9328 121.416 99.8255Z" fill="#29292B"></path><path fill-rule="evenodd" clip-rule="evenodd" d="M141.146 88.5713H135.592C135.632 92.2484 135.183 94.8077 134.207 96.2345H133.508V99.9999H134.616V97.4847H140.895V99.9999H142.03V96.2345H141.146V88.5713ZM135.513 96.2492C136.212 94.8666 136.608 92.7191 136.727 89.8362H139.8V96.2492H135.513Z" fill="#29292B"></path><path fill-rule="evenodd" clip-rule="evenodd" d="M166.174 97.1286V88.5713H162.438C161.51 88.5713 160.795 88.8113 160.304 89.2632C159.814 89.7292 159.576 90.3223 159.576 91.0707C159.576 91.7061 159.761 92.2569 160.145 92.737C160.516 93.2312 161.099 93.5278 161.868 93.6407C161.417 93.7396 160.98 94.135 160.53 94.8269L159.072 97.1427H160.755L161.947 95.2646C162.398 94.5586 162.742 94.1208 162.967 93.9937C163.206 93.8667 163.55 93.7961 164.041 93.7961H164.822V97.1286H166.174ZM162.875 89.7857H164.809V92.6099H163.299C162.424 92.6099 161.828 92.4828 161.47 92.2569C161.112 92.0027 160.953 91.6214 160.953 91.1272C160.953 90.7601 161.073 90.4635 161.311 90.1811C161.55 89.9269 162.066 89.7857 162.875 89.7857Z" fill="#29292B"></path><path fill-rule="evenodd" clip-rule="evenodd" d="M151.971 87.3411H150.551V85.7144H151.971V87.3411ZM151.971 97.1429H150.551V88.8586H151.971V97.1429Z" fill="#29292B"></path></svg> 