<?xml version="1.0" encoding="UTF-8"?> <svg xmlns="http://www.w3.org/2000/svg" width="283" height="73" viewBox="0 0 283 73" fill="none"><path d="M125.121 6.56299H111.609V71.5618H125.121V6.56299Z" fill="#001701"></path><path d="M182.232 21.8458C176.647 21.8458 171.603 25.4418 168.81 28.948C166.018 23.7337 161.784 21.7559 157.01 21.7559C152.416 21.7559 147.822 24.1832 144.399 28.948V23.3741H130.887V71.5613H144.399V40.1857C144.399 30.8359 158.811 30.746 158.811 40.1857V71.5613H172.323V40.1857C172.323 30.746 186.736 30.746 186.736 40.1857V71.5613H200.248V41.5342C200.338 26.9701 190.61 21.8458 182.232 21.8458Z" fill="#001701"></path><path d="M99.632 28.4086C95.038 24.1832 88.9125 21.7559 82.8772 21.7559C76.0311 21.7559 69.2751 24.8125 64.591 30.0268C56.5738 38.927 56.5738 55.7386 64.591 64.6389C69.3652 69.8532 76.2113 72.9098 83.3276 72.9098C91.7951 72.9098 100.443 69.5835 105.577 60.1438L96.3892 54.8396C93.1463 59.6044 87.9217 61.4923 83.5978 61.4923C78.3732 61.4923 72.1577 57.9862 72.1577 51.2436H106.929V44.5908C106.929 38.5674 104.316 32.8137 99.632 28.4086ZM93.4165 42.7029H72.3378C72.3378 30.0268 93.4165 29.9369 93.4165 42.7029Z" fill="#001701"></path><path d="M245.374 28.4086C240.78 24.1832 234.655 21.7559 228.619 21.7559C221.773 21.7559 215.017 24.8125 210.333 30.0268C202.316 38.927 202.316 55.7386 210.333 64.6389C215.107 69.8532 221.953 72.9098 229.07 72.9098C237.537 72.9098 246.185 69.5835 251.319 60.1438L242.221 54.8396C238.979 59.6044 233.754 61.4923 229.43 61.4923C224.205 61.4923 217.99 57.9862 217.99 51.2436H252.761V44.5908C252.761 38.5674 250.148 32.8137 245.374 28.4086ZM239.249 42.7029H218.17C218.17 30.0268 239.249 29.9369 239.249 42.7029Z" fill="#001701"></path><path d="M275.647 60.8635C273.485 60.8635 270.512 60.6837 270.512 52.0531V33.4435H282.673V23.5544H270.512V6.56299H257V51.9632C257 65.8081 262.495 72.8204 273.214 72.8204C275.737 72.8204 278.439 72.4608 281.592 71.6517L282.583 71.382V60.1443C279.79 60.5039 276.097 60.8635 275.647 60.8635Z" fill="#001701"></path><path d="M32.5188 0L23.5109 8.81035C29.9966 17.9803 37.8336 19.0591 43.3284 19.3288V21.7562C43.3284 37.1293 38.1038 49.6256 28.6454 56.9975C19.187 49.6256 13.9624 37.1293 13.9624 21.7562V10.6084H0V21.7562C0 40.8153 7.56671 53.5813 13.9624 61.0431C20.8985 69.1342 28.5553 73 28.5553 73C28.5553 73 36.3022 69.0443 43.1483 61.0431C49.5439 53.5813 57.1107 40.8153 57.1107 21.7562V6.65271H48.2828C43.1483 6.65271 38.1038 6.2931 32.5188 0Z" fill="#001701"></path></svg> 