<?xml version="1.0" encoding="UTF-8"?> <svg xmlns="http://www.w3.org/2000/svg" width="40" height="40" viewBox="0 0 40 40" fill="none"><path fill-rule="evenodd" clip-rule="evenodd" d="M37.5569 12.9497C37.8694 13.9262 37.6137 14.978 36.8894 15.6947L30.5561 21.9612C30.4318 22.0843 30.3751 22.2615 30.4044 22.4353L31.8994 31.2839C32.0705 32.2957 31.6683 33.2993 30.8501 33.9029C30.3878 34.2441 29.8467 34.4173 29.3022 34.4173C28.8829 34.4174 28.4615 34.3147 28.0722 34.1069L20.2439 29.9292C20.0901 29.8471 19.9065 29.8471 19.7528 29.9292L11.9246 34.1069C11.0294 34.5846 9.96473 34.5066 9.14645 33.9029C8.32817 33.2994 7.92614 32.296 8.09707 31.284L9.59215 22.4354C9.62153 22.2616 9.56473 22.0844 9.44044 21.9613L3.10723 15.6947C2.38285 14.978 2.12707 13.9262 2.43973 12.9497C2.75238 11.9732 3.56824 11.2749 4.56918 11.1273L13.3214 9.83639C13.4933 9.81102 13.6417 9.70149 13.7186 9.54344L17.6328 1.49268C18.0804 0.57195 18.9868 0 19.9983 0C21.0097 0 21.9161 0.57195 22.3637 1.49268L26.2779 9.54336C26.3547 9.70149 26.5033 9.81101 26.6751 9.83631L35.4274 11.1273C36.4283 11.2749 37.2443 11.9732 37.5569 12.9497ZM29.8192 31.6463L28.3242 22.7976C28.1774 21.9288 28.4609 21.0428 29.0827 20.4275L35.416 14.1609C35.628 13.9512 35.5799 13.7071 35.5495 13.6119C35.519 13.5166 35.4165 13.2905 35.1236 13.2474L26.3713 11.9564C25.512 11.8296 24.7695 11.2821 24.3852 10.4915L20.4711 2.44077V2.44069C20.34 2.17121 20.0966 2.14218 19.9981 2.14218C19.8994 2.14218 19.6559 2.17129 19.5249 2.44069L15.6108 10.4914C15.2264 11.282 14.4838 11.8296 13.6245 11.9563L4.87242 13.2473C4.57952 13.2904 4.47695 13.5165 4.44656 13.6118C4.41601 13.707 4.36804 13.951 4.57999 14.1608L10.9132 20.4274C11.5352 21.0428 11.8187 21.9288 11.6719 22.7976L10.1768 31.6461C10.1267 31.9422 10.3069 32.1111 10.3866 32.1699C10.4664 32.2286 10.6802 32.3504 10.9423 32.2105L18.7705 28.0329C19.1547 27.828 19.5763 27.7254 19.998 27.7254C20.4196 27.7254 20.8412 27.828 21.2255 28.033L29.0538 32.2107C29.3156 32.3506 29.5295 32.2287 29.6094 32.17C29.6892 32.1112 29.8692 31.9424 29.8192 31.6463Z" fill="#2FC5F1"></path><path d="M32.3267 1.49212C31.8552 1.14444 31.1954 1.25055 30.8529 1.72908L29.7328 3.29393C29.3903 3.77246 29.4948 4.44235 29.9663 4.79003C30.1537 4.9281 30.3707 4.99463 30.5857 4.99463C30.912 4.99463 31.2337 4.8415 31.4401 4.55314L32.5602 2.98829C32.9027 2.50968 32.7982 1.83979 32.3267 1.49212Z" fill="#2FC5F1"></path><path d="M10.2613 3.28762L9.14125 1.72277C8.79883 1.2444 8.13899 1.13829 7.66742 1.48581C7.19602 1.83348 7.09149 2.50337 7.43399 2.9819L8.55407 4.54675C8.76055 4.83534 9.08227 4.9884 9.40868 4.9884C9.62375 4.9884 9.84079 4.92187 10.028 4.78372C10.4994 4.43612 10.6039 3.76623 10.2613 3.28762Z" fill="#2FC5F1"></path><path d="M3.87124 24.031C3.69116 23.4685 3.09592 23.1606 2.54163 23.3434L0.72936 23.9412C0.175063 24.124 -0.128141 24.7283 0.0519374 25.2909C0.196781 25.7436 0.610454 26.0313 1.05522 26.0313C1.16327 26.0313 1.27319 26.0143 1.38155 25.9785L3.19382 25.3807C3.74803 25.1979 4.05132 24.5937 3.87124 24.031Z" fill="#2FC5F1"></path><path d="M20.0005 35.9234C19.4177 35.9234 18.9453 36.4029 18.9453 36.9945V38.9289C18.9453 39.5204 19.4177 40 20.0005 40C20.5832 40 21.0556 39.5204 21.0556 38.9289V36.9945C21.0556 36.4028 20.5833 35.9234 20.0005 35.9234Z" fill="#2FC5F1"></path><path d="M39.27 23.9427L37.4577 23.3449C36.9037 23.1622 36.3082 23.4699 36.1281 24.0326C35.948 24.5953 36.2512 25.1995 36.8055 25.3823L38.6178 25.9801C38.7262 26.0158 38.836 26.0328 38.944 26.0328C39.3889 26.0328 39.8026 25.745 39.9474 25.2923C40.1275 24.7297 39.8242 24.1255 39.27 23.9427Z" fill="#2FC5F1"></path></svg> 