<?xml version="1.0" encoding="UTF-8"?> <svg xmlns="http://www.w3.org/2000/svg" width="24" height="40" viewBox="0 0 24 40" fill="none"><path d="M23.8993 14.0909C23.7145 13.8182 23.4373 13.6364 23.0677 13.6364H16.2303L22.0513 1.27273C22.1437 1 22.1437 0.636406 21.9589 0.363672C21.7741 0.0909375 21.4969 0 21.2198 0H11.056C10.5016 0 10.1321 0.363672 10.1321 0.909063C10.1321 1.45445 10.5017 1.81813 11.056 1.81813H19.7414L13.9204 14.1818C13.828 14.4545 13.828 14.8181 14.0128 15.0909C14.1976 15.3636 14.4748 15.4545 14.752 15.4545H21.3122L8.28404 34.6363L11.056 22C11.1485 21.7273 11.056 21.4545 10.8713 21.2727C10.6865 21 10.4093 20.9091 10.1321 20.9091H2.09346L8.28412 1.1818C8.4689 0.727266 8.1917 0.181797 7.63738 0.0908594C7.1754 -0.0909375 6.621 0.181797 6.52858 0.727188L0.0607107 21.6363C-0.0317157 21.818 -0.0317157 22.0908 0.153137 22.3635C0.337911 22.5453 0.615111 22.7272 0.89231 22.7272H9.0233L5.5122 38.909C5.41978 39.3635 5.60463 39.7272 6.0666 39.909C6.15895 40 6.34372 40 6.43615 40C6.71335 40 6.99055 39.8182 7.17532 39.6363L23.8069 15.0909C23.9917 14.7273 24.084 14.4545 23.8993 14.0909Z" fill="#2FC5F1"></path><path d="M8.56156 8.27273C8.09959 8.09093 7.54519 8.36367 7.45276 8.8182L4.68092 17C4.49615 17.4545 4.77335 18 5.23532 18.1818C5.32774 18.1818 5.42009 18.2727 5.51252 18.2727C5.88214 18.2727 6.25169 18 6.34412 17.6364L9.11604 9.4546C9.30073 8.99999 9.02361 8.45453 8.56156 8.27273Z" fill="#2FC5F1"></path></svg> 