<?xml version="1.0" encoding="UTF-8"?> <svg xmlns="http://www.w3.org/2000/svg" width="40" height="40" viewBox="0 0 40 40" fill="none"><path d="M20 39.9999C31.0266 39.9999 40 31.0265 40 19.9999C40 8.97323 31.0268 -0.00012207 20 -0.00012207C8.97324 -0.00012207 0 8.97323 0 19.9999C0 31.0265 8.97335 39.9999 20 39.9999ZM20 2.6665C29.56 2.6665 37.3334 10.4398 37.3334 19.9999C37.3334 29.5599 29.5601 37.3333 20 37.3333C10.4399 37.3333 2.66662 29.5599 2.66662 19.9999C2.66662 10.4398 10.44 2.6665 20 2.6665Z" fill="#67C22F"></path><path d="M25.8327 26.3733C26.0794 26.5733 26.3726 26.6667 26.666 26.6667C27.0593 26.6667 27.446 26.4933 27.7059 26.1667C28.166 25.5933 28.0726 24.7533 27.4993 24.2933L21.3326 19.36V9.33331C21.3326 8.59997 20.7327 8 19.9993 8C19.266 8 18.666 8.59997 18.666 9.33331V20C18.666 20.4067 18.8527 20.7867 19.166 21.04L25.8327 26.3733Z" fill="#67C22F"></path></svg> 