<?xml version="1.0" encoding="UTF-8"?> <svg xmlns="http://www.w3.org/2000/svg" width="40" height="40" viewBox="0 0 40 40" fill="none"><g id="icon_share"><g id="share"><path id="Shape" fill-rule="evenodd" clip-rule="evenodd" d="M25.7303 28.4647C27.0415 26.7718 29.0913 25.6763 31.39 25.6763C35.3319 25.6763 38.5435 28.8797 38.5435 32.8216C38.5435 36.7635 35.3402 39.9668 31.3983 39.9668C27.4564 39.9668 24.2531 36.7552 24.2531 32.8216C24.2531 31.9917 24.4025 31.1867 24.668 30.4398L13.6971 24.3071C12.3859 26.0166 10.3278 27.1203 8.02071 27.1203C4.07881 27.1203 0.867188 23.917 0.867188 19.9751C0.867188 16.0332 4.07881 12.8299 8.01242 12.8299C10.3195 12.8299 12.3776 13.9253 13.6805 15.6349L24.6431 9.51037C24.3776 8.77178 24.2365 7.9751 24.2365 7.14523C24.2365 3.20332 27.4398 0 31.3817 0C35.3236 0 38.5269 3.20332 38.5269 7.14523C38.5269 11.0871 35.3153 14.2905 31.3817 14.2905C29.0747 14.2905 27.0166 13.1867 25.7137 11.4855L14.7427 17.61C15.0083 18.3568 15.1493 19.1452 15.1493 19.9751C15.1493 20.7967 15.0083 21.5934 14.751 22.3319L25.7303 28.4647ZM36.2946 7.15353C36.2946 4.44813 34.0954 2.24896 31.39 2.24896C28.6929 2.24896 26.4854 4.44813 26.4854 7.15353C26.4854 9.85892 28.6846 12.0581 31.39 12.0581C34.0954 12.0581 36.2946 9.85892 36.2946 7.15353ZM8.02071 24.8797C5.31532 24.8797 3.11615 22.6805 3.11615 19.9751C3.11615 17.2697 5.31532 15.0705 8.02071 15.0705C10.7261 15.0705 12.9253 17.2697 12.9253 19.9751C12.9253 22.6805 10.7178 24.8797 8.02071 24.8797ZM26.4854 32.8133C26.4854 35.5187 28.6846 37.7178 31.39 37.7178C34.0954 37.7178 36.2946 35.5187 36.2946 32.8133C36.2946 30.1079 34.0954 27.9087 31.39 27.9087C28.6846 27.9087 26.4854 30.1079 26.4854 32.8133Z" fill="#67C22F"></path></g></g></svg> 