<?xml version="1.0" encoding="UTF-8"?> <svg xmlns="http://www.w3.org/2000/svg" width="50" height="40" viewBox="0 0 50 40" fill="none"><path fill-rule="evenodd" clip-rule="evenodd" d="M8.9639 0.566813C8.63561 0.600083 8.33809 0.774712 8.14899 1.04513L0.212485 12.383C-0.032106 12.7283 -0.0640333 13.1812 0.129679 13.5574C0.323391 13.9336 0.710503 14.1707 1.13369 14.1723H16.1918L22.6048 33.8895L6.28887 16.7941C6.00847 16.4974 5.59017 16.3743 5.19371 16.4718C4.79725 16.5694 4.48386 16.8726 4.37321 17.2656C4.26256 17.6586 4.37174 18.0807 4.65906 18.3708L24.1283 38.7613C24.3419 38.982 24.636 39.1067 24.9432 39.1067C25.2504 39.1067 25.5445 38.982 25.7581 38.7613L49.5676 13.8179C49.9409 13.4262 49.9854 12.8254 49.6739 12.383L41.7374 1.04513C41.4953 0.695746 41.0782 0.511102 40.6568 0.566813C40.3478 0.614413 40.0721 0.787488 39.895 1.04513L32.8797 11.0721L27.1222 2.83439H35.7142C36.1231 2.84017 36.5034 2.62534 36.7095 2.27217C36.9157 1.919 36.9157 1.4822 36.7095 1.12903C36.5034 0.775855 36.1231 0.56103 35.7142 0.566813H9.07019C9.03478 0.565151 8.99931 0.565151 8.9639 0.566813ZM22.7642 2.83439L17.0067 11.0721L11.2492 2.83439H22.7642ZM46.5915 11.9047L40.8162 3.6493L35.041 11.9047H46.5915ZM9.05248 3.66701L14.8454 11.9047H3.29497L9.05248 3.66701ZM30.7184 11.9047L24.9432 3.66701L19.168 11.9047H30.7184ZM31.303 14.1723L24.9432 33.7478L18.5834 14.1723H31.303ZM46.0954 14.1723H33.6946L27.2816 33.8895L46.0954 14.1723Z" fill="#67C22F"></path></svg> 