<?xml version="1.0" encoding="UTF-8"?> <svg xmlns="http://www.w3.org/2000/svg" width="44" height="40" viewBox="0 0 44 40" fill="none"><path fill-rule="evenodd" clip-rule="evenodd" d="M28.5622 0.47821C26.4605 0.47821 24.7362 2.20246 24.7362 4.30413C24.7362 6.4058 26.4605 8.13005 28.5622 8.13005C30.6638 8.13005 32.3881 6.4058 32.3881 4.30413C32.3881 2.20246 30.6638 0.47821 28.5622 0.47821ZM28.5622 2.39117C29.63 2.39117 30.4751 3.2363 30.4751 4.30413C30.4751 5.37196 29.63 6.21709 28.5622 6.21709C27.4943 6.21709 26.6492 5.37196 26.6492 4.30413C26.6492 3.2363 27.4943 2.39117 28.5622 2.39117ZM12.302 9.56477C12.302 6.67073 14.6686 4.30413 17.5626 4.30413C20.4567 4.30413 22.8233 6.67073 22.8233 9.56477C22.8233 12.4588 20.4567 14.8254 17.5626 14.8254C14.6686 14.8254 12.302 12.4588 12.302 9.56477ZM17.5626 6.21709C19.4228 6.21709 20.9103 7.70457 20.9103 9.56477C20.9103 11.425 19.4228 12.9125 17.5626 12.9125C15.7024 12.9125 14.215 11.425 14.215 9.56477C14.215 7.70457 15.7024 6.21709 17.5626 6.21709ZM25.6927 15.7819C25.6927 12.6237 28.2734 10.043 31.4316 10.043C34.5898 10.043 37.1705 12.6237 37.1705 15.7819C37.1705 18.9401 34.5898 21.5208 31.4316 21.5208C28.2734 21.5208 25.6927 18.9401 25.6927 15.7819ZM31.4316 11.956C33.5559 11.956 35.2575 13.6576 35.2575 15.7819C35.2575 17.9062 33.5559 19.6078 31.4316 19.6078C29.3073 19.6078 27.6057 17.9062 27.6057 15.7819C27.6057 13.6576 29.3073 11.956 31.4316 11.956ZM0.824237 21.0425C0.822102 20.5474 1.19812 20.1325 1.69105 20.0861C1.72092 20.0847 1.75084 20.0847 1.78072 20.0861H7.99784C8.52606 20.0861 8.95426 20.5143 8.95432 21.0425V21.0575C11.6603 21.0818 14.2322 21.2065 16.4717 21.5955C18.7969 21.9994 20.7779 22.677 22.1956 23.912H30.9534C32.3583 23.912 33.5533 24.7977 34.047 26.0342C34.0955 26.0058 34.1402 25.9795 34.1833 25.9541C34.4334 25.8067 34.6249 25.6938 35.1529 25.4364C36.1833 24.934 37.3915 24.3902 38.6052 24.3902L38.661 24.39C38.9671 24.3881 39.8437 24.3826 40.7423 24.6592C41.2232 24.8072 41.7292 25.0451 42.1621 25.4663C42.595 25.8874 42.9094 26.5423 42.9094 27.2597C42.9094 28.0833 42.7407 28.8259 42.3116 29.4267C41.8861 30.0223 41.3215 30.4201 40.5929 30.9062L40.5779 30.9212C40.5522 30.9391 37.7783 32.858 34.0918 34.7919C30.3881 36.7349 25.7937 38.7374 21.8668 38.7374C15.3772 38.7374 12.445 36.7316 8.95432 34.3286V34.4333C8.95426 34.9615 8.52606 35.3897 7.99784 35.3897H1.78072C1.25249 35.3897 0.824289 34.9615 0.824237 34.4333V21.0425ZM2.7372 21.999H7.04136V32.5203C7.03945 32.5551 7.03945 32.5901 7.04136 32.6249V33.4768H2.7372V21.999ZM16.1429 23.4786C14.0851 23.1211 11.5942 23.0112 8.95432 22.9854V32.0122C9.38845 32.3071 9.80077 32.5941 10.1992 32.8714C13.5217 35.1837 15.879 36.8244 21.8668 36.8245C25.1135 36.8245 29.6056 34.9861 33.1951 33.1031C36.7846 31.2201 39.487 29.337 39.487 29.337L39.5019 29.3221C40.1989 28.8574 40.5886 28.542 40.7573 28.3058C40.926 28.0697 40.9964 27.8708 40.9964 27.2597C40.9964 27.0205 40.9521 26.9431 40.832 26.8263C40.7119 26.7094 40.4708 26.5887 40.1744 26.4975C39.5818 26.3152 38.8443 26.3032 38.6052 26.3032C38.102 26.3032 36.9214 26.7009 35.9898 27.155C35.0582 27.6092 34.3309 28.0667 34.3309 28.0667C34.2611 28.1111 34.1857 28.1463 34.1068 28.1713C33.6966 29.5567 32.4652 30.6073 30.9534 30.6073H17.0844C16.7395 30.6122 16.4186 30.431 16.2447 30.133C16.0708 29.8351 16.0708 29.4666 16.2447 29.1687C16.4186 28.8707 16.7395 28.6895 17.0844 28.6944H30.9534C31.7647 28.6944 32.3881 28.071 32.3881 27.2597C32.3881 26.4483 31.7647 25.8249 30.9534 25.8249H21.8668C21.6139 25.8229 21.3721 25.7208 21.1943 25.541C20.2308 24.5776 18.4559 23.8803 16.1429 23.4786Z" fill="#67C22F"></path></svg> 