<?xml version="1.0" encoding="UTF-8"?> <svg xmlns="http://www.w3.org/2000/svg" width="36" height="40" viewBox="0 0 36 40" fill="none"><g id="icon_chart"><g id="noun_chart_2432894"><path id="Shape" fill-rule="evenodd" clip-rule="evenodd" d="M8.55072 39.5991H2.48828V24.2235H8.55072V39.5991ZM7.08731 25.6869H3.9517V38.1357H7.08731V25.6869Z" fill="#67C22F"></path><path id="Shape_2" fill-rule="evenodd" clip-rule="evenodd" d="M17.1953 39.5992H11.1328V20.5065H17.1953V39.5992ZM15.7318 21.9699H12.5962V38.1357H15.7318V21.9699Z" fill="#67C22F"></path><path id="Shape_3" fill-rule="evenodd" clip-rule="evenodd" d="M25.8378 39.5991H19.7754V15.2177H25.8378V39.5991ZM24.3744 16.6811H21.2388V38.1357H24.3744V16.6811Z" fill="#67C22F"></path><path id="Shape_4" fill-rule="evenodd" clip-rule="evenodd" d="M28.418 39.5992V10.3114H34.4804V39.5992H28.418ZM29.8804 38.1358H33.016V11.7748H29.8804V38.1358Z" fill="#67C22F"></path><path id="Path" d="M30.7417 5.82161L32.1173 6.32112L33.6968 1.98161L29.3564 0.401123L28.8559 1.77576L30.8432 2.50064L1.26758 16.2919L1.88514 17.6187L31.4695 3.82259L30.7417 5.82161Z" fill="#67C22F"></path></g></g></svg> 