<?xml version="1.0" encoding="UTF-8"?> <svg xmlns="http://www.w3.org/2000/svg" width="36" height="42" viewBox="0 0 36 42" fill="none"><path fill-rule="evenodd" clip-rule="evenodd" d="M8.57087e-06 1.73932C-0.00201434 1.26568 0.354283 0.868752 0.821359 0.824309C0.849666 0.822968 0.87802 0.822968 0.906327 0.824309H34.4401C34.9406 0.824359 35.3464 1.23399 35.3464 1.73932V40.1697C35.3464 40.6751 34.9406 41.0847 34.4401 41.0848H0.906327C0.405793 41.0847 4.61056e-05 40.6751 8.57087e-06 40.1697V1.73932ZM27.6427 2.65433H1.81264V39.2547H27.6427V2.65433ZM29.4553 2.65433H33.5338V39.2547H29.4553V2.65433ZM5.89108 6.77187C5.89108 5.51935 6.91624 4.48435 8.15687 4.48435C9.3975 4.48435 10.4227 5.51935 10.4227 6.77187C10.4227 7.69994 9.85786 8.5042 9.06319 8.85924V15.7218C9.06319 18.9045 11.488 21.4121 14.5011 21.4121C17.5142 21.4121 19.939 18.9045 19.939 15.7218V8.85924C19.1443 8.5042 18.5795 7.69994 18.5795 6.77187C18.5795 5.51935 19.6047 4.48435 20.8453 4.48435C22.086 4.48435 23.1111 5.51935 23.1111 6.77187C23.1111 7.69994 22.5463 8.5042 21.7516 8.85924V15.7218C21.7516 19.857 18.5174 23.2421 14.5011 23.2421C10.4848 23.2421 7.25055 19.857 7.25055 15.7218V8.85924C6.45588 8.5042 5.89108 7.69994 5.89108 6.77187ZM8.15687 6.31437C8.41788 6.31437 8.61003 6.50836 8.61003 6.77187C8.61003 7.03538 8.41788 7.22938 8.15687 7.22938C7.89586 7.22938 7.70371 7.03538 7.70371 6.77187C7.70371 6.50836 7.89586 6.31437 8.15687 6.31437ZM21.2985 6.77187C21.2985 6.50836 21.1063 6.31437 20.8453 6.31437C20.5843 6.31437 20.3922 6.50836 20.3922 6.77187C20.3922 7.03538 20.5843 7.22938 20.8453 7.22938C21.1063 7.22938 21.2985 7.03538 21.2985 6.77187Z" fill="#67C22F"></path></svg> 