<?xml version="1.0" encoding="UTF-8"?> <svg xmlns="http://www.w3.org/2000/svg" width="40" height="40" viewBox="0 0 40 40" fill="none"><g id="icon_like"><g id="like-1"><path id="Shape" fill-rule="evenodd" clip-rule="evenodd" d="M38.1105 27.1482C38.9288 26.1044 39.3213 24.9854 39.2712 23.833C39.2211 22.5637 38.6533 21.5699 38.1856 20.9603C38.7284 19.6075 38.9372 17.4781 37.1251 15.8246C35.7973 14.6138 33.5426 14.071 30.4195 14.2213C28.2281 14.3213 26.3943 14.7289 26.3114 14.7473L26.3109 14.7474H26.3025C25.885 14.8225 25.4424 14.9144 24.9915 15.0146C24.9581 14.4802 25.0499 13.1524 26.0353 10.1628C27.2044 6.60543 27.1376 3.88309 25.8182 2.06263C24.432 0.150313 22.219 0 21.5677 0C20.9414 0 20.3652 0.258873 19.956 0.734864C19.0291 1.81211 19.1376 3.79958 19.2545 4.71816C18.1522 7.67432 15.0625 14.9228 12.4487 16.9353C12.3986 16.9687 12.3568 17.0104 12.3151 17.0522C11.5468 17.8622 11.0291 18.739 10.6783 19.5073C10.1856 19.2401 9.62613 19.0898 9.02488 19.0898H3.93094C2.01027 19.0898 0.457031 20.6514 0.457031 22.5637V36.1336C0.457031 38.0543 2.01862 39.6075 3.93094 39.6075H9.02488C9.7681 39.6075 10.4612 39.3737 11.0291 38.9729L12.9915 39.2067C13.2921 39.2484 18.6366 39.9248 24.123 39.8163C25.1167 39.8914 26.052 39.9332 26.9205 39.9332C28.4153 39.9332 29.718 39.8163 30.8036 39.5825C33.3589 39.0397 35.1042 37.9541 35.9894 36.3591C36.6658 35.1399 36.6658 33.929 36.5572 33.1608C38.219 31.6576 38.5113 29.9958 38.4529 28.8267C38.4195 28.1503 38.2691 27.5741 38.1105 27.1482ZM3.93094 37.3528C3.25453 37.3528 2.71173 36.8017 2.71173 36.1336V22.5553C2.71173 21.8789 3.26288 21.3361 3.93094 21.3361H9.02488C9.70129 21.3361 10.2441 21.8873 10.2441 22.5553V36.1253C10.2441 36.8017 9.69294 37.3445 9.02488 37.3445H3.93094V37.3528ZM35.8224 27.5324C35.5552 27.0981 35.622 26.5386 35.9727 26.1712C36.6992 25.4196 37.0499 24.6597 37.0165 23.9165C36.9755 22.8243 36.1268 22.0067 36.0907 21.9719C36.0901 21.9713 36.0897 21.9709 36.0896 21.9708C35.6721 21.595 35.5802 20.9854 35.8892 20.5177C35.9977 20.3424 36.9581 18.7056 35.6053 17.4697C34.0103 16.0167 29.4174 16.3591 26.8537 16.9186C26.837 16.9228 26.8182 16.9269 26.7994 16.9311C26.7806 16.9353 26.7618 16.9395 26.7451 16.9436C26.2858 17.0188 25.8015 17.119 25.2921 17.2359C24.7577 17.428 24.0228 17.4029 23.4716 16.9102C22.361 15.9248 22.4779 13.6868 23.8808 9.43633C24.7994 6.64718 24.8328 4.5428 23.981 3.36534C23.2629 2.37161 22.0687 2.24635 21.6261 2.238C21.4257 2.58038 21.3756 3.72443 21.5176 4.65971C21.551 4.85177 21.5343 5.04384 21.4675 5.21921C21.3088 5.65344 17.6428 15.6827 13.8934 18.6555C12.908 19.7161 12.4904 20.9603 12.3401 21.5198C12.4403 21.8455 12.4988 22.1962 12.4988 22.5553V36.1336C12.4988 36.3841 12.4737 36.6347 12.4236 36.8685L13.2671 36.9687H13.2754C13.3339 36.977 18.7618 37.6785 24.1314 37.5616H24.2483C26.7702 37.762 28.8245 37.7035 30.3359 37.3779C32.2232 36.977 33.4675 36.2589 34.027 35.2568C34.5827 34.2644 34.2856 33.2193 34.2549 33.1114C34.2533 33.1058 34.2524 33.1027 34.2524 33.1023C34.0854 32.6347 34.2441 32.1169 34.6366 31.8163C35.7389 30.9896 36.265 30.0209 36.2065 28.9269C36.1688 28.2032 35.8861 27.6564 35.8315 27.5508C35.8256 27.5394 35.8224 27.5332 35.8224 27.5324Z" fill="#2FC5F1"></path></g></g></svg> 