<?xml version="1.0" encoding="UTF-8"?> <svg xmlns="http://www.w3.org/2000/svg" width="38" height="40" viewBox="0 0 38 40" fill="none"><g id="icon_Security"><g id="noun_Security_1726845"><g id="Group"><path id="Shape" fill-rule="evenodd" clip-rule="evenodd" d="M19.1037 0.615379L36.725 8.82051C37.085 8.99015 37.3147 9.34906 37.3159 9.74358C37.3159 32.6154 20.4719 39.4872 18.6579 39.4872C16.844 39.4872 0 32.6154 0 9.74358C0.0011287 9.34906 0.230857 8.99015 0.590835 8.82051L18.2122 0.615379C18.4942 0.482496 18.8217 0.482496 19.1037 0.615379ZM2.0731 10.3897C2.39444 32.3077 18.575 37.4359 18.7305 37.4359C18.731 37.4354 18.7409 37.432 18.7596 37.4254C19.5208 37.1596 34.9292 31.7799 35.2428 10.3897L18.6579 2.67692L2.0731 10.3897Z" fill="#2FC5F1"></path><path id="Path" d="M14.2103 18.2461C13.8039 17.844 13.1449 17.844 12.7384 18.2461C12.332 18.6483 12.332 19.3004 12.7384 19.7026L16.8846 23.8051C17.0833 23.9925 17.3462 24.0988 17.6206 24.1026C17.9074 24.0935 18.1777 23.9673 18.3669 23.7538L25.6228 15.5487C25.9709 15.1211 25.9169 14.4981 25.5003 14.1354C25.0837 13.7727 24.4523 13.7989 24.0679 14.1949L17.6206 21.5385L14.2103 18.2461Z" fill="#2FC5F1"></path></g></g></g></svg> 