<?xml version="1.0" encoding="UTF-8"?> <svg xmlns="http://www.w3.org/2000/svg" width="39" height="40" viewBox="0 0 39 40" fill="none"><path fill-rule="evenodd" clip-rule="evenodd" d="M37.6534 27.1481C38.4718 26.1043 38.8643 24.9853 38.8142 23.8329C38.7641 22.5636 38.1962 21.5698 37.7286 20.9602C38.2714 19.6074 38.4802 17.478 36.6681 15.8245C35.3403 14.6137 33.0856 14.0709 29.9624 14.2212C27.7711 14.3212 25.9372 14.7287 25.8544 14.7472L25.8539 14.7473H25.8455C25.428 14.8224 24.9854 14.9143 24.5344 15.0145C24.501 14.48 24.5929 13.1523 25.5783 10.1627C26.7474 6.60531 26.6806 3.88297 25.3612 2.06251C23.9749 0.150191 21.762 -0.00012207 21.1106 -0.00012207C20.4843 -0.00012207 19.9081 0.258751 19.499 0.734742C18.572 1.81199 18.6806 3.79946 18.7975 4.71804C17.6952 7.6742 14.6054 14.9226 11.9916 16.9352C11.9415 16.9686 11.8998 17.0103 11.858 17.0521C11.0898 17.8621 10.572 18.7389 10.2213 19.5072C9.7286 19.24 9.1691 19.0896 8.56785 19.0896H3.4739C1.55324 19.0896 0 20.6512 0 22.5636V36.1335C0 38.0542 1.56159 39.6074 3.4739 39.6074H8.56785C9.31106 39.6074 10.0042 39.3736 10.572 38.9727L12.5344 39.2066C12.8351 39.2483 18.1795 39.9247 23.666 39.8162C24.6597 39.8913 25.595 39.9331 26.4635 39.9331C27.9582 39.9331 29.261 39.8162 30.3466 39.5823C32.9019 39.0395 34.6472 37.9539 35.5324 36.359C36.2088 35.1398 36.2088 33.9289 36.1002 33.1606C37.762 31.6575 38.0543 29.9957 37.9958 28.8266C37.9624 28.1502 37.8121 27.574 37.6534 27.1481ZM3.4739 37.3527C2.79749 37.3527 2.2547 36.8015 2.2547 36.1335V22.5552C2.2547 21.8788 2.80585 21.336 3.4739 21.336H8.56785C9.24426 21.336 9.78706 21.8871 9.78706 22.5552V36.1251C9.78706 36.8015 9.23591 37.3443 8.56785 37.3443H3.4739V37.3527ZM35.3653 27.5322C35.0981 27.098 35.1649 26.5385 35.5157 26.1711C36.2422 25.4195 36.5929 24.6596 36.5595 23.9164C36.5184 22.8242 35.6698 22.0065 35.6337 21.9717C35.6331 21.9712 35.6327 21.9708 35.6326 21.9706C35.215 21.5949 35.1232 20.9853 35.4322 20.5176C35.5407 20.3423 36.501 18.7055 35.1482 17.4696C33.5532 16.0166 28.9603 16.359 26.3967 16.9185C26.38 16.9226 26.3612 16.9268 26.3424 16.931C26.3236 16.9352 26.3048 16.9393 26.2881 16.9435C25.8288 17.0187 25.3445 17.1189 24.8351 17.2358C24.3006 17.4279 23.5658 17.4028 23.0146 16.9101C21.904 15.9247 22.0209 13.6867 23.4238 9.4362C24.3424 6.64706 24.3758 4.54268 23.524 3.36522C22.8058 2.37149 21.6117 2.24622 21.1691 2.23787C20.9687 2.58025 20.9186 3.7243 21.0605 4.65959C21.0939 4.85165 21.0772 5.04372 21.0104 5.21908C20.8518 5.65332 17.1858 15.6826 13.4363 18.6554C12.4509 19.716 12.0334 20.9602 11.8831 21.5197C11.9833 21.8454 12.0418 22.1961 12.0418 22.5552V36.1335C12.0418 36.384 12.0167 36.6345 11.9666 36.8684L12.81 36.9686H12.8184C12.8768 36.9769 18.3048 37.6784 23.6743 37.5615H23.7912C26.3132 37.7619 28.3674 37.7034 29.8789 37.3778C31.7662 36.9769 33.0104 36.2588 33.5699 35.2567C34.1256 34.2643 33.8285 33.2192 33.7979 33.1113C33.7963 33.1057 33.7954 33.1026 33.7954 33.1022C33.6284 32.6345 33.7871 32.1168 34.1795 31.8162C35.2818 30.9894 35.8079 30.0208 35.7495 28.9268C35.7118 28.203 35.429 27.6562 35.3745 27.5507C35.3686 27.5393 35.3653 27.533 35.3653 27.5322Z" fill="#67C22F"></path></svg> 