<?xml version="1.0" encoding="UTF-8"?> <svg xmlns="http://www.w3.org/2000/svg" width="38" height="40" viewBox="0 0 38 40" fill="none"><path fill-rule="evenodd" clip-rule="evenodd" d="M19.1037 0.615532L36.725 8.82066C37.085 8.9903 37.3147 9.34921 37.3159 9.74374C37.3159 32.6155 20.4719 39.4873 18.6579 39.4873C16.844 39.4873 0 32.6155 0 9.74374C0.0011287 9.34921 0.230857 8.9903 0.590835 8.82066L18.2122 0.615532C18.4942 0.482648 18.8217 0.482648 19.1037 0.615532ZM2.0731 10.3899C2.39444 32.3078 18.575 37.436 18.7305 37.436C18.731 37.4356 18.7409 37.4321 18.7596 37.4255C19.5208 37.1598 34.9292 31.78 35.2428 10.3899L18.6579 2.67707L2.0731 10.3899Z" fill="#67C22F"></path><path d="M14.2103 18.2463C13.8039 17.8441 13.1449 17.8441 12.7384 18.2463C12.332 18.6485 12.332 19.3006 12.7384 19.7027L16.8846 23.8053C17.0833 23.9927 17.3462 24.099 17.6206 24.1027C17.9074 24.0937 18.1777 23.9675 18.3669 23.754L25.6228 15.5489C25.9709 15.1213 25.9169 14.4983 25.5003 14.1356C25.0837 13.7728 24.4523 13.7991 24.0679 14.195L17.6206 21.5386L14.2103 18.2463Z" fill="#67C22F"></path></svg> 