<?xml version="1.0" encoding="UTF-8"?> <svg xmlns="http://www.w3.org/2000/svg" width="292" height="102" viewBox="0 0 292 102" fill="none"><mask id="mask0_4579_20793" style="mask-type:alpha" maskUnits="userSpaceOnUse" x="0" y="0" width="290" height="100"><path fill-rule="evenodd" clip-rule="evenodd" d="M0.992188 0.000976562H289.265V99.876H0.992188V0.000976562Z" fill="white"></path></mask><g mask="url(#mask0_4579_20793)"><path fill-rule="evenodd" clip-rule="evenodd" d="M200.976 12.2808C202.395 12.2808 203.834 12.1915 205.25 12.0897C208.47 11.8583 211.352 12.8336 213.761 14.9624C216.17 12.8336 219.053 11.8583 222.271 12.0897C223.687 12.1915 225.128 12.2808 226.547 12.2808C227.89 12.2808 229.233 12.2218 230.572 12.1042C234.233 11.7828 237.509 13.0408 240.091 15.7594L241.295 17.0274L242.06 16.5756C247.421 13.4191 253.425 12.1339 259.55 12.1335C261.289 12.1335 263.065 12.2804 264.797 12.4394C265.784 12.5304 266.86 12.6432 267.856 12.6487C269.811 12.5867 271.896 12.3487 273.846 12.1777C276.936 11.9066 279.681 12.7442 282.141 14.7086L284.168 16.3269C287.41 18.9169 289.062 22.6806 288.822 26.9245C288.508 32.4412 288.422 37.9916 288.422 43.517C288.422 50.8449 288.616 58.2161 289.217 65.5189C289.588 70.0082 287.799 74.052 284.28 76.6819L282.115 78.3003C281.988 78.3945 281.862 78.4861 281.735 78.5741C283.359 80.795 284.327 83.5628 284.327 86.558C284.327 93.8372 278.616 99.7746 271.615 99.7746H111.426C108.129 99.7746 105.118 98.4583 102.855 96.3046C100.715 98.4987 97.9172 99.7095 94.7554 99.7688L89.1802 99.8739C83.9315 99.9726 79.4133 96.706 77.6748 91.5557L77.2795 90.3393C72.1944 90.0113 66.9376 90.0124 62.1667 90.0124H43.741C39.1699 90.0124 34.5688 90.1751 30.0001 90.3334C25.1896 90.5006 20.3489 90.6676 15.536 90.6676C11.8834 90.6676 8.74025 89.1475 6.38703 86.2434L3.80874 83.0621C1.79154 80.573 0.862181 77.7248 1.00679 74.4734C1.43297 64.8789 1.60081 55.2683 1.60081 45.6643C1.60081 35.7998 1.42014 25.9326 1.0054 16.077C0.871544 12.9015 1.75894 10.1244 3.69327 7.66278L6.12001 4.57492C8.69481 1.29842 12.337 -0.305855 16.3915 0.0507269C18.2 0.209707 20.014 0.287299 21.8286 0.287299C23.61 0.287299 25.3918 0.212465 27.1665 0.0527967C30.6295 -0.25861 33.7234 0.835623 36.285 3.27826C38.8258 5.70121 40.1408 8.78184 40.1616 12.3583C41.9542 11.2459 44.0032 10.6737 46.2434 10.6737H55.6459C57.9118 10.6737 59.9993 11.2676 61.803 12.3973C61.8147 8.85909 63.0877 5.81261 65.5696 3.38516C68.0629 0.946667 71.0809 -0.187914 74.4974 0.0296912C76.3523 0.147633 78.2776 0.287645 80.1352 0.287299C81.9454 0.286955 83.7594 0.192809 85.5638 0.0448652C89.5343 -0.280681 93.0884 1.26428 95.6545 4.43077L98.1562 7.51828C100.139 9.96538 101.068 12.7536 100.964 15.9455C106.457 12.8732 112.62 11.4717 119.09 11.4717C128.265 11.4717 136.654 14.6106 143.084 21.503C143.542 21.9937 143.981 22.4938 144.404 23.0035C145.309 21.5927 146.508 20.3952 147.994 19.4207C151.132 17.364 154.201 15.0251 157.181 12.7329C159.915 10.6306 163.016 9.87055 166.365 10.482C169.713 11.0931 172.379 12.905 174.261 15.8496C176.936 20.0366 179.526 24.2826 182.022 28.5859L181.965 27.1624C181.815 23.5079 183.036 20.3026 185.549 17.7439L187.644 15.6104C190.219 12.9895 193.43 11.789 197.021 12.1042C198.336 12.2197 199.655 12.2808 200.976 12.2808Z" fill="white"></path></g><path fill-rule="evenodd" clip-rule="evenodd" d="M95.6662 71.0008L89.8334 71.0013C89.4279 62.2734 89.2248 53.9249 89.2248 45.9564C89.2248 36.8487 89.4279 26.6673 89.8334 15.4095L87.3213 12.2793C85.038 12.4683 82.9063 12.5639 80.927 12.5639C79.607 12.5639 77.4759 12.4683 74.5318 12.2793C74.5318 15.8202 74.5952 21.1651 74.7218 28.3109C74.8491 35.4579 74.9131 40.8343 74.9131 44.4385C74.9131 47.4103 74.8491 51.8533 74.7218 57.767C74.5952 63.681 74.5318 68.0918 74.5318 71.0008L58.1638 71.0013C57.7073 60.5026 57.4792 52.7859 57.4792 47.8534C57.4792 45.3876 57.5932 41.7031 57.8218 36.8018C58.0502 31.9002 58.1638 28.2479 58.1638 25.8447L56.3375 23.0935H46.8973L44.6897 25.8447C44.6897 28.2479 44.8042 31.9002 45.0327 36.8018C45.2605 41.7034 45.3742 45.3876 45.3742 47.8534C45.3742 54.6206 45.1461 62.3367 44.6897 71.0008L28.7787 71.0013C28.7787 68.0284 28.7277 63.5066 28.6265 57.4357C28.5249 51.3639 28.4738 46.8095 28.4738 43.7744C28.4738 40.2954 28.5249 35.0466 28.6265 28.0263C28.7277 21.0072 28.7787 15.7575 28.7787 12.2793C26.6971 12.4683 24.5665 12.5639 22.3837 12.5639C20.2013 12.5639 18.0446 12.4683 15.9129 12.2793L13.4766 15.4095C13.8827 25.1495 14.0862 35.3311 14.0862 45.9564C14.0862 56.5813 13.8827 66.511 13.4766 75.7443L16.0652 78.9694C19.1609 78.9694 23.8686 78.8592 30.1871 78.6379C36.5053 78.4167 41.2388 78.3058 44.3848 78.3058H62.8846C74.0566 78.3058 82.3632 78.7531 87.8061 79.6489C88.0887 82.1498 88.8913 85.6147 89.7906 88.3046L95.3883 88.1982C93.0639 82.2505 98.7763 76.2399 95.6662 71.0008ZM266.611 48.0683V44.9353C266.611 41.6541 266.423 36.06 266.049 28.1545C258.706 28.9495 255.034 32.3307 255.034 38.2973C255.034 44.2144 258.894 47.4714 266.611 48.0683ZM278.887 67.1617L276.712 68.8027C275.543 68.6035 273.696 68.5045 271.17 68.5045C268.831 68.5045 267.031 68.6035 265.768 68.8027C266.33 64.2277 266.611 58.2864 266.611 50.977H262.751C258.168 56.9937 253.539 63.4821 248.861 70.4435C245.681 67.1617 242.407 64.3523 239.039 62.0157C243.529 57.2418 247.528 52.7422 251.036 48.5161C245.892 46.8249 243.319 43.1457 243.319 37.477C243.319 33.1012 245.331 29.7701 249.353 27.483C252.58 25.5437 256.485 24.5737 261.068 24.5737C262.004 24.5737 263.406 24.6612 265.278 24.8351C267.148 25.0087 268.551 25.0962 269.487 25.0962C270.188 25.0962 272.503 24.922 276.431 24.5737L278.465 26.2144C278.186 31.1997 278.045 37.0546 278.045 43.7797C278.045 52.4936 278.325 60.2874 278.887 67.1617ZM235.016 66.4902L233.122 68.3547C231.391 68.2063 229.661 68.1314 227.931 68.1314C226.153 68.1314 224.446 68.2063 222.81 68.3551C222.951 62.2394 223.02 55.8248 223.02 49.1122H207.165V52.3195C207.165 56.6454 207.235 61.9909 207.376 68.3551C205.74 68.2063 204.032 68.1314 202.255 68.1314C200.57 68.1314 198.864 68.2063 197.134 68.3551L195.17 66.4902C195.45 59.1315 195.59 52.3941 195.59 46.2781C195.59 40.1123 195.45 33.5738 195.169 26.6622L197.275 24.4994C198.958 24.6486 200.617 24.7231 202.255 24.7231C203.612 24.7231 205.318 24.6486 207.376 24.4994C207.235 30.1926 207.165 34.8044 207.165 38.3473V43.8914H223.02C223.02 36.6068 222.951 30.1428 222.81 24.4994C224.868 24.6486 226.574 24.7231 227.931 24.7231C229.614 24.7231 231.299 24.6486 232.982 24.4994L235.016 26.6622C234.735 31.9824 234.595 38.5209 234.595 46.2781C234.595 54.1344 234.735 60.8718 235.016 66.4902ZM173.917 63.5818H150.626C155.395 57.7642 159.488 50.5294 162.903 41.8778C167.018 48.1926 170.69 55.4271 173.917 63.5818ZM191.735 63.5818H187.456C181.236 49.7091 173.894 36.0849 165.427 22.7095C161.265 25.9414 157.944 28.3777 155.466 30.0185L158.904 35.5381C156.144 44.2397 152.94 51.1013 149.293 56.1234C146.908 59.3551 145.457 61.2449 144.943 61.792C143.727 62.9854 141.927 63.5818 139.541 63.5818L141.225 70.6672C142.769 69.1756 145.551 68.4299 149.573 68.4299H176.162C183.224 68.4299 187.69 69.1756 189.561 70.6672L191.735 63.5818ZM128.177 49.3359C128.177 38.1481 124.108 31.038 115.97 28.0046C111.761 31.0877 109.656 36.06 109.656 42.9217C109.656 54.0101 113.655 61.1454 121.653 64.3275C126.002 61.1951 128.177 56.1979 128.177 49.3359ZM141.365 46.5019C141.365 53.165 139.05 58.6344 134.42 62.9105C129.93 66.938 124.389 68.9519 117.794 68.9519C108.441 68.9519 102.009 64.6504 98.502 56.0485C97.2394 52.9657 96.6079 49.7584 96.6079 46.4276C96.6079 39.6149 98.8762 34.1206 103.413 29.944C107.762 25.9161 113.304 23.903 120.039 23.903C126.446 23.9025 131.602 26.0158 135.507 30.2419C139.412 34.4689 141.365 39.8888 141.365 46.5019Z" fill="#DC2B1C"></path><path fill-rule="evenodd" clip-rule="evenodd" d="M258.107 80.836C258.107 80.7238 258.097 80.6315 258.074 80.5612C258.054 80.4917 258.016 80.4388 257.969 80.4012C257.921 80.3654 257.858 80.3401 257.785 80.3294C257.712 80.3177 257.623 80.3106 257.52 80.3106C257.41 80.3106 257.318 80.3173 257.242 80.3294C257.164 80.3401 257.1 80.3654 257.051 80.4012C257.001 80.4388 256.965 80.4917 256.94 80.5612C256.917 80.6315 256.904 80.7238 256.904 80.836V81.6261L256.366 83.0045C256.35 83.0424 256.344 83.073 256.346 83.1003C256.347 83.1277 256.36 83.1479 256.385 83.1648C256.406 83.1822 256.445 83.194 256.499 83.2027C256.552 83.2109 256.62 83.2148 256.706 83.2148C256.781 83.2148 256.845 83.2109 256.897 83.2027C256.947 83.194 256.989 83.1837 257.025 83.1701C257.061 83.1566 257.09 83.1395 257.115 83.1153C257.14 83.0919 257.162 83.0647 257.184 83.0303L257.777 82.0714C257.838 81.9743 257.89 81.8806 257.93 81.7883C257.971 81.6957 258.007 81.6019 258.033 81.5067C258.058 81.4096 258.078 81.3072 258.091 81.1978C258.1 81.0904 258.107 80.9695 258.107 80.836ZM126.362 83.7297C126.362 83.5871 126.355 83.468 126.345 83.3698C126.333 83.2714 126.318 83.1917 126.295 83.1335C126.275 83.0726 126.247 83.0306 126.216 83.0072C126.183 82.9814 126.147 82.9675 126.107 82.9675H121.563C121.519 82.9675 121.481 82.9814 121.453 83.0072C121.422 83.0306 121.395 83.0726 121.375 83.1335C121.353 83.1917 121.335 83.2692 121.322 83.3629C121.309 83.4563 121.302 83.5708 121.302 83.7089C121.302 83.8585 121.309 83.9871 121.32 84.0922C121.331 84.1977 121.346 84.2793 121.368 84.3379C121.389 84.3987 121.417 84.4408 121.448 84.4669C121.481 84.49 121.519 84.5039 121.563 84.5039H123.024V89.3125C123.024 89.3593 123.035 89.3986 123.06 89.4338C123.084 89.4667 123.126 89.4973 123.188 89.5185C123.253 89.5415 123.335 89.5578 123.439 89.5699C123.543 89.5815 123.673 89.5883 123.829 89.5883C123.989 89.5883 124.121 89.5815 124.228 89.5699C124.334 89.5578 124.418 89.5415 124.478 89.5185C124.538 89.4973 124.582 89.4667 124.609 89.4338C124.633 89.399 124.647 89.3593 124.647 89.3125V84.5039H126.107C126.147 84.5039 126.183 84.4926 126.216 84.4687C126.247 84.4458 126.275 84.4056 126.295 84.3448C126.318 84.2866 126.333 84.2071 126.345 84.1061C126.355 84.0061 126.362 83.8798 126.362 83.7297ZM255.407 89.2796L254.83 83.5569C254.812 83.3606 254.751 83.2129 254.65 83.1145C254.549 83.0166 254.396 82.9675 254.186 82.9675H253.368C253.192 82.9675 253.04 82.9861 252.922 83.019C252.798 83.054 252.697 83.1077 252.616 83.1782C252.533 83.248 252.466 83.3418 252.414 83.4585C252.363 83.5753 252.314 83.7156 252.272 83.8798L251.623 85.9705C251.582 86.0966 251.542 86.2347 251.501 86.3798C251.46 86.5268 251.421 86.6739 251.385 86.8263C251.348 86.976 251.312 87.1257 251.276 87.271C251.243 87.4179 251.212 87.5515 251.186 87.6754H251.179C251.154 87.5515 251.126 87.4202 251.092 87.2826C251.059 87.1423 251.023 86.9994 250.986 86.8497C250.947 86.7026 250.906 86.5526 250.869 86.4052C250.828 86.2558 250.791 86.1129 250.752 85.9776L250.102 83.8798C250.055 83.7016 250.001 83.5524 249.94 83.4351C249.88 83.3161 249.802 83.2224 249.712 83.1546C249.621 83.0843 249.514 83.0374 249.395 83.0095C249.273 82.9814 249.126 82.9675 248.953 82.9675H248.129C247.926 82.9675 247.773 83.0166 247.673 83.1145C247.574 83.2129 247.512 83.3603 247.492 83.5569L246.922 89.2796C246.917 89.3381 246.922 89.3872 246.938 89.4273C246.952 89.4644 246.983 89.4973 247.034 89.523C247.083 89.5464 247.155 89.5649 247.245 89.5744C247.336 89.5838 247.457 89.5883 247.607 89.5883C247.777 89.5883 247.913 89.5838 248.018 89.5767C248.122 89.5699 248.204 89.5554 248.265 89.532C248.324 89.5086 248.366 89.4783 248.388 89.4412C248.408 89.4012 248.424 89.352 248.433 89.2938L248.766 86.0524C248.774 85.9329 248.783 85.7995 248.797 85.6547C248.809 85.5073 248.823 85.3598 248.836 85.21C248.85 85.0585 248.861 84.9084 248.87 84.7613C248.877 84.6113 248.886 84.4787 248.894 84.3592L248.887 84.1882C248.914 84.3122 248.945 84.4479 248.983 84.595C249.017 84.7451 249.058 84.8945 249.1 85.0445C249.14 85.1961 249.181 85.3436 249.222 85.491C249.264 85.6358 249.301 85.7692 249.336 85.8884L250.33 89.2659C250.343 89.3241 250.366 89.3755 250.4 89.4152C250.436 89.4575 250.485 89.4904 250.547 89.5157C250.61 89.5415 250.688 89.5578 250.78 89.5699C250.873 89.5815 250.989 89.5883 251.122 89.5883C251.27 89.5883 251.392 89.5815 251.489 89.5699C251.587 89.5578 251.667 89.5415 251.729 89.5157C251.791 89.4904 251.84 89.4575 251.874 89.4152C251.91 89.3755 251.935 89.3264 251.952 89.2723L252.972 85.8884C253.008 85.7692 253.043 85.6358 253.083 85.4865C253.12 85.339 253.162 85.1893 253.207 85.0369C253.25 84.8876 253.289 84.7379 253.326 84.5932C253.362 84.4458 253.395 84.3122 253.426 84.1882L253.42 84.3592C253.434 84.4787 253.445 84.6113 253.453 84.7613C253.462 84.9084 253.471 85.0581 253.482 85.21C253.493 85.3602 253.504 85.5073 253.515 85.6547C253.526 85.7995 253.537 85.9326 253.551 86.0524L253.894 89.3336C253.899 89.3896 253.91 89.4338 253.929 89.4667C253.949 89.5017 253.986 89.5275 254.041 89.5464C254.093 89.5649 254.174 89.5767 254.274 89.5815C254.375 89.5862 254.509 89.5883 254.681 89.5883C254.958 89.5883 255.148 89.5649 255.257 89.5185C255.365 89.4738 255.417 89.3944 255.407 89.2796ZM262.124 89.3125V83.2016C262.124 83.1569 262.111 83.1145 262.085 83.0821C262.058 83.0472 262.014 83.019 261.952 82.9955C261.888 82.9721 261.805 82.9558 261.702 82.944C261.598 82.9324 261.466 82.9274 261.306 82.9274C261.146 82.9274 261.012 82.9324 260.911 82.944C260.806 82.9558 260.722 82.9721 260.661 82.9955C260.595 83.019 260.551 83.0472 260.527 83.0821C260.5 83.1145 260.487 83.1569 260.487 83.2016V89.3125C260.487 89.3593 260.5 89.3986 260.527 89.4338C260.551 89.4667 260.595 89.4973 260.661 89.5185C260.722 89.5415 260.806 89.5578 260.911 89.5699C261.012 89.5815 261.146 89.5883 261.306 89.5883C261.466 89.5883 261.598 89.5815 261.702 89.5699C261.805 89.5578 261.888 89.5415 261.952 89.5185C262.014 89.4973 262.058 89.4667 262.085 89.4338C262.111 89.399 262.124 89.3593 262.124 89.3125ZM261.015 81.1385C261.015 80.8277 260.959 80.6122 260.853 80.4909C260.745 80.3714 260.534 80.3106 260.221 80.3106C259.924 80.3106 259.718 80.3736 259.605 80.4977C259.491 80.624 259.437 80.8485 259.437 81.174C259.437 81.4803 259.49 81.693 259.598 81.8145C259.707 81.9361 259.916 81.9943 260.221 81.9943C260.525 81.9943 260.733 81.9335 260.847 81.8072C260.957 81.6809 261.015 81.4587 261.015 81.1385ZM263.196 81.1385C263.196 80.8277 263.143 80.6122 263.034 80.4909C262.925 80.3714 262.717 80.3106 262.411 80.3106C262.108 80.3106 261.902 80.3736 261.791 80.4977C261.68 80.624 261.624 80.8485 261.624 81.174C261.624 81.4803 261.677 81.693 261.783 81.8145C261.889 81.9361 262.097 81.9943 262.405 81.9943C262.706 81.9943 262.914 81.9335 263.028 81.8072C263.14 81.6809 263.196 81.4587 263.196 81.1385ZM135.494 86.195C135.494 85.6524 135.432 85.1708 135.312 84.7497C135.191 84.3308 135.007 83.9753 134.756 83.6877C134.508 83.4 134.193 83.1826 133.812 83.0332C133.431 82.8855 132.981 82.8111 132.462 82.8111C131.928 82.8111 131.465 82.8948 131.068 83.0654C130.671 83.234 130.343 83.4729 130.077 83.7814C129.813 84.09 129.616 84.4597 129.483 84.89C129.352 85.3224 129.286 85.7973 129.286 86.3189C129.286 86.8592 129.346 87.3386 129.468 87.7575C129.589 88.1783 129.776 88.5313 130.026 88.8186C130.276 89.1067 130.594 89.3264 130.975 89.4783C131.356 89.6285 131.804 89.703 132.318 89.703C132.85 89.703 133.316 89.6186 133.714 89.4504C134.113 89.2822 134.444 89.0409 134.708 88.7302C134.971 88.4213 135.168 88.0497 135.299 87.6213C135.428 87.1915 135.494 86.7167 135.494 86.195ZM133.812 86.2649C133.812 85.9636 133.79 85.685 133.743 85.4324C133.699 85.1772 133.621 84.9576 133.513 84.7705C133.404 84.5834 133.26 84.4358 133.081 84.3334C132.901 84.2284 132.675 84.1742 132.402 84.1742C132.161 84.1742 131.948 84.2211 131.766 84.3145C131.584 84.4082 131.436 84.5458 131.318 84.7263C131.201 84.9061 131.115 85.1239 131.055 85.3765C130.997 85.6313 130.968 85.9189 130.968 86.2441C130.968 86.5458 130.991 86.8218 131.039 87.0765C131.086 87.3291 131.163 87.5491 131.27 87.7386C131.376 87.9257 131.52 88.0705 131.702 88.1733C131.884 88.2765 132.107 88.3275 132.376 88.3275C132.624 88.3275 132.837 88.2788 133.021 88.185C133.202 88.0912 133.351 87.956 133.468 87.7783C133.583 87.6005 133.67 87.3851 133.728 87.1302C133.783 86.8778 133.812 86.5878 133.812 86.2649ZM144.613 87.5189C144.613 87.0883 144.497 86.7375 144.263 86.4663C144.03 86.195 143.693 86.0173 143.257 85.9352C143.607 85.849 143.877 85.6826 144.066 85.4347C144.254 85.1893 144.347 84.8805 144.347 84.5111C144.347 84.2348 144.294 83.9966 144.19 83.7955C144.083 83.5921 143.919 83.419 143.702 83.2809C143.482 83.1406 143.205 83.0374 142.871 82.9675C142.534 82.8998 142.135 82.8669 141.672 82.8669C141.49 82.8669 141.31 82.8692 141.133 82.8719C140.956 82.8761 140.785 82.8832 140.621 82.8903C140.457 82.8972 140.304 82.9043 140.162 82.9138C140.023 82.9232 139.899 82.9324 139.79 82.9419C139.622 82.9653 139.495 83.0284 139.413 83.1358C139.331 83.2435 139.289 83.4022 139.289 83.6129L139.289 88.8822C139.289 89.1018 139.333 89.2659 139.42 89.3755C139.506 89.4856 139.65 89.5486 139.854 89.5675C140.009 89.5862 140.156 89.5978 140.293 89.6069C140.428 89.6167 140.566 89.6235 140.701 89.6285C140.838 89.633 140.978 89.6375 141.125 89.6398C141.269 89.642 141.426 89.642 141.594 89.642C142.106 89.642 142.549 89.5956 142.926 89.5044C143.303 89.4133 143.616 89.2796 143.869 89.1041C144.119 88.9286 144.305 88.7091 144.429 88.4425C144.553 88.1783 144.613 87.8694 144.613 87.5189ZM142.822 84.8195C142.822 84.696 142.802 84.586 142.76 84.49C142.72 84.3942 142.654 84.3122 142.563 84.2464C142.472 84.1814 142.35 84.13 142.202 84.0948C142.053 84.0619 141.871 84.0431 141.659 84.0431C141.495 84.0431 141.34 84.0479 141.195 84.0574C141.051 84.0666 140.923 84.0782 140.816 84.0922V85.6336H141.692C142.06 85.6336 142.341 85.5636 142.534 85.4256C142.724 85.2853 142.822 85.0839 142.822 84.8195ZM142.991 87.5113C142.991 87.3642 142.968 87.2381 142.922 87.1284C142.878 87.0184 142.802 86.9268 142.696 86.8542C142.589 86.7797 142.45 86.7257 142.279 86.6928C142.109 86.6576 141.905 86.6415 141.665 86.6415H140.816V88.3957C140.885 88.4051 140.958 88.4118 141.034 88.4191C141.109 88.4259 141.186 88.4307 141.264 88.4354C141.342 88.4399 141.419 88.4447 141.495 88.447C141.57 88.4493 141.638 88.4493 141.698 88.4493C141.929 88.4493 142.124 88.4286 142.29 88.3839C142.454 88.342 142.587 88.2788 142.691 88.1971C142.796 88.1151 142.871 88.0141 142.919 87.8978C142.966 87.7828 142.991 87.652 142.991 87.5113ZM153.306 89.3336V85.2221C153.306 84.8034 153.258 84.4385 153.162 84.1345C153.067 83.8279 152.916 83.578 152.708 83.3837C152.499 83.1898 152.236 83.0446 151.912 82.9513C151.591 82.8574 151.2 82.8111 150.746 82.8111C150.491 82.8111 150.243 82.8318 150.004 82.8761C149.764 82.9211 149.54 82.9743 149.339 83.0446C149.135 83.1124 148.958 83.1875 148.805 83.2669C148.654 83.3466 148.548 83.4189 148.488 83.4869C148.428 83.5524 148.386 83.6269 148.363 83.7089C148.341 83.7905 148.333 83.9029 148.333 84.0431C148.333 84.1485 148.337 84.2445 148.35 84.3334C148.363 84.4195 148.384 84.4926 148.406 84.5508C148.43 84.6113 148.461 84.6558 148.496 84.6887C148.534 84.7213 148.576 84.7353 148.623 84.7353C148.694 84.7353 148.783 84.705 148.893 84.64C149.004 84.5769 149.141 84.5061 149.306 84.429C149.469 84.3497 149.66 84.2793 149.873 84.2163C150.088 84.1511 150.332 84.1206 150.604 84.1206C150.813 84.1206 150.986 84.1413 151.127 84.1882C151.267 84.2347 151.38 84.3055 151.464 84.4011C151.549 84.4971 151.611 84.6163 151.646 84.7613C151.684 84.9039 151.702 85.0721 151.702 85.2642V85.6336H151.136C150.622 85.6336 150.17 85.6758 149.78 85.7579C149.39 85.8392 149.064 85.9655 148.802 86.1368C148.541 86.3095 148.344 86.5247 148.211 86.7889C148.08 87.0509 148.013 87.3597 148.013 87.7173C148.013 88.0447 148.065 88.3325 148.168 88.5805C148.273 88.8259 148.419 89.0341 148.608 89.2001C148.796 89.3661 149.019 89.4923 149.277 89.5767C149.534 89.6609 149.815 89.703 150.123 89.703C150.496 89.703 150.835 89.6281 151.141 89.4783C151.444 89.3264 151.717 89.1157 151.954 88.8467V89.3336C151.954 89.399 151.974 89.4478 152.01 89.4856C152.047 89.5207 152.109 89.546 152.198 89.5627C152.287 89.5789 152.429 89.5883 152.624 89.5883C152.806 89.5883 152.943 89.5789 153.036 89.5627C153.129 89.5464 153.198 89.5207 153.24 89.4856C153.284 89.4481 153.306 89.3986 153.306 89.3336ZM151.702 86.7167H151.079C150.815 86.7167 150.589 86.7375 150.403 86.7771C150.217 86.8191 150.066 86.88 149.948 86.962C149.831 87.0463 149.747 87.1447 149.691 87.2615C149.638 87.3783 149.611 87.5113 149.611 87.6615C149.611 87.9186 149.687 88.12 149.842 88.2644C149.995 88.4118 150.208 88.4844 150.481 88.4844C150.711 88.4841 150.921 88.4236 151.114 88.2996C151.307 88.1757 151.502 87.9957 151.702 87.7575V86.7167ZM163.269 86.1692C163.269 85.7061 163.226 85.2732 163.138 84.8665C163.052 84.4597 162.915 84.1043 162.726 83.7977C162.539 83.4911 162.297 83.2503 161.997 83.0753C161.699 82.8998 161.336 82.8111 160.913 82.8111C160.709 82.8111 160.517 82.834 160.337 82.8787C160.158 82.9251 159.984 82.9955 159.814 83.0893C159.646 83.1827 159.482 83.2998 159.318 83.4377C159.155 83.578 158.99 83.7395 158.821 83.9216V83.2016C158.821 83.1569 158.81 83.1145 158.79 83.0821C158.768 83.0472 158.731 83.019 158.675 82.9955C158.621 82.9721 158.551 82.9558 158.462 82.944C158.373 82.9324 158.262 82.9274 158.134 82.9274C157.999 82.9274 157.888 82.9324 157.799 82.944C157.711 82.9558 157.638 82.9721 157.585 82.9955C157.532 83.019 157.494 83.0477 157.471 83.0821C157.449 83.115 157.438 83.1569 157.438 83.2016V91.4185C157.438 91.4654 157.452 91.5062 157.479 91.5425C157.504 91.5788 157.547 91.6098 157.611 91.6359C157.672 91.6616 157.758 91.6806 157.861 91.6945C157.964 91.7085 158.097 91.713 158.256 91.713C158.418 91.713 158.548 91.7085 158.653 91.6945C158.757 91.6806 158.838 91.6624 158.902 91.6359C158.965 91.6109 159.009 91.5796 159.037 91.5425C159.062 91.507 159.074 91.4654 159.074 91.4185V88.861C159.213 89.0039 159.346 89.1252 159.477 89.2307C159.608 89.3359 159.739 89.4246 159.869 89.4946C160.003 89.5649 160.137 89.6186 160.279 89.6512C160.418 89.6867 160.575 89.703 160.743 89.703C161.151 89.703 161.513 89.6209 161.828 89.4575C162.144 89.2938 162.407 89.0572 162.62 88.7514C162.834 88.4447 162.993 88.075 163.104 87.638C163.215 87.2028 163.269 86.7118 163.269 86.1692ZM161.568 86.291C161.568 86.0313 161.549 85.781 161.514 85.5424C161.477 85.3016 161.415 85.0887 161.326 84.9016C161.237 84.7145 161.119 84.5648 160.973 84.4524C160.829 84.3406 160.648 84.2842 160.432 84.2842C160.323 84.2842 160.217 84.3005 160.111 84.3358C160.005 84.3708 159.895 84.4268 159.785 84.5039C159.674 84.5811 159.561 84.6819 159.444 84.8056C159.329 84.9274 159.204 85.0816 159.074 85.2642V87.2778C159.304 87.5844 159.524 87.8207 159.73 87.9862C159.938 88.1544 160.155 88.2365 160.379 88.2365C160.592 88.2365 160.774 88.1805 160.923 88.066C161.071 87.951 161.193 87.8017 161.288 87.6173C161.383 87.432 161.455 87.2236 161.5 86.99C161.546 86.7583 161.568 86.5247 161.568 86.291ZM172.844 89.3336V83.2016C172.844 83.1569 172.833 83.1145 172.812 83.0775C172.79 83.0424 172.749 83.0121 172.691 82.9882C172.632 82.9675 172.555 82.9513 172.456 82.9419C172.356 82.9324 172.229 82.9274 172.078 82.9274C171.942 82.9274 171.834 82.9324 171.75 82.9419C171.666 82.9513 171.595 82.9653 171.534 82.9861C171.477 83.0072 171.428 83.0332 171.389 83.068C171.352 83.1032 171.313 83.1453 171.28 83.1943L169.305 86.0033C169.183 86.1737 169.071 86.3469 168.962 86.5268C168.854 86.7095 168.746 86.8894 168.643 87.072C168.665 86.8849 168.682 86.6905 168.696 86.4894C168.707 86.2887 168.713 86.0944 168.713 85.9073V83.1943C168.713 83.1077 168.651 83.0424 168.524 82.9955C168.401 82.9513 168.184 82.9274 167.878 82.9274C167.72 82.9274 167.592 82.9324 167.489 82.944C167.388 82.9558 167.307 82.9721 167.244 82.9955C167.182 83.019 167.138 83.0472 167.113 83.0821C167.091 83.1145 167.077 83.1546 167.077 83.1943V89.3264C167.077 89.3733 167.091 89.413 167.113 89.4481C167.138 89.4807 167.18 89.5086 167.238 89.5298C167.296 89.5486 167.372 89.5649 167.471 89.5744C167.567 89.5838 167.694 89.5883 167.851 89.5883C167.98 89.5883 168.086 89.5838 168.168 89.5767C168.25 89.5699 168.318 89.5554 168.375 89.537C168.428 89.5157 168.471 89.4878 168.507 89.4527C168.54 89.4201 168.579 89.3778 168.616 89.3264L170.571 86.5247C170.698 86.342 170.821 86.1576 170.941 85.9726C171.063 85.7881 171.175 85.5987 171.28 85.4071C171.258 85.6029 171.243 85.8044 171.232 86.01C171.221 86.2158 171.214 86.4147 171.214 86.6066V89.3336C171.214 89.3804 171.228 89.4175 171.255 89.4504C171.285 89.4828 171.333 89.5086 171.4 89.5298C171.466 89.5486 171.553 89.5649 171.659 89.5744C171.766 89.5838 171.897 89.5883 172.051 89.5883C172.209 89.5883 172.337 89.5838 172.44 89.5744C172.541 89.5649 172.621 89.5486 172.68 89.5298C172.743 89.5086 172.785 89.4828 172.81 89.4504C172.832 89.4175 172.844 89.3804 172.844 89.3336ZM187.824 86.8871C187.824 86.5855 187.782 86.314 187.695 86.0736C187.609 85.8302 187.489 85.6195 187.34 85.4397C187.192 85.2571 187.016 85.1121 186.816 84.9976C186.613 84.8827 186.394 84.8034 186.155 84.7565C186.341 84.6842 186.508 84.5882 186.652 84.4687C186.797 84.3497 186.919 84.2143 187.019 84.0574C187.119 83.9029 187.194 83.7297 187.245 83.5403C187.298 83.3508 187.325 83.1498 187.325 82.935C187.325 82.5513 187.259 82.2167 187.13 81.9338C187 81.6507 186.813 81.4172 186.568 81.2322C186.324 81.0474 186.023 80.9093 185.665 80.8183C185.308 80.7272 184.872 80.6803 184.357 80.6803H182.248C182.104 80.6803 181.984 80.7246 181.885 80.8133C181.789 80.9025 181.74 81.0474 181.74 81.2485V88.9778C181.74 89.1789 181.789 89.3241 181.885 89.4133C181.984 89.5018 182.104 89.546 182.248 89.546L184.479 89.5464C184.819 89.5464 185.123 89.5249 185.4 89.4807C185.675 89.4386 185.934 89.3706 186.176 89.2796C186.416 89.1888 186.641 89.0715 186.839 88.9286C187.042 88.7884 187.214 88.6202 187.361 88.4236C187.504 88.2273 187.618 88.0002 187.703 87.7431C187.784 87.4883 187.824 87.2028 187.824 86.8871ZM185.617 83.1546C185.617 82.9743 185.59 82.8156 185.539 82.6748C185.487 82.5324 185.408 82.4159 185.305 82.3222C185.202 82.2285 185.072 82.1558 184.911 82.1043C184.753 82.0556 184.543 82.0295 184.28 82.0295H183.415V84.3308H184.371C184.616 84.3308 184.814 84.3005 184.96 84.2397C185.109 84.1787 185.231 84.0922 185.328 83.9871C185.425 83.8798 185.497 83.7535 185.545 83.6082C185.592 83.4658 185.617 83.3138 185.617 83.1546ZM186.051 86.9502C186.051 86.7442 186.02 86.5597 185.954 86.3984C185.888 86.2347 185.793 86.0989 185.67 85.9892C185.543 85.8815 185.384 85.795 185.189 85.7363C184.994 85.6781 184.741 85.6479 184.429 85.6479H183.415V88.1688H184.65C184.888 88.1688 185.086 88.1431 185.25 88.0894C185.412 88.038 185.551 87.9609 185.671 87.8576C185.792 87.7549 185.884 87.6263 185.951 87.4744C186.018 87.3197 186.051 87.1465 186.051 86.9502ZM196.535 89.3336V85.2221C196.535 84.8034 196.486 84.4385 196.391 84.1345C196.296 83.8279 196.144 83.578 195.937 83.3837C195.727 83.1898 195.464 83.0446 195.14 82.9513C194.82 82.8574 194.43 82.8111 193.974 82.8111C193.72 82.8111 193.471 82.8318 193.233 82.8761C192.994 82.9211 192.769 82.9743 192.567 83.0446C192.364 83.1124 192.186 83.1875 192.033 83.2669C191.882 83.3466 191.776 83.4189 191.717 83.4869C191.656 83.5524 191.614 83.6269 191.592 83.7089C191.57 83.7905 191.56 83.9029 191.56 84.0431C191.56 84.1485 191.565 84.2445 191.579 84.3334C191.592 84.4195 191.612 84.4926 191.634 84.5508C191.659 84.6113 191.69 84.6558 191.726 84.6887C191.763 84.7213 191.806 84.7353 191.851 84.7353C191.923 84.7353 192.012 84.705 192.121 84.64C192.233 84.5769 192.371 84.5061 192.535 84.429C192.699 84.3497 192.889 84.2793 193.101 84.2163C193.317 84.1511 193.56 84.1206 193.834 84.1206C194.041 84.1206 194.215 84.1413 194.357 84.1882C194.496 84.2347 194.608 84.3055 194.692 84.4011C194.777 84.4971 194.839 84.6163 194.875 84.7613C194.912 84.9039 194.93 85.0721 194.93 85.2642V85.6336H194.364C193.851 85.6336 193.4 85.6758 193.008 85.7579C192.619 85.8392 192.293 85.9655 192.032 86.1368C191.77 86.3095 191.573 86.5247 191.439 86.7889C191.308 87.0509 191.242 87.3597 191.242 87.7173C191.242 88.0447 191.293 88.3325 191.397 88.5805C191.501 88.8259 191.648 89.0341 191.835 89.2001C192.024 89.3661 192.249 89.4923 192.505 89.5767C192.763 89.6609 193.044 89.703 193.353 89.703C193.724 89.703 194.063 89.6281 194.369 89.4783C194.674 89.3264 194.945 89.1157 195.182 88.8467V89.3336C195.182 89.399 195.203 89.4478 195.239 89.4856C195.276 89.5207 195.337 89.546 195.426 89.5627C195.515 89.5789 195.657 89.5883 195.852 89.5883C196.033 89.5883 196.171 89.5789 196.264 89.5627C196.358 89.5464 196.427 89.5207 196.469 89.4856C196.513 89.4481 196.535 89.3986 196.535 89.3336ZM194.93 86.7167H194.308C194.043 86.7167 193.818 86.7375 193.632 86.7771C193.445 86.8191 193.295 86.88 193.176 86.962C193.059 87.0463 192.975 87.1447 192.92 87.2615C192.867 87.3783 192.841 87.5113 192.841 87.6615C192.841 87.9186 192.916 88.12 193.07 88.2644C193.223 88.4118 193.435 88.4844 193.709 88.4844C193.94 88.4841 194.151 88.4236 194.343 88.2996C194.536 88.1757 194.731 87.9957 194.93 87.7575V86.7167ZM209.16 88.9918V83.2016C209.16 83.1569 209.146 83.1145 209.118 83.0821C209.09 83.0472 209.045 83.019 208.982 82.9955C208.918 82.9721 208.834 82.9558 208.728 82.944C208.623 82.9324 208.489 82.9274 208.328 82.9274C208.174 82.9274 208.046 82.9324 207.944 82.944C207.841 82.9558 207.76 82.9721 207.699 82.9955C207.64 83.019 207.597 83.0472 207.572 83.0821C207.549 83.1145 207.538 83.1569 207.538 83.2016V88.1079H205.701V83.2016C205.701 83.1569 205.687 83.1145 205.66 83.0821C205.633 83.0472 205.591 83.019 205.534 82.9955C205.476 82.9721 205.391 82.9558 205.288 82.944C205.182 82.9324 205.051 82.9274 204.893 82.9274C204.739 82.9274 204.609 82.9324 204.508 82.944C204.406 82.9558 204.328 82.9721 204.275 82.9955C204.219 83.019 204.181 83.0472 204.16 83.0821C204.139 83.1145 204.128 83.1569 204.128 83.2016V88.1079H202.292L202.291 83.2016C202.291 83.1569 202.278 83.1145 202.253 83.0821C202.231 83.0472 202.189 83.019 202.132 82.9955C202.072 82.9721 201.993 82.9558 201.89 82.944C201.788 82.9324 201.657 82.9274 201.498 82.9274C201.338 82.9274 201.206 82.9324 201.1 82.944C200.992 82.9558 200.909 82.9721 200.842 82.9955C200.778 83.019 200.731 83.0472 200.706 83.0821C200.68 83.1145 200.667 83.1569 200.667 83.2016V88.9918C200.667 89.1748 200.705 89.3125 200.778 89.4062C200.851 89.4996 200.965 89.546 201.121 89.546L208.706 89.5464C208.86 89.5464 208.976 89.4996 209.049 89.4062C209.124 89.3125 209.16 89.1744 209.16 88.9918ZM219.177 86.195C219.177 85.6524 219.115 85.1708 218.994 84.7497C218.873 84.3308 218.688 83.9753 218.439 83.6877C218.19 83.4 217.875 83.1826 217.494 83.0332C217.113 82.8855 216.664 82.8111 216.144 82.8111C215.61 82.8111 215.148 82.8948 214.749 83.0654C214.353 83.234 214.025 83.4729 213.76 83.7814C213.496 84.09 213.299 84.4597 213.165 84.89C213.035 85.3224 212.968 85.7973 212.968 86.3189C212.968 86.8592 213.027 87.3386 213.149 87.7575C213.273 88.1783 213.458 88.5313 213.708 88.8186C213.959 89.1067 214.276 89.3264 214.657 89.4783C215.038 89.6285 215.486 89.703 216 89.703C216.532 89.703 216.998 89.6186 217.397 89.4504C217.795 89.2822 218.126 89.0409 218.39 88.7302C218.654 88.4213 218.851 88.0497 218.982 87.6213C219.11 87.1915 219.177 86.7167 219.177 86.195ZM217.494 86.2649C217.494 85.9636 217.472 85.685 217.425 85.4324C217.382 85.1772 217.304 84.9576 217.194 84.7705C217.087 84.5834 216.943 84.4358 216.763 84.3334C216.584 84.2284 216.358 84.1742 216.084 84.1742C215.844 84.1742 215.63 84.2211 215.449 84.3145C215.266 84.4082 215.118 84.5458 215.001 84.7263C214.884 84.9061 214.796 85.1239 214.737 85.3765C214.679 85.6313 214.651 85.9189 214.651 86.2441C214.651 86.5458 214.673 86.8218 214.721 87.0765C214.768 87.3291 214.846 87.5491 214.952 87.7386C215.059 87.9257 215.202 88.0705 215.385 88.1733C215.566 88.2765 215.789 88.3275 216.058 88.3275C216.306 88.3275 216.52 88.2788 216.703 88.185C216.885 88.0912 217.034 87.956 217.151 87.7783C217.266 87.6005 217.352 87.3851 217.41 87.1302C217.466 86.8778 217.494 86.5878 217.494 86.2649ZM224.607 89.3125V83.2016C224.607 83.1569 224.596 83.1145 224.57 83.0821C224.543 83.0472 224.499 83.019 224.437 82.9955C224.373 82.9721 224.29 82.9558 224.186 82.944C224.081 82.9324 223.951 82.9274 223.789 82.9274C223.63 82.9274 223.497 82.9324 223.396 82.944C223.291 82.9558 223.207 82.9721 223.144 82.9955C223.08 83.019 223.035 83.0472 223.012 83.0821C222.985 83.1145 222.971 83.1569 222.971 83.2016V89.3125C222.971 89.3593 222.985 89.3986 223.012 89.4338C223.035 89.4667 223.08 89.4973 223.144 89.5185C223.207 89.5415 223.291 89.5578 223.396 89.5699C223.497 89.5815 223.63 89.5883 223.789 89.5883C223.951 89.5883 224.083 89.5815 224.186 89.5699C224.29 89.5578 224.373 89.5415 224.437 89.5185C224.499 89.4973 224.543 89.4667 224.57 89.4338C224.596 89.399 224.607 89.3593 224.607 89.3125ZM223.499 81.1385C223.499 80.8277 223.444 80.6122 223.336 80.4909C223.229 80.3714 223.018 80.3106 222.706 80.3106C222.409 80.3106 222.203 80.3736 222.089 80.4977C221.976 80.624 221.92 80.8485 221.92 81.174C221.92 81.4803 221.973 81.693 222.083 81.8145C222.192 81.9361 222.4 81.9943 222.706 81.9943C223.008 81.9943 223.218 81.9335 223.33 81.8072C223.441 81.6809 223.499 81.4587 223.499 81.1385ZM225.68 81.1385C225.68 80.8277 225.627 80.6122 225.517 80.4909C225.41 80.3714 225.202 80.3106 224.896 80.3106C224.592 80.3106 224.385 80.3736 224.275 80.4977C224.164 80.624 224.109 80.8485 224.108 81.174C224.108 81.4803 224.162 81.693 224.268 81.8145C224.375 81.9361 224.581 81.9943 224.888 81.9943C225.189 81.9943 225.399 81.9335 225.511 81.8072C225.625 81.6809 225.68 81.4587 225.68 81.1385ZM237.784 88.3397C237.784 88.1899 237.781 88.066 237.77 87.9699C237.762 87.8739 237.751 87.7944 237.736 87.7336C237.72 87.6728 237.7 87.6308 237.673 87.6073C237.647 87.5844 237.615 87.5723 237.576 87.5723C237.52 87.5723 237.45 87.6073 237.367 87.6804C237.286 87.7499 237.183 87.8297 237.061 87.9162C236.942 88.0028 236.8 88.0823 236.638 88.1525C236.474 88.2225 236.282 88.2576 236.056 88.2576C235.836 88.2576 235.64 88.2157 235.475 88.1313C235.308 88.047 235.169 87.9207 235.06 87.7499C234.949 87.582 234.864 87.371 234.81 87.1212C234.752 86.8686 234.726 86.5783 234.726 86.251C234.726 85.5847 234.839 85.0771 235.063 84.7334C235.289 84.3871 235.612 84.2163 236.039 84.2163C236.252 84.2163 236.44 84.2464 236.596 84.3122C236.75 84.3753 236.885 84.4458 236.997 84.525C237.111 84.6022 237.208 84.6721 237.289 84.7353C237.372 84.8011 237.45 84.8313 237.525 84.8313C237.593 84.8313 237.65 84.7776 237.693 84.6721C237.736 84.5648 237.757 84.3776 237.757 84.1134C237.757 83.9988 237.756 83.9005 237.748 83.8211C237.742 83.7418 237.734 83.6737 237.722 83.62C237.711 83.564 237.695 83.5195 237.675 83.4869C237.658 83.4518 237.623 83.4098 237.576 83.358C237.528 83.3089 237.448 83.2503 237.333 83.1803C237.217 83.1124 237.088 83.0514 236.942 82.9955C236.797 82.9419 236.643 82.8972 236.474 82.8669C236.309 82.834 236.14 82.8177 235.965 82.8177C235.54 82.8177 235.152 82.8882 234.796 83.0306C234.441 83.1709 234.134 83.3882 233.875 83.6805C233.615 83.9732 233.414 84.3424 233.267 84.7871C233.124 85.2336 233.05 85.7621 233.05 86.3749C233.05 86.9034 233.11 87.3737 233.23 87.7854C233.347 88.1971 233.525 88.5454 233.758 88.8304C233.992 89.1157 234.281 89.3312 234.624 89.4783C234.969 89.6236 235.364 89.6962 235.809 89.6962C236.009 89.6962 236.201 89.6796 236.39 89.642C236.579 89.6046 236.754 89.5578 236.913 89.4973C237.072 89.4386 237.217 89.3706 237.341 89.2962C237.467 89.2212 237.556 89.1559 237.609 89.1041C237.661 89.0527 237.693 89.0084 237.709 88.9733C237.725 88.9407 237.737 88.8957 237.748 88.8402C237.757 88.7862 237.767 88.7185 237.773 88.6391C237.779 88.5594 237.784 88.4588 237.784 88.3397ZM243.105 89.3125V83.2155C243.105 83.1687 243.092 83.1285 243.066 83.0964C243.039 83.0613 242.995 83.0306 242.933 83.0072C242.869 82.9814 242.788 82.963 242.683 82.949C242.579 82.935 242.447 82.9274 242.287 82.9274C242.127 82.9274 241.993 82.935 241.892 82.949C241.787 82.963 241.703 82.9814 241.642 83.0072C241.576 83.0306 241.532 83.0613 241.508 83.0964C241.481 83.1285 241.468 83.1687 241.468 83.2155V89.3125C241.468 89.3593 241.483 89.3986 241.508 89.4338C241.532 89.4667 241.576 89.4973 241.642 89.5185C241.703 89.5415 241.787 89.5578 241.892 89.5699C241.993 89.5815 242.127 89.5883 242.287 89.5883C242.447 89.5883 242.579 89.5815 242.683 89.5699C242.788 89.5578 242.869 89.5415 242.933 89.5185C242.995 89.4973 243.039 89.4667 243.066 89.4338C243.092 89.399 243.105 89.3593 243.105 89.3125ZM243.228 81.1317C243.228 80.7993 243.164 80.568 243.033 80.4367C242.905 80.3064 242.657 80.2406 242.293 80.2406C241.924 80.2406 241.675 80.3083 241.543 80.444C241.411 80.5793 241.344 80.8206 241.344 81.1669C241.344 81.5011 241.409 81.7301 241.537 81.859C241.665 81.9875 241.912 82.0507 242.279 82.0507C242.643 82.0507 242.894 81.9853 243.027 81.8519C243.161 81.7188 243.228 81.4798 243.228 81.1317ZM111.588 77.4434H272.909C277.062 77.4434 280.459 81.2836 280.459 85.9771C280.459 90.6704 277.062 94.5103 272.909 94.5103H111.588C107.436 94.5103 104.039 90.6704 104.039 85.9771C104.039 81.2836 107.436 77.4434 111.588 77.4434Z" fill="#3C2A98"></path></svg> 