<?xml version="1.0" encoding="UTF-8"?> <svg xmlns="http://www.w3.org/2000/svg" width="94" height="76" viewBox="0 0 94 76" fill="none"><path d="M8.06647 23.4873C6.9341 22.8792 6.35459 22.3636 6.35459 21.6629C6.35459 20.7638 7.16057 20.1887 8.4195 20.1887C9.37458 20.2077 10.3164 20.4144 11.1905 20.7969L12.2229 17.657C12.2229 17.657 11.2771 16.9232 8.48611 16.9232C4.59609 16.9232 1.90505 19.1311 1.90505 22.2115C1.90505 23.9699 3.16398 25.3118 4.83589 26.2769C6.16809 27.0437 6.67432 27.599 6.67432 28.3856C6.67432 29.1722 6.00822 29.8928 4.74263 29.8928C3.4726 29.8382 2.22956 29.5112 1.09907 28.9343L0 32.0676C1.33549 32.8218 2.85352 33.199 4.3896 33.1583C8.3862 33.1583 11.2571 31.1752 11.2571 27.6849C11.2771 25.8472 9.80499 24.4789 8.06647 23.4873ZM23.9996 16.8902C23.0841 16.8949 22.1818 17.1077 21.362 17.5122C20.5422 17.9167 19.8267 18.5021 19.2703 19.2236H19.2037L20.9355 10.3525H16.486L12.1563 32.8939H16.6059L18.0979 25.1862C18.6774 22.2776 20.1961 20.4796 21.6149 20.4796C22.6141 20.4796 23.0004 21.1406 23.0004 22.1124C22.9991 22.778 22.9344 23.4419 22.8073 24.0955L21.1287 32.9269H25.5782L27.3234 23.8046C27.516 22.8552 27.623 21.8907 27.6431 20.9225C27.6431 18.3973 26.3243 16.8902 23.9996 16.8902ZM37.7079 16.8902C32.3791 16.8902 28.8088 21.6893 28.8088 27.0371C28.8088 30.4612 30.9337 33.2178 34.9369 33.2178C40.1925 33.2178 43.7428 28.5442 43.7428 23.0709C43.7428 19.8979 41.871 16.8902 37.7079 16.8902ZM35.5164 29.8134C33.9977 29.8134 33.3516 28.5376 33.3516 26.9379C33.3516 24.4062 34.6838 20.2747 37.0951 20.2747C38.6738 20.2747 39.1933 21.5968 39.1933 22.9188C39.1933 25.6621 37.8678 29.8134 35.5164 29.8134ZM55.1264 16.8902C52.1223 16.8902 50.4171 19.5343 50.4171 19.5343H50.3505L50.6103 17.1678H46.6736C46.4804 18.7675 46.1274 21.2001 45.7744 23.0246L42.677 39.2134H47.1266L48.3522 32.6889H48.4521C49.2563 33.1053 50.157 33.3036 51.0632 33.264C56.2921 33.264 59.7225 27.9758 59.7225 22.5685C59.7092 19.5475 58.3836 16.8902 55.1264 16.8902ZM50.87 29.8861C50.1973 29.8912 49.5449 29.6567 49.0316 29.2251L49.771 25.1002C50.2905 22.3437 51.7693 20.5193 53.288 20.5193C54.6202 20.5193 55.0665 21.7686 55.0665 22.9519C55.0665 25.8472 53.3546 29.8861 50.87 29.8861ZM66.0638 10.5508C65.7296 10.55 65.3986 10.6144 65.0895 10.7405C64.7805 10.8666 64.4995 11.0519 64.2626 11.2858C64.0257 11.5196 63.8375 11.7975 63.7088 12.1036C63.5802 12.4096 63.5135 12.7378 63.5126 13.0694V13.1157C63.4683 13.6535 63.6403 14.187 63.991 14.5994C64.3417 15.0119 64.8426 15.2698 65.3844 15.3169H65.6774C66.0081 15.3293 66.3381 15.2769 66.6483 15.1626C66.9586 15.0483 67.2431 14.8745 67.4856 14.651C67.7281 14.4275 67.9239 14.1588 68.0617 13.8602C68.1994 13.5616 68.2765 13.2389 68.2886 12.9107V12.7719C68.3176 12.2164 68.1236 11.6721 67.749 11.2583C67.3745 10.8444 66.8499 10.5948 66.2902 10.5641L66.0638 10.5508ZM59.8357 32.8939H64.2919L67.3227 17.2405H62.8399L59.8357 32.8939ZM78.6464 17.2075H75.549L75.7089 16.4737C75.9687 14.9666 76.8679 13.6247 78.3733 13.6247C78.8553 13.6234 79.3344 13.6993 79.7921 13.8494L80.6647 10.3922C79.8956 10.0941 79.0711 9.9634 78.2467 10.0088C76.6628 9.96141 75.1152 10.4851 73.8904 11.4829C72.4768 12.8024 71.5641 14.5649 71.306 16.4737L71.1794 17.2075H69.1145L68.4484 20.5127H70.5133L68.162 32.8674H72.6115L74.9629 20.5589H78.0336L78.6464 17.2075ZM89.3506 17.2537C89.3506 17.2537 86.573 24.2145 85.354 28.0088H85.2874C85.2008 26.7859 84.195 17.2537 84.195 17.2537H79.5323L82.1967 31.6313C82.2328 31.7534 82.2432 31.8816 82.2272 32.0078C82.2111 32.1341 82.169 32.2557 82.1035 32.365C81.5182 33.4228 80.6898 34.3287 79.6855 35.0092C78.9104 35.5425 78.0626 35.9632 77.1677 36.2585L78.3933 40C80.0234 39.5709 81.5204 38.7463 82.7496 37.6004C84.7479 35.7099 86.6529 32.8013 88.5846 28.8285L94 17.2537H89.3506Z" fill="#67C22F"></path><path d="M11.4059 43.1641C9.31132 43.1641 7.3506 44.525 5.9453 46.7297H5.87839L6.36689 43.4975H5.02852C4.82776 44.9605 4.53331 46.8998 4.14518 48.9887L1 66H2.4053L3.66338 59.107H3.73029C4.70578 59.5991 5.7875 59.8331 6.87547 59.7875C11.881 59.7875 15.5147 53.7315 15.5147 48.3355C15.4946 45.7294 14.3704 43.1641 11.4059 43.1641ZM6.98923 58.5423C5.90522 58.5877 4.83622 58.2724 3.94443 57.6441L4.96159 52.1528C5.84492 47.3284 8.75589 44.4297 10.9843 44.4297C13.2127 44.4297 14.0291 46.5595 14.0291 48.458C14.0291 52.5407 11.1449 58.5423 7.00932 58.5423H6.98923ZM16.9735 54.9835C16.9735 57.8414 18.4123 59.8419 20.8013 59.8419C22.8624 59.8419 24.8633 58.7396 26.6634 55.2149H26.7236C26.5006 56.6357 26.3709 58.0701 26.3355 59.5085H27.7073C27.6788 57.0734 27.9031 54.6421 28.3765 52.2549L30.0428 43.6676C29.0165 43.3416 27.9459 43.1832 26.8708 43.1981C20.8013 43.1641 16.9735 49.4855 16.9735 54.9835ZM27.3125 50.5538C26.563 54.6841 23.6788 58.5763 21.1292 58.5763C19.0012 58.5763 18.4123 56.7119 18.4524 54.6161C18.4859 49.5875 22.0192 44.4638 26.5362 44.4638C27.178 44.4314 27.8206 44.5096 28.4367 44.6951L27.3125 50.5538ZM35.0684 46.995H35.0081C35.2022 45.5933 35.336 44.5318 35.4297 43.4975H34.1516C33.989 45.2513 33.7389 46.9955 33.4021 48.7234L31.3945 59.4745H32.7998L34.3055 51.3499C34.9747 47.8592 37.2499 44.6951 39.311 44.6951C39.4857 44.6827 39.6613 44.6941 39.833 44.7291L40.1274 43.1981C39.9668 43.1981 39.7393 43.1641 39.5385 43.1641C37.5778 43.1641 36.0186 44.8652 35.0684 46.995ZM44.4839 58.5082C43.5001 58.5082 43.0786 57.9435 43.0786 57.0113C43.098 56.082 43.2056 55.1569 43.3998 54.2486L45.1396 44.7223H48.8336L49.0946 43.4907H45.4006L46.0698 40L44.5039 40.626L43.9753 43.4907H41.6867L41.4591 44.7223H43.7143L41.9476 54.2486C41.7205 55.2072 41.5993 56.1886 41.5863 57.1746C41.5437 57.8079 41.748 58.4327 42.155 58.9141C42.562 59.3954 43.139 59.6945 43.7611 59.7467C43.8991 59.7603 44.038 59.7603 44.176 59.7467C44.697 59.7413 45.2149 59.6635 45.7152 59.5153L45.6081 58.3858C45.2421 58.4868 44.8626 58.5281 44.4839 58.5082ZM57.9814 43.1641C55.8199 43.1641 53.8592 44.4297 52.4806 46.7569H52.4137L52.8755 43.4975H51.5371C51.4099 44.7291 51.2092 46.2942 50.8679 48.1926L48.7734 59.4745H50.1786L51.7178 50.9893C52.387 47.1243 55.3849 44.4638 57.4795 44.4638C59.4067 44.4638 60.0626 45.6613 60.0626 47.3284C60.0538 48.1094 59.9776 48.8881 59.835 49.6556L58.0014 59.4745H59.4067L61.2136 49.6556C61.3885 48.8459 61.4871 48.0211 61.508 47.1924C61.4812 44.1644 59.5205 43.1641 57.9814 43.1641ZM71.4321 43.1641C66.9485 43.1641 63.7699 49.1861 63.7699 53.7791C63.7699 56.8411 65.048 59.7739 68.7152 59.7739C70.2284 59.8017 71.7175 59.3859 73.0047 58.5763L72.5764 57.4399C71.4877 58.1356 70.2285 58.5058 68.9427 58.5082C68.1483 58.5319 67.3708 58.273 66.744 57.7761C66.1173 57.2793 65.6808 56.5756 65.5097 55.7864C65.2279 54.4742 65.1826 53.1209 65.3759 51.7922C70.5153 51.7922 75.0992 50.6899 75.0992 46.6344C75.0992 44.8652 74.0151 43.1641 71.4321 43.1641ZM73.627 46.7297C73.627 49.8869 69.6989 50.5878 65.5967 50.5538C66.5804 47.0903 68.7419 44.4297 71.1644 44.4297C72.6366 44.4297 73.6203 45.2259 73.6203 46.6956L73.627 46.7297ZM84.3273 44.7291L84.6217 43.1981C84.4545 43.1981 84.227 43.1641 84.0329 43.1641C82.0655 43.1641 80.4996 44.8652 79.5493 46.995H79.4824C79.6765 45.5933 79.8103 44.5318 79.9107 43.4975H78.6125C78.4786 44.8992 78.2511 46.6956 77.8563 48.7234L75.8487 59.4745H77.2741L78.7798 51.3499C79.4489 47.8592 81.7242 44.6951 83.792 44.6951C83.9711 44.6824 84.1511 44.6939 84.3273 44.7291ZM90.2496 44.4297C91.0386 44.4516 91.8077 44.6864 92.478 45.1102L93 43.8786C92.2221 43.4019 91.3246 43.1655 90.4169 43.1981C87.6331 43.1981 85.6322 45.2395 85.6322 47.7231C85.6726 48.5379 85.9162 49.3289 86.34 50.0217C86.7637 50.7144 87.3538 51.2863 88.0547 51.6833C89.5269 52.6496 90.1827 53.6158 90.1827 55.2149C90.1792 56.1004 89.8307 56.9484 89.2137 57.5733C88.5966 58.1982 87.7612 58.5491 86.8903 58.5491H86.7163C85.7308 58.5423 84.771 58.2289 83.966 57.6509L83.4105 58.8485C84.3457 59.493 85.4529 59.8302 86.5825 59.8147C89.2994 59.8147 91.6215 58.0523 91.6215 54.8202C91.5887 53.9826 91.3506 53.1666 90.9287 52.4464C90.5068 51.7263 89.9145 51.1248 89.2057 50.6967C87.9275 49.7985 87.0777 48.9615 87.0777 47.4645C87.0786 47.0651 87.1568 46.6698 87.3079 46.3011C87.4591 45.9324 87.6801 45.5976 87.9585 45.3158C88.2369 45.034 88.5672 44.8107 88.9304 44.6587C89.2937 44.5066 89.6828 44.4288 90.0757 44.4297H90.2496Z" fill="white"></path></svg> 