<?xml version="1.0" encoding="UTF-8"?> <svg xmlns="http://www.w3.org/2000/svg" width="70" height="76" viewBox="0 0 70 76" fill="none"><mask id="path-1-inside-1_1569_8857" fill="white"><path fill-rule="evenodd" clip-rule="evenodd" d="M11.4281 38.0002C4.75419 35.5164 4.94382e-07 29.0877 2.22586e-06 21.5486C3.45516e-06 11.8569 7.85668 4.00023 17.5484 4.00024L52.4516 4.00024C62.1433 4.00024 70 11.8569 70 21.5486C70 29.0877 65.2458 35.5164 58.5719 38.0002C65.2458 40.484 70 46.9127 70 54.4518C70 64.1435 62.1433 72.0002 52.4516 72.0002L17.5484 72.0002C7.85668 72.0002 0 64.1435 2.22586e-06 54.4518C3.18212e-06 46.9127 4.75419 40.484 11.4281 38.0002Z"></path></mask><path fill-rule="evenodd" clip-rule="evenodd" d="M11.4281 38.0002C4.75419 35.5164 4.94382e-07 29.0877 2.22586e-06 21.5486C3.45516e-06 11.8569 7.85668 4.00023 17.5484 4.00024L52.4516 4.00024C62.1433 4.00024 70 11.8569 70 21.5486C70 29.0877 65.2458 35.5164 58.5719 38.0002C65.2458 40.484 70 46.9127 70 54.4518C70 64.1435 62.1433 72.0002 52.4516 72.0002L17.5484 72.0002C7.85668 72.0002 0 64.1435 2.22586e-06 54.4518C3.18212e-06 46.9127 4.75419 40.484 11.4281 38.0002Z" fill="#151515"></path><path d="M11.4281 38.0002L12.4745 40.8118L20.0291 38.0002L12.4745 35.1886L11.4281 38.0002ZM2.22586e-06 21.5486H3H2.22586e-06ZM17.5484 4.00024V1.00024V4.00024ZM52.4516 4.00024V7.00024V4.00024ZM58.5719 38.0002L57.5255 35.1886L49.9709 38.0002L57.5255 40.8118L58.5719 38.0002ZM52.4516 72.0002V75.0002V72.0002ZM17.5484 72.0002V69.0002V72.0002ZM2.22586e-06 54.4518H3H2.22586e-06ZM12.4745 35.1886C6.9369 33.1277 3 27.7941 3 21.5486H-3C-3 30.3813 2.57148 37.9051 10.3817 40.8118L12.4745 35.1886ZM3 21.5486C3 13.5138 9.51354 7.00023 17.5484 7.00024V1.00024C6.19983 1.00023 -3 10.2001 -3 21.5486H3ZM17.5484 7.00024L52.4516 7.00024V1.00024L17.5484 1.00024V7.00024ZM52.4516 7.00024C60.4865 7.00024 67 13.5138 67 21.5486H73C73 10.2001 63.8002 1.00024 52.4516 1.00024V7.00024ZM67 21.5486C67 27.7941 63.0631 33.1277 57.5255 35.1886L59.6183 40.8118C67.4285 37.9051 73 30.3813 73 21.5486H67ZM57.5255 40.8118C63.0631 42.8727 67 48.2063 67 54.4518H73C73 45.6192 67.4285 38.0953 59.6183 35.1886L57.5255 40.8118ZM67 54.4518C67 62.4867 60.4865 69.0002 52.4516 69.0002V75.0002C63.8002 75.0002 73 65.8004 73 54.4518H67ZM52.4516 69.0002L17.5484 69.0002V75.0002L52.4516 75.0002V69.0002ZM17.5484 69.0002C9.51353 69.0002 3 62.4867 3 54.4518H-3C-3 65.8004 6.19982 75.0002 17.5484 75.0002V69.0002ZM3 54.4518C3 48.2063 6.9369 42.8727 12.4745 40.8118L10.3817 35.1886C2.57149 38.0953 -3 45.6192 -3 54.4518H3Z" fill="#67C22F" mask="url(#path-1-inside-1_1569_8857)"></path></svg> 