<?xml version="1.0" encoding="UTF-8"?> <svg xmlns="http://www.w3.org/2000/svg" width="76" height="76" viewBox="0 0 76 76" fill="none"><path d="M15.38 49V46.956H20.98V31.192H20.784L15.856 35.784L14.484 34.3L19.664 29.456H23.332V46.956H28.484V49H15.38ZM37.9091 49.336C36.7144 49.336 35.6877 49.112 34.8291 48.664C33.9704 48.1973 33.2611 47.5347 32.7011 46.676C32.1411 45.8173 31.7304 44.7627 31.4691 43.512C31.2077 42.2613 31.0771 40.8333 31.0771 39.228C31.0771 37.6413 31.2077 36.2227 31.4691 34.972C31.7304 33.7027 32.1411 32.6387 32.7011 31.78C33.2611 30.9213 33.9704 30.268 34.8291 29.82C35.6877 29.3533 36.7144 29.12 37.9091 29.12C39.1037 29.12 40.1304 29.3533 40.9891 29.82C41.8477 30.268 42.5571 30.9213 43.1171 31.78C43.6771 32.6387 44.0877 33.7027 44.3491 34.972C44.6104 36.2227 44.7411 37.6413 44.7411 39.228C44.7411 40.8333 44.6104 42.2613 44.3491 43.512C44.0877 44.7627 43.6771 45.8173 43.1171 46.676C42.5571 47.5347 41.8477 48.1973 40.9891 48.664C40.1304 49.112 39.1037 49.336 37.9091 49.336ZM37.9091 47.292C38.6931 47.292 39.3651 47.1427 39.9251 46.844C40.4851 46.5267 40.9331 46.088 41.2691 45.528C41.6237 44.968 41.8851 44.296 42.0531 43.512C42.2211 42.7093 42.3051 41.8133 42.3051 40.824V37.632C42.3051 36.6613 42.2211 35.7747 42.0531 34.972C41.8851 34.1693 41.6237 33.488 41.2691 32.928C40.9331 32.368 40.4851 31.9387 39.9251 31.64C39.3651 31.3227 38.6931 31.164 37.9091 31.164C37.1251 31.164 36.4531 31.3227 35.8931 31.64C35.3331 31.9387 34.8757 32.368 34.5211 32.928C34.1851 33.488 33.9331 34.1693 33.7651 34.972C33.5971 35.7747 33.5131 36.6613 33.5131 37.632V40.824C33.5131 41.8133 33.5971 42.7093 33.7651 43.512C33.9331 44.296 34.1851 44.968 34.5211 45.528C34.8757 46.088 35.3331 46.5267 35.8931 46.844C36.4531 47.1427 37.1251 47.292 37.9091 47.292ZM37.9091 40.88C37.2557 40.88 36.7984 40.7493 36.5371 40.488C36.2944 40.2267 36.1731 39.9093 36.1731 39.536V38.92C36.1731 38.5467 36.2944 38.2293 36.5371 37.968C36.7984 37.7067 37.2557 37.576 37.9091 37.576C38.5624 37.576 39.0104 37.7067 39.2531 37.968C39.5144 38.2293 39.6451 38.5467 39.6451 38.92V39.536C39.6451 39.9093 39.5144 40.2267 39.2531 40.488C39.0104 40.7493 38.5624 40.88 37.9091 40.88ZM54.4181 49.336C53.2235 49.336 52.1968 49.112 51.3381 48.664C50.4795 48.1973 49.7701 47.5347 49.2101 46.676C48.6501 45.8173 48.2395 44.7627 47.9781 43.512C47.7168 42.2613 47.5861 40.8333 47.5861 39.228C47.5861 37.6413 47.7168 36.2227 47.9781 34.972C48.2395 33.7027 48.6501 32.6387 49.2101 31.78C49.7701 30.9213 50.4795 30.268 51.3381 29.82C52.1968 29.3533 53.2235 29.12 54.4181 29.12C55.6128 29.12 56.6395 29.3533 57.4981 29.82C58.3568 30.268 59.0661 30.9213 59.6261 31.78C60.1861 32.6387 60.5968 33.7027 60.8581 34.972C61.1195 36.2227 61.2501 37.6413 61.2501 39.228C61.2501 40.8333 61.1195 42.2613 60.8581 43.512C60.5968 44.7627 60.1861 45.8173 59.6261 46.676C59.0661 47.5347 58.3568 48.1973 57.4981 48.664C56.6395 49.112 55.6128 49.336 54.4181 49.336ZM54.4181 47.292C55.2021 47.292 55.8741 47.1427 56.4341 46.844C56.9941 46.5267 57.4421 46.088 57.7781 45.528C58.1328 44.968 58.3941 44.296 58.5621 43.512C58.7301 42.7093 58.8141 41.8133 58.8141 40.824V37.632C58.8141 36.6613 58.7301 35.7747 58.5621 34.972C58.3941 34.1693 58.1328 33.488 57.7781 32.928C57.4421 32.368 56.9941 31.9387 56.4341 31.64C55.8741 31.3227 55.2021 31.164 54.4181 31.164C53.6341 31.164 52.9621 31.3227 52.4021 31.64C51.8421 31.9387 51.3848 32.368 51.0301 32.928C50.6941 33.488 50.4421 34.1693 50.2741 34.972C50.1061 35.7747 50.0221 36.6613 50.0221 37.632V40.824C50.0221 41.8133 50.1061 42.7093 50.2741 43.512C50.4421 44.296 50.6941 44.968 51.0301 45.528C51.3848 46.088 51.8421 46.5267 52.4021 46.844C52.9621 47.1427 53.6341 47.292 54.4181 47.292ZM54.4181 40.88C53.7648 40.88 53.3075 40.7493 53.0461 40.488C52.8035 40.2267 52.6821 39.9093 52.6821 39.536V38.92C52.6821 38.5467 52.8035 38.2293 53.0461 37.968C53.3075 37.7067 53.7648 37.576 54.4181 37.576C55.0715 37.576 55.5195 37.7067 55.7621 37.968C56.0235 38.2293 56.1541 38.5467 56.1541 38.92V39.536C56.1541 39.9093 56.0235 40.2267 55.7621 40.488C55.5195 40.7493 55.0715 40.88 54.4181 40.88Z" fill="#67C22F"></path><rect x="2" y="2" width="72" height="72" rx="36" stroke="#67C22F" stroke-width="4"></rect></svg> 