<?xml version="1.0" encoding="UTF-8"?> <svg xmlns="http://www.w3.org/2000/svg" width="332" height="49" viewBox="0 0 332 49" fill="none"><g clip-path="url(#clip0_3861_16813)"><path d="M50.0329 16.3765C50.9331 24.427 48.3121 31.5606 44.2948 38.2602C42.7386 40.7985 40.9597 43.1939 38.9793 45.4183C35.8561 49.0004 31.6919 49.6239 27.3439 48.4747C20.5525 46.7142 15.1513 42.5514 10.1236 37.8996C6.51048 34.5498 3.33831 30.8393 1.34805 26.2853C-1.45057 19.8302 0.0926505 14.5304 6.12467 10.9361C12.3673 7.1826 19.6132 5.43094 26.8846 5.91754C31.3551 6.19261 32.9595 8.71719 31.2509 12.8494C30.2845 14.9627 29.1628 17.0018 27.8951 18.95C27.099 20.2826 25.715 20.3865 24.2942 20.5332C22.1027 20.6643 19.9311 21.0249 17.8152 21.609C14.9553 22.5321 14 24.6226 15.3656 27.2267C19.0154 34.0974 24.6617 38.5108 32.5798 39.3605C36.3338 39.764 39.3161 37.7467 41.8391 35.0816C46.181 30.4175 48.0732 24.6165 49.5307 18.6138C49.7144 17.8497 49.8675 17.1161 50.0329 16.3765Z" fill="#02A3E1"></path><path d="M22.2083 30.3319C26.5789 27.0388 30.3262 22.994 33.2741 18.3876C34.697 16.1994 35.835 13.8392 36.6606 11.364C37.916 7.45794 36.2564 4.7622 32.2698 3.66802C27.7871 2.44546 23.3534 3.20956 18.9993 4.27929C15.9374 5.03728 12.9918 6.20482 9.99112 7.18286L8.15395 7.79414L7.89062 7.26844C10.1871 6.00921 12.3856 4.51158 14.7984 3.53965C23.6719 -0.0607761 32.925 -0.610926 42.2946 0.550501C46.8997 1.16178 48.9512 3.54576 48.7798 8.18536C48.6662 11.0283 48.2244 13.8486 47.4631 16.5904C45.8348 22.4481 43.1765 27.9702 39.6123 32.8993C37.8364 35.3872 35.4297 36.6464 32.4964 35.864C29.7743 35.0598 27.1303 34.0123 24.5966 32.7343C23.6657 32.288 23.0472 31.2061 22.2083 30.3319Z" fill="#4EAE32"></path><path d="M114.829 26.8966C114.996 23.0537 116.272 19.3409 118.504 16.2053C123.525 9.15728 133.035 8.9739 138.051 11.0706C141.529 12.5254 143.25 15.3495 143.562 19.0172C143.912 23.0227 143.131 27.0458 141.309 30.6315C137.635 38.0524 127.561 41.4816 120.034 37.9118C116.44 36.1268 114.78 33.046 114.829 26.8966ZM122.025 26.3403C121.957 31.0777 123.617 33.1988 126.997 33.4067C130.059 33.59 132.509 32.4897 134.168 29.9101C136.005 27.0146 136.784 23.575 136.373 20.1725C136.128 17.6846 134.646 16.1809 132.166 15.7835C128.926 15.2578 126.262 16.3031 124.389 19.0111C122.939 21.1808 122.121 23.7095 122.025 26.3158V26.3403Z" fill="#03A4E1"></path><path d="M267.328 38.3335C268.106 34.3113 268.853 30.4664 269.6 26.6276C270.408 22.4892 271.186 18.3387 272.05 14.2064C272.57 11.7185 273.599 10.7344 276.049 10.6855C279.45 10.559 282.856 10.6161 286.251 10.8566C291.922 11.3518 295.143 14.8544 295.406 20.5882C295.626 24.5995 294.611 28.582 292.497 32.0007C289.925 36.1757 285.994 38.0829 281.272 38.2908C276.741 38.5108 272.203 38.3335 267.328 38.3335ZM274.597 33.0827C276.734 32.9849 278.584 32.991 280.409 32.7893C284.695 32.3125 286.906 30.3992 287.806 26.2975C288.164 24.6166 288.319 22.8988 288.266 21.1811C288.198 18.5159 286.569 16.7249 283.918 16.3214C282.325 16.1085 280.717 16.0268 279.11 16.0769C278.855 16.1131 278.612 16.2119 278.403 16.3644C278.195 16.5169 278.028 16.7184 277.916 16.9511C276.802 22.2203 275.73 27.5078 274.597 33.0827Z" fill="#4FAF33"></path><path d="M86.7291 18.5461H80.3297C79.2703 15.343 75.0387 14.206 72.3686 16.3822C70.7152 17.7209 70.9173 19.4997 72.9382 20.2088C74.959 20.9179 76.9616 21.2969 78.9641 21.8776C80.1164 22.1757 81.2428 22.5661 82.3322 23.0451C83.327 23.4745 84.1648 24.1998 84.7314 25.122C85.2981 26.0442 85.5658 27.1185 85.4982 28.1982C85.4492 33.5897 81.781 37.7769 75.8715 38.651C73.1587 39.04 70.4071 39.0811 67.6839 38.7733C62.3377 38.162 60.2189 34.7755 61.6274 29.488H68.3636C68.4494 29.6102 68.5718 29.708 68.5657 29.7997C68.3391 32.5749 68.829 33.6936 72.6136 33.6752C73.9773 33.6912 75.3238 33.3699 76.5329 32.74C76.9325 32.4261 77.2609 32.0311 77.4963 31.5812C77.7317 31.1312 77.8688 30.6366 77.8985 30.1298C77.9352 29.5858 76.9187 28.6872 76.2022 28.4427C74.1201 27.7336 71.9155 27.3118 69.8211 26.7189C63.4768 24.9279 61.8111 19.7687 65.9324 14.5545C68.9944 10.6545 73.3485 9.83541 77.9842 9.95767C79.4155 9.99575 80.8384 10.1884 82.2281 10.5323C86.2943 11.5592 87.8314 14.3038 86.7291 18.5461Z" fill="#04A4E2"></path><path d="M143.211 38.5105C144.736 30.4233 146.169 22.6173 147.724 14.7869C148.3 11.8711 149.757 10.8686 152.789 10.8686C156.071 10.8686 159.36 10.838 162.648 10.8686C167.039 10.9297 169.519 12.7024 170.132 16.2906C170.744 19.8788 169.838 23.8827 165.496 25.4598C165.232 25.5514 164.981 25.6615 164.449 25.8815C167.461 27.4158 167.284 29.7387 166.733 32.2755C166.31 34.2377 166.12 36.2549 165.851 38.3883H159.378C159.58 36.8295 159.721 35.2708 159.99 33.7303C160.835 28.9929 160.603 28.6567 155.844 28.6567C151.509 28.6567 151.503 28.6567 150.609 32.8012C150.278 34.3111 150.064 35.8576 149.641 37.3308C149.543 37.5978 149.384 37.8385 149.177 38.0337C148.97 38.2289 148.72 38.3733 148.447 38.4555C146.793 38.5778 145.14 38.5105 143.211 38.5105ZM153.622 16.2723C153.236 18.589 152.881 20.7835 152.507 23.0574C155.367 23.0574 158.018 23.2041 160.676 23.0085C162.513 22.8741 163.738 20.9363 163.579 18.9191C163.444 17.0853 162.562 16.3273 160.278 16.2784C158.165 16.2234 156.028 16.26 153.646 16.26L153.622 16.2723Z" fill="#04A4E2"></path><path d="M260.202 29.2987C261.488 23.0453 262.75 17.1159 264.011 11.0826H269.603C268.592 16.4374 267.594 21.7433 266.59 27.0492C266.057 29.8549 265.536 32.6546 264.955 35.4481C264.471 37.771 263.35 38.6512 260.962 38.7062C260.544 38.6818 260.124 38.6818 259.706 38.7062C258.249 38.9263 257.52 38.37 256.993 36.9213C254.997 31.4565 252.829 26.0467 250.723 20.6185C250.539 20.1356 250.312 19.6772 249.969 18.9009C248.677 25.6738 247.446 32.0922 246.179 38.5962H240.594C241.163 35.5948 241.721 32.6485 242.284 29.7021C243.221 24.8119 244.121 19.8789 245.113 14.9948C245.885 11.2416 248.23 9.87229 251.849 11.0032C252.278 11.1376 252.627 11.8162 252.842 12.3113C255.064 17.4399 257.245 22.5807 259.443 27.7216C259.651 28.1189 259.859 28.559 260.202 29.2987Z" fill="#4FAF34"></path><path d="M311.194 32.4589C310.857 34.0788 310.472 35.5703 310.245 37.0924C310.11 38.0276 309.804 38.4555 308.788 38.4066C307.251 38.3333 305.726 38.4066 303.938 38.4066C305.26 32.6239 306.387 26.9696 307.875 21.4131C309.602 15.0314 314.391 11.4065 321.256 10.9786C323.822 10.8502 326.393 10.8502 328.96 10.9786C331.581 11.0825 332.365 12.2012 331.862 14.8541C330.362 22.6723 328.886 30.4967 327.386 38.3822H321.317C321.66 36.3894 321.985 34.4883 322.334 32.4833L311.194 32.4589ZM312.419 27.2997H323.442C324.152 23.7115 324.844 20.2272 325.536 16.7552C318.286 14.6707 313.613 18.3934 312.444 27.2997H312.419Z" fill="#4EAF33"></path><path d="M237.451 38.352H231.426C231.744 36.347 232.038 34.4398 232.356 32.4654C231.897 32.4287 231.609 32.3798 231.315 32.3798H221.303C220.868 34.3725 220.452 36.3225 220.017 38.3397H214.156C214.573 36.3286 214.946 34.3848 215.381 32.447C216.147 28.9627 216.826 25.454 217.745 22.0125C219.582 15.1784 224.304 11.3641 231.407 10.9606C233.912 10.82 236.429 10.8689 238.94 10.9606C241.561 11.0523 242.436 12.0854 241.971 14.5794C240.507 22.4587 238.976 30.332 237.451 38.352ZM235.614 16.6333C227.445 15.5452 223.036 18.4671 222.662 27.3917C226.049 27.3917 229.429 27.3917 232.81 27.3612C232.992 27.3229 233.162 27.2396 233.305 27.119C233.447 26.9983 233.557 26.8442 233.624 26.6704C234.334 23.3757 234.959 20.0748 235.633 16.6333H235.614Z" fill="#4EAE33"></path><path d="M93.4599 38.3028H86.8828C87.9116 32.8991 88.9098 27.5871 89.9448 22.2874C90.4714 19.5427 90.9552 16.7859 91.5921 14.0657C92.1371 11.7123 93.0924 10.7648 95.3766 10.722C99.6633 10.6486 103.993 10.5814 108.274 10.9298C112.377 11.2599 114.397 13.8823 114.25 17.9534C114.067 23.9623 110.221 28.0028 104.183 28.4001C101.733 28.5652 99.2837 28.5591 96.8341 28.5346C95.7563 28.5346 95.2664 28.7852 95.0827 29.9589C94.6418 32.7097 94.0233 35.4543 93.4599 38.3028ZM97.7466 16.0279C97.2505 18.6075 96.8035 20.9548 96.3381 23.406C98.6407 23.406 100.723 23.461 102.799 23.406C103.508 23.3454 104.193 23.1215 104.801 22.7519C106.204 21.9573 107.11 19.451 106.638 17.8617C106.167 16.2724 104.654 16.1196 103.283 16.0646C101.464 15.979 99.6817 16.0279 97.7404 16.0279H97.7466Z" fill="#04A4E2"></path><path d="M175.383 38.3884L179.284 16.4436H171.856C171.684 13.0755 173.374 10.7404 176.277 10.6792C182.787 10.5509 189.296 10.6426 196.088 10.6426C195.776 12.4764 195.549 14.133 195.163 15.7712C195.096 16.0585 194.336 16.3336 193.889 16.3458C191.801 16.4069 189.707 16.4191 187.612 16.3458C186.541 16.3152 186.075 16.5842 185.873 17.7639C184.783 24.2129 183.552 30.6375 182.425 37.0803C182.266 38.0033 182.021 38.4435 180.992 38.4007C179.217 38.3334 177.435 38.3884 175.383 38.3884Z" fill="#05A4E2"></path><path d="M204.659 10.7772C203.36 18.0575 202.08 25.2339 200.758 32.6242H213.728C213.514 36.9643 212.02 38.3886 207.892 38.3886H192.938C193.55 34.9471 194.095 31.6645 194.677 28.3453C195.358 24.5431 196.05 20.7451 196.753 16.9511C196.814 16.6026 196.9 16.2542 196.985 15.9119C198.094 11.4312 199.735 10.2943 204.659 10.7772Z" fill="#4FAF33"></path><path d="M301.571 38.3211H294.773C295.435 34.9285 296.072 31.6337 296.715 28.3389C297.492 24.3718 298.301 20.3923 299.042 16.4374C300.022 11.1804 301.308 10.2085 306.966 10.7831C305.166 19.9726 303.367 29.1519 301.571 38.3211Z" fill="#4FAF34"></path></g><defs><clipPath id="clip0_3861_16813"><rect width="332" height="49" fill="white"></rect></clipPath></defs></svg> 