<?xml version="1.0" encoding="UTF-8" standalone="no"?> <svg xmlns="http://www.w3.org/2000/svg" xmlns:xlink="http://www.w3.org/1999/xlink" id="body_1" width="250" height="188"><g transform="matrix(0.8333334 0 0 0.8333334 -0 79.833336)"><path d="M250.29375 11.264L252.61475 11.264C 253.41277 11.21119 254.19974 11.473053 254.80702 11.99348C 255.35342 12.572492 255.63152 13.354363 255.57346 14.148359C 255.57346 15.789593 254.974 16.728956 253.77504 16.96645L253.77504 16.96645L253.77504 17.03272C 254.38918 17.129963 254.94177 17.46131 255.31685 17.95722C 255.68623 18.547678 255.8629 19.238361 255.82243 19.93366C 255.8764 20.836454 255.62202 21.730797 255.10103 22.47006C 254.61299 23.08178 253.86028 23.421131 253.0787 23.381811L253.0787 23.381811L250.29376 23.381811L250.29375 11.264zM251.10608 16.6597L252.63132 16.6597C 253.24013 16.720427 253.84157 16.4883 254.25172 16.034311C 254.61612 15.46982 254.78632 14.801827 254.73648 14.131791C 254.77548 13.556669 254.58307 12.989803 254.20201 12.557271C 253.77055 12.164576 253.19655 11.966681 252.61475 12.010051L252.61475 12.010051L251.10608 12.010051zM251.10608 17.40575L251.10608 22.63575L252.9712 22.63575C 254.30823 22.63575 254.97682 21.72953 254.97696 19.91709C 255.02145 19.24504 254.81139 18.580858 254.38853 18.05663C 253.96082 17.608032 253.35759 17.370037 252.73882 17.405748z" stroke="none" fill="#000000" fill-rule="nonzero"></path><path d="M261.33963 17.52174L263.31226 11.264L264.17426 11.264L261.7292 18.649311L261.7292 23.381811L260.91687 23.381811L260.91687 18.649311L258.4884 11.264L259.3504 11.264L261.33963 17.52174z" stroke="none" fill="#000000" fill-rule="nonzero"></path><path d="M274.7116 23.38181L273.8993 23.38181L273.8993 12.04319L271.48737 12.04319L271.48737 11.264L277.12354 11.264L277.12354 12.04319L274.7116 12.04319L274.7116 23.38181z" stroke="none" fill="#000000" fill-rule="nonzero"></path><path d="M280.59335 23.38181L280.59335 11.264L281.40567 11.264L281.40567 23.38181L280.59335 23.38181z" stroke="none" fill="#000000" fill-rule="nonzero"></path><path d="M290.04816 23.38181L286.8239 12.34994L286.75763 12.34994C 286.81287 13.510227 286.84048 14.2450905 286.84048 14.55453L286.84048 14.55453L286.84048 23.38181L286.0613 23.38181L286.0613 11.264L287.26324 11.264L289.9819 20.530579C 290.19492 21.213045 290.3529 21.91149 290.45435 22.619188L290.45435 22.619188L290.52063 22.619188C 290.64618 21.917963 290.8179 21.225773 291.0347 20.547188L291.0347 20.547188L293.7283 11.264038L294.97144 11.264038L294.97144 23.38181L294.15912 23.38181L294.15912 14.62081C 294.15912 14.278383 294.18674 13.526953 294.24197 12.36652L294.24197 12.36652L294.1757 12.36652L290.968 23.38181L290.04816 23.38181z" stroke="none" fill="#000000" fill-rule="nonzero"></path><path d="M243.41393 30.5975L233.93169 6.36106L234.3621 6.1926603L243.84436 30.429111L243.41393 30.5975z" stroke="none" fill="#000000" fill-rule="nonzero"></path><path d="M180.2783 31.28481L162.77731 31.28481C 162.54134 31.282274 162.31429 31.374899 162.14742 31.541769C 161.98055 31.70864 161.88792 31.93569 161.89046 32.17167C 161.88213 32.42961 161.97426 32.68071 162.14746 32.872047C 162.30608 33.053444 162.53639 33.155983 162.77736 33.152477L162.77736 33.152477L180.27835 33.152477C 180.51443 33.1552 180.74167 33.062664 180.90869 32.89577C 181.0757 32.728878 181.16841 32.501717 181.16588 32.265617C 181.1739 32.007736 181.08183 31.756754 180.90895 31.565237C 180.75014 31.383657 180.51952 31.281105 180.2783 31.28481z" stroke="none" fill="#000000" fill-rule="nonzero"></path><path d="M162.77733 17.2759L174.73 17.2759C 174.9661 17.27863 175.19333 17.18609 175.36035 17.019197C 175.52737 16.852304 175.62009 16.62514 175.61754 16.38904C 175.62555 16.13115 175.53345 15.880167 175.36053 15.68866C 175.20174 15.507094 174.97113 15.404548 174.72995 15.40825L174.72995 15.40825L162.77725 15.40825C 162.54128 15.405708 162.31422 15.498326 162.14735 15.6651945C 161.98048 15.832063 161.88786 16.059113 161.8904 16.29509C 161.88206 16.553032 161.9742 16.80413 162.1474 16.99547C 162.30605 17.176878 162.53638 17.279417 162.77733 17.2759z" stroke="none" fill="#000000" fill-rule="nonzero"></path><path d="M180.2783 0.36729L162.77731 0.36729C 162.54134 0.3647439 162.31429 0.45736027 162.14742 0.6242296C 161.98055 0.791099 161.88792 1.0181526 161.89046 1.25413C 161.88213 1.5120724 161.97426 1.7631721 162.14746 1.95451C 162.30608 2.1359053 162.53639 2.2384431 162.77736 2.23494L162.77736 2.23494L180.27835 2.23494C 180.51443 2.2376657 180.74167 2.145126 180.90869 1.9782329C 181.0757 1.8113395 181.16841 1.584178 181.16588 1.34808C 181.17387 1.0901933 181.08179 0.8392098 180.9089 0.6477C 180.75009 0.46613938 180.51949 0.36359394 180.2783 0.36729z" stroke="none" fill="#000000" fill-rule="nonzero"></path><path d="M65.58871 0.46692L0.93384 0.46692C 0.690988 0.46474534 0.45675907 0.5568475 0.28043 0.72385C 0.09926498 0.8826647 -0.0032218695 1.1128808 0 1.35378C -0.003507197 1.5949304 0.09901291 1.8254663 0.28043 1.98438C 0.45665315 2.1514683 0.6910119 2.2433739 0.93384004 2.2406201L0.93384004 2.2406201L11.34337 2.2406201L11.34337 32.20943C 11.340881 32.452343 11.433028 32.686687 11.600301 32.862843C 11.773906 33.05105 12.021375 33.153557 12.277211 33.14324C 12.787485 33.130306 13.198084 32.719707 13.211021 32.20943L13.211021 32.20943L13.211021 2.24062L49.628 2.24062L37.5983 31.86567C 37.50618 32.090446 37.505154 32.34225 37.59544 32.56777C 37.687153 32.806816 37.879177 32.99356 38.12069 33.07858C 38.599586 33.255203 39.13289 33.025528 39.33361 32.556217L39.33361 32.556217L51.0465 3.71146L62.75939 32.55622C 62.960114 33.02553 63.493416 33.255207 63.972313 33.078583C 64.21383 32.993572 64.40585 32.806828 64.497574 32.567772C 64.58786 32.34225 64.58683 32.090443 64.494705 31.865671L64.494705 31.865671L52.465 2.24062L65.58871 2.24062C 65.83591 2.2523844 66.07821 2.168818 66.26561 2.00716C 66.44272 1.8374423 66.53661 1.5986745 66.52255 1.35378C 66.52578 1.1128769 66.42329 0.8826568 66.24211 0.72385C 66.06571 0.55696017 65.831535 0.4648764 65.58871 0.46692z" stroke="none" fill="#000000" fill-rule="nonzero"></path><path d="M143.35483 31.27628L127.25048 31.27628L127.25048 1.40073C 127.25133 1.1535227 127.149796 0.9169948 126.97 0.74733C 126.57821 0.37348688 125.9618 0.37348688 125.57 0.74733C 125.39049 0.91719055 125.289024 1.1535952 125.289566 1.40073L125.289566 1.40073L125.289566 32.20943C 125.28709 32.45234 125.37923 32.68668 125.54649 32.862843C 125.72009 33.051044 125.96757 33.153557 126.223404 33.14324L126.223404 33.14324L143.35483 33.14324C 143.59792 33.14562 143.83244 33.053497 144.00893 32.88631C 144.1968 32.71253 144.29903 32.465134 144.28867 32.20943C 144.2766 31.698883 143.86539 31.287975 143.35483 31.276281L143.35483 31.276281L143.35483 31.27628z" stroke="none" fill="#000000" fill-rule="nonzero"></path><path d="M217.48149 20.58632C 216.63509 19.390194 215.51494 18.413797 214.2145 17.738571C 212.53352 16.915928 210.80298 16.198742 209.03287 15.591181C 207.5683 15.074083 206.13437 14.4740505 204.738 13.794C 203.63045 13.25325 202.65163 12.481447 201.86746 11.530569C 201.09392 10.566292 200.68849 9.358353 200.72366 8.122649C 200.67152 6.294116 201.56165 4.566828 203.08104 3.548139C 204.82196 2.3774357 206.88934 1.789072 208.98582 1.8676691C 210.54979 1.8490467 212.09776 2.1840868 213.51407 2.8477592C 214.82823 3.4576564 215.97981 4.3692594 216.87506 5.508359C 217.02213 5.691677 217.2466 5.795471 217.48149 5.788769C 217.7673 5.786956 218.04218 5.678588 218.25232 5.484859C 218.46506 5.3238873 218.59354 5.075308 218.60179 4.808669C 218.53815 4.4455338 218.377 4.106524 218.13559 3.827889C 217.09686 2.5609841 215.74518 1.5874119 214.21446 1.003609C 212.55333 0.33261013 210.77737 -0.008276939 208.98587 0C 207.12431 -0.038866997 205.2766 0.3276024 203.57079 1.074C 202.12263 1.7012725 200.87794 2.7197018 199.97638 4.015C 199.14282 5.2390833 198.70325 6.6886697 198.71654 8.1695595C 198.64035 9.778166 199.0909 11.367725 199.99985 12.697109C 200.80887 13.808917 201.86324 14.719334 203.08107 15.357679C 204.71182 16.16774 206.38708 16.884659 208.09898 17.50507C 209.68268 18.062702 211.23341 18.709515 212.74399 19.44248C 213.85504 19.998793 214.8339 20.786873 215.61453 21.75358C 216.42393 22.810453 216.85167 24.110218 216.8281 25.44121C 216.86824 27.261341 215.99144 28.979918 214.49422 30.015709C 212.7589 31.221539 210.67735 31.827847 208.56593 31.74247C 206.75557 31.74827 204.96495 31.366264 203.31456 30.62215C 201.64659 29.873735 200.17014 28.75671 198.9963 27.35515C 198.8065 27.105028 198.5162 26.951162 198.20268 26.93451C 197.93004 26.94549 197.67522 27.073025 197.503 27.284698C 197.3041 27.474365 197.18669 27.733927 197.17561 28.008549C 197.16875 28.270636 197.27019 28.523968 197.45604 28.708899C 198.92151 30.234476 200.64389 31.49043 202.54443 32.41935C 204.44066 33.250973 206.49593 33.657406 208.56595 33.61012C 210.42184 33.644413 212.26256 33.269955 213.95757 32.513298C 215.41376 31.877565 216.66585 30.851604 217.57544 29.548798C 218.39467 28.370346 218.83424 26.969702 218.83528 25.534468C 218.92168 23.783089 218.44745 22.049776 217.48149 20.58632z" stroke="none" fill="#000000" fill-rule="nonzero"></path><path d="M99.66252 16.0581C 101.187416 15.5546665 102.48006 14.518986 103.3039 13.14057C 104.17729 11.715868 104.6303 10.073358 104.61071 8.4023695C 104.71638 6.2429 103.90222 4.1397524 102.37006 2.6143093C 100.742966 1.1326814 98.59284 0.35996723 96.39483 0.46692L96.39483 0.46692L83.83788 0.46692C 83.829254 0.46692 83.82227 0.47149 83.81372 0.47175L83.81372 0.47175L83.18551 0.47175C 82.949524 0.4691996 82.722466 0.56181914 82.555595 0.72869647C 82.38872 0.8955738 82.29611 1.1226376 82.29867 1.35862C 82.29033 1.6165445 82.38245 1.8676324 82.55561 2.05897C 82.71424 2.2403665 82.94456 2.3429046 83.18551 2.3394L83.18551 2.3394L95.50382 2.3394L95.50382 2.33457L96.16137 2.33457C 97.90949 2.2261734 99.62957 2.813355 100.94652 3.96807C 102.10919 5.1240993 102.72804 6.7183604 102.64981 8.35607C 102.76976 10.26148 102.12263 12.1357155 100.8526 13.561199C 99.61398 14.807575 97.9181 15.490976 96.16137 15.451659L96.16137 15.451659L95.50382 15.451659L95.50382 15.444299L83.18551 15.444299C 82.9478 15.439763 82.71916 15.535501 82.55561 15.708058C 82.3859 15.879986 82.29319 16.113394 82.29867 16.354908C 82.28986 16.618544 82.38173 16.875648 82.55561 17.074009C 82.71202 17.259277 82.94307 17.364916 83.18551 17.36201L83.18551 17.36201L87.51726 17.36201L87.51726 17.36554L96.48806 17.36554C 98.51797 17.267986 100.5175 17.887566 102.1366 19.115799C 103.62804 20.418802 104.42283 22.345316 104.284 24.3209C 104.42299 26.296314 103.62814 28.22269 102.1366 29.52533C 100.517586 30.75378 98.51804 31.373592 96.48806 31.276249L96.48806 31.276249L87.51726 31.276249L87.51726 31.2848L83.18551 31.2848C 82.949524 31.28225 82.722466 31.37487 82.555595 31.541746C 82.388725 31.708624 82.29611 31.935686 82.29867 32.17167C 82.29034 32.4296 82.382454 32.680695 82.55561 32.872047C 82.71425 33.05343 82.944565 33.155952 83.18551 33.152447L83.18551 33.152447L95.50382 33.152447C 95.521774 33.152447 95.53582 33.144085 95.553375 33.143208L95.553375 33.143208L96.72153 33.143208C 99.20391 33.24122 101.636375 32.427536 103.56015 30.855618C 105.40624 29.201862 106.39491 26.794813 106.24422 24.320898C 106.331635 22.313406 105.6937 20.341497 104.447014 18.765608C 103.2262 17.321285 101.52925 16.360996 99.66252 16.0581z" stroke="none" fill="#000000" fill-rule="nonzero"></path><path d="M300 22.63575C 300 22.861185 299.9203 23.053606 299.7609 23.21301C 299.6015 23.372417 299.40906 23.45212 299.18362 23.45212C 298.9582 23.45212 298.76578 23.372417 298.60635 23.21301C 298.44696 23.053606 298.36725 22.861185 298.36725 22.63575C 298.36725 22.410316 298.44696 22.217896 298.60635 22.058489C 298.76578 21.899082 298.9582 21.81938 299.18362 21.81938C 299.40906 21.81938 299.6015 21.899082 299.7609 22.058489C 299.9203 22.217896 300 22.410316 300 22.63575C 300 22.64525 299.99985 22.654747 299.9995 22.66424" stroke="none" fill="#000000" fill-rule="nonzero"></path></g></svg> 