<?xml version="1.0" encoding="UTF-8"?> <svg xmlns="http://www.w3.org/2000/svg" width="226" height="62" viewBox="0 0 226 62" fill="none"><path d="M100.068 5.49121H89.2617V59.8774H100.068V5.49121Z" fill="#151515"></path><path d="M145.744 18.2793C141.277 18.2793 137.243 21.2882 135.009 24.2219C132.776 19.859 129.39 18.2041 125.572 18.2041C121.897 18.2041 118.223 20.2351 115.485 24.2219V19.5581H104.679V59.8777H115.485V33.6248C115.485 25.8016 127.012 25.7264 127.012 33.6248V59.8777H137.819V33.6248C137.819 25.7264 149.346 25.7264 149.346 33.6248V59.8777H160.152V34.7532C160.224 22.567 152.444 18.2793 145.744 18.2793Z" fill="#151515"></path><path d="M79.68 23.7706C76.0057 20.2351 71.1068 18.2041 66.2799 18.2041C60.8046 18.2041 55.4013 20.7617 51.6551 25.1246C45.2432 32.5717 45.2432 46.6384 51.6551 54.0855C55.4734 58.4484 60.9487 61.006 66.6401 61.006C73.4122 61.006 80.3283 58.2228 84.4348 50.3243L77.0864 45.8862C74.4928 49.873 70.3143 51.4527 66.8562 51.4527C62.6777 51.4527 57.7067 48.519 57.7067 42.8773H85.5155V37.3108C85.5155 32.2708 83.4262 27.4565 79.68 23.7706ZM74.709 35.7311H57.8508C57.8508 25.1246 74.709 25.0494 74.709 35.7311Z" fill="#151515"></path><path d="M196.246 23.7706C192.572 20.2351 187.673 18.2041 182.846 18.2041C177.371 18.2041 171.967 20.7617 168.221 25.1246C161.809 32.5717 161.809 46.6384 168.221 54.0855C172.04 58.4484 177.515 61.006 183.206 61.006C189.978 61.006 196.894 58.2228 201.001 50.3243L193.725 45.8862C191.131 49.873 186.952 51.4527 183.494 51.4527C179.316 51.4527 174.345 48.519 174.345 42.8773H202.154V37.3108C202.154 32.2708 200.064 27.4565 196.246 23.7706ZM191.347 35.7311H174.489C174.489 25.1246 191.347 25.0494 191.347 35.7311Z" fill="#151515"></path><path d="M220.453 50.9259C218.724 50.9259 216.346 50.7755 216.346 43.5541V27.9829H226.072V19.7084H216.346V5.49121H205.54V43.4788C205.54 55.0632 209.934 60.9306 218.507 60.9306C220.525 60.9306 222.686 60.6297 225.207 59.9527L226 59.727V50.3241C223.767 50.625 220.813 50.9259 220.453 50.9259Z" fill="#151515"></path><path d="M26.0076 0L18.8033 7.37186C23.9904 15.0446 30.2582 15.9473 34.6528 16.1729V18.204C34.6528 31.0671 30.4743 41.5231 22.9098 47.6914C15.3452 41.5231 11.1667 31.0671 11.1667 18.204V8.87632H0V18.204C0 34.1512 6.05164 44.8329 11.1667 51.0764C16.7141 57.8465 22.8377 61.0811 22.8377 61.0811C22.8377 61.0811 29.0335 57.7713 34.5088 51.0764C39.6238 44.8329 45.6755 34.1512 45.6755 18.204V5.5665H38.6152C34.5088 5.5665 30.4743 5.26561 26.0076 0Z" fill="#151515"></path></svg> 