<?xml version="1.0" encoding="UTF-8"?> <svg xmlns="http://www.w3.org/2000/svg" width="201" height="123" viewBox="0 0 201 123" fill="none"><path d="M47.7381 118.12C48.7389 118.12 49.4082 118.334 49.7502 118.765C50.0817 119.185 50.0817 119.783 49.7481 120.561C49.4166 121.339 48.9036 121.937 48.2135 122.357C47.5025 122.786 46.6497 123 45.6488 123C44.648 123 43.9766 122.786 43.6367 122.357C43.3052 121.937 43.3052 121.337 43.6367 120.561C43.9682 119.785 44.4812 119.185 45.1713 118.765C45.8824 118.334 46.7372 118.12 47.7381 118.12ZM46.2889 121.51C47.148 121.51 47.7131 121.194 47.9841 120.561C48.2552 119.928 47.9612 119.612 47.1 119.612C46.2389 119.612 45.6738 119.928 45.4028 120.561C45.1338 121.194 45.4299 121.51 46.2889 121.51Z" fill="#FF9B8D"></path><path d="M55.6197 118.188L54.2289 121.441H56.9458L56.3078 122.933H51.8269L53.8536 118.191H55.6197V118.188Z" fill="#FF9B8D"></path><path d="M66.3495 118.188L65.7699 119.543H62.5109L62.3357 119.949H65.528L65.0067 121.169H61.8145L61.6393 121.574H64.8983L64.3187 122.929H59.2957L61.3224 118.186H66.3495V118.188Z" fill="#FF9B8D"></path><path d="M75.2779 118.188L73.247 122.931H71.2099L70.2612 120.39L69.1748 122.931H67.4088L69.4396 118.188H71.4747L72.4255 120.73L73.5118 118.188H75.2779Z" fill="#FF9B8D"></path><path d="M82.8154 118.188L82.8238 122.931H80.991V122.118H78.6953L78.0031 122.931H76.1682L80.2362 118.188H82.8154ZM79.7462 120.9H80.9827V119.456L79.7462 120.9Z" fill="#FF9B8D"></path><path d="M99.0436 118.188L97.017 122.931H95.2509L96.1787 120.763L93.6787 122.796L92.9177 120.763L91.9898 122.931H90.2258L92.2525 118.188H94.0186L94.7796 120.222L97.2797 118.188H99.0436Z" fill="#FF9B8D"></path><path d="M106.581 118.188L106.59 122.931H104.757V122.118H102.461L101.769 122.931H99.934L104.002 118.188H106.581ZM103.512 120.9H104.748V119.456L103.512 120.9Z" fill="#FF9B8D"></path><path d="M117.378 118.188L115.347 122.931H113.31L112.361 120.39L111.275 122.931H109.509L111.54 118.188H113.575L114.525 120.73L115.612 118.188H117.378Z" fill="#FF9B8D"></path><path d="M123.441 118.188C124.405 118.188 125.045 118.399 125.359 118.819C125.662 119.221 125.651 119.801 125.326 120.561C125.001 121.321 124.515 121.901 123.869 122.303C123.195 122.723 122.378 122.933 121.412 122.933H118.608L120.639 118.191H123.441V118.188ZM122.05 121.441C122.805 121.441 123.31 121.148 123.56 120.561C123.81 119.974 123.558 119.681 122.803 119.681H121.765L121.012 121.443H122.05V121.441Z" fill="#FF9B8D"></path><path d="M134.457 118.188L133.819 119.679L130.485 121.441H133.066L132.428 122.933H127.132L127.77 121.441L131.104 119.679H128.525L129.163 118.188H134.457Z" fill="#FF9B8D"></path><path d="M137.58 118.188H139.344L137.317 122.931H135.551L137.58 118.188Z" fill="#FF9B8D"></path><path d="M143.364 123C142.407 123 141.771 122.786 141.454 122.357C141.144 121.937 141.156 121.337 141.488 120.561L142.501 118.191H144.267L143.254 120.561C142.983 121.194 143.233 121.51 144.002 121.51C144.772 121.51 145.291 121.194 145.562 120.561L146.575 118.191H148.341L147.326 120.561C146.994 121.339 146.492 121.937 145.825 122.357C145.139 122.786 144.319 123 143.364 123Z" fill="#FF9B8D"></path><path d="M151.5 118.188H153.266L151.235 122.931H149.471L151.5 118.188ZM157.612 118.188L154.357 120.559L155.583 122.931H153.477L152.251 120.559L155.506 118.188H157.612Z" fill="#FF9B8D"></path><path d="M0 110.351L5.06884 97.9666L10.6694 97.9874L7.80655 105.015H15.7611C16.2407 105.015 16.5806 104.79 16.7787 104.339L19.7061 97.1612H5.41079L6.44916 94.5993C6.78903 93.7523 7.33324 93.078 8.08178 92.5765C8.83033 92.075 9.65811 91.8252 10.563 91.8252H27.4897C27.1228 92.743 26.7871 93.5754 26.4826 94.3225C26.1782 95.0697 25.8321 95.9208 25.4443 96.874C25.0544 97.8271 24.6561 98.8011 24.2454 99.7958C23.8346 100.791 23.4363 101.769 23.0464 102.728C22.6565 103.687 22.3104 104.541 22.006 105.29C21.7015 106.039 21.3596 106.878 20.978 107.81C20.609 108.586 20.0689 109.204 19.3558 109.662C18.6427 110.12 17.8525 110.351 16.9913 110.351H0Z" fill="#FF9B8D"></path><path d="M31.1386 94.5993C31.4785 93.7523 32.0227 93.078 32.7713 92.5765C33.5198 92.075 34.3476 91.8252 35.2525 91.8252H52.2647L48.0007 102.283C47.6608 103.13 47.1166 103.804 46.3681 104.303C45.6175 104.805 44.7918 105.055 43.8868 105.055H42.7838L44.9481 110.347H39.2204L37.079 105.055H32.6462L30.9906 109.078C30.8342 109.458 30.584 109.766 30.2379 109.997C29.8918 110.23 29.5123 110.347 29.1036 110.347H24.775L31.1386 94.5993ZM34.8292 99.6814H42.8255C42.9819 99.6814 43.1258 99.6398 43.2613 99.5544C43.3948 99.4691 43.4907 99.3567 43.547 99.2152L44.3747 97.182H36.3785C36.024 97.182 35.778 97.3443 35.6362 97.669L34.8292 99.6814Z" fill="#FF9B8D"></path><path d="M49.233 110.351C49.6021 109.433 49.9357 108.601 50.2401 107.854C50.5445 107.107 50.8906 106.256 51.2785 105.302C51.6684 104.349 52.0666 103.373 52.4774 102.37C52.8881 101.367 53.2864 100.391 53.6763 99.4379C54.0641 98.4847 54.4103 97.6315 54.7147 96.8761C55.0191 96.1206 55.3611 95.284 55.7426 94.3663C56.1096 93.59 56.6517 92.9719 57.3648 92.5141C58.0779 92.0562 58.8661 91.8252 59.7293 91.8252H76.7207L75.6594 94.4079C75.3195 95.2403 74.7753 95.9083 74.0267 96.4078C73.2761 96.9094 72.4504 97.1591 71.5455 97.1591H60.9616C60.4799 97.1591 60.1422 97.3859 59.9441 97.8375L59.4979 98.8968H68.5555L67.2836 101.987C67.1272 102.383 66.877 102.697 66.5309 102.93C66.1847 103.163 65.799 103.28 65.3757 103.28H58.4616C57.9799 103.28 57.6421 103.506 57.4441 103.956L57.0208 105.015H71.3182L70.2778 107.577C69.9379 108.424 69.3937 109.098 68.6451 109.598C67.8945 110.099 67.0688 110.349 66.1639 110.349H49.233V110.351Z" fill="#FF9B8D"></path><path d="M73.6681 110.351L80.1173 94.5577C80.4571 93.7253 80.993 93.0614 81.729 92.5682C82.4651 92.075 83.2845 91.8273 84.1894 91.8273H101.158L94.7525 107.579C94.4126 108.426 93.8684 109.1 93.1199 109.6C92.3692 110.101 91.5435 110.351 90.6386 110.351H87.9447L90.8304 103.28H82.2399L79.865 109.08C79.7086 109.46 79.4584 109.768 79.1123 109.999C78.7661 110.233 78.3804 110.349 77.9571 110.349H73.6681V110.351ZM92.2066 98.8968C92.461 98.8968 92.6382 98.7761 92.7362 98.5368L93.3096 97.1612H85.1215C84.8671 97.1612 84.6898 97.2819 84.5919 97.5212L84.0184 98.8968H92.2066Z" fill="#FF9B8D"></path><path d="M104.552 94.5577C104.721 94.1477 104.944 93.7731 105.22 93.436C105.495 93.0968 105.814 92.8075 106.175 92.5682C106.535 92.3289 106.923 92.1457 107.34 92.0188C107.757 91.8918 108.185 91.8294 108.625 91.8294H130.132L123.706 107.581C123.366 108.428 122.822 109.103 122.073 109.602C121.323 110.104 120.497 110.353 119.592 110.353H116.898L122.265 97.1633H118.383L113.547 109.084C113.391 109.465 113.137 109.773 112.784 110.004C112.43 110.237 112.048 110.353 111.64 110.353H107.334L112.701 97.1633H109.561C109.306 97.1633 109.129 97.284 109.031 97.5233L104.3 109.084C104.144 109.465 103.893 109.773 103.547 110.004C103.201 110.237 102.822 110.353 102.413 110.353H98.1282L104.552 94.5577Z" fill="#FF9B8D"></path><path d="M145.85 94.3663C146.217 93.59 146.759 92.9719 147.472 92.5141C148.185 92.0562 148.973 91.8252 149.836 91.8252H166.828L165.766 94.4079C165.426 95.2403 164.882 95.9083 164.134 96.4078C163.385 96.9094 162.557 97.1591 161.652 97.1591H151.068C150.885 97.1591 150.687 97.2299 150.474 97.3714C150.262 97.5129 150.12 97.6669 150.051 97.8375L149.628 98.8968H158.664L157.393 101.987C157.236 102.383 156.986 102.697 156.64 102.93C156.294 103.163 155.914 103.28 155.506 103.28H148.566C148.398 103.28 148.202 103.35 147.983 103.492C147.764 103.633 147.618 103.789 147.549 103.958L144.94 110.351H139.34C140.556 107.373 141.638 104.713 142.584 102.37L145.85 94.3663Z" fill="#FF9B8D"></path><path d="M169.903 94.5993C170.243 93.7523 170.787 93.078 171.536 92.5765C172.284 92.075 173.112 91.8252 174.017 91.8252H176.732L170.326 107.577C169.986 108.424 169.442 109.098 168.694 109.598C167.943 110.099 167.109 110.349 166.192 110.349H163.477L169.903 94.5993Z" fill="#FF9B8D"></path><path d="M178.854 97.182L179.895 94.5993C180.235 93.7523 180.779 93.078 181.527 92.5765C182.276 92.075 183.104 91.8252 184.009 91.8252H201L199.939 94.4079C199.599 95.2549 199.059 95.9292 198.316 96.4307C197.574 96.9322 196.742 97.182 195.825 97.182H192.134L187.891 107.577C187.551 108.424 187.007 109.098 186.258 109.598C185.508 110.099 184.682 110.349 183.777 110.349H181.062L186.429 97.1799H178.854V97.182Z" fill="#FF9B8D"></path><path d="M100.534 81.6152C99.5503 81.6152 98.564 81.328 97.6841 80.7849C89.3792 75.6779 81.7478 69.8882 75.0047 63.5804L74.5835 63.1871C72.2524 61.0082 69.8587 58.7689 67.6256 56.3341C62.0334 50.2385 58.3448 43.04 56.6643 34.9404C55.1442 27.6107 56.0805 20.5038 59.4479 13.8172C61.852 9.04524 65.7406 5.29927 71.0034 2.68125C74.5439 0.920636 78.2949 0.019521 82.1461 0.00287218H82.2608C88.1449 0.00287218 93.5619 1.95286 98.3659 5.79665C98.7871 6.13379 99.2021 6.48549 99.6045 6.84344C100.136 7.31793 100.91 7.31793 101.441 6.84136C101.633 6.67071 101.829 6.50006 102.027 6.33149C106.298 2.70622 111.114 0.616794 116.344 0.11733C121.904 -0.41335 127.251 0.858202 132.234 3.89036C138.402 7.64675 142.386 13.2532 144.077 20.5579C144.776 23.5734 145.091 26.3725 145.038 29.1091C144.957 33.4545 143.996 37.8206 142.096 42.4573C139.486 48.8317 135.656 54.4652 130.712 59.2039C126.535 63.2058 120.954 68.3919 114.798 73.0016C111.158 75.7278 107.305 78.35 103.345 80.7974C102.482 81.3322 101.51 81.6152 100.534 81.6152ZM82.2628 3.40963H82.1565C78.8391 3.4242 75.5968 4.20461 72.5276 5.73005C67.9383 8.01302 64.5646 11.2491 62.4983 15.3489C59.4833 21.3321 58.6451 27.6919 60.0067 34.2515C61.5601 41.7435 64.9712 48.3988 70.1423 54.0365C72.2878 56.3757 74.6335 58.5692 76.9021 60.6898L77.3379 61.0977C83.9163 67.2515 91.3642 72.9017 99.4752 77.8901C100.163 78.3125 100.885 78.3209 101.552 77.9067C105.424 75.5135 109.194 72.9475 112.753 70.2816C118.76 65.7843 124.244 60.6877 128.349 56.7524C132.947 52.3467 136.508 47.1044 138.94 41.1753C140.674 36.934 141.554 32.9696 141.627 29.0508C141.673 26.5951 141.387 24.0708 140.754 21.33C139.277 14.9514 135.814 10.0629 130.457 6.8039C126.118 4.16299 121.479 3.05584 116.667 3.51368C112.146 3.94447 107.964 5.76751 104.24 8.93078C104.064 9.07854 103.891 9.23046 103.72 9.38446C101.898 11.014 99.152 11.014 97.3317 9.38863C96.9773 9.0723 96.6082 8.76014 96.235 8.46046C92.0523 5.10781 87.3504 3.40963 82.2628 3.40963Z" fill="#FF9B8D"></path><path d="M135.806 39.9974C135.599 39.9974 135.395 39.9579 135.197 39.8767C134.398 39.55 133.994 38.6322 134.296 37.831C135.51 34.6157 136.125 31.6314 136.181 28.7075C136.219 26.7179 135.979 24.6389 135.449 22.3497C134.317 17.455 131.8 13.8796 127.757 11.4198C124.455 9.40944 121.102 8.59781 117.505 8.94119C114.131 9.26376 111.106 10.5977 108.251 13.0201C106.867 14.196 105.668 15.917 104.463 17.7276C103.602 19.0199 102.23 19.792 100.695 19.8441C99.177 19.9107 97.755 19.2468 96.8063 18.021L96.7354 17.9274C96.6249 17.7879 96.5352 17.6672 96.4518 17.5444C95.2758 15.8109 93.8684 13.8755 92.3421 12.6539C89.1603 10.1066 85.7658 8.86835 81.9668 8.86835H81.8834C79.4521 8.87875 77.0668 9.4573 74.7962 10.5873C71.2911 12.3313 68.8495 14.6392 67.3357 17.6443C65.0734 22.1354 64.3311 26.9011 65.1297 31.8083C65.2715 32.672 64.719 33.4857 63.8745 33.6605C63.4429 33.75 62.9863 33.6563 62.6234 33.4087C62.2627 33.161 62.025 32.7885 61.9541 32.364C61.0325 26.7637 61.8728 21.3258 64.4562 16.2001C66.2953 12.5498 69.2081 9.77363 73.3595 7.70918C76.0764 6.35646 78.9434 5.66554 81.8792 5.65305H81.9688C86.531 5.65305 90.5823 7.12231 94.3605 10.1461C96.2183 11.6341 97.7446 13.7111 99.1145 15.7339C99.1562 15.7963 99.2083 15.8629 99.275 15.9482L99.3584 16.0544C99.6462 16.4269 100.099 16.6392 100.593 16.6288C101.066 16.6121 101.496 16.3728 101.763 15.9711C103.11 13.9504 104.459 12.0171 106.164 10.5686C109.538 7.70293 113.147 6.12338 117.201 5.73838C121.517 5.3284 125.518 6.28779 129.438 8.67481C134.261 11.6092 137.255 15.8463 138.591 21.6276C139.181 24.1769 139.448 26.514 139.407 28.7699C139.344 32.058 138.664 35.3878 137.324 38.9444C137.167 39.3606 136.857 39.6873 136.45 39.8642C136.244 39.9516 136.025 39.9974 135.806 39.9974ZM135.558 39.0006C135.724 39.0672 135.906 39.0651 136.071 38.9943C136.239 38.9215 136.369 38.7841 136.435 38.6093C137.736 35.1547 138.397 31.929 138.456 28.7491C138.495 26.5702 138.237 24.3101 137.666 21.8378C136.387 16.3187 133.533 12.2751 128.942 9.48019C125.205 7.20555 121.392 6.28779 117.288 6.67903C113.437 7.04531 109.999 8.5541 106.777 11.2887C105.165 12.658 103.858 14.531 102.551 16.4935C102.113 17.1511 101.406 17.5445 100.614 17.5736C99.7942 17.5757 99.077 17.2406 98.6057 16.6308L98.5265 16.5289C98.4452 16.4269 98.3826 16.3437 98.3284 16.2646C96.996 14.3 95.524 12.2897 93.7642 10.8829C90.1611 7.99845 86.3017 6.59787 81.9647 6.59787H81.8771C79.0914 6.61036 76.3641 7.26798 73.7786 8.55618C69.817 10.527 67.0438 13.1658 65.3007 16.6246C62.8111 21.5672 61.9979 26.8116 62.8883 32.2099C62.9154 32.3785 63.0134 32.5284 63.1593 32.6283C63.3115 32.7323 63.5013 32.7698 63.6827 32.7344C64.0288 32.6636 64.2519 32.3244 64.1935 31.9602C63.3616 26.8532 64.133 21.8919 66.4871 17.2177C68.0968 14.0232 70.676 11.5759 74.3729 9.73825C76.777 8.54162 79.302 7.92977 81.8813 7.91937H81.9668C85.9889 7.91937 89.5773 9.2263 92.9343 11.913C94.5586 13.2137 96.0181 15.2199 97.2337 17.0096C97.3067 17.1137 97.3839 17.2177 97.4819 17.3426L97.5569 17.4404C98.3138 18.4206 99.4418 18.9513 100.655 18.8972C101.886 18.8535 102.982 18.2375 103.672 17.2011C104.917 15.3322 106.158 13.5529 107.636 12.298C110.643 9.74449 113.841 8.33767 117.413 7.99637C121.221 7.63426 124.765 8.48959 128.249 10.6102C132.522 13.2116 135.178 16.9805 136.373 22.1354C136.921 24.5016 137.167 26.6576 137.13 28.7241C137.073 31.7563 136.437 34.8446 135.184 38.164C135.061 38.4928 135.228 38.8674 135.558 39.0006Z" fill="#FF9B8D"></path></svg> 