<?xml version="1.0" encoding="UTF-8"?> <svg xmlns="http://www.w3.org/2000/svg" width="163" height="156" viewBox="0 0 163 156" fill="none"><path d="M147.173 65.2791C147.173 101.332 117.947 130.558 81.8944 130.558C45.8417 130.558 16.6152 101.332 16.6152 65.2791C16.6152 29.2265 45.8417 0 81.8944 0C117.947 0 147.173 29.2265 147.173 65.2791Z" fill="#151515"></path><path fill-rule="evenodd" clip-rule="evenodd" d="M81.8944 128.976C117.073 128.976 145.591 100.458 145.591 65.2791C145.591 30.1005 117.073 1.58252 81.8944 1.58252C46.7157 1.58252 18.1978 30.1005 18.1978 65.2791C18.1978 100.458 46.7157 128.976 81.8944 128.976ZM81.8944 130.558C117.947 130.558 147.173 101.332 147.173 65.2791C147.173 29.2265 117.947 0 81.8944 0C45.8417 0 16.6152 29.2265 16.6152 65.2791C16.6152 101.332 45.8417 130.558 81.8944 130.558Z" fill="#343538"></path><path d="M104.237 47.8259C95.1642 47.8695 88.2645 53.8445 85.6832 63.3647C81.3517 56.7283 77.972 49.1379 76.0333 42.7285L66.4821 42.7722L66.6005 67.9709C66.611 70.3667 65.6653 72.6687 63.9714 74.3708C62.2774 76.0729 59.9738 77.0358 57.5669 77.0479C55.1599 77.0584 52.8473 76.1171 51.1373 74.431C49.4273 72.7448 48.4599 70.4519 48.4477 68.056L48.3271 42.8573L38.7715 42.901L38.8899 68.0997C38.9404 78.5564 47.3336 86.8432 57.6063 86.793C67.8791 86.7428 76.2 78.3839 76.1517 67.925L76.1298 63.6463C78.0554 67.4382 80.4635 71.4681 83.1106 75.0243L77.2702 102.864L87.0605 102.821L91.2714 82.5928C95.1028 84.9549 99.3861 86.3586 104.422 86.3345C114.931 86.2843 123.491 77.6897 123.436 66.7528C123.396 61.7137 121.355 56.8951 117.759 53.3487C114.162 49.8022 109.302 47.8161 104.24 47.8237L104.237 47.8259ZM104.373 76.5917C100.553 76.6091 96.7258 74.9631 93.6093 72.361L94.5458 68.5559V68.3376C95.2476 64.2903 97.3574 57.3876 104.525 57.357C107.052 57.3528 109.478 58.3423 111.276 60.1102C113.074 61.878 114.098 64.2811 114.124 66.7964C113.909 72.2649 109.393 76.5655 104.376 76.5895L104.373 76.5917Z" fill="white"></path><path d="M47.6083 141.024L49.2551 146.093H54.5842L50.2728 149.225L51.9196 154.293L47.6083 151.161L43.297 154.293L44.9438 149.225L40.6324 146.093H45.9615L47.6083 141.024Z" fill="white"></path><path d="M64.7235 141.024L66.3703 146.093H71.6994L67.3881 149.225L69.0349 154.293L64.7235 151.161L60.4122 154.293L62.059 149.225L57.7477 146.093H63.0768L64.7235 141.024Z" fill="white"></path><path d="M81.8368 141.024L83.4836 146.093H88.8127L84.5014 149.225L86.1481 154.293L81.8368 151.161L77.5255 154.293L79.1723 149.225L74.8609 146.093H80.19L81.8368 141.024Z" fill="white"></path><path d="M98.952 141.024L100.599 146.093H105.928L101.617 149.225L103.263 154.293L98.952 151.161L94.6407 154.293L96.2875 149.225L91.9762 146.093H97.3053L98.952 141.024Z" fill="white"></path><path d="M116.067 141.024L117.714 146.093H123.043L118.732 149.225L120.379 154.293L116.067 151.161L111.756 154.293L113.403 149.225L109.091 146.093H114.421L116.067 141.024Z" fill="white"></path><path d="M15.8252 107.612H0L7.68655 119.32L0 130.559H15.8252V107.612Z" fill="#343538"></path><path d="M147.175 107.612H163L155.313 119.32L163 130.559H147.175V107.612Z" fill="#343538"></path><rect x="16.7913" y="103.791" width="129.767" height="30.7464" fill="#151515"></rect><path d="M39.2118 114.22V116.133H36.4734V124.363H34.4739V116.133H31.75V114.22H39.2118Z" fill="white"></path><path d="M48.2818 123.044C47.2579 124.058 46.0119 124.565 44.5437 124.565C43.0755 124.565 41.8294 124.058 40.8056 123.044C39.7913 122.02 39.2842 120.769 39.2842 119.292C39.2842 117.814 39.7913 116.568 40.8056 115.553C41.8294 114.53 43.0755 114.018 44.5437 114.018C46.0119 114.018 47.2579 114.53 48.2818 115.553C49.3057 116.568 49.8176 117.814 49.8176 119.292C49.8176 120.769 49.3057 122.02 48.2818 123.044ZM42.211 121.682C42.8388 122.3 43.6164 122.609 44.5437 122.609C45.471 122.609 46.2485 122.3 46.8764 121.682C47.5043 121.054 47.8182 120.257 47.8182 119.292C47.8182 118.326 47.5043 117.529 46.8764 116.901C46.2485 116.273 45.471 115.959 44.5437 115.959C43.6164 115.959 42.8388 116.273 42.211 116.901C41.5831 117.529 41.2692 118.326 41.2692 119.292C41.2692 120.257 41.5831 121.054 42.211 121.682Z" fill="white"></path><path d="M55.0046 114.22C55.9801 114.22 56.8012 114.549 57.4677 115.206C58.1342 115.862 58.4674 116.669 58.4674 117.625C58.4674 118.582 58.1342 119.388 57.4677 120.045C56.8012 120.702 55.9801 121.03 55.0046 121.03H53.2224V124.363H51.223V114.22H55.0046ZM55.0046 119.161C55.4296 119.161 55.7821 119.016 56.0622 118.726C56.3424 118.427 56.4824 118.06 56.4824 117.625C56.4824 117.181 56.3424 116.814 56.0622 116.524C55.7821 116.234 55.4296 116.089 55.0046 116.089H53.2224V119.161H55.0046Z" fill="white"></path><path d="M68.9551 124.363L66.9122 120.842H65.3908V124.363H63.3914V114.22H67.4482C68.3852 114.22 69.1821 114.549 69.8389 115.206C70.4957 115.862 70.8242 116.655 70.8242 117.582C70.8242 118.21 70.6455 118.794 70.2881 119.335C69.9307 119.866 69.4574 120.267 68.8682 120.538L71.1139 124.363H68.9551ZM65.3908 116.089V119.089H67.4482C67.825 119.089 68.1485 118.944 68.419 118.654C68.6895 118.355 68.8247 117.997 68.8247 117.582C68.8247 117.166 68.6895 116.814 68.419 116.524C68.1485 116.234 67.825 116.089 67.4482 116.089H65.3908Z" fill="white"></path><path d="M78.8113 124.363L78.2027 122.537H74.1603L73.5518 124.363H71.393L74.9427 114.22H77.4203L80.9846 124.363H78.8113ZM74.7978 120.668H77.5797L76.1888 116.524L74.7978 120.668Z" fill="white"></path><path d="M87.942 114.22V116.133H85.2036V124.363H83.2041V116.133H80.4802V114.22H87.942Z" fill="white"></path><path d="M91.0577 122.45H95.3319V124.363H89.0582V114.22H95.2594V116.133H91.0577V118.292H94.8972V120.175H91.0577V122.45Z" fill="white"></path><path d="M100.769 114.22C102.16 114.22 103.319 114.708 104.247 115.684C105.183 116.659 105.652 117.862 105.652 119.292C105.652 120.721 105.183 121.924 104.247 122.899C103.319 123.875 102.16 124.363 100.769 124.363H96.7413V114.22H100.769ZM100.769 122.45C101.648 122.45 102.363 122.16 102.914 121.581C103.464 120.992 103.739 120.228 103.739 119.292C103.739 118.355 103.464 117.596 102.914 117.017C102.363 116.428 101.648 116.133 100.769 116.133H98.7407V122.45H100.769Z" fill="white"></path><path d="M115.432 121.859V111.384H131.247V121.859L123.391 127.2L115.432 121.859Z" fill="#B8B8B8"></path><path d="M115.432 121.862V111.384H131.247L115.432 121.862Z" fill="#CCCCCC"></path><rect x="16.7913" y="103.791" width="129.767" height="30.7464" stroke="#343538" stroke-width="1.58252"></rect></svg> 