<?xml version="1.0" encoding="UTF-8"?> <svg xmlns="http://www.w3.org/2000/svg" width="198" height="46" viewBox="0 0 198 46" fill="none"><path fill-rule="evenodd" clip-rule="evenodd" d="M71.5437 23.0002C71.5437 9.22208 79.5762 0.00341797 91.2589 0.00341797C102.942 0.00674361 110.977 9.22208 110.974 23.0002C110.974 36.7816 102.942 45.997 91.2589 45.997C79.5762 45.997 71.5437 36.7816 71.5437 23.0002ZM91.2588 41.8365C95.691 41.8365 99.4643 40.1537 102.176 36.9711C105.064 33.5822 106.592 28.7501 106.592 23.0001C106.592 17.2567 105.064 12.4245 102.176 9.0324C99.4643 5.84976 95.691 4.16699 91.2588 4.16699C86.8233 4.16699 83.05 5.84976 80.3415 9.0324C77.4532 12.4245 75.9259 17.2534 75.9259 23.0001C75.9259 28.7501 77.4532 33.5789 80.3415 36.9711C83.05 40.1537 86.8267 41.8365 91.2588 41.8365Z" fill="black"></path><path fill-rule="evenodd" clip-rule="evenodd" d="M198 44.9059H192.65L180.375 27.3798H170.609V44.9025H166.226V1.10059H167.251H170.609H180.468C187.732 1.10059 193.618 6.98364 193.618 14.2402C193.618 19.8572 190.091 24.6494 185.13 26.5317L198 44.9059ZM180.468 5.26074H170.609V23.2192H180.468C185.31 23.2192 189.233 19.1985 189.233 14.24C189.233 9.28144 185.31 5.26074 180.468 5.26074Z" fill="black"></path><path fill-rule="evenodd" clip-rule="evenodd" d="M41.8926 44.8961H37.0578L30.9287 31.7632H10.964L4.83479 44.8961H0L18.5239 5.18134L20.943 0L23.362 5.18134L41.8926 44.8961ZM20.9496 10.3628L12.9072 27.6029H28.9921L20.9496 10.3628Z" fill="black"></path><path d="M56.4636 1.10059V35.0487C56.4636 38.6769 53.5222 41.6201 49.8919 41.6201C48.897 41.6201 47.9553 41.3973 47.1135 41.0049L45.2634 44.9757C46.6709 45.6309 48.2382 46 49.8952 46C55.9445 46 60.8492 41.098 60.8492 35.0487V1.10059H56.4636Z" fill="black"></path><path d="M121.672 30.1201C121.672 38.8898 128.786 45.9967 137.56 45.9967C146.335 45.9967 153.445 38.8865 153.445 30.1201V1.10059H149.063V30.1201C149.063 36.5918 143.912 41.8363 137.56 41.8363C131.208 41.8363 126.057 36.5918 126.057 30.1201V1.10059H121.675V30.1201H121.672Z" fill="black"></path></svg> 