<?xml version="1.0" encoding="UTF-8"?> <svg xmlns="http://www.w3.org/2000/svg" width="299" height="185" viewBox="0 0 299 185"><g><g><g><path fill="#fff" d="M83.25 78.5a3.75 3.75 0 1 0 0-7.5 3.75 3.75 0 0 0 0 7.5z"></path></g><g><path fill="#2d508f" d="M140.5 94.5c0-4-3.25-6.75-6.75-6.75-3.75 0-6.75 3-6.75 6.75V98c0 3.75-.75 4.75-2.25 6.5s-3.75 2.75-6.75 2.75-5.25-1-6.75-2.75S109 101.75 109 98v-3.75c0-3.75-3-6.75-6.75-6.75s-6.75 3-6.75 6.75v6.25c0 6.25 2 11.25 5.75 15s9.5 5.5 16.75 5.5c5 0 9-1 12.5-2.75s6-4.25 7.75-7.25 2.5-6.75 2.5-10.75l-.25-5.75z"></path></g><g><path fill="#2d508f" d="M144.498 42.004c-.5 3.5-2.75 6.5-6.25 6l-42.75-4.25c-3.5-.5-7-4.25-6.5-8 .5-3.5 3-6.75 6.5-6.5l43.75 4.25c3.5.75 5.75 5 5.25 8.5z"></path></g><g><path fill="#f19424" d="M141.748 18.748c1.5 3.75-.5 8.25-4.5 9.5l-38.75 15.25c-3.75 1.5-8.25-.5-9.5-4.5-1.5-3.75.5-8.25 4.5-9.5l38.75-15.25c3.75-1.5 8.25.5 9.5 4.5z"></path></g><g><path fill="#2d508f" d="M147.501 62.504c-.5 3.5-5.75 6.5-9.25 6l-40.75-4.75c-3.5-.5-6.75-4.5-6.25-8.25.5-3.5 5.25-4 9-3.5l43 4c3.5.5 5.25 2.5 4.75 6z"></path></g><g><path fill="#f19424" d="M144.998 38.502c1.5 3.75-.5 8.25-4.5 9.5l-39.75 15.25c-3.75 1.5-8.25-.5-9.5-4.5-1.5-3.75.5-8.25 4.5-9.5l39.75-15.25c3.75-1.25 8 .75 9.5 4.5z"></path></g><g><path fill="#f19424" d="M121.498 7.25c1.5 3.75-.5 8.25-4.5 9.5l-6.75 2.75c-3.75 1.5-8.25-.5-9.5-4.5-1.5-3.75.5-8.25 4.5-9.5l7.5-3c3.75-1.25 7.25.75 8.75 4.75z"></path></g><g><path fill="none" stroke="#ffb52b" stroke-linecap="round" stroke-linejoin="round" stroke-miterlimit="50" stroke-width="15" d="M110.75 8L106 10"></path></g><g><path fill="none" stroke="#ffb52b" stroke-linecap="round" stroke-linejoin="round" stroke-miterlimit="50" stroke-width="15" d="M104.25 50.5l-6.75 2.75"></path></g><g><path fill="#2d508f" d="M109 76.75c0 3.75-3 6.75-6.75 6.75s-6.75-3-6.75-6.75V75c0-3.75 3-6.75 6.75-6.75s6.75 3 6.75 6.75z"></path></g><g><path fill="#f19424" d="M140.5 76.75c0 3.75-3 6.75-6.75 6.75s-6.75-3-6.75-6.75v-10c0-3.75 3-6.75 6.75-6.75v8.25c3.75 0 6.75-5.25 6.75-1.5z"></path></g><g><g><path fill="#2d508f" d="M227.75 161h-5.25c-.5 0-1 1-1.25 1.25s-1.75 1.25-1.75 1.75v7c-1.25.25-1.75.25-2.75.5-.75 0-1.75.25-2.5.25-2 0-3.75-.25-5.25-1s-3-1.75-4-3c-1.25-1.25-2-2.75-2.75-4.25-.75-1.75-1-3.5-1-5.25 0-2 .25-3.75 1-5.25.75-1.75 1.5-3.25 2.75-4.5s2.5-2.25 4-3 3.25-1 5.25-1c1.5 0 3 .25 4.25.75 1 .25 2.5 1 3.5 1.75.25 0 .5.25 1 .5s1.5.25 2 .25c3.5 0 6.5-2.75 6.5-6.5 0-1.5-.5-2.75-1.25-3.75-.5-.5-1.75-1.5-2.75-2.25-1.75-1-3.25-1.75-5.25-2.25-2.5-.75-5-1.25-7.75-1.25-2.5 0-4.75.25-7 1s-4.25 1.5-6.25 2.75-3.75 2.5-5.25 4.25c-1.5 1.5-3 3.5-4.25 5.5s-2 4-2.75 6.25c-.5 2.25-1 4.5-1 7s.25 4.75 1 7 1.5 4.25 2.75 6.25 2.5 3.75 4.25 5.25c1.5 1.5 3.5 3 5.25 4.25 2 1.25 4 2 6.25 2.75 2.25.5 4.5 1 7 1 2.75 0 5.5-.25 8-1 2.75-.75 5.5-1.75 7.75-3.25.75-.25 1.5-1 1.5-1.5V165.5"></path></g><g><path fill="#2d508f" d="M227.75 169.5a4.25 4.25 0 1 0 0-8.5 4.25 4.25 0 0 0 0 8.5z"></path></g><g><path fill="#2d508f" d="M222.5 167a3 3 0 1 0 0-6 3 3 0 0 0 0 6z"></path></g></g><g><path fill="#f19424" d="M135.251 71.501c-3 1.25-6.5 0-7.75-3s0-6.5 3-7.75l9.75-4.25c3-1.25 6.5 0 7.75 3s0 6.5-3 7.75z"></path></g><g><path fill="none" stroke="#ffb52b" stroke-linecap="round" stroke-linejoin="round" stroke-miterlimit="50" stroke-width="15" d="M141 60.5s-5.75 2.5-7.25 3.25"></path></g><g><path fill="#2d508f" d="M162.25 99.25h12.5C177.5 99.25 180 97 180 94c0-2.75-2.25-5.25-5.25-5.25h-11v-8.5h14.5c3.25 0 6-2.75 6-6s-2.75-6-6-6H153c-1.75 0-3 1.5-3 3v15.5c0 8 4.25 12.5 12.25 12.5z"></path></g><g><g><path fill="#2d508f" d="M29 171.5H14.75V163h11c2.75 0 5.25-2.25 5.25-5.25 0-2.75-2.25-5.25-5.25-5.25h-12.5C5.25 152.5 1 157 1 164.75v15.5c0 1.75 1.5 3 3 3h25.25c3.25 0 6-2.75 6-6-.25-3-2.75-5.75-6.25-5.75z"></path></g><g><path fill="#2d508f" d="M29 132.25H4c-1.75 0-3 1.5-3 3V141c0 1.75 1.5 3 3 3h25c3.25 0 6-2.75 6-6 0-3-2.5-5.75-6-5.75z"></path></g></g><g><path fill="#2d508f" d="M83.75 108.5h-14.5V100h11c2.75 0 5.25-2.25 5.25-5.25 0-2.75-2.25-5.25-5.25-5.25h-11V81h14.5c3.25 0 6-2.75 6-6s-2.75-6-6-6h-25c-1.75 0-3 1.5-3 3v45c0 1.75 1.5 3 3 3H84c3.25 0 6-2.75 6-6-.25-3-3-5.5-6.25-5.5z"></path></g><g><path fill="#2d508f" d="M127 171.5h-14.5V163h11c2.75 0 5.25-2.25 5.25-5.25 0-2.75-2.25-5.25-5.25-5.25h-11V144H127c3.25 0 6-2.75 6-6s-2.75-6-6-6h-25c-1.75 0-3 1.5-3 3v45c0 1.75 1.5 3 3 3h25.25c3.25 0 6-2.75 6-6-.5-2.75-3-5.5-6.25-5.5z"></path></g><g><g><g><path fill="#2d508f" d="M278 135.25c0-1.75-1.5-3-3-3h-7.5c-1.75 0-3 1.5-3 3v45c0 1.75 1.5 3 3 3h7.5c1.75 0 3-1.5 3-3z"></path></g><g><path fill="#2d508f" d="M270.5 171.5c-3.25 0-6 2.75-6 6s2.75 6 6 6h22.25c3.25 0 6-2.75 6-6s-2.75-6-6-6z"></path></g><g><path fill="#2d508f" d="M270.25 132.25c-3.25 0-6 2.75-6 6s2.75 6 6 6h22.25c3.25 0 6-2.75 6-6s-2.75-6-6-6z"></path></g></g><g><path fill="#2d508f" d="M271.25 152.75c-2.75 0-5.25 2.25-5.25 5.25 0 2.75 2.25 5.25 5.25 5.25H289c2.75 0 5.25-2.25 5.25-5.25 0-2.75-2.25-5.25-5.25-5.25z"></path></g></g><g><path fill="none" stroke="#ffb52b" stroke-linecap="round" stroke-linejoin="round" stroke-miterlimit="50" stroke-width="15" d="M102.25 30.25L95.75 33"></path></g><g><path fill="#2d508f" d="M163.75 155.25h-9.25V144h9.25c2.75 0 5 2.5 5 5.75 0 3-2 5.5-5 5.5zM177 161.5c1-1 2-2.25 2.75-3.5s1.5-2.5 1.75-4c.5-1.5.75-3 .75-4.5 0-2.25-.5-4.5-1.25-6.75-1-2-2.25-4-3.75-5.5s-3.5-2.75-5.5-3.75-4.5-1.5-6.75-1.5h-16.25c-1.5 0-3 .5-4.25 1.25-1.5 1-2.5 2-3 3.5-.5 1.25-.75 3-.75 5V175c0 2.5.5 4.5 1.75 6s3 2.25 5 2.25 3.75-.75 5-2.25 2-3.5 2-6v-8h5s7.25 12 7.5 12.5c.5.75 1.25 1.5 1.75 2 .75.75 1.5 1.25 2.25 1.5s1.75.5 2.75.5c2.5 0 9.25-3 5-9l-6.25-10 .75-.5c1.5-.5 2.75-1.5 3.75-2.5z"></path></g><g><path fill="#2d508f" d="M39.75 79.25a3.75 3.75 0 1 0 0-7.5 3.75 3.75 0 0 0 0 7.5z"></path></g><g><path fill="#2d508f" d="M155.75 117.75c-2 0-3.75-1.75-3.75-3.75s1.75-3.75 3.75-3.75 3.75 1.75 3.75 3.75-1.5 3.75-3.75 3.75zm22.5-9.75h-25c-1.75 0-3 1.5-3 3v5.75c0 1.75 1.5 3 3 3h25c3.25 0 6-2.75 6-6-.25-3.25-2.75-5.75-6-5.75z"></path></g><g><path fill="#2d508f" d="M38.75 117.25c-2 0-3.75-1.75-3.75-3.75s1.75-3.75 3.75-3.75 3.75 1.75 3.75 3.75-1.75 3.75-3.75 3.75zm.75-48.75c-3.75 0-6.75 3-6.75 6.75V96.5C31.5 94.75 16.5 73 14.5 71c-.75-.75-1.5-1.25-2.5-1.75s-2.5-.75-3.75-.75c-1.5 0-3 .5-4.5 1.25-1.5 1-2.5 2-3 3.5-.5 1.25-.75 3-.75 5v35C0 117 3 120 6.75 120s6.75-3 6.75-6.75V93c.75 1 15.75 22 16.5 22.75.75 1 1.5 1.75 2.25 2.5S34 119.5 35 120c1 .25 2 .5 3.25.5 3 0 7.75-1.25 7.75-9V75.25c.5-3.5-2.5-6.75-6.5-6.75z"></path></g><g><path fill="#2d508f" d="M82.75 143c-2 0-3.75-1.75-3.75-3.75s1.75-3.75 3.75-3.75 3.75 1.75 3.75 3.75S85 143 82.75 143zm0-11C79 132 76 135 76 138.75v21c-1.25-1.75-16.25-23.5-18.25-25.5-.75-.75-1.5-1.25-2.5-1.75s-2.5-.75-3.75-.75c-1.5 0-3 .5-4.5 1.25-1.5 1-2.5 2-3 3.5-.5 1.25-.75 3-.75 5V177c0 3.75 3 6.75 6.75 6.75s6.75-3 6.75-6.75v-20.5c.75 1 15.75 22 16.5 22.75.75 1 1.5 1.75 2.25 2.5s1.75 1.25 2.75 1.75c1 .25 2 .5 3.25.5 3 0 7.75-1.25 7.75-9v-36.25c.25-3.75-2.75-6.75-6.5-6.75z"></path></g><g><path fill="#2d508f" d="M248.25 142.75c-2 0-3.75-1.75-3.75-3.75s1.75-3.75 3.75-3.75S252 137 252 139s-1.75 3.75-3.75 3.75zm0-10.5c-3.75 0-6.75 3-6.75 6.75v37.5c0 3.75 3 6.75 6.75 6.75s6.75-3 6.75-6.75V139c0-3.75-3-6.75-6.75-6.75z"></path></g></g></g></svg> 