<?xml version="1.0" encoding="UTF-8"?> <svg xmlns="http://www.w3.org/2000/svg" width="320" height="67" viewBox="0 0 320 67" fill="none"><path d="M143.333 52.4932V2.29532C143.333 0.798374 145.521 0.648679 146.927 0.598781C146.615 0 146.615 0 146.615 0H135.313C135.313 0 135.313 0 135 0.548882C136.354 0.648679 138.594 0.798374 138.594 2.24542V52.4432C138.594 53.9402 136.406 54.0899 135 54.1397C135.313 54.6886 135.313 54.6886 135.313 54.6886H146.615C146.615 54.6886 146.615 54.6886 146.927 54.1397C145.521 54.1397 143.333 53.9901 143.333 52.4932Z" fill="black"></path><path d="M43.7501 52.4932V2.29532C43.7501 0.798374 45.9375 0.648679 47.3438 0.598781C47.0312 0 47.0312 0 47.0312 0H38.8542L24.7917 45.0084L9.37501 0H0.3125C0.3125 0 0.3125 0 0 0.548882C1.35417 0.648679 3.54166 0.798374 3.59375 2.24542V52.4932C3.59375 53.9901 1.40625 54.1397 0 54.1896C0.3125 54.7385 0.3125 54.7385 0.3125 54.7385H8.90626C8.90626 54.7385 8.90626 54.7385 9.21875 54.1896C7.86459 54.0899 5.62499 53.9402 5.62499 52.4932V3.3432L23.2291 54.7884H23.9062L39.0626 6.1874V52.4932C39.0626 53.9901 36.875 54.1397 35.4688 54.1896C35.7812 54.7385 35.7812 54.7385 35.7812 54.7385H47.0833C47.0833 54.7385 47.0833 54.7385 47.3959 54.1896C45.9375 54.1397 43.7501 53.9901 43.7501 52.4932Z" fill="black"></path><path d="M232.396 52.4932V2.29532C232.396 0.798374 234.583 0.648679 235.99 0.598781C235.678 0 235.678 0 235.678 0H227.5L213.438 45.0084L198.073 0H188.958C188.958 0 188.958 0 188.647 0.548882C190.001 0.648679 192.189 0.798374 192.241 2.24542V52.4932C192.241 53.9901 190.053 54.1397 188.647 54.1896C188.958 54.7385 188.958 54.7385 188.958 54.7385H197.553C197.553 54.7385 197.553 54.7385 197.864 54.1896C196.51 54.0899 194.272 53.9402 194.272 52.4932V3.3432L211.875 54.7884H212.552L227.709 6.1874V52.4932C227.709 53.9901 225.521 54.1397 224.114 54.1896C224.428 54.7385 224.428 54.7385 224.428 54.7385H235.73C235.73 54.7385 235.73 54.7385 236.042 54.1896C234.636 54.1397 232.396 53.9901 232.396 52.4932Z" fill="black"></path><path d="M89.3746 52.5431L73.5411 0H68.5933L70.1559 5.23933L55.4162 52.4932C54.9474 54.04 53.2287 54.1397 51.8224 54.1896C52.135 54.7385 52.135 54.7385 52.135 54.7385H60.8329C60.8329 54.7385 60.8329 54.7385 61.1453 54.1896C59.7912 54.0899 57.1349 53.8903 57.5516 52.4932L63.385 33.7313H78.7495L84.4267 52.5431C84.7911 53.9402 82.187 54.1397 80.8329 54.1896C81.1453 54.7385 81.1453 54.7385 81.1453 54.7385H92.6557C92.6557 54.7385 92.6557 54.7385 92.9683 54.1896C91.562 54.1397 89.8433 54.04 89.3746 52.5431ZM64.01 31.7853L71.1974 8.68233L78.1766 31.7853H64.01Z" fill="black"></path><path d="M125.833 52.5449L116.198 27.3961C121.354 25.3004 125.052 20.2107 125.052 14.2229C125.052 6.38886 118.75 0.0517578 110.99 0.0517578H97.2397C97.2397 0.0517578 97.2397 0.0517578 96.9271 0.600639C98.2813 0.700438 100.521 0.850132 100.521 2.29718V52.495C100.521 53.992 98.3334 54.1415 96.9271 54.1915C97.2397 54.7403 97.2397 54.7403 97.2397 54.7403H108.542C108.542 54.7403 108.542 54.7403 108.854 54.1915C107.5 54.0918 105.261 53.942 105.261 52.495V28.3442C105.261 28.3442 112.031 28.2943 112.5 28.2444L121.823 52.5449C122.24 53.942 119.583 54.0918 118.229 54.1915C118.542 54.7403 118.542 54.7403 118.542 54.7403H129.115C129.115 54.7403 129.115 54.7403 129.427 54.1915C128.073 54.1415 126.458 54.1415 125.833 52.5449ZM105.261 26.4481V1.9479H110.99C116.146 1.9479 120.313 7.43672 120.313 14.173C120.313 20.9591 116.146 26.4481 111.042 26.4481H105.261Z" fill="black"></path><path d="M320 66.9636C320 66.9636 307.188 54.539 299.688 27.3943C304.896 25.3484 308.594 20.2089 308.594 14.1711C308.594 6.33709 302.292 0 294.531 0H280.781C280.781 0 280.781 0 280.47 0.548882C281.824 0.648679 284.062 0.798374 284.062 2.24542V52.4432C284.062 53.9402 281.876 54.0899 280.47 54.1397C280.781 54.6886 280.781 54.6886 280.781 54.6886H292.084C292.084 54.6886 292.084 54.6886 292.396 54.1397C291.042 54.04 288.803 53.8903 288.803 52.4432V28.3423C288.803 28.3423 295.522 28.2924 295.99 28.2425C297.085 31.9848 303.282 51.1458 318.646 66.9137C319.688 66.9637 320 66.9636 320 66.9636ZM288.854 26.4461V1.94603H294.584C299.741 1.94603 303.907 7.43486 303.907 14.1711C303.907 20.9073 299.741 26.3963 294.584 26.3963H288.854V26.4461Z" fill="black"></path><path d="M274.636 0H266.043C266.043 0 266.043 0 265.73 0.548882C267.084 0.648679 269.324 0.798374 269.324 2.24542V40.1682C269.324 46.4055 266.927 51.0461 259.845 51.0461C252.709 51.0461 250.365 46.3556 250.365 40.5673V2.29532C250.365 0.798374 252.552 0.648679 253.959 0.598781C253.699 0 253.699 0 253.699 0H242.397C242.397 0 242.397 0 242.083 0.548882C243.437 0.648679 245.677 0.798374 245.677 2.24542V40.5673C245.677 48.4015 248.803 54.7385 258.491 54.7385C267.188 54.7385 271.303 49.0999 271.303 40.5673V2.29532C271.303 0.798374 273.49 0.648679 274.897 0.598781C274.636 0 274.636 0 274.636 0Z" fill="black"></path><path d="M183.438 35.8271C180.468 49.0999 179.896 52.8923 177.396 52.8923H162.864V28.3423H169.635C171.198 28.3423 171.875 31.935 171.928 33.2822C172.5 32.9828 172.5 32.9828 172.5 32.9828V21.8057C172.5 21.8057 172.5 21.8057 171.928 21.5062C171.823 22.8036 171.146 26.4461 169.635 26.4461H162.864V1.94603H175.729C178.228 1.94603 178.75 4.79025 181.406 16.716L182.343 17.1651L179.271 0H154.896C154.896 0 154.896 0 154.583 0.548882C155.937 0.648679 158.177 0.798374 158.177 2.24542V52.4432C158.177 53.9402 155.989 54.0899 154.583 54.1397C154.896 54.6886 154.896 54.6886 154.896 54.6886H180.989L184.426 35.2782L183.438 35.8271Z" fill="black"></path></svg> 