<?xml version="1.0" encoding="UTF-8"?> <svg xmlns="http://www.w3.org/2000/svg" width="260" height="77" viewBox="0 0 260 77" fill="none"><g clip-path="url(#clip0_2506_12199)"><path d="M63.284 23.5504C59.899 17.6561 54.5855 13.1239 48.2489 10.7261C41.9122 8.32826 34.9445 8.21313 28.5329 10.4003C22.1213 12.5875 16.6625 16.9417 13.0866 22.721C9.51065 28.5003 8.03884 35.3471 8.92192 42.0949C9.80501 48.8428 12.9884 55.074 17.9296 59.7271C22.8708 64.3801 29.2642 67.1671 36.0204 67.613C42.7766 68.059 49.4776 66.1364 54.9817 62.1728C60.4858 58.2092 64.4524 52.4499 66.2058 45.8761C67.2104 42.1453 67.4695 38.2513 66.968 34.4193C66.4665 30.5872 65.2144 26.8931 63.284 23.5504ZM62.3263 44.822C62.0598 45.8043 61.738 46.7706 61.3624 47.7162C61.1909 43.2153 59.3101 38.9515 56.1068 35.8019C52.9036 32.6522 48.6214 30.8562 44.141 30.7831H39.2917V45.7481H43.3227V34.8229H43.7288C46.7114 34.8209 49.6113 35.8083 51.9787 37.6319C54.3461 39.4555 56.0487 42.0134 56.8223 44.9088C57.596 47.8043 57.3975 50.8755 56.2576 53.6459C55.1177 56.4164 53.1002 58.7314 50.518 60.2318C45.6607 63.0593 39.9993 64.1644 34.4423 63.3698C33.431 63.2266 32.429 63.0231 31.4417 62.7605C27.9959 61.8345 24.7848 60.1839 22.0207 57.9178C19.2567 55.6516 17.0026 52.8216 15.4075 49.6148C13.8123 46.4079 12.9125 42.8973 12.7674 39.3148C12.6223 35.7324 13.2353 32.1599 14.5658 28.8333C14.7597 33.3876 16.6971 37.6903 19.973 40.8425C23.2489 43.9947 27.61 45.7523 32.1449 45.7481H36.5699V30.777H28.5078V34.8229H32.5389V41.69C29.5253 41.7791 26.5683 40.8553 24.1359 39.0648C21.7036 37.2743 19.9348 34.7195 19.1097 31.8046C18.2846 28.8898 18.4503 25.7817 19.5805 22.9722C20.7107 20.1627 22.7409 17.8124 25.3497 16.2934C30.2336 13.4423 35.9336 12.3363 41.5224 13.1553C42.5232 13.3015 43.5149 13.5049 44.4926 13.7647C47.6947 14.6266 50.6965 16.1142 53.3264 18.1425C55.9564 20.1709 58.163 22.7002 59.8203 25.5861C61.4775 28.4719 62.5529 31.6576 62.9849 34.9613C63.417 38.265 63.1973 41.6219 62.3384 44.8402L62.3263 44.822Z" fill="#4A2D27"></path><path d="M37.9526 72.3816C29.6657 72.3714 21.668 69.3182 15.4636 63.7963C9.25908 58.2744 5.27533 50.6641 4.26146 42.3967H0.115234C1.12561 51.7741 5.54698 60.4457 12.5302 66.7461C19.5134 73.0464 28.5661 76.5312 37.9496 76.5312C47.333 76.5312 56.3857 73.0464 63.3689 66.7461C70.3521 60.4457 74.7735 51.7741 75.7839 42.3967H71.6377C70.6239 50.6631 66.641 58.2725 60.4378 63.7943C54.2346 69.3161 46.2384 72.3699 37.9526 72.3816Z" fill="#4A2D27"></path><path d="M37.9526 4.13736C46.2388 4.14775 54.2357 7.20112 60.4392 12.7232C66.6427 18.2452 70.6252 25.8553 71.6377 34.1222H75.7839C74.7735 24.7448 70.3521 16.0732 63.3689 9.7729C56.3857 3.47259 47.333 -0.012207 37.9496 -0.012207C28.5661 -0.012207 19.5134 3.47259 12.5302 9.7729C5.54698 16.0732 1.12561 24.7448 0.115234 34.1222H4.26146C5.27408 25.8543 9.25747 18.2433 15.4622 12.7211C21.667 7.19896 29.6653 4.14626 37.9526 4.13736Z" fill="#4A2D27"></path><path d="M0.630421 37.7294H0.0788009C0.0795787 37.4477 0.188102 37.1772 0.381888 36.9738C0.476776 36.8823 0.588987 36.8109 0.711858 36.7638C0.834729 36.7167 0.965756 36.6949 1.09717 36.6996C1.26222 36.6952 1.42544 36.7352 1.56999 36.8154C1.71036 36.8905 1.82614 37.0047 1.90338 37.1444C1.98123 37.2775 2.02303 37.4288 2.02462 37.5831C2.01935 37.7814 1.96742 37.9756 1.87307 38.1498C1.72907 38.4162 1.54506 38.6588 1.32752 38.8688L0.994124 39.2222H2.04887V39.7462H0V39.4721L0.915323 38.5398C1.08415 38.3777 1.23274 38.1956 1.35783 37.9975C1.42335 37.8842 1.46077 37.7567 1.46694 37.6258C1.46874 37.5723 1.45937 37.5189 1.43944 37.4692C1.4195 37.4195 1.38944 37.3746 1.35118 37.3373C1.31293 37.3 1.26733 37.2712 1.21732 37.2526C1.16731 37.2341 1.11399 37.2263 1.0608 37.2297C1.00351 37.2278 0.946522 37.2388 0.894054 37.262C0.841586 37.2852 0.794989 37.32 0.757717 37.3638C0.674335 37.4671 0.629328 37.5963 0.630421 37.7294Z" fill="#4A2D27"></path><path d="M3.35776 36.6995C3.55523 36.6951 3.74948 36.7503 3.91544 36.858C4.08336 36.9793 4.21029 37.1494 4.27914 37.3455C4.44766 37.943 4.44766 38.5759 4.27914 39.1734C4.20977 39.3659 4.08794 39.5348 3.92757 39.6609C3.76426 39.7688 3.57119 39.8221 3.37595 39.8132C3.17816 39.8258 2.9817 39.7731 2.81647 39.6631C2.65124 39.5531 2.52629 39.3918 2.46062 39.2039C2.36371 38.9136 2.32056 38.608 2.33333 38.3021C2.29954 37.8902 2.38591 37.4773 2.58186 37.1139C2.66456 36.9833 2.77949 36.8765 2.91548 36.8039C3.05146 36.7313 3.20384 36.6953 3.35776 36.6995ZM3.35776 37.2358C3.26673 37.2355 3.17859 37.2679 3.10923 37.3272C3.02221 37.4132 2.96305 37.5236 2.9395 37.644C2.89468 37.8604 2.87434 38.0811 2.87889 38.3021C2.85979 38.5691 2.90556 38.8367 3.01224 39.082C3.0462 39.1449 3.09599 39.1977 3.15663 39.2351C3.21727 39.2725 3.28663 39.2933 3.35776 39.2953C3.42634 39.2959 3.49366 39.2767 3.5517 39.24C3.60973 39.2033 3.65604 39.1506 3.6851 39.0881C3.80066 38.8303 3.85066 38.5476 3.83058 38.2655C3.85171 37.9911 3.80809 37.7155 3.70328 37.4612C3.66975 37.4016 3.62141 37.3517 3.56298 37.3165C3.50454 37.2812 3.43801 37.2618 3.36988 37.2601L3.35776 37.2358Z" fill="#4A2D27"></path><path d="M73.2382 36.6996C73.4355 36.6959 73.6296 36.7511 73.7958 36.858C73.9602 36.9816 74.0846 37.1512 74.1535 37.3455C74.33 37.9419 74.33 38.5771 74.1535 39.1735C74.0882 39.3664 73.9681 39.5359 73.808 39.6609C73.6424 39.769 73.4474 39.8222 73.2503 39.8133C73.0527 39.8184 72.8583 39.7632 72.6926 39.6548C72.5291 39.5383 72.4044 39.3747 72.335 39.1856C72.2381 38.8954 72.1949 38.5897 72.2077 38.2838C72.1754 37.8713 72.2639 37.4583 72.4623 37.0957C72.5467 36.9681 72.6625 36.8645 72.7984 36.7952C72.9344 36.7258 73.0859 36.6928 73.2382 36.6996ZM73.2382 37.2358C73.1453 37.2357 73.0553 37.268 72.9836 37.3272C72.8988 37.414 72.8418 37.5244 72.8199 37.6441C72.772 37.8599 72.7517 38.0811 72.7593 38.3021C72.7371 38.5693 72.783 38.8377 72.8926 39.0821C72.9266 39.1449 72.9764 39.1977 73.037 39.2351C73.0977 39.2726 73.167 39.2933 73.2382 39.2953C73.3064 39.2945 73.3732 39.2748 73.4309 39.2382C73.4887 39.2016 73.5353 39.1497 73.5655 39.0882C73.6811 38.8303 73.7311 38.5476 73.711 38.2656C73.7339 37.9905 73.688 37.714 73.5776 37.4613C73.5446 37.3999 73.4955 37.3487 73.4357 37.3133C73.3759 37.2779 73.3076 37.2595 73.2382 37.2602V37.2358Z" fill="#4A2D27"></path><path d="M75.0556 36.7727H75.8982V39.7462H75.3405V37.3089H74.7344L75.0556 36.7727Z" fill="#4A2D27"></path><path d="M84.543 8.87793H91.6655L96.2724 43.8958H96.3997L101.019 8.87793H107.499L100.698 54.0228H91.3442L84.543 8.87793Z" fill="#4A2D27"></path><path d="M120.986 8.87793H130.546L137.862 54.0228H130.825L129.54 45.0596V45.1815H121.502L120.217 54.0167H113.67L120.986 8.87793ZM128.685 39.0882L125.545 16.7748H125.412L122.338 39.0882H128.685Z" fill="#4A2D27"></path><path d="M150.222 15.3246H142.869V8.87793H164.691V15.3246H157.302V54.0228H150.222V15.3246Z" fill="#4A2D27"></path><path d="M175.911 51.7317C174.141 49.7778 173.256 46.9728 173.256 43.3169V40.7394H179.924V43.8348C179.924 46.7596 181.136 48.2199 183.561 48.2159C184.065 48.2517 184.571 48.1752 185.042 47.9919C185.514 47.8087 185.939 47.5231 186.289 47.1556C186.895 46.4427 187.216 45.2972 187.216 43.7069C187.253 41.9531 186.811 40.2228 185.937 38.7043C185.08 37.2663 183.498 35.5358 181.191 33.5129C178.277 30.9334 176.244 28.6017 175.093 26.5178C173.916 24.3521 173.319 21.9168 173.359 19.4496C173.359 15.8871 174.258 13.1249 176.056 11.1628C177.855 9.20081 180.463 8.22386 183.882 8.23198C187.26 8.23198 189.817 9.20893 191.55 11.1628C193.284 13.1167 194.167 15.9257 194.199 19.5898V21.4604H187.531V19.1389C187.531 17.5912 187.228 16.4579 186.634 15.7511C186.304 15.3853 185.896 15.0994 185.44 14.9147C184.985 14.73 184.493 14.6514 184.003 14.6847C181.643 14.6847 180.465 16.1248 180.469 19.0048C180.467 20.6275 180.926 22.217 181.791 23.587C182.66 24.9843 184.26 26.6986 186.592 28.7297C189.546 31.3091 191.578 33.653 192.69 35.7613C193.845 38.0572 194.418 40.6046 194.357 43.1767C194.357 46.8774 193.448 49.7209 191.629 51.7073C189.81 53.6937 187.17 54.6828 183.706 54.6747C180.263 54.6706 177.665 53.6896 175.911 51.7317Z" fill="#4A2D27"></path><path d="M210.045 8.87793H219.604L226.921 54.0228H219.865L218.58 45.0596V45.1815H210.56L209.275 54.0167H202.734L210.045 8.87793ZM217.749 39.0882L214.603 16.7748H214.476L211.397 39.0882H217.749Z" fill="#4A2D27"></path><path d="M236.734 8.87793H243.796V27.9011L252.78 8.87793H259.836L251.452 25.4516L259.939 54.0228H252.586L246.621 33.9151L243.796 39.6549V54.035H236.734V8.87793Z" fill="#4A2D27"></path><path d="M91.3438 61.9865H92.744V64.0704L94.6777 61.9683H96.3871L93.9018 64.7041L96.4235 67.5862H94.5625L92.8956 65.5998L92.744 65.7765V67.6045H91.3438V61.9865Z" fill="#4A2D27"></path><path d="M103.832 61.8403C104.354 61.8392 104.866 61.9781 105.317 62.2425C105.77 62.4956 106.145 62.8686 106.402 63.321C106.662 63.7663 106.798 64.2734 106.796 64.7895C106.797 65.3113 106.661 65.8241 106.402 66.2762C106.148 66.7283 105.777 67.103 105.329 67.3608C104.872 67.6188 104.356 67.7532 103.832 67.7508C103.45 67.757 103.071 67.6839 102.718 67.536C102.366 67.3882 102.047 67.1688 101.783 66.8916C101.374 66.4794 101.096 65.9552 100.982 65.3846C100.867 64.814 100.923 64.2223 101.142 63.6834C101.36 63.1445 101.732 62.6822 102.211 62.3545C102.689 62.0267 103.253 61.8478 103.832 61.8403ZM103.832 63.1687C103.629 63.1636 103.428 63.2016 103.241 63.2804C103.054 63.3592 102.885 63.4768 102.747 63.6257C102.601 63.7819 102.487 63.9658 102.412 64.1666C102.337 64.3675 102.302 64.5812 102.31 64.7956C102.293 65.2331 102.447 65.6601 102.741 65.9838C102.88 66.1337 103.049 66.252 103.237 66.3308C103.425 66.4096 103.628 66.4471 103.832 66.4408C104.036 66.4448 104.238 66.4057 104.426 66.3259C104.614 66.2461 104.784 66.1274 104.923 65.9777C105.2 65.6479 105.352 65.2302 105.352 64.7986C105.352 64.367 105.2 63.9494 104.923 63.6196C104.784 63.4752 104.617 63.3607 104.433 63.2832C104.248 63.2057 104.05 63.1667 103.85 63.1687H103.832Z" fill="#4A2D27"></path><path d="M113.542 64.0095H115.669V61.9866H117.07V67.6045H115.669V65.2891H113.572V67.6167H112.172V61.9988H113.572L113.542 64.0095Z" fill="#4A2D27"></path><path d="M123.393 67.6045V68.5795H122.145V66.4103H122.987L124.915 61.9866H125.818L127.776 66.4103H128.631V68.5795H127.297V67.6045H123.393ZM126.285 66.3859L125.369 64.0705L124.418 66.4408L126.285 66.3859Z" fill="#4A2D27"></path><path d="M134.462 67.6045H133.717V61.9866H135.069V65.2891L137.93 61.9927H138.603V67.6106H137.239V64.3751L134.462 67.6045Z" fill="#4A2D27"></path><path d="M143.748 61.9866H148.955V63.3271H147.1V67.5924H145.694V63.3271H143.748V61.9866Z" fill="#4A2D27"></path><path d="M159.684 65.2038H155.18C155.229 65.575 155.415 65.9141 155.701 66.1543C156.006 66.3992 156.39 66.5247 156.78 66.5077C157.03 66.5118 157.279 66.4654 157.511 66.3712C157.743 66.277 157.954 66.1369 158.132 65.9594L159.314 66.5077C159.045 66.9043 158.68 67.2252 158.253 67.44C157.796 67.6528 157.296 67.7571 156.792 67.7447C156.398 67.7597 156.004 67.6934 155.636 67.5498C155.268 67.4063 154.933 67.1885 154.652 66.9099C154.38 66.6366 154.166 66.3103 154.023 65.9509C153.88 65.5916 153.812 65.2067 153.822 64.8199C153.809 64.427 153.876 64.0355 154.017 63.669C154.159 63.3025 154.373 62.9686 154.646 62.6873C154.913 62.4086 155.234 62.1888 155.59 62.042C155.946 61.8951 156.329 61.8243 156.713 61.8342C157.11 61.8196 157.506 61.8879 157.875 62.0347C158.244 62.1815 158.58 62.4037 158.859 62.6873C159.141 62.9854 159.36 63.3377 159.502 63.723C159.645 64.1084 159.709 64.5188 159.69 64.9296L159.684 65.2038ZM158.283 64.0704C158.191 63.759 157.997 63.4883 157.732 63.3027C157.455 63.1065 157.124 63.004 156.786 63.0102C156.416 63.0031 156.054 63.1188 155.756 63.3392C155.526 63.5362 155.349 63.7875 155.24 64.0704H158.283Z" fill="#4A2D27"></path><path d="M166.419 61.9866V62.5959C166.655 62.3535 166.935 62.159 167.244 62.0232C167.542 61.8927 167.864 61.8262 168.189 61.8282C168.541 61.8253 168.889 61.8983 169.21 62.0423C169.531 62.1864 169.818 62.398 170.05 62.663C170.568 63.2487 170.842 64.0125 170.814 64.7956C170.836 65.5724 170.55 66.3261 170.02 66.8917C169.786 67.1592 169.498 67.3732 169.175 67.5193C168.852 67.6654 168.501 67.7402 168.147 67.7386C167.839 67.7401 167.534 67.68 167.25 67.562C166.941 67.4287 166.659 67.2385 166.419 67.0014V69.6458H165.031V61.9866H166.419ZM167.898 63.1444C167.694 63.1389 167.49 63.1762 167.3 63.2538C167.11 63.3314 166.938 63.4476 166.795 63.5952C166.648 63.7545 166.534 63.9415 166.459 64.1454C166.384 64.3494 166.35 64.5662 166.359 64.7834C166.348 65.0055 166.381 65.2275 166.456 65.4367C166.531 65.6459 166.646 65.838 166.795 66.0021C166.936 66.1537 167.107 66.2735 167.297 66.3533C167.487 66.4332 167.692 66.4713 167.898 66.4652C168.101 66.4682 168.302 66.428 168.488 66.3471C168.674 66.2663 168.841 66.1466 168.977 65.996C169.278 65.6639 169.435 65.2256 169.414 64.7773C169.424 64.5615 169.39 64.3458 169.317 64.1429C169.243 63.94 169.129 63.7539 168.984 63.5952C168.845 63.4463 168.677 63.3289 168.49 63.2511C168.303 63.1733 168.101 63.1369 167.898 63.1444Z" fill="#4A2D27"></path><path d="M181.652 63.12L180.489 63.7659C180.305 63.5642 180.082 63.4025 179.834 63.2906C179.595 63.195 179.339 63.1494 179.082 63.1565C178.85 63.1448 178.617 63.1802 178.398 63.2609C178.18 63.3415 177.979 63.4655 177.809 63.6257C177.648 63.7836 177.522 63.9736 177.439 64.1835C177.355 64.3934 177.316 64.6185 177.324 64.8444C177.317 65.0613 177.354 65.2775 177.434 65.479C177.515 65.6805 177.636 65.8629 177.791 66.0143C178.119 66.3216 178.555 66.4859 179.003 66.4713C179.281 66.4833 179.557 66.4313 179.811 66.3194C180.066 66.2074 180.291 66.0384 180.47 65.8254L181.574 66.587C181.277 66.9308 180.916 67.2116 180.51 67.4132C180.105 67.6147 179.663 67.7328 179.211 67.7606C178.76 67.7884 178.307 67.7253 177.88 67.5751C177.453 67.4248 177.06 67.1904 176.724 66.8856C176.405 66.562 176.165 66.1677 176.024 65.7341C175.883 65.3006 175.846 64.8399 175.914 64.3891C175.982 63.9383 176.155 63.5098 176.418 63.1381C176.681 62.7664 177.026 62.4618 177.427 62.2487C177.927 61.9816 178.486 61.8454 179.052 61.8526C179.568 61.8458 180.079 61.9606 180.543 62.1877C180.988 62.3955 181.37 62.717 181.652 63.12Z" fill="#4A2D27"></path><path d="M188.519 64.0095H188.938C189.392 63.9955 189.847 64.0427 190.289 64.1497C190.61 64.2439 190.889 64.4435 191.084 64.7164C191.31 65.0334 191.425 65.4171 191.411 65.807C191.428 66.191 191.324 66.5705 191.114 66.8916C190.938 67.1631 190.675 67.3654 190.368 67.4644C189.952 67.5703 189.524 67.6175 189.095 67.6045H187.119V61.9866H188.519V64.0095ZM188.519 66.5199H188.95C189.135 66.5276 189.321 66.5091 189.501 66.4651C189.619 66.428 189.723 66.3558 189.798 66.2579C189.888 66.1531 189.936 66.0184 189.932 65.8802C189.932 65.3988 189.653 65.1551 189.107 65.1551H188.501L188.519 66.5199Z" fill="#4A2D27"></path><path d="M196.697 61.9865H198.11V64.0704L200.043 61.9683H201.747L199.255 64.7041L201.777 67.5862H199.928L198.261 65.5998L198.11 65.7765V67.6045H196.709L196.697 61.9865Z" fill="#4A2D27"></path><path d="M207.292 67.6045H206.553V61.9866H207.917V65.2891L210.778 61.9927H211.445V67.6106H210.081V64.3751L207.292 67.6045Z" fill="#4A2D27"></path><path d="M217.816 67.6045H217.07V61.9865H218.44V65.2891L221.301 61.9926H221.974V67.6106H220.604V64.3751L217.816 67.6045ZM217.47 59.5066H218.604C218.692 59.6474 218.821 59.7579 218.974 59.8234C219.166 59.9036 219.372 59.941 219.58 59.9331C219.789 59.9327 219.995 59.8891 220.186 59.8052C220.32 59.7402 220.432 59.6362 220.507 59.5066H221.647C221.62 59.7139 221.553 59.9138 221.449 60.0948C221.345 60.2757 221.206 60.4341 221.041 60.5607C220.606 60.851 220.089 60.9901 219.568 60.9568C219.204 60.9695 218.841 60.9095 218.501 60.7801C218.231 60.6742 217.993 60.5 217.81 60.2743C217.629 60.0544 217.512 59.7889 217.47 59.5066Z" fill="#4A2D27"></path><path d="M235.473 67.6045V68.5795H234.225V66.4103H235.085L237.019 61.9866H237.922L239.874 66.4103H240.735V68.5795H239.395V67.6045H235.473ZM238.371 66.3859L237.449 64.0705L236.504 66.4408L238.371 66.3859Z" fill="#4A2D27"></path><path d="M246.355 59.6712C246.474 59.6704 246.592 59.6937 246.701 59.7398C246.81 59.7859 246.909 59.8537 246.992 59.9393C247.077 60.0247 247.144 60.1264 247.188 60.2385C247.233 60.3505 247.255 60.4705 247.253 60.5912C247.255 60.711 247.233 60.8301 247.188 60.9411C247.143 61.0522 247.077 61.1529 246.992 61.2371C246.913 61.3193 246.819 61.3848 246.715 61.4298C246.611 61.4748 246.499 61.4984 246.386 61.4991C246.267 61.5003 246.149 61.4771 246.04 61.431C245.931 61.3849 245.832 61.3169 245.749 61.231C245.663 61.1448 245.595 61.0421 245.55 60.9291C245.504 60.8161 245.481 60.695 245.482 60.573C245.482 60.4548 245.504 60.3377 245.549 60.2283C245.593 60.119 245.659 60.0195 245.741 59.9357C245.824 59.8518 245.923 59.7853 246.031 59.7399C246.14 59.6945 246.256 59.6712 246.374 59.6712H246.355ZM245.658 61.9866H247.059V67.6046H245.658V61.9866Z" fill="#4A2D27"></path><path d="M255.958 65.5328L257.673 61.9866H258.601L260.001 67.6045H258.631L257.879 64.3081L256.218 67.6045H255.642L254.012 64.3081L253.272 67.6045H251.902L253.303 61.9866H254.23L255.958 65.5328Z" fill="#4A2D27"></path></g><defs><clipPath id="clip0_2506_12199"><rect width="260" height="76.519" fill="white"></rect></clipPath></defs></svg> 