<?xml version="1.0" encoding="UTF-8"?> <svg xmlns="http://www.w3.org/2000/svg" width="35" height="40" viewBox="0 0 35 40" fill="none"><path fill-rule="evenodd" clip-rule="evenodd" d="M7.7514 39.599H1.68896V24.2234H7.7514V39.599ZM6.28799 25.6868H3.15238V38.1355H6.28799V25.6868Z" fill="#2FC5F1"></path><path fill-rule="evenodd" clip-rule="evenodd" d="M16.3944 39.5991H10.332V20.5063H16.3944V39.5991ZM14.9311 21.9698H11.7955V38.1356H14.9311V21.9698Z" fill="#2FC5F1"></path><path fill-rule="evenodd" clip-rule="evenodd" d="M25.037 39.5991H18.9746V15.2177H25.037V39.5991ZM23.5736 16.681H20.438V38.1357H23.5736V16.681Z" fill="#2FC5F1"></path><path fill-rule="evenodd" clip-rule="evenodd" d="M27.6177 39.599V10.3112H33.6801V39.599H27.6177ZM29.0801 38.1356H32.2157V11.7746H29.0801V38.1356Z" fill="#2FC5F1"></path><path d="M29.9414 5.82149L31.317 6.321L32.8965 1.98149L28.5561 0.401001L28.0556 1.77563L30.0429 2.50051L0.467285 16.2917L1.08485 17.6186L30.6693 3.82246L29.9414 5.82149Z" fill="#2FC5F1"></path></svg> 