<?xml version="1.0" encoding="UTF-8"?> <svg xmlns="http://www.w3.org/2000/svg" width="50" height="40" viewBox="0 0 50 40" fill="none"><path fill-rule="evenodd" clip-rule="evenodd" d="M7.0805 9.87574C6.47542 9.87574 6 9.40032 6 8.79525C6 8.19017 6.47542 7.71475 7.0805 7.67153H40.9649L35.1302 1.83684C34.698 1.44787 34.698 0.756348 35.1302 0.324149C35.5192 -0.10805 36.2107 -0.10805 36.6429 0.324149L44.336 8.01729C44.5089 8.23339 44.6386 8.49271 44.6386 8.79525C44.6386 9.09778 44.5521 9.3571 44.336 9.5732L36.6861 17.2663C36.47 17.4824 36.2107 17.5689 35.9082 17.5689C35.6056 17.5689 35.3463 17.4824 35.1302 17.2663C34.698 16.8774 34.698 16.1858 35.1302 15.7536L41.0081 9.87574H7.0805ZM9.67369 30.1891L15.5084 24.3112C15.9406 23.9222 15.9406 23.2307 15.5084 22.7985C15.1194 22.3663 14.4279 22.3663 13.9957 22.7985L6.30254 30.4916C6.12966 30.7077 6 30.967 6 31.2696C6 31.5721 6.08644 31.8314 6.30254 32.0475L13.9525 39.6974C14.1686 39.9135 14.4279 40 14.7304 40C15.033 40 15.2923 39.9135 15.5084 39.6974C15.9406 39.3085 15.9406 38.6169 15.5084 38.1847L9.67369 32.3501H43.6013C44.2064 32.3501 44.6818 31.8746 44.6818 31.2696C44.6818 30.6645 44.2064 30.1891 43.6013 30.1891H9.67369Z" fill="#67C22F"></path></svg> 