<?xml version="1.0" encoding="UTF-8"?> <svg xmlns="http://www.w3.org/2000/svg" width="37" height="40" viewBox="0 0 37 40" fill="none"><path fill-rule="evenodd" clip-rule="evenodd" d="M18.6009 0.61541L35.7586 8.82054C36.1091 8.99018 36.3328 9.34909 36.3339 9.74362C36.3339 32.6154 19.9332 39.4872 18.1669 39.4872C16.4007 39.4872 0 32.6154 0 9.74362C0.001099 9.34909 0.224782 8.99018 0.575286 8.82054L17.733 0.61541C18.0075 0.482526 18.3264 0.482526 18.6009 0.61541ZM2.01855 10.3898C2.33142 32.3077 18.0862 37.4359 18.2376 37.4359C18.2381 37.4354 18.2477 37.432 18.266 37.4254C19.0071 37.1597 34.01 31.7799 34.3153 10.3898L18.1669 2.67695L2.01855 10.3898Z" fill="#67C22F"></path><path d="M13.8374 18.2462C13.4417 17.844 12.8 17.844 12.4042 18.2462C12.0085 18.6483 12.0085 19.3004 12.4042 19.7026L16.4413 23.8051C16.6347 23.9926 16.8907 24.0988 17.1579 24.1026C17.4372 24.0936 17.7003 23.9673 17.8846 23.7539L24.9495 15.5487C25.2884 15.1211 25.2359 14.4981 24.8303 14.1354C24.4246 13.7727 23.8099 13.7989 23.4356 14.1949L17.1579 21.5385L13.8374 18.2462Z" fill="#67C22F"></path></svg> 