<?xml version="1.0" encoding="UTF-8"?> <svg xmlns="http://www.w3.org/2000/svg" width="50" height="40" viewBox="0 0 50 40" fill="none"><path d="M44.758 18.7675L35.878 11.432C35.6787 11.2673 35.4027 11.2326 35.1693 11.3426C34.936 11.4526 34.7867 11.6881 34.7867 11.9461V16.0027C32.4893 16.1761 30.2893 16.9056 28.3333 18.1393V10.2049H32.3333C32.5913 10.2049 32.8267 10.0556 32.9367 9.82216C33.0467 9.58809 33.012 9.31201 32.8473 9.11328L25.514 0.229947C25.2607 -0.0768117 24.7393 -0.0768117 24.486 0.229947L17.1527 9.11261C16.988 9.31134 16.9533 9.58742 17.0633 9.82149C17.1733 10.0549 17.4087 10.2043 17.6667 10.2043H21.6667V25.1214C19.7753 23.8317 17.5827 22.9534 15.2133 22.6413V18.5088C15.2133 18.2507 15.064 18.0153 14.8307 17.9053C14.5973 17.7959 14.3213 17.8306 14.122 17.9946L5.242 25.3295C5.08867 25.4562 5 25.6449 5 25.8436C5 26.0424 5.08867 26.2311 5.242 26.3578L14.122 33.6933C14.3207 33.8574 14.5967 33.8914 14.8307 33.7827C15.064 33.6726 15.2133 33.4372 15.2133 33.1792V29.422C18.942 30.3216 21.6667 33.7107 21.6667 37.6032V39.333C21.6667 39.7011 21.9653 39.9999 22.3333 39.9999H27.6667C28.0347 39.9999 28.3333 39.7011 28.3333 39.333V30.1429C28.3333 26.3671 31.116 23.2242 34.7867 22.7027V26.6172C34.7867 26.8753 34.936 27.1107 35.1693 27.2207C35.404 27.3307 35.6787 27.2967 35.878 27.1313L44.758 19.7958C44.9113 19.6691 45 19.4804 45 19.2817C45 19.0829 44.9113 18.8942 44.758 18.7675ZM27 38.6661H23V37.6032C23 32.7917 19.4067 28.6445 14.642 27.9556C14.448 27.9283 14.256 27.9843 14.11 28.1116C13.964 28.2383 13.88 28.4224 13.88 28.6158V31.7641L6.71333 25.8443L13.88 19.9245V23.2388C13.88 23.5843 14.1433 23.8724 14.4867 23.903C21.5033 24.5346 27 30.5524 27 37.6038V38.6668V38.6661ZM36.12 25.2014V21.9698C36.12 21.7871 36.0453 21.6124 35.9127 21.487C35.7807 21.361 35.6067 21.2989 35.42 21.3036C30.698 21.5363 26.9993 25.4188 26.9993 30.1429V31.488C26.0727 29.432 24.7 27.6102 22.9993 26.1524V9.53741C22.9993 9.1693 22.7007 8.87054 22.3327 8.87054H19.0813L24.9993 1.70172L30.9173 8.87054H27.666C27.298 8.87054 26.9993 9.1693 26.9993 9.53741V19.4144C26.9993 19.6678 27.1433 19.8998 27.3707 20.0119C27.5987 20.1246 27.8693 20.0979 28.0707 19.9439C30.2293 18.2947 32.7893 17.3811 35.4727 17.3011C35.8333 17.2904 36.1193 16.995 36.1193 16.6342V13.3606L43.286 19.2803L36.1193 25.2001L36.12 25.2014Z" fill="#2FC5F1"></path></svg> 