<?xml version="1.0" encoding="UTF-8"?> <svg xmlns="http://www.w3.org/2000/svg" width="141" height="141" viewBox="0 0 141 141" fill="none"><path d="M0 53.9766C0 60.7567 3.32874 66.7321 8.39083 70.5C3.32874 74.2679 0 80.2433 0 87.0234C0 95.3375 5.05962 102.764 12.4798 105.979C11.2772 118.17 21.9581 129.845 35.0273 128.523C38.2431 135.941 45.6712 141 53.9869 141C58.6592 141 62.9173 139.364 66.3818 136.739V91.171H57.9068V103.691C57.9068 105.919 56.1006 107.725 53.8726 107.725C51.6446 107.725 49.8385 105.919 49.8385 103.691V91.171H37.3158C35.0878 91.171 33.2817 89.3652 33.2817 87.1377C33.2817 84.9101 35.0878 83.1043 37.3158 83.1043H49.8385V58.0638H37.3158C35.0878 58.0638 33.2817 56.258 33.2817 54.0304C33.2817 51.8028 35.0878 49.997 37.3158 49.997H49.8385V37.4768C49.8385 35.2492 51.6446 33.4434 53.8726 33.4434C56.1006 33.4434 57.9068 35.2492 57.9068 37.4768V49.997H66.3818V4.26084C62.9173 1.63637 58.6592 0 53.9869 0C45.6712 0 38.2431 5.05865 35.0273 12.4774C21.9184 11.1723 11.2819 22.8715 12.4798 35.0206C5.05962 38.2358 0 45.6625 0 53.9766Z" fill="url(#paint0_linear_3002_13288)"></path><path d="M74.6182 49.997H82.9521V37.4768C82.9521 35.2492 84.7582 33.4434 86.9862 33.4434C89.2142 33.4434 91.0204 35.2492 91.0204 37.4768V49.997H103.543C105.771 49.997 107.577 51.8028 107.577 54.0304C107.577 56.258 105.771 58.0638 103.543 58.0638H91.0204V83.1043H103.543C105.771 83.1043 107.577 84.9101 107.577 87.1377C107.577 89.3652 105.771 91.171 103.543 91.171H91.0204V103.691C91.0204 105.919 89.2142 107.725 86.9862 107.725C84.7582 107.725 82.9521 105.919 82.9521 103.691V91.171H74.6182V136.739C78.0827 139.364 82.3408 141 87.0131 141C95.3288 141 102.757 135.941 105.973 128.523C119.042 129.845 129.723 118.17 128.52 105.979C135.94 102.764 141 95.3375 141 87.0234C141 80.2433 137.671 74.2679 132.609 70.5C137.671 66.7321 141 60.7567 141 53.9766C141 45.6625 135.94 38.2358 128.52 35.0206C129.718 22.8715 119.082 11.1723 105.973 12.4774C102.757 5.05865 95.3288 0 87.0131 0C82.3408 0 78.0827 1.63637 74.6182 4.26084V49.997Z" fill="url(#paint1_linear_3002_13288)"></path><path d="M82.9521 83.1043V58.0638H57.9068V83.1043H82.9521Z" fill="url(#paint2_linear_3002_13288)"></path><defs><linearGradient id="paint0_linear_3002_13288" x1="109.09" y1="19.9988" x2="26.3112" y2="124.535" gradientUnits="userSpaceOnUse"><stop stop-color="#98D428"></stop><stop offset="1" stop-color="#30AD37"></stop></linearGradient><linearGradient id="paint1_linear_3002_13288" x1="109.09" y1="19.9988" x2="26.3112" y2="124.535" gradientUnits="userSpaceOnUse"><stop stop-color="#98D428"></stop><stop offset="1" stop-color="#30AD37"></stop></linearGradient><linearGradient id="paint2_linear_3002_13288" x1="109.09" y1="19.9988" x2="26.3112" y2="124.535" gradientUnits="userSpaceOnUse"><stop stop-color="#98D428"></stop><stop offset="1" stop-color="#30AD37"></stop></linearGradient></defs></svg> 