<svg width="50" height="70" viewBox="0 0 50 70" fill="none" xmlns="http://www.w3.org/2000/svg">
<g clip-path="url(#clip0_198_984)">
<path d="M32.5375 12.074V0H6.3347C2.93961 0 0.125 3.03721 0.125 6.72219V63.2778C0.125 66.9633 2.93961 70 6.3347 70H43.7283C47.1229 70 49.9373 66.9628 49.9373 63.2778V19.8146H39.6847C35.7274 19.8146 32.5373 16.3518 32.5373 12.0739L32.5375 12.074ZM14.0453 34.6479L24.0421 23.0001C24.298 22.7038 24.6561 22.5371 25.0483 22.5371C25.4409 22.5371 25.7818 22.7038 26.0548 23.0001L36.0517 34.6479C36.5633 35.2408 36.5294 36.1849 35.9833 36.7408C35.7275 36.9999 35.3861 37.1297 35.0623 37.1297C34.7037 37.1297 34.3288 36.963 34.0557 36.6666L26.3963 27.7778V48.9441C26.3963 49.7591 25.7823 50.4256 25.0315 50.4256C24.2808 50.4256 23.6668 49.7591 23.6668 48.9441V27.778L16.0412 36.6667C15.5295 37.259 14.6593 37.2965 14.1137 36.741C13.5676 36.1851 13.5337 35.2594 14.0453 34.6479ZM40.4357 58.7035C40.4357 59.5183 39.8216 60.185 39.0708 60.185H10.9916C10.241 60.185 9.62689 59.5185 9.62689 58.7035C9.62689 57.8886 10.2409 57.222 10.9916 57.222H39.0881C39.8389 57.222 40.4357 57.889 40.4357 58.7035Z" fill="#151515"/>
<path d="M39.6841 16.8523H48.0598L35.2656 2.27832V12.0746C35.2656 14.7229 37.2273 16.8523 39.6841 16.8523Z" fill="#151515"/>
</g>
<defs>
<clipPath id="clip0_198_984">
<rect width="50" height="70" fill="white"/>
</clipPath>
</defs>
</svg>
