<svg width="232" height="1067" viewBox="0 0 232 1067" fill="none" xmlns="http://www.w3.org/2000/svg">
<g clip-path="url(#clip0_348_3133)">
<path d="M501 0L313.847 399.367H188.44L1.47866 0H501ZM501 0L314.135 398.752V667.044L500.809 1066M501 0L500.809 1066M500.809 1066H1.09573M500.809 1066L313.656 666.635H188.249L1.09573 1066M443.562 122.472H58.7255M407.567 199.274H94.7202M382.964 251.908H119.323M365.063 290.205H137.224M351.374 319.287H150.914M340.651 342.226H161.636M332.036 360.658H170.252M324.856 375.813H177.431M318.921 388.511H183.367M200.981 399.367L51.2585 0M213.521 399.367L101.23 0M226.062 399.367L151.201 0M238.603 399.367L201.173 0M251.144 399.367V0M263.684 399.367L301.115 0M276.225 399.367L351.086 0M288.766 399.367L401.058 0M301.307 399.367L451.029 0M1.09573 1066L187.675 667.248V398.958L1.57438 0H1L1.09573 1066ZM58.2469 121.448V944.757M94.1458 198.454V867.955M118.748 251.09V815.116M136.65 289.593V776.819M150.244 318.675V747.531M160.966 341.612V724.594M169.581 360.044V706.162M176.666 375.404V691.005M182.601 388.102V678.104M187.675 640.419L1 960.732M187.675 613.59L1 853.824M187.675 586.761L1 746.918M187.675 559.933L1 640.01M187.675 533.102H1M187.675 506.273L1 426.196M187.675 479.444L1 319.287M187.675 452.615L1 212.381M187.675 425.786L1 105.474M58.534 943.528H443.371M94.5287 866.728H407.376M119.132 814.092H382.773M137.033 775.795H364.872M150.722 746.712H351.183M161.445 723.979H340.46M170.06 705.547H331.845M177.24 690.187H324.761M183.175 677.489H318.73M301.115 666.635L450.838 1066M288.575 666.635L400.867 1066M276.034 666.635L350.895 1066M263.493 666.635L300.923 1066M250.953 666.635V1066M238.412 666.635L200.981 1066M225.871 666.635L151.01 1066M213.33 666.635L101.038 1066M200.79 666.635L51.067 1066M443.562 944.552V121.243M407.664 867.546V198.25M383.061 814.912V250.884M365.159 776.613V289.181M351.565 747.327V318.469M340.844 724.388V341.406M332.227 705.956V359.84M325.144 690.596V375.201M319.208 677.898V387.896M314.135 425.581L500.809 105.269M314.135 452.41L500.809 212.176M314.135 479.241L500.809 319.084M314.135 506.069L500.809 425.99M314.135 532.898H500.809M314.135 559.727L500.809 639.804M314.135 586.556L500.809 746.712M314.135 613.385L500.809 853.621M314.135 640.216L500.809 960.527" stroke="#343538" stroke-linecap="round" stroke-linejoin="round"/>
</g>
<defs>
<clipPath id="clip0_348_3133">
<rect width="503" height="1067" fill="white"/>
</clipPath>
</defs>
</svg>
