<?xml version="1.0" encoding="UTF-8"?> <svg xmlns="http://www.w3.org/2000/svg" width="90" height="100" viewBox="0 0 90 100" fill="none"><g clip-path="url(#clip0_603_347)"><path d="M35.1349 0.371872L53.4769 16.6779L22.216 2.68806M17.3487 8.82131L53.4772 16.6964M17.3487 8.82131C17.4413 16.6964 33.6731 26.6096 53.6253 30.9271L53.4772 16.6964M17.3487 8.82131C17.4413 16.6964 33.6731 26.5912 53.6439 30.9271M17.3487 8.82131C17.2747 0.927718 33.3955 -1.96281 53.3476 2.37312M53.4772 16.6964L53.3476 2.37312M53.6439 30.9271L53.4958 16.6965L89.6428 24.4789M53.6439 30.9271C73.596 35.2446 89.7169 32.3539 89.6428 24.4789M53.6439 30.9271C73.6144 35.263 89.7353 32.3725 89.6428 24.4789M53.3476 2.37312C73.2997 6.69049 89.5503 16.5853 89.6428 24.4789M53.3476 2.37312L53.4956 16.6779L89.6428 24.4603C89.5503 16.5853 73.3183 6.69049 53.3476 2.37312ZM22.3646 17.0855L53.4774 16.6778L35.376 25.0162M71.856 32.9284L53.4771 16.6779M53.4771 16.6779L84.7749 30.6121M53.4771 16.6779L84.6269 16.1962M53.4771 16.6779L71.6155 8.26547M53.3476 2.42867L36.3197 69.1907M53.3476 2.42867C33.3955 -1.88872 17.3116 1.00189 17.3856 8.85842L0.357818 75.6205M53.3476 2.42867C73.2812 6.74606 89.4947 16.6223 89.5872 24.4973C89.5872 24.9791 89.5317 25.4425 89.4206 25.8871M36.3197 69.1907C16.3862 64.8548 0.283784 67.7453 0.357818 75.6205M36.3197 69.1907C56.2535 73.508 72.4855 83.3843 72.5596 91.2594M0.357818 75.6205C0.450361 83.4955 16.6638 93.3903 36.5974 97.7078M0.357818 75.6205C0.357818 75.1387 0.413395 74.6755 0.524445 74.2307M0.357818 75.6205L36.4494 83.4771M0.357818 75.6205C0.283784 67.7453 16.3863 64.8548 36.3199 69.1721M0.357818 75.6205C0.450361 83.4955 16.6639 93.3903 36.5974 97.6893L36.4494 83.4771M0.357818 75.6205C0.450361 83.4955 16.6824 93.3718 36.616 97.6893C56.5497 102.007 72.6337 99.116 72.5596 91.2409C72.4855 83.3659 56.2537 73.4896 36.3199 69.1721M0.357818 75.6205C0.265275 67.7453 16.3863 64.8548 36.3199 69.1721M89.4206 25.8871C87.6808 32.706 72.3374 35.0037 53.6253 30.9457M89.4206 25.8871L72.393 92.6491M72.5596 91.2594C72.6335 99.1344 56.5496 102.025 36.5974 97.7078M72.5596 91.2594C72.5596 91.7412 72.504 92.2044 72.393 92.6491M72.5596 91.2594L36.4494 83.4955M36.5974 97.7078C16.6639 93.3903 0.431904 83.5141 0.35787 75.6391L17.3857 8.87703M36.5974 97.7078L53.6253 30.9457M36.5974 97.7078C56.5312 102.025 72.6335 99.1344 72.541 91.2594L89.5689 24.4975C89.6614 32.3725 73.5588 35.2632 53.6253 30.9457M36.5974 97.7078C55.3281 101.766 70.6531 99.468 72.393 92.6491M36.5974 97.7078L36.4494 83.4955M0.524445 74.2307C5.63278 54.2189 12.4439 27.5177 17.5523 7.48728C17.4412 7.93199 17.3857 8.39526 17.3857 8.87703M0.524445 74.2307L17.5524 7.46871C19.2921 0.649821 34.6172 -1.64784 53.3478 2.41014L36.3199 69.1721M0.524445 74.2307C2.26424 67.4303 17.5894 65.1326 36.3199 69.1721M36.4494 83.4771L5.37374 83.8846L22.383 17.1412M36.4494 83.4771L18.3665 91.8153L35.3944 25.0532M36.4494 83.4771L54.8099 99.6903L71.8192 32.9469M36.4494 83.4771L18.1074 67.1896L35.1353 0.427522M36.4494 83.4771L5.22544 69.4871L22.2347 2.74371M36.4494 83.4771L36.3199 69.1721M36.4494 83.4771L67.6917 97.3928M17.3857 8.87703C17.4597 16.7521 33.6917 26.6284 53.6253 30.9457M36.4494 83.4955L72.5592 91.2594M36.4494 83.4955L36.3196 69.1907M84.7196 30.6307L67.6919 97.3927M72.5592 91.2594L89.5871 24.4975C89.4944 16.6223 73.281 6.74608 53.3474 2.42871L36.3196 69.1907M72.5592 91.2594C72.4851 83.3844 56.2531 73.5082 36.3196 69.1907M72.5592 91.2594C72.4667 83.3844 56.2531 73.4896 36.3196 69.1907M84.5712 16.2332L67.5619 82.9953L36.449 83.4771L54.5503 75.0646L71.5783 8.32108M53.3474 2.37308L53.4769 16.6964L17.3484 8.82137C17.2743 0.927777 33.3953 -1.96283 53.3474 2.37308Z" stroke="#151515" stroke-miterlimit="10" stroke-linecap="round" stroke-linejoin="round"></path></g><defs><clipPath id="clip0_603_347"><rect width="90" height="100" fill="white"></rect></clipPath></defs></svg> 