<?xml version="1.0" encoding="UTF-8"?> <svg xmlns="http://www.w3.org/2000/svg" width="102" height="102" viewBox="0 0 102 102" fill="none"><path d="M51 1C78.6143 1 101 8.80899 101 18.4419C101 28.0747 78.6143 35.8837 51 35.8837C23.3857 35.8837 1 30.157 1 23.0931C1 16.0289 23.3857 10.3023 51 10.3023C78.6143 10.3023 101 18.1113 101 27.7443C101 37.377 78.6143 45.1861 51 45.1861C23.3857 45.1861 1 39.4595 1 32.3953C1 25.3313 23.3857 19.6047 51 19.6047C78.6143 19.6047 101 27.4136 101 37.0465C101 46.6794 78.6143 54.4884 51 54.4884C23.3857 54.4884 1 48.7617 1 41.6978C1 34.6336 23.3857 28.9069 51 28.9069C78.6143 28.9069 101 36.7159 101 46.3488C101 55.9817 78.6143 63.7906 51 63.7906C23.3857 63.7906 1 58.0642 1 51C1 43.9358 23.3857 38.2094 51 38.2094C78.6143 38.2094 101 46.0183 101 55.6512C101 65.2841 78.6143 73.0931 51 73.0931C23.3857 73.0931 1 67.3664 1 60.3022C1 53.2383 23.3857 47.5116 51 47.5116C78.6143 47.5116 101 55.3206 101 64.9535C101 74.5864 78.6143 82.3953 51 82.3953C23.3857 82.3953 1 76.6687 1 69.6047C1 62.5405 23.3857 56.8139 51 56.8139C78.6143 56.8139 101 64.623 101 74.2557C101 83.8886 78.6143 91.6978 51 91.6978C23.3857 91.6978 1 85.9711 1 78.9069C1 71.843 23.3857 66.1163 51 66.1163C78.6143 66.1163 101 73.9253 101 83.5582C101 93.1911 78.6143 101 51 101" stroke="#151515" stroke-linecap="round" stroke-linejoin="round"></path></svg> 