<?xml version="1.0" encoding="UTF-8"?> <svg xmlns="http://www.w3.org/2000/svg" width="92" height="102" viewBox="0 0 92 102" fill="none"><path d="M46.0566 1L91 26V76L46.0566 101M46.0566 1L1.11302 26V76L46.0566 101M46.0566 1L46.0051 42.446M46.0566 101L45.9434 50.9808M46.0051 42.446L90.9487 67.446L46.0051 92.446L1.06163 67.446L46.0051 42.446ZM45.9434 50.9808L1 25.9808M45.9434 50.9808L90.8871 25.9808M46.0051 32.7624L90.9487 57.7624L46.0051 82.7624L1.06163 57.7624L46.0051 32.7624ZM46.0051 22.4332L90.9487 47.4332L46.0051 72.4332L1.06163 47.4332L46.0051 22.4332ZM46.0051 11.6519L90.9487 36.652L46.0051 61.652L1.06163 36.652L46.0051 11.6519Z" stroke="#151515" stroke-linecap="round" stroke-linejoin="round"></path></svg> 