<?xml version="1.0" encoding="UTF-8"?> <svg xmlns="http://www.w3.org/2000/svg" width="100" height="100" viewBox="0 0 100 100" fill="none"><g clip-path="url(#clip0_603_310)"><path d="M99.6028 50.0001C99.6028 77.3952 77.3947 99.6033 49.9997 99.6033C22.6046 99.6033 0.396484 77.3952 0.396484 50.0001C0.396484 22.6051 22.6046 0.396973 49.9997 0.396973C77.3947 0.396973 99.6028 22.6051 99.6028 50.0001Z" stroke="#151515" stroke-linecap="round" stroke-linejoin="round"></path><path d="M68.3067 22.8595C91.018 38.179 101.232 62.7494 91.1215 77.7387C81.0106 92.7282 54.4031 92.4605 31.6918 77.1409C8.98056 61.8214 -1.234 37.251 8.87693 22.2617C18.9879 7.27223 45.5955 7.53988 68.3067 22.8595Z" stroke="#151515" stroke-linecap="round" stroke-linejoin="round"></path><path d="M56.8042 44.8264C73.3834 66.6354 83.7763 86.6312 80.0177 89.4885C76.259 92.3459 59.7719 76.9828 43.1929 55.1739C26.6138 33.3651 16.2208 13.3693 19.9794 10.5119C23.7382 7.65455 40.2251 23.0177 56.8042 44.8264Z" stroke="#151515" stroke-linecap="round" stroke-linejoin="round"></path><path d="M70.3447 47.2239C74.0486 74.3673 67.9431 97.6144 56.7074 99.1477C45.4718 100.681 33.3609 79.9195 29.657 52.7761C25.953 25.6324 32.0588 2.38537 43.2943 0.852197C54.5298 -0.680983 66.6407 20.0802 70.3447 47.2239Z" stroke="#151515" stroke-linecap="round" stroke-linejoin="round"></path><path d="M46.6188 37.9333C73.0303 30.6585 95.9229 30.1415 97.7511 36.7784C99.5793 43.4155 79.6505 54.6932 53.239 61.9682C26.8275 69.243 3.93473 69.7601 2.1066 63.123C0.278476 56.4859 20.2073 45.2081 46.6188 37.9333Z" stroke="#151515" stroke-linecap="round" stroke-linejoin="round"></path><path d="M58.2329 59.3385C37.6817 77.4532 17.3365 87.957 12.7905 82.7996C8.24442 77.6421 21.219 58.7762 41.7702 40.6616C62.3212 22.5469 82.6667 12.0429 87.2127 17.2004C91.7587 22.358 78.7841 41.2239 58.2329 59.3385Z" stroke="#151515" stroke-linecap="round" stroke-linejoin="round"></path></g><defs><clipPath id="clip0_603_310"><rect width="100" height="100" fill="white"></rect></clipPath></defs></svg> 