<?xml version="1.0" encoding="UTF-8"?> <svg xmlns="http://www.w3.org/2000/svg" width="104" height="30" viewBox="0 0 104 30" fill="none"><g clip-path="url(#clip0_4433_10434)"><path fill-rule="evenodd" clip-rule="evenodd" d="M39.4453 6.89617V20.3944H44.3641V22.7226H36.8265V6.89617H39.4453ZM53.6088 13.6109V12.1873H56.0906V22.7226H53.6082V21.2979C53.2747 21.8256 52.8 22.2403 52.1847 22.5415C51.5706 22.8426 50.9518 22.9932 50.3294 22.9932C49.5247 22.9932 48.7882 22.8462 48.1206 22.5526C47.4706 22.2716 46.8854 21.8599 46.4012 21.3432C45.9225 20.8302 45.5442 20.232 45.2859 19.5797C45.0175 18.9035 44.882 18.1819 44.8871 17.4544C44.8871 16.7162 45.02 16.0115 45.2859 15.3403C45.5425 14.6839 45.921 14.082 46.4012 13.5662C46.8854 13.0493 47.4706 12.6375 48.1206 12.3562C48.7882 12.062 49.5247 11.915 50.3294 11.915C50.9518 11.915 51.5706 12.0662 52.1853 12.3679C52.8 12.6691 53.2747 13.0838 53.6088 13.6109ZM53.3806 18.7432C53.5334 18.331 53.6107 17.8946 53.6088 17.455C53.6088 17.0021 53.5324 16.5726 53.3806 16.1656C53.238 15.774 53.0218 15.4134 52.7435 15.1032C52.4651 14.7982 52.1282 14.5521 51.7529 14.3797C51.3653 14.1991 50.9365 14.1085 50.4659 14.1085C49.9953 14.1085 49.57 14.1991 49.1906 14.3797C48.8112 14.5609 48.4847 14.802 48.2118 15.1032C47.9342 15.4119 47.7214 15.7732 47.5859 16.1656C47.4402 16.5795 47.3669 17.0155 47.3694 17.4544C47.3694 17.9068 47.4412 18.3368 47.5859 18.7426C47.7212 19.1353 47.934 19.4968 48.2118 19.8056C48.4872 20.1088 48.8199 20.3547 49.1906 20.5291C49.57 20.7103 49.9953 20.8003 50.4659 20.8003C50.9365 20.8003 51.3659 20.7103 51.7529 20.5297C52.1283 20.3574 52.4652 20.1113 52.7435 19.8062C53.0219 19.4958 53.2381 19.135 53.3806 18.7432ZM58.0488 22.722V12.1868H64.7894V14.6115H60.5306V22.722H58.0488ZM73.7841 13.6109V12.1873H76.2659V22.7226H73.7835V21.2979C73.4494 21.8256 72.9753 22.2403 72.36 22.5415C71.7459 22.8426 71.1271 22.9932 70.5047 22.9932C69.6994 22.9932 68.9635 22.8462 68.2959 22.5526C67.6459 22.2716 67.0607 21.8599 66.5765 21.3432C66.0978 20.8302 65.7195 20.232 65.4612 19.5797C65.1927 18.9035 65.0573 18.1819 65.0623 17.4544C65.0623 16.7162 65.1947 16.0115 65.4612 15.3403C65.7178 14.6839 66.0962 14.082 66.5765 13.5662C67.0607 13.0493 67.6459 12.6375 68.2959 12.3562C68.9635 12.062 69.6994 11.915 70.5047 11.915C71.1271 11.915 71.7459 12.0662 72.3606 12.3679C72.9753 12.6691 73.4494 13.0838 73.7841 13.6109ZM73.5559 18.7432C73.7085 18.331 73.7856 17.8946 73.7835 17.455C73.7835 17.0021 73.7071 16.5726 73.5559 16.1656C73.4131 15.774 73.1967 15.4134 72.9182 15.1032C72.6398 14.7982 72.3029 14.5521 71.9276 14.3797C71.5406 14.1991 71.1118 14.1085 70.6412 14.1085C70.1706 14.1085 69.7453 14.1991 69.3659 14.3797C68.9865 14.5609 68.66 14.802 68.3871 15.1032C68.1093 15.4119 67.8962 15.7731 67.7606 16.1656C67.6149 16.5795 67.5416 17.0155 67.5441 17.4544C67.5441 17.9068 67.6159 18.3368 67.7606 18.7426C67.8961 19.1353 68.1091 19.4968 68.3871 19.8056C68.6625 20.1088 68.9952 20.3547 69.3659 20.5291C69.7453 20.7103 70.1706 20.8003 70.6412 20.8003C71.1118 20.8003 71.5412 20.7103 71.9276 20.5297C72.303 20.3574 72.6399 20.1113 72.9182 19.8062C73.1968 19.4959 73.4132 19.1351 73.5559 18.7432ZM86.2165 12.1868H88.7306L84.6565 22.722H81.5376L77.4635 12.1868H79.9776L83.0971 20.2544L86.2165 12.1868ZM94.1435 11.9162C97.5235 11.9162 99.8282 14.8897 99.3953 18.3703H91.1612C91.1612 19.2791 92.0853 21.0362 94.28 21.0362C96.1682 21.0362 97.4329 19.3873 97.4341 19.3862L99.1106 20.6744C97.6118 22.2638 96.3841 22.9938 94.4618 22.9938C91.0265 22.9938 88.6988 20.8362 88.6988 17.455C88.6988 14.3962 91.1047 11.9162 94.1435 11.9162ZM91.1676 16.5391H97.1159C97.0976 16.3362 96.7753 13.8732 94.1241 13.8732C91.4729 13.8732 91.1871 16.3362 91.1676 16.5391ZM101.012 22.722V6.89617H103.494V22.722H101.012ZM29.2729 6.77264C29.2838 6.81252 29.2893 6.85366 29.2894 6.89499V13.3209C29.2893 13.4035 29.2673 13.4847 29.2256 13.5561C29.184 13.6274 29.1242 13.6865 29.0524 13.7273L23.6206 16.8326V22.9873C23.6204 23.0699 23.5983 23.1509 23.5567 23.2222C23.515 23.2935 23.4553 23.3525 23.3835 23.3932L12.0459 29.875C12.02 29.8903 11.9912 29.8991 11.9635 29.9091C11.9524 29.9126 11.9424 29.9191 11.9318 29.9221C11.8523 29.9429 11.7689 29.9429 11.6894 29.9221C11.6765 29.9185 11.6647 29.9115 11.6524 29.9068C11.6259 29.8979 11.5994 29.8891 11.5747 29.875L0.236471 23.3944C0.164623 23.3535 0.104895 23.2943 0.0633598 23.2228C0.0218246 23.1513 -3.62869e-05 23.07 4.52133e-08 22.9873V3.7097C9.34226e-05 3.66837 0.00563126 3.62723 0.0164706 3.58734C0.02 3.57323 0.0282353 3.56087 0.0329412 3.54793C0.042353 3.52323 0.0505883 3.49793 0.0635295 3.47499C0.072353 3.4597 0.0852942 3.44734 0.0952942 3.43382C0.109412 3.41499 0.121177 3.39499 0.137647 3.37852C0.151176 3.36499 0.168824 3.35499 0.184118 3.34323C0.201177 3.33029 0.216471 3.31499 0.235882 3.30382L0.236471 3.30323L5.90588 0.0626391C5.97761 0.0219038 6.05869 0.000488281 6.14118 0.000488281C6.22366 0.000488281 6.30474 0.0219038 6.37647 0.0626391L12.0459 3.30323H12.0471C12.0659 3.31499 12.0812 3.33029 12.0988 3.34323C12.1141 3.35499 12.1312 3.36499 12.1447 3.37852C12.1612 3.39499 12.1729 3.41499 12.1871 3.43323C12.1976 3.44734 12.2106 3.4597 12.2194 3.47499C12.2324 3.49793 12.2406 3.52323 12.25 3.54793C12.2547 3.56087 12.2624 3.57323 12.2665 3.58734C12.2771 3.62726 12.2824 3.66839 12.2824 3.7097V15.7503L17.0071 13.0497V6.89499C17.007 6.85369 17.0123 6.81255 17.0229 6.77264C17.0271 6.75852 17.0347 6.74676 17.04 6.73323C17.0488 6.70852 17.0571 6.68323 17.07 6.66029C17.0788 6.64499 17.0918 6.63264 17.1024 6.61911C17.1165 6.60029 17.1282 6.58029 17.1447 6.5644C17.1582 6.55087 17.1753 6.54087 17.1906 6.52911C17.2082 6.51558 17.2235 6.4997 17.2429 6.48911V6.48852L22.9124 3.24793C22.9841 3.20698 23.0653 3.18544 23.1479 3.18544C23.2306 3.18544 23.3118 3.20698 23.3835 3.24793L29.0524 6.48852C29.0724 6.50029 29.0882 6.51558 29.1059 6.52852C29.1206 6.54029 29.1382 6.55087 29.1518 6.56382C29.1682 6.58029 29.18 6.60029 29.1935 6.61852C29.2041 6.63264 29.2171 6.64499 29.2259 6.66029C29.2394 6.68323 29.2471 6.70852 29.2565 6.73323C29.2618 6.74676 29.2694 6.75852 29.2729 6.77264ZM28.3447 13.0497V7.70617L26.3606 8.84029L23.6206 10.4068V15.7503L28.3447 13.0497ZM22.6759 22.7162V17.3691L19.9794 18.8973L12.2824 23.2591V28.6562L22.6759 22.715V22.7162ZM0.944706 4.52087V22.7162L11.3376 28.6573V23.2609L5.90823 20.2103L5.90706 20.2085L5.90471 20.2079C5.88588 20.1973 5.87118 20.182 5.85412 20.1691C5.83882 20.1573 5.82235 20.1479 5.80882 20.135L5.80765 20.1332C5.79235 20.1185 5.78176 20.1003 5.76882 20.0838C5.75706 20.0685 5.74294 20.055 5.73353 20.0385L5.73294 20.0368C5.72235 20.0191 5.71588 19.9979 5.70824 19.9779C5.70059 19.9609 5.69059 19.9444 5.68588 19.9256C5.67941 19.9032 5.67882 19.8791 5.67588 19.8562C5.67412 19.8385 5.66882 19.8215 5.66882 19.8032V7.22087L2.92941 5.65499L0.944706 4.52087ZM6.14118 1.01029L1.41941 3.71029L6.14118 6.40911L10.8635 3.7097L6.14118 1.01029ZM8.59765 17.8562L11.3376 16.2903V4.52087L9.35412 5.65499L6.61353 7.22146V18.9903L8.59765 17.8562ZM23.1482 4.19617L18.4259 6.89499L23.1482 9.5944L27.87 6.89499L23.1482 4.19617ZM22.6759 10.4068L19.9353 8.84029L17.9518 7.70617V13.0497L20.6918 14.6162L22.6759 15.7503V10.4068ZM11.8094 22.4479L18.7359 18.522L22.1982 16.5597L17.4794 13.8621L12.0459 16.9679L7.09412 19.7985L11.8094 22.4479Z" fill="white"></path></g><defs><clipPath id="clip0_4433_10434"><rect width="103.529" height="30" fill="white"></rect></clipPath></defs></svg> 