<?xml version="1.0" encoding="UTF-8"?> <svg xmlns="http://www.w3.org/2000/svg" width="134" height="26" viewBox="0 0 134 26" fill="none"><path d="M13.2704 13.5541C13.2704 15.5518 12.6758 17.2345 11.4823 18.5967C10.2369 20.024 8.61866 20.7405 6.63768 20.7405C4.65145 20.7405 3.03842 20.024 1.79296 18.5967C0.599046 17.2345 0 15.5518 0 13.5541C0 11.5508 0.599046 9.86862 1.79296 8.51133C3.05224 7.09742 4.67058 6.3908 6.63768 6.3908C8.61866 6.3908 10.2369 7.09742 11.4823 8.51133C12.6758 9.86862 13.2704 11.5508 13.2704 13.5541ZM9.3262 13.5541C9.3262 12.6492 9.10941 11.8854 8.6754 11.2679C8.18979 10.566 7.51021 10.2173 6.63768 10.2173C5.76483 10.2173 5.08552 10.566 4.59942 11.2679C4.16091 11.8854 3.9439 12.6492 3.9439 13.5541C3.9439 14.4539 4.16091 15.2268 4.59942 15.8629C5.08552 16.5648 5.76483 16.914 6.63768 16.914C7.51021 16.914 8.18979 16.5648 8.6754 15.8629C9.10941 15.2268 9.3262 14.4539 9.3262 13.5541ZM27.5312 13.5541C27.5312 15.4201 26.9934 17.0506 25.9129 18.4455C24.7572 19.9723 23.2665 20.7405 21.455 20.7405C20.1763 20.7405 19.0917 20.3683 18.2047 19.6332C18.2047 19.8025 18.2236 20.2126 18.2615 20.8683C18.2991 21.5273 18.3177 22.0646 18.3177 22.4888C18.3177 24.8316 17.6196 26 16.2235 26C15.6525 26 15.1857 25.7973 14.8128 25.3966C14.4449 24.9917 14.2608 24.5054 14.2608 23.9312V8.69525C14.2608 8.1391 14.4497 7.65822 14.827 7.25334C15.2043 6.85264 15.6715 6.65046 16.2282 6.65046C17.0676 6.65046 17.681 7.06894 18.068 7.90375C18.8935 6.89524 20.021 6.3908 21.4502 6.3908C23.2665 6.3908 24.7524 7.14441 25.9129 8.65762C26.9886 10.0575 27.5312 11.6879 27.5312 13.5541ZM23.587 13.5541C23.587 12.6492 23.3659 11.8854 22.9318 11.2679C22.4454 10.566 21.7664 10.2173 20.8935 10.2173C20.021 10.2173 19.3417 10.566 18.8556 11.2679C18.4215 11.8854 18.2047 12.6492 18.2047 13.5541C18.2047 14.4539 18.4215 15.2268 18.8556 15.8629C19.3417 16.5648 20.021 16.914 20.8935 16.914C21.7664 16.914 22.4454 16.5648 22.9318 15.8629C23.3659 15.2268 23.587 14.4539 23.587 13.5541ZM41.8815 13.1303C41.8815 13.7894 41.7257 14.2418 41.4142 14.4968C41.1031 14.7462 40.6173 14.8734 39.9615 14.8734H32.8427C32.8427 15.6275 33.1967 16.2069 33.9042 16.6118C34.4751 16.9281 35.1732 17.0888 35.9987 17.0888C36.6407 17.0888 37.4094 16.8759 38.3104 16.4571C39.2115 16.0327 39.7915 15.825 40.042 15.825C40.4993 15.825 40.886 15.9901 41.2069 16.3294C41.5227 16.6643 41.6835 17.0694 41.6835 17.5362C41.6835 18.6148 40.8769 19.4546 39.263 20.0574C38.032 20.5096 36.7819 20.7405 35.5037 20.7405C33.4469 20.7405 31.7863 20.0574 30.5173 18.6958C29.2481 17.3335 28.6116 15.6228 28.6116 13.5541C28.6116 11.5837 29.2719 9.90154 30.5926 8.49774C31.9086 7.09271 33.546 6.3908 35.4988 6.3908C37.315 6.3908 38.8339 7.05534 40.0514 8.38415C41.2681 9.71344 41.8815 11.2967 41.8815 13.1303ZM37.9378 12.1401C37.9188 11.5367 37.6406 10.9902 37.1027 10.495C36.5648 10.0005 35.9943 9.75578 35.3902 9.75578C34.7677 9.75578 34.1872 10.0005 33.6496 10.495C33.112 10.9902 32.8427 11.5367 32.8427 12.1401H37.9378ZM55.1326 18.4121C55.1326 18.9875 54.9488 19.4726 54.5812 19.878C54.2083 20.2789 53.7411 20.4816 53.1704 20.4816C51.7929 20.4816 51.1039 19.3882 51.1039 17.2063C51.1039 16.7868 51.1324 16.1273 51.1889 15.2177C51.2503 14.3126 51.2788 13.6483 51.2788 13.2288C51.2788 10.9145 50.5286 9.75578 49.0332 9.75578C47.5376 9.75578 46.7924 10.9145 46.7924 13.2288C46.7924 13.6483 46.8159 14.3126 46.8583 15.2177C46.9056 16.1273 46.9291 16.7868 46.9291 17.2063C46.9291 19.3882 46.2498 20.4816 44.8914 20.4816C44.3203 20.4816 43.8536 20.2789 43.4854 19.878C43.1128 19.4726 42.9287 18.9875 42.9287 18.4121V8.69108C42.9287 8.11978 43.1128 7.63525 43.4854 7.24392C43.8536 6.84793 44.3253 6.65046 44.8961 6.65046C45.8395 6.65046 46.495 7.06894 46.8629 7.90375C47.4999 6.89524 48.6272 6.3908 50.2407 6.3908C51.7362 6.3908 52.9251 6.78632 53.7979 7.57332C54.6895 8.41755 55.1326 9.5763 55.1326 11.0516V18.4121ZM67.5063 17.9933C67.5063 18.8838 66.9271 19.5904 65.7659 20.1094C64.8465 20.5283 63.8472 20.7435 62.8366 20.7405C60.8498 20.7405 59.237 20.024 57.9917 18.5967C56.7979 17.2345 56.1989 15.5518 56.1989 13.5541C56.1989 11.5508 56.8076 9.85946 58.0292 8.47376C59.2509 7.08382 60.8498 6.3908 62.8366 6.3908C63.9827 6.3908 64.9686 6.56038 65.7901 6.89524C66.9356 7.34765 67.5063 8.05421 67.5063 9.01577C67.5063 9.50083 67.3557 9.92974 67.0535 10.3022C66.7518 10.6698 66.3644 10.8583 65.8935 10.8583C65.572 10.8583 65.1096 10.7499 64.5062 10.5383C63.9024 10.321 63.4217 10.2173 63.0681 10.2173C62.1288 10.2173 61.3974 10.5519 60.8739 11.2209C60.3879 11.8243 60.1425 12.5972 60.1425 13.5541C60.1425 14.4539 60.3595 15.2177 60.7989 15.835C61.2838 16.5561 61.9686 16.914 62.8409 16.914C63.2283 16.914 63.7561 16.8009 64.4307 16.5694C65.1058 16.344 65.5918 16.2262 65.8935 16.2262C66.3323 16.2262 66.709 16.4143 67.0305 16.7821C67.3466 17.1543 67.5063 17.5545 67.5063 17.9933ZM81.8427 18.4121C81.8427 18.9875 81.6589 19.4726 81.2908 19.878C80.9184 20.2789 80.4469 20.4816 79.8751 20.4816C79.0168 20.4816 78.4038 20.0619 78.0357 19.2278C77.2105 20.2366 76.0826 20.7405 74.6536 20.7405C72.8238 20.7405 71.3235 19.9723 70.1623 18.4455C69.1057 17.0506 68.5736 15.4201 68.5736 13.5541C68.5736 11.6879 69.1057 10.0575 70.1623 8.65762C71.3422 7.14441 72.8372 6.3908 74.6536 6.3908C76.0826 6.3908 77.2105 6.89524 78.0357 7.90375C78.4038 7.06894 79.0168 6.65046 79.8751 6.65046C80.4324 6.65046 80.8996 6.85264 81.2774 7.25334C81.6541 7.65822 81.8427 8.13439 81.8427 8.69108V18.4121ZM77.899 13.5541C77.899 12.6492 77.6826 11.8854 77.248 11.2679C76.7433 10.566 76.0639 10.2173 75.2103 10.2173C74.3374 10.2173 73.6586 10.566 73.172 11.2679C72.7337 11.8854 72.5173 12.6492 72.5173 13.5541C72.5173 14.4539 72.7284 15.2268 73.1479 15.8629C73.6489 16.5648 74.3374 16.914 75.2103 16.914C76.0826 16.914 76.762 16.5648 77.248 15.8629C77.6826 15.2268 77.899 14.4539 77.899 13.5541ZM91.9053 8.43115C91.9053 9.27463 91.4949 9.85422 90.674 10.1698C89.9148 10.4247 89.1593 10.6844 88.4048 10.9521C87.5786 11.4238 87.1687 12.3002 87.1687 13.5728V18.4121C87.1687 18.9875 86.9796 19.4726 86.6125 19.878C86.2391 20.2789 85.7675 20.4816 85.1969 20.4816C84.622 20.4816 84.1494 20.2789 83.7823 19.878C83.4089 19.4726 83.2251 18.9875 83.2251 18.4121V8.69108C83.2251 8.11978 83.4089 7.63525 83.777 7.24392C84.1494 6.84793 84.622 6.65046 85.1926 6.65046C86.1357 6.65046 86.791 7.06894 87.1596 7.90375C88.0041 6.89524 88.9101 6.3908 89.8864 6.3908C90.4426 6.3908 90.9194 6.59303 91.3154 6.99368C91.7066 7.39909 91.9053 7.87971 91.9053 8.43115ZM102.194 8.61036C102.194 9.4867 101.85 10.0381 101.166 10.2742C100.831 10.3918 100.127 10.4529 99.0564 10.4529V18.4121C99.0564 18.9875 98.8678 19.4726 98.5008 19.878C98.1273 20.2789 97.6558 20.4816 97.0851 20.4816C96.5289 20.4816 96.0564 20.2789 95.6786 19.878C95.3019 19.4726 95.1133 18.9875 95.1133 18.4121V10.4529C94.3015 10.4529 93.7121 10.3492 93.3397 10.1471C92.8307 9.86417 92.5789 9.35037 92.5789 8.61036C92.5789 7.87083 92.8388 7.36644 93.3623 7.09742C93.7164 6.89942 94.3015 6.79622 95.1133 6.79622V5.10905C95.1133 3.12517 95.7681 2.13567 97.0851 2.13567C98.3963 2.13567 99.0564 3.12517 99.0564 5.10905V6.79622C100.127 6.79622 100.831 6.85735 101.166 6.97489C101.85 7.21052 102.194 7.75772 102.194 8.61036ZM133.878 6.21738C133.867 5.00772 131.629 4.45864 125.837 4.45864C112.247 4.45864 108.799 3.87873 105.109 0C106.661 2.32896 107.511 6.69725 121.875 6.47987C136.863 6.24923 127.72 10.3403 125.059 14.9625C129.857 10.6849 133.863 7.86537 133.878 6.23488V6.21738ZM114.78 18.6388C114.779 19.7632 113.854 20.6882 112.728 20.6885C111.591 20.6885 110.671 19.7701 110.671 18.6388C110.671 18.6383 110.671 18.6377 110.671 18.6372C110.671 17.5109 111.599 16.5841 112.727 16.5841C112.727 16.5841 112.727 16.5841 112.728 16.5841C113.861 16.5841 114.78 17.5028 114.78 18.6388ZM124.139 18.6388C124.139 19.7632 123.213 20.6882 122.087 20.6885C120.951 20.6885 120.031 19.7701 120.031 18.6388C120.031 18.6383 120.031 18.6377 120.031 18.6372C120.031 17.5109 120.959 16.5841 122.086 16.5841C122.086 16.5841 122.086 16.5841 122.087 16.5841C123.22 16.5841 124.139 17.5028 124.139 18.6388Z" fill="white"></path></svg> 