<?xml version="1.0" encoding="UTF-8"?> <svg xmlns="http://www.w3.org/2000/svg" width="304" height="23" viewBox="0 0 304 23" fill="none"><g clip-path="url(#clip0_4937_10036)"><path d="M13.3919 22.4716C13.2342 21.6292 12.9188 20.5442 12.0872 18.3598C11.2412 16.0613 10.9258 15.4616 10.2519 14.8763C9.69267 14.3766 9.03311 14.1624 8.18715 14.1624H5.47722V18.4883C5.47722 20.2872 5.53457 21.258 5.69229 22.4716H0C0.157721 21.258 0.215074 20.4728 0.215074 18.5169V4.32569C0.215074 2.68385 0.157721 1.71302 0 0.442383C1.1614 0.49949 2.15074 0.528044 3.94302 0.528044H10.8397C15.1269 0.528044 17.6217 2.74095 17.6217 6.5386C17.6217 8.40886 17.0912 9.89366 16.0589 10.8645C15.3993 11.4784 14.8401 11.7639 13.5353 12.1779C14.8831 12.6063 15.4997 13.2059 16.3456 15.0762C16.7471 15.9185 17.1199 16.8179 18.31 19.6733C18.5967 20.4157 18.9265 21.0724 19.5861 22.4716H13.3919ZM9.62098 9.63667C11.1839 9.63667 12.1445 8.68012 12.1445 7.18105C12.1445 5.68199 11.2986 4.93959 9.64966 4.93959H5.49156V9.63667H9.62098Z" fill="black"></path><path d="M40.6507 0.51416C40.493 1.64203 40.4356 2.59858 40.4356 4.4974V13.5775C40.4356 19.588 36.808 23.0002 30.4132 23.0002C27.1297 23.0002 24.4484 22.0722 22.8569 20.4161C21.3227 18.7742 20.5198 16.49 20.5198 13.5346V4.51168C20.5198 2.68424 20.4624 1.52782 20.3047 0.528437H26.0257C25.8679 1.49926 25.8106 2.55575 25.8106 4.51168V13.5918C25.8106 16.9183 27.3161 18.503 30.4275 18.503C33.5389 18.503 35.1161 16.9183 35.1161 13.5918V4.51168C35.1161 2.5272 35.0588 1.71342 34.901 0.528437H40.6507V0.51416Z" fill="black"></path><path d="M48.2924 15.3191C48.3928 16.2756 48.5792 16.7467 48.9806 17.275C49.6115 18.0602 50.7299 18.5171 52.0777 18.5171C54.1137 18.5171 55.3325 17.6176 55.3325 16.1471C55.3325 15.3333 54.9023 14.6195 54.2141 14.3054C53.6549 14.0484 52.9953 13.8628 50.2424 13.2204C47.8049 12.6921 46.9589 12.378 45.9696 11.6927C44.3063 10.5363 43.403 8.76598 43.403 6.62446C43.403 2.55556 46.6865 0 51.9056 0C55.2751 0 57.8417 1.02793 59.2755 3.01241C59.9351 3.8833 60.2505 4.66853 60.5946 6.18187L54.974 6.79578C54.6586 5.08256 53.6979 4.36871 51.6906 4.36871C50.0703 4.36871 48.8803 5.2396 48.8803 6.45313C48.8803 7.19553 49.2817 7.75233 50.1277 8.1378C50.4814 8.29961 51.7001 8.5899 53.7839 9.00869C55.7913 9.437 57.0674 9.87958 58.0711 10.5078C59.9781 11.6927 60.9387 13.4631 60.9387 15.8901C60.9387 17.8746 60.3079 19.5593 59.0891 20.7443C57.5549 22.2148 55.2178 22.9857 52.1207 22.9857C49.8696 22.9857 47.6472 22.5146 46.2133 21.6865C44.8942 20.9441 43.9049 19.8163 43.3457 18.3029C43.0876 17.6747 42.9442 17.0608 42.7578 15.8473L48.2924 15.3191Z" fill="black"></path><path d="M67.1474 22.472C65.3121 22.472 64.2368 22.5005 63.2188 22.5576C63.3765 21.6296 63.4338 20.4732 63.4338 18.7029V4.76866C63.4338 2.92695 63.3765 1.7848 63.2188 0.51416H68.9971C68.8107 1.88474 68.782 2.62713 68.782 4.683V17.7749H75.1912C77.4423 17.7749 78.3456 17.7463 79.5931 17.5893V22.6575C78.618 22.5291 77.3133 22.472 75.1912 22.472H67.1474Z" fill="black"></path><path d="M97.084 22.472C96.869 21.2013 96.7112 20.516 96.4532 19.6166L95.7362 17.3751H88.18L87.4631 19.6166C87.1189 20.6731 86.9326 21.4868 86.8035 22.472H80.6094C81.0108 21.6867 81.2403 21.0443 81.8855 19.2597L87.6064 3.36953C88.0796 2.07034 88.3234 1.28511 88.4524 0.51416H95.3635C95.5499 1.28511 95.7362 1.9704 96.2668 3.36953L102.016 19.2597C102.518 20.6588 102.948 21.7438 103.293 22.472H97.084ZM91.9223 5.02564L89.4561 12.935H94.4315L91.9223 5.02564Z" fill="black"></path><path d="M117.331 11.3071C118.106 12.435 118.607 13.2916 119.238 14.448C119.138 13.2345 119.081 12.0209 119.081 10.5361V4.52558C119.081 2.78381 119.023 1.72732 118.865 0.513789H124.515C124.357 1.69877 124.3 2.81236 124.3 4.52558V18.5312C124.3 20.1445 124.386 21.358 124.515 22.4573H118.708C118.235 21.4579 117.618 20.4728 116.715 19.1022L111.811 11.7354C111.094 10.6789 110.65 9.89368 109.904 8.49455C110.033 9.67952 110.09 11.1358 110.09 12.4207V18.3313C110.09 20.1587 110.148 21.3152 110.306 22.443H104.656C104.814 21.4151 104.871 20.2587 104.871 18.3027V4.42564C104.871 2.89802 104.814 1.71304 104.656 0.499512H110.406C110.664 1.21335 111.252 2.26984 112.284 3.79746L117.331 11.3071Z" fill="black"></path><path d="M139.671 22.4716C137.664 22.4716 136.889 22.5001 135.742 22.5572C135.9 21.4293 135.957 20.5299 135.957 18.6739V4.24002C135.957 2.84089 135.9 1.71302 135.742 0.442383C137.09 0.528044 137.463 0.528044 139.642 0.528044H146.582C150.869 0.528044 153.393 2.58391 153.393 6.06746C153.393 7.68074 152.862 8.93711 151.858 9.83655C151.271 10.3362 150.797 10.6075 149.708 10.993C151.012 11.2785 151.701 11.6069 152.461 12.2636C153.593 13.263 154.181 14.6907 154.181 16.4324C154.181 20.2301 151.486 22.4716 146.869 22.4716H139.671ZM145.822 8.97994C147.227 8.97994 148.102 8.16616 148.102 6.86696C148.102 5.56777 147.285 4.83965 145.765 4.83965H141.148V8.97994H145.822ZM141.162 18.1171H146.037C147.7 18.1171 148.718 17.1891 148.718 15.6329C148.718 14.0768 147.715 13.2059 146.023 13.2059H141.176V18.1171H141.162Z" fill="black"></path><path d="M171.443 22.472C171.228 21.2013 171.071 20.516 170.813 19.6166L170.096 17.3751H162.539L161.822 19.6166C161.478 20.6731 161.292 21.4868 161.163 22.472H154.969C155.37 21.6867 155.6 21.0443 156.245 19.2597L161.966 3.36953C162.439 2.07034 162.683 1.28511 162.812 0.51416H169.723C169.909 1.28511 170.096 1.9704 170.626 3.36953L176.376 19.2597C176.878 20.6588 177.308 21.7438 177.652 22.472H171.443ZM166.282 5.02564L163.815 12.935H168.791L166.282 5.02564Z" fill="black"></path><path d="M191.873 14.4481C190.525 14.4481 190.066 14.4766 189.249 14.5765V9.90801C190.224 10.0365 190.869 10.0651 192.719 10.0651H194.841C196.188 10.0651 197.178 10.0365 198.339 9.93657C198.21 10.9359 198.153 11.8068 198.153 13.5201V16.4754C198.153 18.3456 198.181 19.188 198.339 20.4015C196.877 21.3295 196.16 21.6721 194.97 22.0576C193.249 22.643 191.313 22.9571 189.349 22.9571C185.98 22.9571 183.356 22.0291 181.477 20.1302C179.47 18.1315 178.352 14.9906 178.352 11.3643C178.352 4.42571 182.567 0.0141602 189.249 0.0141602C192.561 0.0141602 195.084 1.04209 196.834 3.15507C197.551 3.96885 197.966 4.76835 198.396 6.02471L192.991 7.2668C192.704 6.31025 192.374 5.81056 191.801 5.36798C191.113 4.81118 190.238 4.5542 189.12 4.5542C185.721 4.5542 183.872 7.00982 183.872 11.4356C183.872 13.8913 184.431 15.7901 185.492 16.9465C186.338 17.8745 187.643 18.3742 189.306 18.3742C190.711 18.3742 191.844 18.0886 193.149 17.4176V14.4052H191.873V14.4481Z" fill="black"></path><path d="M206.828 0.51416C206.67 1.5992 206.613 2.49864 206.613 4.42602V18.5744C206.613 20.3875 206.67 21.3726 206.828 22.4862H200.992C201.15 21.4583 201.207 20.3447 201.207 18.5744V4.42602C201.207 2.44153 201.15 1.68486 200.992 0.51416H206.828Z" fill="black"></path><path d="M222.847 11.3071C223.621 12.435 224.123 13.2916 224.754 14.448C224.654 13.2345 224.596 12.0209 224.596 10.5361V4.52558C224.596 2.78381 224.539 1.72732 224.381 0.513789H230.03C229.873 1.69877 229.815 2.81236 229.815 4.52558V18.5312C229.815 20.1445 229.901 21.358 230.03 22.4573H224.223C223.75 21.4579 223.134 20.4728 222.23 19.1022L217.327 11.7354C216.61 10.6789 216.165 9.89368 215.42 8.49455C215.549 9.67952 215.606 11.1358 215.606 12.4207V18.3313C215.606 20.1587 215.663 21.3152 215.821 22.443H210.172C210.33 21.4151 210.387 20.2587 210.387 18.3027V4.42564C210.387 2.89802 210.33 1.71304 210.172 0.499512H215.922C216.18 1.21335 216.767 2.26984 217.8 3.79746L222.847 11.3071Z" fill="black"></path><path d="M237.746 15.3191C237.846 16.2756 238.032 16.7467 238.434 17.275C239.065 18.0602 240.183 18.5171 241.531 18.5171C243.567 18.5171 244.786 17.6176 244.786 16.1471C244.786 15.3333 244.355 14.6195 243.667 14.3054C243.108 14.0484 242.448 13.8628 239.696 13.2204C237.258 12.6921 236.412 12.378 235.423 11.6927C233.759 10.5363 232.856 8.76598 232.856 6.62446C232.856 2.55556 236.14 0 241.359 0C244.728 0 247.295 1.02793 248.729 3.01241C249.388 3.8833 249.704 4.66853 250.048 6.18187L244.427 6.79578C244.112 5.08256 243.151 4.36871 241.144 4.36871C239.523 4.36871 238.333 5.2396 238.333 6.45313C238.333 7.19553 238.735 7.75233 239.581 8.1378C239.934 8.29961 241.153 8.5899 243.237 9.00869C245.244 9.437 246.521 9.87958 247.524 10.5078C249.431 11.6927 250.392 13.4631 250.392 15.8901C250.392 17.8746 249.761 19.5593 248.542 20.7443C247.008 22.2148 244.671 22.9857 241.574 22.9857C239.323 22.9857 237.1 22.5146 235.666 21.6865C234.347 20.9441 233.358 19.8163 232.799 18.3029C232.541 17.6747 232.397 17.0608 232.211 15.8473L237.746 15.3191Z" fill="black"></path><path d="M270.781 18.5601C272.344 20.8872 272.688 21.3584 273.591 22.472H266.695C266.322 21.6296 265.562 20.2305 264.859 19.1169L260.759 12.5781L258.077 15.2479V18.5744C258.077 20.2162 258.135 21.0871 258.292 22.4862H252.672C252.83 21.1442 252.887 20.1591 252.887 18.5744V4.42602C252.887 2.81273 252.83 1.7848 252.672 0.51416H258.292C258.135 1.88474 258.077 2.75562 258.077 4.42602V9.09454L263.354 3.46947C264.386 2.38443 265.074 1.48499 265.662 0.51416H272.817C272.344 0.985296 272.158 1.19945 271.785 1.57065L269.935 3.41236L264.401 9.19448L270.781 18.5601Z" fill="black"></path><path d="M280.859 0.51416C280.701 1.5992 280.644 2.49864 280.644 4.42602V18.5744C280.644 20.3875 280.701 21.3726 280.859 22.4862H275.023C275.181 21.4583 275.239 20.3447 275.239 18.5744V4.42602C275.239 2.44153 275.181 1.68486 275.023 0.51416H280.859Z" fill="black"></path><path d="M295.798 18.5597C295.798 19.9303 295.856 21.0867 296.013 22.4716H290.235C290.364 21.258 290.45 20.0445 290.45 18.5597V13.677L284.356 3.69753C283.883 2.88374 283.295 2.01286 282.234 0.499512H288.945C289.231 1.42751 289.533 2.1128 290.192 3.26922L293.131 8.62304L296.071 3.29777C296.73 2.08424 297.103 1.27046 297.29 0.499512H304C303.226 1.61311 302.222 3.11217 301.878 3.69753L295.813 13.677V18.5597H295.798Z" fill="black"></path></g><defs><clipPath id="clip0_4937_10036"><rect width="304" height="23" fill="white"></rect></clipPath></defs></svg> 