<?xml version="1.0" encoding="UTF-8"?> <svg xmlns="http://www.w3.org/2000/svg" width="50" height="50" viewBox="0 0 50 50" fill="none"><path d="M30.1963 43.4844C29.7834 43.0252 29.5683 42.4217 29.5977 41.8049C29.6271 41.188 29.8988 40.6077 30.3535 40.19C30.8083 39.7722 31.4096 39.5508 32.0267 39.5737C32.6438 39.5967 33.2269 39.8621 33.6494 40.3125L34.5088 41.25L38.0557 38.6406V13.7266H32.1338C30.8913 13.7243 29.7003 13.2297 28.8217 12.3511C27.9431 11.4725 27.4486 10.2816 27.4463 9.03906V3.125H11.6572C10.2507 3.12624 8.90217 3.68552 7.90762 4.68008C6.91306 5.67463 6.35378 7.02318 6.35254 8.42969V41.5703C6.35378 42.9768 6.91306 44.3254 7.90762 45.3199C8.90217 46.3145 10.2507 46.8738 11.6572 46.875H32.751C33.1644 46.8772 33.5765 46.8273 33.9775 46.7266C33.3744 46.6647 32.818 46.3739 32.4229 45.9141L30.1963 43.4844ZM17.5166 17.9688H33.9229C34.1301 17.9688 34.3288 18.0511 34.4753 18.1976C34.6218 18.3441 34.7041 18.5428 34.7041 18.75C34.7041 18.9572 34.6218 19.1559 34.4753 19.3024C34.3288 19.4489 34.1301 19.5312 33.9229 19.5312H17.5166C17.3094 19.5312 17.1107 19.4489 16.9642 19.3024C16.8177 19.1559 16.7354 18.9572 16.7354 18.75C16.7354 18.5428 16.8177 18.3441 16.9642 18.1976C17.1107 18.0511 17.3094 17.9688 17.5166 17.9688ZM17.5166 24.2188H33.9229C34.1301 24.2188 34.3288 24.3011 34.4753 24.4476C34.6218 24.5941 34.7041 24.7928 34.7041 25C34.7041 25.2072 34.6218 25.4059 34.4753 25.5524C34.3288 25.6989 34.1301 25.7812 33.9229 25.7812H17.5166C17.3094 25.7812 17.1107 25.6989 16.9642 25.5524C16.8177 25.4059 16.7354 25.2072 16.7354 25C16.7354 24.7928 16.8177 24.5941 16.9642 24.4476C17.1107 24.3011 17.3094 24.2188 17.5166 24.2188ZM17.5166 30.4688H33.9229C34.1301 30.4688 34.3288 30.5511 34.4753 30.6976C34.6218 30.8441 34.7041 31.0428 34.7041 31.25C34.7041 31.4572 34.6218 31.6559 34.4753 31.8024C34.3288 31.9489 34.1301 32.0312 33.9229 32.0312H17.5166C17.3094 32.0312 17.1107 31.9489 16.9642 31.8024C16.8177 31.6559 16.7354 31.4572 16.7354 31.25C16.7354 31.0428 16.8177 30.8441 16.9642 30.6976C17.1107 30.5511 17.3094 30.4688 17.5166 30.4688ZM12.0479 39.4531C11.5299 39.4531 11.0331 39.2474 10.6668 38.8811C10.3005 38.5148 10.0947 38.018 10.0947 37.5C10.0947 36.982 10.3005 36.4852 10.6668 36.1189C11.0331 35.7526 11.5299 35.5469 12.0479 35.5469C12.5659 35.5469 13.0626 35.7526 13.4289 36.1189C13.7952 36.4852 14.001 36.982 14.001 37.5C14.001 38.018 13.7952 38.5148 13.4289 38.8811C13.0626 39.2474 12.5659 39.4531 12.0479 39.4531ZM12.0479 33.2031C11.5299 33.2031 11.0331 32.9974 10.6668 32.6311C10.3005 32.2648 10.0947 31.768 10.0947 31.25C10.0947 30.732 10.3005 30.2352 10.6668 29.8689C11.0331 29.5026 11.5299 29.2969 12.0479 29.2969C12.5659 29.2969 13.0626 29.5026 13.4289 29.8689C13.7952 30.2352 14.001 30.732 14.001 31.25C14.001 31.768 13.7952 32.2648 13.4289 32.6311C13.0626 32.9974 12.5659 33.2031 12.0479 33.2031ZM12.0479 26.9531C11.5299 26.9531 11.0331 26.7474 10.6668 26.3811C10.3005 26.0148 10.0947 25.518 10.0947 25C10.0947 24.482 10.3005 23.9852 10.6668 23.6189C11.0331 23.2527 11.5299 23.0469 12.0479 23.0469C12.5659 23.0469 13.0626 23.2527 13.4289 23.6189C13.7952 23.9852 14.001 24.482 14.001 25C14.001 25.518 13.7952 26.0148 13.4289 26.3811C13.0626 26.7474 12.5659 26.9531 12.0479 26.9531ZM12.0479 20.7031C11.5299 20.7031 11.0331 20.4973 10.6668 20.1311C10.3005 19.7648 10.0947 19.268 10.0947 18.75C10.0947 18.232 10.3005 17.7352 10.6668 17.3689C11.0331 17.0026 11.5299 16.7969 12.0479 16.7969C12.5659 16.7969 13.0626 17.0026 13.4289 17.3689C13.7952 17.7352 14.001 18.232 14.001 18.75C14.001 19.268 13.7952 19.7648 13.4289 20.1311C13.0626 20.4973 12.5659 20.7031 12.0479 20.7031ZM17.5166 36.7188H33.9229C34.1301 36.7188 34.3288 36.8011 34.4753 36.9476C34.6218 37.0941 34.7041 37.2928 34.7041 37.5C34.7041 37.7072 34.6218 37.9059 34.4753 38.0524C34.3288 38.1989 34.1301 38.2812 33.9229 38.2812H17.5166C17.3094 38.2812 17.1107 38.1989 16.9642 38.0524C16.8177 37.9059 16.7354 37.7072 16.7354 37.5C16.7354 37.2928 16.8177 37.0941 16.9642 36.9476C17.1107 36.8011 17.3094 36.7188 17.5166 36.7188Z" fill="white"></path><path d="M32 42L34.196 44.196C34.3708 44.3708 34.6471 44.3916 34.8461 44.245L39.25 41L44 37.5" stroke="#FFFE24" stroke-width="3" stroke-linecap="round"></path><path d="M32.125 12.0845H38L29 3.13184V8.96027C29.0012 9.78862 29.3309 10.5827 29.9167 11.1683C30.5025 11.754 31.2967 12.0835 32.125 12.0845Z" fill="white"></path></svg> 