<?xml version="1.0" encoding="UTF-8"?> <svg xmlns="http://www.w3.org/2000/svg" width="50" height="50" viewBox="0 0 50 50" fill="none"><path d="M24.992 23.9702C19.135 23.9624 16.9342 31.7187 21.828 34.7905C25.517 37.314 30.9866 34.4062 30.867 29.8452C30.865 28.2877 30.2453 26.7946 29.144 25.6933C28.0427 24.5919 26.5496 23.9723 24.992 23.9702ZM43.9764 35.6577L42.7967 35.2671C41.8767 36.2039 40.6934 36.8387 39.404 37.087C38.1146 37.3354 36.7802 37.1857 35.578 36.6577C36.5773 37.8479 37.1225 39.3537 37.117 40.9077V43.1265C37.1183 43.1657 37.1157 43.205 37.1092 43.2437H45.1092C45.5769 43.2416 46.0248 43.0549 46.3554 42.7242C46.6861 42.3936 46.8728 41.9457 46.8749 41.478V39.689C46.875 38.7981 46.5953 37.9296 46.0752 37.2063C45.5552 36.483 44.821 35.9413 43.9764 35.6577ZM38.0311 35.6421C38.6817 35.6652 39.3304 35.5584 39.9393 35.3278C40.5481 35.0972 41.1048 34.7475 41.5769 34.2992C42.0489 33.8508 42.4268 33.3128 42.6884 32.7167C42.9501 32.1205 43.0902 31.4782 43.1006 30.8272C43.111 30.1763 42.9914 29.5298 42.749 28.9256C42.5065 28.3214 42.146 27.7716 41.6884 27.3085C41.2309 26.8453 40.6857 26.478 40.0845 26.2281C39.4833 25.9782 38.8384 25.8507 38.1874 25.853C31.7889 26.0718 31.6717 35.2358 38.0311 35.6421Z" fill="white"></path><path d="M31.7031 35.9702L29.9453 35.3843C28.5793 36.598 26.8155 37.2683 24.9883 37.2683C23.161 37.2683 21.3972 36.598 20.0312 35.3843C19.7373 35.4944 19.4038 35.5998 19.0559 35.7098C18.1028 36.0112 17.041 36.3469 16.3828 36.9077C15.772 37.3803 15.2776 37.9865 14.9377 38.68C14.5977 39.3734 14.4213 40.1355 14.4219 40.9077V43.1265C14.4239 43.6576 14.6364 44.1663 15.0127 44.5412C15.389 44.916 15.8985 45.1265 16.4297 45.1265H33.5469C34.0578 45.1279 34.5498 44.9336 34.9218 44.5834C35.2938 44.2332 35.5175 43.7537 35.5469 43.2437C35.5534 43.205 35.556 43.1657 35.5547 43.1265V40.9077C35.5488 39.7748 35.1676 38.6757 34.4707 37.7823C33.7738 36.889 32.8006 36.2518 31.7031 35.9702Z" fill="white"></path><path d="M11.6562 35.6421C12.3069 35.6653 12.9556 35.5584 13.5644 35.3278C14.1732 35.0972 14.73 34.7475 15.202 34.2992C15.6741 33.8508 16.052 33.3129 16.3136 32.7167C16.5752 32.1206 16.7153 31.4782 16.7257 30.8273C16.7361 30.1763 16.6166 29.5298 16.3741 28.9256C16.1316 28.3214 15.7711 27.7717 15.3136 27.3085C14.8561 26.8453 14.3108 26.478 13.7097 26.2281C13.1085 25.9782 12.4635 25.8507 11.8125 25.8531C5.41406 26.064 5.30469 35.2515 11.6562 35.6421Z" fill="white"></path><path d="M14.3828 36.6812C13.3444 37.1254 12.2082 37.2913 11.0862 37.1625C9.96418 37.0338 8.89509 36.6147 7.98438 35.9468C7.70445 35.7437 7.44301 35.5163 7.20312 35.2671L6.02344 35.6577C5.17886 35.9413 4.4447 36.483 3.92462 37.2063C3.40455 37.9297 3.12484 38.7981 3.125 39.689V41.4781C3.12706 41.9457 3.31374 42.3936 3.64441 42.7243C3.97508 43.055 4.42299 43.2416 4.89063 43.2437H12.8672C12.8607 43.205 12.8581 43.1657 12.8594 43.1265V40.9077C12.8558 39.3638 13.395 37.8678 14.3828 36.6812Z" fill="white"></path><path fill-rule="evenodd" clip-rule="evenodd" d="M25.0001 3.5C25.8285 3.5 26.5001 4.17157 26.5001 5V11V12.5H25.0001C23.8939 12.5 22.2059 13.0902 21.1452 14.3439C20.1932 15.469 19.5665 17.3466 20.8791 20.4091C21.2055 21.1705 20.8528 22.0524 20.0913 22.3787C19.3299 22.7051 18.4481 22.3523 18.1217 21.5909C16.4341 17.6534 17.0571 14.531 18.855 12.4061C20.1275 10.9021 21.8955 10.0148 23.5001 9.66862V5C23.5001 4.17157 24.1717 3.5 25.0001 3.5Z" fill="#FFFE24"></path><path d="M31.8785 21.5909C31.5522 22.3523 30.6704 22.7051 29.9089 22.3787C29.1475 22.0524 28.7948 21.1705 29.1211 20.4091L31.8785 21.5909ZM25.0001 9.5C26.8943 9.5 29.4562 10.4098 31.1453 12.4061C32.9432 14.531 33.5661 17.6534 31.8785 21.5909L29.1211 20.4091C30.4337 17.3466 29.807 15.469 28.8551 14.3439C27.7943 13.0902 26.1063 12.5 25.0001 12.5V9.5Z" fill="#FFFE24"></path></svg> 