<?xml version="1.0" encoding="UTF-8"?> <svg xmlns="http://www.w3.org/2000/svg" width="50" height="50" viewBox="0 0 50 50" fill="none"><path fill-rule="evenodd" clip-rule="evenodd" d="M31.238 15.2432C30.7572 16.2073 30.0005 17.0065 29.0641 17.5393H20.9203C19.9819 17.0088 19.2235 16.2099 18.7426 15.2452C18.2616 14.2804 18.08 13.1939 18.2211 12.1252C20.5008 12.0706 24.0922 12.4354 24.2164 14.0799C24.2316 14.2753 24.3199 14.4577 24.4638 14.5907C24.6076 14.7238 24.7963 14.7977 24.9922 14.7977C25.1881 14.7977 25.3768 14.7238 25.5207 14.5907C25.6645 14.4577 25.7528 14.2753 25.768 14.0799C25.8922 12.4354 29.4906 12.0706 31.7641 12.1252C31.9019 13.1937 31.7188 14.2791 31.238 15.2432ZM20.7422 20.2776C20.1078 20.2807 20.1196 19.0846 20.7422 19.0909H29.2578C29.3772 19.0909 29.4924 19.1383 29.5768 19.2227C29.6612 19.3071 29.7086 19.4215 29.7086 19.5409C29.7399 19.8745 29.6742 20.2706 29.2578 20.2776H20.7422ZM29.2586 21.8292C29.4423 21.8277 29.6249 21.8014 29.8016 21.751C31.3391 22.6646 32.6554 23.9071 33.6563 25.3893C39.1555 31.6268 39.4485 46.6104 28.7696 47.0307H21.2305C9.86565 46.4237 11.0164 30.2838 17.3055 24.187C18.1038 23.1961 19.0861 22.3689 20.1985 21.751C20.3751 21.8014 20.5577 21.8277 20.7414 21.8292H29.2586ZM26.9507 34.7476C26.4118 34.2715 25.7191 34.0061 25 34.0002C24.7162 34.0002 24.4387 33.9153 24.2027 33.7576C23.9667 33.5999 23.7827 33.3758 23.6741 33.1135C23.5655 32.8513 23.5371 32.5627 23.5924 32.2843C23.6478 32.0059 23.7845 31.7502 23.9852 31.5495C24.1859 31.3488 24.4416 31.2121 24.72 31.1567C24.9984 31.1014 25.287 31.1298 25.5492 31.2384C25.8115 31.347 26.0356 31.531 26.1933 31.767C26.351 32.003 26.4352 32.2805 26.4352 32.5643C26.4352 32.7701 26.5169 32.9674 26.6624 33.1129C26.8079 33.2584 27.0052 33.3401 27.211 33.3401C27.4167 33.3401 27.614 33.2584 27.7595 33.1129C27.905 32.9674 27.9867 32.7701 27.9867 32.5643C27.985 31.9094 27.7675 31.2732 27.3678 30.7544C26.9681 30.2355 26.4086 29.8628 25.7758 29.694V28.7018C25.7758 28.4961 25.6941 28.2987 25.5486 28.1532C25.4031 28.0078 25.2058 27.926 25 27.926C24.7943 27.926 24.5969 28.0078 24.4515 28.1532C24.306 28.2987 24.2242 28.4961 24.2242 28.7018V29.694C23.5246 29.88 22.9167 30.3145 22.5142 30.9162C22.1116 31.5179 21.942 32.2456 22.0371 32.9632C22.1322 33.6809 22.4854 34.3394 23.0307 34.8155C23.576 35.2916 24.2761 35.5528 25 35.5502C25.2838 35.5502 25.5613 35.6344 25.7973 35.7921C26.0333 35.9497 26.2172 36.1738 26.3259 36.436C26.4345 36.6982 26.463 36.9867 26.4077 37.2651C26.3523 37.5435 26.2157 37.7992 26.0151 37.9999C25.8145 38.2007 25.5588 38.3374 25.2805 38.3929C25.0021 38.4483 24.7136 38.42 24.4514 38.3115C24.1891 38.203 23.9649 38.0192 23.8071 37.7833C23.6493 37.5474 23.565 37.27 23.5649 36.9862C23.5649 36.7804 23.4831 36.5831 23.3376 36.4376C23.1922 36.2921 22.9948 36.2104 22.7891 36.2104C22.5833 36.2104 22.386 36.2921 22.2405 36.4376C22.095 36.5831 22.0133 36.7804 22.0133 36.9862C22.0161 37.6409 22.234 38.2765 22.6335 38.7951C23.033 39.3138 23.592 39.6867 24.2242 39.8565V40.8487C24.2242 41.0544 24.306 41.2518 24.4515 41.3972C24.5969 41.5427 24.7943 41.6245 25 41.6245C25.2058 41.6245 25.4031 41.5427 25.5486 41.3972C25.6941 41.2518 25.7758 41.0544 25.7758 40.8487V39.8565C26.4685 39.6636 27.0683 39.227 27.4646 38.627C27.861 38.0271 28.0272 37.3041 27.9328 36.5912C27.8384 35.8784 27.4896 35.2237 26.9507 34.7476Z" fill="white"></path><path d="M19.9359 3.27985L30.0656 3.27985C30.2191 3.27915 30.3692 3.32458 30.4965 3.41025C30.6239 3.49593 30.7225 3.61789 30.7797 3.76032C30.8388 3.90163 30.8548 4.05725 30.8257 4.20764C30.7967 4.35804 30.7239 4.49649 30.6164 4.60563L25.5515 9.67126C25.4052 9.81676 25.2072 9.89844 25.0008 9.89844C24.7944 9.89844 24.5964 9.81676 24.45 9.67126L19.3851 4.60563C19.2777 4.49649 19.2048 4.35803 19.1758 4.20764C19.1467 4.05725 19.1628 3.90163 19.2219 3.76032C19.279 3.61789 19.3777 3.49593 19.505 3.41025C19.6323 3.32458 19.7824 3.27914 19.9359 3.27985Z" fill="#FFFE24"></path><path d="M3.59507 18.3893C3.56469 18.2385 3.58043 18.0821 3.64023 17.9404C3.69866 17.799 3.7975 17.678 3.92438 17.5925C4.05126 17.507 4.20054 17.4609 4.35352 17.4599L6.61836 17.4599L6.61836 10.1372C6.61805 10.0353 6.63791 9.93425 6.67678 9.83999C6.71566 9.74573 6.77279 9.66008 6.84489 9.58798C6.91699 9.51588 7.00264 9.45875 7.0969 9.41987C7.19116 9.381 7.29218 9.36114 7.39414 9.36145L11.4512 9.36145C11.5531 9.36125 11.654 9.38118 11.7482 9.4201C11.8423 9.45902 11.9279 9.51617 11.9999 9.58826C12.0719 9.66035 12.129 9.74596 12.1678 9.84017C12.2067 9.93438 12.2265 10.0353 12.2262 10.1372L12.2262 17.4599L14.484 17.4599C14.6368 17.4617 14.7856 17.5083 14.9122 17.5939C15.0388 17.6795 15.1375 17.8003 15.1961 17.9414C15.2547 18.0824 15.2707 18.2376 15.242 18.3877C15.2133 18.5378 15.1413 18.6761 15.0348 18.7857L9.96914 23.8513C9.89737 23.9232 9.81213 23.9802 9.71829 24.0192C9.62445 24.0581 9.52386 24.0781 9.42227 24.0781C9.32067 24.0781 9.22008 24.0581 9.12624 24.0192C9.0324 23.9802 8.94716 23.9232 8.87539 23.8513L3.81055 18.7857C3.70054 18.6782 3.62545 18.54 3.59507 18.3893Z" fill="#FFFE24"></path><path d="M40.0479 23.857L34.9822 18.7913C34.8739 18.6828 34.7999 18.5447 34.7696 18.3944C34.7393 18.244 34.754 18.0881 34.8119 17.946C34.8721 17.8043 34.9724 17.6832 35.1005 17.5978C35.2287 17.5124 35.379 17.4665 35.533 17.4656L37.7901 17.4656L37.7901 10.1429C37.7897 10.0409 37.8096 9.93992 37.8485 9.84566C37.8874 9.75139 37.9445 9.66575 38.0166 9.59365C38.0887 9.52155 38.1743 9.46442 38.2686 9.42554C38.3628 9.38666 38.4639 9.36681 38.5658 9.36712L42.6229 9.36712C42.7248 9.36691 42.8257 9.38684 42.9199 9.42577C43.014 9.46469 43.0996 9.52184 43.1716 9.59393C43.2436 9.66602 43.3007 9.75163 43.3395 9.84584C43.3783 9.94005 43.3982 10.041 43.3979 10.1429L43.3979 17.4656L45.6635 17.4656C45.8158 17.4685 45.9638 17.516 46.0895 17.6021C46.2151 17.6882 46.3128 17.8091 46.3705 17.9501C46.4282 18.091 46.4434 18.2458 46.4143 18.3952C46.3851 18.5447 46.3129 18.6824 46.2065 18.7913L41.1416 23.857C40.9949 23.9988 40.7988 24.0781 40.5947 24.0781C40.3907 24.0781 40.1946 23.9988 40.0479 23.857Z" fill="#FFFE24"></path></svg> 