<?xml version="1.0" encoding="UTF-8"?> <svg xmlns="http://www.w3.org/2000/svg" width="50" height="50" viewBox="0 0 50 50" fill="none"><path d="M31.5258 12.1625H36.9946L28.4008 3.57812V9.03828C28.4021 9.86663 28.7317 10.6607 29.3175 11.2463C29.9033 11.832 30.6975 12.1615 31.5258 12.1625Z" fill="white"></path><path d="M40.9539 38.2828L39.0946 37.6656C38.8161 37.928 38.5155 38.1658 38.1961 38.3766C36.8591 39.2589 35.2652 39.6682 33.6685 39.5394C32.0718 39.4105 30.5642 38.7509 29.386 37.6656L27.5266 38.2828C26.5676 38.602 25.7337 39.2154 25.1434 40.0357C24.5531 40.8561 24.2364 41.8417 24.2383 42.8523C24.2417 42.9275 24.2402 43.1741 24.2383 43.4842C24.2342 44.1735 24.2281 45.1761 24.2696 45.3055C24.3549 45.7466 24.5909 46.1444 24.9373 46.4308C25.2836 46.7171 25.7186 46.8741 26.168 46.875H42.3125C42.8252 46.8756 43.3172 46.6728 43.6805 46.311C44.0437 45.9492 44.2486 45.458 44.25 44.9453V42.8516C44.2502 41.8402 43.9317 40.8545 43.3399 40.0344C42.7481 39.2143 41.9138 38.6014 40.9539 38.2828Z" fill="#FFFE24"></path><path d="M31.1504 37.0795C31.877 37.5613 32.7063 37.8665 33.5719 37.9707C34.4375 38.0749 35.3155 37.9751 36.1356 37.6794C36.9558 37.3837 37.6954 36.9003 38.2954 36.2677C38.8954 35.6351 39.3391 34.871 39.5911 34.0363C39.843 33.2017 39.8963 32.3197 39.7465 31.4608C39.5968 30.6019 39.2482 29.7899 38.7286 29.0898C38.2091 28.3897 37.533 27.8208 36.7543 27.4286C35.9756 27.0364 35.116 26.8318 34.2442 26.8311C28.7418 26.8248 26.602 34.0678 31.1504 37.0795Z" fill="#FFFE24"></path><path fill-rule="evenodd" clip-rule="evenodd" d="M23.8768 39.1202C23.0943 40.2068 22.6743 41.5125 22.6764 42.8516L22.6756 42.8508C22.6489 43.7653 22.6698 44.6806 22.7381 45.593C22.8242 46.0473 22.9994 46.4801 23.2537 46.8664H11.0537C9.64772 46.8639 8.30001 46.3044 7.30574 45.3102C6.31148 44.3161 5.75171 42.9685 5.74902 41.5625V8.42891C5.75171 7.02305 6.31137 5.67554 7.30547 4.68144C8.29956 3.68735 9.64707 3.12768 11.0529 3.125H26.8396V9.0375C26.8417 10.2798 27.336 11.4706 28.2143 12.3492C29.0926 13.2278 30.2833 13.7225 31.5256 13.725H37.4467V26.0273C32.8654 23.6039 26.9748 27.2234 27.0975 32.4242C27.0949 33.8335 27.5109 35.2118 28.2928 36.3844L27.035 36.7984C25.7643 37.2211 24.6593 38.0335 23.8768 39.1202ZM21.6061 14.8422H9.88965C9.68245 14.8422 9.48373 14.9245 9.33722 15.071C9.19071 15.2175 9.1084 15.4162 9.1084 15.6234C9.1084 15.8306 9.19071 16.0294 9.33722 16.1759C9.48373 16.3224 9.68245 16.4047 9.88965 16.4047H21.6061C21.8133 16.4047 22.012 16.3224 22.1585 16.1759C22.305 16.0294 22.3873 15.8306 22.3873 15.6234C22.3873 15.4162 22.305 15.2175 22.1585 15.071C22.012 14.9245 21.8133 14.8422 21.6061 14.8422ZM24.7225 21.0914H9.88965C9.68245 21.0914 9.48373 21.1737 9.33722 21.3202C9.19071 21.4667 9.1084 21.6655 9.1084 21.8727C9.1084 22.0799 9.19071 22.2786 9.33722 22.4251C9.48373 22.5716 9.68245 22.6539 9.88965 22.6539H24.7225C24.9297 22.6539 25.1284 22.5716 25.2749 22.4251C25.4214 22.2786 25.5037 22.0799 25.5037 21.8727C25.5037 21.6655 25.4214 21.4667 25.2749 21.3202C25.1284 21.1737 24.9297 21.0914 24.7225 21.0914ZM9.33722 28.6735C9.48373 28.82 9.68245 28.9023 9.88965 28.9023H26.6443C26.8515 28.9023 27.0502 28.82 27.1968 28.6735C27.3433 28.527 27.4256 28.3283 27.4256 28.1211C27.4256 27.9139 27.3433 27.7152 27.1968 27.5687C27.0502 27.4222 26.8515 27.3398 26.6443 27.3398H9.88965C9.68245 27.3398 9.48373 27.4222 9.33722 27.5687C9.19071 27.7152 9.1084 27.9139 9.1084 28.1211C9.1084 28.3283 9.19071 28.527 9.33722 28.6735ZM12.5 41.0736C12.0938 41.0732 11.7045 40.9505 11.4173 40.7325C11.1301 40.5145 10.9685 40.2189 10.968 39.9106C10.968 39.7125 10.8643 39.5225 10.6798 39.3825C10.4952 39.2424 10.2449 39.1637 9.98398 39.1637C9.72301 39.1637 9.47273 39.2424 9.2882 39.3825C9.10367 39.5225 9 39.7125 9 39.9106C9.00261 40.4829 9.24907 41.0392 9.70255 41.4964C10.156 41.9535 10.7922 42.2871 11.516 42.4472V43.2531C11.516 43.4512 11.6197 43.6412 11.8042 43.7812C11.9888 43.9213 12.239 44 12.5 44C12.761 44 13.0112 43.9213 13.1958 43.7812C13.3803 43.6412 13.484 43.4512 13.484 43.2531V42.4472C14.2845 42.2635 14.9718 41.8681 15.4212 41.3327C15.8706 40.7974 16.0522 40.1574 15.9332 39.5291C15.8141 38.9007 15.4023 38.3256 14.7724 37.908C14.1425 37.4904 13.3363 37.258 12.5 37.2531C12.197 37.2531 11.9008 37.1849 11.6488 37.0571C11.3969 36.9293 11.2005 36.7477 11.0846 36.5352C10.9686 36.3227 10.9383 36.0888 10.9974 35.8632C11.0565 35.6377 11.2024 35.4304 11.4167 35.2678C11.6309 35.1052 11.9039 34.9944 12.2011 34.9495C12.4983 34.9046 12.8063 34.9277 13.0863 35.0157C13.3662 35.1037 13.6055 35.2528 13.7739 35.444C13.9422 35.6353 14.032 35.8601 14.032 36.0901C14.032 36.2882 14.1357 36.4782 14.3202 36.6183C14.5048 36.7584 14.7551 36.837 15.016 36.837C15.277 36.837 15.5273 36.7584 15.7118 36.6183C15.8963 36.4782 16 36.2882 16 36.0901C15.9978 35.5176 15.7516 34.961 15.298 34.5035C14.8445 34.046 14.2081 33.7122 13.484 33.5521V32.7469C13.484 32.5488 13.3803 32.3588 13.1958 32.2188C13.0112 32.0787 12.761 32 12.5 32C12.239 32 11.9888 32.0787 11.8042 32.2188C11.6197 32.3588 11.516 32.5488 11.516 32.7469V33.5521C10.7155 33.7357 10.0282 34.1311 9.5788 34.6665C9.12944 35.2019 8.9478 35.8418 9.06684 36.4702C9.18588 37.0985 9.5977 37.6737 10.2276 38.0913C10.8575 38.5089 11.6637 38.7412 12.5 38.7462C12.8997 38.7539 13.2797 38.8798 13.5588 39.0971C13.838 39.3145 13.9942 39.606 13.9942 39.9095C13.9942 40.213 13.838 40.5045 13.5588 40.7219C13.2797 40.9392 12.8997 41.0659 12.5 41.0736Z" fill="white"></path></svg> 