<?xml version="1.0" encoding="UTF-8"?> <svg xmlns="http://www.w3.org/2000/svg" width="249" height="261" viewBox="0 0 249 261" fill="none"><path fill-rule="evenodd" clip-rule="evenodd" d="M124.984 7.45657L52.684 30.9484L8 92.4506V168.472L52.684 229.974L124.984 253.466L197.285 229.974L241.969 168.472V92.4506L197.285 30.9484L124.984 7.45657ZM201.63 24.9672L124.984 0.0634766L48.3385 24.9672L0.96875 90.166V170.756L48.3385 235.955L124.984 260.859L201.63 235.955L249 170.756V90.166L201.63 24.9672Z" fill="#75B6EF"></path><path fill-rule="evenodd" clip-rule="evenodd" d="M124.983 253.189L8.2627 168.387L52.846 31.1733L197.12 31.1734L241.704 168.387L124.983 253.189ZM124.025 250.122V131.782L11.4847 168.357L124.025 250.122ZM10.8798 166.537L123.172 130.043L53.7083 34.7251L10.8798 166.537ZM54.8902 33.091L194.757 33.091L124.984 128.864L54.8902 33.091ZM196.16 34.4221L126.537 129.959L239.087 166.537L196.16 34.4221ZM238.482 168.357L125.942 131.782V250.122L238.482 168.357Z" fill="#2D8EE6"></path><path fill-rule="evenodd" clip-rule="evenodd" d="M124.983 7.73346L8.2627 92.5359L52.846 229.749L197.12 229.749L241.704 92.5358L124.983 7.73346ZM124.025 10.8002V129.141L11.4847 92.5652L124.025 10.8002ZM10.8798 94.3849L123.172 130.88L53.7083 226.197L10.8798 94.3849ZM54.8902 227.831L194.757 227.831L124.984 132.059L54.8902 227.831ZM196.16 226.5L126.537 130.964L239.087 94.3851L196.16 226.5ZM238.482 92.5653L125.942 129.141V10.8005L238.482 92.5653Z" fill="#75B6EF"></path></svg> 