<?xml version="1.0" encoding="UTF-8"?> <svg xmlns="http://www.w3.org/2000/svg" width="248" height="32" viewBox="0 0 248 32" fill="none"><path d="M1 31V1H13.1842C15.9257 1 18.058 1.12196 19.4591 1.42684C21.4695 1.79269 23.2363 2.5244 24.6374 3.56098C26.526 4.90245 27.9272 6.60976 28.841 8.68293C29.7548 10.7561 30.2422 13.1341 30.2422 15.8171C30.2422 18.0732 29.9376 20.0854 29.3284 21.8537C28.7192 23.622 27.8663 25.0854 26.8915 26.2439C25.9168 27.4024 24.8202 28.3171 23.6627 28.9878C22.5052 29.6585 21.104 30.1463 19.4591 30.5122C17.8143 30.878 15.9257 31 13.7935 31H1ZM5.69093 27.4634H13.2452C15.5602 27.4634 17.3878 27.2805 18.7281 26.9146C20.0683 26.5488 21.104 26 21.896 25.3293C22.9926 24.4146 23.8455 23.1341 24.5156 21.5488C25.1248 19.9634 25.4294 18.0122 25.4294 15.7561C25.4294 12.6463 24.8202 10.2073 23.6018 8.49999C22.3834 6.79267 20.9212 5.69513 19.1545 5.08537C17.8752 4.65854 15.8648 4.47562 13.1233 4.47562H5.69093V27.4634Z" fill="black" stroke="white" stroke-width="0.25" stroke-miterlimit="10"></path><path d="M41.1484 31V1H45.8394V31H41.1484Z" fill="black" stroke="white" stroke-width="0.25" stroke-miterlimit="10"></path><path d="M75.3828 31V1H80.0737V13.3171H98.472V1H103.163V31H98.472V16.8537H80.0737V31H75.3828Z" fill="black" stroke="white" stroke-width="0.25" stroke-miterlimit="10"></path><path d="M114.742 31V1H140.329V4.53658H119.433V13.7439H138.989V17.2805H119.433V27.4634H141.121V31H114.742Z" fill="black" stroke="white" stroke-width="0.25" stroke-miterlimit="10"></path><path d="M151.109 31V1H155.8V27.4634H173.224V31H151.109Z" fill="black" stroke="white" stroke-width="0.25" stroke-miterlimit="10"></path><path d="M182.609 31V1H208.196V4.53658H187.3V13.7439H206.856V17.2805H187.3V27.4634H208.988V31H182.609Z" fill="black" stroke="white" stroke-width="0.25" stroke-miterlimit="10"></path><path d="M219.102 31V1H223.914L242.495 24.5366V1H247.003V31H242.191L223.61 7.40244V31H219.102Z" fill="black" stroke="white" stroke-width="0.25" stroke-miterlimit="10"></path></svg> 