<?xml version="1.0" encoding="UTF-8"?> <svg xmlns="http://www.w3.org/2000/svg" width="76" height="76" viewBox="0 0 76 76" fill="none"><path d="M69.612 29.7169L46.2779 6.38106C45.7595 5.87298 44.9296 5.87298 44.4113 6.38106L8.41071 41.0505C8.14553 41.3023 7.99553 41.6518 7.99553 42.0175C7.99553 42.3827 8.14553 42.7323 8.41071 42.9841L12.651 46.9845L6.1973 57.2921C6.03793 57.5515 5.9723 57.8574 6.0107 58.1587L7.3442 68.8262V68.8266C7.42456 69.495 7.99109 69.9982 8.66388 70H8.82415C9.17862 69.9598 9.50273 69.7794 9.72327 69.4986C9.94381 69.2182 10.0425 68.8606 9.99738 68.5066L8.66387 58.3057L14.5707 48.8517L19.9043 53.8655V53.865C19.9659 53.9128 20.0333 53.953 20.1043 53.9851L15.7042 58.3855C15.1814 58.9083 15.1814 59.7562 15.7042 60.279C16.227 60.8018 17.0748 60.8018 17.5975 60.279L28.9178 48.9578C29.6227 48.1645 30.6237 47.697 31.6848 47.6657C32.7456 47.6345 33.7724 48.0425 34.5228 48.793C35.2733 49.5436 35.6809 50.5705 35.6496 51.6312C35.6184 52.692 35.151 53.6935 34.3576 54.3985L22.3574 66.3995C22.1052 66.65 21.9632 66.9907 21.9632 67.3465C21.9632 67.7019 22.1052 68.0425 22.3574 68.293C22.6079 68.5453 22.9489 68.6877 23.3043 68.6877C23.6597 68.6877 24.0007 68.5453 24.2507 68.293L29.5843 62.959L33.7576 66.9594C34.0072 67.1929 34.3362 67.3219 34.6777 67.3197C35.0407 67.3184 35.3876 67.1688 35.638 66.9063L69.6386 31.5694C70.1306 31.0457 70.1189 30.2255 69.6118 29.7161L69.612 29.7169ZM34.6251 64.12L31.4384 61.1063L36.2652 56.2925H36.2648C37.913 54.6441 38.5568 52.2417 37.9536 49.9901C37.35 47.7381 35.5915 45.9795 33.3402 45.3763C31.0888 44.7732 28.6865 45.4165 27.0382 47.0648L21.9979 52.1854C21.9479 52.0885 21.8854 51.9988 21.8113 51.9189L11.3313 41.9979L45.3181 9.19491L66.7985 30.6768L34.6251 64.12ZM50.3854 38.944C50.1331 38.6935 49.9911 38.3524 49.9911 37.997C49.9911 37.6416 50.1331 37.3005 50.3854 37.0501L58.3855 29.0493C58.9083 28.5265 59.756 28.5265 60.2788 29.0493C60.8015 29.5726 60.8015 30.42 60.2788 30.9432L52.2786 38.9439C52.0282 39.1962 51.6876 39.3382 51.3322 39.3382C50.9764 39.3382 50.6358 39.1962 50.3853 38.9439L50.3854 38.944Z" fill="#67C22F"></path></svg> 