<?xml version="1.0" encoding="UTF-8"?> <svg xmlns="http://www.w3.org/2000/svg" width="76" height="76" viewBox="0 0 76 76" fill="none"><g clip-path="url(#clip0_4875_11333)"><circle cx="32.5411" cy="32.7639" r="22.8497" transform="rotate(-45 32.5411 32.7639)" stroke="#67C22F" stroke-width="2.06897"></circle><path d="M47.4199 50.9553L49.5412 53.0766" stroke="#67C22F" stroke-width="2.06897"></path><path d="M50.9551 47.4175L53.0764 49.5388" stroke="#67C22F" stroke-width="2.06897"></path><mask id="path-5-inside-1_4875_11333" fill="white"><path d="M47.5958 55.3761C47.2053 54.9855 47.2053 54.3524 47.5958 53.9618L53.9597 47.5979C54.3503 47.2074 54.9834 47.2074 55.374 47.5979L64.2128 56.4367C66.3607 58.5846 66.3607 62.067 64.2128 64.2149C62.0649 66.3628 58.5825 66.3628 56.4346 64.2149L47.5958 55.3761Z"></path></mask><path d="M47.5958 55.3761C47.2053 54.9855 47.2053 54.3524 47.5958 53.9618L53.9597 47.5979C54.3503 47.2074 54.9834 47.2074 55.374 47.5979L64.2128 56.4367C66.3607 58.5846 66.3607 62.067 64.2128 64.2149C62.0649 66.3628 58.5825 66.3628 56.4346 64.2149L47.5958 55.3761Z" stroke="#67C22F" stroke-width="4.13793" mask="url(#path-5-inside-1_4875_11333)"></path><rect x="23.8978" y="23.7718" width="18.931" height="18.931" rx="1.96552" stroke="#67C22F" stroke-width="2.06897"></rect><path d="M30.2383 33.8635L32.5311 35.927C32.6417 36.0266 32.8142 36.008 32.9012 35.8873L37.2383 29.8635" stroke="#67C22F" stroke-width="2.06897" stroke-linecap="round"></path></g><defs><clipPath id="clip0_4875_11333"><rect width="60" height="60" fill="white" transform="translate(8 8)"></rect></clipPath></defs></svg> 