<?xml version="1.0" encoding="UTF-8"?> <svg xmlns="http://www.w3.org/2000/svg" width="76" height="76" viewBox="0 0 76 76" fill="none"><path d="M40.0796 4.00104H17.8111C15.0649 4.00104 12.8311 6.21139 12.8311 8.92864V31.7151C12.8311 32.346 13.1784 32.9262 13.7352 33.2306C13.999 33.3745 14.2898 33.4456 14.5811 33.4456C14.9058 33.4456 15.2299 33.3572 15.5143 33.1793L20.8534 29.85H34.826V33.4891C34.826 36.2064 37.0604 38.4167 39.8066 38.4167H59.0324L64.3714 41.7466C64.6559 41.9234 64.9795 42.0118 65.3046 42.0118C65.5949 42.0118 65.8868 41.9406 66.1506 41.7968C66.7084 41.4923 67.0547 40.9116 67.0547 40.2812V17.4948C67.0547 14.7776 64.8208 12.5667 62.0746 12.5667H45.0606V8.9276C45.0606 6.21034 42.8256 4 40.0794 4L40.0796 4.00104ZM62.0747 15.0386C63.4435 15.0386 64.5571 16.1408 64.5571 17.4953V38.9425L60.2934 36.2838C59.9408 36.0635 59.5342 35.9463 59.1165 35.9463L39.8069 35.9468C38.438 35.9468 37.3245 34.8451 37.3245 33.4906V17.4956C37.3245 16.1412 38.438 15.0389 39.8069 15.0389L62.0747 15.0386ZM39.8062 12.5677C37.06 12.5677 34.8256 14.7786 34.8256 17.4959V27.3798H20.7704C20.3527 27.3798 19.945 27.496 19.594 27.7168L15.3298 30.3764L15.3292 8.92926C15.3292 7.57485 16.4428 6.47303 17.8116 6.47303H40.0801C41.449 6.47303 42.5625 7.57479 42.5625 8.92926V12.5673H39.8069L39.8062 12.5677Z" fill="#67C22F"></path><path d="M18.4744 41.7656C15.1402 41.7656 12.4131 44.4651 12.4131 47.763V50.7413C12.4131 54.0404 15.1413 56.7387 18.4744 56.7387H19.9602C23.2944 56.7387 26.0215 54.0393 26.0215 50.7413V47.763C26.0215 44.4645 23.2933 41.7656 19.9602 41.7656H18.4744ZM23.6908 47.7636V50.7419C23.6908 52.7774 22.0174 54.4332 19.9602 54.4332H18.4744C16.4171 54.4332 14.7438 52.7774 14.7438 50.7419V47.7636C14.7438 45.728 16.4171 44.0723 18.4744 44.0723H19.9602C22.0174 44.0723 23.6908 45.728 23.6908 47.7636Z" fill="#67C22F"></path><path d="M30.4365 66.8471C30.4365 62.5604 26.8914 59.0532 22.5595 59.0532H15.8769C11.5445 59.0532 8 62.5605 8 66.8471L8.00053 71.5006H30.4369L30.4365 66.8471ZM28.1058 69.1945H10.3311V66.8477C10.3311 63.8223 12.8187 61.3597 15.8775 61.3597H22.5601C25.6177 61.3597 28.1065 63.8212 28.1065 66.8477L28.1059 69.1945H28.1058Z" fill="#67C22F"></path><path d="M56.0398 41.7656C52.7062 41.7656 49.9785 44.4651 49.9785 47.763V50.7413C49.9785 54.0404 52.7067 56.7387 56.0398 56.7387H57.5256C60.8592 56.7387 63.5869 54.0393 63.5869 50.7413V47.763C63.5869 44.4645 60.8587 41.7656 57.5256 41.7656H56.0398ZM61.2568 47.7636V50.7419C61.2568 52.7774 59.5834 54.4332 57.5261 54.4332H56.0404C53.9831 54.4332 52.3097 52.7774 52.3097 50.7419V47.7636C52.3097 45.728 53.9831 44.0723 56.0404 44.0723H57.5261C59.5834 44.0723 61.2568 45.728 61.2568 47.7636Z" fill="#67C22F"></path><path d="M67.9995 66.8471C67.9995 62.5604 64.4544 59.0532 60.1226 59.0532H53.4394C49.107 59.0532 45.5625 62.5605 45.5625 66.8471V71.5006H67.9988V66.8471H67.9995ZM65.6683 69.1945H47.8936V66.8477C47.8936 63.8223 50.3812 61.3597 53.44 61.3597H60.1226C63.1802 61.3597 65.669 63.8212 65.669 66.8477L65.6684 69.1945H65.6683Z" fill="#67C22F"></path></svg> 