<?xml version="1.0" encoding="UTF-8"?> <svg xmlns="http://www.w3.org/2000/svg" width="76" height="76" viewBox="0 0 76 76" fill="none"><path d="M63.9642 31.749H59.4815C58.7991 31.749 58.1765 31.3514 57.9715 30.7792C57.7466 30.1567 57.4941 29.5491 57.2138 28.9566C56.964 28.4243 57.1164 27.7265 57.5866 27.2568L60.7792 24.0618C62.3544 22.4868 62.3544 19.9246 60.7792 18.3495L57.6541 15.2247C56.0766 13.6524 53.5138 13.6524 51.9386 15.2247L48.7459 18.4171C48.2757 18.8872 47.5761 19.0418 47.0482 18.7898C46.4556 18.5096 45.8458 18.2575 45.2204 18.0299C44.65 17.8272 44.2528 17.207 44.2528 16.5224V12.0397C44.2528 9.81228 42.44 8 40.2122 8H35.7921C33.5644 8 31.7515 9.81216 31.7515 12.0397V16.5219C31.7515 17.2043 31.3538 17.8245 30.7816 18.0317C30.159 18.2566 29.5491 18.5069 28.9588 18.7893C28.4264 19.0391 27.7263 18.8868 27.2588 18.4167L24.0634 15.2248C22.4859 13.6524 19.9231 13.6524 18.3479 15.2248L15.2256 18.3496C13.6504 19.9246 13.6504 22.4868 15.2256 24.0618L18.4209 27.2592C18.8884 27.727 19.0407 28.4244 18.7909 28.9566C18.5107 29.5492 18.2586 30.1568 18.0309 30.7816C17.8282 31.3519 17.208 31.7491 16.5233 31.7491H12.0402C9.81247 31.7491 8 33.5617 8 35.7893V40.2089C8 42.4364 9.81236 44.2491 12.0402 44.2491H16.5228C17.2052 44.2491 17.8278 44.6468 18.0328 45.2189C18.2577 45.8414 18.5103 46.449 18.7905 47.0415C19.0403 47.5738 18.888 48.2716 18.4178 48.7414L15.2224 51.9337C13.6499 53.511 13.6499 56.0736 15.2224 57.6486L18.3475 60.7734C19.9251 62.3484 22.4879 62.3434 24.0631 60.7734L27.2557 57.5811C27.726 57.1109 28.4234 56.9563 28.9534 57.2084C29.5461 57.4886 30.1559 57.7407 30.7812 57.9683C31.3512 58.1732 31.7488 58.7934 31.7488 59.4781V63.9603C31.7488 66.19 33.5617 68 35.789 68H40.2091C42.4368 68 44.2493 66.1874 44.2493 63.9603V59.4781C44.2493 58.7957 44.6469 58.1754 45.2192 57.9683C45.8417 57.7434 46.4516 57.4931 47.042 57.2107C47.5743 56.9581 48.2744 57.1132 48.742 57.5833L51.9346 60.7757C53.5122 62.3507 56.075 62.3457 57.6502 60.7757L60.7753 57.6509C62.3478 56.0759 62.3505 53.5137 60.7753 51.936L57.58 48.741C57.1097 48.2735 56.9574 47.5762 57.2072 47.0435C57.4875 46.4509 57.7396 45.8433 57.9672 45.2185C58.1721 44.6486 58.7925 44.251 59.4772 44.251H63.9598C66.1875 44.251 68 42.4384 68 40.2113V35.7917C68.0045 33.5619 66.1922 31.7492 63.9644 31.7492L63.9642 31.749ZM65.5041 40.2088C65.5041 41.0589 64.814 41.7491 63.9637 41.7491H59.481C57.7358 41.7491 56.1832 42.8014 55.6209 44.3692C55.4232 44.9191 55.201 45.4541 54.9507 45.9791C54.2506 47.474 54.5984 49.2939 55.8182 50.5117L59.0108 53.704C59.6107 54.3039 59.6135 55.2841 59.0108 55.8839L55.8857 59.0087C55.2881 59.6085 54.3105 59.6085 53.7056 59.0087L50.513 55.8163C49.2927 54.5962 47.4727 54.2513 45.9777 54.949C45.4554 55.1965 44.9203 55.4192 44.3726 55.6164C42.805 56.1813 41.7522 57.7337 41.7522 59.4788V63.961C41.7522 64.8111 41.062 65.5012 40.2118 65.5012H35.7917C34.9415 65.5012 34.2513 64.8111 34.2513 63.961V59.4788C34.2513 57.7337 33.1989 56.1813 31.6336 55.6191C31.0836 55.4191 30.5485 55.1965 30.0235 54.949C29.5111 54.7064 28.9583 54.589 28.406 54.589C27.3508 54.589 26.2935 55.0138 25.4909 55.8141L22.2982 59.0064C21.7006 59.6062 20.723 59.6062 20.1181 59.0064L16.993 55.8816C16.3931 55.2818 16.3931 54.3016 16.993 53.7017L20.1857 50.5117C21.4059 49.2944 21.7559 47.4718 21.0531 45.9792C20.8055 45.4542 20.5829 44.9192 20.3856 44.3719C19.8207 42.8014 18.2681 41.749 16.5233 41.749H12.0402C11.1904 41.749 10.5003 41.0589 10.5003 40.2088V35.7891C10.5003 34.939 11.1904 34.2489 12.0407 34.2489H16.5233C18.2686 34.2489 19.8211 33.1966 20.3834 31.6288C20.5834 31.0788 20.8033 30.5438 21.0536 30.0188C21.7537 28.524 21.4059 26.7041 20.1862 25.4863L16.9931 22.2944C16.3932 21.6946 16.3932 20.717 16.9931 20.1167L20.1182 16.992C20.7181 16.3921 21.6957 16.3921 22.2983 16.992L25.4909 20.1843C26.7138 21.4044 28.534 21.7571 30.0266 21.0521C30.549 20.8045 31.0841 20.5819 31.6318 20.3847C33.1993 19.822 34.2517 18.2669 34.2517 16.5223V12.0397C34.2517 11.19 34.9418 10.4999 35.7921 10.4999H40.2122C41.0624 10.4999 41.7526 11.19 41.7526 12.0401V16.5223C41.7526 18.2674 42.805 19.8198 44.3703 20.382C44.9203 20.582 45.4554 20.8046 45.9804 21.0521C47.4704 21.7572 49.2932 21.4071 50.5135 20.1848L53.7061 16.9925C54.306 16.3926 55.2837 16.3926 55.8862 16.9925L59.0113 20.1172C59.6112 20.7171 59.6112 21.6946 59.0113 22.2949L55.8187 25.4872C54.5984 26.7045 54.2485 28.5272 54.9513 30.0198C55.1988 30.5448 55.4215 31.0798 55.6187 31.6271C56.1837 33.1971 57.7362 34.2495 59.4815 34.2495H63.9642C64.8144 34.2495 65.5045 34.9396 65.5045 35.7897L65.5041 40.2088Z" fill="#67C22F"></path><path d="M38.0014 29.25C33.176 29.25 29.251 33.1749 29.251 37.9995C29.251 42.8245 33.1763 46.7491 38.0014 46.7491C42.8269 46.7491 46.7519 42.8241 46.7519 37.9995C46.7519 33.1746 42.827 29.25 38.0014 29.25ZM38.0014 44.2494C34.5562 44.2494 31.7508 41.447 31.7508 37.9994C31.7508 34.5519 34.5562 31.7494 38.0014 31.7494C41.4467 31.7494 44.2521 34.5519 44.2521 37.9994C44.2521 41.447 41.4467 44.2494 38.0014 44.2494Z" fill="#67C22F"></path></svg> 