<?xml version="1.0" encoding="UTF-8"?> <svg xmlns="http://www.w3.org/2000/svg" width="75" height="75" viewBox="0 0 75 75" fill="none"><path d="M37.5 6.17403V37.5M37.5 37.5L65.3611 21.9284M37.5 37.5L9.63889 21.9284M37.5 37.5V68.826M65.3611 53.0714L40.0469 38.9235C39.1173 38.4039 38.6525 38.1441 38.1603 38.0423C37.7247 37.9522 37.2753 37.9522 36.8397 38.0423C36.3475 38.1441 35.8827 38.4039 34.9531 38.9235L9.63889 53.0714M67 50.883V24.117C67 22.9872 67 22.4223 66.8345 21.9184C66.6881 21.4727 66.4488 21.0635 66.1326 20.7183C65.7751 20.3281 65.2843 20.0537 64.3025 19.505L40.0469 5.94876C39.1173 5.42922 38.6525 5.16945 38.1603 5.0676C37.7247 4.97747 37.2753 4.97747 36.8397 5.0676C36.3475 5.16945 35.8827 5.42922 34.9531 5.94876L10.6975 19.505C9.71574 20.0537 9.22486 20.3281 8.86741 20.7183C8.55118 21.0635 8.31187 21.4727 8.16548 21.9184C8 22.4223 8 22.9872 8 24.117V50.883C8 52.0128 8 52.5777 8.16548 53.0816C8.31187 53.5273 8.55118 53.9365 8.86741 54.2817C9.22486 54.6719 9.71575 54.9463 10.6975 55.495L34.9531 69.0512C35.8827 69.5708 36.3475 69.8306 36.8397 69.9324C37.2753 70.0225 37.7247 70.0225 38.1603 69.9324C38.6525 69.8306 39.1173 69.5708 40.0469 69.0512L64.3025 55.495C65.2843 54.9463 65.7751 54.6719 66.1326 54.2817C66.4488 53.9365 66.6881 53.5273 66.8345 53.0816C67 52.5777 67 52.0128 67 50.883Z" stroke="#67C22F" stroke-width="2" stroke-linecap="round" stroke-linejoin="round"></path></svg> 