<?xml version="1.0" encoding="UTF-8"?> <svg xmlns="http://www.w3.org/2000/svg" width="76" height="75" viewBox="0 0 76 75" fill="none"><path d="M66.3333 50.6111H24.6667M24.6667 50.6111V9.63889M24.6667 50.6111L9.66667 65.3611M9.66667 24.3889H51.3333M51.3333 24.3889V65.3611M51.3333 24.3889L66.3333 9.63889M68 48.4388V10.6222C68 9.70436 68 9.24543 67.8183 8.89485C67.6586 8.58647 67.4036 8.33575 67.09 8.17863C66.7335 8 66.2668 8 65.3333 8H26.8758C26.0605 8 25.6529 8 25.2692 8.09057C24.9291 8.17086 24.604 8.3033 24.3057 8.48301C23.9693 8.68572 23.6811 8.96916 23.1046 9.53606L9.5621 22.8528C8.98559 23.4197 8.69734 23.7032 8.4912 24.034C8.30844 24.3272 8.17376 24.647 8.0921 24.9814C8 25.3586 8 25.7595 8 26.5612V64.3778C8 65.2956 8 65.7546 8.18166 66.1051C8.34144 66.4135 8.59641 66.6642 8.91002 66.8214C9.26654 67 9.73325 67 10.6667 67H49.1242C49.9395 67 50.3471 67 50.7308 66.9094C51.0709 66.8291 51.396 66.6967 51.6943 66.517C52.0307 66.3143 52.3189 66.0308 52.8954 65.4639L66.4379 52.1472C67.0144 51.5803 67.3027 51.2968 67.5088 50.966C67.6916 50.6728 67.8262 50.353 67.9079 50.0186C68 49.6414 68 49.2405 68 48.4388Z" stroke="#67C22F" stroke-width="2" stroke-linecap="round" stroke-linejoin="round"></path></svg> 