<?xml version="1.0" encoding="UTF-8"?> <svg xmlns="http://www.w3.org/2000/svg" width="76" height="76" viewBox="0 0 76 76" fill="none"><path d="M66.6248 64.8394C66.1292 64.3437 65.6336 63.8481 65.138 63.3525L61.0969 59.3114C59.1017 57.3162 57.1129 55.3275 55.1178 53.3323C52.6969 50.905 50.276 48.4842 47.8489 46.057C45.193 43.4011 42.5433 40.7515 39.8874 38.0955C37.1996 35.4078 34.5119 32.72 31.8305 30.0387C29.327 27.5352 26.8235 25.0317 24.3138 22.5219C22.1979 20.4061 20.082 18.2902 17.9661 16.1743C16.4538 14.662 14.9417 13.1498 13.4294 11.6375C12.705 10.9132 11.987 10.1952 11.2627 9.47088C11.231 9.43911 11.1992 9.40734 11.1674 9.37557C10.6972 8.90537 9.83312 8.86725 9.36919 9.37557C8.90525 9.88388 8.86722 10.6717 9.36919 11.1738C9.8648 11.6694 10.3604 12.165 10.856 12.6606L14.8971 16.7017C16.8923 18.6969 18.8811 20.6857 20.8762 22.6808C23.2971 25.1017 25.7244 27.529 28.1451 29.9497C30.8011 32.6057 33.4507 35.2553 36.1066 37.9112C38.7944 40.599 41.4821 43.2867 44.1635 45.9681C46.667 48.4716 49.1705 50.9751 51.6802 53.4848C53.7961 55.6007 55.912 57.7166 58.0279 59.8325C59.5402 61.3448 61.0523 62.8569 62.5646 64.3692C63.289 65.0936 64.007 65.8116 64.7313 66.5359C64.763 66.5676 64.7948 66.5994 64.8266 66.6312C65.2968 67.1014 66.1609 67.1395 66.6248 66.6312C67.095 66.1292 67.1268 65.3413 66.6248 64.8394Z" fill="#67C22F"></path><path d="M11.1663 66.631C11.6619 66.1354 12.1575 65.6398 12.6531 65.1441L16.6942 61.103C18.6894 59.1079 20.6782 57.1191 22.6733 55.1239C25.0942 52.7031 27.5215 50.2758 29.9422 47.855C32.5982 45.1991 35.2478 42.5495 37.9037 39.8935C40.5915 37.2058 43.2792 34.518 45.9606 31.8367C48.4641 29.3332 50.9676 26.8297 53.4773 24.32C55.5932 22.2041 57.7091 20.0882 59.825 17.9723C61.3373 16.46 62.8494 14.9478 64.3617 13.4355C65.0861 12.7112 65.8041 11.9932 66.5284 11.2689C66.5601 11.2371 66.5919 11.2053 66.6237 11.1736C67.0939 10.7034 67.132 9.83929 66.6237 9.37535C66.1154 8.91142 65.3275 8.87339 64.8255 9.37535L53.3184 20.8824C50.8975 23.3097 48.4767 25.7305 46.0495 28.1577C43.3936 30.8136 40.7439 33.4633 38.088 36.1192C35.4003 38.8069 32.7125 41.4947 30.0312 44.1761C27.5277 46.6795 25.0242 49.183 22.5144 51.6928C20.3985 53.8087 18.2827 55.9245 16.1668 58.0404C14.6545 59.5527 13.1423 61.0649 11.63 62.5772C10.9057 63.3015 10.1877 64.0195 9.46337 64.7438C9.4316 64.7756 9.39983 64.8074 9.36806 64.8391C8.89786 65.3093 8.85974 66.1734 9.36806 66.6374C9.87638 67.1013 10.6642 67.133 11.1663 66.631V66.631Z" fill="#67C22F"></path><path d="M11.5417 25.5902V20.4308V12.1644V10.2709C11.116 10.6966 10.6966 11.1159 10.2709 11.5417H15.4303H23.6967H25.5902C26.2574 11.5417 26.8928 10.9571 26.8611 10.2709C26.8293 9.58463 26.3019 9 25.5902 9H20.4308H12.1644H10.2709C9.58463 9 9 9.58456 9 10.2709V15.4303V23.6967V25.5902C9 26.2574 9.58456 26.8928 10.2709 26.8611C10.9571 26.8357 11.5417 26.3083 11.5417 25.5902Z" fill="#67C22F"></path><path d="M66.9999 25.5902V20.4308V12.1644V10.2709C66.9999 9.58463 66.4154 9 65.7291 9H60.5697H52.3032H50.4097C49.7425 9 49.1071 9.58456 49.1388 10.2709C49.1706 10.9571 49.698 11.5417 50.4097 11.5417H55.5691H63.8356H65.7291C65.3033 11.116 64.884 10.6966 64.4582 10.2709V15.4303V23.6967V25.5902C64.4582 26.2574 65.0428 26.8928 65.7291 26.8611C66.4153 26.8357 66.9999 26.3083 66.9999 25.5902Z" fill="#67C22F"></path><path d="M9.00098 50.4217V55.5811V63.8476V65.7411C9.00098 66.4273 9.58554 67.0119 10.2718 67.0119H15.4312H23.6977H25.5912C26.2584 67.0119 26.8938 66.4274 26.8621 65.7411C26.8303 65.0549 26.3029 64.4702 25.5912 64.4702H20.4318H12.1653H10.2718C10.6976 64.896 11.1169 65.3153 11.5427 65.7411V60.5817V52.3152V50.4217C11.5427 49.7545 10.9581 49.1191 10.2718 49.1509C9.58561 49.1763 9.00098 49.7037 9.00098 50.4217Z" fill="#67C22F"></path><path d="M64.4582 50.4217V55.5811V63.8476V65.7411C64.8839 65.3154 65.3033 64.896 65.7291 64.4702H60.5697H52.3032H50.4097C49.7425 64.4702 49.1071 65.0548 49.1388 65.7411C49.1706 66.4273 49.698 67.0119 50.4097 67.0119H55.5691H63.8356H65.7291C66.4153 67.0119 66.9999 66.4274 66.9999 65.7411V60.5817V52.3152V50.4217C66.9999 49.7545 66.4154 49.1191 65.7291 49.1509C65.0429 49.1763 64.4582 49.7037 64.4582 50.4217Z" fill="#67C22F"></path></svg> 