<?xml version="1.0" encoding="UTF-8"?> <svg xmlns="http://www.w3.org/2000/svg" width="76" height="76" viewBox="0 0 76 76" fill="none"><path d="M9.01088 56.2526C8.92886 55.6992 9.31953 55.1854 9.88358 55.1048C10.2584 55.0511 46.4675 49.4483 61.657 12.9717L54.8301 18.0732C54.6121 18.2358 54.3373 18.3065 54.0668 18.2704C53.7955 18.2344 53.5502 18.0937 53.3847 17.8803C53.0394 17.435 53.1272 16.7989 53.5811 16.4604L63.2982 9.1988C63.3413 9.16982 63.3874 9.14367 63.4349 9.12176C63.4586 9.10904 63.4788 9.09419 63.5032 9.08289C63.6061 9.03836 63.7162 9.01079 63.8284 9.0016C63.8572 8.99878 63.8845 9.0009 63.914 9.00019C64.0241 8.99807 64.1335 9.01362 64.2378 9.04613C64.2479 9.04967 64.2586 9.04684 64.2687 9.05037L64.2774 9.05532L64.2946 9.05956V9.06027C64.4011 9.10268 64.4997 9.16275 64.5853 9.23767C64.6076 9.25605 64.627 9.27443 64.6472 9.29492C64.7299 9.37267 64.7982 9.46384 64.85 9.56421L64.8551 9.57269V9.57199C64.8932 9.65185 64.9206 9.73525 64.9371 9.82148L66.9824 20.7329C67.0328 20.9972 66.9738 21.2708 66.8191 21.4927C66.6637 21.7146 66.4249 21.8666 66.1558 21.9153C65.886 21.9641 65.6083 21.9054 65.3824 21.7528C65.1572 21.5994 65.0032 21.3648 64.9543 21.0997L63.5715 13.7236C47.9304 51.3133 10.5659 57.0545 10.1791 57.1106C10.1295 57.1169 10.0799 57.1205 10.0295 57.1205C9.51796 57.1198 9.08412 56.7501 9.01075 56.2525L9.01088 56.2526ZM30.1439 65.9865V53.5583C30.1439 52.9985 29.682 52.5447 29.1121 52.5447C28.5423 52.5447 28.0804 52.9985 28.0804 53.5583V64.9736H17.7663V58.5503C17.7663 57.9905 17.3051 57.5375 16.7353 57.5375C16.1655 57.5375 15.7036 57.9905 15.7036 58.5503V65.9865C15.7036 66.2551 15.8122 66.513 16.0057 66.7032C16.1993 66.8933 16.4619 67 16.7353 67H29.1121C29.3855 67 29.6481 66.8933 29.8416 66.7032C30.0351 66.513 30.1438 66.255 30.1438 65.9865H30.1439ZM34.2691 49.6562C33.6993 49.6562 33.2374 50.1099 33.2374 50.6697V65.9864C33.2374 66.255 33.3468 66.513 33.5396 66.7031C33.7331 66.8932 33.9957 66.9999 34.2691 66.9999H46.6459C46.92 66.9999 47.1819 66.8932 47.3755 66.7031C47.569 66.513 47.6776 66.255 47.6776 65.9864V41.0822C47.6776 40.5224 47.2157 40.0687 46.6459 40.0687C46.0768 40.0687 45.6149 40.5224 45.6149 41.0822V64.975H35.3008V50.671C35.3008 50.4024 35.1921 50.1444 34.9986 49.9543C34.8051 49.7642 34.5424 49.6575 34.2691 49.6575L34.2691 49.6562ZM65.2116 65.9865V26.1314C65.2116 25.5716 64.7497 25.1179 64.1799 25.1179C63.6108 25.1179 63.1489 25.5716 63.1489 26.1314V64.9732H52.8348V36.89C52.8348 36.3309 52.3729 35.8771 51.803 35.8771C51.234 35.8771 50.7721 36.3309 50.7721 36.89V65.9865C50.7721 66.2551 50.8807 66.513 51.0742 66.7032C51.267 66.8933 51.5296 67 51.803 67H64.1798C64.454 67 64.7158 66.8933 64.9094 66.7032C65.1029 66.513 65.2115 66.255 65.2115 65.9865H65.2116Z" fill="#67C22F"></path></svg> 