<?xml version="1.0" encoding="UTF-8"?> <svg xmlns="http://www.w3.org/2000/svg" width="76" height="76" viewBox="0 0 76 76" fill="none"><path d="M9.42845 17.692C8.84977 17.093 8.85846 16.1414 9.44737 15.5527C10.0363 14.9639 10.9886 14.9553 11.5873 15.5338L16.6156 20.5599L27.7502 9.42832C28.3493 8.84981 29.3016 8.8585 29.8905 9.44723C30.4794 10.036 30.4876 10.988 29.9089 11.5865L17.6947 23.7969V23.7974C17.4084 24.0836 17.0204 24.2445 16.6155 24.2445C16.2106 24.2445 15.8221 24.0836 15.5358 23.7974L9.42845 17.692ZM37.9906 18.1391H65.473C66.316 18.1391 67 17.4558 67 16.6132C67 15.7699 66.316 15.0867 65.473 15.0867H37.9906C37.1476 15.0867 36.4636 15.7699 36.4636 16.6132C36.4636 17.4559 37.1476 18.1391 37.9906 18.1391ZM9.42845 39.061L15.5358 45.1664V45.1659C15.8221 45.4526 16.2106 45.6131 16.6155 45.6131C17.0204 45.6131 17.4084 45.4526 17.6947 45.1659L29.9089 32.9556C30.4876 32.3566 30.4794 31.4046 29.8905 30.8159C29.3016 30.2272 28.3493 30.219 27.7502 30.7975L16.6156 41.929L11.5879 36.9024C10.9887 36.3239 10.0364 36.3326 9.44749 36.9213C8.85858 37.51 8.85041 38.4621 9.42909 39.0606L9.42845 39.061ZM37.9906 39.5082H65.473C66.316 39.5082 67 38.8244 67 37.9817C67 37.139 66.316 36.4552 65.473 36.4552H37.9906C37.1476 36.4552 36.4636 37.139 36.4636 37.9817C36.4636 38.8244 37.1476 39.5082 37.9906 39.5082ZM37.9906 60.8761H65.473C66.316 60.8761 67 60.1929 67 59.3497C67 58.5069 66.316 57.8237 65.473 57.8237H37.9906C37.1476 57.8237 36.4636 58.507 36.4636 59.3497C36.4636 60.1929 37.1476 60.8761 37.9906 60.8761ZM26.8555 52.1654C26.5692 51.8792 26.1812 51.7182 25.7763 51.7182C25.3714 51.7182 24.9829 51.8792 24.6966 52.1654L19.6689 57.1915L14.6412 52.1654C14.0421 51.5869 13.0898 51.5951 12.5008 52.1838C11.9119 52.7725 11.9038 53.7246 12.4824 54.3235L17.5102 59.3496L12.4824 64.3757C12.1875 64.6604 12.0198 65.0513 12.0162 65.4607C12.0126 65.87 12.1737 66.2635 12.4635 66.5528C12.7529 66.8425 13.1465 67.0035 13.556 66.9999C13.966 66.9964 14.3565 66.8287 14.6413 66.5339L19.669 61.5078L24.6967 66.5339V66.5344C25.2959 67.1124 26.2482 67.1042 26.8371 66.5155C27.426 65.9267 27.4342 64.9747 26.8555 64.3758L21.8278 59.3497L26.8555 54.3236C27.1418 54.0374 27.3028 53.6495 27.3028 53.2448C27.3028 52.84 27.1423 52.4516 26.8555 52.1654Z" fill="#67C22F"></path></svg> 