<?xml version="1.0" encoding="UTF-8"?> <svg xmlns="http://www.w3.org/2000/svg" width="76" height="76" viewBox="0 0 76 76" fill="none"><path d="M11.4719 15.243V60.757C11.4731 61.7504 11.8638 62.7023 12.5591 63.4046C13.2544 64.1069 14.1966 64.5016 15.1799 64.5029H22.596C23.2784 64.5029 23.8321 65.0619 23.8321 65.7517C23.8321 66.4411 23.2784 67 22.596 67H15.1799C13.5415 66.9983 11.9706 66.3399 10.8122 65.1693C9.65335 63.9991 9.00159 62.4122 9 60.757V15.243C9.00166 13.5878 9.65346 12.0009 10.8122 10.8307C11.9706 9.66002 13.5415 9.00161 15.1799 9H22.596C23.2784 9 23.8321 9.55896 23.8321 10.2483C23.8321 10.9381 23.2784 11.4971 22.596 11.4971H15.1799C14.1966 11.4984 13.2543 11.893 12.5591 12.5954C11.8639 13.2978 11.4731 14.2497 11.4719 15.243ZM60.8201 64.5029H53.404C52.7216 64.5029 52.1679 65.0619 52.1679 65.7517C52.1679 66.4411 52.7216 67 53.404 67H60.8201C62.4585 66.9983 64.0294 66.3403 65.1882 65.1697C66.3469 63.999 66.9983 62.4121 67 60.757V15.243C66.9983 13.5878 66.347 12.0009 65.1882 10.8303C64.0294 9.65981 62.4584 9.00171 60.8201 9H53.404C52.7216 9 52.1679 9.55896 52.1679 10.2483C52.1679 10.9381 52.7216 11.4971 53.404 11.4971H60.8201C61.8034 11.4984 62.7457 11.893 63.4409 12.5954C64.1361 13.2978 64.5269 14.2497 64.5281 15.243V60.757C64.5269 61.7504 64.1362 62.7023 63.4409 63.4046C62.7456 64.1069 61.8034 64.5016 60.8201 64.5029Z" fill="#85DB2F"></path></svg> 