<?xml version="1.0" encoding="UTF-8"?> <svg xmlns="http://www.w3.org/2000/svg" width="88" height="44" viewBox="0 0 88 44" fill="none"><g id="shopify-ar21 1"><path id="Vector" d="M27.1861 14.0536C27.177 13.9974 27.1496 13.9458 27.108 13.9069C27.0665 13.868 27.0132 13.844 26.9565 13.8387C26.8649 13.8241 24.8519 13.6847 24.8519 13.6847L23.317 12.1499C23.1791 11.9959 22.8726 12.0413 22.7567 12.0736C22.7421 12.0736 22.4502 12.1653 21.9743 12.32C21.5108 10.9809 20.6909 9.75186 19.2477 9.75186H19.1245C18.7102 9.21652 18.2042 8.96939 17.7752 8.96939C14.4136 8.98406 12.8105 13.1773 12.3045 15.3201L9.95493 16.0409C9.23406 16.2705 9.20693 16.2873 9.11159 16.9745L7.13086 32.252L21.9794 35.0313L30.027 33.2963C30.027 33.2816 27.2015 14.2003 27.1868 14.0551L27.1861 14.0536ZM21.1507 12.5781C20.7767 12.7013 20.3441 12.8245 19.8923 12.9631V12.6867C19.907 11.9959 19.8021 11.308 19.5858 10.6509C20.3382 10.7668 20.8442 11.6116 21.1507 12.5781ZM18.6794 10.8284C18.9251 11.5522 19.0461 12.3149 19.0153 13.0797V13.2176L16.4193 14.0243C16.9275 12.1271 17.8639 11.1892 18.6779 10.8365L18.6794 10.8284ZM17.6821 9.89486C17.8361 9.89852 17.9849 9.94619 18.1118 10.0327C17.0287 10.5373 15.8839 11.8103 15.3926 14.3594L13.3393 14.9886C13.9186 13.0541 15.2701 9.89046 17.6806 9.89046L17.6821 9.89486Z" fill="#95BF47"></path><path id="Vector_2" d="M26.9574 13.838C26.8657 13.8233 24.8527 13.684 24.8527 13.684L23.3178 12.1491C23.2614 12.0905 23.1844 12.0582 23.103 12.0575L21.9824 35.0284L30.03 33.2933L27.1876 14.0668C27.1686 13.9495 27.0762 13.8556 26.9581 13.8373L26.9574 13.838Z" fill="#5E8E3E"></path><path id="Vector_3" d="M19.247 18.2908L18.2482 21.2388C17.6447 20.9455 16.984 20.7893 16.3137 20.7768C14.7466 20.7768 14.671 21.7595 14.671 22.0059C14.671 23.3479 18.1874 23.8641 18.1874 27.0277C18.1874 29.5152 16.6056 31.1124 14.4862 31.1124C11.9372 31.1124 10.6318 29.5306 10.6318 29.5306L11.3094 27.2719C11.3094 27.2719 12.6441 28.4233 13.7822 28.4233C13.9183 28.4286 14.054 28.4063 14.1811 28.3576C14.3083 28.3089 14.4242 28.2349 14.5218 28.1401C14.6195 28.0452 14.6969 27.9315 14.7492 27.8058C14.8016 27.6802 14.8279 27.5452 14.8265 27.4091C14.8265 25.6417 11.9394 25.5655 11.9394 22.6791C11.9394 20.2517 13.6891 17.8867 17.2062 17.8867C18.5885 17.9073 19.2492 18.2901 19.2492 18.2901L19.247 18.2908Z" fill="white"></path><path id="Vector_4" d="M37.0146 22.682C36.4404 22.374 36.1434 22.1078 36.1434 21.7433C36.1434 21.2813 36.5468 20.9829 37.2016 20.9829C37.6878 20.9934 38.1672 21.0982 38.6133 21.2916L39.1428 19.6827C39.1428 19.6827 38.6573 19.3072 37.2346 19.3072C35.2502 19.3072 33.8716 20.4439 33.8716 22.0411C33.8716 22.9445 34.511 23.6397 35.3705 24.1355C36.065 24.5388 36.3092 24.8057 36.3092 25.2267C36.3092 25.6476 35.9674 25.9989 35.317 25.9989C34.3585 25.9989 33.4543 25.5031 33.4543 25.5031L32.8926 27.1121C32.8926 27.1121 33.7308 27.6738 35.1307 27.6738C37.1694 27.6738 38.636 26.6706 38.636 24.8578C38.647 23.8766 37.9078 23.1931 37.0227 22.6747L37.0146 22.682ZM45.1502 19.2977C44.147 19.2977 43.3536 19.7721 42.7464 20.5047L42.7126 20.4937L43.5838 15.9353H41.3142L39.109 27.544H41.3802L42.1406 23.5752C42.4384 22.0763 43.2135 21.1493 43.9373 21.1493C44.4433 21.1493 44.6428 21.4911 44.6428 21.9875C44.6428 22.3249 44.609 22.66 44.5438 22.9907L43.6843 27.533H45.9554L46.8486 22.8397C46.9462 22.3535 47.0026 21.8599 47.0136 21.3657C47.0026 20.0867 46.3302 19.3153 45.151 19.3153L45.1502 19.2977ZM52.1389 19.2977C49.405 19.2977 47.5966 21.7675 47.5966 24.5043C47.5966 26.2687 48.6878 27.6797 50.728 27.6797C53.4098 27.6797 55.2262 25.2758 55.2262 22.473C55.2262 20.8413 54.2678 19.2977 52.1426 19.2977H52.1389ZM51.0242 25.9453C50.252 25.9453 49.922 25.2853 49.922 24.4713C49.922 23.1704 50.5923 21.043 51.8302 21.043C52.6346 21.043 52.903 21.7375 52.903 22.4107C52.9001 23.8077 52.2284 25.9453 51.0257 25.9453H51.0242ZM61.0342 19.2977C59.4942 19.2977 58.6304 20.6382 58.6304 20.6382H58.5966L58.7308 19.4311H56.7193L56.2573 22.4415L54.6806 30.7545H56.9415L57.5707 27.3915H57.6147C57.6147 27.3915 58.0767 27.6892 58.9494 27.6892C61.6172 27.6892 63.3589 24.9553 63.3589 22.1921C63.3699 20.6705 62.6886 19.3043 61.0328 19.3043L61.0342 19.2977ZM58.8621 25.9783C58.5194 25.9851 58.1859 25.8674 57.9234 25.6469L58.2989 23.5187C58.5673 22.1071 59.3021 21.1589 60.0956 21.1589C60.79 21.1589 60.999 21.7983 60.999 22.4055C61.0027 23.8847 60.1337 25.9791 58.865 25.9791L58.8621 25.9783ZM66.6134 16.0343C66.2658 16.0321 65.9314 16.17 65.6872 16.4171C65.443 16.6643 65.3074 16.9994 65.3206 17.347C65.3206 18.0173 65.751 18.4837 66.3934 18.4837H66.4272C66.6024 18.4906 66.7772 18.4616 66.9408 18.3984C67.1044 18.3351 67.2533 18.2391 67.3783 18.116C67.5033 17.993 67.6017 17.8457 67.6676 17.6832C67.7334 17.5206 67.7653 17.3463 67.7611 17.171C67.7611 16.511 67.3196 16.0343 66.6244 16.0343H66.6134ZM63.441 27.522H65.7122L67.2551 19.4773H64.9759M73.0426 19.4663H71.4564L71.5341 19.0909C71.6683 18.3187 72.1296 17.6242 72.8746 17.6242C73.1215 17.6243 73.367 17.6614 73.6028 17.7342L74.0414 15.9573C74.0414 15.9573 73.638 15.7593 72.8064 15.7593C71.9971 15.7392 71.2073 16.0089 70.5793 16.5198C69.8071 17.1798 69.4426 18.1287 69.2593 19.0887L69.186 19.4641H68.1278L67.7963 21.1728H68.8545L67.6474 27.5235H69.9266L71.1337 21.1728H72.7001L73.0081 19.4641L73.0426 19.4663ZM78.5118 19.4773L76.4496 25.0118H76.4159L75.8542 19.4773H73.4606L74.8282 26.8635C74.8611 26.9897 74.8454 27.1237 74.7842 27.2389C74.4872 27.7867 74.0641 28.2553 73.5493 28.6066C73.1548 28.8779 72.7243 29.0935 72.2704 29.2461L72.8996 31.1747C73.7315 30.952 74.4952 30.5265 75.1223 29.9361C76.1585 28.9652 77.117 27.4663 78.0996 25.4261L80.8775 19.4729H78.511L78.5118 19.4773Z" fill="black"></path></g></svg> 