<?xml version="1.0" encoding="UTF-8"?> <svg xmlns="http://www.w3.org/2000/svg" xmlns:xlink="http://www.w3.org/1999/xlink" width="113px" height="100px" viewBox="0 0 113 100"><!-- Generator: Sketch 57.1 (83088) - https://sketch.com --><title>React-icon Copy 2</title><desc>Created with Sketch.</desc><g id="Page-1" stroke="none" stroke-width="1" fill="none" fill-rule="evenodd"><g id="Services-1920-1-new-new" transform="translate(-1254.000000, -2138.000000)" fill="#2AE3FE" fill-rule="nonzero"><g id="React-icon-Copy-2" transform="translate(1254.000000, 2138.000000)"><path d="M112.839228,50 C112.839228,42.5629291 103.491463,35.5148741 89.1597561,31.1441648 C92.4670732,16.590389 90.9971545,5.01144165 84.5203252,1.30434783 C83.027439,0.434782609 81.2819106,0.0228832952 79.3756098,0.0228832952 L79.3756098,5.12585812 C80.4321138,5.12585812 81.2819106,5.33180778 81.9939024,5.7208238 C85.1174797,7.50572082 86.472561,14.3020595 85.4160569,23.0434783 C85.1634146,25.194508 84.75,27.4599542 84.2447154,29.771167 C79.7430894,28.6727689 74.8280488,27.826087 69.6603659,27.2768879 C66.5597561,23.0434783 63.3443089,19.1990847 60.1058943,15.8352403 C67.5932927,8.90160183 74.6213415,5.10297483 79.3985772,5.10297483 L79.3985772,0 C79.3985772,0 79.3985772,0 79.3985772,0 C73.0825203,0 64.8142276,4.48512586 56.454065,12.2654462 C48.0939024,4.53089245 39.8256098,0.0915331808 33.5095528,0.0915331808 L33.5095528,5.19450801 C38.2638211,5.19450801 45.3148374,8.97025172 52.8022358,15.8581236 C49.5867886,19.221968 46.3713415,23.0434783 43.3166667,27.2768879 C38.1260163,27.826087 33.2109756,28.6727689 28.7093496,29.7940503 C28.1810976,27.5057208 27.7906504,25.2860412 27.5150407,23.1578947 C26.4355691,14.416476 27.7676829,7.6201373 30.8682927,5.81235698 C31.5573171,5.40045767 32.4530488,5.2173913 33.5095528,5.2173913 L33.5095528,0.114416476 C33.5095528,0.114416476 33.5095528,0.114416476 33.5095528,0.114416476 C31.5802846,0.114416476 29.8347561,0.526315789 28.3189024,1.39588101 C21.8650407,5.10297483 20.4180894,16.6590389 23.748374,31.1670481 C9.46260163,35.5606407 0.160772358,42.5858124 0.160772358,50 C0.160772358,57.4370709 9.50853659,64.4851259 23.8402439,68.8558352 C20.5329268,83.409611 22.0028455,94.9885584 28.4796748,98.6956522 C29.972561,99.5652174 31.7180894,99.9771167 33.6473577,99.9771167 C39.9634146,99.9771167 48.2317073,95.4919908 56.5918699,87.7116705 C64.9520325,95.4462243 73.2203252,99.8855835 79.5363821,99.8855835 C81.4656504,99.8855835 83.2111789,99.4736842 84.7270325,98.604119 C91.1808943,94.8970252 92.6278455,83.3409611 89.297561,68.8329519 C103.537398,64.4622426 112.839228,57.4141876 112.839228,50 Z M82.9355691,34.7368421 C82.0857724,37.6887872 81.0292683,40.7322654 79.8349593,43.7757437 C78.8932927,41.9450801 77.9056911,40.1144165 76.8262195,38.2837529 C75.7697154,36.4530892 74.6443089,34.6681922 73.5189024,32.9290618 C76.7802846,33.409611 79.9268293,34.0045767 82.9355691,34.7368421 Z M72.4164634,59.1075515 C70.625,62.1967963 68.7876016,65.1258581 66.8813008,67.8489703 C63.4591463,68.1464531 59.9910569,68.3066362 56.5,68.3066362 C53.0319106,68.3066362 49.5638211,68.1464531 46.1646341,67.8718535 C44.2583333,65.1487414 42.3979675,62.2425629 40.6065041,59.1762014 C38.8609756,56.1784897 37.2762195,53.1350114 35.8292683,50.0686499 C37.253252,47.0022883 38.8609756,43.9359268 40.5835366,40.9382151 C42.375,37.8489703 44.2123984,34.9199085 46.1186992,32.1967963 C49.5408537,31.8993135 53.0089431,31.7391304 56.5,31.7391304 C59.9680894,31.7391304 63.4361789,31.8993135 66.8353659,32.173913 C68.7416667,34.8970252 70.6020325,37.8032037 72.3934959,40.8695652 C74.1390244,43.8672769 75.7237805,46.9107551 77.1707317,49.9771167 C75.7237805,53.0434783 74.1390244,56.1098398 72.4164634,59.1075515 Z M79.8349593,56.1327231 C81.0752033,59.1990847 82.1317073,62.2654462 83.0044715,65.2402746 C79.9957317,65.97254 76.8262195,66.590389 73.5418699,67.0709382 C74.6672764,65.3089245 75.7926829,63.5011442 76.849187,61.6475973 C77.9056911,59.8169336 78.8932927,57.9633867 79.8349593,56.1327231 Z M56.545935,80.5491991 C54.4099593,78.3524027 52.2739837,75.9038902 50.1609756,73.2265446 C52.2280488,73.3180778 54.3410569,73.3867277 56.4770325,73.3867277 C58.6359756,73.3867277 60.7719512,73.3409611 62.8619919,73.2265446 C60.7949187,75.9038902 58.6589431,78.3524027 56.545935,80.5491991 Z M39.4581301,67.0709382 C36.196748,66.590389 33.0502033,65.9954233 30.0414634,65.2631579 C30.8912602,62.3112128 31.9477642,59.2677346 33.1420732,56.2242563 C34.0837398,58.0549199 35.0713415,59.8855835 36.150813,61.7162471 C37.2302846,63.5469108 38.3327236,65.3318078 39.4581301,67.0709382 Z M56.4310976,19.4508009 C58.5670732,21.6475973 60.7030488,24.0961098 62.8160569,26.7734554 C60.7489837,26.6819222 58.6359756,26.6132723 56.5,26.6132723 C54.3410569,26.6132723 52.2050813,26.6590389 50.1150407,26.7734554 C52.1821138,24.0961098 54.3180894,21.6475973 56.4310976,19.4508009 Z M39.4351626,32.9290618 C38.3097561,34.6910755 37.1843496,36.4988558 36.1278455,38.3524027 C35.0713415,40.1830664 34.0837398,42.01373 33.1420732,43.8443936 C31.9018293,40.778032 30.8453252,37.7116705 29.972561,34.7368421 C32.9813008,34.02746 36.150813,33.409611 39.4351626,32.9290618 Z M18.6495935,61.5789474 C10.5191057,58.1235698 5.25955285,53.5926773 5.25955285,50 C5.25955285,46.4073227 10.5191057,41.8535469 18.6495935,38.4210526 C20.6247967,37.5743707 22.7837398,36.819222 25.0115854,36.1098398 C26.3207317,40.5949657 28.0432927,45.2631579 30.1792683,50.0457666 C28.0662602,54.805492 26.3666667,59.4508009 25.0804878,63.9130435 C22.8067073,63.2036613 20.6477642,62.4256293 18.6495935,61.5789474 Z M31.0060976,94.2791762 C27.8825203,92.4942792 26.527439,85.6979405 27.5839431,76.9565217 C27.8365854,74.805492 28.25,72.5400458 28.7552846,70.228833 C33.2569106,71.3272311 38.1719512,72.173913 43.3396341,72.7231121 C46.4402439,76.9565217 49.6556911,80.8009153 52.8941057,84.1647597 C45.4067073,91.0983982 38.3786585,94.8970252 33.6014228,94.8970252 C32.5678862,94.8741419 31.695122,94.6681922 31.0060976,94.2791762 Z M85.4849593,76.8421053 C86.5644309,85.583524 85.2323171,92.3798627 82.1317073,94.187643 C81.4426829,94.5995423 80.5469512,94.7826087 79.4904472,94.7826087 C74.7361789,94.7826087 67.6851626,91.006865 60.1977642,84.1189931 C63.4132114,80.7551487 66.6286585,76.9336384 69.6833333,72.7002288 C74.8739837,72.1510297 79.7890244,71.3043478 84.2906504,70.1830664 C84.8189024,72.4942792 85.2323171,74.7139588 85.4849593,76.8421053 Z M94.327439,61.5789474 C92.3522358,62.4256293 90.1932927,63.180778 87.9654472,63.8901602 C86.6563008,59.4050343 84.9337398,54.7368421 82.7977642,49.9542334 C84.9107724,45.194508 86.6103659,40.5491991 87.8965447,36.0869565 C90.1703252,36.7963387 92.3292683,37.5743707 94.3504065,38.4210526 C102.480894,41.8764302 107.740447,46.4073227 107.740447,50 C107.71748,53.5926773 102.457927,58.1464531 94.327439,61.5789474 Z" id="Shape"></path><ellipse id="Oval" cx="56.4770325" cy="50" rx="10.4961382" ry="10.4576659"></ellipse></g></g></g></svg> 