<?xml version="1.0" encoding="UTF-8"?> <svg xmlns="http://www.w3.org/2000/svg" width="200" height="200" viewBox="0 0 200 200" fill="none"><path d="M78.1902 47.0878C86.839 44.5652 94.5569 43.7344 97.3347 43.6343L98.6861 156.249L88.0253 137.78C85.3476 136.729 77.1242 133.531 65.6525 129.146C51.3129 123.666 47.1086 112.479 48.6852 110.302C49.9465 108.56 52.7644 109.076 54.0157 109.551C56.2179 111.078 63.22 113.696 73.6106 111.954C84.0012 110.212 86.2485 95.9125 86.0733 88.9804C86.2735 86.3528 84.9772 81.0974 78.1902 81.0974C71.4033 81.0974 69.5064 86.3528 69.4063 88.9804V97.3139C63.7506 97.339 52.0487 97.374 50.4871 97.3139C48.5351 97.2388 36.2976 95.1367 29.841 80.4968C24.6757 68.7849 32.3936 62.2032 36.8982 60.3763C47.0585 56.9979 69.5414 49.6104 78.1902 47.0878Z" fill="#452A0B"></path><path d="M121.81 47.0878C113.161 44.5652 105.443 43.7344 102.665 43.6343L101.314 156.249L111.975 137.78C114.652 136.729 122.876 133.531 134.347 129.146C148.687 123.666 152.891 112.479 151.315 110.302C150.053 108.56 147.236 109.076 145.984 109.551C143.782 111.078 136.78 113.696 126.389 111.954C115.999 110.212 113.752 95.9125 113.927 88.9804C113.726 86.3528 115.023 81.0974 121.81 81.0974C128.597 81.0974 130.494 86.3528 130.594 88.9804V97.3139C136.249 97.339 147.951 97.374 149.513 97.3139C151.465 97.2388 163.702 95.1367 170.159 80.4968C175.324 68.7849 167.606 62.2032 163.102 60.3763C152.941 56.9979 130.459 49.6104 121.81 47.0878Z" fill="#452A0B"></path></svg> 