<?xml version="1.0" encoding="UTF-8"?> <svg xmlns="http://www.w3.org/2000/svg" width="326" height="85" viewBox="0 0 326 85" fill="none"><path d="M66.817 40.5742C67.4633 40.5526 68.0766 40.2826 68.5298 39.8201C68.9831 39.3578 69.2417 38.7382 69.2522 38.0898C69.2637 37.2969 68.964 36.531 68.4178 35.9576C67.8715 35.3842 67.1225 35.0488 66.3321 35.0239C65.6138 35.0318 64.9264 35.3179 64.4137 35.8223C63.9008 36.3266 63.6024 37.0103 63.5807 37.7304C63.6956 38.5124 64.0844 39.2282 64.6773 39.7491C65.2702 40.2702 66.0287 40.5627 66.817 40.5742Z" fill="black"></path><path d="M323.22 49.9305C322.301 49.5203 321.284 49.3881 320.291 49.55C314.651 49.9412 309.031 50.4593 303.423 51.0405C288.782 52.6122 274.286 55.3448 260.074 59.2127C249.301 62.0988 238.652 65.4079 227.837 68.1142C224.523 69.0237 221.137 69.6357 217.716 69.9432C213.025 70.2603 211.053 68.1353 211.623 63.4837C211.623 63.3357 211.623 63.1984 211.686 63.0504C212.155 60.0774 212.86 57.1466 213.794 54.2862C214.511 51.8759 215.249 49.4866 215.903 47.0656C216.309 45.6932 216.382 44.2432 216.114 42.8369C216.05 42.3335 215.871 41.8518 215.591 41.4288C215.312 41.0057 214.939 40.6529 214.502 40.3974C214.065 40.142 213.575 39.9908 213.07 39.9555C212.565 39.9201 212.059 40.0017 211.591 40.1939C210.311 40.6448 209.07 41.1999 207.88 41.8538C205.023 43.3548 202.304 45.0781 199.594 46.8224C198.888 47.277 198.414 47.4461 197.939 46.4841C197.585 45.8987 197.106 45.3985 196.538 45.0184C195.97 44.6385 195.325 44.3883 194.65 44.2852C191.639 43.4827 188.439 43.8293 185.668 45.2579C181.293 47.4145 168.253 59.1282 166.039 60.8197C158.939 66.2728 151.302 70.9839 143.247 74.8802C141.821 75.5399 140.353 76.1016 138.851 76.5612C137.155 77.1353 135.368 77.3899 133.58 77.3119C132.207 77.313 130.87 76.8731 129.764 76.0571C128.658 75.2411 127.841 74.0915 127.434 72.7766C126.902 71.0655 126.636 69.2826 126.643 67.4904C126.577 66.822 126.692 66.1481 126.976 65.5396C127.26 64.9311 127.702 64.4108 128.256 64.0336C133.068 60.1724 137.563 55.93 141.697 51.3472C151.965 39.9929 160.041 27.18 166.83 13.5104C167.537 12.0213 168.149 10.4888 168.664 8.92223C169.166 7.56956 169.42 6.13683 169.412 4.69346C169.339 1.82849 167.578 0.665578 164.964 1.77563C163.412 2.49436 161.988 3.46205 160.747 4.64061C149.506 14.3641 140.085 26.0207 132.926 39.0627C128.92 46.2016 126.147 53.9689 124.725 62.0354C124.66 62.5953 124.478 63.1352 124.191 63.6197C123.904 64.1042 123.518 64.5226 123.059 64.8476C117.155 69.387 110.893 73.4387 104.336 76.9629C101.509 78.5119 98.545 79.793 95.4811 80.7899C93.85 81.3269 92.1559 81.6469 90.442 81.7415C87.1633 81.8683 85.1708 80.4305 84.2325 77.2696C83.759 75.5504 83.5877 73.7617 83.7266 71.9837C83.9691 66.317 85.698 61.01 87.6799 55.7663C87.8074 55.435 88.0215 55.1445 88.2999 54.925C88.5781 54.7056 88.9102 54.5652 89.2612 54.5188C92.4827 53.6232 95.581 52.3306 98.4855 50.6707C105.997 46.6545 113.065 41.8527 119.57 36.3458C124.923 31.892 129.604 26.6822 133.464 20.879C135.419 18.0461 136.98 14.9588 138.103 11.7026C138.819 9.74309 139.103 7.65118 138.935 5.57094C138.472 1.68048 136.078 -0.275322 132.188 0.0312624C130.055 0.277584 127.996 0.961308 126.137 2.03992C122.556 4.00333 119.228 6.39991 116.228 9.17595C104.024 20.11 94.2318 33.48 87.4795 48.4293C85.1262 51.4797 82.5878 54.3819 79.8787 57.1196C75.6253 60.6272 71.1341 63.8348 66.4377 66.7187C64.4296 67.9638 62.286 68.9747 60.0492 69.7318C57.1502 70.6304 56.275 70.0067 56.6019 66.9831C57.0398 62.3987 58.5107 57.9741 60.9031 54.043C61.2756 53.4349 61.7937 52.9297 62.4105 52.5736C63.9393 51.675 64.3609 50.269 63.6335 48.9792C63.2288 48.3345 62.5887 47.874 61.85 47.6961C61.1113 47.5183 60.3326 47.6373 59.6802 48.0276C58.6837 48.6032 57.8661 49.4449 57.3188 50.4593C56.187 52.1811 54.9438 53.8268 53.5974 55.3858C50.6976 57.601 47.6664 59.6382 44.5207 61.4857C43.7612 62.0696 42.8573 62.4351 41.9062 62.5428C41.8627 60.666 41.926 58.7882 42.0959 56.9186C42.1935 55.4132 42.062 53.9018 41.7061 52.4361C40.8521 49.698 38.9018 48.8312 36.4351 50.1631C35.313 50.7938 34.2352 51.5002 33.2092 52.2776C30.8372 54.0114 28.5178 55.8086 26.1459 57.5635C25.566 57.9864 24.5224 58.737 24.0375 58.5574C23.5526 58.3776 24.4802 55.9143 24.7017 54.6563C25.0655 53.2721 25.295 51.8559 25.3869 50.4275C25.3869 47.9431 23.6159 46.6005 21.2333 47.2559C20.2546 47.5527 19.3242 47.9908 18.4713 48.5564C15.498 50.424 12.646 52.479 9.93226 54.7091C9.44333 55.2483 8.82706 55.6554 8.14011 55.8932C8.22444 54.7302 9.08888 54.3392 9.80575 53.7788C10.3108 53.3693 10.6778 52.8136 10.857 52.1876C11.0362 51.5614 11.0188 50.8954 10.8072 50.2795C10.712 49.7795 10.464 49.3214 10.0975 48.9692C9.73106 48.6167 9.26433 48.3875 8.76208 48.3131C8.15628 48.2109 7.53373 48.3042 6.98425 48.5797C6.43478 48.8552 5.98677 49.2987 5.70489 49.846C5.63111 49.9623 5.54676 50.0785 5.47298 50.2054C3.44938 53.4232 1.79435 56.8598 0.539289 60.4496C0.32099 61.0572 0.158668 61.6836 0.0543555 62.3209C-0.0473689 62.8185 -0.00573475 63.3348 0.174392 63.8093C0.354519 64.284 0.665692 64.6974 1.07152 65.0012C1.47735 65.3053 1.96105 65.4868 2.46606 65.5252C2.97108 65.5636 3.47651 65.4568 3.92328 65.2177C4.81585 64.7537 5.6391 64.1665 6.36904 63.4732C9.94281 60.4919 16.7635 54.5295 16.7635 54.5295C16.7635 54.5295 19.9261 51.5059 21.1701 51.6432C21.6972 51.7596 21.0225 53.0282 20.78 54.3178C20.373 55.976 20.1538 57.6747 20.1264 59.3819C20.2318 62.4478 22.2982 63.7058 25.1022 62.4478C26.1991 61.9179 27.2349 61.2691 28.1912 60.513C30.8687 58.4726 33.5254 56.4112 36.2136 54.3815C36.8778 53.8846 39.3762 52.6159 39.0179 55.9671C38.8386 57.6797 38.9018 59.403 38.8807 61.1263C38.8312 61.9136 38.8664 62.7041 38.9861 63.4837C39.037 63.8213 39.155 64.1449 39.3334 64.4355C39.5116 64.726 39.7468 64.9775 40.0243 65.1749C40.3019 65.3722 40.6161 65.5115 40.9486 65.5843C41.2812 65.6568 41.6248 65.6616 41.959 65.5982C42.8129 65.4842 43.6366 65.2039 44.3836 64.7735C45.6909 64.044 46.9981 63.2934 48.2632 62.4794C50.0236 61.4223 51.6999 60.1113 53.5342 59.1705C52.7796 61.829 52.2889 64.5555 52.0687 67.3109C52.1322 68.0296 52.1533 68.6852 52.248 69.3195C52.2997 70.057 52.5006 70.776 52.8385 71.4331C53.1763 72.0902 53.6442 72.6713 54.2132 73.1412C54.7823 73.6111 55.4411 73.9598 56.1489 74.166C56.8568 74.3724 57.5992 74.4319 58.3307 74.341C59.8984 74.2037 61.4314 73.7996 62.8639 73.1464C66.0969 71.7842 69.1666 70.0607 72.0145 68.0085C75.409 65.6298 78.7192 63.1243 82.082 60.6822L82.9887 60.0268C82.0664 62.9514 81.3998 65.9511 80.9962 68.9917C80.4598 72.189 80.6691 75.4674 81.6076 78.5699C82.1142 80.3483 83.2052 81.9029 84.7035 82.9816C86.202 84.06 88.0198 84.599 89.8621 84.5114C90.6493 84.5061 91.4352 84.4425 92.213 84.3209C95.4604 83.7821 98.6111 82.7669 101.564 81.308C108.724 77.86 115.54 73.736 121.921 68.9917C122.532 68.4191 123.248 67.9704 124.029 67.6702C124.24 69.0551 124.366 70.271 124.598 71.4549C125.652 76.9313 129.226 79.7328 134.771 79.5003C137.92 79.2867 140.992 78.438 143.806 77.0052C152.397 72.9825 160.583 68.1432 168.253 62.5535C167.346 65.5771 169.307 67.7019 172.385 67.1629C174.132 66.7706 175.81 66.1147 177.361 65.2177C181.757 62.9658 185.911 60.3016 190.096 57.6692C196.147 53.8527 202.029 49.7721 208.186 46.1247C209.547 45.2662 210.996 44.5572 212.508 44.0104C212.766 44.7678 212.766 45.5894 212.508 46.3468C211.812 48.9051 211.075 51.4529 210.4 54.0114C209.483 57.479 208.471 60.9254 208.46 64.5832C208.46 69.9855 211.19 72.7766 216.62 72.8823C219.626 72.8522 222.617 72.4366 225.518 71.6452C234.351 69.5309 243.018 66.8455 251.724 64.245C271.438 58.4515 291.372 53.6731 311.993 52.6159C315.388 52.4467 318.826 51.8548 322.177 53.0917C322.381 53.1686 322.597 53.2037 322.814 53.1952C323.031 53.1867 323.244 53.1346 323.442 53.0417C323.638 52.9491 323.814 52.8179 323.959 52.6558C324.105 52.4936 324.216 52.3038 324.285 52.0978C324.409 51.6684 324.368 51.2088 324.17 50.808C323.974 50.4074 323.635 50.0946 323.22 49.9305ZM128.657 55.6288C132.31 44.3545 138.03 33.8636 145.524 24.6956C150.397 18.4941 155.817 12.7446 161.717 7.51616C163.019 6.25088 164.513 5.20167 166.144 4.40803C166.766 4.9472 166.545 5.46522 166.461 5.91981C166.095 7.97095 165.435 9.95803 164.5 11.8189C155.644 29.7912 144.754 46.3679 129.405 59.604C128.868 60.0584 128.351 60.4919 127.392 61.2636C127.586 59.3381 128.021 57.4447 128.689 55.6288H128.657ZM90.5895 48.8523C98.0321 33.3749 108.068 19.9381 121.457 9.12309C123.621 7.34921 125.984 5.83427 128.499 4.6089C129.772 3.94858 131.154 3.52589 132.579 3.3614C132.915 3.28787 133.264 3.29013 133.6 3.36803C133.935 3.44592 134.249 3.59751 134.52 3.81188C134.79 4.02625 135.009 4.29806 135.162 4.60772C135.315 4.91738 135.398 5.25718 135.404 5.60266C135.582 6.95749 135.467 8.33488 135.066 9.64111C134.373 12.0586 133.347 14.3678 132.02 16.5023C129.179 21.3284 125.68 25.7336 121.625 29.5902C113.519 37.3159 104.234 43.6935 94.121 48.4823C93.2249 48.9158 92.2867 49.2752 91.3591 49.6452C90.9783 49.7631 90.5913 49.8584 90.1994 49.9305C90.4313 49.3704 90.5052 49.0953 90.621 48.8523H90.5895ZM173.524 62.1834C176.977 56.4215 182.162 51.9058 188.335 49.2856C189.607 48.7761 191 48.6512 192.341 48.9262C192.747 48.9546 193.137 49.0949 193.469 49.3318C193.8 49.569 194.059 49.8933 194.218 50.269C187.492 54.466 180.903 58.9591 173.524 62.1834Z" fill="black"></path></svg> 