<?xml version="1.0" encoding="UTF-8"?> <svg xmlns="http://www.w3.org/2000/svg" width="237" height="91" viewBox="0 0 237 91" fill="none"><path d="M0 45.5V91H118.5H237V45.5V0H118.5H0V45.5ZM44 30C44 33.8 44.2 37 44.3 37C44.5 37 46.2 36.3 47.9 35.4C52.6 33.1 57 34.5 59.3 39C60.6 41.7 61 44.5 60.8 51.5L60.5 60.5H57.5H54.5L54.2 51C54 45.8 53.4 40.9 52.8 40.2C51.4 38.6 48.9 38.7 46.2 40.6C44.2 42 44 42.9 44 51.6V61H41H38V42V23H41H44V30ZM124.2 33.5C123.8 45.9 124.6 46.7 130.7 39.5C133.8 35.8 135 35 137.8 35H141.2L136.6 40.4L131.9 45.9L137 53C139.7 56.8 142 60.2 142 60.5C142 60.8 140.7 61 139.1 61C136.1 61 132.9 58.1 129.3 52C128.4 50.3 126.8 49 125.8 49C124.3 49 124 49.9 124 55.1C124 61.1 124 61.1 121.3 60.8L118.5 60.5L118.2 41.7L118 23H121.2H124.5L124.2 33.5ZM153 29.9V36.8L157 35.3C162 33.3 165.1 34.4 168 39.2C171.6 45.2 169.9 55.9 164.6 59.5C162 61.4 157 61.4 154.3 59.5C152.4 58.2 152.1 58.2 151.6 59.6C151.2 60.5 150.1 61 148.8 60.8C146.5 60.5 146.5 60.4 146.2 41.7L146 23H149.5H153V29.9ZM32.1 36.4C33.7 37.5 33.8 37.9 32.7 39.5C31.6 40.9 31 41 29.2 40.1C23.6 37.1 19 40.5 19 47.7C19 54.9 23.4 58 29.1 54.9C31.1 53.9 34 55.1 34 56.9C34 58.5 27.9 61 24.2 61C11.3 61 7.5 40.7 19.3 35.4C22.9 33.8 29.2 34.3 32.1 36.4ZM81.3 35.1C85.6 36.3 89 40.8 89 45.2V48H80.6C75.9 48 71.9 48.4 71.6 48.8C70.7 50.4 73.6 54.5 76.3 55.4C78.2 56.1 80.1 56 82.6 55.1C85.7 54 86.4 54 87.8 55.3C89.1 56.7 88.9 57.1 85.9 59C81.3 61.9 73.1 61.4 69.5 58C62.7 51.6 64.2 39 72.3 35.5C76.2 33.8 76.6 33.8 81.3 35.1ZM112.1 36.4C113.7 37.5 113.8 37.9 112.7 39.5C111.6 40.9 111 41 109.2 40.1C103.7 37.2 99 40.5 99 47.3C99 54.7 103.4 58 109.2 54.9C110.8 54.1 111.6 54.1 112.6 55.2C114.9 57.4 111.1 60.2 105 60.8C100.4 61.2 99.8 61 96.7 57.9C92 53.2 91.1 47.8 93.9 41.5C95.3 38.3 96.9 36.5 99.2 35.5C102.9 33.8 109.1 34.3 112.1 36.4ZM193.2 36.1C198.2 38.8 200.3 46.9 197.6 53.3C195.3 58.8 192.5 60.5 186 60.5C179.5 60.5 176.7 58.8 174.4 53.3C170.2 43.5 177.5 33 187.4 34.5C189.5 34.8 192.1 35.5 193.2 36.1ZM209.9 39C211.1 41.2 212.4 43 212.8 43C213.2 42.9 214.7 41.1 216.2 39C218.4 35.8 219.6 35 222 35H225.1L221 41L216.9 47L221 53.3C223.2 56.8 225 60 225 60.4C225 60.7 223.6 61 222 61C219.4 61 218.4 60.2 215.8 56C214.1 53.2 212.6 51 212.4 51C212.3 51 210.8 53.2 209.1 56C206.5 60.2 205.5 61 203 61C201.4 61 200 60.8 200 60.4C200 60.1 201.8 57.2 204 54C206.2 50.8 208 47.7 208 47.3C208 46.8 206.4 44.1 204.5 41.3C202.6 38.4 201 35.8 201 35.5C201 35.2 202.5 35 204.3 35C207.1 35 208 35.6 209.9 39Z" fill="black"></path><path d="M154.6 40.3C152.1 42.2 152.6 55.3 155.3 55.8C159.5 56.6 161.9 55.1 163 50.9C165.3 42.6 160.2 36.2 154.6 40.3Z" fill="black"></path><path d="M72.9999 40.9C71.1999 44.4 71.7999 45 77.4999 45C82.0999 45 82.9999 44.7 82.9999 43.2C82.9999 40.5 80.9999 39 77.2999 39C75.0999 39 73.6999 39.6 72.9999 40.9Z" fill="black"></path><path d="M181.6 41.2C180.7 42.4 180 45.3 180 47.5C180 52.7 182.3 56 185.9 56C190 56 192 53.2 192 47.3C192 43.7 191.5 41.8 190.2 40.7C187.6 38.3 183.4 38.6 181.6 41.2Z" fill="black"></path></svg> 