<?xml version="1.0" encoding="UTF-8"?> <svg xmlns="http://www.w3.org/2000/svg" width="237" height="104" viewBox="0 0 237 104" fill="none"><path fill-rule="evenodd" clip-rule="evenodd" d="M135.079 70.1681C142.902 88.9592 161.945 102.256 184.137 102.256C213.289 102.256 236.995 79.322 236.995 51.1281C236.995 22.9342 213.283 0 184.137 0C161.153 0 141.548 14.2621 134.285 34.1188L136.293 34.9694C143.221 15.896 162.049 2.18263 184.137 2.18263C212.088 2.18263 234.82 24.1557 234.82 51.1416C234.82 78.1272 212.081 100.087 184.137 100.087C162.899 100.087 144.667 87.4021 137.14 69.4635L135.079 70.1681Z" fill="black"></path><path d="M202.17 49.3596C202.17 48.3382 201.997 47.4639 201.65 46.7497C201.022 45.4214 199.848 44.4336 198.433 44.0532C197.138 43.6795 195.77 43.6795 194.475 44.0532C193.06 44.4336 191.885 45.4081 191.258 46.7296C190.891 47.4506 190.718 48.3184 190.718 49.3395V54.6926C190.718 55.7138 190.871 56.5883 191.151 57.3025C191.685 58.6306 192.813 59.6319 194.195 59.9991C194.915 60.2194 195.65 60.306 196.457 60.306C197.118 60.2994 197.778 60.1993 198.413 60.0257C199.821 59.6387 200.989 58.6507 201.609 57.3292C201.976 56.5883 202.15 55.7205 202.15 54.7192L202.17 49.3596ZM206.241 55.5404C206.308 58.0032 205.22 60.3594 203.305 61.9146C202.364 62.6556 201.296 63.2163 200.148 63.5699C197.672 64.3709 195.009 64.3709 192.533 63.5699C191.412 63.2163 190.37 62.6489 189.463 61.8948C187.587 60.326 186.533 57.9834 186.613 55.5404V48.6454C186.566 46.1891 187.627 43.8396 189.503 42.2511C190.37 41.51 191.418 40.9429 192.613 40.529C195.129 39.7014 197.839 39.7014 200.355 40.529C201.496 40.8894 202.557 41.4834 203.465 42.2709C204.339 43.012 205.04 43.9398 205.507 44.9877C205.988 46.0556 206.228 47.2769 206.228 48.6454L206.241 55.5404ZM176.855 63.9172V40.182H180.92V63.8971L176.855 63.9172ZM181.44 32.9999C181.42 34.4083 180.253 35.5363 178.844 35.5162C177.463 35.4962 176.355 34.3814 176.328 32.9999C176.328 32.2789 176.588 31.6982 177.089 31.1978C177.55 30.7172 178.184 30.4502 178.851 30.4568C179.538 30.4435 180.192 30.7105 180.68 31.1978C181.18 31.6982 181.44 32.2857 181.44 32.9999ZM165.523 61.2872C165.523 60.6064 165.763 59.9456 166.197 59.4183C166.678 58.8509 167.352 58.5505 168.239 58.5505C169.774 58.4773 171.076 59.6653 171.149 61.2004C171.149 61.2337 171.149 61.2606 171.149 61.294C171.149 62.1015 170.889 62.7756 170.368 63.3365C169.868 63.9036 169.154 64.184 168.239 64.184C167.345 64.184 166.671 63.9036 166.197 63.3563C165.723 62.7691 165.483 62.0348 165.523 61.2872ZM161.038 57.1088C161.038 58.2436 160.824 59.2181 160.317 60.0924C159.837 60.967 159.169 61.7279 158.362 62.3086C157.534 62.9425 156.56 63.3965 155.405 63.7235C154.25 64.0505 153.009 64.204 151.621 64.204C149.992 64.204 148.364 63.9905 146.789 63.55C145.067 63.0426 143.459 62.2084 142.044 61.0937L144.286 58.07C145.481 59.0713 146.682 59.7453 147.943 60.1125C149.185 60.4796 150.553 60.6598 152.008 60.6598C152.595 60.6598 153.183 60.5863 153.75 60.4395C154.31 60.3195 154.838 60.0992 155.318 59.7855C156.313 59.2181 156.907 58.1435 156.86 57.0022C156.88 56.0009 156.513 55.26 155.772 54.8261C155.051 54.3922 154.117 54.0652 153.009 53.8718C151.794 53.678 150.593 53.4579 149.399 53.2175C148.277 53.004 147.183 52.6368 146.155 52.1296C145.227 51.6957 144.426 51.0483 143.806 50.2339C143.165 49.3062 142.851 48.1849 142.911 47.0569C142.891 45.0143 143.826 43.0853 145.434 41.8373C146.275 41.2232 147.203 40.7559 148.197 40.4422C149.218 40.0951 150.373 39.9416 151.568 39.9416C153.349 39.9416 154.938 40.1152 156.313 40.4821C157.741 40.8693 159.082 41.5301 160.271 42.418L158.228 45.4615C156.239 44.2 153.924 43.546 151.574 43.5726C150.159 43.5726 149.031 43.8996 148.184 44.5538C147.316 45.2078 146.876 46.0355 146.876 47.0102C146.876 47.8378 147.223 48.4652 147.943 48.879C148.637 49.3129 149.512 49.6198 150.553 49.8603C151.621 50.1004 152.749 50.314 153.97 50.5142C155.138 50.7213 156.279 51.0684 157.361 51.5622C158.388 52.0227 159.289 52.7103 159.99 53.5847C160.691 54.4525 161.038 55.6071 161.038 57.1088ZM140.529 44.2534C137.525 44.4537 134.622 45.3747 132.046 46.9299V63.9438H127.935V40.182H131.565L131.999 43.666H132.046C133.774 42.1108 135.81 40.9494 138.026 40.2487C138.84 40.0083 139.681 39.8816 140.529 39.8816V44.2534ZM118.925 49.3395C118.925 48.3382 118.791 47.4907 118.491 46.7964C118.017 45.4683 116.943 44.4469 115.601 44.0331C114.26 43.606 112.811 43.606 111.47 44.0331C110.836 44.2667 110.255 44.6138 109.748 45.0545C109.221 45.5283 108.807 46.1158 108.553 46.7765C108.273 47.4506 108.119 48.2582 108.119 49.1927V50.2605H118.931L118.925 49.3395ZM108.066 53.5847V55.1531C108.066 56.1078 108.22 56.9153 108.547 57.5696C108.86 58.2035 109.301 58.7576 109.855 59.2048C110.435 59.6387 111.089 59.9589 111.79 60.1391C114.653 60.8801 117.69 60.0992 119.839 58.07L122.429 60.9002C121.214 62.1417 119.859 63.0092 118.384 63.47C116.936 63.9237 115.421 64.1574 113.906 64.1641C112.611 64.1641 111.323 63.9772 110.075 63.6168C108.92 63.2763 107.846 62.7224 106.898 61.9881C105.984 61.2606 105.243 60.326 104.742 59.2715C104.202 58.0968 103.935 56.8084 103.962 55.5137V49.2261C103.962 47.831 104.182 46.5494 104.682 45.3948C105.597 43.1721 107.419 41.4433 109.688 40.6558C112.184 39.7681 114.907 39.7614 117.41 40.6357C119.685 41.3165 121.534 42.9987 122.415 45.2078C122.869 46.296 123.109 47.5374 123.109 48.9056V53.6047L108.066 53.5847ZM92.1887 39.9416C94.5178 39.9416 96.3197 40.6625 97.6278 42.1176C98.9359 43.5992 99.5833 45.6884 99.5833 48.405V63.9172H95.4721V48.9056C95.4721 47.0569 95.0784 45.7486 94.2774 44.9877C93.4634 44.2401 92.3821 43.8529 91.2743 43.9197C90.3197 43.9197 89.1853 44.1799 87.9038 44.6806C86.5889 45.1679 85.3275 45.7953 84.1396 46.5494V63.9104H80.0083V40.182H83.6658L84.1464 42.7916C85.1674 42.1575 86.1019 41.6636 86.8893 41.2699C88.1374 40.6891 89.4523 40.2753 90.807 40.0284C91.2607 39.9682 91.7214 39.9416 92.1887 39.9416ZM77.6124 63.3297C76.6714 63.6567 75.6903 63.877 74.6959 63.9839C73.6947 64.0906 72.9539 64.1574 72.4802 64.1574C69.9573 64.1574 68.1286 63.5699 67.0207 62.4152C65.8862 61.2807 65.3455 59.3717 65.3455 56.695V43.8597H61.9753V40.1619H65.4323L66.3866 34.6753H69.4301V40.182H76.0441V43.8597H69.4301V55.4334C69.4301 56.3881 69.5167 57.1756 69.6903 57.8298C69.8371 58.3571 70.0775 58.8509 70.4112 59.2848C70.6981 59.652 71.0985 59.919 71.5457 60.0457C72.0463 60.1659 72.5534 60.2259 73.0673 60.2194C73.6681 60.2259 74.2688 60.186 74.8695 60.1125L76.9583 59.8522L77.6124 63.3297ZM60.3668 44.2534C57.3634 44.4537 54.4602 45.3747 51.8839 46.9299V63.9438H47.7727V40.182H51.4034L51.8372 43.666H51.8839C53.6125 42.1108 55.6481 40.9494 57.864 40.2487C58.6781 40.0083 59.5192 39.8816 60.3668 39.8816V44.2534ZM38.289 53.3443H32.0221C31.468 53.3377 30.9142 53.3776 30.367 53.4512C29.7928 53.5247 29.239 53.6848 28.7118 53.9317C28.2045 54.1787 27.7641 54.5526 27.4504 55.0196C27.1232 55.5203 26.9498 56.1745 26.9498 56.9753C26.9498 58.1101 27.3435 58.9578 28.1244 59.5451C28.9053 60.1125 29.9065 60.4129 31.1009 60.4129C31.7084 60.4129 32.3425 60.306 32.9964 60.1326C34.2845 59.7988 35.5258 59.2981 36.6939 58.6507L38.2823 57.823L38.289 53.3443ZM38.1555 61.6077C36.2668 62.6755 34.7183 63.3498 33.5237 63.6502C32.329 63.9506 31.2613 64.0838 30.3067 64.0838C28.0042 64.0838 26.1757 63.4499 24.8008 62.1884C23.3925 60.8267 22.6383 58.9245 22.7318 56.9688C22.7318 55.6671 23.0388 54.5792 23.6261 53.6647C24.2001 52.7969 24.9476 52.0561 25.8286 51.4887C26.6961 50.9281 27.6506 50.5275 28.6584 50.2939C29.6593 50.0537 30.5737 49.927 31.3546 49.927H38.3091V48.1247C38.3091 46.4694 37.8283 45.2947 36.9142 44.6407C35.7195 43.9129 34.3314 43.5726 32.9365 43.6594C32.1089 43.6594 31.0876 43.7929 29.893 44.0266C28.6983 44.2467 27.4971 44.8741 26.2823 45.8553L24.2802 42.745C25.8018 41.5702 27.3503 40.7893 28.9121 40.4623C30.3401 40.1285 31.7952 39.9549 33.2634 39.9416C36.3735 39.9416 38.6562 40.5958 40.1376 41.964C41.6194 43.3124 42.3534 45.4016 42.3534 48.205V63.9104H38.7628L38.2823 61.7143L38.1555 61.6077ZM16.9654 42.8985C16.9654 41.2699 16.4648 39.9817 15.4637 39.0271C14.4226 38.0526 13.0344 37.5387 11.6128 37.5921H4.00443V48.1648H11.6195C13.0344 48.2183 14.4159 47.7176 15.4704 46.7698C16.5049 45.7619 17.0522 44.3468 16.9654 42.8985ZM20.9231 42.8985C20.9031 45.1212 20.1022 47.2704 18.6606 48.9659C17.9398 49.8334 17.0522 50.5077 16.0043 51.055C14.9632 51.5755 13.7619 51.8626 12.4404 51.8626H4.00443V63.9172H0V33.941H12.4404C14.9031 33.8675 17.2657 34.9355 18.8341 36.8312C19.5282 37.6855 20.0555 38.6599 20.4025 39.7014C20.7496 40.7358 20.9231 41.8172 20.9231 42.8985Z" fill="black"></path></svg> 