<?xml version="1.0" encoding="UTF-8"?> <svg xmlns="http://www.w3.org/2000/svg" width="200" height="35" viewBox="0 0 200 35" fill="none"><path fill-rule="evenodd" clip-rule="evenodd" d="M15.4902 28.4417L4.31373 1.04231C4.03509 0.350877 3.64293 0 3.11662 0H0.856553C0.288958 0 0 0.227038 0 0.701754C0 0.773994 0.0103199 0.846233 0.0309598 0.918473C0.0619195 0.990712 0.0722394 1.03199 0.0722394 1.07327L13.5604 33.581C13.5913 33.6533 13.6326 33.7461 13.6842 33.839C13.7461 33.9422 13.8184 34.0351 13.9112 34.1383C14.0041 34.2312 14.1073 34.3034 14.2312 34.3756C14.355 34.4479 14.5098 34.4788 14.6956 34.4788H15.9546C16.2023 34.4788 16.4499 34.4066 16.7183 34.2518C16.9866 34.097 17.1517 33.8287 17.2343 33.4572L23.3849 18.7203L29.6078 33.6017C29.6388 33.7668 29.7317 33.9628 29.8968 34.1692C30.0619 34.3756 30.3406 34.4788 30.743 34.4788H32.1569C32.3426 34.4788 32.5077 34.4376 32.6522 34.355C32.7864 34.2724 32.8896 34.1796 32.9721 34.0764C33.0547 33.9732 33.1063 33.8803 33.1579 33.7874L33.2301 33.6429C33.2714 33.6017 33.3024 33.5397 33.323 33.4572L46.8318 1.00103C46.8461 0.979542 46.8555 0.948107 46.8668 0.910178C46.8717 0.893466 46.8771 0.875492 46.8834 0.856553L46.8887 0.825548V0.825519V0.825494V0.825472V0.825454V0.825438C46.8969 0.777143 46.904 0.735915 46.904 0.701754C46.904 0.474716 46.8215 0.309598 46.646 0.185759C46.4809 0.0619195 46.2332 0 45.903 0H43.9525C43.612 0 43.354 0.0825593 43.1682 0.247678C42.9825 0.402477 42.8277 0.629515 42.7038 0.908153C40.8256 5.53148 38.9577 10.1238 37.0795 14.6852L36.6579 15.7147C34.9291 19.936 33.1929 24.1756 31.4654 28.4417L30.5702 26.276C29.8618 24.5618 29.1569 22.8563 28.452 21.1558C27.4613 18.741 26.4603 16.3055 25.4489 13.8596L30.7637 1.07327C30.8153 0.908153 30.8359 0.794634 30.8359 0.701754C30.8359 0.474716 30.774 0.309598 30.6502 0.185759C30.5263 0.0619195 30.3199 0 30.0206 0H27.451C27.2446 0 27.0795 0.0619195 26.935 0.175439C26.7905 0.288958 26.6873 0.443756 26.6151 0.650155L15.4902 28.4417ZM56.2435 0C55.5624 0 55.2219 0.350877 55.2219 1.07327V33.5088C55.2219 34.1589 55.5624 34.4788 56.2435 34.4788H78.7719C79.453 34.4788 79.7936 34.1383 79.7936 33.4572V31.5377C79.7936 30.805 79.4427 30.4438 78.7513 30.4438H59.2466V18.3385H74.5924C74.9329 18.3385 75.1806 18.2353 75.356 18.0186C75.5315 17.8019 75.614 17.5542 75.614 17.2755V15.3767C75.614 14.9948 75.5108 14.7265 75.3148 14.5614C75.1084 14.386 74.871 14.3034 74.5924 14.3034H59.2466V4.04541H78.5346C78.8958 4.04541 79.1641 3.93189 79.3498 3.71517C79.5356 3.49845 79.6285 3.25077 79.6285 2.97214V1.09391C79.6285 0.361197 79.2776 0 78.5862 0H56.2435ZM126.945 26.935H110.062L107.441 33.5501C107.193 34.1692 106.77 34.4788 106.161 34.4788H104.169C103.498 34.4788 103.168 34.2312 103.168 33.7358C103.168 33.6017 103.179 33.4572 103.209 33.3024C103.23 33.2301 103.251 33.1785 103.282 33.1373C104.954 29.1125 106.429 25.5624 107.709 22.4871C108.903 19.5931 109.961 17.0647 110.873 14.8846L111.042 14.4788C111.981 12.2085 112.776 10.2993 113.426 8.75129C114.076 7.2033 114.613 5.92363 115.036 4.91228L115.05 4.87804C115.456 3.88321 115.772 3.11054 116.006 2.57998C116.123 2.31102 116.222 2.07949 116.306 1.88294L116.308 1.87874L116.31 1.87441L116.311 1.87333L116.311 1.87306L116.311 1.87277C116.396 1.67425 116.465 1.5118 116.522 1.38287C116.594 1.20444 116.645 1.08031 116.677 1.00365C116.691 0.969456 116.702 0.944707 116.708 0.928793L116.729 0.856553C116.791 0.691434 116.894 0.505676 117.038 0.299278C117.183 0.103199 117.472 0 117.884 0H119.257C119.649 0 119.907 0.103199 120.062 0.299278C120.206 0.505676 120.32 0.691434 120.392 0.856553L133.767 33.1579C133.767 33.1714 133.78 33.2069 133.804 33.2702L133.804 33.2705C133.816 33.3041 133.832 33.3453 133.849 33.3953C133.901 33.5294 133.932 33.6429 133.932 33.7358C133.932 33.9835 133.839 34.1692 133.643 34.2931C133.447 34.4169 133.199 34.4788 132.89 34.4788H130.888C130.578 34.4788 130.32 34.3963 130.114 34.2415C129.907 34.0764 129.742 33.8596 129.639 33.6017L126.945 26.935ZM118.566 5.99587L125.315 22.9928H111.734L118.566 5.99587ZM161.579 15.8101C162.198 15.1806 162.673 14.4376 163.034 13.5913C163.395 12.7554 163.571 11.8679 163.571 10.9391C163.571 10.0103 163.395 9.12281 163.034 8.28689C162.673 7.45098 162.188 6.71827 161.569 6.06811C160.949 5.42828 160.217 4.9226 159.37 4.54076C158.514 4.15893 157.606 3.97317 156.625 3.97317H146.202V17.8844H156.698C157.668 17.8844 158.576 17.6987 159.412 17.3271C160.248 16.9453 160.97 16.4499 161.579 15.8101ZM142.188 33.4572C142.188 34.1383 142.518 34.4788 143.209 34.4788H145.181C145.862 34.4788 146.202 34.1383 146.202 33.4572V21.8473H156.161C156.471 21.8473 156.718 21.8473 156.904 21.8369C157.09 21.8266 157.265 21.8163 157.441 21.7853L163.055 33.6017C163.179 33.8803 163.333 34.097 163.509 34.2518C163.684 34.4066 163.932 34.4788 164.241 34.4788H166.584C166.852 34.4788 167.059 34.4272 167.203 34.3034C167.348 34.1899 167.42 34.0454 167.42 33.8803C167.42 33.7874 167.389 33.6429 167.307 33.4572L161.197 20.8772C162.147 20.4438 163.003 19.8865 163.777 19.2157C164.551 18.5449 165.212 17.7709 165.779 16.9143C166.336 16.0578 166.76 15.129 167.079 14.1176C167.389 13.1063 167.544 12.064 167.544 10.9598C167.544 9.45304 167.255 8.03922 166.687 6.70795C166.13 5.37668 165.356 4.21053 164.365 3.21981C163.385 2.21878 162.229 1.43447 160.908 0.856553C159.587 0.288958 158.163 0 156.625 0H143.209C142.89 0 142.652 0.0928793 142.466 0.288958C142.27 0.485036 142.188 0.753354 142.188 1.11455V33.4572ZM199.36 0.257998C199.143 0.0825593 198.896 0 198.617 0H174.727C174.407 0 174.159 0.0928793 173.963 0.278638C173.777 0.464396 173.674 0.712074 173.674 1.02167V2.92054C173.674 3.31269 173.777 3.59133 173.963 3.77709C174.159 3.95253 174.407 4.04541 174.727 4.04541H184.685V33.4365C184.685 33.7461 184.778 33.9938 184.985 34.1899C185.191 34.386 185.439 34.4788 185.748 34.4788H187.637C187.988 34.4788 188.256 34.386 188.431 34.1796C188.607 33.9732 188.7 33.7358 188.7 33.4365V4.04541H198.617C198.968 4.04541 199.247 3.93189 199.443 3.71517C199.628 3.49845 199.732 3.24045 199.732 2.92054V1.02167C199.701 0.681114 199.577 0.423117 199.36 0.257998Z" fill="#393C49"></path></svg> 