<?xml version="1.0" encoding="UTF-8"?> <svg xmlns="http://www.w3.org/2000/svg" width="108" height="16" viewBox="0 0 108 16" fill="none"><path d="M0.0226215 8.04298C0.0226215 15.6186 7.80007 16 9.37749 16C11.2342 16 12.7055 15.8197 13.8313 15.5857C15.8211 15.1714 16.733 14.5906 16.7895 14.5542C16.8565 14.5178 16.92 14.4762 16.9801 14.4311C17.1193 14.3237 17.2376 14.1902 17.3255 14.0376C17.4525 13.8175 17.5151 13.5678 17.5073 13.3165V8.08805C17.5073 7.85228 17.4133 7.62692 17.2463 7.4605C17.0792 7.29408 16.8522 7.20047 16.6164 7.20047H10.1475C10.0353 7.2022 9.92389 7.22647 9.82122 7.27328C9.76292 7.29928 9.70811 7.33222 9.65765 7.37036C9.61936 7.39983 9.58369 7.43276 9.55063 7.46917C9.47494 7.55238 9.41664 7.64946 9.38097 7.75694C9.3453 7.86269 9.33138 7.97537 9.34182 8.08805V8.62892C9.33224 8.7416 9.34617 8.85428 9.38271 8.96003C9.3975 9.00337 9.41577 9.04497 9.43665 9.08484C9.46797 9.14205 9.50713 9.19753 9.5515 9.24606C9.6272 9.32928 9.71942 9.39688 9.82209 9.44369C9.88473 9.47316 9.94999 9.49396 10.0179 9.5061C10.0605 9.51303 10.104 9.5165 10.1475 9.5165H13.894C13.9923 9.5165 14.088 9.5373 14.175 9.57891C14.2437 9.61185 14.3064 9.65518 14.3603 9.70892C14.4839 9.83201 14.5535 10.0002 14.5535 10.1735V12.6109C14.2272 12.7444 13.3858 13.0096 12.3157 13.209C10.9619 13.4621 9.24089 13.6077 7.72873 13.2488C3.79519 12.3127 3.48806 9.07791 3.48806 8.11058C3.48806 7.29755 3.73342 3.22889 8.56224 2.8163C10.8044 2.5736 13.0691 3.00353 15.0659 4.04886C15.1695 4.10607 15.2843 4.14074 15.4026 4.14941C15.4635 4.15461 15.5245 4.15287 15.5845 4.14594C15.641 4.13901 15.6967 4.12687 15.7507 4.1078C15.8255 4.0818 15.8968 4.04539 15.9612 4.00032C15.9934 3.97779 16.0239 3.95352 16.0526 3.92751C16.0865 3.89631 16.1178 3.86164 16.1465 3.82523C16.19 3.76803 16.2266 3.70735 16.2553 3.64148L16.7408 2.65508C16.7956 2.55627 16.8304 2.44706 16.8426 2.33437C16.8539 2.22169 16.8426 2.10901 16.8087 1.9998C16.7756 1.89232 16.7199 1.79177 16.646 1.70509C16.5981 1.64962 16.5433 1.59935 16.4833 1.55774C16.4502 1.5352 16.4154 1.5144 16.3797 1.49707C14.1846 0.469067 11.7806 -0.0423318 9.35487 0.0027407C0.281029 0.0027407 0 7.223 0 8.04298H0.0226215Z" fill="white"></path><path d="M68.1299 9.06751C67.9255 9.43676 67.5861 9.43676 67.386 9.06751L62.967 0.987401C62.8669 0.779374 62.7095 0.604285 62.5128 0.482936C62.3162 0.36332 62.0891 0.299179 61.8577 0.302646H59.4659C59.3449 0.30438 59.2266 0.33385 59.1205 0.38759C59.0491 0.423995 58.983 0.470801 58.9247 0.528008C58.782 0.671893 58.7002 0.864318 58.6994 1.06714V15.1038C58.6976 15.1523 58.7002 15.2008 58.7081 15.2494L58.7272 15.3274L58.7498 15.3933C58.7707 15.4435 58.7968 15.4921 58.829 15.5354C58.8551 15.5718 58.8847 15.6065 58.9177 15.636C58.99 15.7036 59.077 15.7538 59.1718 15.785C59.2666 15.8162 59.3667 15.8249 59.4659 15.8145H60.958C61.0511 15.8232 61.146 15.811 61.2347 15.7816C61.2765 15.7677 61.3165 15.7504 61.3548 15.7278C61.3983 15.7036 61.4383 15.6741 61.4748 15.6412C61.5436 15.577 61.5993 15.5007 61.6367 15.4158C61.6593 15.3638 61.675 15.31 61.6837 15.2528C61.6897 15.2164 61.6932 15.18 61.6932 15.1436C61.6932 14.9529 61.6932 4.93644 61.715 4.93644C61.7376 4.93644 67.2164 15.1436 67.2164 15.1436C67.2572 15.2268 67.3208 15.2979 67.3991 15.3464C67.4782 15.3967 67.5696 15.4227 67.6618 15.4227C67.7062 15.4227 67.7497 15.4175 67.7915 15.4054C67.8384 15.3933 67.8837 15.3725 67.9255 15.3464C68.0038 15.2979 68.0673 15.2268 68.1073 15.1436L71.7015 8.52837C72.7673 6.56945 73.6574 4.93644 73.6626 4.93644C73.667 4.93644 73.6687 6.25048 73.6687 7.9355L73.6626 15.1176L73.6652 15.18L73.6722 15.2268C73.6826 15.284 73.6992 15.3395 73.7226 15.3915C73.7618 15.4765 73.8184 15.5545 73.8888 15.6186C73.9584 15.681 74.042 15.7296 74.1316 15.759C74.2212 15.7885 74.3169 15.8006 74.4109 15.792H76.1258C76.2302 15.8024 76.3346 15.7902 76.4338 15.7556C76.5321 15.7209 76.6208 15.6654 76.6948 15.5909C76.7687 15.5181 76.8244 15.4279 76.8583 15.3308C76.8775 15.2771 76.8888 15.2234 76.894 15.1679C76.8984 15.1211 76.8975 15.0725 76.8923 15.024V1.06714C76.8923 0.961397 76.8705 0.859118 76.8296 0.763772C76.7913 0.677094 76.7365 0.595617 76.6678 0.526275C76.5242 0.384123 76.3293 0.302646 76.1258 0.302646H73.8279C73.5939 0.295712 73.3624 0.352919 73.1597 0.470801C73.051 0.533209 72.9527 0.611219 72.8691 0.703098C72.796 0.781108 72.7334 0.869519 72.6829 0.964865L68.1299 9.06751Z" fill="white"></path><path d="M104.975 0.302646C104.879 0.295712 104.784 0.307847 104.693 0.337317C104.637 0.354653 104.584 0.380656 104.534 0.413594C104.504 0.432663 104.474 0.455199 104.447 0.479469L104.409 0.515873C104.355 0.571347 104.31 0.635489 104.278 0.706565C104.238 0.793242 104.216 0.886855 104.213 0.9822V9.97416C104.213 10.3954 103.973 10.4925 103.679 10.1909L94.658 0.848716C94.4901 0.675361 94.2873 0.536676 94.0637 0.443064C93.8401 0.349452 93.6 0.300912 93.3573 0.302646H91.6554C91.1203 0.302646 90.8889 0.586949 90.8889 0.876453V15.2494C90.8976 15.3326 90.922 15.4123 90.9611 15.4851C90.9829 15.525 91.009 15.5631 91.0386 15.5978C91.0629 15.6273 91.0899 15.6533 91.1195 15.6758C91.1412 15.6932 91.1638 15.7088 91.1873 15.7226C91.2334 15.7521 91.2848 15.7746 91.3379 15.7902C91.4179 15.8145 91.5014 15.8232 91.5841 15.8145H93.2859C93.7088 15.8145 94.0028 15.5822 94.0028 15.1974V5.72694C94.0028 5.28315 94.2439 5.20688 94.5327 5.51372L103.959 15.2771C104.125 15.4557 104.328 15.5978 104.554 15.6914C104.78 15.785 105.024 15.8284 105.269 15.818H106.547C106.751 15.8162 106.946 15.7365 107.089 15.5926C107.233 15.4487 107.314 15.2528 107.314 15.05V1.06714C107.312 0.864318 107.231 0.671893 107.088 0.528008C106.944 0.385857 106.75 0.30438 106.547 0.302646H104.975Z" fill="white"></path><path fill-rule="evenodd" clip-rule="evenodd" d="M50.9306 9.90308C50.8984 9.86494 50.8714 9.82334 50.8514 9.78C50.834 9.74186 50.821 9.70199 50.8131 9.66212C50.7957 9.57371 50.8027 9.48183 50.8323 9.39688C50.8627 9.31021 50.9141 9.23393 50.9828 9.17499C51.0202 9.14378 51.062 9.11778 51.1064 9.09698C51.1438 9.07964 51.1838 9.06751 51.2247 9.05884C52.0782 8.80921 52.883 8.41396 53.6034 7.89216C54.001 7.50904 54.3108 7.04271 54.51 6.52785C54.7093 6.01298 54.7937 5.45998 54.7571 4.91044C54.7728 4.41118 54.7084 3.91364 54.5674 3.43692C54.4996 3.20809 54.4143 2.98272 54.3116 2.76603C54.0193 2.19049 53.5799 1.70336 53.0379 1.35145C52.4306 0.964865 51.7563 0.69443 51.0507 0.552278C50.4521 0.439597 49.8456 0.368521 49.2375 0.339051C48.9756 0.325182 48.6102 0.314781 48.2708 0.307847L47.7053 0.302646H39.9766C39.9009 0.302646 39.826 0.314781 39.7547 0.335584C39.6338 0.371988 39.5233 0.437863 39.4328 0.526275C39.2884 0.67016 39.2066 0.864318 39.2057 1.06714V15.1436C39.2074 15.2407 39.2292 15.3343 39.2701 15.4227C39.2857 15.4574 39.3031 15.4903 39.324 15.5198C39.3484 15.5562 39.3771 15.5926 39.4093 15.6238L39.4397 15.6533C39.5111 15.7192 39.5955 15.7677 39.6868 15.7989C39.733 15.8145 39.7808 15.8266 39.8295 15.8336C39.8765 15.8388 39.9244 15.8388 39.9722 15.8353H41.8028C41.8994 15.844 41.9968 15.8318 42.0882 15.8006C42.1804 15.7694 42.2648 15.7209 42.3362 15.655C42.3675 15.6273 42.3962 15.5961 42.4223 15.5631C42.4554 15.5198 42.4832 15.473 42.5058 15.4227C42.5459 15.336 42.5676 15.2407 42.5693 15.1436V9.55637H46.0348C46.2697 9.56851 46.4994 9.63091 46.7082 9.74013C46.917 9.84761 47.1006 9.99843 47.2468 10.1822L50.8453 15.232C50.8767 15.284 50.9115 15.3343 50.9497 15.3811C51.0472 15.5025 51.1664 15.6047 51.3012 15.6828C51.3526 15.7122 51.4048 15.7382 51.4596 15.7608C51.4944 15.7746 51.5292 15.7868 51.5649 15.7972C51.6789 15.8336 51.7981 15.8526 51.919 15.8544H54.3116C54.3847 15.8596 54.4578 15.8457 54.5222 15.811C54.5875 15.7764 54.6414 15.7244 54.6771 15.662C54.6884 15.6429 54.698 15.6221 54.7058 15.6013C54.7223 15.5527 54.7293 15.5025 54.7267 15.4522C54.7223 15.3794 54.6971 15.31 54.6545 15.2494C54.5074 15.0465 50.9167 9.92388 50.9167 9.92388L50.9306 9.90308ZM49.4741 7.04965C49.1426 7.12072 48.8059 7.16406 48.4666 7.1814C48.0438 7.1814 47.3529 7.2126 46.9301 7.2126H43.3663C43.1627 7.2126 42.9678 7.13286 42.8243 6.98897C42.6807 6.84682 42.5998 6.65266 42.5998 6.44984V3.60507C42.5998 3.54613 42.6068 3.48719 42.6198 3.43172C42.6294 3.38838 42.6433 3.34677 42.6598 3.3069C42.6981 3.21849 42.7538 3.13528 42.8243 3.06593C42.9678 2.92205 43.1627 2.84231 43.3663 2.84231H46.9301C47.3529 2.84231 48.0438 2.84231 48.4666 2.87351C48.6162 2.88044 48.7659 2.89258 48.9156 2.90991C49.1026 2.93245 49.2888 2.96366 49.4741 3.00179C49.8726 3.07807 50.2537 3.22889 50.5965 3.44558C50.7148 3.52706 50.8218 3.62241 50.9158 3.72815C50.9654 3.78363 51.0115 3.84257 51.0533 3.90324C51.1046 3.97952 51.1499 4.05926 51.189 4.14247C51.3073 4.41811 51.3682 4.71455 51.3682 5.01445C51.3682 5.31436 51.3073 5.6108 51.189 5.88643C51.0585 6.16727 50.8532 6.40823 50.5965 6.58332C50.4608 6.67 50.319 6.74628 50.1728 6.81042C49.9492 6.90923 49.7151 6.98204 49.4741 7.02711V7.04965Z" fill="white"></path><path d="M82.1135 1.09315V15.1436C82.1187 15.2372 82.1431 15.3291 82.1848 15.4123C82.2275 15.4973 82.2858 15.5718 82.3571 15.6325C82.4285 15.6932 82.512 15.7382 82.6016 15.7677C82.6494 15.7833 82.699 15.792 82.7486 15.7972C82.7921 15.8006 82.8356 15.8006 82.8791 15.7954H84.7419C84.8359 15.8058 84.9307 15.7954 85.0212 15.7677C85.1108 15.74 85.1952 15.6932 85.2675 15.6325C85.3397 15.5718 85.3988 15.4973 85.4415 15.4141C85.4841 15.3291 85.5102 15.2372 85.5163 15.1436V1.06714C85.525 0.970065 85.5128 0.872986 85.4815 0.782841C85.4702 0.74817 85.4554 0.713499 85.438 0.680561L85.4119 0.635489L85.3623 0.566147L85.3353 0.534943C85.2701 0.463867 85.1909 0.404926 85.103 0.366788C85.0143 0.326916 84.9186 0.30438 84.822 0.302646H82.8887C82.7834 0.297445 82.679 0.313047 82.5816 0.351186C82.5468 0.365054 82.5128 0.380656 82.4807 0.399725C82.4224 0.432663 82.3693 0.474268 82.3232 0.522808C82.2501 0.597351 82.1944 0.687496 82.1596 0.786308L82.1379 0.859118L82.1283 0.907657C82.1178 0.968332 82.1161 1.03074 82.1135 1.09315Z" fill="white"></path><path fill-rule="evenodd" clip-rule="evenodd" d="M29.4854 0.987401C29.3749 0.788042 29.2148 0.619887 29.0199 0.500271C28.9425 0.453465 28.8616 0.413594 28.7772 0.384123C28.6493 0.337317 28.5135 0.30958 28.3761 0.302646H27.5165C27.4521 0.306113 27.3886 0.314781 27.3259 0.328649C27.2842 0.337317 27.2424 0.347718 27.2015 0.359853C27.0884 0.394524 26.9805 0.443064 26.8796 0.505472C26.7839 0.566147 26.6969 0.637222 26.6203 0.7187C26.5429 0.800177 26.4759 0.892055 26.4211 0.990868L19.6094 15.1922C19.418 15.5649 19.6094 15.8353 20.0548 15.8353H21.6323C21.7445 15.8457 21.8576 15.8388 21.9672 15.8145C22.0734 15.7902 22.176 15.7504 22.2709 15.6932C22.4632 15.5805 22.6154 15.4106 22.705 15.206C22.8747 14.8645 23.2488 14.1139 23.3202 13.9596C23.3915 13.8036 23.7169 13.6268 24.1398 13.6268H31.4587C31.9042 13.6268 32.1539 13.7065 32.2783 13.9544C32.3583 14.1191 32.7238 14.7934 32.9152 15.161C33.0091 15.3725 33.1658 15.5493 33.3633 15.6689C33.5599 15.7885 33.7896 15.8457 34.0201 15.8318H36.3014C36.7243 15.8318 36.907 15.5129 36.7469 15.2147L29.4854 0.987401ZM25.1647 11.4165C25.0768 11.4321 24.9855 11.4234 24.9037 11.3887C24.821 11.3523 24.7514 11.2934 24.7036 11.2189C24.6722 11.1703 24.6514 11.1166 24.6409 11.0594C24.6357 11.0282 24.6331 10.997 24.634 10.9658C24.6348 10.9224 24.6427 10.8808 24.6566 10.8409C24.6653 10.8132 24.6775 10.7872 24.6914 10.7612L24.7192 10.7196L27.392 4.99365C27.5695 4.61227 27.8593 4.61227 28.0333 4.99365L30.6791 10.7057C30.7322 10.7785 30.7618 10.8635 30.7644 10.9536C30.767 11.042 30.7426 11.1304 30.6948 11.205C30.6609 11.2587 30.6156 11.3038 30.5617 11.3385C30.5408 11.3523 30.5182 11.3645 30.4947 11.3749C30.4129 11.4095 30.3215 11.4199 30.2337 11.4026L25.1647 11.4165Z" fill="white"></path></svg> 