<?xml version="1.0" encoding="UTF-8"?> <svg xmlns="http://www.w3.org/2000/svg" width="182" height="92" viewBox="0 0 182 92" fill="none"><path d="M173.414 27.7085H39.7422V91.9409H173.414V27.7085Z" fill="white"></path><path d="M103.209 54.4443H95.7438H93.8672V89.272H93.8701V91.9938H108.126V54.4443H103.209Z" fill="#408CDD"></path><path d="M75.3021 62.7545C74.7495 60.083 74.4333 58.2891 74.3505 57.376C74.2264 58.499 73.9131 60.3017 73.4137 62.7871C72.9143 65.2724 72.5301 67.0456 72.2612 68.1036L66.1172 91.9938H82.6459L76.4694 68.0415C76.2419 67.1904 75.8518 65.4261 75.2992 62.7545H75.3021Z" fill="#408CDD"></path><path d="M0 0V91.9941H55.1391L43.5072 46.3975H53.0202L58.8509 71.2866C59.8705 75.882 60.6063 79.8628 61.0644 83.2318C61.1885 82.0467 61.4752 80.2115 61.9214 77.7261C62.3677 75.2408 62.7903 73.3139 63.1833 71.9397L69.8267 46.3975H78.9644L85.6078 71.9397C85.8974 73.0834 86.2639 74.83 86.6983 77.1794C87.1357 79.5288 87.4666 81.5443 87.6972 83.2288C87.904 81.6064 88.238 79.585 88.696 77.1617C89.1541 74.7384 89.5678 72.779 89.9431 71.2837L95.7443 46.3945H132.053V0H0Z" fill="#408CDD"></path><path d="M117.797 54.4443V91.9938H132.056V54.4443H130.179H117.797Z" fill="#408CDD"></path><path d="M132.055 0V80.5011C134.901 81.7482 137.33 82.6407 139.336 83.1697C141.467 83.7312 143.418 84.012 145.185 84.012C147.307 84.012 148.932 83.6071 150.067 82.7944C151.199 81.9846 151.766 80.7789 151.766 79.1772C151.766 78.2847 151.518 77.4868 151.019 76.7923C150.519 76.0948 149.786 75.4269 148.82 74.7797C147.853 74.1355 145.882 73.1071 142.909 71.6915C140.123 70.3823 138.033 69.1234 136.641 67.9176C135.249 66.7119 134.135 65.3082 133.305 63.7064C132.474 62.1047 132.058 60.234 132.058 58.0914C132.058 54.0575 133.426 50.8865 136.16 48.5785C138.893 46.2704 142.673 45.1179 147.496 45.1179C149.866 45.1179 152.127 45.3986 154.278 45.9601C156.43 46.5216 158.682 47.3107 161.031 48.3302L157.913 55.8454C155.481 54.8466 153.468 54.1521 151.879 53.7561C150.289 53.3601 148.722 53.1621 147.186 53.1621C145.356 53.1621 143.953 53.5876 142.974 54.4417C141.996 55.2958 141.509 56.4069 141.509 57.7782C141.509 58.6322 141.707 59.374 142.103 60.0094C142.499 60.6448 143.128 61.2565 143.988 61.8505C144.851 62.4445 146.893 63.5084 150.117 65.0481C154.379 67.0872 157.301 69.1293 158.882 71.1773C160.464 73.2253 161.253 75.7372 161.253 78.7102C161.253 82.8269 159.772 86.0718 156.808 88.4419C155.094 89.8131 152.99 90.7854 150.501 91.3617L150.425 91.3794C149.786 91.5242 149.124 91.6454 148.439 91.7399L146.343 92H181.28V0H132.061H132.055Z" fill="#0F43B7"></path></svg> 