<?xml version="1.0" encoding="UTF-8"?> <svg xmlns="http://www.w3.org/2000/svg" width="122" height="122" viewBox="0 0 122 122" fill="none"><path d="M98.9842 51.3028H109.73C108.338 44.9139 105.687 38.8631 101.93 33.5009C98.1722 28.1386 93.3833 23.5713 87.84 20.0635L88.8019 18.3124C94.6621 21.9982 99.7161 26.8211 103.662 32.4932C107.609 38.1652 110.366 44.5703 111.771 51.3262H120.053C117.768 37.4714 110.614 24.8741 99.8656 15.7793C89.1173 6.6844 75.4732 1.68289 61.3647 1.66607C47.2562 1.64925 33.6001 6.61821 22.83 15.6874C12.0599 24.7566 4.87552 37.3368 2.55731 51.1861H10.9565C12.42 44.2445 15.3123 37.6797 19.4512 31.9054C23.59 26.1311 28.8857 21.2723 35.0046 17.6353L35.99 19.3864C30.1804 22.8456 25.1435 27.4513 21.1894 32.9201C17.2353 38.3889 14.4475 44.6051 12.9977 51.1861H23.6258C25.2606 44.9313 28.4421 39.183 32.8805 34.4649C37.3189 29.7469 42.8731 26.209 49.037 24.1736C55.2009 22.1382 61.7786 21.67 68.1708 22.8117C74.5631 23.9534 80.5667 26.6686 85.6346 30.7101C92.1853 35.9749 96.8647 43.1932 98.9842 51.3028ZM28.1538 54.0579H37.7262V57.2799H34.6292V71.2886H31.2742V57.2799H28.1538V54.0579ZM66.0442 57.0697L63.6981 59.2644C63.037 58.5002 62.2204 57.8843 61.3023 57.4577C60.3842 57.0311 59.3855 56.8033 58.3723 56.7896C57.598 56.7728 56.8283 56.9132 56.1103 57.2022C55.3923 57.4912 54.741 57.9228 54.1962 58.4706C53.6381 59.0083 53.1978 59.6551 52.903 60.3703C52.6083 61.0855 52.4654 61.8537 52.4835 62.6265C52.4645 63.6934 52.7231 64.747 53.2342 65.6851C53.7265 66.5764 54.4682 67.3064 55.3692 67.7864C56.3088 68.3051 57.3683 68.5707 58.4427 68.5569C59.3469 68.5644 60.2424 68.3814 61.0704 68.0199C62.0522 67.5299 62.9413 66.8742 63.6981 66.082L65.9269 68.4168C64.8838 69.4943 63.6513 70.3726 62.2904 71.0084C61.0561 71.514 59.7302 71.7604 58.3958 71.7322C57.1849 71.778 55.9775 71.5745 54.8494 71.1343C53.7212 70.6941 52.6966 70.0268 51.8398 69.1741C50.9829 68.3214 50.3123 67.3018 49.87 66.1791C49.4276 65.0564 49.2231 63.8549 49.2692 62.6499C49.2323 61.0168 49.6375 59.4039 50.4423 57.9803C51.3021 56.6278 52.5197 55.5372 53.9615 54.8283C55.3827 53.989 57.0013 53.5379 58.6538 53.5209C60.0872 53.5311 61.5021 53.8444 62.8045 54.4402C64.107 55.0359 65.2673 55.9004 66.2085 56.9763L66.0442 57.0697ZM68.8127 54.0579H72.1208V65.1948C72.0841 65.8894 72.1714 66.5851 72.3788 67.2494C72.5527 67.6486 72.8482 67.9834 73.2235 68.2066C73.6513 68.4502 74.1385 68.5714 74.6311 68.5569C75.1592 68.5673 75.6795 68.4298 76.1327 68.1599C76.5232 67.9272 76.8277 67.575 77.0008 67.156C77.2103 66.3962 77.2975 65.6082 77.2588 64.8212V54.0812H80.5435V64.3542C80.5902 65.5673 80.4957 66.7817 80.2619 67.9732C80.0372 68.6949 79.6523 69.3572 79.1358 69.911C78.6154 70.5178 77.9554 70.9904 77.2119 71.2886C76.4158 71.6128 75.5616 71.7717 74.7015 71.7555C73.5461 71.7868 72.406 71.4869 71.4169 70.8916C70.5509 70.3907 69.8561 69.6424 69.4227 68.7436C68.9338 67.3341 68.7266 65.843 68.8127 64.3542V54.0579ZM84.3677 54.0579H87.8869C89.2677 53.9818 90.6509 54.1559 91.9692 54.5715C92.795 54.9093 93.4928 55.4975 93.9635 56.2526C94.4612 57.1017 94.7129 58.0715 94.6908 59.0543C94.7654 60.125 94.4671 61.1886 93.8461 62.0662C93.1854 62.8783 92.2812 63.4591 91.2654 63.7239C90.1145 63.9474 88.941 64.0336 87.7696 63.9807V71.2886H84.4615L84.3677 54.0579ZM87.6523 60.8054H88.7081C89.293 60.8326 89.8786 60.7696 90.4442 60.6186C90.7602 60.5148 91.0325 60.3095 91.2185 60.0349C91.4093 59.7437 91.5074 59.4019 91.5 59.0543C91.5204 58.7591 91.4563 58.4643 91.3151 58.2039C91.1739 57.9436 90.9614 57.7284 90.7023 57.5834C90.0386 57.294 89.3129 57.1736 88.5908 57.2332H87.6523V60.8054ZM40.1427 63.4437H46.1254V66.4089H40.1427V63.4437ZM122 61.6459H97.5765V59.8014H122V61.6459ZM23.8135 59.9649H0V61.5759H23.8838L23.8135 59.9649ZM88.8488 11.7983L89.9515 12.2886L84.6258 24.4061L81.4585 23.0286L83.8046 17.6353L80.0273 19.1996L79.7692 19.0595L78.385 15.2538L76.0388 20.6472L72.7308 19.2463L78.0565 7.12877L79.2061 7.64242L81.5523 14.9503L88.8488 11.7983ZM60.3665 10.2807L58.9354 13.8296H61.9619L60.3665 10.2807ZM63.135 16.5846H57.9031L57.1758 18.2657L53.9615 18.4992V17.9388L59.5219 4.95742H61L67.2642 17.682V18.1723H63.9562L63.135 16.5846ZM40.5885 17.7754L41.5035 19.83L43.9904 18.7326C45.2338 18.1723 44.2954 16.141 43.0519 16.678L40.5885 17.7754ZM38.5942 13.2692L39.4623 15.2071L41.4096 14.3432C41.6332 14.2055 41.7987 13.9913 41.8748 13.7408C41.9509 13.4903 41.9325 13.2208 41.823 12.9828C41.7136 12.7449 41.5206 12.5549 41.2803 12.4486C41.04 12.3422 40.7689 12.3269 40.5181 12.4054L38.5942 13.2692ZM44.9288 14.0864C45.4872 14.1084 46.0269 14.2926 46.4813 14.6162C46.9357 14.9398 47.2851 15.3887 47.4862 15.9075C47.7451 16.3953 47.8972 16.9323 47.9322 17.4829C47.9672 18.0335 47.8844 18.5852 47.6893 19.1016C47.4941 19.618 47.1911 20.0873 46.8001 20.4785C46.4092 20.8697 45.9393 21.1739 45.4215 21.3709L39.7438 23.8692L34.3712 11.8217L39.5327 9.4869C40.0204 9.26048 40.5484 9.13284 41.0861 9.11139C41.6239 9.08995 42.1605 9.17513 42.6648 9.36197C43.1692 9.54882 43.6311 9.83361 44.0238 10.1998C44.4165 10.5659 44.7321 11.0061 44.9523 11.4948C45.1425 11.9013 45.2391 12.3449 45.235 12.7933C45.231 13.2416 45.1264 13.6834 44.9288 14.0864ZM111.325 87.1184L109.284 90.1536L104.592 87.025L102.245 90.5972L106.938 93.7491L104.897 96.7844L93.1658 88.9628C93.8227 87.9589 94.5265 86.9316 95.2069 85.9276L99.4535 88.7527L101.8 85.1805L97.5765 82.3321C98.2569 81.3281 98.9373 80.3008 99.6412 79.2969L111.325 87.1184ZM86.0569 101.407L86.62 105.376L89.365 103.719L86.0569 101.407ZM91.9692 105.727L87.2769 108.598L87.4881 110.513L84.4615 112.334L84.1565 111.89L82.4204 96.9478L83.7577 96.154L96.3096 104.536L96.5911 104.979L93.5881 106.801L91.9692 105.727ZM62.0558 117.05L60.5542 103.042L64.1908 102.645L64.7538 107.921H65.0119C68.6015 107.548 68.1323 104.886 67.8508 102.271L71.5342 101.898C71.8392 104.723 72.1912 107.361 69.6104 109.416L74.0681 115.136V115.696L70.0796 116.14L66.4196 111.073C65.9504 111.073 65.5046 111.237 65.0588 111.307L65.6923 116.56L62.0558 117.05ZM46.3365 105.937L43.6619 108.949L46.7354 109.953L46.3365 105.937ZM46.9231 113.221L41.6677 111.493L40.3304 112.918L36.9285 111.89L37.0927 111.4L47.3923 100.216L48.8469 100.707L50.6065 115.649L50.4423 116.14L47.1108 115.042L46.9231 113.221ZM28.2946 92.2082L30.3358 89.7333L38.3831 96.3641L36.3419 98.839L33.6908 96.6443L26.7462 105.096L24.0012 102.761L30.8988 94.4496L28.2946 92.2082ZM23.8838 79.8572C24.692 81.2076 24.9621 82.8104 24.6406 84.3492C24.3192 85.8881 23.4297 87.251 22.1477 88.169L20.5288 85.0171C20.9611 84.5563 21.2332 83.9695 21.305 83.3431C21.3768 82.7168 21.2445 82.0841 20.9277 81.5382C20.7007 81.0986 20.3828 80.7118 19.9949 80.4033C19.6069 80.0947 19.1578 79.8713 18.6769 79.7478C18.196 79.6243 17.6943 79.6035 17.2048 79.6867C16.7152 79.77 16.2489 79.9554 15.8365 80.2308C15.4045 80.4292 15.016 80.7106 14.6935 81.0589C14.3711 81.4071 14.1209 81.8153 13.9574 82.2601C13.7939 82.7048 13.7203 83.1773 13.7408 83.6504C13.7613 84.1236 13.8755 84.588 14.0769 85.0171C14.3518 85.6669 14.8488 86.1991 15.4799 86.5196C16.111 86.84 16.8357 86.9281 17.5258 86.7682L19.1446 89.8968C17.6334 90.4715 15.9569 90.4397 14.4687 89.8081C12.9806 89.1765 11.797 87.9945 11.1677 86.5113C10.7067 85.6917 10.4161 84.7881 10.3132 83.8544C10.2102 82.9207 10.2971 81.976 10.5685 81.0763C10.8399 80.1767 11.2904 79.3406 11.8931 78.6178C12.4958 77.8949 13.2385 77.3001 14.0769 76.8687C14.9164 76.4059 15.8422 76.1189 16.7972 76.0253C17.7523 75.9317 18.7165 76.0334 19.6306 76.3242C20.5448 76.6151 21.3894 77.0889 22.1128 77.7165C22.8361 78.3441 23.4229 79.1124 23.8369 79.9739L23.8838 79.8572ZM121.132 53.194H98.2569C98.0446 53.1941 97.8385 53.1226 97.6724 52.9912C97.5062 52.8597 97.3897 52.6761 97.3419 52.4702C95.4342 44.4703 90.902 37.3312 84.4615 32.181C77.8924 26.9502 69.7299 24.1004 61.3167 24.1004C52.9036 24.1004 44.741 26.9502 38.1719 32.181C31.7241 37.3288 27.1837 44.4678 25.2681 52.4702C25.2158 52.6717 25.0974 52.8501 24.9316 52.977C24.7658 53.1039 24.5622 53.1721 24.3531 53.1707H1.47808L0.774231 52.8438L0.539615 52.0966C2.70865 37.6098 10.0348 24.3803 21.1836 14.8181C32.3323 5.25583 46.5618 -0.00282806 61.2799 1.14101e-06C75.9981 0.00283035 90.2255 5.26696 101.371 14.8335C112.516 24.4 119.837 37.6323 122 52.12L121.789 52.8671L121.132 53.194ZM2.55731 70.4947C4.84353 84.3558 12.0052 96.9572 22.7639 106.05C33.5227 115.142 47.1783 120.134 61.2933 120.134C75.4082 120.134 89.0638 115.142 99.8226 106.05C110.581 96.9572 117.743 84.3558 120.029 70.4947H98.9138C96.7603 78.8073 91.8913 86.1717 85.0727 91.4297C78.254 96.6878 69.8725 99.5412 61.2463 99.5412C52.6202 99.5412 44.2387 96.6878 37.42 91.4297C30.6014 86.1717 25.7324 78.8073 23.5788 70.4947H2.55731ZM61.2112 122C46.4733 121.984 32.2332 116.691 21.0934 107.089C9.9536 97.4861 2.6579 84.2151 0.539615 69.7009L0.750769 68.9538L1.45462 68.6502H24.3531C24.5643 68.6542 24.7683 68.7272 24.9337 68.858C25.0991 68.9888 25.2166 69.1701 25.2681 69.374C27.1808 77.3718 31.7121 84.5095 38.1485 89.6633C44.7103 94.9002 52.8702 97.7542 61.2815 97.7542C69.6929 97.7542 77.8528 94.9002 84.4146 89.6633C90.8648 84.5275 95.4064 77.3948 97.3185 69.3974C97.3699 69.1935 97.4874 69.0121 97.6528 68.8813C97.8182 68.7505 98.0222 68.6775 98.2335 68.6736H121.132L121.836 68.9771L122 69.8643C119.839 84.3586 112.517 97.5975 101.367 107.168C90.2169 116.738 75.9823 122.002 61.2581 122H61.2112Z" fill="#151515"></path></svg> 