<?xml version="1.0" encoding="UTF-8"?> <svg xmlns="http://www.w3.org/2000/svg" width="158" height="12" viewBox="0 0 158 12" fill="none"><g clip-path="url(#clip0_4436_18570)"><path d="M6.95717 11.7244C6.87523 11.285 6.71136 10.7189 6.27933 9.57919C5.83985 8.37993 5.67598 8.06708 5.32588 7.76168C5.03538 7.50097 4.69274 7.38924 4.25326 7.38924H2.84544V9.64623C2.84544 10.5848 2.87523 11.0913 2.95717 11.7244H0C0.0819367 11.0913 0.111732 10.6816 0.111732 9.66112V2.25703C0.111732 1.40042 0.0819367 0.893899 0 0.230957C0.603352 0.260752 1.11732 0.27565 2.04842 0.27565H5.63128C7.85847 0.27565 9.15456 1.43021 9.15456 3.41159C9.15456 4.38738 8.87896 5.16206 8.34264 5.66857C8 5.98887 7.7095 6.13785 7.03166 6.35386C7.73184 6.57732 8.05214 6.89017 8.49162 7.86597C8.70019 8.30544 8.89386 8.77472 9.5121 10.2645C9.66108 10.6518 9.8324 10.9945 10.175 11.7244H6.95717ZM4.99814 5.02798C5.81006 5.02798 6.30912 4.52891 6.30912 3.74679C6.30912 2.96466 5.86965 2.57733 5.01304 2.57733H2.85289V5.02798H4.99814Z" fill="white"></path><path d="M21.1167 0.268066C21.0348 0.856521 21.005 1.35559 21.005 2.34628V7.08371C21.005 10.2196 19.1204 11.9999 15.7983 11.9999C14.0925 11.9999 12.6996 11.5157 11.8728 10.6517C11.0757 9.79507 10.6586 8.60326 10.6586 7.06136V2.35373C10.6586 1.40028 10.6288 0.79693 10.5469 0.275515H13.5189C13.437 0.782033 13.4072 1.33324 13.4072 2.35373V7.09116C13.4072 8.82673 14.1893 9.65354 15.8057 9.65354C17.4221 9.65354 18.2415 8.82673 18.2415 7.09116V2.35373C18.2415 1.31835 18.2117 0.893765 18.1297 0.275515H21.1167V0.268066Z" fill="white"></path><path d="M25.0862 7.99255C25.1383 8.49162 25.2351 8.73743 25.4437 9.01303C25.7715 9.42272 26.3525 9.66108 27.0527 9.66108C28.1104 9.66108 28.7435 9.19181 28.7435 8.42458C28.7435 8 28.5201 7.62756 28.1625 7.46369C27.872 7.32961 27.5294 7.23277 26.0992 6.89758C24.8329 6.62197 24.3934 6.4581 23.8795 6.10056C23.0154 5.49721 22.5461 4.57356 22.5461 3.45624C22.5461 1.33333 24.2519 0 26.9633 0C28.7137 0 30.0471 0.536313 30.7919 1.57169C31.1346 2.02607 31.2985 2.43575 31.4772 3.22533L28.5573 3.54562C28.3934 2.65177 27.8944 2.27933 26.8515 2.27933C26.0098 2.27933 25.3916 2.73371 25.3916 3.36685C25.3916 3.75419 25.6001 4.04469 26.0396 4.24581C26.2234 4.33023 26.8565 4.48169 27.9391 4.70019C28.9819 4.92365 29.6448 5.15456 30.1662 5.48231C31.1569 6.10056 31.656 7.02421 31.656 8.2905C31.656 9.32588 31.3283 10.2048 30.6951 10.8231C29.8981 11.5903 28.6839 11.9926 27.075 11.9926C25.9055 11.9926 24.751 11.7467 24.0061 11.3147C23.3208 10.9274 22.8068 10.3389 22.5163 9.54935C22.3823 9.2216 22.3078 8.9013 22.2109 8.26816L25.0862 7.99255Z" fill="white"></path><path d="M34.8808 11.7243C33.9274 11.7243 33.3687 11.7392 32.8398 11.769C32.9218 11.2848 32.9516 10.6815 32.9516 9.75782V2.48781C32.9516 1.52691 32.9218 0.931009 32.8398 0.268066H35.8417C35.7449 0.98315 35.73 1.37049 35.73 2.44311V9.27365H39.0596C40.229 9.27365 40.6983 9.25875 41.3464 9.17682V11.8211C40.8398 11.7541 40.162 11.7243 39.0596 11.7243H34.8808Z" fill="white"></path><path d="M50.4376 11.7243C50.3258 11.0614 50.2439 10.7038 50.1098 10.2345L49.7374 9.06509H45.8119L45.4394 10.2345C45.2607 10.7858 45.1638 11.2103 45.0968 11.7243H41.8789C42.0875 11.3146 42.2067 10.9794 42.5418 10.0483L45.5139 1.75782C45.7597 1.07998 45.8864 0.670301 45.9534 0.268066H49.5437C49.6405 0.670301 49.7374 1.02784 50.013 1.75782L52.9999 10.0483C53.2607 10.7783 53.4841 11.3444 53.6629 11.7243H50.4376ZM47.756 2.62188L46.4748 6.74851H49.0595L47.756 2.62188Z" fill="white"></path><path d="M60.9519 5.89948C61.3542 6.48793 61.6149 6.93486 61.9426 7.53821C61.8905 6.90506 61.8607 6.27191 61.8607 5.49724V2.3613C61.8607 1.45255 61.8309 0.901338 61.7489 0.268191H64.6838C64.6018 0.88644 64.572 1.46745 64.572 2.3613V9.66856C64.572 10.5103 64.6167 11.1434 64.6838 11.717H61.667C61.4212 11.1956 61.1009 10.6816 60.6316 9.96651L58.0841 6.12294C57.7117 5.57173 57.4808 5.16205 57.0934 4.43206C57.1605 5.05031 57.1903 5.81009 57.1903 6.48048V9.56428C57.1903 10.5177 57.2201 11.1211 57.302 11.7095H54.3672C54.4491 11.1732 54.4789 10.5699 54.4789 9.54938V2.30916C54.4789 1.51214 54.4491 0.893889 54.3672 0.260742H57.3542C57.4882 0.633182 57.7936 1.18439 58.3299 1.98141L60.9519 5.89948Z" fill="white"></path><path d="M72.5605 11.7244C71.5177 11.7244 71.1154 11.7393 70.5195 11.7691C70.6015 11.1807 70.6313 10.7114 70.6313 9.74306V2.21234C70.6313 1.48235 70.6015 0.893899 70.5195 0.230957C71.2197 0.27565 71.4134 0.27565 72.5456 0.27565H76.1508C78.378 0.27565 79.689 1.34828 79.689 3.16578C79.689 4.00749 79.4134 4.66299 78.892 5.13226C78.5866 5.39297 78.3408 5.53449 77.7747 5.73561C78.4525 5.88459 78.81 6.05591 79.2048 6.39855C79.7933 6.91997 80.0987 7.66485 80.0987 8.5736C80.0987 10.555 78.6983 11.7244 76.2998 11.7244H72.5605ZM75.756 4.68533C76.486 4.68533 76.9404 4.26075 76.9404 3.58291C76.9404 2.90507 76.5158 2.52518 75.7262 2.52518H73.3277V4.68533H75.756ZM73.3352 9.45256H75.8678C76.7318 9.45256 77.2607 8.96839 77.2607 8.15647C77.2607 7.34455 76.7393 6.89017 75.8603 6.89017H73.3426V9.45256H73.3352Z" fill="white"></path><path d="M89.0665 11.7243C88.9547 11.0614 88.8728 10.7038 88.7387 10.2345L88.3663 9.06509H84.4408L84.0683 10.2345C83.8896 10.7858 83.7927 11.2103 83.7257 11.7243H80.5078C80.7164 11.3146 80.8356 10.9794 81.1708 10.0483L84.1428 1.75782C84.3886 1.07998 84.5153 0.670301 84.5823 0.268066H88.1726C88.2695 0.670301 88.3663 1.02784 88.6419 1.75782L91.6289 10.0483C91.8896 10.7783 92.113 11.3444 92.2918 11.7243H89.0665ZM86.3849 2.62188L85.1037 6.74851H87.6884L86.3849 2.62188Z" fill="white"></path><path d="M99.6805 7.53805C98.9803 7.53805 98.7419 7.55295 98.3173 7.60509V5.16934C98.8239 5.23637 99.159 5.25127 100.12 5.25127H101.222C101.923 5.25127 102.437 5.23637 103.04 5.18423C102.973 5.70565 102.943 6.16002 102.943 7.05388V8.59578C102.943 9.57157 102.958 10.011 103.04 10.6442C102.28 11.1284 101.908 11.3071 101.289 11.5083C100.396 11.8137 99.39 11.9775 98.3695 11.9775C96.619 11.9775 95.2559 11.4934 94.2801 10.5027C93.2373 9.45984 92.6562 7.82111 92.6562 5.92911C92.6563 2.309 94.8462 0.00732422 98.3173 0.00732422C100.038 0.00732422 101.349 0.543637 102.258 1.64606C102.63 2.07064 102.846 2.48777 103.07 3.14326L100.261 3.79131C100.112 3.29224 99.9412 3.03153 99.6432 2.80062C99.2857 2.51012 98.8313 2.37604 98.2503 2.37604C96.4849 2.37604 95.524 3.65723 95.524 5.96636C95.524 7.24755 95.8145 8.23824 96.3657 8.84159C96.8052 9.32576 97.4831 9.58647 98.3471 9.58647C99.0771 9.58647 99.6656 9.43749 100.343 9.0874V7.5157H99.6805V7.53805Z" fill="white"></path><path d="M107.45 0.268066C107.368 0.834174 107.338 1.30345 107.338 2.30903V9.69079C107.338 10.6368 107.368 11.1507 107.45 11.7318H104.418C104.5 11.1954 104.53 10.6144 104.53 9.69079V2.30903C104.53 1.27365 104.5 0.878867 104.418 0.268066H107.45Z" fill="white"></path><path d="M115.768 5.89948C116.171 6.48793 116.431 6.93486 116.759 7.53821C116.707 6.90506 116.677 6.27191 116.677 5.49724V2.3613C116.677 1.45255 116.647 0.901338 116.565 0.268191H119.5C119.418 0.88644 119.388 1.46745 119.388 2.3613V9.66856C119.388 10.5103 119.433 11.1434 119.5 11.717H116.483C116.238 11.1956 115.917 10.6816 115.448 9.96651L112.901 6.12294C112.528 5.57173 112.297 5.16205 111.91 4.43206C111.977 5.05031 112.007 5.81009 112.007 6.48048V9.56428C112.007 10.5177 112.036 11.1211 112.118 11.7095H109.184C109.266 11.1732 109.295 10.5699 109.295 9.54938V2.30916C109.295 1.51214 109.266 0.893889 109.184 0.260742H112.171C112.305 0.633182 112.61 1.18439 113.146 1.98141L115.768 5.89948Z" fill="white"></path><path d="M123.508 7.99255C123.56 8.49162 123.657 8.73743 123.866 9.01303C124.193 9.42272 124.774 9.66108 125.475 9.66108C126.532 9.66108 127.165 9.19181 127.165 8.42458C127.165 8 126.942 7.62756 126.584 7.46369C126.294 7.32961 125.951 7.23277 124.521 6.89758C123.255 6.62197 122.815 6.4581 122.301 6.10056C121.437 5.49721 120.968 4.57356 120.968 3.45624C120.968 1.33333 122.674 0 125.385 0C127.136 0 128.469 0.536313 129.214 1.57169C129.556 2.02607 129.72 2.43575 129.899 3.22533L126.979 3.54562C126.815 2.65177 126.316 2.27933 125.273 2.27933C124.432 2.27933 123.813 2.73371 123.813 3.36685C123.813 3.75419 124.022 4.04469 124.461 4.24581C124.645 4.33023 125.278 4.48169 126.361 4.70019C127.404 4.92365 128.067 5.15456 128.588 5.48231C129.579 6.10056 130.078 7.02421 130.078 8.2905C130.078 9.32588 129.75 10.2048 129.117 10.8231C128.32 11.5903 127.106 11.9926 125.497 11.9926C124.327 11.9926 123.173 11.7467 122.428 11.3147C121.743 10.9274 121.229 10.3389 120.938 9.54935C120.804 9.2216 120.73 8.9013 120.633 8.26816L123.508 7.99255Z" fill="white"></path><path d="M140.67 9.68334C141.481 10.8975 141.66 11.1433 142.129 11.7243H138.547C138.353 11.2848 137.958 10.5548 137.593 9.97384L135.463 6.56229L134.07 7.95522V9.69079C134.07 10.5474 134.1 11.0018 134.182 11.7318H131.262C131.344 11.0316 131.373 10.5176 131.373 9.69079V2.30903C131.373 1.46732 131.344 0.931009 131.262 0.268066H134.182C134.1 0.98315 134.07 1.43753 134.07 2.30903V4.74479L136.811 1.80997C137.347 1.24386 137.705 0.774584 138.01 0.268066H141.727C141.481 0.513876 141.385 0.625608 141.191 0.819277L140.23 1.78017L137.355 4.79693L140.67 9.68334Z" fill="white"></path><path d="M145.907 0.268066C145.825 0.834174 145.795 1.30345 145.795 2.30903V9.69079C145.795 10.6368 145.825 11.1507 145.907 11.7318H142.875C142.957 11.1954 142.987 10.6144 142.987 9.69079V2.30903C142.987 1.27365 142.957 0.878867 142.875 0.268066H145.907Z" fill="white"></path><path d="M153.668 9.68346C153.668 10.3985 153.697 11.0019 153.779 11.7244H150.778C150.845 11.0913 150.889 10.4581 150.889 9.68346V7.13597L147.724 1.92927C147.478 1.50469 147.172 1.05031 146.621 0.260742H150.107C150.256 0.744913 150.413 1.10246 150.755 1.70581L152.282 4.4991L153.809 1.7207C154.152 1.08756 154.345 0.662977 154.442 0.260742H157.928C157.526 0.841748 157.005 1.62387 156.826 1.92927L153.675 7.13597V9.68346H153.668Z" fill="white"></path></g><defs><clipPath id="clip0_4436_18570"><rect width="157.929" height="12" fill="white"></rect></clipPath></defs></svg> 