<?xml version="1.0" encoding="UTF-8"?> <svg xmlns="http://www.w3.org/2000/svg" width="157" height="23" viewBox="0 0 157 23" fill="none"><path d="M15.4793 15.4866C17.0003 13.9656 22.0043 5.58186 19.2818 1.79753C17.0967 -0.91863 11.6183 -0.508563 4.19829 2.70239C4.06283 2.76101 3.98531 2.90805 4.01519 3.05259C4.0542 3.24125 4.25428 3.34716 4.43471 3.27963C9.53265 1.37157 13.4366 1.11041 14.716 2.95693C16.0649 4.90385 14.1949 8.75941 10.201 13.1433C9.81559 13.5663 9.84391 14.23 10.3046 14.5695C12.0099 15.8261 14.179 16.7868 15.4793 15.4866Z" fill="white"></path><path d="M20.741 8.13235C20.9037 8.13235 21.024 8.2857 20.9879 8.44436C18.9805 17.2659 16.0159 21.9804 13.2821 22.0735C13.227 22.0754 13.176 22.0795 13.1214 22.0862C9.97958 22.4712 -0.485235 15.9292 0.017511 8.63935C0.283884 4.77694 5.84627 3.06937 11.2668 3.21181C12.3426 3.24008 13.4666 3.83403 13.3466 4.9035C13.2643 5.63677 12.9201 6.41781 12.5232 7.118C11.9372 8.15147 10.8043 8.69705 9.64097 8.93782C7.82917 9.31279 6.46624 10.0478 6.36519 11.1809C6.05771 14.6289 12.1856 17.7654 14.1602 17.7515C16.9312 17.7515 19.7347 10.7655 20.4967 8.31166C20.53 8.20411 20.6284 8.13235 20.741 8.13235Z" fill="white"></path><path d="M37.6967 8.16833V8.31259H34.5409C34.3967 7.14046 33.8918 6.68964 32.6114 6.68964C31.4754 6.68964 30.736 7.19456 30.736 7.96997C30.736 8.81594 31.7278 9.06684 32.4201 9.24197C32.4804 9.25723 32.5385 9.27191 32.5934 9.28637C35.2442 10.0077 37.0475 10.5847 37.0475 13.1995C37.0475 16.3372 34.1442 17.5454 31.4032 17.5454C28.518 17.5454 26.1016 16.3733 26.1016 13.2356C26.1016 13.1815 26.1016 13.1093 26.1196 13.0011H29.4196V13.0192C29.4196 14.3536 30.177 15.0208 31.6917 15.0208C32.9721 15.0208 33.8016 14.4438 33.8016 13.5602C33.8016 12.6724 32.9648 12.4233 31.73 12.0557C31.3846 11.9529 31.0079 11.8407 30.6098 11.7028C28.9147 11.1257 27.5262 10.3503 27.5262 8.31259C27.5262 5.84209 29.5819 4.20111 32.6835 4.20111C35.9475 4.20111 37.6967 5.58963 37.6967 8.16833Z" fill="white"></path><path fill-rule="evenodd" clip-rule="evenodd" d="M37.8769 17.2929L40.5998 4.45357H46.0638C48.6605 4.45357 50.4999 5.44537 50.4999 8.24046C50.4999 9.88145 49.7244 11.4142 48.4621 12.2077C47.3802 12.8929 45.9195 13.0011 44.6572 13.0011H42.1326L41.231 17.2929H37.8769ZM45.2343 7.17652H43.3589L42.6916 10.3864H44.9457C46.2441 10.3864 47.2359 9.95358 47.2359 8.56505C47.2359 7.32079 46.2802 7.17652 45.2343 7.17652Z" fill="white"></path><path fill-rule="evenodd" clip-rule="evenodd" d="M58.2823 4.16504C61.6725 4.16504 63.9807 6.13062 63.9807 9.64702C63.9807 13.9929 61.3479 17.6175 56.7856 17.6175C53.197 17.6175 51.0872 15.5257 51.0872 11.8651C51.0872 7.55521 53.8282 4.16504 58.2823 4.16504ZM60.5725 9.75522C60.5725 8.1503 59.8872 6.86997 58.12 6.86997C55.5052 6.86997 54.4413 9.77325 54.4413 11.9913C54.4413 13.8306 55.379 14.9126 57.002 14.9126C59.4725 14.9126 60.5725 11.7929 60.5725 9.75522Z" fill="white"></path><path fill-rule="evenodd" clip-rule="evenodd" d="M64.293 17.2929L66.9979 4.45357H72.6242C73.6701 4.45357 74.3193 4.50766 74.9504 4.65193C76.5012 4.97652 77.3308 6.07652 77.3308 7.75357C77.3308 9.66506 76.1586 11.0897 74.3734 11.3241C75.5275 11.847 75.7258 12.5683 75.7258 13.8306C75.7258 13.9355 75.7202 14.0573 75.7125 14.2223C75.6965 14.5678 75.6717 15.1024 75.6717 16.0667C75.6717 16.6979 75.7078 16.9503 75.834 17.2929H72.516C72.4438 17.0405 72.4078 16.788 72.4078 16.4093C72.4078 16.0577 72.4303 15.7016 72.4529 15.3454C72.4754 14.9893 72.4979 14.6331 72.4979 14.2815C72.4979 12.8388 71.9389 12.5323 70.5324 12.5323H68.6389L67.6291 17.2929H64.293ZM71.975 7.05029H69.793L69.1438 10.1519H71.3619C72.6242 10.1519 73.9406 9.97162 73.9406 8.36669C73.9406 7.21259 72.9488 7.05029 71.975 7.05029Z" fill="white"></path><path d="M78.7211 4.45357H89.649L89.0539 7.24866H85.3392L83.1933 17.2929H79.8211L81.967 7.24866H78.126L78.7211 4.45357Z" fill="white"></path><path fill-rule="evenodd" clip-rule="evenodd" d="M91.1941 4.45642H94.5663L92.4384 14.4646H98.4433L97.8326 17.2848L105.382 4.45642H108.754L110.846 17.2958H107.492L107.167 14.9515H102.677L101.361 17.2958H88.4531L91.1941 4.45642ZM106.626 10.4403C106.516 9.58743 106.405 8.73269 106.374 7.86463C105.959 8.85643 105.382 9.92037 104.841 10.8941L103.939 12.5351H106.897L106.68 10.8581C106.663 10.7215 106.645 10.5849 106.627 10.4483L106.626 10.4403Z" fill="white"></path><path d="M122.353 4.45642H125.599L122.876 17.2958H119.594L117.321 11.3269C117.069 10.6417 116.708 9.64988 116.528 8.85643C116.42 9.83021 116.221 10.8761 116.023 11.8499L114.887 17.2958H111.623L114.364 4.45642H117.736L119.954 10.3712C120.261 11.1827 120.531 12.0122 120.766 12.8417C120.892 11.9581 121.09 10.6056 121.307 9.52365L122.353 4.45642Z" fill="white"></path><path fill-rule="evenodd" clip-rule="evenodd" d="M125.152 17.2958L127.874 4.45642H131.301C131.399 4.45642 131.499 4.45621 131.601 4.456C132.838 4.45344 134.278 4.45045 135.394 4.81708C137.252 5.44823 138.406 7.32364 138.406 9.74004C138.406 11.7056 137.738 13.6532 136.584 14.9876C134.835 17.0253 132.924 17.2958 130.399 17.2958H125.152ZM131.842 7.25151H130.615L129.083 14.5007H130.543C132.058 14.5007 132.671 14.3565 133.356 13.8335C134.348 13.0761 135.015 11.5253 135.015 10.0105C135.015 7.7925 133.879 7.25151 131.842 7.25151Z" fill="white"></path><path d="M141.522 4.45642H144.894L142.171 17.2958H138.799L141.522 4.45642Z" fill="white"></path><path fill-rule="evenodd" clip-rule="evenodd" d="M150.816 4.45642H154.188L156.28 17.2958H152.926L152.601 14.9515H148.111L146.795 17.2958H143.26L150.816 4.45642ZM152.061 10.4403C151.95 9.58743 151.839 8.73269 151.808 7.86463C151.393 8.85643 150.816 9.92037 150.275 10.8941L149.374 12.5351H152.331L152.115 10.8581C152.097 10.724 152.08 10.5899 152.063 10.4557L152.062 10.4483L152.061 10.4403Z" fill="white"></path></svg> 