<?xml version="1.0" encoding="UTF-8"?> <svg xmlns="http://www.w3.org/2000/svg" width="275" height="115" viewBox="0 0 275 115" fill="none"><path d="M137.011 8.24463C125.526 8.24463 115.939 15.9883 113.253 26.4194H119.088C121.635 19.0402 128.721 13.7563 137.011 13.7563C141.549 13.7563 145.671 15.305 148.959 17.947H156.647C152.155 12.0254 145.023 8.24463 137.011 8.24463Z" fill="black"></path><path d="M113.207 38.2627C115.013 45.232 119.875 51.0169 126.359 54.0689V47.7373C122.978 45.4597 120.385 42.1345 119.042 38.2627H113.207Z" fill="black"></path><path d="M147.664 47.7373V54.0689C154.101 51.0169 159.01 45.232 160.816 38.2627H154.981C153.638 42.1801 151.044 45.4597 147.664 47.7373Z" fill="black"></path><path d="M137.011 5.51166C146.644 5.51166 155.119 10.4767 159.982 17.9015H166.419C161.001 7.33369 149.839 0 137.011 0C124.136 0 113.022 7.28814 107.603 17.9015H114.04C118.857 10.4767 127.378 5.51166 137.011 5.51166Z" fill="black"></path><path d="M169.338 38.2627H163.595C160.863 50.2426 149.979 59.1705 136.966 59.1705C127.286 59.1705 118.811 54.2055 113.949 46.7352H107.558C112.976 57.3485 124.137 64.6822 137.012 64.6822C153.082 64.6822 166.513 53.2945 169.338 38.2627Z" fill="black"></path><path d="M112.142 43.4102C110.938 40.7682 110.15 37.9441 109.826 34.9377H129.694V55.3901C132.01 56.1189 134.464 56.4833 137.011 56.4833C139.558 56.4833 142.013 56.1189 144.328 55.3901V34.9377H169.8C169.846 34.0723 169.893 33.2523 169.893 32.3869C169.893 31.5214 169.846 30.6559 169.8 29.836H144.328V26.4197H169.337C169.013 24.6432 168.503 22.9123 167.901 21.2725H138.725V50.9261C138.169 50.9716 137.613 51.0172 137.011 51.0172C136.455 51.0172 135.853 50.9716 135.298 50.9261V21.2725H129.694V29.7905H109.826C110.104 26.7841 110.938 23.9144 112.142 21.2725H106.075C104.778 24.7343 104.083 28.4695 104.083 32.3413C104.083 36.2132 104.778 39.9483 106.075 43.4102H112.142Z" fill="black"></path><path d="M96.2358 114.954H104.109V90.7212H136.018V83.752H96.2358V114.954Z" fill="black"></path><path d="M131.202 95.8687H106.472V102.838H131.202V95.8687Z" fill="black"></path><path d="M183.72 99.376C183.72 107.985 190.852 115 199.605 115H226.79V108.031H199.605C195.205 108.031 191.593 103.749 191.593 99.4216C191.593 95.0942 195.159 90.8124 199.605 90.8124H226.79V83.8432H199.605C190.852 83.7521 183.72 90.7669 183.72 99.376Z" fill="black"></path><path d="M194.556 99.376C194.556 101.38 196.177 102.883 198.215 102.883H221.973V95.9141H198.215C196.177 95.8685 194.556 97.3717 194.556 99.376Z" fill="black"></path><path d="M7.87301 83.752H0V114.954H7.87301V102.838H31.8626V95.8685H7.87301V83.752Z" fill="black"></path><path d="M42.143 83.752H34.27V114.954H42.143V83.752Z" fill="black"></path><path d="M259.114 99.5127H240.636V106.482H259.114C263.514 106.482 267.126 110.627 267.126 114.954H274.999C274.999 106.345 267.867 99.5127 259.114 99.5127Z" fill="black"></path><path d="M265.553 98.8294H273.426C273.148 90.4481 266.155 83.7065 257.587 83.7065H230.402V114.909H238.275V90.6758H257.587C261.848 90.7214 265.321 94.7299 265.553 98.8294Z" fill="black"></path><path d="M181.219 83.752H173.346V114.954H181.219V83.752Z" fill="black"></path><path d="M139.076 83.752V114.954H146.949V92.771L170.985 113.041V103.567L146.949 83.752H139.076Z" fill="black"></path><path d="M44.7837 99.376C44.7837 107.985 51.9157 115 60.6687 115H67.8933V108.031H60.6687C56.269 108.031 52.6567 103.749 52.6567 99.4216C52.6567 95.0942 56.2227 90.8124 60.6687 90.8124H67.8933V83.8432H60.6687C51.9157 83.7521 44.7837 90.7669 44.7837 99.376Z" fill="black"></path><path d="M77.5723 83.752H70.3477V90.7212H77.5723C81.9719 90.7212 85.5843 95.003 85.5843 99.3304C85.5843 103.658 82.0183 107.939 77.5723 107.939H70.3477V114.909H77.5723C86.3253 114.909 93.4573 107.894 93.4573 99.2848C93.411 90.7668 86.3253 83.752 77.5723 83.752Z" fill="black"></path></svg> 