<?xml version="1.0" encoding="UTF-8"?> <svg xmlns="http://www.w3.org/2000/svg" width="269" height="110" viewBox="0 0 269 110" fill="none"><g clip-path="url(#clip0_222_14868)"><path fill-rule="evenodd" clip-rule="evenodd" d="M28.1377 83.0257C28.5573 85.4457 28.1565 86.2989 28.3098 87.1896C28.525 88.4613 38.4188 89.2984 37.1223 81.6118C34.524 66.1428 32.1234 50.6413 29.9211 35.1113C27.6696 19.3786 33.7409 16.0545 41.5419 15.0081C49.7706 13.8974 57.0821 18.7213 58.0182 26.1959C59.46 37.7915 49.7733 43.2808 40.8398 44.0106C40.1128 44.0478 39.4263 44.3561 38.9165 44.8745C36.9017 46.9672 38.4834 52.054 42.973 51.5872C49.5823 50.9057 65.6013 55.7832 67.4224 72.8306C68.3881 81.8801 63.2798 94.5596 47.1398 97.0815C26.1309 100.483 14.3622 87.6403 11.0212 72.8681C7.84968 58.8311 15.726 55.1742 15.492 53.9079C15.0804 51.6167 9.11667 47.6915 4.43607 52.4189C2.31635 54.5545 -1.90426 60.1698 0.971353 74.9689C5.64657 99.0911 25.5929 109.927 48.0437 106.788C67.6269 104.038 79.6512 89.9932 77.83 71.6474C76.3747 57.5808 67.8501 49.7762 56.8884 46.2079C64.7432 42.865 69.5771 36.0852 68.3316 24.9725C66.9248 12.0408 54.6664 3.40984 39.9817 5.74666C20.6406 8.88032 17.2728 21.2352 20.0757 36.8552C22.8007 52.2552 25.4826 67.6418 28.135 83.0257H28.1377ZM218.245 106.064C184.439 103.463 150.5 103.033 116.639 104.776C104.682 105.527 98.7071 106.043 86.7797 107.333C86.1041 107.385 85.4394 107.532 84.8052 107.77C84.4164 107.925 84.0435 108.116 83.6915 108.342C83.4591 108.492 83.2443 108.667 83.0513 108.865C82.9199 109.019 82.7358 109.118 82.5348 109.144C82.3089 109.163 82.0991 109.063 81.9215 108.83C81.7129 108.531 81.5439 108.206 81.4185 107.864C81.2519 107.435 81.1188 106.994 81.0204 106.544C80.9079 106.079 80.8252 105.606 80.7729 105.13C80.5416 102.995 80.8617 101.227 81.7467 99.8798C82.6344 98.5276 83.7911 97.7711 85.2168 97.6128C97.2949 96.2981 103.353 95.7696 115.474 94.9942C150.068 93.1893 184.743 93.6231 219.281 96.2928C224.333 96.7489 226.872 96.9984 231.924 97.5511C240.263 98.4579 244.432 98.9676 252.755 100.132C253.6 100.247 254.281 100.272 254.805 100.188C255.316 100.124 255.739 100.035 256.045 99.9281C256.346 99.8208 256.607 99.7028 256.798 99.5847C256.965 99.4674 257.17 99.4192 257.371 99.4506C257.6 99.4828 257.786 99.6384 257.904 99.9067C258.02 100.178 258.108 100.537 258.165 100.972C258.272 101.908 258.261 102.855 258.133 103.789C257.842 105.914 257.097 107.534 255.924 108.615C254.749 109.707 253.46 110.153 252.053 109.954C243.968 108.79 235.859 107.802 227.73 106.99C223.937 106.593 222.038 106.407 218.245 106.064ZM260.93 25.4876C260.93 27.2672 260.221 28.974 258.96 30.2323C257.698 31.4907 255.987 32.1976 254.203 32.1976C252.418 32.1976 250.707 31.4907 249.445 30.2323C248.184 28.974 247.475 27.2672 247.475 25.4876C247.475 23.708 248.184 22.0013 249.445 20.743C250.707 19.4846 252.418 18.7776 254.203 18.7776C255.987 18.7776 257.698 19.4846 258.96 20.743C260.221 22.0013 260.93 23.708 260.93 25.4876ZM225.132 59.5823C224.908 61.9164 224.513 65.2433 223.717 68.0093C220.252 63.8615 218.165 57.7257 218.66 51.8045C218.947 48.3435 219.824 46.0469 221.592 46.1972C224.05 46.4118 225.925 51.3215 225.132 59.5823ZM91.7427 62.5952C91.0702 57.4493 92.0467 43.7208 98.7798 43.3023C100.561 43.195 101.758 44.7376 101.924 47.4581C102.163 50.9958 101.354 54.5253 99.5975 57.6081C97.8413 60.6909 95.2157 63.1911 92.0467 64.7979C91.9929 64.0654 91.7992 63.3357 91.7427 62.5952ZM264.274 73.7347C264.191 73.8817 264.113 74.0311 264.04 74.1828C262.59 79.0925 262.068 83.9647 256.903 83.3208C253.53 82.913 254.125 78.4057 254.273 77.2976C255.639 66.9415 257.081 56.5559 258.394 46.122C259.354 38.4542 248.064 38.8862 247.808 41.4537C247.755 41.985 248.18 43.1225 247.9 45.4754C247.093 52.3276 246.294 58.6379 245.492 65.4632C244.306 73.123 240.416 74.5101 234.767 73.9064C233.845 73.8072 232.927 73.6998 232.034 73.3698C233.81 69.2274 235.023 64.3981 235.558 59.6064C237.132 45.7947 230.479 38.6957 223.112 38.0652C216.591 37.5018 211.017 41.6147 210.315 51.6408C209.702 60.3979 213.742 69.3052 220.742 74.9769C218.939 77.3701 216.588 79.0496 213.344 78.7813C207.125 78.293 204.521 72.0042 205.035 63.993C206.294 44.9389 207.472 25.6808 208.817 6.24569C209.296 -0.689677 197.481 -1.08138 197.481 1.37349C197.481 2.25081 197.877 2.15154 197.815 6.25105C197.573 23.3091 196.295 40.182 195.294 56.9181C194.721 66.4291 190.186 77.2386 184.943 77.0535C181.527 76.9328 181.669 72.3852 181.707 71.2772C181.971 62.7642 182.237 54.254 182.509 45.7384C182.689 40.0747 180.83 33.1715 171.773 33.0133C165.511 32.9033 160.612 37.9579 157.207 44.5096C156.935 38.9586 154.57 32.8737 146.231 32.9811C139.996 33.0696 135.272 38.3898 131.953 45.1642C131.899 43.4418 131.851 41.7113 131.789 39.9808C131.582 34.8403 121.343 33.9389 120.948 37.2925C120.929 37.475 121.29 38.6528 121.395 40.995C121.731 48.1852 122.062 52.985 122.39 60.1672C123.052 69.0101 117.021 77.8315 106.855 78.3493C100.068 78.7089 96.3076 75.5108 94.1476 71.4596C106.637 67.0328 112.967 55.9523 112.558 46.7874C112.208 39.3745 107.253 34.4835 99.4765 34.9423C88.7568 35.5701 79.3499 48.1825 80.8617 63.8106C82.3412 79.1489 94.2068 87.1467 105.897 86.535C114.371 86.103 119.681 82.0008 123.092 77.904C123.108 78.3118 123.178 79.6157 123.205 80.0262C123.412 84.5737 127.068 85.2767 129.653 85.1828C133.397 85.0593 133.177 82.1162 133.101 79.782L132.507 61.8011C132.545 51.0318 140.426 41.2123 144.168 41.1693C146.498 41.1264 146.818 44.3352 146.874 48.1611C147.02 58.5628 147.165 68.9537 147.305 79.3447C147.375 83.8976 151.014 84.7132 153.605 84.7052C157.365 84.6918 157.236 81.7432 157.236 79.4011C157.233 73.4074 157.384 67.3869 157.376 61.3906C157.107 51.7669 165.823 41.0674 169.57 41.1291C171.91 41.1667 172.123 44.3862 172.055 48.2093C171.907 56.5586 171.759 64.9106 171.603 73.2437C171.496 79.5352 175.431 84.8769 182.31 85.0942C188.954 85.3223 193.863 81.2174 196.895 76.2486C199.577 81.9123 204.838 86.2694 212.225 86.8515C219.666 87.4472 224.696 84.0908 228.497 79.2374C230.514 80.0503 238.084 82.2959 244.037 78.0837C243.257 85.054 247.157 90.2213 253.49 91.0745C260.667 92.0323 265.743 88.1447 268.193 82.2128C270.913 75.6476 266.036 73.0479 264.274 73.7347Z" fill="#EC9241"></path></g><defs><clipPath id="clip0_222_14868"><rect width="269" height="110" fill="white"></rect></clipPath></defs></svg> 