<?xml version="1.0" encoding="UTF-8"?> <svg xmlns="http://www.w3.org/2000/svg" width="40" height="40" viewBox="0 0 40 40" fill="none"><path fill-rule="evenodd" clip-rule="evenodd" d="M37.5569 12.9498C37.8694 13.9263 37.6137 14.9781 36.8894 15.6948L30.5561 21.9613C30.4318 22.0844 30.3751 22.2617 30.4044 22.4354L31.8994 31.284C32.0705 32.2958 31.6683 33.2994 30.8501 33.903C30.3878 34.2442 29.8467 34.4174 29.3022 34.4174C28.8829 34.4175 28.4615 34.3148 28.0722 34.107L20.2439 29.9293C20.0901 29.8472 19.9065 29.8472 19.7528 29.9293L11.9246 34.107C11.0294 34.5847 9.96473 34.5067 9.14645 33.903C8.32817 33.2995 7.92614 32.2961 8.09707 31.2841L9.59215 22.4355C9.62153 22.2617 9.56473 22.0845 9.44044 21.9614L3.10723 15.6948C2.38285 14.9781 2.12707 13.9263 2.43973 12.9498C2.75238 11.9733 3.56824 11.275 4.56918 11.1274L13.3214 9.83651C13.4933 9.81114 13.6417 9.70162 13.7186 9.54356L17.6328 1.49281C18.0804 0.572072 18.9868 0.00012207 19.9983 0.00012207C21.0097 0.00012207 21.9161 0.572072 22.3637 1.49281L26.2779 9.54348C26.3547 9.70162 26.5033 9.81114 26.6751 9.83644L35.4274 11.1274C36.4283 11.275 37.2443 11.9733 37.5569 12.9498ZM29.8192 31.6464L28.3242 22.7977C28.1774 21.9289 28.4609 21.0429 29.0827 20.4276L35.416 14.161C35.628 13.9513 35.5799 13.7072 35.5495 13.612C35.519 13.5167 35.4165 13.2906 35.1236 13.2475L26.3713 11.9565C25.512 11.8298 24.7695 11.2822 24.3852 10.4916L20.4711 2.44089V2.44081C20.34 2.17133 20.0966 2.1423 19.9981 2.1423C19.8994 2.1423 19.6559 2.17141 19.5249 2.44081L15.6108 10.4916C15.2264 11.2822 14.4838 11.8297 13.6245 11.9564L4.87242 13.2474C4.57952 13.2906 4.47695 13.5167 4.44656 13.6119C4.41601 13.7071 4.36804 13.9511 4.57999 14.1609L10.9132 20.4276C11.5352 21.0429 11.8187 21.9289 11.6719 22.7977L10.1768 31.6462C10.1267 31.9424 10.3069 32.1112 10.3866 32.17C10.4664 32.2287 10.6802 32.3505 10.9423 32.2107L18.7705 28.033C19.1547 27.8281 19.5763 27.7255 19.998 27.7255C20.4196 27.7255 20.8412 27.8281 21.2255 28.0331L29.0538 32.2108C29.3156 32.3507 29.5295 32.2288 29.6094 32.1701C29.6892 32.1114 29.8692 31.9425 29.8192 31.6464Z" fill="#67C22F"></path><path d="M32.3267 1.49221C31.8552 1.14453 31.1954 1.25064 30.8529 1.72917L29.7328 3.29402C29.3903 3.77255 29.4948 4.44244 29.9663 4.79012C30.1537 4.92819 30.3707 4.99473 30.5857 4.99473C30.912 4.99473 31.2337 4.84159 31.4401 4.55323L32.5602 2.98838C32.9027 2.50977 32.7982 1.83988 32.3267 1.49221Z" fill="#67C22F"></path><path d="M10.2613 3.28781L9.14125 1.72295C8.79883 1.24458 8.13899 1.13847 7.66742 1.48599C7.19602 1.83366 7.09149 2.50356 7.43399 2.98208L8.55407 4.54694C8.76055 4.83553 9.08227 4.98859 9.40868 4.98859C9.62375 4.98859 9.84079 4.92205 10.028 4.7839C10.4994 4.43631 10.6039 3.76641 10.2613 3.28781Z" fill="#67C22F"></path><path d="M3.87124 24.0311C3.69116 23.4686 3.09592 23.1607 2.54163 23.3435L0.72936 23.9413C0.175063 24.1241 -0.128141 24.7285 0.0519374 25.291C0.196781 25.7437 0.610454 26.0315 1.05522 26.0315C1.16327 26.0315 1.27319 26.0144 1.38155 25.9786L3.19382 25.3808C3.74803 25.198 4.05132 24.5938 3.87124 24.0311Z" fill="#67C22F"></path><path d="M20.0005 35.9235C19.4177 35.9235 18.9453 36.403 18.9453 36.9946V38.929C18.9453 39.5205 19.4177 40.0001 20.0005 40.0001C20.5832 40.0001 21.0556 39.5205 21.0556 38.929V36.9946C21.0556 36.4029 20.5833 35.9235 20.0005 35.9235Z" fill="#67C22F"></path><path d="M39.27 23.9428L37.4577 23.345C36.9037 23.1624 36.3082 23.4701 36.1281 24.0327C35.948 24.5954 36.2512 25.1996 36.8055 25.3824L38.6178 25.9802C38.7262 26.0159 38.836 26.0329 38.944 26.0329C39.3889 26.0329 39.8026 25.7451 39.9474 25.2924C40.1275 24.7298 39.8242 24.1256 39.27 23.9428Z" fill="#67C22F"></path></svg> 