<?xml version="1.0" encoding="UTF-8"?> <svg xmlns="http://www.w3.org/2000/svg" width="166" height="127" viewBox="0 0 166 127" fill="none"><path d="M17.6915 62.1696H9.08594L65.4648 0H74.1508L17.6915 62.1696Z" fill="#005B4A"></path><path d="M36.3501 62.1696H27.6641L84.1233 0H92.8094L36.3501 62.1696Z" fill="#005B4A"></path><path d="M144.764 62.2501H156.988L101.494 0.321777L46 62.2501H144.764ZM145.648 60.159L112.995 24.2084L116.534 20.348L152.243 60.159H145.648ZM86.8566 52.8402L93.4515 60.159H80.2616L86.8566 52.8402ZM88.3043 51.3121L91.843 47.4516L103.344 60.159H96.3469L88.3043 51.3121ZM93.2907 45.8431L96.8295 41.9022L113.397 60.159H106.159L93.2907 45.8431ZM98.2771 40.2937L101.735 36.5136L123.209 60.159H116.373L98.2771 40.2937ZM103.183 34.9051L106.641 31.1251L133.021 60.159H125.944L126.024 60.0786L103.183 34.9051ZM77.3663 60.159H70.2888L111.467 14.7985L115.006 18.7394L77.3663 60.159ZM67.4738 60.159H60.3963L106.561 9.32954L110.1 13.2704L67.4738 60.159ZM101.414 3.53883L105.113 7.72101L57.501 60.159H50.6647L101.414 3.53883ZM135.836 60.159L108.009 29.597L111.467 25.8169L142.672 60.2394H135.836V60.159Z" fill="#005B4A"></path><path d="M9.00776 73.1883C9.49032 73.1883 10.0533 73.1883 10.7772 73.2688C11.501 73.3492 12.1444 73.5101 12.9486 73.6709C13.7529 73.8318 14.4768 74.1535 15.2006 74.5556C15.9244 74.9577 16.5678 75.5207 17.2113 76.1641C17.7742 76.8075 18.2568 77.6922 18.6589 78.6573C19.0611 79.6225 19.2219 80.8289 19.2219 82.2765V83.0004C19.2219 84.448 19.0611 85.6544 18.6589 86.6196C18.2568 87.5847 17.8547 88.4694 17.2113 89.1128C16.6483 89.7562 16.0049 90.3192 15.2006 90.7213C14.4768 91.1234 13.7529 91.4451 12.9486 91.606C12.1444 91.7668 11.501 91.9277 10.7772 92.0081C10.1337 92.0885 9.49032 92.0885 9.00776 92.169H4.98644V102.785H0V73.1079H9.00776V73.1883ZM13.9942 82.1961C13.9942 80.8289 13.8333 79.6225 13.5116 78.6573C13.1899 77.6922 12.8682 76.8879 12.3857 76.325C11.9031 75.6816 11.4205 75.199 10.8576 74.8773C10.2946 74.5556 9.73159 74.3143 9.24903 74.1535C8.68605 73.9926 8.20349 73.9122 7.72093 73.9122C7.23838 73.9122 6.91668 73.9122 6.6754 73.9122H5.06687V91.4451H6.6754C6.91668 91.4451 7.31881 91.4451 7.80137 91.4451C8.28392 91.4451 8.76647 91.3647 9.24903 91.2038C9.81201 91.043 10.2946 90.8017 10.8576 90.48C11.4205 90.1583 11.9031 89.6758 12.3857 89.0323C12.8682 88.3889 13.1899 87.6651 13.5116 86.7C13.8333 85.7349 13.9942 84.5285 13.9942 83.1612V82.1961Z" fill="#000704"></path><path d="M35.4669 85.2523V80.4267C35.4669 79.7029 35.2257 79.0595 34.8235 78.5769C34.4214 78.0944 33.778 77.7727 33.0541 77.7727C32.5716 77.7727 32.089 77.8531 31.6869 78.0944C31.2848 78.3357 30.8826 78.6574 30.5609 78.9791C30.2392 79.3812 29.9979 79.7833 29.8371 80.1855C29.6762 80.668 29.5958 81.0701 29.5958 81.5527V102.866H24.6094V76.4858H29.1133C29.1133 76.5663 29.1133 76.7271 29.1937 76.9684C29.2741 77.2097 29.3545 77.451 29.3545 77.7727C29.3545 78.0944 29.5154 78.3357 29.5154 78.5769C29.5154 78.8182 29.5958 78.9791 29.5958 78.9791C30.1588 78.014 30.8826 77.2901 31.8477 76.7271C32.8129 76.1641 33.8584 75.9229 34.9844 75.9229C35.7082 75.9229 36.432 76.0033 37.0755 76.2446C37.7189 76.4859 38.2819 76.8075 38.8448 77.2097C39.3274 77.6118 39.7295 78.0944 40.0512 78.7378C40.3729 79.3008 40.4534 80.0246 40.4534 80.7484V84.6893L35.4669 85.2523Z" fill="#000704"></path><path d="M62.3293 97.075C62.3293 98.201 62.088 99.1661 61.5251 99.9703C60.9621 100.775 60.3187 101.418 59.5144 101.901C58.7101 102.383 57.745 102.785 56.7799 103.027C55.8148 103.268 54.7693 103.348 53.8041 103.348C52.839 103.348 51.8739 103.268 50.9088 103.027C49.9437 102.785 48.9786 102.383 48.1743 101.901C47.37 101.418 46.6462 100.775 46.1636 99.9703C45.6811 99.1661 45.3594 98.201 45.3594 97.075V82.2766C45.3594 81.1506 45.6007 80.1855 46.1636 79.3812C46.7266 78.5769 47.37 77.9335 48.1743 77.451C48.9786 76.9684 49.9437 76.5663 50.9088 76.325C51.8739 76.0837 52.839 75.9229 53.8041 75.9229C54.7693 75.9229 55.7344 76.0033 56.7799 76.325C57.745 76.5663 58.7101 76.9684 59.5144 77.451C60.3187 77.9335 61.0425 78.5769 61.5251 79.3812C62.088 80.1855 62.3293 81.1506 62.3293 82.2766V97.075ZM50.3458 99.2465C50.3458 100.372 50.6675 101.257 51.2305 101.82C51.7935 102.464 52.6782 102.705 53.8041 102.705C54.9301 102.705 55.8148 102.383 56.3778 101.82C57.0212 101.257 57.2625 100.372 57.2625 99.1661V80.105C57.2625 78.9791 57.0212 78.1748 56.4582 77.5314C55.8952 76.888 55.0105 76.6467 53.965 76.6467C51.6326 76.6467 50.4262 77.7727 50.4262 80.1855V99.2465H50.3458Z" fill="#000704"></path><path d="M94.4974 73.188H99.4838V102.865H94.4974V86.1366H85.6505V102.865H80.6641V73.188H85.6505V85.3324H94.4974V73.188Z" fill="#000704"></path><path d="M123.134 97.075C123.134 98.201 122.893 99.1661 122.33 99.9703C121.767 100.775 121.123 101.418 120.319 101.901C119.515 102.383 118.55 102.785 117.585 103.027C116.619 103.268 115.574 103.348 114.609 103.348C113.644 103.348 112.679 103.268 111.714 103.027C110.748 102.785 109.783 102.383 108.979 101.901C108.175 101.418 107.451 100.775 106.968 99.9703C106.486 99.1661 106.164 98.201 106.164 97.075V82.2766C106.164 81.1506 106.405 80.1855 106.968 79.3812C107.531 78.5769 108.175 77.9335 108.979 77.451C109.783 76.9684 110.748 76.5663 111.714 76.325C112.679 76.0837 113.644 75.9229 114.609 75.9229C115.574 75.9229 116.539 76.0033 117.585 76.325C118.55 76.5663 119.515 76.9684 120.319 77.451C121.123 77.9335 121.847 78.5769 122.33 79.3812C122.893 80.1855 123.134 81.1506 123.134 82.2766V97.075ZM111.231 99.2465C111.231 100.372 111.553 101.257 112.116 101.82C112.679 102.464 113.563 102.705 114.689 102.705C115.815 102.705 116.7 102.383 117.263 101.82C117.906 101.257 118.148 100.372 118.148 99.1661V80.105C118.148 78.9791 117.906 78.1748 117.343 77.5314C116.78 76.888 115.896 76.6467 114.85 76.6467C112.518 76.6467 111.311 77.7727 111.311 80.1855V99.2465H111.231Z" fill="#000704"></path><path d="M133.582 80.1048C133.582 81.1504 133.743 81.9546 133.985 82.598C134.306 83.2414 134.869 83.8848 135.754 84.4478L141.706 88.4691C142.429 88.9517 143.073 89.3539 143.636 89.9168C144.199 90.4798 144.681 90.882 145.164 91.5254C145.566 92.0883 145.968 92.7318 146.129 93.4556C146.37 94.1794 146.531 94.9033 146.531 95.788C146.531 97.0748 146.29 98.2008 145.727 99.1659C145.244 100.131 144.52 100.935 143.716 101.579C142.832 102.222 141.866 102.705 140.821 103.026C139.775 103.348 138.569 103.509 137.443 103.509C136.478 103.509 135.513 103.428 134.467 103.187C133.422 102.946 132.457 102.544 131.572 102.061C130.687 101.579 129.963 100.935 129.4 100.131C128.837 99.3267 128.516 98.3616 128.516 97.2356V96.8335L128.596 96.1097V95.7075L133.582 95.1446C133.582 96.0292 133.582 96.9139 133.502 97.7986C133.422 98.6833 133.502 99.568 133.663 100.292C133.824 101.016 134.226 101.659 134.789 102.142C135.352 102.624 136.237 102.865 137.443 102.865C138.408 102.865 139.212 102.705 139.775 102.463C140.338 102.142 140.74 101.82 140.982 101.337C141.223 100.855 141.384 100.211 141.464 99.568C141.545 98.8442 141.545 98.1203 141.545 97.316C141.545 96.1901 141.223 95.225 140.58 94.4207C139.936 93.6164 139.132 92.8926 138.167 92.1688C137.202 91.4449 136.156 90.8015 135.03 90.1581C133.904 89.5147 132.859 88.8713 131.894 88.1474C130.928 87.4236 130.124 86.5389 129.481 85.6542C128.837 84.6891 128.516 83.5632 128.516 82.2763C128.516 81.1504 128.757 80.1852 129.32 79.381C129.883 78.5767 130.526 77.9333 131.331 77.4508C132.135 76.9682 133.1 76.6465 134.065 76.4052C135.03 76.1639 136.076 76.0835 137.041 76.0835C138.006 76.0835 138.971 76.1639 139.936 76.4856C140.901 76.7269 141.866 77.129 142.671 77.6116C143.475 78.0941 144.118 78.7376 144.681 79.5418C145.164 80.3461 145.486 81.3112 145.486 82.4372V83.5631L140.499 84.0457C140.499 83.3219 140.499 82.5176 140.58 81.7133C140.58 80.8287 140.58 80.0244 140.419 79.3005C140.258 78.5767 139.936 78.0137 139.454 77.5312C138.971 77.0486 138.167 76.8073 137.121 76.8073C134.708 76.6465 133.582 77.7724 133.582 80.1048Z" fill="#000704"></path><path d="M153.132 77.2094H149.352V76.566H150.558C151.684 76.566 152.569 76.4052 153.212 76.003C153.936 75.6813 154.418 75.2792 154.821 74.8771C155.303 74.3945 155.625 73.8315 155.866 73.2686H158.118V76.566H164.391V77.2094H158.118V97.3965C158.118 99.005 158.44 100.051 159.083 100.694C159.727 101.337 160.45 101.579 161.335 101.579C161.818 101.579 162.3 101.418 162.783 101.177C163.265 100.935 163.667 100.533 164.07 99.9701C164.472 99.4071 164.713 98.7637 164.954 97.9595C165.196 97.1552 165.276 96.1901 165.276 95.1445H166C166 96.5922 165.839 97.879 165.437 98.9246C165.035 99.9701 164.552 100.855 163.989 101.498C163.346 102.142 162.702 102.624 161.898 102.946C161.094 103.268 160.29 103.428 159.485 103.428C158.681 103.428 157.877 103.268 157.153 103.026C156.349 102.785 155.705 102.302 155.142 101.659C154.579 101.016 154.097 100.211 153.695 99.2463C153.292 98.2811 153.132 97.0747 153.132 95.7075V77.2094Z" fill="#000704"></path><path d="M19.8672 119.836C19.8672 117.986 20.5106 116.458 21.7974 115.171C23.1647 113.884 24.6928 113.241 26.5426 113.241C28.7945 113.241 30.5639 114.125 31.8507 115.895L30.403 117.101C29.4379 115.734 28.1511 115.091 26.623 115.091C25.2557 115.091 24.2102 115.573 23.3255 116.458C22.4408 117.342 22.0387 118.468 22.0387 119.836C22.0387 121.203 22.4408 122.329 23.3255 123.214C24.2102 124.098 25.3362 124.581 26.7034 124.581C28.3924 124.581 29.6792 123.937 30.4835 122.651V121.283H26.5426V119.434H32.4941V123.053C31.9311 124.098 31.1269 124.903 30.0813 125.466C29.0358 126.109 27.8294 126.35 26.623 126.35C24.7732 126.35 23.1647 125.707 21.8778 124.42C20.5106 123.214 19.8672 121.685 19.8672 119.836Z" fill="#000704"></path><path d="M60.8024 126.189H58.47L54.8508 121.283H52.5185V126.189H50.5078V113.482H55.1725C56.4594 113.482 57.5049 113.884 58.3092 114.608C59.1134 115.332 59.5155 116.297 59.5155 117.423C59.5155 118.227 59.2743 119.031 58.8721 119.594C58.47 120.238 57.8266 120.72 57.1028 120.962L60.8024 126.189ZM52.5185 115.251V119.433H55.0921C55.8159 119.433 56.2985 119.273 56.7811 118.871C57.1832 118.468 57.4245 117.986 57.4245 117.342C57.4245 116.699 57.1832 116.216 56.7811 115.814C56.3789 115.412 55.8159 115.251 55.0921 115.251H52.5185Z" fill="#000704"></path><path d="M77.0529 119.836C77.0529 117.986 77.6963 116.458 78.9832 115.171C80.27 113.884 81.8785 113.241 83.7283 113.241C85.5781 113.241 87.1062 113.884 88.4735 115.171C89.8407 116.458 90.4841 118.066 90.4037 119.836C90.4037 121.685 89.7603 123.214 88.4735 124.5C87.1866 125.787 85.5781 126.431 83.7283 126.431C81.8785 126.431 80.3504 125.787 78.9832 124.5C77.6963 123.214 76.9725 121.605 77.0529 119.836ZM88.3126 119.836C88.3126 118.468 87.9105 117.342 87.0258 116.458C86.1411 115.573 85.0956 115.091 83.7283 115.091C82.4415 115.091 81.3155 115.573 80.4308 116.458C79.5461 117.342 79.144 118.468 79.144 119.836C79.144 121.203 79.5461 122.329 80.4308 123.214C81.3155 124.098 82.3611 124.581 83.7283 124.581C85.0151 124.581 86.1411 124.098 87.0258 123.214C87.9105 122.329 88.3126 121.122 88.3126 119.836Z" fill="#000704"></path><path d="M108.172 121.042V113.482H110.183V121.203C110.183 122.248 110.504 123.053 111.067 123.696C111.63 124.259 112.434 124.581 113.4 124.581C114.365 124.581 115.089 124.259 115.732 123.696C116.295 123.133 116.617 122.248 116.617 121.203V113.482H118.627V121.042C118.627 122.651 118.145 124.018 117.18 124.983C116.215 125.948 114.928 126.431 113.4 126.431C111.871 126.431 110.585 125.948 109.62 124.983C108.654 124.018 108.172 122.731 108.172 121.042Z" fill="#000704"></path><path d="M137.125 126.189V113.482H141.79C143.077 113.482 144.122 113.884 144.926 114.608C145.731 115.332 146.133 116.297 146.133 117.423C146.133 118.549 145.731 119.514 144.926 120.238C144.122 120.962 143.077 121.364 141.79 121.364H139.216V126.27H137.125V126.189ZM139.216 119.433H141.79C142.514 119.433 143.077 119.273 143.479 118.871C143.881 118.468 144.042 117.986 144.042 117.342C144.042 116.699 143.881 116.216 143.479 115.814C143.077 115.412 142.514 115.251 141.79 115.251H139.216V119.433Z" fill="#000704"></path></svg> 