<?xml version="1.0" encoding="UTF-8"?> <svg xmlns="http://www.w3.org/2000/svg" width="40" height="40" viewBox="0 0 40 40" fill="none"><g clip-path="url(#clip0_1895_13580)"><path fill-rule="evenodd" clip-rule="evenodd" d="M38.0771 5.19535C38.3101 4.96558 38.6487 4.87878 38.9635 4.96808C39.2825 5.05939 39.5264 5.31724 39.5998 5.64081C40.3155 8.92566 39.3589 12.3517 37.0453 14.7908C34.5226 17.2726 31.6726 16.5726 29.9771 16.1545L29.7498 16.0999C27.5544 18.209 18.2135 27.5908 16.1908 29.6999L16.2635 30.0362C16.6317 31.7545 17.2408 34.6362 14.8135 37.0635C12.9272 38.8796 10.4092 39.8917 7.79077 39.8862C7.05122 39.888 6.31413 39.801 5.59532 39.6272C5.27573 39.5496 5.02297 39.3054 4.93436 38.9887C4.84575 38.672 4.93512 38.3321 5.16805 38.0999L8.75438 34.5135L5.50895 31.2681L1.92259 34.8045C1.68958 35.0349 1.35056 35.1221 1.03526 35.0327C0.719959 34.9433 0.477191 34.6911 0.399861 34.3726C-0.320567 31.0835 0.636276 27.6511 2.95441 25.209C5.47713 22.7272 8.3271 23.4272 10.0226 23.8453L10.2498 23.8999C12.4453 21.7908 21.7862 12.409 23.8089 10.2999L23.7362 9.9635C23.3681 8.24534 22.7589 5.36353 25.1862 2.93626C27.6311 0.58373 31.096 -0.379892 34.4044 0.372624C34.724 0.45023 34.9768 0.694397 35.0653 1.01112C35.154 1.32784 35.0646 1.66772 34.8317 1.89989L31.2453 5.48626L34.4908 8.73174L38.0771 5.19535ZM30.474 14.4177C32.0412 14.7883 33.9622 15.2427 35.7589 13.4953C37.1971 11.9545 38.0119 9.93462 38.0453 7.82717L35.1408 10.6908C34.7862 11.0433 34.2135 11.0433 33.8589 10.6908L29.3135 6.14535C29.1428 5.97484 29.0469 5.74345 29.0469 5.50217C29.0469 5.26089 29.1428 5.0295 29.3135 4.85899L32.2226 1.94989C30.084 1.94172 28.0239 2.75533 26.4681 4.22262C24.7408 5.94989 25.1681 7.96808 25.5135 9.58622L25.517 9.6027C25.5839 9.91462 25.6459 10.2043 25.6817 10.4545C25.7231 10.7259 25.6396 11.0016 25.4544 11.2045C24.3453 12.4226 12.4362 24.3635 11.1226 25.5226C10.9094 25.7185 10.6157 25.8013 10.3317 25.7453C10.1044 25.6999 9.84534 25.6362 9.56806 25.5681L9.51206 25.5549C7.94488 25.1842 6.02386 24.7298 4.22713 26.4772C2.78661 28.0281 1.97623 30.0605 1.95441 32.1772L4.85895 29.3135C5.21353 28.961 5.78619 28.961 6.14077 29.3135L10.6862 33.859C10.8569 34.0295 10.9529 34.2609 10.9529 34.5021C10.9529 34.7434 10.8569 34.9749 10.6862 35.1453L7.77713 38.0545C9.91574 38.0626 11.9758 37.249 13.5317 35.7817C15.2589 34.0545 14.8317 32.0362 14.4862 30.4181C14.4797 30.3869 14.4731 30.356 14.4666 30.3253C14.406 30.0394 14.3509 29.7794 14.3181 29.5453C14.2766 29.2738 14.3601 28.9982 14.5453 28.7953C15.6544 27.5772 27.5635 15.6362 28.8635 14.4499C29.0766 14.254 29.3704 14.1713 29.6544 14.2272C29.8817 14.2726 30.1408 14.3362 30.4181 14.4045L30.474 14.4177Z" fill="#2FC5F1"></path></g><defs><clipPath id="clip0_1895_13580"><rect width="40" height="40" fill="white"></rect></clipPath></defs></svg> 