<?xml version="1.0" encoding="UTF-8"?> <svg xmlns="http://www.w3.org/2000/svg" width="42" height="43" viewBox="0 0 42 43" fill="none"><path fill-rule="evenodd" clip-rule="evenodd" d="M4.77381 16.6298C7.26458 20.1994 7.2482 21.8123 7.23233 23.3752L7.23227 23.3816C7.11312 34.7564 14.9968 38.2713 19.6794 38.5533C20.0369 38.5732 20.3824 38.5851 20.7279 38.5851C25.1079 38.6371 29.3005 36.8112 32.2457 33.5689L34.8472 30.7014L34.8908 30.6497L36.1816 29.2239C37.1125 28.2922 37.46 26.9262 37.0875 25.6629C36.7149 24.3996 35.6819 23.4407 34.3944 23.1632C34.6455 22.2508 34.4842 21.2743 33.9532 20.4911C33.4221 19.7079 32.5746 19.1967 31.6341 19.0922C31.7632 18.7356 31.8303 18.3595 31.8327 17.9802C31.8372 16.272 30.6324 14.7993 28.9572 14.4653L33.2664 10.1401C34.1866 9.22291 34.5402 7.88049 34.1912 6.62899C33.8422 5.37749 32.845 4.41173 31.583 4.10303C30.321 3.79432 28.9906 4.19072 28.1033 5.13982C23.381 10.1798 17.5109 15.9149 15.1954 16.8562C13.8451 17.4122 13.5194 16.9793 12.4748 15.2675C11.7494 13.9264 10.7858 12.7286 9.63114 11.7328C8.25695 10.6167 6.64049 10.585 5.30204 11.6454C3.78884 12.8409 3.5704 14.8982 4.77381 16.6298ZM33.6287 24.6764C34.161 24.6744 34.6718 24.8861 35.0466 25.2642C35.4247 25.6473 35.6343 26.1655 35.6291 26.7037C35.6239 27.242 35.4042 27.756 35.0188 28.1317L33.7597 29.5178C33.0692 29.844 32.2486 29.7062 31.7024 29.1723L31.6309 29.0968C30.9582 28.4371 30.893 27.3755 31.48 26.6384L33.4658 24.6526L33.6287 24.6764ZM32.5312 23.3578C33.0874 22.7031 33.0458 21.7306 32.4359 21.1257H32.4279C31.8879 20.596 31.0575 20.4995 30.4103 20.8914C29.7034 21.4991 28.3729 22.5515 28.0551 22.7978C27.472 23.5253 27.5196 24.5727 28.1664 25.2443L28.2617 25.3396C28.7671 25.823 29.5033 25.977 30.1601 25.7368L32.4398 23.4571C32.4674 23.4214 32.498 23.3882 32.5312 23.3578ZM29.6559 16.5543C30.0339 16.9291 30.2457 17.4399 30.2437 17.9722C30.1918 18.6174 29.8931 19.2178 29.4097 19.6483C28.9251 20.0693 27.8806 20.9073 27.1101 21.511C26.4409 21.702 25.7209 21.5132 25.2315 21.0185L25.1798 20.9669C24.4269 20.2132 24.4269 18.992 25.1798 18.2383L27.0465 16.3717C27.8375 15.7715 28.9503 15.8478 29.6519 16.5504L29.6559 16.5543ZM8.62896 12.9481C7.81874 12.2928 7.05222 12.2689 6.28966 12.8726C5.3166 13.6511 5.47944 14.8664 6.07916 15.7084C8.65676 19.3941 8.8474 21.2925 8.82357 23.3935C8.78386 27.115 9.63776 29.8078 10.8809 31.7697C10.9224 31.7991 10.9609 31.8323 10.9961 31.869C10.9964 31.8694 10.9971 31.87 10.998 31.871C11.0652 31.9395 12.634 33.5392 14.6659 33.4061C16.1433 33.3068 17.5612 32.3218 18.8838 30.479C19.1433 30.1342 19.6305 30.0596 19.9813 30.3111C20.332 30.5625 20.4178 31.0479 20.1746 31.4044C18.5541 33.6483 16.7391 34.8517 14.7532 34.9788H14.4157H14.0384C15.7564 36.1049 17.7269 36.7872 19.7734 36.9647C23.9945 37.2769 28.1286 35.6533 31.0092 32.5522L31.041 32.5164L32.2325 31.2018C31.5995 31.0582 31.0199 30.7388 30.5604 30.2804L30.5008 30.2129C29.7682 29.4833 29.406 28.4608 29.5159 27.4327C28.6087 27.4354 27.7375 27.0783 27.0932 26.4398L27.0614 26.408L27.0296 26.3802C26.1852 25.529 25.8425 24.3008 26.1241 23.1354C25.3556 23.0377 24.6416 22.687 24.0946 22.1385L24.0509 22.0948C23.3873 21.4344 23.0142 20.5368 23.0142 19.6006C23.0142 18.6644 23.3873 17.7668 24.0509 17.1064L32.1372 9.03601C32.5143 8.65974 32.7263 8.14889 32.7263 7.61614C32.7263 7.0834 32.5143 6.57255 32.1372 6.19628C31.7519 5.81199 31.2276 5.59996 30.6835 5.60847C30.1401 5.6157 29.6233 5.84537 29.2537 6.24394C26.2432 9.45701 18.9155 17.0627 15.7898 18.3456C15.424 18.5 15.0394 18.6055 14.646 18.6593C15.0712 20.1514 14.8029 21.7556 13.9152 23.0281C13.6725 23.3801 13.1946 23.4768 12.8341 23.2468C12.4736 23.0168 12.3599 22.5427 12.5768 22.1742C14.1257 19.7555 12.6046 18.0914 12.5371 18.0199C12.5201 17.9995 12.5042 17.9783 12.4894 17.9563C11.9462 17.3942 11.4837 16.7593 11.1152 16.0698C10.4823 14.8873 9.63987 13.8296 8.62896 12.9481Z" fill="#67C22F"></path></svg> 