<?xml version="1.0" encoding="UTF-8"?> <svg xmlns="http://www.w3.org/2000/svg" width="44" height="52" viewBox="0 0 44 52" fill="none"><path fill-rule="evenodd" clip-rule="evenodd" d="M4.85714 8H19.0023C19.4761 8 19.8598 8.38376 19.8594 8.85714V23.0019C19.8594 23.4753 19.4757 23.8591 19.0023 23.8591H4.85714C4.38376 23.8591 4 23.4753 4 23.0019V8.85714C4 8.38376 4.38376 8 4.85714 8ZM5.71219 22.1452H18.1434V9.71428H5.71219V22.1452Z" fill="#67C22F"></path><path fill-rule="evenodd" clip-rule="evenodd" d="M24.9974 8H39.1437C39.6167 8 40.0008 8.38376 40.0008 8.85714V23.0019C40.0008 23.4753 39.6167 23.8591 39.1437 23.8591H24.9974C24.5244 23.8591 24.1406 23.4753 24.1406 23.0019V8.85714C24.1406 8.38376 24.5244 8 24.9974 8ZM25.8527 22.1452H38.284H38.2844V9.71428H25.8527V22.1452Z" fill="#67C22F"></path><path fill-rule="evenodd" clip-rule="evenodd" d="M4.85714 28.1409H19.0023C19.4761 28.1409 19.8598 28.5247 19.8594 28.9977V43.1429C19.8594 43.6159 19.4757 44 19.0023 44H4.85714C4.38376 44 4 43.6159 4 43.1429V28.9977C4 28.5247 4.38376 28.1409 4.85714 28.1409ZM5.71219 42.2853H18.1434V29.8549H5.71219V42.2853Z" fill="#67C22F"></path><path fill-rule="evenodd" clip-rule="evenodd" d="M24.9974 28.1409H39.1437C39.6167 28.1409 40.0008 28.5247 40.0008 28.9977V43.1429C40.0008 43.6159 39.6167 44 39.1437 44H24.9974C24.5244 44 24.1406 43.6159 24.1406 43.1429V28.9977C24.1406 28.5247 24.5244 28.1409 24.9974 28.1409ZM25.8527 42.2853H38.284H38.2844V29.8549H25.8527V42.2853Z" fill="#67C22F"></path></svg> 