<?xml version="1.0" encoding="UTF-8"?> <svg xmlns="http://www.w3.org/2000/svg" width="115" height="60" viewBox="0 0 115 60" fill="none"><path fill-rule="evenodd" clip-rule="evenodd" d="M57.025 0.00830078C25.5364 0.00830078 0.000244141 13.4268 0.000244141 29.9996C0.000244141 46.5725 25.5364 59.9915 57.025 59.9915C88.5134 59.9915 114.049 46.5725 114.049 29.9996C114.049 13.4268 88.5134 0.00830078 57.025 0.00830078ZM57.025 3.0021C87.5685 3.0021 111.056 15.8682 111.056 29.9996C111.056 44.1311 87.5504 56.9974 57.025 56.9974C26.4811 56.9974 2.99405 44.1311 2.99405 29.9996C2.99405 15.8682 26.4987 3.0021 57.025 3.0021ZM27.9701 34.0739C33.348 34.1326 37.5995 34.1789 38.8837 27.5939C40.0824 21.3741 36.3933 21.4114 30.6264 21.4695C30.0486 21.4754 29.4499 21.4814 28.8332 21.4814L26.3918 34.0625C26.9272 34.0625 27.4539 34.0683 27.9701 34.0739ZM17.3571 46.8039H23.8971L25.4477 38.8206C26.2608 38.8206 27.0397 38.8272 27.7877 38.8336C33.7765 38.8842 37.7825 38.9182 41.5212 35.417C46.1722 31.1399 47.3839 23.5308 44.0695 19.7173C42.3412 17.7215 39.5608 16.7414 35.7833 16.7414H23.1843L17.3571 46.8039ZM56.9536 8.74029H50.4491L44.6219 38.7852H51.1262L54.4765 21.5709C55.323 21.5709 56.0902 21.5654 56.7857 21.5605H56.7859H56.786C60.4388 21.5344 62.115 21.5225 62.9231 22.3906C63.732 23.2571 63.546 24.1938 61.9858 32.0476L61.9856 32.0486C61.6206 33.8862 61.1803 36.1025 60.66 38.7852H67.2536C67.7335 36.3227 68.1685 34.1869 68.5475 32.3259L68.5476 32.3254C70.4204 23.13 70.9263 20.646 68.7327 18.6304C66.5539 16.6216 62.3519 16.6628 57.614 16.7092H57.6138H57.6136C56.8875 16.7163 56.1489 16.7235 55.4031 16.7235L56.9536 8.74029ZM89.9923 27.5939C88.704 34.212 84.4043 34.1515 79.1963 34.0783C78.6404 34.0705 78.0742 34.0625 77.5002 34.0625L79.9416 21.4814C80.5619 21.4814 81.1635 21.4754 81.7438 21.4695H81.7439C87.5315 21.4114 91.1907 21.3746 89.9923 27.5939ZM75.0233 46.8039H68.4657L74.3102 16.7414H86.9093C90.687 16.7414 93.4669 17.7215 95.1959 19.7173C98.5101 23.5308 97.2984 31.1399 92.6474 35.417C88.9338 38.8893 85.1041 38.8667 78.7378 38.829C78.0474 38.8249 77.3271 38.8206 76.5739 38.8206L75.0233 46.8039Z" fill="#2FC5F1"></path></svg> 