<?xml version="1.0" encoding="UTF-8"?> <svg xmlns="http://www.w3.org/2000/svg" width="48" height="48" viewBox="0 0 48 48" fill="none"><path d="M27.9062 10.4844C27.475 10.4844 27.125 10.8344 27.125 11.2656C27.125 11.6969 27.475 12.0469 27.9062 12.0469C28.3375 12.0469 28.6875 11.6969 28.6875 11.2656C28.6875 10.8344 28.3375 10.4844 27.9062 10.4844Z" fill="#67C22F"></path><path d="M20.0938 10.4844C19.6625 10.4844 19.3125 10.8344 19.3125 11.2656C19.3125 11.6969 19.6625 12.0469 20.0938 12.0469C20.525 12.0469 20.875 11.6969 20.875 11.2656C20.875 10.8344 20.525 10.4844 20.0938 10.4844Z" fill="#67C22F"></path><path d="M40.9627 27.3502C41.6333 26.3438 41.9688 25.088 41.9688 24C41.9688 22.3597 41.2401 20.8357 39.9897 19.8023C40.2664 19.141 40.4062 18.4533 40.4062 17.75C40.4062 15.5738 39.1362 13.5466 37.248 12.6C37.5345 10.2239 35.9862 8.04594 33.6918 7.49039C32.7937 5.41437 30.7949 4 28.6875 4C26.7258 4 24.9663 5.14422 24 6.81375C23.0336 5.14422 21.2741 4 19.3125 4C17.2049 4 15.2061 5.41438 14.3082 7.49047C12 8.04953 10.4663 10.2384 10.752 12.6C8.86383 13.5466 7.59375 15.5738 7.59375 17.75C7.59375 18.4533 7.73359 19.141 8.01031 19.8023C6.75992 20.8358 6.03125 22.3597 6.03125 24C6.03125 25.0938 6.36953 26.3478 7.03727 27.3501C6.38477 28.2712 6.03125 29.3628 6.03125 30.4844C6.03125 31.9387 6.62094 33.3242 7.66398 34.353C7.12773 37.5945 9.71289 40.875 13.0625 40.875C13.0867 40.875 13.1105 40.8746 13.1339 40.8739C14.2445 42.7897 16.3059 44 18.5312 44C20.8506 44 22.9231 42.6078 24 40.602C25.0769 42.6078 27.1494 44 29.4688 44C31.6941 44 33.7555 42.7897 34.8661 40.8739C34.8895 40.8746 34.9133 40.875 34.9375 40.875C37.9019 40.875 40.4062 38.2633 40.4062 35.1719C40.4062 34.9087 40.3831 34.638 40.336 34.353C41.3791 33.3242 41.9688 31.9388 41.9688 30.4844C41.9688 29.3628 41.6152 28.2712 40.9627 27.3502ZM23.2188 15.8266C22.7588 15.5598 22.2252 15.4062 21.6562 15.4062C21.2248 15.4062 20.875 15.756 20.875 16.1875C20.875 16.619 21.2248 16.9688 21.6562 16.9688C22.5178 16.9688 23.2188 17.6697 23.2188 18.5312V33.3882C22.0726 32.0881 20.3966 31.2656 18.5312 31.2656C18.0998 31.2656 17.75 31.6154 17.75 32.0469C17.75 32.4784 18.0998 32.8281 18.5312 32.8281C21.1159 32.8281 23.2188 34.9309 23.2188 37.5156C23.2188 40.1835 21.0721 42.4375 18.5312 42.4375C16.7225 42.4375 15.0574 41.3679 14.2891 39.7125C14.1475 39.4074 13.8267 39.2275 13.4923 39.2652C13.437 39.2715 13.3821 39.2788 13.3272 39.2863C11.1038 39.5904 8.59984 37.0727 9.27766 34.2561C9.34727 33.9668 9.24648 33.6632 9.01781 33.4729C8.11281 32.7198 7.59375 31.6305 7.59375 30.4844C7.59375 29.7757 7.79414 29.0822 8.16703 28.4741C9.10406 29.242 10.2696 29.7031 11.5 29.7031C11.9315 29.7031 12.2812 29.3534 12.2812 28.9219C12.2812 28.4904 11.9315 28.1406 11.5 28.1406C9.37977 28.1406 7.59375 26.2055 7.59375 24C7.59375 22.6621 8.2757 21.4313 9.41812 20.7077C9.77008 20.4847 9.88516 20.0248 9.67961 19.6623C9.33234 19.0499 9.15625 18.4065 9.15625 17.75C9.15625 15.6414 10.8752 13.6094 13.0625 13.6094C15.1434 13.6094 16.9688 15.5443 16.9688 17.75C16.9688 18.1815 17.3185 18.5312 17.75 18.5312C18.1815 18.5312 18.5312 18.1815 18.5312 17.75C18.5312 14.6586 16.0269 12.0469 13.0625 12.0469C12.8009 12.0469 12.5408 12.068 12.2832 12.1081C12.2828 12.0876 12.2812 12.0676 12.2812 12.0469C12.2812 10.3034 13.6966 8.92188 15.4062 8.92188C16.2408 8.92188 17.0258 9.24695 17.6166 9.83711C17.9218 10.142 18.4164 10.1417 18.7214 9.83656C19.0263 9.53125 19.0261 9.03664 18.7209 8.73172C18.0081 8.01977 17.1066 7.5657 16.1297 7.41523C16.8187 6.3925 17.9644 5.5625 19.3125 5.5625C21.3934 5.5625 23.2188 7.49734 23.2188 9.70312V15.8266ZM36.5 29.7031C37.7305 29.7031 38.896 29.242 39.833 28.4743C40.2059 29.0823 40.4062 29.7758 40.4062 30.4844C40.4062 31.6305 39.8872 32.7198 38.9823 33.4729C38.7535 33.6632 38.6528 33.9669 38.7224 34.2561C38.8052 34.6001 38.8438 34.8911 38.8438 35.1718C38.8438 37.5968 36.6504 39.5566 34.6729 39.2863C34.618 39.2788 34.563 39.2714 34.5077 39.2652C34.1728 39.2273 33.8524 39.4074 33.7109 39.7125C32.9427 41.3679 31.2774 42.4375 29.4688 42.4375C26.9279 42.4375 24.7812 40.1835 24.7812 37.5156C24.7812 34.9309 26.8841 32.8281 29.4688 32.8281C29.9002 32.8281 30.25 32.4784 30.25 32.0469C30.25 31.6154 29.9002 31.2656 29.4688 31.2656C27.6034 31.2656 25.9274 32.0881 24.7812 33.3882V18.5312C24.7812 17.6697 25.4822 16.9688 26.3438 16.9688C26.7752 16.9688 27.125 16.619 27.125 16.1875C27.125 15.756 26.7752 15.4062 26.3438 15.4062C25.7748 15.4062 25.2412 15.5598 24.7812 15.8266V9.70312C24.7812 7.49734 26.6066 5.5625 28.6875 5.5625C30.0356 5.5625 31.1813 6.3925 31.8702 7.41516C30.8934 7.56562 29.992 8.01969 29.2791 8.73164C28.9738 9.03656 28.9735 9.53117 29.2784 9.83648C29.5834 10.1418 30.0781 10.142 30.3833 9.83711C30.9743 9.24695 31.7592 8.92188 32.5938 8.92188C34.312 8.92188 35.7188 10.3115 35.7188 12.0469C35.7188 12.0675 35.7172 12.0876 35.7168 12.1081C35.4592 12.068 35.1991 12.0469 34.9375 12.0469C31.9731 12.0469 29.4688 14.6586 29.4688 17.75C29.4688 18.1815 29.8186 18.5312 30.25 18.5312C30.6814 18.5312 31.0312 18.1815 31.0312 17.75C31.0312 15.5443 32.8566 13.6094 34.9375 13.6094C37.1236 13.6094 38.8438 15.6404 38.8438 17.75C38.8438 18.4065 38.6677 19.0499 38.3204 19.6623C38.1149 20.0248 38.23 20.4847 38.582 20.7077C39.7243 21.4313 40.4062 22.6621 40.4062 24C40.4062 26.2134 38.614 28.1406 36.5 28.1406C36.0686 28.1406 35.7188 28.4904 35.7188 28.9219C35.7188 29.3534 36.0686 29.7031 36.5 29.7031Z" fill="#67C22F"></path><path d="M21.4573 20.7229C21.1696 20.4013 20.6758 20.3738 20.3541 20.6615C17.8488 22.9025 13.8438 21.1115 13.8438 17.75C13.8438 17.3185 13.494 16.9688 13.0625 16.9688C12.631 16.9688 12.2812 17.3185 12.2812 17.75C12.2812 20.4621 14.2662 22.7184 16.8594 23.1451C16.5586 24.0926 15.6708 24.7812 14.625 24.7812C14.1935 24.7812 13.8438 25.131 13.8438 25.5625C13.8438 25.994 14.1935 26.3438 14.625 26.3438C16.5279 26.3438 18.1164 24.9758 18.4611 23.1717C19.5476 23.0296 20.5702 22.5647 21.3959 21.826C21.7174 21.5384 21.7449 21.0445 21.4573 20.7229Z" fill="#67C22F"></path><path d="M13.0625 34.3906C12.631 34.3906 12.2812 34.7404 12.2812 35.1719C12.2812 35.6034 12.631 35.9531 13.0625 35.9531C15.1434 35.9531 16.9688 37.888 16.9688 40.0938C16.9688 40.5252 17.3185 40.875 17.75 40.875C18.1815 40.875 18.5312 40.5252 18.5312 40.0938C18.5312 37.0023 16.0269 34.3906 13.0625 34.3906Z" fill="#67C22F"></path><path d="M19.3126 28.1406C16.6653 28.1406 14.3923 29.5926 13.1955 31.7038C12.9827 32.0791 13.1145 32.5559 13.4898 32.7687C13.8652 32.9814 14.3419 32.8497 14.5548 32.4743C15.4872 30.8293 17.2564 29.7031 19.3126 29.7031C19.7441 29.7031 20.0939 29.3534 20.0939 28.9219C20.0939 28.4904 19.7441 28.1406 19.3126 28.1406Z" fill="#67C22F"></path><path d="M33.375 24.7812C32.3292 24.7812 31.4414 24.0926 31.1406 23.1451C33.7338 22.7184 35.7188 20.4621 35.7188 17.75C35.7188 17.3185 35.3689 16.9688 34.9375 16.9688C34.5061 16.9688 34.1563 17.3185 34.1563 17.75C34.1563 19.9039 32.4039 21.6562 30.25 21.6562C29.2878 21.6562 28.3631 21.303 27.6459 20.6615C27.3244 20.3738 26.8304 20.4012 26.5428 20.7229C26.255 21.0445 26.2826 21.5384 26.6042 21.826C27.4299 22.5647 28.4525 23.0296 29.5389 23.1717C29.8836 24.9758 31.4721 26.3438 33.375 26.3438C33.8064 26.3438 34.1563 25.994 34.1563 25.5625C34.1563 25.131 33.8064 24.7812 33.375 24.7812Z" fill="#67C22F"></path><path d="M34.9375 34.3906C31.9731 34.3906 29.4688 37.0023 29.4688 40.0938C29.4688 40.5252 29.8186 40.875 30.25 40.875C30.6814 40.875 31.0312 40.5252 31.0312 40.0938C31.0312 37.888 32.8566 35.9531 34.9375 35.9531C35.3689 35.9531 35.7188 35.6034 35.7188 35.1719C35.7188 34.7404 35.3689 34.3906 34.9375 34.3906Z" fill="#67C22F"></path><path d="M34.8047 31.7038C33.6108 29.5977 31.3409 28.1406 28.6875 28.1406C28.2561 28.1406 27.9062 28.4904 27.9062 28.9219C27.9062 29.3534 28.2561 29.7031 28.6875 29.7031C30.7423 29.7031 32.5128 30.829 33.4452 32.4743C33.6583 32.8502 34.1354 32.9812 34.5102 32.7687C34.8855 32.556 35.0173 32.0792 34.8047 31.7038Z" fill="#67C22F"></path></svg> 