<?xml version="1.0" encoding="UTF-8"?> <svg xmlns="http://www.w3.org/2000/svg" width="60" height="60" viewBox="0 0 60 60" fill="none"><path fill-rule="evenodd" clip-rule="evenodd" d="M30.0582 4.31409C36.7738 4.31409 42.8885 6.88757 47.472 11.101C45.2254 11.0407 42.9835 12.3761 42.8908 15.4342C42.7018 21.6163 50.2831 22.9332 46.198 35.3681L42.8189 45.6539L33.6158 18.5443C33.4733 18.1247 33.639 17.8859 34.1549 17.8859H36.7568C36.892 17.8859 37.0025 17.7705 37.0025 17.6291V16.088C37.0025 15.9466 36.8917 15.8253 36.7568 15.8312C31.8295 16.0466 26.9312 16.0481 22.0625 15.8312C21.9268 15.8254 21.8167 15.9471 21.8167 16.0885V17.6296C21.8167 17.7708 21.9273 17.8865 22.0625 17.8865H24.6786C25.2605 17.8865 25.4235 18.0804 25.5607 18.4555L29.342 28.7969L23.6537 45.9731L14.3035 18.4323C14.1875 18.0869 14.3278 17.8863 14.6605 17.8863H17.6414C17.7766 17.8863 17.8872 17.7708 17.8872 17.6294V16.0884C17.8872 15.947 17.7762 15.8245 17.6414 15.8316C14.5139 15.9977 11.3743 16.0311 8.44986 16.0611C13.0391 8.99174 21.0019 4.31358 30.0566 4.31358V4.31351L30.0582 4.31409ZM52.7001 17.7993C54.6783 21.444 55.8016 25.6199 55.8016 30.0569C55.8016 39.795 50.3909 48.2706 42.4138 52.6455L50.4425 29.9051C51.6864 26.3857 52.841 21.6294 52.6995 17.7993H52.7001ZM38.677 54.3194C35.9818 55.2781 33.0814 55.8009 30.0582 55.8009C27.4534 55.8009 24.9402 55.4126 22.5708 54.6939L30.5016 31.9662L38.6769 54.3206L38.677 54.3194ZM19.0421 53.3295C10.3362 49.2007 4.3142 40.3311 4.3142 30.0581C4.3142 26.2498 5.14264 22.6347 6.62742 19.3821L19.0427 53.3299L19.0421 53.3295ZM30.0574 1.89828C45.606 1.89828 58.216 14.5083 58.216 30.0569C58.216 45.6056 45.606 58.2156 30.0574 58.2156C14.5087 58.2156 1.89873 45.6056 1.89873 30.0569C1.89873 14.5083 14.5087 1.89828 30.0574 1.89828ZM30.0574 0.118408C46.589 0.118408 59.9966 13.526 59.9966 30.0576C59.9966 46.5893 46.589 59.9968 30.0574 59.9968C13.5257 59.9968 0.118164 46.5893 0.118164 30.0576C0.118164 13.526 13.5257 0.118408 30.0574 0.118408Z" fill="#2FC5F1"></path></svg> 