<?xml version="1.0" encoding="UTF-8"?> <svg xmlns="http://www.w3.org/2000/svg" width="58" height="58" viewBox="0 0 58 58" fill="none"><path fill-rule="evenodd" clip-rule="evenodd" d="M11.0805 18.8757C10.4754 18.8757 10 18.4003 10 17.7952C10 17.1902 10.4754 16.7147 11.0805 16.6715H44.9649L39.1302 10.8368C38.698 10.4479 38.698 9.75635 39.1302 9.32415C39.5192 8.89195 40.2107 8.89195 40.6429 9.32415L48.336 17.0173C48.5089 17.2334 48.6386 17.4927 48.6386 17.7952C48.6386 18.0978 48.5521 18.3571 48.336 18.5732L40.6861 26.2663C40.47 26.4824 40.2107 26.5689 39.9082 26.5689C39.6056 26.5689 39.3463 26.4824 39.1302 26.2663C38.698 25.8774 38.698 25.1858 39.1302 24.7536L45.0081 18.8757H11.0805ZM13.6737 39.1891L19.5084 33.3112C19.9406 32.9222 19.9406 32.2307 19.5084 31.7985C19.1194 31.3663 18.4279 31.3663 17.9957 31.7985L10.3025 39.4916C10.1297 39.7077 10 39.967 10 40.2696C10 40.5721 10.0864 40.8314 10.3025 41.0475L17.9525 48.6974C18.1686 48.9135 18.4279 49 18.7304 49C19.033 49 19.2923 48.9135 19.5084 48.6974C19.9406 48.3085 19.9406 47.6169 19.5084 47.1847L13.6737 41.3501H47.6013C48.2064 41.3501 48.6818 40.8746 48.6818 40.2696C48.6818 39.6645 48.2064 39.1891 47.6013 39.1891H13.6737Z" fill="#2FC5F1"></path></svg> 