<?xml version="1.0" encoding="UTF-8"?> <svg xmlns="http://www.w3.org/2000/svg" width="56" height="58" viewBox="0 0 56 58" fill="none"><g clip-path="url(#clip0_1895_12304)"><path d="M48.2712 15.5026C47.4814 14.0602 46.4126 12.7894 45.1269 11.7641C43.8412 10.7388 42.3645 9.9795 40.7825 9.53041C37.0043 8.46606 33.3808 9.28258 30.3043 11.8913C29.4502 12.6231 28.6776 13.4449 27.9999 14.3426C27.3214 13.4448 26.548 12.6229 25.693 11.8913C22.6164 9.28258 18.993 8.46606 15.2147 9.53041C13.6333 9.97981 12.157 10.7393 10.8718 11.7645C9.58658 12.7898 8.51813 14.0605 7.72862 15.5026C5.6121 19.3895 5.4234 23.5417 7.16688 27.8435C8.50253 31.14 10.9443 34.4478 14.4234 37.6756C15.8356 38.9852 17.3217 40.2356 18.7582 41.4452L18.7817 41.4643C20.8017 43.1635 22.8417 44.9148 24.8138 46.6078L27.1521 48.6122C27.3884 48.8142 27.689 48.9253 27.9999 48.9253C28.3108 48.9253 28.6115 48.8142 28.8477 48.6122C29.6251 47.9466 30.4019 47.28 31.1782 46.6122C33.153 44.9174 35.1956 43.1643 37.2182 41.4626L37.2417 41.4435C38.6782 40.2339 40.1643 38.9835 41.5764 37.6739C45.0547 34.4461 47.4973 31.1382 48.833 27.8417C50.5764 23.5417 50.3877 19.3895 48.2712 15.5026ZM39.8017 35.7635C38.4347 37.0295 36.9747 38.26 35.5651 39.4487L35.5425 39.4678C33.5104 41.1782 31.4625 42.9356 29.4825 44.6348L28.0043 45.9035L26.5173 44.6278C24.5399 42.9304 22.4947 41.1756 20.4651 39.4678L20.4425 39.4487C19.0295 38.26 17.5677 37.0295 16.2025 35.7626C11.1877 31.1156 6.04949 24.0435 10.0199 16.7495C10.6427 15.6131 11.4851 14.6119 12.4983 13.8039C13.5115 12.996 14.6751 12.3976 15.9217 12.0435C16.7272 11.8116 17.5608 11.6916 18.3991 11.6869C20.3791 11.6869 22.2364 12.4043 23.9434 13.8321C25.1051 14.8156 26.0859 15.9945 26.8417 17.3156C26.9517 17.5277 27.1179 17.7055 27.322 17.8296C27.5262 17.9537 27.7606 18.0193 27.9995 18.0193C28.2384 18.0193 28.4728 17.9537 28.6769 17.8296C28.8811 17.7055 29.0473 17.5277 29.1573 17.3156C29.9121 15.9928 30.8931 14.8126 32.0556 13.8287C34.4591 11.8191 37.1582 11.22 40.0782 12.04C41.3249 12.3944 42.4887 12.9933 43.5019 13.8016C44.5151 14.61 45.3574 15.6118 45.9799 16.7487C49.9504 24.0435 44.8121 31.1156 39.8017 35.7635Z" fill="#2FC5F1"></path></g><defs><clipPath id="clip0_1895_12304"><rect width="44.1739" height="40" fill="white" transform="translate(5.91309 9)"></rect></clipPath></defs></svg> 