<?xml version="1.0" encoding="UTF-8"?> <svg xmlns="http://www.w3.org/2000/svg" width="57" height="56" viewBox="0 0 57 56" fill="none"><path d="M47.6096 31.7361C45.716 31.5142 44.2878 29.9079 44.2878 27.9997C44.2878 26.0916 45.716 24.4852 47.6096 24.2634C47.8687 24.2334 48.1023 24.0934 48.2505 23.8798C48.3986 23.6662 48.4486 23.398 48.3868 23.1453C47.8814 21.078 47.0687 19.1162 45.9696 17.3135C45.8341 17.0908 45.6096 16.9371 45.3532 16.8917C45.0969 16.8471 44.8332 16.9117 44.6296 17.0735C43.136 18.2535 40.9887 18.1262 39.636 16.7808C38.2878 15.4244 38.1597 13.2763 39.3397 11.7836C39.5006 11.579 39.5669 11.3154 39.5215 11.0599C39.476 10.8045 39.3224 10.579 39.1006 10.4436C37.2979 9.34449 35.3361 8.53086 33.2688 8.02632C33.0143 7.96451 32.7479 8.01451 32.5343 8.16269C32.3206 8.31177 32.1806 8.5445 32.1506 8.80359C31.9279 10.6972 30.3216 12.1254 28.4134 12.1254C26.5052 12.1254 24.8989 10.6972 24.6771 8.80359C24.6471 8.5445 24.5071 8.31087 24.2935 8.16269C24.0789 8.01451 23.8135 7.9636 23.5589 8.02632C21.4917 8.53177 19.5299 9.34449 17.7272 10.4436C17.5044 10.579 17.3508 10.8027 17.3044 11.059C17.2581 11.3154 17.3244 11.579 17.4863 11.7826C18.6662 13.2754 18.539 15.4235 17.1935 16.7762C15.8363 18.1244 13.689 18.2517 12.1963 17.0726C11.9927 16.9117 11.7281 16.8462 11.4727 16.8908C11.2163 16.9371 10.9927 17.0908 10.8572 17.3126C9.75816 19.1153 8.94453 21.0771 8.43999 23.1443C8.37817 23.3971 8.42817 23.6652 8.57635 23.8789C8.72453 24.0925 8.95817 24.2325 9.21725 24.2625C11.1109 24.4843 12.539 26.0907 12.539 27.9988C12.539 29.907 11.1109 31.5133 9.21725 31.7352C8.95817 31.7652 8.72453 31.9052 8.57635 32.1188C8.42817 32.3324 8.37817 32.6006 8.43999 32.8533C8.94544 34.9206 9.75816 36.8824 10.8572 38.6851C10.9927 38.9087 11.2163 39.0624 11.4727 39.1087C11.7263 39.1523 11.9927 39.0887 12.1963 38.9269C13.689 37.7469 15.8372 37.8742 17.1899 39.2196C18.5381 40.576 18.6662 42.7241 17.4863 44.2168C17.3253 44.4214 17.259 44.685 17.3044 44.9405C17.3499 45.1959 17.5035 45.4205 17.7263 45.5568C19.529 46.6559 21.4908 47.4695 23.558 47.9741C23.8125 48.0359 24.0789 47.9859 24.2925 47.8377C24.5062 47.6886 24.6462 47.4559 24.6762 47.1968C24.898 45.3032 26.5043 43.875 28.4125 43.875C30.3207 43.875 31.927 45.3032 32.1488 47.1968C32.1788 47.4559 32.3188 47.6895 32.5325 47.8377C32.6879 47.9432 32.8688 47.9995 33.0534 47.9995C33.1252 47.9995 33.1979 47.9913 33.2688 47.9741C35.3361 47.4686 37.2979 46.6559 39.1006 45.5568C39.5297 45.295 39.6651 44.7359 39.4033 44.3068C39.1406 43.8778 38.5824 43.7405 38.1533 44.0041C36.7742 44.845 35.2933 45.5023 33.7379 45.9641C33.0224 43.6768 30.8888 42.0569 28.4134 42.0569C25.938 42.0569 23.8044 43.6778 23.0889 45.9641C21.8326 45.5914 20.6253 45.0905 19.4808 44.4687C20.588 42.3487 20.2262 39.6933 18.4762 37.9342C16.7199 36.1878 14.0645 35.826 11.9445 36.9333C11.3227 35.7887 10.8227 34.5815 10.4491 33.3251C12.7363 32.6088 14.3572 30.4761 14.3572 27.9997C14.3572 25.5234 12.7363 23.3907 10.45 22.6753C10.8227 21.4189 11.3236 20.2116 11.9454 19.0671C14.0636 20.1744 16.7208 19.8126 18.4799 18.0626C20.2262 16.3062 20.588 13.6508 19.4808 11.5308C20.6253 10.909 21.8326 10.409 23.0889 10.0354C23.8044 12.3226 25.9371 13.9435 28.4134 13.9435C30.8897 13.9435 33.0224 12.3226 33.7379 10.0363C34.9942 10.409 36.2015 10.9099 37.346 11.5317C36.2388 13.6517 36.6006 16.3071 38.3506 18.0662C40.1078 19.8135 42.7633 20.1753 44.8823 19.0671C45.5041 20.2116 46.0041 21.4189 46.3778 22.6753C44.0905 23.3907 42.4705 25.5243 42.4705 27.9997C42.4705 30.4752 44.0914 32.6088 46.3778 33.3242C45.9159 34.8797 45.2587 36.3615 44.4178 37.7396C44.1569 38.1678 44.2923 38.7278 44.7205 38.9896C45.1487 39.2505 45.7078 39.1142 45.9705 38.6869C47.0696 36.8842 47.8832 34.9224 48.3877 32.8551C48.4496 32.6024 48.3996 32.3342 48.2514 32.1206C48.1032 31.907 47.8687 31.767 47.6096 31.7361Z" fill="#67C22F"></path><path d="M36.7401 35.0415C38.4073 33.0751 39.3219 30.6106 39.3219 27.9997C39.3219 21.9844 34.4283 17.0908 28.4129 17.0908C22.3975 17.0908 17.5039 21.9844 17.5039 27.9997C17.5039 34.0151 22.3975 38.9087 28.4129 38.9087C30.0983 38.9087 31.7219 38.5315 33.2401 37.7887C33.691 37.5678 33.8783 37.0233 33.6565 36.5733C33.4356 36.1215 32.8901 35.9342 32.441 36.1569C31.1738 36.776 29.8183 37.0906 28.4129 37.0906C23.4002 37.0906 19.3221 33.0124 19.3221 27.9997C19.3221 22.9871 23.4002 18.9089 28.4129 18.9089C33.4256 18.9089 37.5037 22.9871 37.5037 27.9997C37.5037 30.4306 36.5582 32.7142 34.8428 34.4297C34.6655 34.6069 34.5764 34.8397 34.5764 35.0724C34.5764 35.3051 34.6655 35.5378 34.8428 35.7151L41.4064 42.2787C41.5836 42.456 41.8164 42.545 42.0491 42.545C42.2818 42.545 42.5145 42.456 42.6918 42.2787C43.0473 41.9232 43.0473 41.3487 42.6918 40.9932L36.7401 35.0415Z" fill="#67C22F"></path></svg> 