<?xml version="1.0" encoding="UTF-8"?> <svg xmlns="http://www.w3.org/2000/svg" width="26" height="40" viewBox="0 0 26 40" fill="none"><path d="M22.5259 0H3.47824C1.903 0 0.621094 1.2819 0.621094 2.85714V37.1429C0.621094 38.7181 1.903 40 3.47824 40H22.5259C24.1011 40 25.383 38.7181 25.383 37.1429V2.85714C25.383 1.2819 24.1011 0 22.5259 0ZM23.4782 37.1429C23.4782 37.6686 23.0497 38.0952 22.5259 38.0952H3.47824C2.95443 38.0952 2.52586 37.6686 2.52586 37.1429V2.85714C2.52586 2.33143 2.95443 1.90476 3.47824 1.90476H22.5259C23.0497 1.90476 23.4782 2.33143 23.4782 2.85714V37.1429Z" fill="#67C22F"></path><path d="M16.8136 34.2857H9.19457C8.66885 34.2857 8.24219 34.7124 8.24219 35.2381C8.24219 35.7638 8.66885 36.1905 9.19457 36.1905H16.8136C17.3393 36.1905 17.766 35.7638 17.766 35.2381C17.766 34.7124 17.3393 34.2857 16.8136 34.2857Z" fill="#67C22F"></path></svg> 