<?xml version="1.0" encoding="UTF-8"?> <svg xmlns="http://www.w3.org/2000/svg" width="29" height="40" viewBox="0 0 29 40" fill="none"><path d="M7.35351 25.1907C8.51165 24.0326 8.51165 22.1478 7.35351 20.9897C6.79229 20.4287 6.04644 20.1196 5.25298 20.1196C4.7943 20.1196 4.3518 20.2234 3.95172 20.419C2.54089 18.4005 1.79779 16.0385 1.79779 13.5541C1.79779 7.19573 6.76482 1.9284 13.1055 1.56219C13.5367 1.53717 13.8656 1.1676 13.8409 0.73669C13.8159 0.305477 13.4463 -0.0225861 13.0154 0.00121753C5.84838 0.41534 0.234375 6.3684 0.234375 13.5541C0.234375 16.4209 1.11053 19.144 2.7716 21.4569C2.01263 22.6092 2.13958 24.1778 3.15246 25.1907C3.71368 25.7516 4.45953 26.0608 5.25298 26.0608C6.04644 26.0608 6.79229 25.7516 7.35351 25.1907ZM4.25781 22.0953C4.53216 21.821 4.89257 21.6836 5.25298 21.6836C5.61309 21.6836 5.9735 21.821 6.24786 22.0953C6.79656 22.6437 6.79656 23.5366 6.24786 24.085C5.69915 24.6338 4.80651 24.6338 4.25781 24.085C3.70941 23.5366 3.70941 22.644 4.25781 22.0953Z" fill="#67C22F"></path><path d="M25.8626 27.0834C25.3685 27.0834 24.904 27.2122 24.5009 27.438C24.1435 26.3049 23.0828 25.4809 21.8331 25.4809C21.0423 25.4809 20.3273 25.8108 19.8183 26.34C19.677 26.1935 19.5198 26.0626 19.3498 25.9494C21.1516 25.1428 22.773 23.9447 24.0849 22.427C26.2132 19.9643 27.3854 16.813 27.3854 13.5541C27.3854 10.6888 26.5093 7.96418 24.8485 5.65095C25.6075 4.49861 25.4805 2.93031 24.4673 1.91713C23.3092 0.758988 21.4247 0.758988 20.2663 1.91713C19.1081 3.07527 19.1081 4.96003 20.2663 6.11817C20.8455 6.6974 21.606 6.98701 22.3668 6.98701C22.8127 6.98701 23.2579 6.8866 23.6672 6.68763C25.0786 8.70667 25.822 11.0706 25.822 13.5541C25.822 19.209 21.9832 23.9889 16.5703 25.2481V21.0403C19.6703 19.8959 21.7882 16.8994 21.7882 13.5541C21.7882 9.15497 18.2091 5.57588 13.8097 5.57588C9.41059 5.57588 5.83149 9.15467 5.83149 13.5541C5.83149 15.2902 6.37989 16.9412 7.41688 18.3279C8.32142 19.5373 9.57294 20.4767 10.9771 21.0126V32.5113L9.995 30.9002C9.16981 29.5456 7.44709 29.1061 6.0735 29.899C4.76704 30.6534 4.2574 32.3086 4.91688 33.674L7.83283 39.5648C7.96924 39.8404 8.24634 40 8.53412 40C8.6507 40 8.7688 39.974 8.88019 39.9188C9.26716 39.7271 9.42554 39.2581 9.2342 38.8714L6.3213 32.9873C6.01948 32.362 6.25385 31.6003 6.85536 31.253C7.477 30.8941 8.28663 31.1007 8.66016 31.7138L11.0912 35.7028C11.2737 36.0019 11.6329 36.1432 11.9701 36.0486C12.3073 35.9539 12.5405 35.6463 12.5405 35.2957V17.3599C12.5405 16.68 13.0938 16.127 13.7737 16.127C14.4536 16.127 15.0069 16.68 15.0069 17.3599V20.452C15.0066 20.4574 15.0069 20.4629 15.0069 20.4687V32.2064C15.0069 32.6382 15.3566 32.9879 15.7884 32.9879C16.2203 32.9879 16.5703 32.6382 16.5703 32.2064V28.2776C16.5703 27.5976 17.1233 27.0444 17.8032 27.0444C18.4831 27.0444 19.0364 27.5976 19.0364 28.2776V32.4908C19.0364 32.9226 19.3865 33.2727 19.818 33.2727C20.2498 33.2727 20.5998 32.9226 20.5998 32.4908V28.2776C20.5998 27.5976 21.1531 27.0444 21.8331 27.0444C22.513 27.0444 23.066 27.5976 23.066 28.2776V32.5436C23.066 32.9754 23.416 33.3255 23.8478 33.3255C24.2796 33.3255 24.6294 32.9754 24.6294 32.5436V29.88C24.6294 29.2001 25.1827 28.6468 25.8626 28.6468C26.5425 28.6468 27.0958 29.2001 27.0958 29.88V39.2178C27.0958 39.6496 27.4455 39.9997 27.8774 39.9997C28.3092 39.9997 28.6592 39.6496 28.6592 39.2178V29.88C28.6592 28.338 27.4046 27.0834 25.8626 27.0834ZM21.3719 5.01283C20.8232 4.46412 20.8232 3.57148 21.3719 3.02278C21.6463 2.74843 22.0064 2.6114 22.3668 2.6114C22.7272 2.6114 23.0876 2.74843 23.362 3.02278C23.9104 3.57148 23.9104 4.46412 23.362 5.01283C22.8133 5.56123 21.9203 5.56123 21.3719 5.01283ZM7.39491 13.5541C7.39491 10.0168 10.2727 7.13898 13.81 7.13898C17.347 7.13898 20.2248 10.0168 20.2248 13.5541C20.2248 16.0449 18.7651 18.2956 16.5703 19.3457V17.3599C16.5703 16.9211 16.4684 16.5054 16.2871 16.1352C16.9805 15.4669 17.3903 14.5352 17.3903 13.5541C17.3903 11.5796 15.7842 9.97345 13.81 9.97345C11.8355 9.97345 10.2294 11.5796 10.2294 13.5541C10.2294 14.5065 10.6173 15.4217 11.2841 16.0889C11.0884 16.4703 10.9771 16.9025 10.9771 17.3599V19.3127C8.80024 18.2489 7.39491 16.0428 7.39491 13.5541ZM12.3552 14.9512C11.9948 14.5782 11.7928 14.0842 11.7928 13.5541C11.7928 12.4417 12.6976 11.5369 13.8097 11.5369C14.9221 11.5369 15.8269 12.4417 15.8269 13.5541C15.8269 14.0918 15.6084 14.6039 15.2367 14.978C14.8107 14.7153 14.3096 14.5636 13.7737 14.5636C13.2561 14.5636 12.7715 14.7052 12.3552 14.9512Z" fill="#67C22F"></path></svg> 