<?xml version="1.0" encoding="UTF-8"?> <svg xmlns="http://www.w3.org/2000/svg" width="194" height="130" viewBox="0 0 194 130" fill="none"><g id="Logo-eco"><path id="Shape" fill-rule="evenodd" clip-rule="evenodd" d="M54.236 128.908C54.236 129.064 54.184 129.22 54.08 129.376C53.976 129.48 53.768 129.636 53.56 129.688C53.4733 129.706 53.3809 129.729 53.2807 129.754L53.2807 129.754L53.2806 129.754L53.2805 129.754L53.2805 129.754L53.2804 129.754L53.2803 129.754L53.2803 129.754C53.0801 129.804 52.8491 129.862 52.572 129.896C52.156 129.948 51.636 129.948 51.012 129.948C50.336 129.948 49.816 129.948 49.4 129.896C48.984 129.844 48.62 129.792 48.412 129.688C48.152 129.584 47.996 129.48 47.892 129.376C47.788 129.22 47.736 129.064 47.736 128.908V115.752H35.464V128.908C35.464 129.064 35.412 129.22 35.308 129.376C35.204 129.48 35.048 129.636 34.788 129.688C34.7013 129.706 34.6089 129.729 34.5087 129.754C34.3084 129.804 34.0773 129.862 33.8 129.896C33.384 129.948 32.864 129.948 32.188 129.948C31.564 129.948 31.044 129.948 30.576 129.896C30.16 129.844 29.796 129.792 29.588 129.688C29.328 129.584 29.172 129.48 29.068 129.376C28.964 129.22 28.912 129.064 28.912 128.908V98.1762C28.912 98.0202 28.964 97.8642 29.068 97.7082C29.172 97.6042 29.38 97.4482 29.588 97.3962C29.848 97.2922 30.16 97.2402 30.576 97.1882C30.992 97.1362 31.512 97.1362 32.188 97.1362C32.812 97.1362 33.384 97.1362 33.8 97.1882C34.216 97.2402 34.58 97.2922 34.788 97.3962C35.048 97.5002 35.204 97.6042 35.308 97.7082C35.412 97.8642 35.464 98.0202 35.464 98.1762V110.136H47.632V98.1762C47.632 98.0202 47.684 97.8642 47.788 97.7082C47.892 97.6042 48.048 97.4482 48.308 97.3962C48.3946 97.3789 48.4869 97.3558 48.5869 97.3308L48.5869 97.3308L48.5869 97.3308L48.587 97.3308L48.587 97.3308L48.5871 97.3308L48.5872 97.3308L48.5873 97.3307C48.7876 97.2807 49.0187 97.2229 49.296 97.1882C49.712 97.1362 50.284 97.1362 50.908 97.1362C51.532 97.1362 52.052 97.1362 52.468 97.1882C52.884 97.2402 53.248 97.2922 53.456 97.3962C53.716 97.5002 53.872 97.6042 53.976 97.7082C54.08 97.8642 54.132 98.0202 54.132 98.1762V128.908H54.236ZM19.448 127.192C19.448 127.66 19.448 128.076 19.396 128.44C19.344 128.752 19.292 129.012 19.188 129.22C19.084 129.428 18.98 129.584 18.876 129.688C18.772 129.792 18.616 129.844 18.46 129.844H2.18401C1.61201 129.844 1.19601 129.688 0.780008 129.376C0.416008 129.064 0.208008 128.544 0.208008 127.764V99.4242C0.208008 98.6962 0.416008 98.1762 0.780008 97.8122C1.14401 97.5002 1.61201 97.3442 2.18401 97.3442H18.408C18.5314 97.3442 18.6223 97.3768 18.7322 97.4161C18.7612 97.4265 18.7914 97.4374 18.824 97.4482C18.928 97.5522 19.032 97.6562 19.136 97.8642C19.1518 97.9272 19.1723 97.995 19.1947 98.0689L19.1947 98.0689L19.1947 98.069C19.2462 98.2393 19.3078 98.4425 19.344 98.6962C19.396 99.0082 19.396 99.4242 19.396 99.9442C19.396 100.412 19.396 100.828 19.344 101.14C19.292 101.452 19.24 101.712 19.136 101.92C19.032 102.128 18.928 102.284 18.824 102.388C18.72 102.492 18.564 102.544 18.408 102.544H6.81201V110.448H16.588C16.744 110.448 16.9 110.5 17.004 110.604C17.108 110.708 17.212 110.812 17.316 111.02C17.42 111.228 17.472 111.488 17.524 111.8C17.576 112.112 17.576 112.528 17.576 112.996C17.576 113.464 17.576 113.88 17.524 114.192C17.472 114.504 17.42 114.764 17.316 114.972C17.212 115.18 17.108 115.284 17.004 115.388C16.9 115.492 16.744 115.492 16.588 115.492H6.81201V124.644H18.512C18.668 124.644 18.824 124.696 18.928 124.8C19.032 124.904 19.136 125.06 19.24 125.268C19.344 125.476 19.396 125.736 19.448 126.048V127.192ZM84.032 128.44C84.084 128.076 84.084 127.66 84.084 127.192C84.084 126.724 84.084 126.308 84.032 126.048C83.98 125.736 83.928 125.476 83.824 125.268C83.72 125.06 83.616 124.904 83.512 124.8C83.408 124.696 83.252 124.644 83.096 124.644H71.396V115.492H81.172C81.328 115.492 81.484 115.492 81.588 115.388C81.692 115.284 81.796 115.18 81.9 114.972C82.004 114.764 82.056 114.504 82.108 114.192C82.16 113.88 82.16 113.464 82.16 112.996C82.16 112.528 82.16 112.112 82.108 111.8C82.056 111.488 82.004 111.228 81.9 111.02C81.796 110.812 81.692 110.708 81.588 110.604C81.484 110.5 81.328 110.448 81.172 110.448H71.396V102.544H82.992C83.148 102.544 83.304 102.492 83.408 102.388C83.512 102.284 83.616 102.128 83.72 101.92C83.824 101.712 83.876 101.452 83.928 101.14C83.98 100.828 83.98 100.412 83.98 99.9442C83.98 99.4242 83.98 99.0082 83.928 98.6962C83.8918 98.4425 83.8302 98.2393 83.7787 98.069V98.069V98.069V98.0689L83.7786 98.0687C83.7562 97.9948 83.7357 97.9271 83.72 97.8642C83.616 97.6562 83.512 97.5522 83.408 97.4482C83.3754 97.4374 83.3451 97.4265 83.3162 97.4161C83.2063 97.3768 83.1154 97.3442 82.992 97.3442H66.768C66.196 97.3442 65.728 97.5002 65.364 97.8122C65 98.1762 64.792 98.6962 64.792 99.4242V127.764C64.792 128.544 65 129.064 65.364 129.376C65.78 129.688 66.196 129.844 66.768 129.844H83.096C83.252 129.844 83.408 129.792 83.512 129.688C83.616 129.584 83.72 129.428 83.824 129.22C83.928 129.012 83.98 128.752 84.032 128.44ZM115.804 107.172C115.804 108.992 115.544 110.604 114.972 112.008C114.4 113.412 113.568 114.608 112.476 115.544C111.384 116.532 110.032 117.26 108.472 117.728C106.86 118.248 105.04 118.508 102.856 118.508H100.152V128.856C100.152 129.012 100.1 129.168 99.996 129.324C99.892 129.428 99.684 129.584 99.476 129.636C99.216 129.74 98.904 129.792 98.488 129.844C98.072 129.896 97.552 129.896 96.876 129.896C96.252 129.896 95.732 129.896 95.264 129.844C94.848 129.792 94.484 129.74 94.276 129.636C94.016 129.532 93.86 129.428 93.756 129.324C93.652 129.168 93.6 129.012 93.6 128.856V99.6322C93.6 98.8522 93.808 98.2282 94.224 97.8642C94.64 97.4482 95.16 97.2922 95.836 97.2922H103.48C104.26 97.2922 104.988 97.2922 105.664 97.3962C106.173 97.4354 106.771 97.5337 107.458 97.6465C107.683 97.6833 107.917 97.7218 108.16 97.7602C109.148 97.9682 110.136 98.3322 111.124 98.8522C112.112 99.3722 112.996 100.048 113.672 100.828C114.4 101.608 114.92 102.544 115.284 103.636C115.596 104.676 115.804 105.872 115.804 107.172ZM108.264 104.832C108.68 105.56 108.888 106.496 108.888 107.64C108.888 108.524 108.784 109.304 108.472 110.032C108.212 110.708 107.9 111.332 107.432 111.852C106.964 112.372 106.392 112.788 105.664 113.048C104.936 113.308 104.052 113.464 103.012 113.464H100.048V102.388H102.856C103.584 102.388 104.208 102.44 104.884 102.544C105.56 102.648 106.184 102.856 106.756 103.22C107.38 103.532 107.848 104.104 108.264 104.832ZM142.844 100.048C142.844 100.568 142.844 100.984 142.792 101.296C142.74 101.66 142.688 101.92 142.584 102.128C142.48 102.336 142.376 102.492 142.272 102.596C142.168 102.7 142.012 102.752 141.856 102.752H131.092V128.96C131.092 129.116 131.04 129.272 130.936 129.376C130.832 129.48 130.624 129.584 130.416 129.688C130.329 129.706 130.237 129.729 130.137 129.754C129.936 129.804 129.705 129.862 129.428 129.896C129.012 129.948 128.492 129.948 127.816 129.948H127.816H127.816C127.192 129.948 126.672 129.948 126.204 129.896C125.788 129.844 125.424 129.792 125.164 129.688C124.904 129.584 124.748 129.48 124.644 129.376C124.54 129.272 124.488 129.116 124.488 128.96V99.3722C124.488 98.6442 124.644 98.1242 125.008 97.8122C125.372 97.4482 125.84 97.2922 126.412 97.2922H141.856C142.168 97.2922 142.428 97.5002 142.636 97.9162C142.792 98.3322 142.844 99.0602 142.844 100.048ZM156.676 129.376C156.78 129.22 156.832 129.064 156.832 128.908H156.78V98.1762C156.78 98.0202 156.728 97.8642 156.624 97.7082C156.52 97.6042 156.364 97.5002 156.104 97.3962C155.896 97.2922 155.532 97.2402 155.116 97.1882C154.7 97.1362 154.18 97.1362 153.504 97.1362C152.88 97.1362 152.36 97.1362 151.944 97.1882C151.528 97.2402 151.216 97.2922 150.956 97.3962C150.696 97.4482 150.488 97.6042 150.384 97.7082C150.28 97.8642 150.228 98.0202 150.228 98.1762V128.908C150.228 129.064 150.28 129.22 150.384 129.376C150.488 129.48 150.644 129.584 150.904 129.688C151.164 129.792 151.528 129.844 151.944 129.896C152.412 129.948 152.932 129.948 153.556 129.948C154.232 129.948 154.752 129.948 155.168 129.896C155.445 129.862 155.676 129.804 155.877 129.754C155.977 129.729 156.069 129.706 156.156 129.688C156.364 129.636 156.572 129.48 156.676 129.376ZM189.904 128.96C189.904 129.116 189.852 129.272 189.748 129.376C189.644 129.48 189.488 129.584 189.228 129.688C189.141 129.706 189.049 129.729 188.949 129.754C188.748 129.804 188.517 129.862 188.24 129.896C187.824 129.948 187.304 129.948 186.628 129.948C185.952 129.948 185.432 129.948 185.016 129.896C184.6 129.844 184.236 129.792 184.028 129.688C183.768 129.584 183.56 129.48 183.508 129.376C183.404 129.272 183.352 129.116 183.352 128.96V116.792H180.908C179.92 116.792 179.14 116.896 178.62 117.104C178.1 117.312 177.632 117.624 177.216 118.04C176.8 118.456 176.436 118.976 176.124 119.6C175.812 120.224 175.5 120.952 175.188 121.836L172.744 128.856C172.64 129.064 172.536 129.22 172.432 129.376C172.276 129.532 172.068 129.636 171.808 129.74C171.548 129.844 171.184 129.896 170.716 129.948C170.248 130 169.676 130 169 130C168.22 130 167.648 130 167.18 129.948C166.712 129.896 166.4 129.844 166.14 129.74C165.932 129.636 165.776 129.532 165.672 129.428C165.62 129.324 165.568 129.168 165.568 129.064C165.568 128.908 165.568 128.7 165.672 128.44C165.724 128.18 165.828 127.816 166.036 127.348L168.48 120.952C168.792 120.12 169.104 119.392 169.468 118.768C169.78 118.144 170.196 117.572 170.56 117.104C170.976 116.636 171.392 116.22 171.86 115.856C172.328 115.544 172.848 115.232 173.368 115.076C172.328 114.816 171.392 114.4 170.612 113.984C169.832 113.516 169.156 112.944 168.584 112.32C168.064 111.644 167.648 110.916 167.336 110.032C167.076 109.2 166.92 108.212 166.92 107.12C166.92 105.664 167.18 104.312 167.7 103.116C168.22 101.92 169 100.88 169.988 100.048C170.976 99.2162 172.276 98.5402 173.732 98.1242C175.24 97.6562 177.32 97.4482 180.024 97.4482H187.98C188.5 97.4482 188.968 97.6042 189.332 97.9162C189.696 98.2282 189.904 98.7482 189.904 99.5282V128.96ZM179.92 102.388H183.196V111.8H179.712C178.412 111.8 177.424 111.644 176.696 111.436C176.02 111.228 175.448 110.864 174.98 110.448C174.564 110.032 174.2 109.512 173.992 108.94C173.784 108.368 173.68 107.744 173.68 107.068C173.68 106.34 173.784 105.716 173.992 105.144C174.2 104.52 174.512 104.052 174.98 103.636C175.396 103.22 175.968 102.908 176.696 102.7C177.424 102.492 178.516 102.388 179.92 102.388Z" fill="#194D93"></path><g id="Group"><path id="Shape_2" fill-rule="evenodd" clip-rule="evenodd" d="M108.212 86.3198C108.42 86.0598 108.524 85.7478 108.524 85.3838C108.524 85.0718 108.472 84.6038 108.368 83.9798C108.264 83.4598 107.952 82.4718 107.38 81.0678L101.868 67.1838C100.932 64.7918 99.996 62.7638 99.112 61.0998C98.228 59.4358 97.292 58.0318 96.304 56.8878C95.316 55.7958 94.276 54.8598 93.132 54.0798C92.04 53.3518 90.74 52.7278 89.388 52.1038V52.0518C90.636 51.5838 91.78 51.0118 92.768 50.3358C93.808 49.6598 94.796 48.7758 95.68 47.6838C96.564 46.5918 97.448 45.2918 98.28 43.7318C99.112 42.2238 99.944 40.2998 100.776 38.1158L105.248 26.2598C105.664 25.1678 105.924 24.3358 106.08 23.6598C106.236 22.9838 106.288 22.4118 106.288 21.9958C106.288 21.6318 106.184 21.3198 106.028 21.0598C105.872 20.7998 105.56 20.5918 105.04 20.4358C104.52 20.2798 103.844 20.1758 102.96 20.0718C102.076 20.0198 100.984 19.9678 99.632 19.9678C98.124 19.9678 96.98 19.9678 96.096 20.0718C95.212 20.1758 94.484 20.2798 93.964 20.4878C93.444 20.6438 93.08 20.9558 92.82 21.2678C92.56 21.5798 92.352 21.9958 92.196 22.4638L87.672 35.7758C86.944 37.9078 86.216 39.6758 85.436 41.0798C84.656 42.4838 83.772 43.6798 82.836 44.5638C81.9 45.4478 80.86 46.1238 79.664 46.5398C78.468 46.9558 77.116 47.1638 75.556 47.1638H72.488V22.0998C72.488 21.7358 72.384 21.4238 72.176 21.1638C71.968 20.8518 71.604 20.6438 71.084 20.4878C70.564 20.3318 69.888 20.2278 69.004 20.1238C68.172 20.0718 67.028 20.0198 65.728 20.0198C64.428 20.0198 63.336 20.0198 62.452 20.1238C61.568 20.1758 60.892 20.3318 60.372 20.4878C59.904 20.6958 59.488 20.9038 59.28 21.1638C59.072 21.4238 58.968 21.7358 58.968 22.0998V85.3318C58.968 85.6958 59.072 86.0078 59.28 86.2678C59.488 86.5278 59.852 86.7358 60.372 86.9438C60.892 87.1518 61.568 87.2558 62.452 87.3598C63.336 87.4118 64.428 87.4638 65.728 87.4638C67.028 87.4638 68.172 87.4638 69.004 87.3598C69.888 87.2558 70.564 87.1518 71.084 86.9438C71.604 86.7358 71.968 86.5278 72.176 86.2678C72.384 86.0078 72.488 85.6958 72.488 85.3318V58.4998H75.556C77.168 58.4998 78.572 58.7078 79.872 59.0718C81.12 59.4358 82.264 60.1118 83.252 60.9958C84.24 61.9318 85.176 63.1278 86.008 64.5838C86.84 66.0398 87.62 67.8598 88.4 70.0438L93.86 84.9678C94.016 85.4358 94.224 85.8518 94.484 86.1638C94.744 86.5278 95.16 86.7358 95.732 86.9438C96.252 87.1518 96.98 87.2558 97.916 87.3598C98.8 87.4118 99.996 87.4638 101.504 87.4638C102.96 87.4638 104.104 87.4638 104.988 87.3598C105.872 87.3078 106.6 87.1518 107.12 86.9958C107.64 86.7878 108.004 86.5798 108.212 86.3198ZM39.468 84.3958C39.52 83.6678 39.572 82.8358 39.572 81.8478C39.572 80.8598 39.572 80.0278 39.468 79.2998C39.416 78.6238 39.26 78.1038 39.104 77.6878C38.896 77.2718 38.688 76.9598 38.428 76.7518C38.22 76.5958 37.908 76.4918 37.596 76.4918H13.572V57.6678H33.696C34.008 57.6678 34.268 57.5638 34.528 57.4078C34.84 57.2518 35.048 56.9918 35.204 56.5758C35.36 56.2118 35.464 55.6918 35.568 55.0158C35.62 54.3398 35.672 53.5078 35.672 52.5198C35.672 51.5838 35.672 50.7518 35.568 50.0758C35.516 49.3998 35.36 48.8278 35.204 48.4638C34.996 48.0478 34.788 47.7878 34.528 47.5798C34.32 47.4238 34.008 47.3198 33.696 47.3198H13.572V30.9918H37.44C37.752 30.9918 38.012 30.9398 38.272 30.7318C38.532 30.5238 38.74 30.2118 38.896 29.7958C39.052 29.3798 39.156 28.8598 39.26 28.1838C39.312 27.4558 39.364 26.6758 39.364 25.6878C39.364 24.6478 39.364 23.7638 39.26 23.0878C39.208 22.4118 39.052 21.8398 38.896 21.4238C38.688 21.0078 38.48 20.6958 38.272 20.5398C38.012 20.3838 37.752 20.2798 37.44 20.2798H4.004C2.912 20.2798 1.924 20.6438 1.144 21.3198C0.364 21.9958 0 23.0878 0 24.5958V82.9398C0 84.4478 0.364 85.5398 1.144 86.2158C1.924 86.8918 2.86 87.2038 4.004 87.2038H37.596C37.856 87.2038 38.168 87.1518 38.428 86.9438C38.74 86.7358 38.948 86.4238 39.104 86.0078C39.26 85.5918 39.364 85.0718 39.468 84.3958Z" fill="#57C13C"></path><path id="Shape_3" fill-rule="evenodd" clip-rule="evenodd" d="M136.188 20.592C131.404 21.84 124.696 29.952 122.356 34.268C111.54 54.34 121.992 80.496 145.236 86.372C162.76 90.792 176.956 81.64 183.612 71.916C202.072 44.824 174.72 12.74 166.192 22.256C160.732 28.392 169.936 31.304 174.98 38.896C182.884 50.856 177.268 68.848 162.032 74.516C137.956 83.46 118.508 51.948 136.76 34.164C139.1 31.876 142.896 30.732 143.26 26.78C143.676 22.724 140.14 19.552 136.188 20.592ZM154.752 17.368C157.716 13.624 159.172 0.052 177.424 0C177.372 6.76 174.564 12.012 171.288 15.548C167.804 19.292 163.488 21.164 156.572 22.36C155.688 27.716 155.844 38.896 158.652 42.38C161.72 46.176 167.7 47.684 167.596 55.64H161.2V65.78H158.86V55.64H149.708V65.78H147.368V55.64H141.96C141.908 48.464 146.484 46.696 150.072 43.16C153.764 39.52 153.192 32.396 153.14 25.844C149.968 23.556 139.88 22.412 139.1 7.904C147.108 7.852 152.984 11.648 154.752 17.368Z" fill="#57C13C"></path></g><path id="Combined Shape" fill-rule="evenodd" clip-rule="evenodd" d="M193.44 7.12376C193.44 8.11176 193.232 9.04776 192.868 9.93176C192.504 10.8158 191.984 11.5438 191.36 12.2198C190.736 12.8438 189.956 13.3638 189.072 13.7278C188.188 14.0918 187.252 14.2998 186.264 14.2998C185.224 14.2998 184.288 14.1438 183.404 13.7798C182.52 13.4158 181.792 12.9478 181.168 12.2718C180.544 11.6478 180.024 10.9198 179.712 10.0358C179.348 9.15176 179.192 8.21576 179.192 7.17576C179.192 6.18776 179.4 5.25176 179.764 4.36776C180.128 3.48376 180.648 2.75576 181.272 2.13176C181.948 1.50776 182.676 0.987758 183.56 0.623758C184.444 0.259758 185.38 0.0517578 186.368 0.0517578C187.408 0.0517578 188.344 0.207758 189.228 0.571758C190.112 0.935758 190.84 1.40376 191.464 2.02776C192.088 2.65176 192.608 3.37976 192.92 4.26376C193.284 5.09576 193.44 6.08376 193.44 7.12376ZM191.776 7.22776C191.776 6.34376 191.62 5.56376 191.36 4.83576C191.1 4.10776 190.684 3.53576 190.216 3.01576C189.748 2.49576 189.124 2.13176 188.5 1.87176C187.824 1.61176 187.096 1.45576 186.316 1.45576C185.484 1.45576 184.704 1.61176 184.028 1.92376C183.352 2.23576 182.78 2.59976 182.26 3.11976C181.792 3.63976 181.376 4.21176 181.116 4.88776C180.856 5.56376 180.7 6.29176 180.7 7.07176C180.7 7.90376 180.856 8.73576 181.116 9.41176C181.376 10.1398 181.792 10.7118 182.26 11.2318C182.728 11.7518 183.352 12.1158 183.976 12.4278C184.652 12.6878 185.38 12.8438 186.16 12.8438C186.992 12.8438 187.772 12.6878 188.448 12.3758C189.124 12.0638 189.696 11.6998 190.216 11.1798C190.684 10.6598 191.048 10.0878 191.308 9.41176C191.672 8.68376 191.776 7.95576 191.776 7.22776ZM189.644 10.5558C189.644 10.5038 189.592 10.2958 189.488 10.0358L189.072 8.83976C188.916 8.37176 188.656 8.00776 188.396 7.79976C188.136 7.59176 187.876 7.38376 187.564 7.27976C188.084 7.12376 188.552 6.91576 188.864 6.60376C189.176 6.29176 189.332 5.82376 189.332 5.25176C189.332 4.88776 189.28 4.52376 189.124 4.26376C188.968 4.00376 188.76 3.74376 188.5 3.58776C188.24 3.43176 187.928 3.27576 187.564 3.17176C187.2 3.06776 186.784 3.01576 186.264 3.01576H184.184C183.924 3.01576 183.716 3.06776 183.56 3.22376C183.404 3.37976 183.352 3.58776 183.352 3.84776V10.4518C183.352 10.6078 183.404 10.6598 183.508 10.7118C183.612 10.7638 183.872 10.7638 184.236 10.7638C184.6 10.7638 184.86 10.7638 184.964 10.7118C185.068 10.6598 185.12 10.5558 185.12 10.4518V7.90376H185.64C186.056 7.90376 186.368 8.00776 186.524 8.16376C186.732 8.31976 186.888 8.68376 187.044 9.09976L187.408 10.3478C187.408 10.4518 187.46 10.5038 187.512 10.5558C187.564 10.6078 187.616 10.6598 187.668 10.6598C187.772 10.7118 187.876 10.7118 187.98 10.7118H188.5H189.02C189.176 10.7118 189.28 10.7118 189.332 10.6598C189.384 10.6598 189.436 10.6078 189.488 10.5558C189.644 10.6598 189.644 10.6078 189.644 10.5558ZM187.356 5.45976C187.356 5.30376 187.356 5.19976 187.304 5.09576C187.252 4.99176 187.2 4.88776 187.096 4.78376C186.992 4.67976 186.836 4.62776 186.68 4.57576C186.524 4.52376 186.316 4.52376 186.056 4.52376H185.224V6.55176H186.056C186.576 6.55176 186.94 6.44776 187.096 6.23976C187.252 6.08376 187.356 5.82376 187.356 5.45976Z" fill="#57C13C"></path></g></svg> 