<?xml version="1.0" encoding="UTF-8"?> <svg xmlns="http://www.w3.org/2000/svg" width="315" height="73" viewBox="0 0 315 73" fill="none"><path fill-rule="evenodd" clip-rule="evenodd" d="M37.0043 3.18297C18.3408 3.18297 3.21275 18.1045 3.21275 36.5C3.21275 54.8955 18.3408 69.817 37.0043 69.817C55.6674 69.817 70.7959 54.8825 70.7959 36.5C70.7959 18.1045 55.6678 3.18297 37.0043 3.18297ZM0 36.5C0 16.3322 16.5809 0 37.0043 0C57.4277 0 74.0086 16.3322 74.0086 36.5C74.0086 56.6539 57.4281 73 37.0043 73C16.5809 73 0 56.6678 0 36.5Z" fill="#EF7F1A"></path><path fill-rule="evenodd" clip-rule="evenodd" d="M30.9283 46.6853C31.7149 42.3856 34.4274 38.0858 38.9844 35.2775C47.2575 30.185 42.3886 17.8233 32.9627 21.0884C26.29 23.3995 29.6263 30.7494 25.5847 29.9297C21.5838 29.1235 25.7475 19.7313 30.5621 17.662C43.0531 12.2874 53.1978 26.6781 43.0667 36.9034C41.6426 38.3411 39.6083 39.107 38.564 40.2491C35.431 43.662 34.8479 46.215 35.4582 46.645C43.5549 46.4703 56.6562 48.1365 60.9555 48.8486C61.8913 49.0098 65.8787 49.3592 67.1942 49.9101C66.4483 51.3075 65.7702 52.5437 65.0514 53.6589C46.3217 49.8429 28.0395 48.7814 8.41468 52.1809C7.80437 51.0522 6.80075 49.2114 6.3125 48.338C10.7474 47.1959 19.2917 46.6719 30.9147 46.6719L30.9283 46.6853Z" fill="#EF7F1A"></path><path d="M297.544 24.9242V15.0751H293.828V13.7717H302.752V15.0751H299.036V24.9242H297.544ZM304.258 24.9242V13.7583H306.495L309.154 21.6591C309.398 22.3981 309.574 22.949 309.696 23.3118C309.818 22.9087 310.022 22.304 310.293 21.5247L313.005 13.7583H314.999V24.9242H313.561V15.5857L310.279 24.9242H308.937L305.682 15.411V24.9242H304.244H304.258Z" fill="#EF7F1A"></path><path d="M109.774 52.7515L103.725 30.5406L97.6088 52.7515C97.1341 54.431 96.7544 55.6403 96.4696 56.3794C96.1848 57.1184 95.7101 57.7768 95.0048 58.3545C94.3131 58.9323 93.3773 59.2279 92.2245 59.2279C91.2887 59.2279 90.5157 59.0533 89.9054 58.7039C89.3086 58.3545 88.8204 57.8708 88.4406 57.2393C88.0609 56.6078 87.7625 55.8553 87.5319 54.9819C87.2878 54.122 87.0844 53.3024 86.8945 52.5768L80.6693 27.6248C80.2896 26.1737 80.1133 25.0719 80.1133 24.306C80.1133 23.352 80.4523 22.5323 81.1305 21.8874C81.8086 21.229 82.6495 20.9065 83.6531 20.9065C85.0229 20.9065 85.9587 21.3499 86.4334 22.2233C86.9081 23.0967 87.3149 24.3732 87.6811 26.0393L92.5772 47.6589L98.0564 27.4233C98.4633 25.8646 98.8294 24.6822 99.1414 23.8894C99.4669 23.0832 99.9958 22.3845 100.728 21.7933C101.461 21.2021 102.451 20.9065 103.712 20.9065C104.987 20.9065 105.977 21.2155 106.682 21.8336C107.387 22.4517 107.876 23.1236 108.147 23.8491C108.418 24.5747 108.784 25.7706 109.245 27.4367L114.779 47.6724L119.675 26.0528C119.905 24.9241 120.136 24.0373 120.353 23.3923C120.556 22.7608 120.923 22.1696 121.438 21.6724C121.967 21.1618 122.713 20.9199 123.703 20.9199C124.693 20.9199 125.52 21.2424 126.212 21.9008C126.904 22.5458 127.243 23.352 127.243 24.3329C127.243 25.0316 127.066 26.1334 126.687 27.6517L120.462 52.6036C120.041 54.2832 119.675 55.5194 119.404 56.2987C119.119 57.0781 118.644 57.7633 117.98 58.3545C117.315 58.9458 116.366 59.2414 115.131 59.2414C113.979 59.2414 113.056 58.9592 112.351 58.3814C111.659 57.8171 111.171 57.1587 110.9 56.4465C110.629 55.7344 110.249 54.5117 109.747 52.7783L109.774 52.7515ZM132.6 54.646V25.4615C132.6 23.9566 132.953 22.8145 133.644 22.0486C134.336 21.2827 135.245 20.9065 136.357 20.9065C137.482 20.9065 138.418 21.2827 139.11 22.0217C139.815 22.7742 140.168 23.9163 140.168 25.4481V54.6326C140.168 56.1644 139.815 57.3065 139.11 58.0724C138.405 58.8248 137.482 59.2145 136.357 59.2145C135.272 59.2145 134.377 58.8383 133.671 58.0724C132.966 57.3065 132.613 56.1644 132.613 54.646H132.6ZM177.058 47.4574C177.058 49.7013 176.474 51.7168 175.308 53.5039C174.155 55.291 172.446 56.6884 170.195 57.6962C167.944 58.7039 165.299 59.2145 162.207 59.2145C158.518 59.2145 155.48 58.5292 153.079 57.1452C151.384 56.1509 150 54.8207 148.929 53.1546C147.871 51.5018 147.342 49.8894 147.342 48.3173C147.342 47.4171 147.668 46.6243 148.305 45.9794C148.943 45.3344 149.756 44.9985 150.746 44.9985C151.547 44.9985 152.211 45.2538 152.781 45.7644C153.323 46.275 153.798 47.0274 154.191 48.0217C154.666 49.2042 155.181 50.185 155.737 50.9778C156.28 51.7571 157.067 52.4155 158.07 52.9396C159.074 53.4502 160.389 53.7055 162.017 53.7055C164.268 53.7055 166.086 53.1814 167.482 52.1468C168.879 51.1122 169.585 49.8223 169.585 48.2636C169.585 47.0409 169.205 46.0331 168.459 45.2672C167.699 44.5013 166.723 43.9101 165.529 43.5204C164.322 43.1173 162.722 42.6874 160.715 42.2305C158.029 41.6124 155.778 40.8734 153.961 40.0538C152.143 39.2207 150.719 38.0786 149.648 36.6409C148.59 35.2031 148.061 33.4161 148.061 31.2796C148.061 29.2372 148.617 27.4367 149.743 25.8512C150.868 24.2791 152.496 23.0564 154.625 22.1964C156.755 21.3365 159.25 20.9199 162.125 20.9199C164.417 20.9199 166.411 21.2021 168.079 21.7665C169.761 22.3308 171.144 23.0832 172.243 24.0238C173.355 24.9509 174.155 25.9453 174.671 26.9664C175.172 27.9876 175.444 28.9954 175.444 29.9763C175.444 30.8631 175.118 31.6693 174.481 32.3814C173.843 33.0936 173.043 33.4564 172.094 33.4564C171.226 33.4564 170.575 33.2414 170.114 32.8114C169.666 32.3949 169.178 31.6827 168.649 30.7018C167.957 29.3044 167.157 28.2026 166.194 27.4233C165.245 26.644 163.712 26.2543 161.61 26.2543C159.657 26.2543 158.07 26.6708 156.877 27.5308C155.67 28.3907 155.073 29.3985 155.073 30.6078C155.073 31.3468 155.276 31.9918 155.683 32.5292C156.09 33.0667 156.66 33.537 157.378 33.9267C158.097 34.3029 158.816 34.6119 159.548 34.8269C160.281 35.0419 161.488 35.3644 163.17 35.7809C165.272 36.2781 167.184 36.8021 168.893 37.4068C170.602 37.998 172.053 38.7101 173.26 39.5566C174.467 40.3897 175.389 41.4646 176.067 42.7546C176.732 44.0445 177.071 45.63 177.071 47.4843L177.058 47.4574ZM191.122 25.4481V36.0631H207.478V25.4481C207.478 23.9432 207.831 22.8011 208.509 22.0352C209.201 21.2693 210.096 20.8931 211.221 20.8931C212.347 20.8931 213.283 21.2693 213.974 22.0083C214.68 22.7608 215.032 23.9029 215.032 25.4347V54.6192C215.032 56.1509 214.68 57.2931 213.961 58.0589C213.242 58.8114 212.32 59.2011 211.208 59.2011C210.068 59.2011 209.146 58.8248 208.468 58.0589C207.79 57.2931 207.451 56.1509 207.451 54.6326V42.1768H191.095V54.6326C191.095 56.1644 190.742 57.3065 190.023 58.0724C189.304 58.8248 188.382 59.2145 187.27 59.2145C186.131 59.2145 185.209 58.8383 184.53 58.0724C183.852 57.3065 183.513 56.1644 183.513 54.646V25.4615C183.513 23.9566 183.852 22.8145 184.517 22.0486C185.181 21.2827 186.104 20.9065 187.256 20.9065C188.382 20.9065 189.318 21.2827 190.023 22.0217C190.728 22.7742 191.081 23.9163 191.081 25.4481H191.122ZM247.121 54.3773L245.331 49.7282H230.127L228.337 54.4848C227.632 56.339 227.035 57.5887 226.547 58.2336C226.059 58.8786 225.245 59.2145 224.133 59.2145C223.183 59.2145 222.342 58.8651 221.61 58.1799C220.878 57.4946 220.512 56.7018 220.512 55.8285C220.512 55.3313 220.593 54.8073 220.769 54.2698C220.946 53.7323 221.217 52.9799 221.61 52.0124L231.185 27.9473C231.456 27.2621 231.782 26.429 232.175 25.4615C232.555 24.4807 232.962 23.6879 233.396 23.0429C233.83 22.398 234.4 21.8874 235.105 21.4843C235.81 21.0812 236.678 20.8931 237.722 20.8931C238.78 20.8931 239.662 21.0946 240.367 21.4843C241.072 21.8874 241.642 22.3845 242.076 23.0161C242.496 23.6342 242.862 24.306 243.174 25.0316C243.473 25.7437 243.839 26.7112 244.3 27.8936L254.065 51.8109C254.825 53.6248 255.218 54.9551 255.218 55.7747C255.218 56.6347 254.852 57.414 254.133 58.1261C253.414 58.8383 252.546 59.2011 251.515 59.2011C250.919 59.2011 250.403 59.0936 249.983 58.8786C249.562 58.677 249.196 58.3814 248.911 58.0186C248.626 57.6558 248.315 57.0915 247.975 56.339C247.65 55.5866 247.352 54.9282 247.121 54.3504V54.3773ZM232.121 44.0982H243.296L237.654 28.8073L232.121 44.0982ZM268.401 25.4481V38.4414L283.265 23.0832C283.984 22.3442 284.594 21.7933 285.082 21.444C285.584 21.0946 286.262 20.9065 287.09 20.9065C288.175 20.9065 289.07 21.229 289.734 21.8605C290.399 22.492 290.738 23.2579 290.738 24.1716C290.738 25.2734 290.168 26.3484 289.029 27.4367L279.82 36.0765L290.426 51.139C291.172 52.1871 291.741 53.1008 292.121 53.8801C292.501 54.6595 292.677 55.4388 292.677 56.1778C292.677 56.9974 292.352 57.7096 291.687 58.3277C291.036 58.9323 290.141 59.2279 289.029 59.2279C287.971 59.2279 287.117 58.9995 286.452 58.5561C285.788 58.1127 285.231 57.5215 284.77 56.7825C284.309 56.0434 283.902 55.3716 283.536 54.767L274.585 41.1153L268.387 47.0005V54.6595C268.387 56.2181 268.034 57.3602 267.316 58.1127C266.597 58.8651 265.674 59.2279 264.562 59.2279C263.911 59.2279 263.287 59.0533 262.704 58.7173C262.108 58.3814 261.646 57.938 261.334 57.3602C261.09 56.8899 260.955 56.339 260.9 55.721C260.846 55.1029 260.819 54.1892 260.819 53.0067V25.4615C260.819 23.9566 261.158 22.8145 261.823 22.0486C262.487 21.2827 263.41 20.9065 264.562 20.9065C265.688 20.9065 266.624 21.2827 267.329 22.0217C268.034 22.7742 268.387 23.9163 268.387 25.4481H268.401Z" fill="#EF7F1A"></path></svg> 