<svg width="68" height="36" viewBox="0 0 68 36" fill="none" xmlns="http://www.w3.org/2000/svg">
<path d="M23.7917 32.2053C17.7509 31.3484 13.1789 30.4203 8.86919 28.1627C7.30868 27.3667 5.85519 26.131 4.43116 24.9004C3.80194 24.3323 3.27974 23.3244 2.85698 22.2684C2.13274 20.505 2.37303 18.7788 3.57787 17.0897C4.34794 15.9798 5.21366 15.0175 6.05721 14.1823C8.2747 12.0804 10.5359 10.7721 12.775 9.59079C18.3173 6.69348 23.8037 5.16161 29.227 4.33911C35.3904 3.44917 41.3654 3.63965 47.1888 5.04793C51.4735 6.05696 55.6585 7.63797 59.6737 9.84425C61.9445 11.0915 64.2042 12.4023 66.475 13.6496C66.5044 13.6547 66.5339 13.6598 66.5523 13.7285C67.1374 14.027 67.5868 13.7124 67.7897 12.8965C67.9927 12.0806 67.7979 11.4572 67.1944 11.0901C63.3707 8.65524 59.5175 6.21529 55.4909 4.59639C51.1514 2.85746 46.7343 1.56341 42.1437 1.09043C34.3688 0.258683 26.4014 1.22699 18.1973 4.24956C14.9531 5.45204 11.7125 6.98255 8.44562 9.35981C6.9466 10.4737 5.45107 11.9155 3.98499 13.3625C3.36246 13.9743 2.72126 15.0413 2.17948 16.0601C0.963269 18.3365 0.575118 21.0847 1.18126 23.3515C1.53025 24.6565 2.05973 25.7966 2.66299 26.6877C4.04968 28.8285 5.77202 29.9147 7.5165 30.8737C13.2028 33.7643 19.1883 34.9389 25.3362 35.356C27.8248 35.5279 30.3134 35.6999 32.8242 35.7448C36.0639 35.7857 39.3441 35.7683 42.6282 35.5551C45.7244 35.3746 48.8245 34.9983 51.9689 34.3678C53.7288 34.0198 55.5664 33.227 57.345 32.4238C58.1993 32.0489 59.1018 31.224 59.927 30.3201C61.7506 28.215 62.404 24.9892 61.6953 21.9187C61.2877 20.0795 60.5521 18.9035 59.7354 17.8443C57.9291 15.4993 55.861 13.9599 53.7191 12.6697C50.7786 10.9127 47.6462 9.90816 44.3697 9.7298C43.5635 9.65471 43.1215 10.1015 42.9847 11.06C42.8701 11.8913 43.157 12.3342 43.8821 12.5262C45.7742 12.987 47.6884 13.3208 49.5472 13.9723C52.7163 15.1143 55.6936 17.0086 58.313 20.0848C58.9201 20.78 59.4644 21.6607 59.9277 22.6583C60.9645 25.0656 60.5399 27.1526 58.7388 28.6067C57.888 29.3097 57.0115 29.8117 56.1277 30.1815C53.3953 31.4077 50.7259 31.9246 48.0825 32.1185C43.0828 32.4255 38.0537 32.7274 33.1094 32.7166C29.553 32.7514 25.9859 32.3259 23.7917 32.2053Z" fill="#67C22F"/>
</svg>
