<svg width="288" height="288" viewBox="0 0 288 288" fill="none" xmlns="http://www.w3.org/2000/svg">
<path d="M287.5 144C287.5 223.253 223.253 287.5 144 287.5C64.7471 287.5 0.5 223.253 0.5 144C0.5 64.7471 64.7471 0.5 144 0.5C223.253 0.5 287.5 64.7471 287.5 144Z" stroke="#2AE3FE"/>
<path d="M154.229 193C157.506 193 160.363 190.142 160.363 186.865V172.54H164.459C166.917 172.54 168.555 170.901 168.555 168.444V127.527H119.443V168.444C119.443 170.902 121.082 172.54 123.539 172.54H127.636V186.866C127.636 190.143 130.492 193 133.77 193C137.046 193 139.903 190.143 139.903 186.866V172.54H148.095V186.866C148.095 190.142 150.952 193 154.229 193Z" fill="#2FC5F1"/>
<path d="M178.787 168.444C182.063 168.444 184.92 165.587 184.92 162.31V133.658C184.92 130.399 182.063 127.527 178.787 127.527C175.509 127.527 172.652 130.399 172.652 133.658V162.31C172.652 165.587 175.509 168.444 178.787 168.444Z" fill="#2FC5F1"/>
<path d="M109.214 168.444C112.491 168.444 115.348 165.587 115.348 162.31V133.658C115.348 130.399 112.491 127.527 109.214 127.527C105.937 127.527 103.08 130.399 103.08 133.658V162.31C103.08 165.587 105.937 168.444 109.214 168.444Z" fill="#2FC5F1"/>
<path d="M163.639 95.6181C162.82 94.7941 161.601 94.7941 160.783 95.6181L155.289 101.093L155.036 101.346C151.778 99.7151 148.126 98.9005 144.059 98.8926C144.039 98.8926 144.019 98.8921 144 98.8921H143.999C143.978 98.8921 143.959 98.8926 143.939 98.8926C139.872 98.9005 136.22 99.7151 132.963 101.346L132.709 101.093L127.215 95.6181C126.396 94.7941 125.177 94.7941 124.359 95.6181C123.539 96.4375 123.539 97.6537 124.359 98.4725L129.673 103.787C127.96 104.931 126.408 106.33 125.057 107.93C121.825 111.761 119.763 116.748 119.48 122.151C119.477 122.207 119.471 122.263 119.469 122.319C119.451 122.687 119.443 123.057 119.443 123.428H168.555C168.555 123.057 168.546 122.687 168.529 122.319C168.527 122.263 168.521 122.207 168.518 122.151C168.235 116.748 166.173 111.761 162.94 107.93C161.59 106.33 160.037 104.931 158.325 103.788L163.639 98.4729C164.459 97.6537 164.459 96.4377 163.639 95.6181ZM133.762 116.277C132.067 116.277 130.693 114.903 130.693 113.208C130.693 111.514 132.067 110.14 133.762 110.14C135.456 110.14 136.83 111.514 136.83 113.208C136.83 114.903 135.456 116.277 133.762 116.277ZM154.236 116.277C152.542 116.277 151.168 114.903 151.168 113.208C151.168 111.514 152.542 110.14 154.236 110.14C155.931 110.14 157.305 111.514 157.305 113.208C157.305 114.903 155.931 116.277 154.236 116.277Z" fill="#2FC5F1"/>
</svg>
