<svg width="64" height="64" viewBox="0 0 64 64" fill="none" xmlns="http://www.w3.org/2000/svg">
<g clip-path="url(#clip0_2158_12519)">
<mask id="mask0_2158_12519" style="mask-type:alpha" maskUnits="userSpaceOnUse" x="0" y="0" width="64" height="64">
<path d="M32 0L33.2559 3.96814C37.2918 16.7192 47.2808 26.7082 60.032 30.7441L64 32L60.032 33.2559C47.2808 37.2918 37.2918 47.2808 33.2559 60.032L32 64L30.7441 60.032C26.7082 47.2808 16.7192 37.2918 3.96814 33.2559L0 32L3.96814 30.7441C16.7192 26.7082 26.7082 16.7192 30.7441 3.96814L32 0Z" fill="white"/>
</mask>
<g mask="url(#mask0_2158_12519)">
<path d="M32 0L33.2559 3.96814C37.2918 16.7192 47.2808 26.7082 60.032 30.7441L64 32L60.032 33.2559C47.2808 37.2918 37.2918 47.2808 33.2559 60.032L32 64L30.7441 60.032C26.7082 47.2808 16.7192 37.2918 3.96814 33.2559L0 32L3.96814 30.7441C16.7192 26.7082 26.7082 16.7192 30.7441 3.96814L32 0Z" fill="#151515"/>
<path d="M31.9991 -6.55651e-06L32.5344 -0.169414L31.9991 -1.86046L31.4638 -0.169414L31.9991 -6.55651e-06ZM63.9991 32L64.1687 32.5353L65.8596 32L64.1687 31.4647L63.9991 32ZM31.9991 64L31.4638 64.1695L31.9991 65.8605L32.5344 64.1695L31.9991 64ZM-0.000876307 32L-0.170283 31.4647L-1.86133 32L-0.170283 32.5353L-0.000876307 32ZM3.96726 33.2558L3.79786 33.7911L3.96726 33.2558ZM60.0311 33.2558L59.8616 32.7208L60.0311 33.2558ZM33.255 60.032L32.72 59.8624L33.255 60.032ZM60.0311 30.7441L59.8616 31.2791L60.0311 30.7441ZM31.4638 0.1694L32.72 4.13754L33.7903 3.79873L32.5344 -0.169414L31.4638 0.1694ZM59.8616 31.2791L63.8296 32.5353L64.1687 31.4647L60.2004 30.2088L59.8616 31.2791ZM63.8296 31.4647L59.8616 32.7208L60.2004 33.7911L64.1687 32.5353L63.8296 31.4647ZM32.72 59.8624L31.4638 63.8304L32.5344 64.1695L33.7903 60.2012L32.72 59.8624ZM32.5344 63.8304L31.2783 59.8624L30.208 60.2012L31.4638 64.1695L32.5344 63.8304ZM4.13667 32.7208L0.168531 31.4647L-0.170283 32.5353L3.79786 33.7911L4.13667 32.7208ZM0.168531 32.5353L4.13667 31.2791L3.79786 30.2088L-0.170283 31.4647L0.168531 32.5353ZM31.2783 4.13754L32.5344 0.1694L31.4638 -0.169414L30.208 3.79873L31.2783 4.13754ZM4.13667 31.2791C17.0619 27.1883 27.1874 17.0628 31.2783 4.13754L30.208 3.79873C26.2272 16.3755 16.3747 26.2281 3.79786 30.2088L4.13667 31.2791ZM31.2783 59.8624C27.1874 46.9372 17.0619 36.8118 4.13667 32.7208L3.79786 33.7911C16.3746 37.7718 26.2272 47.6244 30.208 60.2012L31.2783 59.8624ZM59.8616 32.7208C46.9364 36.8118 36.8109 46.9372 32.72 59.8624L33.7903 60.2012C37.7709 47.6244 47.6235 37.7718 60.2004 33.7911L59.8616 32.7208ZM32.72 4.13754C36.8109 17.0628 46.9364 27.1883 59.8616 31.2791L60.2004 30.2088C47.6235 26.2281 37.7709 16.3755 33.7903 3.79873L32.72 4.13754Z" fill="#151515"/>
</g>
</g>
<defs>
<clipPath id="clip0_2158_12519">
<rect width="64" height="64" fill="white"/>
</clipPath>
</defs>
</svg>
