<svg width="240" height="66" viewBox="0 0 240 66" fill="none" xmlns="http://www.w3.org/2000/svg">
<circle cx="15" cy="15.9142" r="15" transform="rotate(-90 15 15.9142)" fill="#67C22F"/>
<circle cx="45" cy="15.9142" r="15" transform="rotate(-90 45 15.9142)" fill="#67C22F"/>
<circle cx="75" cy="15.9142" r="15" transform="rotate(-90 75 15.9142)" fill="#67C22F"/>
<circle cx="105" cy="15.9142" r="15" transform="rotate(-90 105 15.9142)" fill="#67C22F"/>
<circle cx="135" cy="15.9142" r="15" transform="rotate(-90 135 15.9142)" fill="#67C22F"/>
<circle cx="165" cy="15.9142" r="15" transform="rotate(-90 165 15.9142)" fill="#67C22F"/>
<circle cx="195" cy="15.9142" r="15" transform="rotate(-90 195 15.9142)" fill="#67C22F"/>
<circle cx="225" cy="15.9142" r="15" transform="rotate(-90 225 15.9142)" fill="#67C22F"/>
<circle cx="15" cy="50.0857" r="15" transform="rotate(-90 15 50.0857)" fill="#67C22F"/>
<circle cx="45" cy="50.0858" r="15" transform="rotate(-90 45 50.0858)" fill="#67C22F"/>
<circle cx="75" cy="50.0858" r="15" transform="rotate(-90 75 50.0858)" fill="#67C22F"/>
<circle cx="105" cy="50.0858" r="15" transform="rotate(-90 105 50.0858)" fill="#67C22F"/>
<circle cx="135" cy="50.0858" r="15" transform="rotate(-90 135 50.0858)" fill="#67C22F"/>
<circle cx="165" cy="50.0858" r="15" transform="rotate(-90 165 50.0858)" fill="#67C22F"/>
<circle cx="195" cy="50.0858" r="15" transform="rotate(-90 195 50.0858)" fill="#67C22F"/>
<circle cx="225" cy="50.0858" r="15" transform="rotate(-90 225 50.0858)" fill="#67C22F"/>
</svg>
