<svg width="1858" height="1322" viewBox="0 0 1858 1322" fill="none" xmlns="http://www.w3.org/2000/svg">
<g filter="url(#filter0_f_20_349)">
<path opacity="0.4" d="M973.981 673.927C1057.38 875.143 1391.88 1063.31 1560.85 926.963C1712.97 804.214 1453.33 778.181 1458.33 587.548C1463.98 372.226 1387.4 108.288 1286.85 284.274C1229 385.516 929.304 566.137 973.981 673.927Z" fill="#3341FF"/>
<path opacity="0.4" d="M1011.18 713.824C1087.64 590.853 1054.67 349.697 911.015 322.126C781.692 297.305 873.157 435.606 766.5 510.791C646.03 595.712 532.372 740.88 669.907 718.654C749.029 705.867 970.22 779.7 1011.18 713.824Z" fill="#3341FF"/>
<path opacity="0.4" d="M1532.43 828.619C1424.39 729.997 991.017 637.767 772.1 704.598C575.017 764.761 911.402 777.522 904.923 870.957C897.604 976.495 996.825 1105.86 1127.09 1019.6C1202.03 969.98 1590.31 881.452 1532.43 828.619Z" fill="#00FEFF"/>
<path opacity="0.4" d="M1627.33 904.852C1558.04 819.078 1280.11 738.864 1139.71 796.988C1013.31 849.313 1229.05 860.411 1224.89 941.674C1220.2 1033.46 1283.83 1145.98 1367.37 1070.96C1415.44 1027.8 1664.45 950.802 1627.33 904.852Z" fill="#7110F0"/>
</g>
<defs>
<filter id="filter0_f_20_349" x="-226.141" y="-147.141" width="2083.37" height="1468.77" filterUnits="userSpaceOnUse" color-interpolation-filters="sRGB">
<feFlood flood-opacity="0" result="BackgroundImageFix"/>
<feBlend mode="normal" in="SourceGraphic" in2="BackgroundImageFix" result="shape"/>
<feGaussianBlur stdDeviation="113.07" result="effect1_foregroundBlur_20_349"/>
</filter>
</defs>
</svg>
