<svg width="1440" height="1212" viewBox="0 0 1440 1212" fill="none" xmlns="http://www.w3.org/2000/svg">
<g filter="url(#filter0_f_6203_12405)">
<path opacity="0.4" d="M426.94 616.919C499.607 792.357 791.07 956.42 938.304 837.538C1070.85 730.514 844.615 707.816 848.973 541.606C853.895 353.869 787.165 123.745 699.552 277.185C649.15 365.457 388.012 522.938 426.94 616.919Z" fill="#3341FF"/>
<path opacity="0.4" d="M459.136 651.832C525.755 544.692 497.028 334.584 371.866 310.562C259.19 288.937 338.881 409.433 245.953 474.938C140.99 548.926 41.9624 675.404 161.794 656.039C230.731 644.899 423.45 709.226 459.136 651.832Z" fill="#3341FF"/>
<path opacity="0.4" d="M913.893 751.933C819.699 665.967 441.896 585.573 251.048 643.827C79.2343 696.27 372.489 707.393 366.841 788.838C360.46 880.832 446.959 993.596 560.525 918.409C625.858 875.154 964.352 797.986 913.893 751.933Z" fill="#00FEFF"/>
<path opacity="0.4" d="M996.725 818.49C936.321 743.573 694.046 673.512 571.659 724.279C461.48 769.981 649.537 779.674 645.915 850.651C641.823 930.822 697.292 1029.09 770.118 963.569C812.015 925.873 1029.08 858.624 996.725 818.49Z" fill="#7110F0"/>
</g>
<defs>
<filter id="filter0_f_6203_12405" x="-226.141" y="-42.1406" width="1892.28" height="1468.28" filterUnits="userSpaceOnUse" color-interpolation-filters="sRGB">
<feFlood flood-opacity="0" result="BackgroundImageFix"/>
<feBlend mode="normal" in="SourceGraphic" in2="BackgroundImageFix" result="shape"/>
<feGaussianBlur stdDeviation="113.07" result="effect1_foregroundBlur_6203_12405"/>
</filter>
</defs>
</svg>
