<svg width="392" height="222" viewBox="0 0 392 222" fill="none" xmlns="http://www.w3.org/2000/svg">
<g clip-path="url(#clip0_6150_12597)">
<rect x="151.34" y="54.7761" width="56.1812" height="81.1871" fill="white"/>
<path d="M221.594 156.415L256.723 147.585C256.723 147.585 241.6 44.1661 241.501 43.4552C241.457 43.1563 241.312 42.8811 241.092 42.6736C240.871 42.4661 240.587 42.3384 240.285 42.311C239.779 42.2683 229.888 42.1157 229.888 42.1157C229.888 42.1157 223.859 36.1963 221.594 33.9536V156.415Z" fill="url(#paint0_linear_6150_12597)"/>
<path d="M217.77 32.7729L213.617 34.0727C213.103 32.369 212.436 30.7147 211.625 29.1297C208.682 23.4483 204.37 20.4428 199.159 20.4336H199.138C198.776 20.4336 198.417 20.4703 198.056 20.5008C197.902 20.3146 197.749 20.1285 197.587 19.9515C195.316 17.4953 192.404 16.2992 188.919 16.4029C182.188 16.5982 175.484 21.5138 170.05 30.2464C166.228 36.3886 163.316 44.1083 162.492 50.0826L149.241 54.2353C145.339 55.4742 145.217 55.5962 144.705 59.3157C144.325 62.1228 134.121 141.943 134.121 141.943L218.794 156.754V32.599C218.447 32.6203 218.102 32.6786 217.767 32.7729H217.77ZM198.215 38.8967L183.938 43.3668C185.317 38.0241 187.935 32.7027 191.15 29.2121C192.345 27.9153 194.016 26.466 195.996 25.6421C197.86 29.5721 198.261 35.1315 198.215 38.8967ZM189.05 20.934C190.629 20.8974 191.959 21.2483 193.096 22.005C191.276 22.9601 189.519 24.3331 187.867 26.1242C183.595 30.7621 180.318 37.963 179.009 44.9077C174.936 46.1831 170.951 47.4341 167.282 48.5783C169.599 37.6457 178.663 21.2392 189.05 20.934ZM175.953 83.2191C176.407 90.5055 195.358 92.0983 196.422 109.161C197.259 122.586 189.382 131.771 178.031 132.497C164.404 133.366 156.904 125.235 156.904 125.235L159.791 112.81C159.791 112.81 167.34 118.571 173.385 118.186C177.333 117.933 178.743 114.687 178.599 112.389C178.007 102.884 162.574 103.449 161.6 87.8296C160.778 74.6909 169.311 61.3753 188.14 60.1731C195.392 59.7093 199.11 61.5828 199.11 61.5828L194.804 77.8764C194.804 77.8764 190.001 75.6643 184.309 76.0274C175.956 76.5613 175.868 81.8857 175.953 83.2191ZM202.69 37.4932C202.638 34.0452 202.233 29.2548 200.646 25.1081C205.752 26.0845 208.265 31.9307 209.329 35.4153C207.361 36.0255 205.118 36.7273 202.69 37.4932Z" fill="url(#paint1_linear_6150_12597)"/>
</g>
<path d="M48.5547 220.837H57.8579V211.049H73.0901V220.837H82.3603V195.106H73.0901V204.202H57.8579V195.106H48.5547V220.837Z" fill="#2FC5F1"/>
<path d="M98.2463 220.837H107.549V211.222L120.587 195.106H110.399L103.16 203.995L96.0515 195.106H84.9141L98.2463 211.153V220.837Z" fill="#2FC5F1"/>
<path d="M123.137 220.837H140.465C154.977 220.837 158.023 214.162 158.023 208.317V207.28C158.023 201.228 154.486 195.106 140.433 195.106H123.137V220.837ZM132.44 201.85H139.352C147.476 201.85 148.36 205.551 148.36 207.799V208.006C148.36 210.254 147.476 214.024 139.352 214.024H132.44V201.85Z" fill="#2FC5F1"/>
<path d="M171.178 201.366H181.857C183.954 201.366 184.674 202.335 184.674 203.545V203.579C184.674 204.824 183.922 205.793 181.857 205.793H171.178V201.366ZM171.178 212.018H180.088C183.757 212.018 185.034 213.54 185.034 216.479V219.488C185.034 220.214 185.099 220.56 185.329 220.837H194.829V220.664C194.599 220.214 194.369 219.557 194.369 217.759V213.954C194.369 210.635 192.372 208.56 189.359 207.833C191.192 207.384 194.272 205.827 194.272 202.092V201.712C194.272 197.527 191.127 195.106 184.019 195.106H161.875V220.837H171.178V212.018Z" fill="#2FC5F1"/>
<path d="M215.418 194.623C199.63 194.623 197.633 202.542 197.633 207.384V208.421C197.633 213.228 199.63 221.321 215.418 221.321H216.893C232.65 221.321 234.648 213.228 234.648 208.421V207.384C234.648 202.542 232.618 194.623 216.893 194.623H215.418ZM225.018 208.11C225.018 210.877 223.345 214.37 216.14 214.37C208.933 214.37 207.263 210.739 207.263 208.041V207.626C207.263 204.894 208.803 201.539 216.14 201.539C223.345 201.539 225.018 204.894 225.018 207.626V208.11Z" fill="#2FC5F1"/>
<path d="M254.975 221.321C262.575 221.321 265.622 218.382 266.572 217.275C267.03 218.209 267.555 220.007 267.717 220.837H273.582V206.346H255.532V211.361H264.082C264.082 212.191 262.05 214.577 255.762 214.577C249.735 214.577 247.407 211.361 247.407 208.076V207.695C247.407 204.306 249.275 201.332 255.827 201.332C262.707 201.332 263.557 203.926 263.722 204.583H273.417V204.548C273.287 200.951 271.255 194.623 256.317 194.623H255.04C240.66 194.623 237.777 201.851 237.777 207.384V208.352C237.777 213.782 240.89 221.321 254.222 221.321H254.975Z" fill="#2FC5F1"/>
<path d="M278.211 195.106V220.837H305.434V214.405H287.384V210.877H304.812V204.617H287.384V201.401H305.172V195.106H278.211Z" fill="#2FC5F1"/>
<path d="M309.77 195.106V220.837H319.007V205.24L334.272 220.837H343.574V195.106H334.337V209.735L320.184 195.106H309.77Z" fill="#2FC5F1"/>
<defs>
<linearGradient id="paint0_linear_6150_12597" x1="255.233" y1="9.95556" x2="171.793" y2="50.6569" gradientUnits="userSpaceOnUse">
<stop stop-color="#0000FE"/>
<stop offset="1" stop-color="#01FFFF"/>
</linearGradient>
<linearGradient id="paint1_linear_6150_12597" x1="215.205" y1="-11.1071" x2="93.894" y2="113.347" gradientUnits="userSpaceOnUse">
<stop stop-color="#0000FE"/>
<stop offset="1" stop-color="#01FFFF"/>
</linearGradient>
<clipPath id="clip0_6150_12597">
<rect width="125.668" height="140.357" fill="white" transform="translate(131.379 16.3967)"/>
</clipPath>
</defs>
</svg>
