<svg width="1023" height="655" viewBox="0 0 1023 655" fill="none" xmlns="http://www.w3.org/2000/svg">
<path d="M5.48047 263.431L178.017 172.575L348.798 279.555L503.897 197.88L331.278 91.8187L502.01 0L999.989 309.401L828.683 399.26L655.272 293.365L505.638 375.395L671.751 480.936L503.8 573.625L5.48047 263.431Z" fill="white" fill-opacity="0.25"/>
<path d="M5.48047 263.431L178.017 172.575L348.798 279.555L503.897 197.88L331.278 91.8187L502.01 0L999.989 309.401L828.683 399.26L655.272 293.365L505.638 375.395L671.751 480.936L503.8 573.625L5.48047 263.431Z" fill="url(#paint0_linear_6316_13615)"/>
<path d="M5.48004 263.431C0.549463 345.773 0 346.045 0 346.045L500.361 654.25L503.809 573.625L5.48004 263.431ZM331.273 91.8186L326.741 173.83L428.912 237.514L503.892 197.88L331.273 91.8186ZM655.276 293.365L653.428 376.076L825.23 482.03L828.683 399.255L655.276 293.365Z" fill="url(#paint1_linear_6316_13615)"/>
<path d="M5.48004 263.431C0.549463 345.773 0 346.045 0 346.045L500.361 654.25L503.809 573.625L5.48004 263.431ZM331.273 91.8186L326.741 173.83L428.912 237.514L503.892 197.88L331.273 91.8186ZM655.276 293.365L653.428 376.076L825.23 482.03L828.683 399.255L655.276 293.365Z" fill="black" fill-opacity="0.25"/>
<path d="M671.757 480.936L503.806 573.625L500.363 654.245L670.07 563.224L671.757 480.936ZM655.278 293.365L505.644 375.395L572.144 417.626L653.43 376.076L655.278 293.365ZM999.995 309.401L995.133 389.851L825.232 482.025L828.684 399.255L999.995 309.401Z" fill="url(#paint2_linear_6316_13615)"/>
<path d="M671.757 480.936L503.806 573.625L500.363 654.245L670.07 563.224L671.757 480.936ZM655.278 293.365L505.644 375.395L572.144 417.626L653.43 376.076L655.278 293.365ZM999.995 309.401L995.133 389.851L825.232 482.025L828.684 399.255L999.995 309.401Z" fill="black" fill-opacity="0.25"/>
<defs>
<linearGradient id="paint0_linear_6316_13615" x1="532.524" y1="-273.252" x2="29.3389" y2="587.571" gradientUnits="userSpaceOnUse">
<stop stop-color="#3341FF"/>
<stop offset="1" stop-color="#00FEFF"/>
</linearGradient>
<linearGradient id="paint1_linear_6316_13615" x1="439.164" y1="-176.101" x2="-89.5867" y2="592.63" gradientUnits="userSpaceOnUse">
<stop stop-color="#3341FF"/>
<stop offset="1" stop-color="#00FEFF"/>
</linearGradient>
<linearGradient id="paint2_linear_6316_13615" x1="765.145" y1="121.456" x2="418.832" y2="594.565" gradientUnits="userSpaceOnUse">
<stop stop-color="#3341FF"/>
<stop offset="1" stop-color="#00FEFF"/>
</linearGradient>
</defs>
</svg>
