<svg width="288" height="288" viewBox="0 0 288 288" fill="none" xmlns="http://www.w3.org/2000/svg">
<path d="M287.5 144C287.5 223.253 223.253 287.5 144 287.5C64.7471 287.5 0.5 223.253 0.5 144C0.5 64.7471 64.7471 0.5 144 0.5C223.253 0.5 287.5 64.7471 287.5 144Z" stroke="#2AE3FE"/>
<g clip-path="url(#clip0_2349_15583)">
<path d="M167.338 142.767C164.945 130.723 176.377 123.659 176.377 123.659C176.377 123.659 171.923 117.215 164.438 115.557C156.956 113.896 153.211 115.971 149.474 117.528C145.733 119.089 143.866 119.089 143.866 119.089C138.468 119.089 134.521 113.373 124.236 115.975C117.15 117.764 109.69 125.944 108.342 135.707C106.994 145.474 109.903 157.936 115.51 167.594C121.118 177.26 126.83 180.893 130.885 180.998C134.939 181.098 138.987 178.093 143.866 177.361C148.75 176.637 151.755 179.131 156.545 180.479C161.316 181.823 162.989 180.576 168.485 175.901C173.995 171.227 178.983 157.82 178.983 157.82C178.983 157.82 169.732 154.818 167.338 142.767Z" fill="#2FC5F1"/>
<path d="M156.742 107.765C162.044 102.363 160.248 94 160.248 94C160.248 94 152.804 95.3068 147.816 100.496C142.831 105.689 143.657 113.892 143.657 113.892C143.657 113.892 151.441 113.164 156.742 107.765Z" fill="#2FC5F1"/>
</g>
<defs>
<clipPath id="clip0_2349_15583">
<rect width="87" height="87" fill="white" transform="translate(100 94)"/>
</clipPath>
</defs>
</svg>
