<svg width="127" height="127" viewBox="0 0 127 127" fill="none" xmlns="http://www.w3.org/2000/svg">
<path d="M65.0909 0.93L126.067 61.9061L125.999 126.156L0.841797 0.997283L65.0909 0.93Z" fill="white"/>
<path d="M51.5889 16.7496L52.4162 14.8786L45.2122 22.0826L43.6849 20.5552L52.5944 11.6457L54.8854 13.9367L52.0471 20.7462L58.8565 17.9078L61.1221 20.1734L52.2126 29.0829L50.6852 27.5556L57.9019 20.3389L56.0055 21.1662L51.067 23.2281L49.5397 21.7008L51.5889 16.7496Z" fill="url(#paint0_linear_1042_5794)"/>
<path d="M56.4837 33.5832C55.5248 32.6243 55.0454 31.6019 55.0454 30.5157C55.0539 29.4381 55.5461 28.4114 56.5219 27.4356L56.9292 27.0283C57.4128 26.5446 57.9134 26.1798 58.431 25.9337C58.9571 25.6961 59.4832 25.5773 60.0093 25.5773C60.5524 25.5773 61.0785 25.6961 61.5876 25.9337C62.1052 26.1628 62.6016 26.5149 63.0767 26.9901C64.0356 27.9489 64.5108 28.9672 64.5023 30.0448C64.5023 31.1309 64.0144 32.1619 63.0386 33.1377L62.6313 33.545C62.1476 34.0286 61.6427 34.3893 61.1166 34.6269C60.599 34.8729 60.0687 34.996 59.5256 34.996C58.9996 34.996 58.4735 34.8772 57.9474 34.6396C57.4383 34.402 56.9504 34.0499 56.4837 33.5832ZM57.8583 32.2086C58.342 32.6922 58.8511 32.9213 59.3856 32.8959C59.9287 32.8789 60.493 32.5777 61.0785 31.9922L61.4857 31.5849C62.0627 31.0079 62.3555 30.4436 62.364 29.8921C62.3894 29.3405 62.1688 28.8314 61.7021 28.3647C61.2185 27.8811 60.7051 27.6477 60.162 27.6647C59.6275 27.6901 59.0674 27.9956 58.482 28.5811L58.0747 28.9884C57.4977 29.5654 57.1964 30.1297 57.171 30.6812C57.1625 31.2327 57.3916 31.7419 57.8583 32.2086Z" fill="url(#paint1_linear_1042_5794)"/>
<path d="M64.1434 41.2429C63.6937 40.7932 63.3755 40.3138 63.1888 39.8046C63.0106 39.304 62.9724 38.7822 63.0743 38.2391L62.0815 38.9519L60.9232 37.7936L69.8328 28.8841L71.3092 30.3605L68.1272 33.5425C69.0776 33.4916 69.9473 33.8607 70.7365 34.6498C71.1013 35.0147 71.3686 35.4177 71.5383 35.859C71.725 36.3002 71.7971 36.7627 71.7547 37.2463C71.7208 37.7215 71.5723 38.2179 71.3092 38.7355C71.0547 39.2446 70.6728 39.7537 70.1637 40.2628L69.7564 40.6701C69.2473 41.1793 68.7382 41.5611 68.2291 41.8156C67.7199 42.0702 67.2193 42.2145 66.7272 42.2484C66.2435 42.2908 65.7811 42.2272 65.3398 42.0575C64.9071 41.8793 64.5083 41.6078 64.1434 41.2429ZM65.0725 39.4228C65.5223 39.8725 66.0059 40.0846 66.5235 40.0592C67.0411 40.0337 67.6012 39.7198 68.2036 39.1173L68.6109 38.71C69.1964 38.1245 69.5019 37.5645 69.5273 37.0299C69.5528 36.4954 69.3491 36.0117 68.9164 35.579C68.5091 35.1717 68.0339 34.9765 67.4908 34.9935C66.9563 35.0189 66.4132 35.2905 65.8617 35.8081L65.378 36.2917C64.818 36.8518 64.521 37.4118 64.4871 37.9718C64.4701 38.5318 64.6652 39.0155 65.0725 39.4228Z" fill="url(#paint2_linear_1042_5794)"/>
<path d="M74.473 38.6155L75.9494 40.0919L69.5855 46.4559L68.109 44.9794L74.473 38.6155ZM75.9749 38.59C75.7034 38.3185 75.5634 38.0003 75.5549 37.6354C75.5634 37.2706 75.7034 36.9524 75.9749 36.6808C76.2464 36.4093 76.5604 36.2735 76.9168 36.2735C77.2901 36.2735 77.6126 36.4093 77.8841 36.6808C78.1471 36.9439 78.2787 37.2621 78.2787 37.6354C78.2871 38.0003 78.1556 38.3185 77.8841 38.59C77.6126 38.8615 77.2901 38.9973 76.9168 38.9973C76.5519 38.9888 76.2379 38.8531 75.9749 38.59Z" fill="url(#paint3_linear_1042_5794)"/>
<path d="M73.3893 50.2597C72.719 49.5894 72.3796 48.8936 72.3711 48.1723C72.3796 47.4511 72.7232 46.7511 73.4021 46.0722L80.2115 39.2628L81.6879 40.7392L75.0312 47.3959C74.7003 47.7269 74.5306 48.0408 74.5221 48.3378C74.5136 48.6348 74.6579 48.9318 74.9549 49.2288L75.2731 49.547L73.9748 50.8452L73.3893 50.2597Z" fill="url(#paint4_linear_1042_5794)"/>
<path d="M77.4261 54.5256C76.9679 54.0674 76.6242 53.5879 76.3951 53.0873C76.1745 52.5782 76.0642 52.0606 76.0642 51.5345C76.0727 50.9999 76.1957 50.4696 76.4333 49.9435C76.6794 49.4259 77.0442 48.9253 77.5279 48.4416L77.9352 48.0343C78.4189 47.5507 78.9195 47.1858 79.4371 46.9397C79.9632 46.7021 80.4893 46.5833 81.0154 46.5833C81.5499 46.5749 82.0675 46.6852 82.5682 46.9143C83.0773 47.1349 83.5609 47.4743 84.0191 47.9325C84.944 48.8574 85.3895 49.8714 85.3556 50.9745C85.3216 52.0776 84.7743 53.1594 83.7137 54.2201L83.2173 54.7165L78.7116 50.2108C78.2195 50.7878 77.9819 51.3224 77.9988 51.8145C78.0243 52.2982 78.2661 52.7691 78.7243 53.2273C79.174 53.677 79.5771 53.9274 79.9335 53.9783C80.3068 54.0292 80.6335 53.9825 80.9135 53.8383L82.4409 55.3656C82.076 55.5947 81.6942 55.7644 81.2954 55.8747C80.8966 55.985 80.485 56.0147 80.0608 55.9638C79.6365 55.9129 79.1995 55.7729 78.7498 55.5438C78.3085 55.3062 77.8673 54.9668 77.4261 54.5256ZM82.7209 49.2308C82.2881 48.798 81.8427 48.5647 81.3845 48.5307C80.9263 48.4968 80.4341 48.675 79.908 49.0653L82.8864 52.0436C83.3021 51.5091 83.4846 51.0127 83.4337 50.5545C83.3912 50.1047 83.1536 49.6635 82.7209 49.2308Z" fill="url(#paint5_linear_1042_5794)"/>
<path d="M92.191 64.5557L88.8181 61.1828L85.827 62.6974L84.2233 61.0937L96.3148 55.3661L98.0967 57.148L92.3692 69.2395L90.6891 67.5595L92.191 64.5557ZM90.6127 60.2791L93.0946 62.761L94.4056 60.1773L95.6402 57.7462L93.2092 58.9808L90.6127 60.2791Z" fill="url(#paint6_linear_1042_5794)"/>
<path d="M96.4852 73.5847C95.6876 72.7871 95.3185 71.9174 95.3779 70.9755L92.1959 74.1575L90.7195 72.6811L99.629 63.7715L100.787 64.9297L100.062 65.9353C100.613 65.8249 101.139 65.8589 101.64 66.0371C102.149 66.2238 102.629 66.542 103.078 66.9917C103.443 67.3565 103.71 67.7596 103.88 68.2008C104.067 68.6421 104.139 69.1045 104.097 69.5882C104.063 70.0633 103.914 70.5597 103.651 71.0773C103.397 71.5865 103.015 72.0956 102.506 72.6047L102.098 73.012C101.589 73.5211 101.08 73.9029 100.571 74.1575C100.062 74.412 99.5612 74.5563 99.069 74.5902C98.5854 74.6327 98.1229 74.569 97.6817 74.3993C97.2489 74.2211 96.8501 73.9496 96.4852 73.5847ZM97.4144 71.7646C97.8641 72.2144 98.3478 72.4265 98.8654 72.401C99.383 72.3756 99.943 72.0616 100.545 71.4592L100.953 71.0519C101.538 70.4664 101.844 69.9064 101.869 69.3718C101.895 68.8372 101.691 68.3536 101.258 67.9208C100.851 67.5135 100.376 67.3184 99.8327 67.3353C99.2981 67.3608 98.7551 67.6323 98.2035 68.1499L97.7199 68.6336C97.1598 69.1936 96.8628 69.7536 96.8289 70.3137C96.8119 70.8737 97.0071 71.3573 97.4144 71.7646Z" fill="url(#paint7_linear_1042_5794)"/>
<path d="M103.607 80.7069C102.81 79.9093 102.441 79.0395 102.5 78.0977L99.3181 81.2797L97.8417 79.8032L106.751 70.8937L107.909 72.0519L107.184 73.0574C107.735 72.9471 108.262 72.9811 108.762 73.1592C109.271 73.3459 109.751 73.6641 110.2 74.1138C110.565 74.4787 110.833 74.8818 111.002 75.323C111.189 75.7642 111.261 76.2267 111.219 76.7103C111.185 77.1855 111.036 77.6819 110.773 78.1995C110.519 78.7086 110.137 79.2177 109.628 79.7269L109.22 80.1341C108.711 80.6433 108.202 81.0251 107.693 81.2797C107.184 81.5342 106.683 81.6785 106.191 81.7124C105.708 81.7548 105.245 81.6912 104.804 81.5215C104.371 81.3433 103.972 81.0718 103.607 80.7069ZM104.537 78.8868C104.986 79.3365 105.47 79.5487 105.988 79.5232C106.505 79.4978 107.065 79.1838 107.668 78.5813L108.075 78.174C108.66 77.5886 108.966 77.0285 108.991 76.494C109.017 75.9594 108.813 75.4757 108.38 75.043C107.973 74.6357 107.498 74.4405 106.955 74.4575C106.42 74.4829 105.877 74.7545 105.326 75.2721L104.842 75.7557C104.282 76.3158 103.985 76.8758 103.951 77.4358C103.934 77.9959 104.129 78.4795 104.537 78.8868Z" fill="url(#paint8_linear_1042_5794)"/>
<defs>
<linearGradient id="paint0_linear_1042_5794" x1="56.1339" y1="14.9306" x2="85.5649" y2="85.1844" gradientUnits="userSpaceOnUse">
<stop stop-color="#98D528"/>
<stop offset="1" stop-color="#30AD37"/>
</linearGradient>
<linearGradient id="paint1_linear_1042_5794" x1="56.1339" y1="14.9306" x2="85.5649" y2="85.1844" gradientUnits="userSpaceOnUse">
<stop stop-color="#98D528"/>
<stop offset="1" stop-color="#30AD37"/>
</linearGradient>
<linearGradient id="paint2_linear_1042_5794" x1="56.1339" y1="14.9306" x2="85.5649" y2="85.1844" gradientUnits="userSpaceOnUse">
<stop stop-color="#98D528"/>
<stop offset="1" stop-color="#30AD37"/>
</linearGradient>
<linearGradient id="paint3_linear_1042_5794" x1="56.1339" y1="14.9306" x2="85.5649" y2="85.1844" gradientUnits="userSpaceOnUse">
<stop stop-color="#98D528"/>
<stop offset="1" stop-color="#30AD37"/>
</linearGradient>
<linearGradient id="paint4_linear_1042_5794" x1="56.1339" y1="14.9306" x2="85.5649" y2="85.1844" gradientUnits="userSpaceOnUse">
<stop stop-color="#98D528"/>
<stop offset="1" stop-color="#30AD37"/>
</linearGradient>
<linearGradient id="paint5_linear_1042_5794" x1="56.1339" y1="14.9306" x2="85.5649" y2="85.1844" gradientUnits="userSpaceOnUse">
<stop stop-color="#98D528"/>
<stop offset="1" stop-color="#30AD37"/>
</linearGradient>
<linearGradient id="paint6_linear_1042_5794" x1="56.1339" y1="14.9306" x2="85.5649" y2="85.1844" gradientUnits="userSpaceOnUse">
<stop stop-color="#98D528"/>
<stop offset="1" stop-color="#30AD37"/>
</linearGradient>
<linearGradient id="paint7_linear_1042_5794" x1="56.1339" y1="14.9306" x2="85.5649" y2="85.1844" gradientUnits="userSpaceOnUse">
<stop stop-color="#98D528"/>
<stop offset="1" stop-color="#30AD37"/>
</linearGradient>
<linearGradient id="paint8_linear_1042_5794" x1="56.1339" y1="14.9306" x2="85.5649" y2="85.1844" gradientUnits="userSpaceOnUse">
<stop stop-color="#98D528"/>
<stop offset="1" stop-color="#30AD37"/>
</linearGradient>
</defs>
</svg>
