<svg width="80" height="80" viewBox="0 0 80 80" fill="none" xmlns="http://www.w3.org/2000/svg">
<path d="M14.449 50.5839C14.5253 50.7688 14.6843 50.9071 14.878 50.9585L26.1035 53.8973L29.0428 65.1224C29.0933 65.3161 29.2321 65.475 29.4169 65.5518C29.6018 65.6282 29.812 65.6143 29.9852 65.513L40.0004 59.6528L50.0161 65.5125C50.1157 65.5706 50.2268 65.6 50.3393 65.6C50.4223 65.6 50.5054 65.584 50.5844 65.5514C50.7692 65.4746 50.9081 65.3157 50.9585 65.1219L53.8978 53.8969L65.1233 50.958C65.3171 50.9067 65.476 50.7687 65.5523 50.5835C65.6291 50.3986 65.6144 50.1879 65.5135 50.0152L59.6537 40L65.5131 29.9843C65.614 29.812 65.6283 29.6013 65.552 29.416C65.4756 29.2312 65.3167 29.0928 65.123 29.0414L53.8975 26.1026L50.9582 14.878C50.9077 14.6843 50.7689 14.5253 50.5841 14.4486C50.3988 14.3722 50.1894 14.3865 50.0157 14.4874L40.0005 20.3472L29.9849 14.4874C29.8117 14.387 29.6018 14.3722 29.4166 14.4486C29.2318 14.5253 29.0929 14.6843 29.0425 14.878L26.1032 26.103L14.8781 29.0419C14.6844 29.0932 14.5255 29.2312 14.4491 29.4165C14.3723 29.6013 14.3871 29.812 14.488 29.9848L20.3474 40L14.488 50.0156C14.3871 50.1879 14.3728 50.3987 14.4491 50.5839H14.449ZM21.6415 40.3232C21.758 40.1237 21.758 39.8764 21.6415 39.6768L16.0192 30.067L26.7902 27.2469C27.0138 27.188 27.1888 27.0129 27.2469 26.7893L30.067 16.0188L39.6773 21.6411C39.8768 21.7571 40.1241 21.7571 40.3237 21.6411L49.934 16.0188L52.7541 26.7893C52.8126 27.0129 52.9871 27.188 53.2108 27.2469L63.9817 30.067L58.3595 39.6768C58.2429 39.8764 58.2429 40.1237 58.3595 40.3232L63.9817 49.9331L53.2108 52.7532C52.9871 52.8121 52.8121 52.9871 52.7541 53.2108L49.934 63.9813L40.3237 58.359C40.2241 58.3005 40.1121 58.2715 40.0005 58.2715C39.8889 58.2715 39.7768 58.301 39.6773 58.359L30.067 63.9813L27.2469 53.2108C27.1884 52.9871 27.0138 52.8121 26.7902 52.7532L16.0192 49.9331L21.6415 40.3232Z" fill="black"/>
<path d="M39.8725 40.6468H40.1261C43.2141 40.6468 45.7266 42.795 45.7266 45.4356C45.7266 48.0762 43.2146 50.2244 40.1261 50.2244C37.0381 50.2244 34.5257 48.0762 34.5257 45.4356C34.5257 45.082 34.2391 44.7954 33.8855 44.7954C33.5319 44.7954 33.2453 45.0816 33.2453 45.4356C33.2453 48.544 35.9104 51.111 39.3301 51.4606V53.7334C39.3301 54.087 39.6167 54.3736 39.9703 54.3736C40.3239 54.3736 40.6105 54.0874 40.6105 53.7334L40.6109 51.483C44.1783 51.262 47.0064 48.6379 47.0064 45.4361C47.0064 42.0898 43.9198 39.3674 40.1261 39.3674H39.8725C36.7845 39.3674 34.2721 37.2191 34.2721 34.5786C34.2721 31.938 36.7841 29.7898 39.8725 29.7898C42.9605 29.7898 45.473 31.938 45.473 34.5786C45.473 34.9321 45.7596 35.2187 46.1132 35.2187C46.4667 35.2187 46.7534 34.9326 46.7534 34.5786C46.7534 31.4612 44.0739 28.8879 40.64 28.55V26.1612C40.64 25.8076 40.3534 25.521 39.9998 25.521C39.6462 25.521 39.3596 25.8072 39.3596 26.1612V28.5331C35.8056 28.7661 32.9922 31.3853 32.9922 34.579C32.9922 37.9245 36.0788 40.6469 39.8725 40.6469L39.8725 40.6468Z" fill="black"/>
</svg>
