<svg width="290" height="272" viewBox="0 0 290 272" fill="none" xmlns="http://www.w3.org/2000/svg">
<path d="M290 3L100.65 127.482L151.985 160.311L82 269L270.613 145.661L219.279 112.832L290 3Z" fill="#67C22F"/>
<path d="M41 272L112.763 160.589L61.016 127.503L255 0L182.486 112.569L234.247 145.669L41 272ZM64.2316 127.474L115.228 160.066L114.746 160.8L46.9212 266.043L231.074 145.683L180.078 113.105L180.56 112.371L249.05 5.99896L64.2316 127.474Z" fill="#393C46"/>
<path d="M0 272L71.763 160.589L20.016 127.503L214 0L141.486 112.569L193.247 145.669L0 272ZM23.2316 127.474L74.2278 160.066L73.7462 160.8L5.92123 266.043L190.074 145.683L139.078 113.105L139.56 112.371L208.05 5.99896L23.2316 127.474Z" fill="#393C46"/>
</svg>
