<svg width="80" height="80" viewBox="0 0 80 80" fill="none" xmlns="http://www.w3.org/2000/svg">
<path d="M60.0785 14.4H59.9946H59.9942H59.9933L24.5933 14.4188C21.0951 14.442 18.2495 17.3139 18.2495 20.8214V52.9345H15.0406C14.687 52.9345 14.4004 53.2207 14.4004 53.5747V59.1747C14.4004 62.7176 17.2754 65.6002 20.8093 65.6002H49.2013C49.2093 65.6002 49.2169 65.6002 49.2245 65.5998L49.7183 65.5815C53.2164 65.5583 56.0625 62.6864 56.0625 59.1788V25.3126H64.9602C65.3138 25.3126 65.6004 25.0264 65.6004 24.6724V19.9349C65.6004 16.8831 63.1241 14.4 60.079 14.4L60.0785 14.4ZM20.8088 64.32C17.9807 64.32 15.6798 62.012 15.6798 59.1745V54.2148H42.7918V59.1745C42.7918 61.2772 43.8043 63.1469 45.3663 64.32H20.8088ZM54.7814 59.1785C54.7814 61.9848 52.506 64.283 49.6894 64.3017L49.1974 64.3196C46.3702 64.3183 44.0711 62.0107 44.0711 59.1741V53.5741C44.0711 53.2205 43.785 52.9339 43.431 52.9339L19.5292 52.9344V20.8212C19.5292 18.0149 21.8047 15.7168 24.598 15.6989L56.582 15.682C55.482 16.6387 54.782 18.0445 54.782 19.6132L54.7814 59.1785ZM64.3198 24.0323H56.0617V19.6131C56.0617 17.4447 57.8256 15.6805 59.9934 15.68L60.0791 15.6796C62.417 15.6796 64.3197 17.5885 64.3197 19.9344L64.3198 24.0323Z" fill="black"/>
<path d="M37.6507 34.4594H37.5556C36.6262 34.4594 35.8708 33.7068 35.8708 32.7826C35.8708 31.8581 36.6266 31.1058 37.5556 31.1058C38.4851 31.1058 39.2413 31.8585 39.2413 32.7826C39.2413 33.1362 39.5275 33.4228 39.8815 33.4228C40.2351 33.4228 40.5217 33.1367 40.5217 32.7826C40.5217 31.3714 39.5239 30.1925 38.1962 29.8992V29.4577C38.1962 29.1041 37.9101 28.8175 37.556 28.8175C37.2025 28.8175 36.9158 29.1037 36.9158 29.4577V29.8992C35.5882 30.1925 34.5908 31.3716 34.5908 32.7826C34.5908 34.4135 35.9208 35.7393 37.556 35.7393H37.6511C38.5805 35.7393 39.3359 36.492 39.3359 37.4161C39.3359 38.3407 38.58 39.0929 37.6511 39.0929C36.7216 39.0929 35.9653 38.3402 35.9653 37.4161C35.9653 37.0625 35.6792 36.7759 35.3252 36.7759C34.9716 36.7759 34.685 37.0621 34.685 37.4161C34.685 38.7925 35.6372 39.9416 36.9158 40.2702V40.7407C36.9158 41.0943 37.202 41.3809 37.556 41.3809C37.9096 41.3809 38.1962 41.0947 38.1962 40.7407V40.3184C39.5712 40.0621 40.6163 38.8608 40.6163 37.4166C40.6159 35.7854 39.2859 34.4594 37.6507 34.4594V34.4594Z" fill="black"/>
<path d="M37.6047 26.1703C32.5949 26.1703 28.5186 30.2466 28.5186 35.2565C28.5186 40.2672 32.5949 44.3435 37.6047 44.3435C42.6155 44.3435 46.6918 40.2672 46.6918 35.2565C46.6914 30.2466 42.6155 26.1703 37.6047 26.1703ZM37.6047 43.0629C33.3003 43.0629 29.7984 39.561 29.7984 35.2561C29.7984 30.9517 33.3003 27.4498 37.6047 27.4498C41.9096 27.4498 45.4115 30.9517 45.4115 35.2561C45.4115 39.561 41.9096 43.0629 37.6047 43.0629Z" fill="black"/>
</svg>
