<svg width="80" height="80" viewBox="0 0 80 80" fill="none" xmlns="http://www.w3.org/2000/svg">
<path d="M65.6004 40C65.6004 25.8846 54.117 14.4 40.0004 14.4C25.8838 14.4 14.4004 25.8846 14.4004 40C14.4004 54.1155 25.8838 65.6 40.0004 65.6C40.354 65.6 40.6406 65.3139 40.6406 64.9598C40.6406 64.6063 40.354 64.3197 40.0004 64.3197C26.5901 64.3197 15.6804 53.4098 15.6804 39.9997C15.6804 26.5894 26.5902 15.6797 40.0004 15.6797C53.4107 15.6797 64.3204 26.5895 64.3204 39.9997C64.3204 47.2505 61.1735 53.9654 55.6552 58.6042V54.8962C55.6552 54.5427 55.3686 54.2561 55.0151 54.2561C54.6615 54.2561 54.3749 54.5422 54.3749 54.8962L54.3753 60.0208C54.3753 60.3744 54.6619 60.661 55.0155 60.661H60.2839C60.6374 60.661 60.924 60.3748 60.924 60.0208C60.924 59.6672 60.6374 59.3806 60.2839 59.3806H56.7285C62.3857 54.5083 65.6004 47.5258 65.6004 40.0012L65.6004 40Z" fill="black"/>
<path d="M39.9988 21.4983C29.7974 21.4983 21.4971 29.7978 21.4971 40C21.4971 50.2022 29.7971 58.5017 39.9988 58.5017C50.2005 58.5017 58.5005 50.2022 58.5005 40C58.5005 29.7978 50.2005 21.4983 39.9988 21.4983ZM40.6372 57.2046V54.0938C40.6372 53.7403 40.3506 53.4536 39.997 53.4536C39.6434 53.4536 39.3568 53.7398 39.3568 54.0938V57.2046C33.4898 56.9885 28.3657 53.8251 25.422 49.1528L28.1121 47.6001C28.4179 47.4233 28.5228 47.0318 28.3465 46.7256C28.1693 46.4198 27.7782 46.3144 27.472 46.4912L24.7792 48.0453C23.5042 45.6426 22.7778 42.9047 22.7778 39.9998C22.7778 37.0935 23.5041 34.3551 24.7809 31.9511L27.4733 33.5056C27.5742 33.5636 27.684 33.5913 27.7925 33.5913C28.014 33.5913 28.2287 33.4761 28.3474 33.2712C28.5238 32.965 28.4189 32.5739 28.1131 32.3967L25.4233 30.844C28.3685 26.1726 33.4929 23.01 39.3605 22.7944V25.9051C39.3605 26.2587 39.6471 26.5453 40.0007 26.5453C40.3542 26.5453 40.6409 26.2591 40.6409 25.9051V22.7944C46.5078 23.0105 51.6319 26.1738 54.5757 30.8462L51.8855 32.3988C51.5797 32.5756 51.4748 32.9671 51.6512 33.2734C51.7699 33.4783 51.9851 33.5935 52.2061 33.5935C52.3146 33.5935 52.4244 33.5658 52.5253 33.5078L55.2181 31.9537C56.494 34.3568 57.2204 37.0947 57.2204 39.9996C57.2204 42.9059 56.494 45.6443 55.2173 48.0483L52.5248 46.4938C52.2172 46.3161 51.8275 46.4224 51.6503 46.7282C51.4739 47.0345 51.5788 47.4255 51.8846 47.6027L54.5744 49.1554C51.6289 53.8269 46.5048 56.9894 40.6372 57.2046H40.6372Z" fill="black"/>
<path d="M47.1177 39.36H40.6388V32.881C40.6388 32.5274 40.3522 32.2408 39.9986 32.2408C39.645 32.2408 39.3584 32.527 39.3584 32.881V40.0002C39.3584 40.3538 39.645 40.6404 39.9986 40.6404H47.1178C47.4714 40.6404 47.758 40.3543 47.758 40.0002C47.758 39.6467 47.4714 39.36 47.1178 39.36L47.1177 39.36Z" fill="black"/>
</svg>
