<svg width="296" height="61" viewBox="0 0 296 61" fill="none" xmlns="http://www.w3.org/2000/svg">
<g clip-path="url(#clip0_1562_8649)">
<path d="M62.5741 42.6016C63.9023 43.2903 66.2636 44.225 68.5265 44.1758C70.5926 44.1758 71.6749 43.0443 71.6749 41.7161C71.6749 40.3879 70.8878 39.5024 68.6741 38.2234C65.9192 36.6492 63.8531 34.4355 63.8531 31.5331C63.8531 26.4169 68.2313 22.7766 74.6265 22.7766C77.4305 22.7766 79.595 23.3177 80.7757 24.0064L79.1031 29.1718C77.6765 28.5322 76.1515 28.1879 74.5773 28.1879C72.5112 28.1879 71.1829 29.1226 71.1829 30.5984C71.1829 31.779 72.1176 32.6153 73.987 33.5992C76.8402 35.2226 79.2015 37.4363 79.2015 40.5847C79.2015 46.3895 74.4789 49.6855 67.9362 49.6363C64.9354 49.5871 62.1313 48.8 60.7539 47.8161C60.8031 47.8161 62.5741 42.6016 62.5741 42.6016ZM80.6773 49.4395L87.7612 12.446H95.0418L92.2378 26.7613L92.3362 26.6629C94.3039 24.3508 96.8128 22.7274 100.06 22.7274C103.847 22.7274 106.012 25.1871 106.012 29.2702C106.012 30.5492 105.815 32.5661 105.471 34.1895L102.618 49.3903H95.337L98.0918 34.6322C98.2886 33.6484 98.387 32.3202 98.387 31.3363C98.387 29.7621 97.7475 28.5815 96.1241 28.5815C93.812 28.5815 91.3031 31.6806 90.3684 36.5016L87.9579 49.3903L80.6773 49.4395ZM132.38 32.9105C132.38 41.9621 126.575 49.6363 117.966 49.6363C111.423 49.6363 107.931 45.1105 107.931 39.4532C107.931 30.6476 113.735 22.7274 122.492 22.7274C129.33 22.7274 132.38 27.696 132.38 32.9105ZM115.408 39.3056C115.408 41.9621 116.441 44.0774 118.95 44.0774C122.787 44.0774 124.951 37.1903 124.951 32.7137C124.951 30.5492 124.115 28.3355 121.508 28.3355C117.572 28.2863 115.408 35.1242 115.408 39.3056ZM130.658 59.721L135.725 33.0581C136.315 30.0573 136.906 26.171 137.201 23.4161H143.645L143.202 27.5484H143.301C145.268 24.7935 148.122 22.9734 151.024 22.9734C156.337 22.9734 158.502 27.2532 158.502 32.1234C158.502 40.9782 152.893 49.7347 144.334 49.7347C142.563 49.7347 140.89 49.4395 140.054 48.7508H139.906L137.889 59.721H130.658ZM141.038 43.0935C141.825 43.7331 142.71 44.1266 144.039 44.1266C148.122 44.1266 150.926 37.4363 150.926 32.7137C150.926 30.746 150.237 28.6798 148.023 28.6798C145.465 28.6798 143.104 31.6806 142.268 36.2556L141.038 43.0935ZM158.747 49.4395L163.667 23.4161H170.997L166.028 49.4395H158.747ZM168.193 20.7105C166.126 20.7105 164.749 18.9395 164.749 16.775C164.749 14.4137 166.618 12.3968 168.931 12.3968C171.144 12.3968 172.571 14.1185 172.571 16.2339C172.522 18.9395 170.554 20.6613 168.291 20.6613C168.291 20.7105 168.193 20.7105 168.193 20.7105ZM172.374 49.4395L176.211 28.8766H172.817L173.85 23.4161H177.244L177.441 22.0879C178.031 19.0379 179.163 15.8895 181.672 13.8234C183.639 12.1508 186.197 11.3637 188.805 11.3637C190.576 11.3637 191.904 11.6097 192.74 12.0032L191.314 17.7097C190.576 17.4637 189.789 17.3161 189.001 17.3161C186.591 17.3161 185.115 19.6282 184.672 22.1371L184.426 23.4653H189.493L188.51 28.9258H183.492L179.655 49.4887L172.374 49.4395ZM198.594 23.4161L199.775 35.075C200.021 37.1411 200.218 39.1581 200.414 41.2242H200.513C201.103 39.8468 201.644 37.8298 202.677 35.0258L207.105 23.4161H214.73L205.826 42.454C202.677 48.9968 199.578 53.7685 196.282 56.8677C193.675 59.2782 190.625 60.5081 189.149 60.8032L187.132 54.6048C188.362 54.1621 189.887 53.5226 191.264 52.5387C192.937 51.3581 194.364 49.7839 195.249 48.1605C195.446 47.7669 195.495 47.521 195.397 47.029L191.018 23.3669C190.92 23.4161 198.594 23.4161 198.594 23.4161Z" fill="white"/>
<path d="M46.3758 11.5534C46.3342 11.2504 46.0695 11.0823 45.8498 11.064C45.6318 11.0457 41.3604 10.9808 41.3604 10.9808C41.3604 10.9808 37.7881 7.51175 37.4352 7.15885C37.0824 6.80596 36.3932 6.91249 36.1252 6.99239C36.1219 6.99406 35.4544 7.20047 34.3308 7.54837C34.1427 6.93913 33.8663 6.19005 33.4718 5.43765C32.2001 3.01066 30.3374 1.72725 28.0868 1.72393C28.0835 1.72393 28.0818 1.72393 28.0785 1.72393C27.922 1.72393 27.7672 1.73891 27.6108 1.75222C27.5442 1.67232 27.4776 1.59409 27.4077 1.51751C26.4272 0.468815 25.1705 -0.0422181 23.664 0.00272612C20.7576 0.0859563 17.8629 2.18502 15.5158 5.91373C13.8645 8.53714 12.6077 11.8331 12.2515 14.3849C8.91395 15.4186 6.58017 16.141 6.52857 16.1577C4.84399 16.687 4.79073 16.7386 4.571 18.3267C4.40787 19.5268 0 53.6113 0 53.6113L36.9392 60L52.9493 56.0199C52.9493 56.0199 46.4174 11.8564 46.3758 11.5534ZM32.4814 8.12099C31.6308 8.384 30.6636 8.68363 29.6149 9.00823C29.5933 7.53672 29.4185 5.48926 28.7327 3.71978C30.9383 4.1376 32.0236 6.63284 32.4814 8.12099ZM27.6823 9.60748C25.7464 10.2067 23.634 10.8609 21.515 11.5168C22.1109 9.23461 23.2412 6.96243 24.6295 5.47261C25.1455 4.9183 25.8679 4.30073 26.7235 3.94783C27.5275 5.62575 27.7023 8.00114 27.6823 9.60748ZM23.7222 1.93699C24.4047 1.92201 24.979 2.07183 25.4701 2.39476C24.6844 2.80259 23.9253 3.38853 23.2129 4.15258C21.3668 6.13346 19.9519 9.20798 19.3876 12.1743C17.6281 12.7186 15.9069 13.253 14.3222 13.7424C15.3227 9.07315 19.2361 2.06683 23.7222 1.93699Z" fill="#95BF47"/>
<path d="M45.851 11.0657C45.633 11.0474 41.3616 10.9825 41.3616 10.9825C41.3616 10.9825 37.7894 7.51344 37.4365 7.16055C37.305 7.02904 37.1269 6.96079 36.9404 6.9325L36.9421 59.9984L52.9506 56.02C52.9506 56.02 46.4187 11.8581 46.3771 11.5551C46.3354 11.2521 46.0691 11.084 45.851 11.0657Z" fill="#5E8E3E"/>
<path d="M28.0665 19.2973L26.2072 26.2536C26.2072 26.2536 24.1331 25.3098 21.6745 25.4646C18.0689 25.6927 18.0306 27.9665 18.0673 28.5375C18.2637 31.6486 26.4485 32.3278 26.908 39.6154C27.2692 45.3483 23.8667 49.2701 18.9645 49.5797C13.0801 49.9509 9.84082 46.4802 9.84082 46.4802L11.0876 41.1768C11.0876 41.1768 14.3485 43.6371 16.9586 43.4723C18.6632 43.3641 19.2724 41.9775 19.2108 40.997C18.9545 36.9387 12.2894 37.1784 11.8683 30.51C11.5137 24.8987 15.1992 19.2124 23.3307 18.6997C26.4635 18.4983 28.0665 19.2973 28.0665 19.2973Z" fill="white"/>
<path d="M230.687 22.675C226.948 22.675 223.849 24.0032 221.635 26.4629L222.078 24.2492C222.225 23.5605 221.734 22.9702 221.045 22.9702C220.356 22.9702 219.618 23.5605 219.52 24.2492C216.984 37.4089 215.562 44.7871 213.026 57.9468C212.879 58.6355 213.371 59.2258 214.059 59.2258C214.748 59.2258 215.486 58.6355 215.584 57.9468L217.995 45.4024C218.88 47.0258 220.946 49.1903 225.571 49.1903C229.211 49.1903 232.212 48.0589 234.573 45.8944C237.033 43.6315 238.705 40.2371 239.542 35.8589C240.378 31.4806 240.034 28.1355 238.459 25.8726C236.934 23.7573 234.327 22.675 230.687 22.675ZM226.013 46.8782C220.504 46.8782 218.339 43.0903 219.717 35.9081C221.094 28.6766 224.587 24.9871 230.047 24.9871C236.049 24.9871 238.263 28.5782 236.836 35.9081C235.409 43.4347 231.966 46.8782 226.013 46.8782ZM286.718 34.5307C283.471 33.3008 280.372 32.1694 280.963 29.1194C281.258 27.5944 282.488 25.0363 287.505 25.0363C290.309 25.0363 292.08 25.8234 293.605 27.7419C293.9 28.0863 294.245 28.0863 294.343 28.0863C295.032 28.0371 295.622 27.5452 295.77 26.9057C295.819 26.6105 295.77 26.3153 295.622 26.0694V26.0202C294.048 23.8065 291.49 22.675 287.948 22.675C282.832 22.675 279.142 25.1347 278.405 29.1194C277.47 33.8911 281.7 35.4653 285.439 36.8919C288.637 38.1218 291.687 39.2532 291.146 42.1557C290.359 46.2879 286.029 46.8782 283.521 46.8782C280.077 46.8782 277.962 45.9435 276.388 43.7298C276.191 43.4839 275.945 43.3855 275.65 43.3855C274.961 43.4347 274.371 43.9266 274.223 44.5661C274.174 44.8613 274.223 45.1565 274.371 45.4024C275.404 47.321 278.503 49.2887 283.078 49.2887C288.883 49.2887 292.867 46.6323 293.704 42.2048C294.589 37.4331 290.408 35.8589 286.718 34.5307ZM278.946 15.9847H276.24L276.781 13.279C276.929 12.5903 276.437 12 275.748 12C275.059 12 274.371 12.5903 274.223 13.279L273.682 15.9847H270.976C270.288 15.9847 269.599 16.575 269.451 17.2637C269.304 17.9524 269.796 18.5427 270.484 18.5427H273.19L272.649 21.2484C272.501 21.9371 272.993 22.5274 273.682 22.5274C274.371 22.5274 275.059 21.9371 275.207 21.2484L275.748 18.5427H278.454C279.142 18.5427 279.831 17.9524 279.979 17.2637C280.126 16.7226 279.782 16.1323 279.192 15.9847C279.142 16.0339 279.044 15.9847 278.946 15.9847ZM272.993 25.4298C272.305 25.4298 271.616 26.0202 271.468 26.7089L269.009 39.4992C267.68 45.9928 263.696 46.8782 259.908 46.8782C253.168 46.8782 252.971 43.0411 253.709 39.2532L256.612 24.2492C256.759 23.5605 256.267 22.9702 255.579 22.9702C254.89 22.9702 254.201 23.5605 254.054 24.2492L251.151 39.2532C250.561 42.3032 250.758 44.5169 251.791 46.1403C253.07 48.1573 255.628 49.1903 259.465 49.1903C263.302 49.1903 266.254 48.1573 268.32 46.1403C269.943 44.5169 271.025 42.254 271.616 39.2532L274.026 26.6597C274.174 26.0202 273.682 25.4298 272.993 25.4298ZM249.725 12.0492C249.036 12.0492 248.298 12.6395 248.2 13.3282L241.608 47.6161C241.46 48.3048 241.952 48.8952 242.641 48.8952C243.33 48.8952 244.018 48.3048 244.166 47.6161L250.758 13.3282C250.905 12.6395 250.413 12.0492 249.725 12.0492Z" fill="#F1C65B"/>
</g>
<defs>
<clipPath id="clip0_1562_8649">
<rect width="295.653" height="61" fill="white"/>
</clipPath>
</defs>
</svg>
