<svg width="80" height="80" viewBox="0 0 80 80" fill="none" xmlns="http://www.w3.org/2000/svg">
<path d="M65.6005 20.512C65.6005 17.142 62.8586 14.4 59.4885 14.4C56.3345 14.4 53.7323 16.8019 53.4108 19.8719H46.0782C45.7572 16.8019 43.1546 14.4 40.0005 14.4C36.8465 14.4 34.2438 16.8019 33.9228 19.8719H26.5898C26.2688 16.8019 23.6661 14.4 20.5125 14.4C17.1425 14.4 14.4005 17.142 14.4005 20.512C14.4005 23.8821 17.1425 26.6237 20.5125 26.6237C23.6666 26.6237 26.2687 24.2223 26.5902 21.1523L33.9228 21.1518C34.2438 24.2223 36.8465 26.6237 40.0005 26.6237C43.1546 26.6237 45.7572 24.2223 46.0782 21.1523H53.4108C53.7099 24.012 55.9885 26.2907 58.8483 26.5898L58.8487 33.9223C55.989 34.2214 53.7103 36.5 53.4113 39.3598H46.0782C45.7572 36.2898 43.1546 33.8879 40.0005 33.8879C36.8465 33.8879 34.2438 36.2898 33.9228 39.3598H26.5898C26.2688 36.2898 23.6661 33.8879 20.512 33.8879C17.1424 33.8879 14.4004 36.6299 14.4004 39.9999C14.4004 43.154 16.8022 45.7566 19.8723 46.0776V53.4102C16.8022 53.7316 14.4004 56.3343 14.4004 59.4879C14.4004 62.858 17.1423 65.5999 20.5124 65.5999C23.6664 65.5999 26.2686 63.1981 26.5901 60.128H33.9227C34.2437 63.1981 36.8463 65.5999 40.0004 65.5999C43.1544 65.5999 45.7571 63.1981 46.0781 60.128H53.4107C53.7321 63.1981 56.3348 65.5999 59.4884 65.5999C62.8585 65.5999 65.6004 62.858 65.6004 59.4879C65.6004 56.1179 62.8585 53.3763 59.4884 53.3763C56.3343 53.3763 53.7322 55.7776 53.4107 58.8477L46.0781 58.8481C45.7571 55.7776 43.1544 53.3763 40.0004 53.3763C36.8463 53.3763 34.2437 55.7776 33.9227 58.8477L26.5896 58.8481C26.2905 55.9884 24.0119 53.7097 21.1522 53.4106V46.0776C24.0119 45.7785 26.2906 43.4999 26.5896 40.6401H33.9227C34.2437 43.7102 36.8463 46.112 40.0004 46.112C43.1544 46.112 45.7571 43.7102 46.0781 40.6401H53.4107C53.7317 43.7102 56.3343 46.112 59.4884 46.112C62.8585 46.112 65.6004 43.3701 65.6004 40C65.6004 36.846 63.1986 34.2433 60.1285 33.9223V26.5893C63.1986 26.2683 65.6004 23.6656 65.6004 20.512L65.6005 20.512ZM20.5125 25.3432C17.8478 25.3432 15.6804 23.1758 15.6804 20.512C15.6804 17.8473 17.8478 15.6799 20.5125 15.6799C23.1767 15.6799 25.3442 17.8473 25.3442 20.5116C25.3437 23.1758 23.1763 25.3432 20.5125 25.3432ZM40.0005 25.3432C37.3363 25.3432 35.1689 23.1758 35.1689 20.5116C35.1689 17.8473 37.3363 15.6799 40.0005 15.6799C42.6647 15.6799 44.8322 17.8473 44.8322 20.5116C44.8322 23.1758 42.6647 25.3432 40.0005 25.3432ZM54.6577 20.512C54.6577 17.8473 56.8251 15.6799 59.4889 15.6799C62.1535 15.6799 64.321 17.8473 64.321 20.512C64.321 23.1763 62.1535 25.3437 59.4893 25.3437C56.8251 25.3432 54.6577 23.1758 54.6577 20.512ZM59.4889 54.6572C62.1535 54.6572 64.321 56.8246 64.321 59.4884C64.321 62.1531 62.1535 64.3205 59.4889 64.3205C56.8246 64.3205 54.6572 62.1531 54.6572 59.4888C54.6576 56.8246 56.8251 54.6572 59.4889 54.6572ZM40.0009 54.6572C42.6651 54.6572 44.8325 56.8246 44.8325 59.4888C44.8325 62.1531 42.6651 64.3205 40.0009 64.3205C37.3366 64.3205 35.1692 62.1531 35.1692 59.4888C35.1692 56.8246 37.3366 54.6572 40.0009 54.6572ZM25.3437 59.4884C25.3437 62.1531 23.1763 64.3205 20.5125 64.3205C17.8478 64.3205 15.6804 62.1531 15.6804 59.4884C15.6804 56.8241 17.8478 54.6567 20.5121 54.6567C23.1763 54.6572 25.3437 56.8246 25.3437 59.4884ZM20.5125 44.8324C17.8478 44.8324 15.6804 42.6649 15.6804 40.0007C15.6804 37.3365 17.8478 35.1691 20.5121 35.1691C23.1763 35.1691 25.3437 37.3365 25.3437 40.0007C25.3437 42.6649 23.1763 44.8324 20.5125 44.8324ZM40.0005 44.8324C37.3363 44.8324 35.1689 42.6649 35.1689 40.0007C35.1689 37.3365 37.3363 35.1691 40.0005 35.1691C42.6647 35.1691 44.8322 37.3365 44.8322 40.0007C44.8322 42.6649 42.6647 44.8324 40.0005 44.8324ZM64.3205 40.0007C64.3205 42.6649 62.1531 44.8324 59.4889 44.8324C56.8246 44.8324 54.6572 42.6649 54.6572 40.0007C54.6572 37.3365 56.8246 35.1691 59.4889 35.1691C62.1531 35.1691 64.3205 37.3365 64.3205 40.0007Z" fill="black"/>
</svg>
