<svg width="215" height="61" viewBox="0 0 215 61" fill="none" xmlns="http://www.w3.org/2000/svg">
<g clip-path="url(#clip0_1562_8648)">
<path d="M46.3758 11.5534C46.3342 11.2504 46.0695 11.0823 45.8498 11.064C45.6318 11.0457 41.3604 10.9808 41.3604 10.9808C41.3604 10.9808 37.7881 7.51175 37.4352 7.15885C37.0824 6.80596 36.3932 6.91249 36.1252 6.99239C36.1219 6.99406 35.4544 7.20047 34.3308 7.54837C34.1427 6.93913 33.8663 6.19005 33.4718 5.43765C32.2001 3.01066 30.3374 1.72725 28.0868 1.72393C28.0835 1.72393 28.0818 1.72393 28.0785 1.72393C27.922 1.72393 27.7672 1.73891 27.6108 1.75222C27.5442 1.67232 27.4776 1.59409 27.4077 1.51751C26.4272 0.468815 25.1705 -0.0422181 23.664 0.00272612C20.7576 0.0859563 17.8629 2.18502 15.5158 5.91373C13.8645 8.53714 12.6077 11.8331 12.2515 14.3849C8.91395 15.4186 6.58017 16.141 6.52857 16.1577C4.84399 16.687 4.79073 16.7386 4.571 18.3267C4.40787 19.5268 0 53.6113 0 53.6113L36.9392 60L52.9493 56.0199C52.9493 56.0199 46.4174 11.8564 46.3758 11.5534ZM32.4814 8.12099C31.6308 8.384 30.6636 8.68363 29.6149 9.00823C29.5933 7.53672 29.4185 5.48926 28.7327 3.71978C30.9383 4.1376 32.0236 6.63284 32.4814 8.12099ZM27.6823 9.60748C25.7464 10.2067 23.634 10.8609 21.515 11.5168C22.1109 9.23461 23.2412 6.96243 24.6295 5.47261C25.1455 4.9183 25.8679 4.30073 26.7235 3.94783C27.5275 5.62575 27.7023 8.00114 27.6823 9.60748ZM23.7222 1.93699C24.4047 1.92201 24.979 2.07183 25.4701 2.39476C24.6844 2.80259 23.9253 3.38853 23.2129 4.15258C21.3668 6.13346 19.9519 9.20798 19.3876 12.1743C17.6281 12.7186 15.9069 13.253 14.3222 13.7424C15.3227 9.07315 19.2361 2.06683 23.7222 1.93699Z" fill="#95BF47"/>
<path d="M45.851 11.0657C45.633 11.0474 41.3616 10.9825 41.3616 10.9825C41.3616 10.9825 37.7894 7.51344 37.4365 7.16055C37.305 7.02904 37.1269 6.96079 36.9404 6.9325L36.9421 59.9984L52.9506 56.02C52.9506 56.02 46.4187 11.8581 46.3771 11.5551C46.3354 11.2521 46.0691 11.084 45.851 11.0657Z" fill="#5E8E3E"/>
<path d="M28.0665 19.2973L26.2072 26.2536C26.2072 26.2536 24.1331 25.3098 21.6745 25.4646C18.0689 25.6927 18.0306 27.9665 18.0673 28.5375C18.2637 31.6486 26.4485 32.3278 26.908 39.6154C27.2692 45.3483 23.8667 49.2701 18.9645 49.5797C13.0801 49.9509 9.84082 46.4802 9.84082 46.4802L11.0876 41.1768C11.0876 41.1768 14.3485 43.6371 16.9586 43.4723C18.6632 43.3641 19.2724 41.9775 19.2108 40.997C18.9545 36.9387 12.2894 37.1784 11.8683 30.51C11.5137 24.8987 15.1992 19.2124 23.3307 18.6997C26.4635 18.4983 28.0665 19.2973 28.0665 19.2973Z" fill="white"/>
<path d="M74.0322 33.8637C72.1913 32.8648 71.2452 32.0228 71.2452 30.8654C71.2452 29.3927 72.5594 28.4466 74.6117 28.4466C77.0007 28.4466 79.1338 29.4455 79.1338 29.4455L80.8162 24.291C80.8162 24.291 79.2692 23.0808 74.7157 23.0808C68.379 23.0808 63.9873 26.7097 63.9873 31.8114C63.9873 34.704 66.0379 36.9131 68.7736 38.4898C70.9827 39.7512 71.7719 40.6461 71.7719 41.9603C71.7719 43.3274 70.6674 44.4319 68.6168 44.4319C65.5607 44.4319 62.6747 42.8535 62.6747 42.8535L60.8867 48.008C60.8867 48.008 63.5531 49.7961 68.0389 49.7961C74.5605 49.7961 79.2412 46.5881 79.2412 40.8029C79.2395 37.7023 76.8736 35.4932 74.0322 33.8637Z" fill="white"/>
<path d="M100.013 23.0296C96.8045 23.0296 94.2801 24.5552 92.3352 26.8683L92.2295 26.8154L95.0164 12.2484H87.7585L80.7119 49.3239H87.9698L90.3886 36.6506C91.3346 31.8643 93.8062 28.9205 96.121 28.9205C97.7505 28.9205 98.3829 30.025 98.3829 31.6034C98.3829 32.6023 98.2772 33.8125 98.0675 34.8114L95.3334 49.3256H102.592L105.431 34.3375C105.747 32.7591 105.958 30.8671 105.958 29.604C105.955 25.5012 103.799 23.0296 100.013 23.0296Z" fill="white"/>
<path d="M122.363 23.0297C113.632 23.0297 107.849 30.9184 107.849 39.7002C107.849 45.3269 111.319 49.8491 117.841 49.8491C126.413 49.8491 132.198 42.1718 132.198 33.1786C132.198 27.9729 129.147 23.0297 122.363 23.0297ZM118.787 44.2768C116.315 44.2768 115.263 42.1734 115.263 39.5433C115.263 35.3893 117.42 28.6053 121.364 28.6053C123.941 28.6053 124.781 30.8143 124.781 32.9706C124.781 37.4399 122.627 44.2768 118.787 44.2768Z" fill="white"/>
<path d="M150.762 23.0297C145.863 23.0297 143.083 27.3422 143.083 27.3422H142.979L143.4 23.4507H136.984C136.669 26.0808 136.089 30.0763 135.512 33.0746L130.463 59.6314H137.721L139.718 48.903H139.877C139.877 48.903 141.366 49.8491 144.137 49.8491C152.656 49.8491 158.23 41.1201 158.23 32.2838C158.23 27.3951 156.073 23.0297 150.762 23.0297ZM143.82 44.3808C141.936 44.3808 140.821 43.3291 140.821 43.3291L142.031 36.5451C142.873 32.0229 145.239 29.0246 147.764 29.0246C149.973 29.0246 150.656 31.0752 150.656 33.0218C150.656 37.7024 147.869 44.3808 143.82 44.3808Z" fill="white"/>
<path d="M168.59 12.6166C166.277 12.6166 164.436 14.4575 164.436 16.8234C164.436 18.9797 165.803 20.4524 167.854 20.4524H167.959C170.221 20.4524 172.166 18.9268 172.219 16.2456C172.219 14.1421 170.799 12.6166 168.59 12.6166Z" fill="white"/>
<path d="M158.441 49.3239H165.697L170.642 23.6091H163.331L158.441 49.3239Z" fill="white"/>
<path d="M189.101 23.5564H184.052L184.314 22.3462C184.735 19.8746 186.208 17.6654 188.627 17.6654C189.918 17.6654 190.94 18.0337 190.94 18.0337L192.36 12.3541C192.36 12.3541 191.098 11.7234 188.415 11.7234C185.838 11.7234 183.263 12.4598 181.316 14.1422C178.844 16.2457 177.687 19.2951 177.109 22.3462L176.9 23.5564H173.533L172.481 29.0263H175.848L172.009 49.3257H179.267L183.106 29.0263H188.102L189.101 23.5564Z" fill="white"/>
<path d="M206.56 23.6092C206.56 23.6092 202.023 35.0392 199.986 41.2785H199.88C199.742 39.2692 198.092 23.6092 198.092 23.6092H190.466L194.833 47.2205C194.939 47.7456 194.886 48.0626 194.675 48.4307C193.832 50.0603 192.413 51.6387 190.73 52.7961C189.363 53.7949 187.838 54.4256 186.629 54.8466L188.627 61C190.1 60.6847 193.149 59.4745 195.726 57.0557C199.04 53.9534 202.089 49.1671 205.244 42.6455L214.132 23.6075H206.56V23.6092Z" fill="white"/>
</g>
<defs>
<clipPath id="clip0_1562_8648">
<rect width="215" height="61" fill="white"/>
</clipPath>
</defs>
</svg>
