<svg width="2091" height="2102" viewBox="0 0 2091 2102" fill="none" xmlns="http://www.w3.org/2000/svg">
<path d="M1013.99 489.318C1024.61 499.933 1027.56 517.353 1023.62 539.936C1019.69 562.502 1008.9 590.101 992.215 620.916C958.846 682.541 901.952 756.921 829.436 829.436C756.921 901.952 682.541 958.846 620.916 992.215C590.101 1008.9 562.502 1019.69 539.936 1023.62C517.353 1027.56 499.933 1024.61 489.318 1013.99C478.703 1003.38 475.752 985.956 479.687 963.373C483.619 940.807 494.408 913.208 511.094 882.393C544.463 820.769 601.357 746.388 673.873 673.873C746.388 601.357 820.769 544.463 882.393 511.094C913.208 494.408 940.807 483.619 963.373 479.687C985.956 475.752 1003.38 478.703 1013.99 489.318Z" stroke="#343538"/>
<path d="M797.616 272.943C808.232 283.559 811.182 300.979 807.247 323.561C803.316 346.127 792.526 373.727 775.84 404.542C742.471 466.166 685.577 540.546 613.061 613.062C540.546 685.577 466.166 742.471 404.541 775.84C373.726 792.527 346.127 803.316 323.561 807.248C300.978 811.183 283.558 808.232 272.943 797.617C262.328 787.001 259.377 769.581 263.312 746.999C267.244 724.433 278.033 696.833 294.719 666.018C328.088 604.394 384.982 530.014 457.498 457.498C530.013 384.983 604.394 328.089 666.018 294.72C696.833 278.034 724.432 267.244 746.998 263.312C769.581 259.377 787.001 262.328 797.616 272.943Z" stroke="#343538"/>
<path d="M992.425 467.751C1002.99 478.317 1005.9 495.689 1001.92 518.23C997.945 540.754 987.117 568.316 970.399 599.099C936.966 660.659 880.032 735 807.516 807.516C735.001 880.032 660.66 936.965 599.099 970.398C568.316 987.116 540.755 997.944 518.231 1001.92C495.69 1005.9 478.317 1002.99 467.752 992.424C457.186 981.858 454.281 964.486 458.258 941.945C462.232 919.421 473.059 891.859 489.778 861.076C523.211 799.516 580.144 725.175 652.66 652.659C725.176 580.144 799.516 523.21 861.077 489.777C891.86 473.059 919.422 462.231 941.945 458.257C964.486 454.28 981.859 457.185 992.425 467.751Z" stroke="#343538"/>
<path d="M776.05 251.376C786.616 261.942 789.521 279.315 785.544 301.856C781.57 324.38 770.742 351.941 754.024 382.724C720.591 444.285 663.657 518.626 591.141 591.141C518.626 663.657 444.285 720.591 382.724 754.024C351.941 770.742 324.38 781.57 301.856 785.544C279.315 789.521 261.942 786.616 251.377 776.05C240.811 765.484 237.906 748.111 241.883 725.57C245.857 703.046 256.684 675.485 273.403 644.702C306.836 583.141 363.769 508.801 436.285 436.285C508.801 363.769 583.141 306.836 644.702 273.402C675.485 256.684 703.047 245.857 725.57 241.883C748.111 237.906 765.484 240.811 776.05 251.376Z" stroke="#343538"/>
<path d="M971.211 446.538C981.777 457.104 984.682 474.476 980.705 497.017C976.731 519.541 965.903 547.103 949.185 577.886C915.752 639.447 858.818 713.787 786.302 786.303C713.787 858.819 639.446 915.752 577.886 949.185C547.102 965.904 519.541 976.731 497.017 980.705C474.476 984.682 457.104 981.777 446.538 971.211C435.972 960.646 433.067 943.273 437.044 920.732C441.018 898.208 451.845 870.647 468.564 839.863C501.997 778.303 558.93 703.962 631.446 631.447C703.962 558.931 778.303 501.997 839.863 468.564C870.646 451.846 898.208 441.018 920.732 437.044C943.273 433.067 960.645 435.972 971.211 446.538Z" stroke="#343538"/>
<path d="M754.837 230.163C765.403 240.729 768.308 258.101 764.331 280.642C760.357 303.166 749.529 330.728 732.811 361.511C699.378 423.072 642.444 497.412 569.928 569.928C497.413 642.444 423.072 699.377 361.512 732.81C330.728 749.529 303.167 760.356 280.643 764.33C258.102 768.307 240.729 765.402 230.164 754.836C219.598 744.271 216.693 726.898 220.67 704.357C224.644 681.833 235.471 654.272 252.19 623.488C285.623 561.928 342.556 487.587 415.072 415.072C487.588 342.556 561.928 285.622 623.489 252.189C654.272 235.471 681.834 224.643 704.358 220.669C726.899 216.692 744.271 219.597 754.837 230.163Z" stroke="#343538"/>
<path d="M949.998 425.325C960.564 435.891 963.469 453.263 959.492 475.804C955.518 498.328 944.69 525.89 927.972 556.673C894.539 618.233 837.605 692.574 765.09 765.09C692.574 837.605 618.233 894.539 556.673 927.972C525.89 944.69 498.328 955.518 475.804 959.492C453.263 963.469 435.891 960.564 425.325 949.998C414.759 939.432 411.854 922.06 415.831 899.519C419.805 876.995 430.633 849.433 447.351 818.65C480.784 757.09 537.717 682.749 610.233 610.233C682.749 537.717 757.09 480.784 818.65 447.351C849.433 430.633 876.995 419.805 899.519 415.831C922.06 411.854 939.432 414.759 949.998 425.325Z" stroke="#343538"/>
<path d="M733.623 208.95C744.189 219.516 747.094 236.889 743.117 259.43C739.143 281.953 728.315 309.515 711.597 340.298C678.164 401.859 621.23 476.199 548.715 548.715C476.199 621.231 401.858 678.164 340.298 711.598C309.515 728.316 281.953 739.143 259.429 743.117C236.888 747.094 219.516 744.189 208.95 733.624C198.384 723.058 195.479 705.685 199.456 683.144C203.43 660.62 214.258 633.059 230.976 602.276C264.409 540.715 321.342 466.374 393.858 393.859C466.374 321.343 540.715 264.409 602.275 230.976C633.058 214.258 660.62 203.43 683.144 199.456C705.685 195.479 723.057 198.384 733.623 208.95Z" stroke="#343538"/>
<path d="M928.785 404.111C939.351 414.677 942.256 432.05 938.279 454.591C934.305 477.115 923.477 504.676 906.759 535.459C873.326 597.02 816.392 671.36 743.877 743.876C671.361 816.392 597.02 873.326 535.46 906.759C504.677 923.477 477.115 934.304 454.591 938.278C432.05 942.255 414.678 939.351 404.112 928.785C393.546 918.219 390.641 900.846 394.618 878.305C398.592 855.781 409.42 828.22 426.138 797.437C459.571 735.876 516.505 661.536 589.02 589.02C661.536 516.504 735.877 459.571 797.437 426.137C828.22 409.419 855.782 398.592 878.306 394.618C900.847 390.641 918.219 393.546 928.785 404.111Z" stroke="#343538"/>
<path d="M712.41 187.737C722.976 198.303 725.881 215.675 721.904 238.216C717.93 260.74 707.102 288.302 690.384 319.085C656.951 380.645 600.017 454.986 527.502 527.502C454.986 600.017 380.645 656.951 319.085 690.384C288.302 707.102 260.74 717.93 238.216 721.904C215.675 725.881 198.303 722.976 187.737 712.41C177.171 701.844 174.266 684.472 178.243 661.931C182.217 639.407 193.045 611.845 209.763 581.062C243.196 519.502 300.13 445.161 372.645 372.645C445.161 300.13 519.502 243.196 581.062 209.763C611.845 193.045 639.407 182.217 661.931 178.243C684.472 174.266 701.844 177.171 712.41 187.737Z" stroke="#343538"/>
<path d="M907.218 382.545C917.833 393.16 920.784 410.58 916.849 433.163C912.917 455.729 902.128 483.329 885.441 514.144C852.072 575.768 795.178 650.148 722.663 722.663C650.147 795.179 575.767 852.073 514.143 885.442C483.328 902.128 455.729 912.918 433.162 916.85C410.58 920.784 393.16 917.834 382.545 907.218C371.929 896.603 368.979 879.183 372.913 856.6C376.845 834.034 387.635 806.435 404.321 775.62C437.69 713.996 494.584 639.616 567.099 567.1C639.615 494.584 713.995 437.69 775.619 404.321C806.434 387.635 834.034 376.846 856.6 372.914C879.182 368.979 896.602 371.93 907.218 382.545Z" stroke="#343538"/>
<path d="M690.844 166.17C701.459 176.785 704.41 194.205 700.475 216.788C696.543 239.354 685.754 266.954 669.067 297.769C635.698 359.393 578.804 433.773 506.289 506.288C433.773 578.804 359.393 635.698 297.769 669.067C266.954 685.753 239.354 696.543 216.788 700.475C194.206 704.409 176.786 701.459 166.17 690.843C155.555 680.228 152.605 662.808 156.539 640.225C160.471 617.659 171.261 590.06 187.947 559.245C221.316 497.621 278.21 423.241 350.725 350.725C423.241 278.209 497.621 221.315 559.245 187.946C590.06 171.26 617.66 160.471 640.226 156.539C662.808 152.604 680.228 155.555 690.844 166.17Z" stroke="#343538"/>
<path d="M885.298 360.625C895.913 371.24 898.864 388.66 894.929 411.242C890.997 433.809 880.208 461.408 863.522 492.223C830.152 553.847 773.259 628.227 700.743 700.743C628.227 773.258 553.847 830.152 492.223 863.521C461.408 880.208 433.809 890.997 411.242 894.929C388.66 898.864 371.24 895.913 360.625 885.298C350.009 874.682 347.059 857.262 350.993 834.68C354.925 812.114 365.715 784.514 382.401 753.699C415.77 692.075 472.664 617.695 545.179 545.179C617.695 472.664 692.075 415.77 753.699 382.401C784.514 365.715 812.114 354.925 834.68 350.993C857.263 347.059 874.682 350.009 885.298 360.625Z" stroke="#343538"/>
<path d="M668.923 144.25C679.538 154.865 682.489 172.285 678.554 194.868C674.622 217.434 663.833 245.033 647.147 275.848C613.777 337.472 556.884 411.852 484.368 484.368C411.852 556.884 337.472 613.777 275.848 647.147C245.033 663.833 217.434 674.622 194.867 678.554C172.285 682.489 154.865 679.538 144.25 668.923C133.634 658.307 130.684 640.888 134.618 618.305C138.55 595.739 149.34 568.139 166.026 537.324C199.395 475.7 256.289 401.32 328.804 328.805C401.32 256.289 475.7 199.395 537.324 166.026C568.139 149.34 595.739 138.55 618.305 134.618C640.888 130.684 658.307 133.634 668.923 144.25Z" stroke="#343538"/>
<path d="M863.377 338.704C873.992 349.32 876.943 366.739 873.008 389.322C869.076 411.888 858.287 439.488 841.601 470.303C808.232 531.927 751.338 606.307 678.822 678.823C606.306 751.338 531.926 808.232 470.302 841.601C439.487 858.287 411.888 869.077 389.322 873.009C366.739 876.943 349.319 873.993 338.704 863.377C328.088 852.762 325.138 835.342 329.072 812.76C333.004 790.193 343.794 762.594 360.48 731.779C393.849 670.155 450.743 595.775 523.259 523.259C595.774 450.743 670.154 393.85 731.778 360.481C762.593 343.794 790.193 333.005 812.759 329.073C835.342 325.138 852.761 328.089 863.377 338.704Z" stroke="#343538"/>
<path d="M647.003 122.33C657.618 132.945 660.569 150.365 656.634 172.948C652.702 195.514 641.913 223.113 625.227 253.928C591.858 315.552 534.964 389.932 462.448 462.448C389.932 534.964 315.552 591.858 253.928 625.227C223.113 641.913 195.514 652.702 172.948 656.634C150.365 660.569 132.945 657.618 122.33 647.003C111.714 636.388 108.764 618.968 112.698 596.385C116.63 573.819 127.42 546.219 144.106 515.404C177.475 453.78 234.369 379.4 306.885 306.885C379.4 234.369 453.78 177.475 515.404 144.106C546.219 127.42 573.819 116.63 596.385 112.698C618.968 108.764 636.387 111.714 647.003 122.33Z" stroke="#343538"/>
<path d="M841.457 316.784C852.072 327.399 855.023 344.819 851.088 367.402C847.156 389.968 836.367 417.567 819.681 448.382C786.312 510.006 729.418 584.387 656.902 656.902C584.387 729.418 510.006 786.312 448.382 819.681C417.567 836.367 389.968 847.157 367.402 851.088C344.819 855.023 327.399 852.073 316.784 841.457C306.168 830.842 303.218 813.422 307.153 790.839C311.084 768.273 321.874 740.674 338.56 709.859C371.929 648.234 428.823 573.854 501.339 501.339C573.854 428.823 648.234 371.929 709.858 338.56C740.673 321.874 768.273 311.084 790.839 307.153C813.422 303.218 830.842 306.168 841.457 316.784Z" stroke="#343538"/>
<path d="M625.082 100.409C635.697 111.025 638.648 128.445 634.713 151.027C630.781 173.593 619.992 201.193 603.306 232.008C569.937 293.632 513.043 368.012 440.527 440.528C368.012 513.043 293.631 569.937 232.007 603.306C201.192 619.992 173.593 630.782 151.027 634.714C128.444 638.649 111.024 635.698 100.409 625.083C89.7933 614.467 86.8428 597.047 90.7775 574.465C94.7094 551.899 105.499 524.299 122.185 493.484C155.554 431.86 212.448 357.48 284.964 284.964C357.479 212.449 431.859 155.555 493.483 122.186C524.298 105.499 551.898 94.7099 574.464 90.778C597.047 86.8433 614.467 89.7939 625.082 100.409Z" stroke="#343538"/>
<path d="M819.537 294.863C830.153 305.479 833.103 322.899 829.168 345.481C825.236 368.047 814.447 395.647 797.761 426.462C764.392 488.086 707.498 562.466 634.982 634.982C562.467 707.497 488.086 764.391 426.462 797.76C395.647 814.446 368.048 825.236 345.482 829.168C322.899 833.103 305.479 830.152 294.864 819.537C284.248 808.921 281.298 791.501 285.233 768.919C289.164 746.353 299.954 718.753 316.64 687.938C350.009 626.314 406.903 551.934 479.419 479.418C551.934 406.903 626.314 350.009 687.939 316.64C718.754 299.954 746.353 289.164 768.919 285.232C791.502 281.297 808.922 284.248 819.537 294.863Z" stroke="#343538"/>
<path d="M603.162 78.4889C613.778 89.1043 616.728 106.524 612.793 129.107C608.861 151.673 598.072 179.272 581.386 210.087C548.017 271.712 491.123 346.092 418.607 418.607C346.092 491.123 271.711 548.017 210.087 581.386C179.272 598.072 151.673 608.862 129.107 612.793C106.524 616.728 89.1043 613.778 78.4889 603.162C67.8734 592.547 64.9229 575.127 68.8576 552.544C72.7894 529.978 83.579 502.379 100.265 471.564C133.634 409.939 190.528 335.559 263.044 263.044C335.559 190.528 409.939 133.634 471.564 100.265C502.379 83.5791 529.978 72.7895 552.544 68.8576C575.127 64.9229 592.547 67.8735 603.162 78.4889Z" stroke="#343538"/>
<path d="M2011.99 1498.32C2022.61 1508.93 2025.56 1526.35 2021.62 1548.94C2017.69 1571.5 2006.9 1599.1 1990.21 1629.92C1956.84 1691.54 1899.95 1765.92 1827.44 1838.44C1754.92 1910.95 1680.54 1967.85 1618.92 2001.22C1588.1 2017.9 1560.5 2028.69 1537.93 2032.62C1515.35 2036.56 1497.93 2033.61 1487.32 2022.99C1476.7 2012.38 1473.75 1994.96 1477.69 1972.37C1481.62 1949.81 1492.41 1922.21 1509.09 1891.39C1542.46 1829.77 1599.36 1755.39 1671.87 1682.87C1744.39 1610.36 1818.77 1553.46 1880.39 1520.09C1911.21 1503.41 1938.81 1492.62 1961.37 1488.69C1983.95 1484.75 2001.37 1487.7 2011.99 1498.32Z" stroke="#343538"/>
<path d="M1795.62 1281.94C1806.23 1292.56 1809.18 1309.98 1805.25 1332.56C1801.31 1355.13 1790.53 1382.73 1773.84 1413.54C1740.47 1475.17 1683.58 1549.55 1611.06 1622.06C1538.54 1694.58 1464.16 1751.47 1402.54 1784.84C1371.73 1801.53 1344.13 1812.32 1321.56 1816.25C1298.98 1820.18 1281.56 1817.23 1270.94 1806.62C1260.33 1796 1257.38 1778.58 1261.31 1756C1265.24 1733.43 1276.03 1705.83 1292.72 1675.02C1326.09 1613.39 1382.98 1539.01 1455.5 1466.5C1528.01 1393.98 1602.39 1337.09 1664.02 1303.72C1694.83 1287.03 1722.43 1276.24 1745 1272.31C1767.58 1268.38 1785 1271.33 1795.62 1281.94Z" stroke="#343538"/>
<path d="M1990.42 1476.75C2000.99 1487.32 2003.89 1504.69 1999.92 1527.23C1995.94 1549.75 1985.12 1577.32 1968.4 1608.1C1934.96 1669.66 1878.03 1744 1805.52 1816.52C1733 1889.03 1658.66 1945.97 1597.1 1979.4C1566.32 1996.12 1538.75 2006.94 1516.23 2010.92C1493.69 2014.9 1476.32 2011.99 1465.75 2001.42C1455.18 1990.86 1452.28 1973.49 1456.26 1950.95C1460.23 1928.42 1471.06 1900.86 1487.78 1870.08C1521.21 1808.52 1578.14 1734.18 1650.66 1661.66C1723.17 1589.14 1797.52 1532.21 1859.08 1498.78C1889.86 1482.06 1917.42 1471.23 1939.94 1467.26C1962.49 1463.28 1979.86 1466.19 1990.42 1476.75Z" stroke="#343538"/>
<path d="M1774.05 1260.38C1784.61 1270.94 1787.52 1288.32 1783.54 1310.86C1779.57 1333.38 1768.74 1360.94 1752.02 1391.73C1718.59 1453.29 1661.66 1527.63 1589.14 1600.14C1516.62 1672.66 1442.28 1729.59 1380.72 1763.02C1349.94 1779.74 1322.38 1790.57 1299.85 1794.54C1277.31 1798.52 1259.94 1795.62 1249.38 1785.05C1238.81 1774.48 1235.9 1757.11 1239.88 1734.57C1243.86 1712.05 1254.68 1684.49 1271.4 1653.7C1304.83 1592.14 1361.77 1517.8 1434.28 1445.29C1506.8 1372.77 1581.14 1315.84 1642.7 1282.4C1673.48 1265.68 1701.05 1254.86 1723.57 1250.88C1746.11 1246.91 1763.48 1249.81 1774.05 1260.38Z" stroke="#343538"/>
<path d="M1969.21 1455.54C1979.78 1466.1 1982.68 1483.48 1978.7 1506.02C1974.73 1528.54 1963.9 1556.1 1947.18 1586.89C1913.75 1648.45 1856.82 1722.79 1784.3 1795.3C1711.79 1867.82 1637.45 1924.75 1575.89 1958.19C1545.1 1974.9 1517.54 1985.73 1495.02 1989.71C1472.48 1993.68 1455.1 1990.78 1444.54 1980.21C1433.97 1969.65 1431.07 1952.27 1435.04 1929.73C1439.02 1907.21 1449.85 1879.65 1466.56 1848.86C1500 1787.3 1556.93 1712.96 1629.45 1640.45C1701.96 1567.93 1776.3 1511 1837.86 1477.56C1868.65 1460.85 1896.21 1450.02 1918.73 1446.04C1941.27 1442.07 1958.64 1444.97 1969.21 1455.54Z" stroke="#343538"/>
<path d="M1752.84 1239.16C1763.4 1249.73 1766.31 1267.1 1762.33 1289.64C1758.36 1312.17 1747.53 1339.73 1730.81 1370.51C1697.38 1432.07 1640.44 1506.41 1567.93 1578.93C1495.41 1651.44 1421.07 1708.38 1359.51 1741.81C1328.73 1758.53 1301.17 1769.36 1278.64 1773.33C1256.1 1777.31 1238.73 1774.4 1228.16 1763.84C1217.6 1753.27 1214.69 1735.9 1218.67 1713.36C1222.64 1690.83 1233.47 1663.27 1250.19 1632.49C1283.62 1570.93 1340.56 1496.59 1413.07 1424.07C1485.59 1351.56 1559.93 1294.62 1621.49 1261.19C1652.27 1244.47 1679.83 1233.64 1702.36 1229.67C1724.9 1225.69 1742.27 1228.6 1752.84 1239.16Z" stroke="#343538"/>
<path d="M1948 1434.33C1958.56 1444.89 1961.47 1462.26 1957.49 1484.8C1953.52 1507.33 1942.69 1534.89 1925.97 1565.67C1892.54 1627.23 1835.61 1701.57 1763.09 1774.09C1690.57 1846.61 1616.23 1903.54 1554.67 1936.97C1523.89 1953.69 1496.33 1964.52 1473.8 1968.49C1451.26 1972.47 1433.89 1969.56 1423.32 1959C1412.76 1948.43 1409.85 1931.06 1413.83 1908.52C1417.8 1886 1428.63 1858.43 1445.35 1827.65C1478.78 1766.09 1535.72 1691.75 1608.23 1619.23C1680.75 1546.72 1755.09 1489.78 1816.65 1456.35C1847.43 1439.63 1874.99 1428.81 1897.52 1424.83C1920.06 1420.85 1937.43 1423.76 1948 1434.33Z" stroke="#343538"/>
<path d="M1731.62 1217.95C1742.19 1228.52 1745.09 1245.89 1741.12 1268.43C1737.14 1290.95 1726.32 1318.52 1709.6 1349.3C1676.16 1410.86 1619.23 1485.2 1546.71 1557.72C1474.2 1630.23 1399.86 1687.16 1338.3 1720.6C1307.51 1737.32 1279.95 1748.14 1257.43 1752.12C1234.89 1756.09 1217.52 1753.19 1206.95 1742.62C1196.38 1732.06 1193.48 1714.69 1197.46 1692.14C1201.43 1669.62 1212.26 1642.06 1228.98 1611.28C1262.41 1549.72 1319.34 1475.37 1391.86 1402.86C1464.37 1330.34 1538.71 1273.41 1600.27 1239.98C1631.06 1223.26 1658.62 1212.43 1681.14 1208.46C1703.68 1204.48 1721.06 1207.38 1731.62 1217.95Z" stroke="#343538"/>
<path d="M1926.79 1413.11C1937.35 1423.68 1940.26 1441.05 1936.28 1463.59C1932.3 1486.12 1921.48 1513.68 1904.76 1544.46C1871.33 1606.02 1814.39 1680.36 1741.88 1752.88C1669.36 1825.39 1595.02 1882.33 1533.46 1915.76C1502.68 1932.48 1475.12 1943.3 1452.59 1947.28C1430.05 1951.26 1412.68 1948.35 1402.11 1937.79C1391.55 1927.22 1388.64 1909.85 1392.62 1887.31C1396.59 1864.78 1407.42 1837.22 1424.14 1806.44C1457.57 1744.88 1514.5 1670.54 1587.02 1598.02C1659.54 1525.5 1733.88 1468.57 1795.44 1435.14C1826.22 1418.42 1853.78 1407.59 1876.31 1403.62C1898.85 1399.64 1916.22 1402.55 1926.79 1413.11Z" stroke="#343538"/>
<path d="M1710.41 1196.74C1720.98 1207.3 1723.88 1224.68 1719.9 1247.22C1715.93 1269.74 1705.1 1297.3 1688.38 1328.09C1654.95 1389.65 1598.02 1463.99 1525.5 1536.5C1452.99 1609.02 1378.65 1665.95 1317.08 1699.38C1286.3 1716.1 1258.74 1726.93 1236.22 1730.9C1213.68 1734.88 1196.3 1731.98 1185.74 1721.41C1175.17 1710.84 1172.27 1693.47 1176.24 1670.93C1180.22 1648.41 1191.04 1620.85 1207.76 1590.06C1241.2 1528.5 1298.13 1454.16 1370.65 1381.65C1443.16 1309.13 1517.5 1252.2 1579.06 1218.76C1609.85 1202.05 1637.41 1191.22 1659.93 1187.24C1682.47 1183.27 1699.84 1186.17 1710.41 1196.74Z" stroke="#343538"/>
<path d="M1905.22 1391.55C1915.83 1402.16 1918.78 1419.58 1914.85 1442.16C1910.92 1464.73 1900.13 1492.33 1883.44 1523.14C1850.07 1584.77 1793.18 1659.15 1720.66 1731.66C1648.15 1804.18 1573.77 1861.07 1512.14 1894.44C1481.33 1911.13 1453.73 1921.92 1431.16 1925.85C1408.58 1929.78 1391.16 1926.83 1380.55 1916.22C1369.93 1905.6 1366.98 1888.18 1370.91 1865.6C1374.85 1843.03 1385.64 1815.44 1402.32 1784.62C1435.69 1723 1492.58 1648.62 1565.1 1576.1C1637.62 1503.58 1712 1446.69 1773.62 1413.32C1804.44 1396.64 1832.03 1385.85 1854.6 1381.91C1877.18 1377.98 1894.6 1380.93 1905.22 1391.55Z" stroke="#343538"/>
<path d="M1688.84 1175.17C1699.46 1185.79 1702.41 1203.21 1698.47 1225.79C1694.54 1248.35 1683.75 1275.95 1667.07 1306.77C1633.7 1368.39 1576.8 1442.77 1504.29 1515.29C1431.77 1587.8 1357.39 1644.7 1295.77 1678.07C1264.95 1694.75 1237.35 1705.54 1214.79 1709.48C1192.21 1713.41 1174.79 1710.46 1164.17 1699.84C1153.56 1689.23 1150.6 1671.81 1154.54 1649.23C1158.47 1626.66 1169.26 1599.06 1185.95 1568.25C1219.32 1506.62 1276.21 1432.24 1348.73 1359.73C1421.24 1287.21 1495.62 1230.32 1557.25 1196.95C1588.06 1180.26 1615.66 1169.47 1638.23 1165.54C1660.81 1161.6 1678.23 1164.56 1688.84 1175.17Z" stroke="#343538"/>
<path d="M1883.3 1369.63C1893.91 1380.24 1896.86 1397.66 1892.93 1420.24C1889 1442.81 1878.21 1470.41 1861.52 1501.22C1828.15 1562.85 1771.26 1637.23 1698.74 1709.74C1626.23 1782.26 1551.85 1839.15 1490.22 1872.52C1459.41 1889.21 1431.81 1900 1409.24 1903.93C1386.66 1907.86 1369.24 1904.91 1358.62 1894.3C1348.01 1883.68 1345.06 1866.26 1348.99 1843.68C1352.92 1821.11 1363.71 1793.51 1380.4 1762.7C1413.77 1701.08 1470.66 1626.7 1543.18 1554.18C1615.69 1481.66 1690.07 1424.77 1751.7 1391.4C1782.51 1374.72 1810.11 1363.93 1832.68 1359.99C1855.26 1356.06 1872.68 1359.01 1883.3 1369.63Z" stroke="#343538"/>
<path d="M1666.92 1153.25C1677.54 1163.87 1680.49 1181.29 1676.55 1203.87C1672.62 1226.43 1661.83 1254.03 1645.15 1284.85C1611.78 1346.47 1554.88 1420.85 1482.37 1493.37C1409.85 1565.88 1335.47 1622.78 1273.85 1656.15C1243.03 1672.83 1215.43 1683.62 1192.87 1687.55C1170.28 1691.49 1152.86 1688.54 1142.25 1677.92C1131.63 1667.31 1128.68 1649.89 1132.62 1627.31C1136.55 1604.74 1147.34 1577.14 1164.02 1546.32C1197.39 1484.7 1254.29 1410.32 1326.8 1337.8C1399.32 1265.29 1473.7 1208.4 1535.32 1175.03C1566.14 1158.34 1593.74 1147.55 1616.3 1143.62C1638.89 1139.68 1656.31 1142.63 1666.92 1153.25Z" stroke="#343538"/>
<path d="M1861.38 1347.7C1871.99 1358.32 1874.94 1375.74 1871.01 1398.32C1867.08 1420.89 1856.29 1448.49 1839.6 1479.3C1806.23 1540.93 1749.34 1615.31 1676.82 1687.82C1604.31 1760.34 1529.93 1817.23 1468.3 1850.6C1437.49 1867.29 1409.89 1878.08 1387.32 1882.01C1364.74 1885.94 1347.32 1882.99 1336.7 1872.38C1326.09 1861.76 1323.14 1844.34 1327.07 1821.76C1331 1799.19 1341.79 1771.59 1358.48 1740.78C1391.85 1679.16 1448.74 1604.78 1521.26 1532.26C1593.77 1459.74 1668.15 1402.85 1729.78 1369.48C1760.59 1352.79 1788.19 1342.01 1810.76 1338.07C1833.34 1334.14 1850.76 1337.09 1861.38 1347.7Z" stroke="#343538"/>
<path d="M1645 1131.33C1655.62 1141.95 1658.57 1159.37 1654.63 1181.95C1650.7 1204.51 1639.91 1232.11 1623.23 1262.93C1589.86 1324.55 1532.96 1398.93 1460.45 1471.45C1387.93 1543.96 1313.55 1600.86 1251.93 1634.23C1221.11 1650.91 1193.51 1661.7 1170.95 1665.63C1148.36 1669.57 1130.94 1666.62 1120.33 1656C1109.71 1645.39 1106.76 1627.97 1110.7 1605.39C1114.63 1582.82 1125.42 1555.22 1142.1 1524.4C1175.47 1462.78 1232.37 1388.4 1304.88 1315.89C1377.4 1243.37 1451.78 1186.48 1513.4 1153.11C1544.22 1136.42 1571.82 1125.63 1594.38 1121.7C1616.97 1117.76 1634.39 1120.71 1645 1131.33Z" stroke="#343538"/>
<path d="M1839.46 1325.78C1850.07 1336.4 1853.02 1353.82 1849.09 1376.4C1845.16 1398.97 1834.37 1426.57 1817.68 1457.38C1784.31 1519.01 1727.42 1593.39 1654.9 1665.9C1582.39 1738.42 1508.01 1795.31 1446.38 1828.68C1415.57 1845.37 1387.97 1856.16 1365.4 1860.09C1342.82 1864.02 1325.4 1861.07 1314.78 1850.46C1304.17 1839.84 1301.22 1822.42 1305.15 1799.84C1309.08 1777.27 1319.87 1749.67 1336.56 1718.86C1369.93 1657.23 1426.82 1582.85 1499.34 1510.34C1571.85 1437.82 1646.23 1380.93 1707.86 1347.56C1738.67 1330.87 1766.27 1320.08 1788.84 1316.15C1811.42 1312.22 1828.84 1315.17 1839.46 1325.78Z" stroke="#343538"/>
<path d="M1623.08 1109.41C1633.7 1120.03 1636.65 1137.45 1632.71 1160.03C1628.78 1182.59 1617.99 1210.19 1601.31 1241.01C1567.94 1302.63 1511.04 1377.01 1438.53 1449.53C1366.01 1522.04 1291.63 1578.94 1230.01 1612.31C1199.19 1628.99 1171.59 1639.78 1149.03 1643.71C1126.44 1647.65 1109.02 1644.7 1098.41 1634.08C1087.79 1623.47 1084.84 1606.05 1088.78 1583.47C1092.71 1560.9 1103.5 1533.3 1120.19 1502.48C1153.55 1440.86 1210.45 1366.48 1282.96 1293.96C1355.48 1221.45 1429.86 1164.56 1491.48 1131.19C1522.3 1114.5 1549.9 1103.71 1572.46 1099.78C1595.05 1095.84 1612.47 1098.79 1623.08 1109.41Z" stroke="#343538"/>
<path d="M1817.54 1303.86C1828.15 1314.48 1831.1 1331.9 1827.17 1354.48C1823.24 1377.05 1812.45 1404.65 1795.76 1435.46C1762.39 1497.09 1705.5 1571.47 1632.98 1643.98C1560.47 1716.5 1486.09 1773.39 1424.46 1806.76C1393.65 1823.45 1366.05 1834.24 1343.48 1838.17C1320.9 1842.1 1303.48 1839.15 1292.86 1828.54C1282.25 1817.92 1279.3 1800.5 1283.23 1777.92C1287.16 1755.35 1297.95 1727.75 1314.64 1696.94C1348.01 1635.31 1404.9 1560.93 1477.42 1488.42C1549.93 1415.9 1624.31 1359.01 1685.94 1325.64C1716.75 1308.95 1744.35 1298.16 1766.92 1294.23C1789.5 1290.3 1806.92 1293.25 1817.54 1303.86Z" stroke="#343538"/>
<path d="M1601.16 1087.49C1611.78 1098.1 1614.73 1115.52 1610.79 1138.11C1606.86 1160.67 1596.07 1188.27 1579.39 1219.09C1546.02 1280.71 1489.12 1355.09 1416.61 1427.61C1344.09 1500.12 1269.71 1557.02 1208.09 1590.39C1177.27 1607.07 1149.67 1617.86 1127.11 1621.79C1104.52 1625.73 1087.1 1622.78 1076.49 1612.16C1065.87 1601.55 1062.92 1584.13 1066.86 1561.54C1070.79 1538.98 1081.58 1511.38 1098.27 1480.56C1131.63 1418.94 1188.53 1344.56 1261.04 1272.04C1333.56 1199.53 1407.94 1142.63 1469.56 1109.27C1500.38 1092.58 1527.98 1081.79 1550.54 1077.86C1573.13 1073.92 1590.55 1076.87 1601.16 1087.49Z" stroke="#343538"/>
</svg>
