<svg width="1471" height="295" viewBox="0 0 1471 295" fill="none" xmlns="http://www.w3.org/2000/svg">
<rect x="0.5" y="0.5" width="49" height="49" stroke="#393C46"/>
<rect x="49.5" y="0.5" width="49" height="49" stroke="#393C46"/>
<rect x="98.5" y="0.5" width="49" height="49" stroke="#393C46"/>
<rect x="147.5" y="0.5" width="49" height="49" stroke="#393C46"/>
<rect x="196.5" y="0.5" width="49" height="49" stroke="#393C46"/>
<rect x="245.5" y="0.5" width="49" height="49" stroke="#393C46"/>
<rect x="294.5" y="0.5" width="49" height="49" stroke="#393C46"/>
<rect x="343.5" y="0.5" width="49" height="49" stroke="#393C46"/>
<rect x="392.5" y="0.5" width="49" height="49" stroke="#393C46"/>
<rect x="441.5" y="0.5" width="49" height="49" stroke="#393C46"/>
<rect x="490.5" y="0.5" width="49" height="49" stroke="#393C46"/>
<rect x="539.5" y="0.5" width="49" height="49" stroke="#393C46"/>
<rect x="588.5" y="0.5" width="49" height="49" stroke="#393C46"/>
<rect x="637.5" y="0.5" width="49" height="49" stroke="#393C46"/>
<rect x="686.5" y="0.5" width="49" height="49" stroke="#393C46"/>
<rect x="735.5" y="0.5" width="49" height="49" stroke="#393C46"/>
<rect x="784.5" y="0.5" width="49" height="49" stroke="#393C46"/>
<rect x="833.5" y="0.5" width="49" height="49" stroke="#393C46"/>
<rect x="882.5" y="0.5" width="49" height="49" stroke="#393C46"/>
<rect x="931.5" y="0.5" width="49" height="49" stroke="#393C46"/>
<rect x="980.5" y="0.5" width="49" height="49" stroke="#393C46"/>
<rect x="1029.5" y="0.5" width="49" height="49" stroke="#393C46"/>
<rect x="1078.5" y="0.5" width="49" height="49" stroke="#393C46"/>
<rect x="1127.5" y="0.5" width="49" height="49" stroke="#393C46"/>
<rect x="1176.5" y="0.5" width="49" height="49" stroke="#393C46"/>
<rect x="1225.5" y="0.5" width="49" height="49" stroke="#393C46"/>
<rect x="1274.5" y="0.5" width="49" height="49" stroke="#393C46"/>
<rect x="1323.5" y="0.5" width="49" height="49" stroke="#393C46"/>
<rect x="1372.5" y="0.5" width="49" height="49" stroke="#393C46"/>
<rect x="1421.5" y="0.5" width="49" height="49" stroke="#393C46"/>
<rect x="0.5" y="49.5" width="49" height="49" stroke="#393C46"/>
<rect x="49.5" y="49.5" width="49" height="49" stroke="#393C46"/>
<rect x="98.5" y="49.5" width="49" height="49" stroke="#393C46"/>
<rect x="147.5" y="49.5" width="49" height="49" stroke="#393C46"/>
<rect x="196.5" y="49.5" width="49" height="49" stroke="#393C46"/>
<rect x="245.5" y="49.5" width="49" height="49" stroke="#393C46"/>
<rect x="294.5" y="49.5" width="49" height="49" stroke="#393C46"/>
<rect x="343.5" y="49.5" width="49" height="49" stroke="#393C46"/>
<rect x="392.5" y="49.5" width="49" height="49" stroke="#393C46"/>
<rect x="441.5" y="49.5" width="49" height="49" stroke="#393C46"/>
<rect x="490.5" y="49.5" width="49" height="49" stroke="#393C46"/>
<rect x="539.5" y="49.5" width="49" height="49" stroke="#393C46"/>
<rect x="588.5" y="49.5" width="49" height="49" stroke="#393C46"/>
<rect x="637.5" y="49.5" width="49" height="49" stroke="#393C46"/>
<rect x="686.5" y="49.5" width="49" height="49" stroke="#393C46"/>
<rect x="735.5" y="49.5" width="49" height="49" stroke="#393C46"/>
<rect x="784.5" y="49.5" width="49" height="49" stroke="#393C46"/>
<rect x="833.5" y="49.5" width="49" height="49" stroke="#393C46"/>
<rect x="882.5" y="49.5" width="49" height="49" stroke="#393C46"/>
<rect x="931.5" y="49.5" width="49" height="49" stroke="#393C46"/>
<rect x="980.5" y="49.5" width="49" height="49" stroke="#393C46"/>
<rect x="1029.5" y="49.5" width="49" height="49" stroke="#393C46"/>
<rect x="1078.5" y="49.5" width="49" height="49" stroke="#393C46"/>
<rect x="1127.5" y="49.5" width="49" height="49" stroke="#393C46"/>
<rect x="1176.5" y="49.5" width="49" height="49" stroke="#393C46"/>
<rect x="1225.5" y="49.5" width="49" height="49" stroke="#393C46"/>
<rect x="1274.5" y="49.5" width="49" height="49" stroke="#393C46"/>
<rect x="1323.5" y="49.5" width="49" height="49" stroke="#393C46"/>
<rect x="1372.5" y="49.5" width="49" height="49" stroke="#393C46"/>
<rect x="1421.5" y="49.5" width="49" height="49" stroke="#393C46"/>
<rect x="0.5" y="98.5" width="49" height="49" stroke="#393C46"/>
<rect x="49.5" y="98.5" width="49" height="49" stroke="#393C46"/>
<rect x="98.5" y="98.5" width="49" height="49" stroke="#393C46"/>
<rect x="147.5" y="98.5" width="49" height="49" stroke="#393C46"/>
<rect x="196.5" y="98.5" width="49" height="49" stroke="#393C46"/>
<rect x="245.5" y="98.5" width="49" height="49" stroke="#393C46"/>
<rect x="294.5" y="98.5" width="49" height="49" stroke="#393C46"/>
<rect x="343.5" y="98.5" width="49" height="49" stroke="#393C46"/>
<rect x="392.5" y="98.5" width="49" height="49" stroke="#393C46"/>
<rect x="441.5" y="98.5" width="49" height="49" stroke="#393C46"/>
<rect x="490.5" y="98.5" width="49" height="49" stroke="#393C46"/>
<rect x="539.5" y="98.5" width="49" height="49" stroke="#393C46"/>
<rect x="588.5" y="98.5" width="49" height="49" stroke="#393C46"/>
<rect x="637.5" y="98.5" width="49" height="49" stroke="#393C46"/>
<rect x="686.5" y="98.5" width="49" height="49" stroke="#393C46"/>
<rect x="735.5" y="98.5" width="49" height="49" stroke="#393C46"/>
<rect x="784.5" y="98.5" width="49" height="49" stroke="#393C46"/>
<rect x="833.5" y="98.5" width="49" height="49" stroke="#393C46"/>
<rect x="882.5" y="98.5" width="49" height="49" stroke="#393C46"/>
<rect x="931.5" y="98.5" width="49" height="49" stroke="#393C46"/>
<rect x="980.5" y="98.5" width="49" height="49" stroke="#393C46"/>
<rect x="1029.5" y="98.5" width="49" height="49" stroke="#393C46"/>
<rect x="1078.5" y="98.5" width="49" height="49" stroke="#393C46"/>
<rect x="1127.5" y="98.5" width="49" height="49" stroke="#393C46"/>
<rect x="1176.5" y="98.5" width="49" height="49" stroke="#393C46"/>
<rect x="1225.5" y="98.5" width="49" height="49" stroke="#393C46"/>
<rect x="1274.5" y="98.5" width="49" height="49" stroke="#393C46"/>
<rect x="1323.5" y="98.5" width="49" height="49" stroke="#393C46"/>
<rect x="1372.5" y="98.5" width="49" height="49" stroke="#393C46"/>
<rect x="1421.5" y="98.5" width="49" height="49" stroke="#393C46"/>
<rect x="0.5" y="147.5" width="49" height="49" stroke="#393C46"/>
<rect x="49.5" y="147.5" width="49" height="49" stroke="#393C46"/>
<rect x="98.5" y="147.5" width="49" height="49" stroke="#393C46"/>
<rect x="147.5" y="147.5" width="49" height="49" stroke="#393C46"/>
<rect x="196.5" y="147.5" width="49" height="49" stroke="#393C46"/>
<rect x="245.5" y="147.5" width="49" height="49" stroke="#393C46"/>
<rect x="294.5" y="147.5" width="49" height="49" stroke="#393C46"/>
<rect x="343.5" y="147.5" width="49" height="49" stroke="#393C46"/>
<rect x="392.5" y="147.5" width="49" height="49" stroke="#393C46"/>
<rect x="441.5" y="147.5" width="49" height="49" stroke="#393C46"/>
<rect x="490.5" y="147.5" width="49" height="49" stroke="#393C46"/>
<rect x="539.5" y="147.5" width="49" height="49" stroke="#393C46"/>
<rect x="588.5" y="147.5" width="49" height="49" stroke="#393C46"/>
<rect x="637.5" y="147.5" width="49" height="49" stroke="#393C46"/>
<rect x="686.5" y="147.5" width="49" height="49" stroke="#393C46"/>
<rect x="735.5" y="147.5" width="49" height="49" stroke="#393C46"/>
<rect x="784.5" y="147.5" width="49" height="49" stroke="#393C46"/>
<rect x="833.5" y="147.5" width="49" height="49" stroke="#393C46"/>
<rect x="882.5" y="147.5" width="49" height="49" stroke="#393C46"/>
<rect x="931.5" y="147.5" width="49" height="49" stroke="#393C46"/>
<rect x="980.5" y="147.5" width="49" height="49" stroke="#393C46"/>
<rect x="1029.5" y="147.5" width="49" height="49" stroke="#393C46"/>
<rect x="1078.5" y="147.5" width="49" height="49" stroke="#393C46"/>
<rect x="1127.5" y="147.5" width="49" height="49" stroke="#393C46"/>
<rect x="1176.5" y="147.5" width="49" height="49" stroke="#393C46"/>
<rect x="1225.5" y="147.5" width="49" height="49" stroke="#393C46"/>
<rect x="1274.5" y="147.5" width="49" height="49" stroke="#393C46"/>
<rect x="1323.5" y="147.5" width="49" height="49" stroke="#393C46"/>
<rect x="1372.5" y="147.5" width="49" height="49" stroke="#393C46"/>
<rect x="1421.5" y="147.5" width="49" height="49" stroke="#393C46"/>
<rect x="0.5" y="196.5" width="49" height="49" stroke="#393C46"/>
<rect x="49.5" y="196.5" width="49" height="49" stroke="#393C46"/>
<rect x="98.5" y="196.5" width="49" height="49" stroke="#393C46"/>
<rect x="147.5" y="196.5" width="49" height="49" stroke="#393C46"/>
<rect x="196.5" y="196.5" width="49" height="49" stroke="#393C46"/>
<rect x="245.5" y="196.5" width="49" height="49" stroke="#393C46"/>
<rect x="294.5" y="196.5" width="49" height="49" stroke="#393C46"/>
<rect x="343.5" y="196.5" width="49" height="49" stroke="#393C46"/>
<rect x="392.5" y="196.5" width="49" height="49" stroke="#393C46"/>
<rect x="441.5" y="196.5" width="49" height="49" stroke="#393C46"/>
<rect x="490.5" y="196.5" width="49" height="49" stroke="#393C46"/>
<rect x="539.5" y="196.5" width="49" height="49" stroke="#393C46"/>
<rect x="588.5" y="196.5" width="49" height="49" stroke="#393C46"/>
<rect x="637.5" y="196.5" width="49" height="49" stroke="#393C46"/>
<rect x="686.5" y="196.5" width="49" height="49" stroke="#393C46"/>
<rect x="735.5" y="196.5" width="49" height="49" stroke="#393C46"/>
<rect x="784.5" y="196.5" width="49" height="49" stroke="#393C46"/>
<rect x="833.5" y="196.5" width="49" height="49" stroke="#393C46"/>
<rect x="882.5" y="196.5" width="49" height="49" stroke="#393C46"/>
<rect x="931.5" y="196.5" width="49" height="49" stroke="#393C46"/>
<rect x="980.5" y="196.5" width="49" height="49" stroke="#393C46"/>
<rect x="1029.5" y="196.5" width="49" height="49" stroke="#393C46"/>
<rect x="1078.5" y="196.5" width="49" height="49" stroke="#393C46"/>
<rect x="1127.5" y="196.5" width="49" height="49" stroke="#393C46"/>
<rect x="1176.5" y="196.5" width="49" height="49" stroke="#393C46"/>
<rect x="1225.5" y="196.5" width="49" height="49" stroke="#393C46"/>
<rect x="1274.5" y="196.5" width="49" height="49" stroke="#393C46"/>
<rect x="1323.5" y="196.5" width="49" height="49" stroke="#393C46"/>
<rect x="1372.5" y="196.5" width="49" height="49" stroke="#393C46"/>
<rect x="1421.5" y="196.5" width="49" height="49" stroke="#393C46"/>
<rect x="0.5" y="245.5" width="49" height="49" stroke="#393C46"/>
<rect x="49.5" y="245.5" width="49" height="49" stroke="#393C46"/>
<rect x="98.5" y="245.5" width="49" height="49" stroke="#393C46"/>
<rect x="147.5" y="245.5" width="49" height="49" stroke="#393C46"/>
<rect x="196.5" y="245.5" width="49" height="49" stroke="#393C46"/>
<rect x="245.5" y="245.5" width="49" height="49" stroke="#393C46"/>
<rect x="294.5" y="245.5" width="49" height="49" stroke="#393C46"/>
<rect x="343.5" y="245.5" width="49" height="49" stroke="#393C46"/>
<rect x="392.5" y="245.5" width="49" height="49" stroke="#393C46"/>
<rect x="441.5" y="245.5" width="49" height="49" stroke="#393C46"/>
<rect x="490.5" y="245.5" width="49" height="49" stroke="#393C46"/>
<rect x="539.5" y="245.5" width="49" height="49" stroke="#393C46"/>
<rect x="588.5" y="245.5" width="49" height="49" stroke="#393C46"/>
<rect x="637.5" y="245.5" width="49" height="49" stroke="#393C46"/>
<rect x="686.5" y="245.5" width="49" height="49" stroke="#393C46"/>
<rect x="735.5" y="245.5" width="49" height="49" stroke="#393C46"/>
<rect x="784.5" y="245.5" width="49" height="49" stroke="#393C46"/>
<rect x="833.5" y="245.5" width="49" height="49" stroke="#393C46"/>
<rect x="882.5" y="245.5" width="49" height="49" stroke="#393C46"/>
<rect x="931.5" y="245.5" width="49" height="49" stroke="#393C46"/>
<rect x="980.5" y="245.5" width="49" height="49" stroke="#393C46"/>
<rect x="1029.5" y="245.5" width="49" height="49" stroke="#393C46"/>
<rect x="1078.5" y="245.5" width="49" height="49" stroke="#393C46"/>
<rect x="1127.5" y="245.5" width="49" height="49" stroke="#393C46"/>
<rect x="1176.5" y="245.5" width="49" height="49" stroke="#393C46"/>
<rect x="1225.5" y="245.5" width="49" height="49" stroke="#393C46"/>
<rect x="1274.5" y="245.5" width="49" height="49" stroke="#393C46"/>
<rect x="1323.5" y="245.5" width="49" height="49" stroke="#393C46"/>
<rect x="1372.5" y="245.5" width="49" height="49" stroke="#393C46"/>
<rect x="1421.5" y="245.5" width="49" height="49" stroke="#393C46"/>
</svg>
