<svg width="496" height="319" viewBox="0 0 496 319" fill="none" xmlns="http://www.w3.org/2000/svg">
<path d="M476.054 133.345C478.643 144.606 474.99 156.803 466.036 169.254C457.084 181.703 442.866 194.353 424.447 206.477C387.612 230.722 334.066 252.8 272.541 266.944C211.016 281.088 153.205 284.611 109.48 278.886C87.6153 276.024 69.3009 270.853 55.8103 263.563C42.3187 256.272 33.7056 246.895 31.1168 235.634C28.5279 224.373 32.181 212.175 41.1343 199.725C50.0869 187.275 64.3043 174.625 82.7236 162.502C119.559 138.257 173.104 116.179 234.629 102.034C296.154 87.8901 353.966 84.3679 397.691 90.0923C419.555 92.9548 437.87 98.1259 451.36 105.416C464.852 112.706 473.465 122.084 476.054 133.345Z" stroke="#7D8488"/>
<path d="M474.76 127.715C477.336 138.924 473.673 151.071 464.709 163.477C455.746 175.882 441.52 188.492 423.092 200.581C386.242 224.759 332.686 246.795 271.161 260.939C209.636 275.084 151.833 278.648 108.124 272.991C86.2669 270.162 67.9617 265.032 54.4814 257.786C40.9999 250.54 32.3992 241.212 29.8225 230.004C27.2458 218.796 30.9093 206.648 39.8729 194.242C48.8358 181.837 63.0625 169.228 81.4897 157.138C118.34 132.961 171.896 110.924 233.421 96.7801C294.947 82.6358 352.749 79.0715 396.458 84.7282C418.315 87.5568 436.62 92.6876 450.101 99.933C463.582 107.179 472.183 116.507 474.76 127.715Z" stroke="#7D8488"/>
<path d="M473.38 121.71C475.956 132.919 472.293 145.066 463.329 157.472C454.366 169.877 440.14 182.487 421.713 194.577C384.862 218.754 331.306 240.79 269.781 254.934C208.256 269.079 150.453 272.643 106.744 266.986C84.887 264.158 66.5818 259.027 53.1015 251.782C39.6201 244.536 31.0193 235.207 28.4426 223.999C25.8659 212.791 29.5294 200.643 38.493 188.237C47.4559 175.832 61.6826 163.223 80.1098 151.133C116.961 126.956 170.516 104.92 232.042 90.7753C293.567 76.631 351.369 73.0667 395.079 78.7234C416.935 81.552 435.241 86.6828 448.721 93.9281C462.202 101.174 470.803 110.502 473.38 121.71Z" stroke="#7D8488"/>
<path d="M472.172 116.456C474.748 127.664 471.085 139.812 462.121 152.218C453.158 164.623 438.932 177.233 420.505 189.322C383.654 213.499 330.098 235.536 268.573 249.68C207.048 263.824 149.245 267.389 105.536 261.732C83.679 258.903 65.3738 253.773 51.8935 246.527C38.412 239.281 29.8113 229.953 27.2346 218.745C24.6579 207.537 28.3214 195.389 37.285 182.983C46.2479 170.578 60.4746 157.968 78.9018 145.879C115.753 121.702 169.308 99.6653 230.834 85.521C292.359 71.3767 350.161 67.8125 393.871 73.4691C415.727 76.2977 434.033 81.4285 447.513 88.6739C460.994 95.9198 469.595 105.248 472.172 116.456Z" stroke="#7D8488"/>
<path d="M470.964 111.202C473.54 122.41 469.877 134.558 460.913 146.964C451.95 159.369 437.724 171.978 419.297 184.068C382.446 208.245 328.89 230.282 267.365 244.426C205.84 258.57 148.037 262.134 104.328 256.478C82.471 253.649 64.1658 248.518 50.6855 241.273C37.204 234.027 28.6033 224.699 26.0266 213.491C23.4499 202.282 27.1134 190.135 36.077 177.729C45.0399 165.324 59.2666 152.714 77.6938 140.625C114.545 116.447 168.1 94.4111 229.626 80.2667C291.151 66.1224 348.953 62.5582 392.663 68.2149C414.519 71.0435 432.824 76.1743 446.305 83.4196C459.786 90.6655 468.387 99.9937 470.964 111.202Z" stroke="#7D8488"/>
<path d="M469.496 104.822C472.085 116.083 468.432 128.28 459.479 140.731C450.526 153.18 436.309 165.83 417.89 177.954C381.054 202.198 327.509 224.277 265.984 238.421C204.459 252.565 146.647 256.088 102.922 250.363C81.0577 247.501 62.7433 242.329 49.2527 235.039C35.761 227.749 27.148 218.371 24.5592 207.111C21.9703 195.85 25.6234 183.652 34.5767 171.202C43.5293 158.752 57.7467 146.102 76.1659 133.979C113.001 109.734 166.547 87.6556 228.072 73.5113C289.597 59.367 347.409 55.8448 391.133 61.5693C412.998 64.4317 431.312 69.6028 444.803 76.8928C458.294 84.1834 466.907 93.5609 469.496 104.822Z" stroke="#7D8488"/>
<path d="M468.288 99.5676C470.877 110.829 467.224 123.026 458.271 135.476C449.318 147.926 435.101 160.576 416.681 172.699C379.846 196.944 326.301 219.022 264.776 233.167C203.251 247.311 145.439 250.833 101.714 245.109C79.8497 242.246 61.5353 237.075 48.0446 229.785C34.553 222.495 25.94 213.117 23.3511 201.856C20.7623 190.595 24.4154 178.398 33.3687 165.947C42.3213 153.498 56.5387 140.848 74.9579 128.724C111.793 104.48 165.339 82.4013 226.864 68.257C288.389 54.1128 346.201 50.5905 389.925 56.315C411.79 59.1775 430.104 64.3486 443.595 71.6386C457.086 78.9291 465.699 88.3066 468.288 99.5676Z" stroke="#7D8488"/>
<path d="M467.081 94.3133C469.67 105.574 466.017 117.772 457.064 130.222C448.111 142.672 433.894 155.322 415.474 167.445C378.639 191.69 325.094 213.768 263.569 227.912C202.044 242.057 144.232 245.579 100.507 239.855C78.6427 236.992 60.3283 231.821 46.8376 224.531C33.346 217.24 24.733 207.863 22.1441 196.602C19.5553 185.341 23.2084 173.144 32.1616 160.693C41.1142 148.244 55.3317 135.594 73.7509 123.47C110.586 99.2253 164.132 77.147 225.657 63.0028C287.182 48.8585 344.994 45.3363 388.718 51.0607C410.583 53.9232 428.897 59.0943 442.388 66.3843C455.879 73.6748 464.492 83.0523 467.081 94.3133Z" stroke="#7D8488"/>
<path d="M465.7 88.3085C468.289 99.5694 464.636 111.767 455.683 124.217C446.73 136.667 432.513 149.317 414.094 161.44C377.259 185.685 323.713 207.763 262.188 221.908C200.663 236.052 142.851 239.574 99.1262 233.85C77.2618 230.987 58.9474 225.816 45.4568 218.526C31.9651 211.236 23.3521 201.858 20.7633 190.597C18.1744 179.336 21.8275 167.139 30.7808 154.688C39.7334 142.239 53.9508 129.589 72.37 117.465C109.205 93.2205 162.751 71.1422 224.276 56.9979C285.801 42.8537 343.613 39.3314 387.337 45.0559C409.202 47.9184 427.516 53.0895 441.007 60.3795C454.499 67.67 463.112 77.0475 465.7 88.3085Z" stroke="#7D8488"/>
<path d="M464.492 83.0542C467.081 94.3151 463.428 106.513 454.475 118.963C445.522 131.413 431.305 144.063 412.886 156.186C376.051 180.431 322.505 202.509 260.98 216.653C199.455 230.798 141.643 234.32 97.9182 228.595C76.0538 225.733 57.7394 220.562 44.2487 213.272C30.7571 205.981 22.1441 196.604 19.5552 185.343C16.9664 174.082 20.6195 161.885 29.5728 149.434C38.5254 136.984 52.7428 124.334 71.162 112.211C107.997 87.9662 161.543 65.8879 223.068 51.7437C284.593 37.5994 342.405 34.0772 386.129 39.8016C407.994 42.6641 426.308 47.8352 439.799 55.1252C453.291 62.4157 461.904 71.7932 464.492 83.0542Z" stroke="#7D8488"/>
</svg>
