<svg width="192" height="192" viewBox="0 0 192 192" fill="none" xmlns="http://www.w3.org/2000/svg">
<circle cx="96" cy="96" r="96" fill="#343538"/>
<path fill-rule="evenodd" clip-rule="evenodd" d="M109.094 134.045C109.442 134.622 110.059 134.955 110.705 134.955C110.914 134.955 111.123 134.921 111.327 134.851L152.622 120.388C153.179 120.189 153.612 119.746 153.791 119.184C153.97 118.622 153.876 118.011 153.532 117.528L139.789 98.1512L155.551 93.864C156.163 93.6999 156.645 93.2373 156.844 92.6355C157.043 92.0337 156.919 91.3723 156.526 90.8799L141.564 72.1943C141.111 71.6323 140.375 71.3737 139.669 71.5428L122.375 75.626C121.769 75.7703 121.272 76.2079 121.053 76.7898C120.829 77.3767 120.914 78.0332 121.277 78.5405L133.618 95.9429L96.6583 105.994L64.835 52.9119C64.4521 52.2703 63.7162 51.9171 62.9753 52.0166L36.6266 55.5578C36.02 55.6423 35.488 56.0153 35.2095 56.5624C34.9261 57.1095 34.931 57.7611 35.2194 58.3032L66.2273 116.648C66.635 117.424 67.53 117.807 68.3753 117.578L94.898 110.361L109.094 134.045ZM111.53 130.798L98.6614 109.337L135.929 99.1957L149.027 117.662L111.53 130.798ZM39.7989 58.9249L68.8327 113.559L92.8891 107.014L62.2493 55.901L39.7989 58.9249ZM137.475 94.8886L125.944 78.6351L139.375 75.4619L151.806 90.9893L137.475 94.8886Z" fill="#F0543F"/>
</svg>
