<svg width="632" height="547" viewBox="0 0 632 547" fill="none" xmlns="http://www.w3.org/2000/svg">
<path d="M361.659 305.141L266.051 292.683L277.35 190.701L361.659 305.141ZM267.5 291.524L358.183 303.402L278.22 195.047L267.5 291.524Z" fill="#343538"/>
<path d="M363.109 308.039L261.996 291.525L277.641 186.066L363.109 308.039ZM263.734 290.366L359.632 306.011L278.51 190.122L263.734 290.366Z" fill="#343538"/>
<path d="M364.846 311.225L257.939 290.365L278.509 181.14L364.846 311.225ZM259.677 289.206L361.369 308.907L279.378 185.196L259.677 289.206Z" fill="#343538"/>
<path d="M366.295 314.412L253.593 288.916L279.378 176.214L366.295 314.412ZM255.621 287.757L363.108 312.094L280.248 180.27L255.621 287.757Z" fill="#343538"/>
<path d="M368.034 317.889L249.249 287.178L280.828 171L368.034 317.889ZM251.277 286.309L364.847 315.571L281.697 175.056L251.277 286.309Z" fill="#343538"/>
<path d="M369.481 321.655L244.611 285.44L282.565 165.495L369.481 321.655ZM246.639 284.571L366.294 319.047L282.855 169.551L246.639 284.571Z" fill="#343538"/>
<path d="M370.93 325.421L239.687 283.412L284.304 160.28L370.93 325.421ZM241.715 282.253L367.743 322.814L284.593 164.047L241.715 282.253Z" fill="#343538"/>
<path d="M372.38 329.478L234.473 281.095L286.623 154.487L372.38 329.478ZM236.501 279.936L369.193 326.581L286.623 158.253L236.501 279.936Z" fill="#343538"/>
<path d="M373.827 333.824L229.256 278.197L289.229 148.402L373.827 333.824ZM231.284 277.328L370.93 330.926L288.939 152.458L231.284 277.328Z" fill="#343538"/>
<path d="M375.276 338.459L223.751 275.59L292.126 142.897L375.276 338.459ZM225.78 274.431L372.379 335.272L292.126 146.084L225.78 274.431Z" fill="#343538"/>
<path d="M376.434 343.095L217.667 272.114L295.312 136.524L376.434 343.095ZM219.985 271.244L373.537 339.908L295.023 140.001L219.985 271.244Z" fill="#343538"/>
<path d="M377.594 348.02L211.583 268.346L299.079 130.149L299.659 131.598L377.594 348.02ZM213.901 267.767L374.986 345.123L298.79 133.916L213.901 267.767Z" fill="#343538"/>
<path d="M378.463 353.236L205.21 264.291L303.426 123.776L378.463 353.236ZM207.528 263.712L375.856 350.049L302.846 127.253L207.528 263.712Z" fill="#343538"/>
<path d="M379.332 358.74L198.546 259.945L199.125 259.366L308.061 117.402L379.332 358.74ZM200.864 259.366L376.725 355.553L307.191 120.879L200.864 259.366Z" fill="#343538"/>
<path d="M380.2 364.534L191.592 255.309L313.275 111.027L380.2 364.534ZM194.199 254.729L377.883 361.057L312.695 113.925L194.199 254.729Z" fill="#343538"/>
<path d="M380.781 370.33L184.639 249.805L319.07 104.075L319.36 105.524L380.781 370.33ZM186.957 249.516L378.463 367.142L318.201 107.262L186.957 249.516Z" fill="#343538"/>
<path d="M381.359 376.702L177.396 244.299L325.733 97.4106L381.359 376.702ZM179.713 244.01L379.042 373.515L324.574 100.598L179.713 244.01Z" fill="#343538"/>
<path d="M381.362 383.076L169.575 237.926L332.688 90.4575L381.362 383.076ZM172.183 237.636L379.333 379.6L331.529 93.3547L172.183 237.636Z" fill="#343538"/>
<path d="M381.361 390.03L161.752 231.262L340.51 83.7942L381.361 390.03ZM164.359 230.973L379.623 386.553L339.351 86.6914L164.359 230.973Z" fill="#343538"/>
<path d="M381.361 396.984L153.64 223.73L348.912 76.8416L381.361 396.984ZM156.248 223.73L379.333 393.507L347.753 79.7388L156.248 223.73Z" fill="#343538"/>
<path d="M380.781 404.516L145.237 215.908L358.183 70.1777L380.781 404.516ZM147.845 215.908L378.753 401.04L356.734 73.0749L147.845 215.908Z" fill="#343538"/>
<path d="M379.911 412.048L136.835 207.215L368.612 63.2234V64.672L379.911 412.048ZM139.443 207.505L378.173 408.571L367.164 66.1206L139.443 207.505Z" fill="#343538"/>
<path d="M378.752 419.871L127.854 197.944L379.621 56.5601L378.752 419.871ZM130.461 198.234L377.014 416.394L377.883 59.4573L130.461 198.234Z" fill="#343538"/>
<path d="M377.305 428.273L118.873 188.384L391.501 50.4763V51.9249L377.305 428.273ZM121.481 188.384L375.566 424.507L389.763 52.7941L121.481 188.384Z" fill="#343538"/>
<path d="M375.277 436.675L109.602 177.664L404.539 44.1023L375.277 436.675ZM112.499 177.954L374.118 433.198L403.09 46.4202L112.499 177.954Z" fill="#343538"/>
<path d="M372.958 445.366L100.33 166.074L418.734 37.7278L418.444 38.8866L372.958 445.366ZM102.938 166.654L371.799 441.889L416.996 40.0455L102.938 166.654Z" fill="#343538"/>
<path d="M370.06 454.347L90.769 153.906L434.089 31.9336L370.06 454.347ZM93.3765 154.486L368.902 450.871L431.771 34.2513L93.3765 154.486Z" fill="#343538"/>
<path d="M366.584 463.619L80.9189 140.579L450.314 26.1394L450.024 27.2982L366.584 463.619ZM83.8162 141.449L366.005 460.142L448.286 28.4571L83.8162 141.449Z" fill="#343538"/>
<path d="M362.82 473.18L71.0708 126.673L467.699 20.925L467.41 22.084L362.82 473.18ZM73.968 127.543L362.241 469.704L465.961 23.243L73.968 127.543Z" fill="#343538"/>
<path d="M358.471 483.03L357.602 481.871L61.2173 111.897L486.528 16.2888L358.471 483.03ZM63.8248 112.766L357.602 479.553L484.5 18.3169L63.8248 112.766Z" fill="#343538"/>
<path d="M353.256 493.17L51.0767 95.9621L506.808 11.9429L506.519 13.1018L353.256 493.17ZM53.6841 97.1211L352.387 489.983L504.491 14.2606L53.6841 97.1211Z" fill="#343538"/>
<path d="M347.463 503.311L40.9375 79.1589L528.539 8.4668L347.463 503.311ZM43.8347 80.3177L346.883 500.124L526.221 10.2052L43.8347 80.3177Z" fill="#343538"/>
<path d="M340.798 513.741L30.7964 60.9061H31.9553L551.716 4.98975L551.136 6.1487L340.798 513.741ZM33.6936 62.3547L340.509 510.554L549.398 7.01783L33.6936 62.3547Z" fill="#343538"/>
<path d="M333.555 524.46L20.6558 42.0741L576.341 2.67187L333.555 524.46ZM23.553 43.5227L333.265 521.273L574.024 4.41031L23.553 43.5227Z" fill="#343538"/>
<path d="M325.153 535.18L10.8057 21.7942L602.996 1.22388L325.153 535.18ZM13.4132 23.2428L324.864 531.994L600.099 2.67248L13.4132 23.2428Z" fill="#343538"/>
<path d="M316.173 546.19L0.956055 0.354248L631.1 0.354248L316.173 546.19ZM3.56353 2.09251L315.883 543.292L628.493 2.09251L3.56353 2.09251Z" fill="#343538"/>
</svg>
