<svg width="192" height="192" viewBox="0 0 192 192" fill="none" xmlns="http://www.w3.org/2000/svg">
<circle cx="96" cy="96" r="96" fill="#343538"/>
<path fill-rule="evenodd" clip-rule="evenodd" d="M130.296 58.8911C130.688 58.9244 131.163 59.2267 131.237 59.773H131.238C131.311 60.3193 143 140.04 143 140.04L109.702 147.307L48.248 135.691C48.248 135.691 56.1346 74.1661 56.4325 71.997C56.8283 69.1319 56.9236 69.0361 59.9377 68.0824C60.4277 67.9271 64.2638 66.7271 69.6637 65.0392C71.7454 56.1338 78.3845 38.6093 92.2812 38.6093C94.0965 38.6093 96.1982 39.5926 97.8948 41.856C98.0643 41.8462 98.2338 41.8395 98.3985 41.8395C104.364 41.8395 107.755 46.965 109.676 52.5424C111.639 51.9299 112.825 51.5606 112.895 51.5397C113.374 51.3975 114.608 51.2036 115.24 51.8409C115.871 52.4785 121.623 58.2389 121.623 58.2389C121.623 58.2389 129.905 58.8582 130.296 58.8911ZM101.079 55.2256L106.279 53.6021C104.962 49.5419 102.915 46.0138 99.8409 45.6247C100.606 47.8372 101.083 50.6281 101.083 54.0945C101.083 54.4864 101.081 54.8453 101.08 55.2094L101.079 55.2256ZM96.0288 46.312C96.8834 48.4721 97.439 51.5722 97.439 55.7555C97.439 55.9673 97.4372 56.1612 97.4354 56.357L97.4353 56.3631C95.9168 56.8376 94.3391 57.3304 92.7281 57.8336C90.7516 58.4509 88.725 59.0839 86.6959 59.718C88.7639 51.6672 92.64 47.7788 96.0288 46.312ZM93.6822 42.9763C93.1039 42.5748 92.4997 42.3694 91.8999 42.3694H91.8995C81.9179 42.3694 76.311 55.5898 73.9497 63.7L82.4387 61.0479C84.4547 50.4149 89.2285 45.0904 93.6822 42.9763Z" fill="#95BF46"/>
<path d="M130.296 58.8911C129.905 58.8582 121.623 58.2389 121.623 58.2389C121.623 58.2389 115.871 52.4785 115.24 51.8409C115.003 51.6037 114.685 51.4821 114.352 51.4297L109.705 147.306L143 140.04C143 140.04 131.311 60.3194 131.237 59.7731C131.163 59.2268 130.688 58.9244 130.296 58.8911Z" fill="#5E8E3E"/>
<path d="M98.3978 77.4511L94.292 89.7712C94.292 89.7712 90.6948 87.8344 86.2852 87.8344C79.8208 87.8344 79.4955 91.9268 79.4955 92.958C79.4955 98.5849 94.0357 100.741 94.0357 113.921C94.0357 124.29 87.516 130.968 78.7251 130.968C68.176 130.968 62.7812 124.345 62.7812 124.345L65.6058 114.93C65.6058 114.93 71.1512 119.733 75.8304 119.733C78.8879 119.733 80.1316 117.305 80.1316 115.53C80.1316 108.19 68.2027 107.863 68.2027 95.8021C68.2027 85.6511 75.4253 75.8279 90.0049 75.8279C95.6225 75.8279 98.3978 77.4511 98.3978 77.4511Z" fill="white"/>
</svg>
