<svg width="192" height="192" viewBox="0 0 192 192" fill="none" xmlns="http://www.w3.org/2000/svg">
<circle cx="96" cy="96" r="96" fill="url(#paint0_linear_1818_61126)"/>
<path fill-rule="evenodd" clip-rule="evenodd" d="M152 79.5195C151.958 74.749 143.247 72.5836 120.697 72.5836C67.7878 72.5836 54.3643 70.2966 40 55C40.6318 55.9602 41.2336 57.0082 41.8688 58.1143C47.3095 67.589 55.1958 81.3224 105.273 80.5547C148.467 79.8814 140.179 88.5481 128.758 100.49C124.751 104.68 120.358 109.273 117.668 114.008C122.592 109.561 127.302 105.513 131.569 101.846L131.569 101.846C143.49 91.6015 151.959 84.3236 152 79.5885V79.5195ZM77.6503 128.506C77.6482 132.94 74.0436 136.588 69.6609 136.589C65.2344 136.589 61.6548 132.967 61.6548 128.506V128.5C61.6548 124.058 65.2657 120.403 69.6567 120.403H69.6609C74.0728 120.403 77.6503 124.026 77.6503 128.506ZM106.097 136.589C110.48 136.588 114.085 132.94 114.087 128.506C114.087 124.026 110.509 120.403 106.097 120.403H106.093C101.704 120.403 98.0933 124.058 98.0933 128.5V128.506C98.0933 132.967 101.675 136.589 106.097 136.589Z" fill="white"/>
<defs>
<linearGradient id="paint0_linear_1818_61126" x1="171.94" y1="151.88" x2="171.94" y2="0.00039832" gradientUnits="userSpaceOnUse">
<stop stop-color="#04B6F0"/>
<stop offset="1" stop-color="#3ECAF0"/>
</linearGradient>
</defs>
</svg>
