<svg width="882" height="497" viewBox="0 0 882 497" fill="none" xmlns="http://www.w3.org/2000/svg">
<g opacity="0.1">
<path d="M603.165 417.991C592.549 428.606 575.13 431.557 552.547 427.622C529.981 423.69 502.381 412.901 471.566 396.215C409.942 362.846 335.562 305.952 263.047 233.436C190.531 160.921 133.637 86.5405 100.268 24.9164C83.5819 -5.89865 72.7923 -33.4982 68.8604 -56.0643C64.9257 -78.6469 67.8763 -96.0667 78.4917 -106.682C89.1071 -117.298 106.527 -120.248 129.11 -116.313C151.676 -112.382 179.275 -101.592 210.09 -84.9059C271.714 -51.5368 346.094 5.35709 418.61 77.8727C491.126 150.388 548.02 224.768 581.389 286.393C598.075 317.208 608.864 344.807 612.796 367.373C616.731 389.956 613.78 407.376 603.165 417.991Z" stroke="black"/>
<path d="M819.538 201.616C808.923 212.232 791.503 215.182 768.92 211.248C746.354 207.316 718.754 196.526 687.939 179.84C626.315 146.471 551.935 89.5772 479.42 17.0616C406.904 -55.4541 350.01 -129.834 316.641 -191.458C299.955 -222.273 289.165 -249.873 285.233 -272.439C281.299 -295.022 284.249 -312.441 294.865 -323.057C305.48 -333.672 322.9 -336.623 345.483 -332.688C368.049 -328.756 395.648 -317.967 426.463 -301.281C488.087 -267.911 562.467 -211.018 634.983 -138.502C707.499 -65.9863 764.393 8.3938 797.762 70.0179C814.448 100.833 825.237 128.432 829.169 150.999C833.104 173.581 830.153 191.001 819.538 201.616Z" stroke="black"/>
<path d="M624.731 396.424C614.165 406.99 596.793 409.895 574.252 405.918C551.728 401.944 524.167 391.117 493.383 374.398C431.823 340.965 357.482 284.032 284.967 211.516C212.451 139 155.517 64.6595 122.084 3.09913C105.366 -27.684 94.5383 -55.2456 90.5643 -77.7696C86.5873 -100.311 89.4923 -117.683 100.058 -128.249C110.624 -138.815 127.996 -141.72 150.537 -137.743C173.061 -133.769 200.623 -122.941 231.406 -106.223C292.966 -72.7898 367.307 -15.8562 439.823 56.6596C512.339 129.175 569.272 203.516 602.705 265.076C619.424 295.86 630.251 323.421 634.225 345.945C638.202 368.486 635.297 385.858 624.731 396.424Z" stroke="black"/>
<path d="M841.106 180.05C830.54 190.616 813.168 193.521 790.627 189.544C768.103 185.57 740.542 174.742 709.758 158.024C648.198 124.591 573.857 67.657 501.342 -4.85869C428.826 -77.3744 371.892 -151.715 338.459 -213.276C321.741 -244.059 310.913 -271.62 306.939 -294.144C302.962 -316.685 305.867 -334.058 316.433 -344.623C326.999 -355.189 344.371 -358.094 366.912 -354.117C389.436 -350.143 416.998 -339.316 447.781 -322.597C509.341 -289.164 583.682 -232.231 656.198 -159.715C728.714 -87.1993 785.647 -12.8586 819.08 48.7017C835.799 79.4849 846.626 107.047 850.6 129.57C854.577 152.111 851.672 169.484 841.106 180.05Z" stroke="black"/>
<path d="M645.944 375.211C635.378 385.777 618.006 388.682 595.465 384.705C572.941 380.731 545.379 369.903 514.596 353.185C453.036 319.752 378.695 262.818 306.179 190.303C233.664 117.787 176.73 43.4462 143.297 -18.1141C126.579 -48.8973 115.751 -76.4589 111.777 -98.9829C107.8 -121.524 110.705 -138.896 121.271 -149.462C131.837 -160.028 149.209 -162.933 171.75 -158.956C194.274 -154.982 221.836 -144.154 252.619 -127.436C314.179 -94.003 388.52 -37.0694 461.036 35.4463C533.552 107.962 590.485 182.303 623.918 243.863C640.636 274.646 651.464 302.208 655.438 324.732C659.415 347.273 656.51 364.645 645.944 375.211Z" stroke="black"/>
<path d="M862.319 158.836C851.753 169.402 834.381 172.307 811.84 168.33C789.316 164.356 761.754 153.529 730.971 136.81C669.411 103.377 595.07 46.4438 522.554 -26.0719C450.039 -98.5877 393.105 -172.928 359.672 -234.489C342.954 -265.272 332.126 -292.834 328.152 -315.358C324.175 -337.898 327.08 -355.271 337.646 -365.837C348.212 -376.403 365.584 -379.308 388.125 -375.331C410.649 -371.357 438.211 -360.529 468.994 -343.811C530.554 -310.378 604.895 -253.444 677.411 -180.928C749.927 -108.413 806.86 -34.0719 840.293 27.4885C857.011 58.2716 867.839 85.8333 871.813 108.357C875.79 130.898 872.885 148.271 862.319 158.836Z" stroke="black"/>
<path d="M667.157 353.998C656.591 364.564 639.219 367.469 616.678 363.492C594.154 359.518 566.592 348.69 535.809 331.972C474.249 298.539 399.908 241.605 327.392 169.09C254.877 96.5738 197.943 22.2331 164.51 -39.3273C147.792 -70.1104 136.964 -97.672 132.99 -120.196C129.013 -142.737 131.918 -160.109 142.484 -170.675C153.05 -181.241 170.422 -184.146 192.963 -180.169C215.487 -176.195 243.049 -165.367 273.832 -148.649C335.392 -115.216 409.733 -58.2826 482.249 14.2332C554.764 86.7489 611.698 161.09 645.131 222.65C661.849 253.433 672.677 280.995 676.651 303.519C680.628 326.06 677.723 343.432 667.157 353.998Z" stroke="black"/>
<path d="M883.532 137.623C872.966 148.189 855.594 151.094 833.053 147.117C810.529 143.143 782.967 132.315 752.184 115.597C690.624 82.1641 616.283 25.2305 543.767 -47.2852C471.252 -119.801 414.318 -194.142 380.885 -255.702C364.167 -286.485 353.339 -314.047 349.365 -336.571C345.388 -359.112 348.293 -376.484 358.859 -387.05C369.425 -397.616 386.797 -400.521 409.338 -396.544C431.862 -392.57 459.424 -381.742 490.207 -365.024C551.767 -331.591 626.108 -274.657 698.624 -202.142C771.139 -129.626 828.073 -55.2851 861.506 6.27523C878.224 37.0584 889.052 64.62 893.026 87.144C897.003 109.685 894.098 127.057 883.532 137.623Z" stroke="black"/>
<path d="M688.37 332.785C677.804 343.351 660.432 346.256 637.891 342.279C615.367 338.305 587.805 327.477 557.022 310.759C495.462 277.326 421.121 220.392 348.605 147.876C276.089 75.3606 219.156 1.01986 185.723 -60.5405C169.005 -91.3237 158.177 -118.885 154.203 -141.409C150.226 -163.95 153.131 -181.323 163.697 -191.889C174.263 -202.454 191.635 -205.359 214.176 -201.382C236.7 -197.408 264.262 -186.581 295.045 -169.863C356.605 -136.429 430.946 -79.4958 503.462 -6.98009C575.977 65.5356 632.911 139.876 666.344 201.437C683.062 232.22 693.89 259.782 697.864 282.305C701.841 304.846 698.936 322.219 688.37 332.785Z" stroke="black"/>
<path d="M904.745 116.41C894.179 126.976 876.807 129.881 854.266 125.904C831.742 121.93 804.18 111.102 773.397 94.3841C711.837 60.951 637.496 4.0174 564.98 -68.4983C492.464 -141.014 435.531 -215.355 402.098 -276.915C385.38 -307.698 374.552 -335.26 370.578 -357.784C366.601 -380.325 369.506 -397.697 380.072 -408.263C390.638 -418.829 408.01 -421.734 430.551 -417.757C453.075 -413.783 480.637 -402.955 511.42 -386.237C572.98 -352.804 647.321 -295.87 719.837 -223.355C792.352 -150.839 849.286 -76.4983 882.719 -14.9379C899.437 15.8453 910.265 43.4069 914.239 65.9308C918.216 88.4718 915.311 105.844 904.745 116.41Z" stroke="black"/>
<path d="M709.936 311.218C699.321 321.833 681.901 324.784 659.318 320.849C636.752 316.917 609.153 306.128 578.338 289.442C516.714 256.073 442.334 199.179 369.818 126.663C297.302 54.1475 240.409 -20.2326 207.039 -81.8567C190.353 -112.672 179.564 -140.271 175.632 -162.837C171.697 -185.42 174.648 -202.84 185.263 -213.455C195.879 -224.071 213.298 -227.021 235.881 -223.087C258.447 -219.155 286.047 -208.365 316.862 -191.679C378.486 -158.31 452.866 -101.416 525.382 -28.9004C597.897 43.6152 654.791 117.995 688.16 179.619C704.846 210.434 715.636 238.034 719.568 260.6C723.502 283.183 720.552 300.603 709.936 311.218Z" stroke="black"/>
<path d="M926.311 94.8433C915.696 105.459 898.276 108.409 875.693 104.475C853.127 100.543 825.528 89.7532 794.713 73.067C733.089 39.698 658.709 -17.1959 586.193 -89.7115C513.677 -162.227 456.784 -236.607 423.414 -298.231C406.728 -329.046 395.939 -356.646 392.007 -379.212C388.072 -401.795 391.023 -419.214 401.638 -429.83C412.254 -440.445 429.673 -443.396 452.256 -439.461C474.822 -435.529 502.422 -424.74 533.237 -408.054C594.861 -374.685 669.241 -317.791 741.757 -245.275C814.272 -172.759 871.166 -98.3793 904.535 -36.7552C921.221 -5.94018 932.011 21.6593 935.943 44.2254C939.877 66.8081 936.927 84.2279 926.311 94.8433Z" stroke="black"/>
<path d="M731.858 289.298C721.243 299.913 703.823 302.864 681.24 298.929C658.674 294.997 631.075 284.208 600.26 267.521C538.636 234.152 464.256 177.258 391.74 104.743C319.224 32.2272 262.33 -42.1529 228.961 -103.777C212.275 -134.592 201.486 -162.192 197.554 -184.758C193.619 -207.34 196.57 -224.76 207.185 -235.376C217.8 -245.991 235.22 -248.942 257.803 -245.007C280.369 -241.075 307.969 -230.285 338.784 -213.599C400.408 -180.23 474.788 -123.336 547.303 -50.8207C619.819 21.6949 676.713 96.0751 710.082 157.699C726.768 188.514 737.558 216.114 741.49 238.68C745.424 261.262 742.474 278.682 731.858 289.298Z" stroke="black"/>
<path d="M948.231 72.9231C937.616 83.5385 920.196 86.4891 897.613 82.5543C875.047 78.6225 847.448 67.8329 816.633 51.1468C755.009 17.7777 680.629 -39.1162 608.113 -111.632C535.597 -184.147 478.703 -258.528 445.334 -320.152C428.648 -350.967 417.859 -378.566 413.927 -401.132C409.992 -423.715 412.943 -441.135 423.558 -451.75C434.174 -462.366 451.593 -465.316 474.176 -461.381C496.742 -457.45 524.342 -446.66 555.157 -429.974C616.781 -396.605 691.161 -339.711 763.676 -267.195C836.192 -194.68 893.086 -120.3 926.455 -58.6755C943.141 -27.8605 953.931 -0.260939 957.863 22.3052C961.797 44.8878 958.847 62.3076 948.231 72.9231Z" stroke="black"/>
<path d="M753.778 267.377C743.163 277.993 725.743 280.943 703.16 277.009C680.594 273.077 652.995 262.287 622.18 245.601C560.556 212.232 486.175 155.338 413.66 82.8225C341.144 10.3069 284.25 -64.0732 250.881 -125.697C234.195 -156.512 223.406 -184.112 219.474 -206.678C215.539 -229.261 218.49 -246.68 229.105 -257.296C239.72 -267.911 257.14 -270.862 279.723 -266.927C302.289 -262.995 329.888 -252.206 360.704 -235.52C422.328 -202.15 496.708 -145.257 569.223 -72.7409C641.739 -0.225347 698.633 74.1548 732.002 135.779C748.688 166.594 759.478 194.193 763.409 216.76C767.344 239.342 764.394 256.762 753.778 267.377Z" stroke="black"/>
<path d="M970.153 51.0027C959.538 61.6181 942.118 64.5686 919.535 60.6339C896.969 56.7021 869.37 45.9125 838.555 29.2263C776.931 -4.1427 702.55 -61.0366 630.035 -133.552C557.519 -206.068 500.625 -280.448 467.256 -342.072C450.57 -372.887 439.781 -400.487 435.849 -423.053C431.914 -445.635 434.865 -463.055 445.48 -473.671C456.095 -484.286 473.515 -487.237 496.098 -483.302C518.664 -479.37 546.263 -468.58 577.079 -451.894C638.703 -418.525 713.083 -361.631 785.598 -289.116C858.114 -216.6 915.008 -142.22 948.377 -80.5959C965.063 -49.7809 975.853 -22.1813 979.784 0.384747C983.719 22.9674 980.769 40.3872 970.153 51.0027Z" stroke="black"/>
<path d="M775.698 245.457C765.083 256.072 747.663 259.023 725.08 255.088C702.514 251.156 674.915 240.367 644.1 223.681C582.475 190.312 508.095 133.418 435.58 60.9021C363.064 -11.6135 306.17 -85.9936 272.801 -147.618C256.115 -178.433 245.325 -206.032 241.394 -228.598C237.459 -251.181 240.409 -268.601 251.025 -279.216C261.64 -289.832 279.06 -292.782 301.643 -288.847C324.209 -284.916 351.808 -274.126 382.623 -257.44C444.248 -224.071 518.628 -167.177 591.143 -94.6614C663.659 -22.1458 720.553 52.2344 753.922 113.858C770.608 144.673 781.398 172.273 785.329 194.839C789.264 217.422 786.314 234.842 775.698 245.457Z" stroke="black"/>
<path d="M992.073 29.0824C981.458 39.6978 964.038 42.6484 941.455 38.7136C918.889 34.7818 891.29 23.9922 860.475 7.30606C798.85 -26.063 724.47 -82.9569 651.955 -155.473C579.439 -227.988 522.545 -302.368 489.176 -363.992C472.49 -394.807 461.7 -422.407 457.769 -444.973C453.834 -467.556 456.784 -484.975 467.4 -495.591C478.015 -506.206 495.435 -509.157 518.018 -505.222C540.584 -501.29 568.183 -490.501 598.998 -473.815C660.623 -440.446 735.003 -383.552 807.518 -311.036C880.034 -238.52 936.928 -164.14 970.297 -102.516C986.983 -71.7012 997.773 -44.1016 1001.7 -21.5355C1005.64 1.04709 1002.69 18.4669 992.073 29.0824Z" stroke="black"/>
<path d="M797.618 223.537C787.003 234.152 769.583 237.103 747 233.168C724.434 229.236 696.835 218.447 666.019 201.76C604.395 168.391 530.015 111.497 457.5 38.9818C384.984 -33.5338 328.09 -107.914 294.721 -169.538C278.035 -200.353 267.245 -227.953 263.314 -250.519C259.379 -273.101 262.329 -290.521 272.945 -301.137C283.56 -311.752 300.98 -314.703 323.563 -310.768C346.129 -306.836 373.728 -296.046 404.543 -279.36C466.167 -245.991 540.548 -189.097 613.063 -116.582C685.579 -44.066 742.473 30.3141 775.842 91.9382C792.528 122.753 803.317 150.353 807.249 172.919C811.184 195.501 808.233 212.921 797.618 223.537Z" stroke="black"/>
<path d="M1013.99 7.16207C1003.38 17.7775 985.958 20.7281 963.375 16.7933C940.809 12.8615 913.21 2.0719 882.394 -14.6142C820.77 -47.9833 746.39 -104.877 673.875 -177.393C601.359 -249.908 544.465 -324.289 511.096 -385.913C494.41 -416.728 483.62 -444.327 479.689 -466.893C475.754 -489.476 478.704 -506.896 489.32 -517.511C499.935 -528.127 517.355 -531.077 539.938 -527.142C562.504 -523.211 590.103 -512.421 620.918 -495.735C682.542 -462.366 756.923 -405.472 829.438 -332.956C901.954 -260.441 958.848 -186.061 992.217 -124.436C1008.9 -93.6215 1019.69 -66.0219 1023.62 -43.4558C1027.56 -20.8732 1024.61 -3.45336 1013.99 7.16207Z" stroke="black"/>
</g>
</svg>
