<svg width="192" height="192" viewBox="0 0 192 192" fill="none" xmlns="http://www.w3.org/2000/svg">
<circle cx="96" cy="96" r="96" fill="#343538"/>
<path fill-rule="evenodd" clip-rule="evenodd" d="M124.226 78.0244C136.662 81.817 144.773 87.9327 144.773 94.386C144.773 100.819 136.702 106.935 124.346 110.728C127.236 123.317 125.98 133.344 120.38 136.561C119.065 137.315 117.55 137.673 115.876 137.673C110.395 137.673 103.221 133.821 95.9664 127.109C88.7122 133.86 81.5376 137.752 76.057 137.752C74.3829 137.752 72.8683 137.395 71.5729 136.64C65.9528 133.424 64.6773 123.376 67.5472 110.748C55.1112 106.955 47 100.839 47 94.386C47 87.9526 55.0714 81.8567 67.4675 78.0443C64.5777 65.4554 65.8332 55.428 71.4334 52.2112C72.7487 51.4567 74.2634 51.0993 75.9374 51.0993V51.0794C81.418 51.0794 88.5926 54.9316 95.8469 61.643C103.101 54.8918 110.276 51 115.756 51V51.0199C117.403 51.0227 118.91 51.3803 120.201 52.1318C125.821 55.3485 127.096 65.3958 124.226 78.0244ZM115.736 55.428C111.591 55.4385 105.502 58.7337 99.0156 64.7406C101.826 67.6594 104.616 70.9953 107.306 74.6687C111.79 75.1453 116.055 75.88 119.961 76.8331C120.4 74.8276 120.759 72.8618 120.978 70.9953C121.895 63.4102 120.719 57.5129 118.008 55.9641C117.391 55.6265 116.653 55.4478 115.736 55.4478V55.428ZM92.6781 64.7604C86.1811 58.7837 80.0628 55.5074 75.9374 55.5074V55.5272C75.0207 55.5272 74.2434 55.6861 73.6456 56.0435C70.9551 57.6122 69.7992 63.5095 70.7359 71.0946C70.975 72.9412 71.3138 74.8673 71.7722 76.8529C75.6784 75.88 79.9432 75.1453 84.4473 74.6687C87.0979 70.9953 89.888 67.6793 92.6781 64.7604ZM116.136 88.9852C117.172 86.3443 118.089 83.7034 118.826 81.1419C116.216 80.5065 113.485 79.9903 110.655 79.5733C111.632 81.0824 112.609 82.6312 113.525 84.2197C114.462 85.8082 115.319 87.3967 116.136 88.9852ZM109.699 102.289C108.144 104.97 106.55 107.511 104.896 109.874C101.926 110.132 98.917 110.271 95.8877 110.271C92.8784 110.271 89.869 110.132 86.9195 109.894C85.2654 107.531 83.6511 105.009 82.0966 102.348C80.582 99.7473 79.2068 97.1064 77.9513 94.4457C79.1869 91.7849 80.582 89.1242 82.0767 86.523C83.6312 83.8424 85.2255 81.3008 86.8796 78.9379C89.8491 78.6798 92.8585 78.5408 95.8877 78.5408C98.897 78.5408 101.906 78.6798 104.856 78.918C106.51 81.2809 108.124 83.8027 109.679 86.4634C111.193 89.0646 112.569 91.7055 113.824 94.3662C112.569 97.027 111.193 99.6877 109.699 102.289ZM118.886 107.61C118.128 105.029 117.212 102.368 116.135 99.7076C115.318 101.296 114.461 102.904 113.545 104.493C112.628 106.101 111.651 107.67 110.675 109.199C113.525 108.782 116.275 108.246 118.886 107.61ZM95.9264 120.894C94.073 118.988 92.2195 116.863 90.386 114.54C92.1797 114.62 94.0132 114.679 95.8666 114.679C97.74 114.679 99.5934 114.64 101.407 114.54C99.6133 116.863 97.7599 118.988 95.9264 120.894ZM72.9275 107.63C75.5383 108.266 78.2686 108.782 81.0986 109.199C80.122 107.69 79.1654 106.141 78.2287 104.553C77.292 102.964 76.4351 101.376 75.618 99.787C74.5817 102.428 73.6649 105.069 72.9275 107.63ZM95.8279 67.8779C97.6813 69.7841 99.5347 71.9087 101.368 74.2319C99.5746 74.1525 97.7411 74.0929 95.8877 74.0929C94.0143 74.0929 92.1609 74.1326 90.3473 74.2319C92.1409 71.9087 93.9944 69.7841 95.8279 67.8779ZM78.2105 84.2792C79.1272 82.6709 80.1038 81.1022 81.0803 79.5733C78.2304 79.9903 75.4802 80.5264 72.8694 81.1419C73.6267 83.7233 74.5435 86.384 75.6197 89.0447C76.4368 87.4562 77.2937 85.8677 78.2105 84.2792ZM63.0422 104.433C55.9872 101.435 51.4233 97.5036 51.4233 94.3861C51.4233 91.2687 55.9872 87.3173 63.0422 84.3388C64.7561 83.6041 66.6294 82.9489 68.5626 82.3333C69.6986 86.2252 71.1933 90.2759 73.0467 94.4258C71.2132 98.5559 69.7384 102.587 68.6224 106.459C66.6494 105.843 64.776 105.168 63.0422 104.433ZM70.7968 117.777C69.8801 125.362 71.0559 131.259 73.7663 132.808C74.3642 133.146 75.1215 133.324 76.0183 133.344C80.1636 133.344 86.262 130.048 92.759 124.032C89.9489 121.113 87.1588 117.777 84.4684 114.103C79.9843 113.627 75.7194 112.892 71.8132 111.939C71.3748 113.945 71.0161 115.91 70.7968 117.777ZM121.037 117.678C121.974 125.263 120.818 131.16 118.127 132.729C117.529 133.086 116.752 133.245 115.835 133.245C111.71 133.245 105.592 129.969 99.0947 123.992C101.885 121.073 104.675 117.757 107.326 114.084C111.83 113.607 116.094 112.872 120.001 111.899C120.459 113.905 120.818 115.831 121.037 117.678ZM123.19 106.439C125.123 105.823 126.996 105.168 128.71 104.433C135.765 101.455 140.329 97.5035 140.349 94.3861C140.349 91.2686 135.785 87.3371 128.73 84.3388C126.976 83.6041 125.103 82.929 123.13 82.3134C122.014 86.1854 120.539 90.2162 118.706 94.3464C120.559 98.4963 122.054 102.547 123.19 106.439Z" fill="#2AE3FE"/>
<path d="M95.8655 103.46C100.896 103.46 104.973 99.3976 104.973 94.386C104.973 89.3744 100.896 85.3116 95.8655 85.3116C90.8355 85.3116 86.7578 89.3744 86.7578 94.386C86.7578 99.3976 90.8355 103.46 95.8655 103.46Z" fill="#2AE3FE"/>
</svg>
