<svg width="30" height="24" viewBox="0 0 30 24" fill="none" xmlns="http://www.w3.org/2000/svg">
<path d="M30 2.85603C28.8958 3.33705 27.711 3.66326 26.4662 3.8089C27.7373 3.06061 28.7102 1.87372 29.1713 0.463797C27.9791 1.15676 26.663 1.65994 25.2608 1.93271C24.1379 0.755026 22.5407 0.0214844 20.7691 0.0214844C17.3704 0.0214844 14.6147 2.73073 14.6147 6.0703C14.6147 6.54394 14.669 7.00654 14.774 7.4489C9.66 7.19637 5.12525 4.78755 2.0902 1.12726C1.55966 2.01931 1.25784 3.05873 1.25784 4.16828C1.25784 6.2675 2.34515 8.11975 3.99485 9.20341C2.98627 9.17025 2.0377 8.89748 1.20725 8.44408V8.51965C1.20725 11.45 3.32936 13.8957 6.14319 14.4523C5.62765 14.5887 5.08402 14.6643 4.52162 14.6643C4.12422 14.6643 3.7399 14.6256 3.36309 14.5519C4.14667 16.957 6.41877 18.706 9.11078 18.754C7.00554 20.3759 4.35103 21.3398 1.46784 21.3398C0.971078 21.3398 0.481765 21.3103 0 21.2568C2.72387 22.9764 5.95765 23.979 9.43324 23.979C20.7542 23.979 26.9425 14.7601 26.9425 6.76514L26.9218 5.98187C28.1309 5.13401 29.177 4.06876 30 2.85603Z" fill="white"/>
</svg>
