<svg width="30" height="28" viewBox="0 0 30 28" fill="none" xmlns="http://www.w3.org/2000/svg">
<path d="M6.80954 9.12598H0.371094V27.9881H6.80954V9.12598Z" fill="white"/>
<path d="M27.9388 10.8491C26.5863 9.40875 24.7975 8.68848 22.5735 8.68848C21.754 8.68848 21.0092 8.78681 20.3392 8.98361C19.6694 9.18028 19.1037 9.45621 18.6418 9.81155C18.1802 10.1669 17.8126 10.4968 17.5396 10.8012C17.2801 11.0903 17.0263 11.4271 16.7786 11.8081V9.12595H10.3594L10.3791 10.0397C10.3922 10.649 10.3987 12.5269 10.3987 15.6736C10.3987 18.8206 10.3858 22.9254 10.3596 27.9884H16.7786V17.4626C16.7786 16.8156 16.8498 16.3018 16.9931 15.9208C17.2665 15.2733 17.679 14.7313 18.2322 14.2937C18.7852 13.8555 19.4711 13.6367 20.2908 13.6367C21.4091 13.6367 22.2321 14.0141 22.7589 14.7691C23.2856 15.5241 23.549 16.5678 23.549 17.9002V27.9878H29.968V17.1774C29.9675 14.3982 29.2916 12.2889 27.9388 10.8491Z" fill="white"/>
<path d="M3.62891 0.046875C2.54945 0.046875 1.67481 0.354808 1.00476 0.970075C0.334784 1.58548 0 2.36241 0 3.30161C0 4.22768 0.325148 5.00195 0.975513 5.62355C1.62567 6.24521 2.48426 6.55621 3.5508 6.55621H3.58982C4.68253 6.55621 5.56387 6.24548 6.23364 5.62355C6.90342 5.00195 7.23178 4.22795 7.21886 3.30161C7.20588 2.36248 6.87396 1.58548 6.2238 0.970075C5.57371 0.354542 4.70843 0.046875 3.62891 0.046875Z" fill="white"/>
</svg>
