<svg width="115" height="131" viewBox="0 0 115 131" fill="none" xmlns="http://www.w3.org/2000/svg">
<g id="shopify">
<path id="Shape" fill-rule="evenodd" clip-rule="evenodd" d="M98.9394 24.783C99.408 24.8228 99.9751 25.1841 100.064 25.8371H100.065C100.152 26.49 114.123 121.773 114.123 121.773L74.3252 130.458L0.875 116.575C0.875 116.575 10.3011 43.0398 10.6571 40.4472C11.1301 37.0229 11.2441 36.9084 14.8466 35.7684C15.4322 35.5828 20.0172 34.1486 26.4712 32.1312C28.9592 21.4874 36.8943 0.541992 53.5037 0.541992C55.6734 0.541992 58.1853 1.71728 60.2131 4.4225C60.4157 4.41087 60.6183 4.40282 60.8152 4.40282C67.9453 4.40282 71.9982 10.5288 74.2947 17.195C76.6399 16.4629 78.0576 16.0215 78.1419 15.9965C78.7142 15.8266 80.1888 15.5949 80.9437 16.3565C81.6983 17.1186 88.573 24.0035 88.573 24.0035C88.573 24.0035 98.4717 24.7436 98.9394 24.783ZM64.02 20.402L70.2351 18.4616C68.6604 13.6088 66.2136 9.39198 62.5397 8.92688C63.4543 11.5713 64.0244 14.9071 64.0244 19.0501C64.0244 19.5176 64.0223 19.9458 64.0201 20.3802V20.3804V20.3807L64.02 20.402ZM57.9823 9.74842C59.0037 12.3302 59.6678 16.0354 59.6678 21.0353C59.6678 21.2889 59.6656 21.5209 59.6634 21.7554L59.6634 21.7616C57.8593 22.3253 55.9854 22.9106 54.072 23.5082L54.0363 23.5194C51.6743 24.2571 49.2525 25.0135 46.8276 25.7713C49.2992 16.149 53.932 11.5015 57.9823 9.74842ZM55.1778 5.76147C54.4866 5.28161 53.7644 5.03608 53.0476 5.03608H53.0471C41.1171 5.03608 34.4157 20.8372 31.5934 30.5306L41.7395 27.3607C44.149 14.6522 49.8547 8.28825 55.1778 5.76147Z" fill="#95BF46"/>
<path id="Path" d="M98.9388 24.783C98.4711 24.7436 88.5724 24.0035 88.5724 24.0035C88.5724 24.0035 81.6976 17.1185 80.9431 16.3565C80.6607 16.0729 80.2798 15.9276 79.8817 15.865L74.3281 130.457L114.122 121.773C114.122 121.773 100.151 26.49 100.064 25.8371C99.9744 25.1841 99.4074 24.8228 98.9388 24.783Z" fill="#5E8E3E"/>
<path id="Path_2" d="M60.8152 46.9659L55.908 61.691C55.908 61.691 51.6086 59.3762 46.3382 59.3762C38.6118 59.3762 38.223 64.2674 38.223 65.5C38.223 72.2252 55.6016 74.8021 55.6016 90.5549C55.6016 102.949 47.8092 110.929 37.3022 110.929C24.6939 110.929 18.2461 103.013 18.2461 103.013L21.6221 91.7615C21.6221 91.7615 28.2499 97.5015 33.8425 97.5015C37.4969 97.5015 38.9834 94.5991 38.9834 92.4784C38.9834 83.7057 24.7258 83.3144 24.7258 68.8993C24.7258 56.7667 33.3584 45.0259 50.784 45.0259C57.4982 45.0259 60.8152 46.9659 60.8152 46.9659Z" fill="white"/>
</g>
</svg>
