<svg width="52" height="52" viewBox="0 0 52 52" fill="none" xmlns="http://www.w3.org/2000/svg">
<path d="M47.0726 10.2742L37.8468 19.5L32.6048 22.4355L33.129 23.6935L37.8468 22.2258H52V29.7742H37.8468L33.129 28.3065L32.6048 29.5645L37.8468 32.5L47.0726 41.7258L41.7258 47.0726L32.5 37.8468L29.5645 32.6048L28.3065 33.129L29.7742 37.8468V52H22.2258V37.8468L23.6935 33.129L22.4355 32.6048L19.5 37.8468L10.2742 47.0726L4.92742 41.7258L14.1532 32.5L19.3952 29.5645L18.871 28.3065L14.1532 29.7742H0V22.2258H14.1532L18.871 23.6935L19.3952 22.4355L14.1532 19.5L4.92742 10.2742L10.2742 4.92742L19.5 14.1532L22.4355 19.3952L23.6935 18.871L22.2258 14.1532V0H29.7742V14.1532L28.3065 18.871L29.5645 19.3952L32.5 14.1532L41.7258 4.92742L47.0726 10.2742Z" fill="url(#paint0_linear_1639_11828)"/>
<defs>
<linearGradient id="paint0_linear_1639_11828" x1="2.83637" y1="-2.01347e-05" x2="50.9389" y2="3.64722" gradientUnits="userSpaceOnUse">
<stop stop-color="#98D528"/>
<stop offset="1" stop-color="#30AD37"/>
</linearGradient>
</defs>
</svg>
