<svg width="252" height="81" viewBox="0 0 252 81" fill="none" xmlns="http://www.w3.org/2000/svg">
<path d="M167.203 56.5524C158.303 61.576 148.115 64.3966 137.854 63.3508C130.984 62.6501 124.349 60.0189 118.767 55.9618C118.03 56.4545 117.278 56.9264 116.516 57.3714C107.996 62.3569 98.0612 64.5224 88.2637 62.999C79.6436 61.6601 71.3634 57.6624 64.907 51.7719C64.7402 51.8808 64.5719 51.9916 64.4046 52.097C56.1918 57.2868 46.3192 59.7068 36.6603 58.2926C26.7121 56.8377 17.6331 51.5562 11.084 43.9922C7.9713 40.397 5.80186 36.1622 4.50616 31.5983C4.00144 29.8221 6.37274 28.9934 7.1692 30.6249C14.7337 46.1166 31.683 56.6735 49.0702 53.2123C53.4319 52.3439 57.6436 50.6118 61.4387 48.2242C55.2835 41.1981 50.7551 31.7964 51.9383 22.3082C52.5321 17.5315 54.7783 13.2476 58.4922 10.1784C61.8406 7.41101 66.4112 5.8492 70.7531 6.50003C81.5237 8.11877 84.0752 20.6936 81.7199 29.6179C79.764 37.0284 75.0501 43.6624 69.146 48.6262C77.9692 56.2022 90.2038 59.8687 101.693 57.6856C106.268 56.8163 110.695 55.0324 114.689 52.5582C114.021 51.9203 113.374 51.2608 112.755 50.5769C106.104 43.2607 102.56 32.6281 105.373 22.9093C106.868 17.7443 110.021 13.2354 114.88 10.7648C119.165 8.58767 124.505 8.17175 128.942 10.164C138.764 14.5769 138.69 27.0907 135.319 35.6961C132.794 42.1463 128.546 47.9428 123.285 52.5088C124.729 53.4488 126.24 54.2796 127.793 54.9936C135.431 58.5109 144.068 59.0048 152.182 56.9163C159.931 54.9238 167.108 50.9779 173.217 45.8257C167.582 40.5791 163.343 33.695 162.893 25.9442C162.579 20.5304 164.504 15.2984 168.706 11.7767C172.462 8.62905 177.841 7.94675 182.226 10.16C186.25 12.1892 189.333 16.076 190.61 20.3821C192.077 25.3306 191.134 30.6184 188.905 35.1935C187.036 39.0346 184.384 42.4346 181.411 45.4908C186.727 49.0209 192.955 51.2223 199.218 52.2275C208.834 53.7707 218.693 52.5656 228.171 50.6778C231.512 50.013 234.831 49.2443 238.144 48.4519C232.707 46.1684 227.283 43.8573 221.96 41.3333C219.261 40.054 221.093 36.1144 223.845 37.1395C232.527 40.3737 241.018 44.1596 249.561 47.7402C250.49 48.1288 251.086 49.1627 251.039 50.1458C250.985 51.2572 250.345 51.9548 249.393 52.4469C246.226 54.0808 243.154 55.8901 240.243 57.9473C237.295 60.0315 234.521 62.3553 231.689 64.5933C230.011 65.9208 227.92 63.4886 229.193 61.8864C231.351 59.1735 233.908 56.7378 236.686 54.5603C217.824 58.8447 197.456 61.6537 180.183 51.1039C179.246 50.5313 178.321 49.9153 177.41 49.2609C174.252 52.016 170.863 54.4862 167.204 56.5504L167.203 56.5524ZM69.9236 40.9807C75.0567 35.0823 79.1802 26.6858 77.0622 18.7043C76.1379 15.222 73.7736 12.2096 70.2241 11.5867C67.0061 11.0219 63.677 12.3819 61.205 14.6224C60.0517 15.6674 58.979 17.141 58.326 18.6204C57.4985 20.4959 57.087 22.5522 57.0234 24.5986C56.8981 28.6771 58.0445 32.7055 59.7539 36.3753C61.2636 39.6133 63.2564 42.5704 65.6161 45.1923C67.1641 43.8996 68.6094 42.4917 69.9221 40.9826L69.9236 40.9807ZM132.271 23.7967C131.977 20.1399 130.356 16.5589 126.961 14.9838C123.74 13.4907 119.706 13.9588 116.679 15.7313C109.029 20.21 108.504 30.9307 111.419 38.4317C113.065 42.6659 115.794 46.3557 119.154 49.3629C120.504 48.2509 121.781 47.0568 122.963 45.7884C128.343 40.0248 132.924 31.9386 132.269 23.7952L132.271 23.7967ZM183.571 33.8579C185.396 30.4375 186.694 26.1025 185.613 22.3822C185.092 20.5835 184.381 19.181 183.221 17.7219C182.28 16.5387 180.862 15.4036 179.472 14.7959C178.134 14.2134 176.667 13.9883 175.07 14.3844C173.242 14.8394 171.7 16.0493 170.548 17.5009C165.012 24.477 170.018 34.775 175.255 40.336C175.866 40.9858 176.504 41.6064 177.161 42.2019C179.643 39.707 181.927 36.9407 183.572 33.856L183.571 33.8579Z" fill="#57D8C8"/>
</svg>
