<svg width="192" height="192" viewBox="0 0 192 192" fill="none" xmlns="http://www.w3.org/2000/svg">
<path d="M13.6465 95.9978C13.6465 128.597 32.5906 156.766 60.061 170.118L20.7766 62.4816C16.0673 73.0273 13.6376 84.4484 13.6465 95.9978ZM151.597 91.8419C151.597 81.6639 147.941 74.6153 144.806 69.1291C140.631 62.3453 136.72 56.6005 136.72 49.8167C136.72 42.2463 142.46 35.1992 150.547 35.1992C150.913 35.1992 151.259 35.2447 151.616 35.2651C136.963 21.8417 117.442 13.646 96.0014 13.646C67.2303 13.646 41.9177 28.4076 27.1921 50.7663C29.1243 50.8243 30.9468 50.8635 32.4919 50.8635C41.106 50.8635 54.44 49.8183 54.44 49.8183C58.8795 49.5566 59.4029 56.0771 54.9697 56.602C54.9697 56.602 50.5067 57.127 45.5423 57.3871L75.5326 146.592L93.5568 92.5393L80.7242 57.3856C76.2894 57.1254 72.0882 56.6005 72.0882 56.6005C67.6503 56.3404 68.1705 49.555 72.6084 49.8167C72.6084 49.8167 86.2089 50.8619 94.3011 50.8619C102.914 50.8619 116.249 49.8167 116.249 49.8167C120.692 49.555 121.214 56.0755 116.777 56.6005C116.777 56.6005 112.307 57.1254 107.352 57.3856L137.113 145.915L145.326 118.465C148.888 107.074 151.597 98.8921 151.597 91.8419Z" fill="#1A7ED4"/>
<path d="M97.4463 103.201L72.7371 175C80.2913 177.227 88.126 178.357 96.0015 178.357C105.592 178.357 114.789 176.698 123.35 173.689C123.12 173.329 122.924 172.95 122.764 172.554L97.4463 103.201ZM168.265 56.4858C168.619 59.1091 168.819 61.9266 168.819 64.9542C168.819 73.3113 167.259 82.7058 162.557 94.4524L137.401 167.184C161.885 152.907 178.353 126.381 178.353 95.9975C178.375 82.187 174.905 68.5952 168.265 56.4858Z" fill="#1A7ED4"/>
<path d="M96.0015 0C43.068 0 0.000732422 43.0642 0.000732422 95.9977C0.000732422 148.937 43.0665 192.002 96.0015 192.002C148.933 192.002 192.007 148.939 192.007 95.9977C192.005 43.0642 148.933 0 96.0015 0ZM96.0015 187.6C45.4954 187.6 4.40258 146.507 4.40258 95.9977C4.40258 45.4931 45.4938 4.40342 96.0015 4.40342C146.506 4.40342 187.596 45.4931 187.596 95.9977C187.596 146.507 146.505 187.6 96.0015 187.6Z" fill="#1A7ED4"/>
</svg>
