<?xml version="1.0" encoding="UTF-8"?> <svg xmlns="http://www.w3.org/2000/svg" width="382" height="70" viewBox="0 0 382 70" fill="none"><path d="M0 0H49.4166V40.8599H38.273V23.4812C38.273 16.1184 32.1705 10.0823 24.6751 10.0823C17.1797 10.0823 11.0773 16.1184 11.0773 23.4812V40.8599H0V0Z" fill="#00928D"></path><path d="M49.4166 44.3091H0V49.4166H49.4166V44.3091Z" fill="#00928D"></path><path d="M102.548 18.9038H83.5107V23.8786H90.5418V49.4824H95.5167V23.8786H102.548V18.9038Z" fill="#00928D"></path><path d="M73.5613 31.5731H72.699H70.3111C68.1885 31.5731 66.4639 29.8485 66.4639 27.7922C66.4639 25.6696 68.1885 24.0114 70.3111 24.0114H79.9954V18.9702H70.3111C65.4026 18.9702 61.3564 22.9501 61.3564 27.8586C61.3564 32.7671 65.3363 36.8796 70.3111 36.8796H72.699H73.5613C75.6839 36.8796 77.4085 38.6042 77.4085 40.6604C77.4085 42.783 75.6839 44.4413 73.5613 44.4413H62.1524V49.4825H73.495C78.4035 49.4825 82.4497 45.5026 82.4497 40.5941C82.4497 35.6856 78.4698 31.5731 73.5613 31.5731Z" fill="#00928D"></path><path d="M116.876 18.9038C110.574 18.9038 105.467 24.0113 105.467 30.3127V49.4824H110.442V36.6805C115.018 36.6805 121.652 36.6142 123.31 36.6805V49.4824H128.285V30.3127C128.285 24.0113 123.177 18.9038 116.876 18.9038ZM123.31 31.6394C121.718 31.573 115.483 31.573 110.442 31.6394V30.3127C110.442 26.7972 113.294 23.8786 116.876 23.8786C120.391 23.8786 123.31 26.7309 123.31 30.3127V31.6394Z" fill="#00928D"></path><path d="M144.536 18.9038H138.102H135.648H133.127V49.4824H138.102V23.8786H144.536C148.051 23.8786 150.97 26.7309 150.97 30.3127V49.4824H155.945V30.3127C155.945 24.0113 150.837 18.9038 144.536 18.9038Z" fill="#00928D"></path><path d="M170.471 18.9702H160.787V49.4825H163.44H165.828H170.471C178.895 49.4825 185.728 42.6504 185.728 34.2263C185.728 25.8686 178.895 18.9702 170.471 18.9702ZM170.471 44.375H165.828V24.144H170.471C176.043 24.144 180.62 28.6545 180.62 34.2927C180.62 39.7981 176.11 44.375 170.471 44.375Z" fill="#00928D"></path><path d="M200.452 18.9038C194.15 18.9038 189.043 24.0113 189.043 30.3127V49.4824H194.018V36.6805C198.329 36.6142 205.029 36.6142 206.886 36.6805V49.4824H211.861V30.3127C211.861 24.0113 206.753 18.9038 200.452 18.9038ZM206.886 31.6394C205.161 31.573 198.993 31.573 194.018 31.6394V30.3127C194.018 26.7972 196.87 23.8786 200.452 23.8786C203.967 23.8786 206.886 26.7309 206.886 30.3127V31.6394Z" fill="#00928D"></path><path d="M260.549 18.9038H241.445V23.8786H248.543V49.4824H253.518V23.8786H260.549V18.9038Z" fill="#00928D"></path><path d="M239.455 27.9249C239.455 22.9501 235.408 18.9702 230.5 18.9702H216.703V22.4194V24.0114V49.4161H221.744V36.8796H226.586C230.964 37.3439 234.414 40.9921 234.414 45.5026V49.4825H239.455V45.5026C239.455 41.5891 237.796 38.0735 235.143 35.5529C237.73 33.961 239.455 31.1751 239.455 27.9249ZM230.5 31.8384H226.586C226.321 31.8384 222.209 31.7721 221.744 31.7721V24.0777H230.5C232.623 24.0777 234.414 25.8023 234.414 27.9912C234.414 30.1138 232.689 31.8384 230.5 31.8384Z" fill="#00928D"></path><path d="M341.738 27.9912C341.738 23.0164 337.692 18.9702 332.717 18.9702H318.854V22.4194V24.0114V49.4161H323.961V36.9459H328.803C333.181 37.4102 336.697 41.0584 336.697 45.5689V49.4161H341.804V45.5689C341.804 41.6554 340.146 38.0735 337.493 35.5529C340.013 34.0937 341.738 31.2414 341.738 27.9912ZM332.717 31.9048H328.803C328.604 31.9048 325.288 31.8384 323.961 31.8384V24.0777H332.783C334.972 24.0777 336.697 25.8686 336.697 27.9912C336.63 30.1801 334.906 31.9048 332.717 31.9048Z" fill="#00928D"></path><path d="M277.993 18.9702H264.13V49.4825H269.569V24.4094H277.993C280.049 24.4094 281.708 26.0676 281.708 28.1239C281.708 30.1802 280.049 31.8384 277.993 31.8384H272.222V37.2776H277.993C283.034 37.2776 287.147 33.165 287.147 28.1239C287.147 23.0827 283.034 18.9702 277.993 18.9702Z" fill="#00928D"></path><path d="M302.469 18.9702C296.035 18.9702 290.795 24.2104 290.795 30.6445V49.4825H296.234V37.2112H308.771V49.4825H314.21V30.6445C314.143 24.2104 308.903 18.9702 302.469 18.9702ZM308.704 31.8384H296.168V30.6445C296.168 27.1952 298.954 24.4094 302.403 24.4094C305.852 24.4094 308.638 27.1952 308.638 30.6445V31.8384H308.704Z" fill="#00928D"></path><path d="M369.264 23.8124V18.9702H364.223V23.8124C364.223 28.1902 360.641 31.7721 356.263 31.7721H355.998C355.865 31.7721 355.666 31.7721 355.534 31.7721H351.687V18.9702H346.646V49.4825H351.687V36.8133H355.799C360.509 36.9459 364.223 40.7931 364.223 45.5026V49.4825H369.264V45.5026C369.264 40.9921 367.075 37.0122 363.693 34.4917C367.075 32.1037 369.264 28.1902 369.264 23.8124Z" fill="#00928D"></path><path d="M379.746 21.9547C379.746 21.2914 379.215 20.7607 378.552 20.7607H376.694V21.2251V21.4241V24.8733H377.358V23.215H378.021C378.618 23.2813 379.082 23.7456 379.082 24.4089V24.9396H379.746V24.4089C379.746 23.8783 379.547 23.414 379.149 23.0823C379.48 22.7507 379.746 22.419 379.746 21.9547ZM378.485 22.4854H377.955C377.955 22.4854 377.49 22.4854 377.291 22.4854V21.4241H378.485C378.751 21.4241 379.016 21.6894 379.016 21.9547C379.016 22.22 378.817 22.4854 378.485 22.4854Z" fill="#00928D"></path><path d="M378.154 26.6641C376.031 26.6641 374.307 24.9395 374.307 22.8169C374.307 20.6943 376.031 18.9697 378.154 18.9697C380.276 18.9697 382.001 20.6943 382.001 22.8169C382.001 24.9395 380.276 26.6641 378.154 26.6641ZM378.154 19.633C376.429 19.633 374.97 21.026 374.97 22.8169C374.97 24.5415 376.363 26.0008 378.154 26.0008C379.945 26.0008 381.338 24.6079 381.338 22.8169C381.338 21.026 379.945 19.633 378.154 19.633Z" fill="#00928D"></path><path d="M7.29641 69.4469H5.83712L3.6482 65.7324H1.32662V69.4469H0V59.6963H3.91353C4.77583 59.6963 5.43914 59.9616 6.03612 60.5586C6.6331 61.1556 6.89842 61.8852 6.89842 62.6812C6.89842 63.3445 6.69943 63.8751 6.30144 64.4058C5.90346 64.9364 5.43914 65.3344 4.84216 65.5334L7.29641 69.4469ZM3.97986 60.8902H1.39295V64.5384H3.97986C4.44417 64.5384 4.84216 64.3395 5.17381 64.0078C5.50547 63.6761 5.70446 63.2118 5.70446 62.6812C5.70446 62.1505 5.50547 61.7525 5.17381 61.4209C4.84216 61.0892 4.44417 60.8902 3.97986 60.8902Z" fill="#3F4B50"></path><path d="M16.0522 65.1354V68.253H20.5627V69.4469H14.7256V59.6963H20.4964V60.8902H16.0522V63.8751H20.1647V65.0691H16.0522V65.1354Z" fill="#3F4B50"></path><path d="M28.3232 69.4469V59.6963H29.6499V69.4469H28.3232Z" fill="#3F4B50"></path><path d="M43.911 66.9268V59.6304H45.2377V69.381H44.1764L39.1352 62.0846V69.381H37.8086V59.6304H38.8699L43.911 66.9268Z" fill="#3F4B50"></path><path d="M57.4426 69.4469H55.9833L52.4678 59.6963H53.8607L56.713 67.855L59.4989 59.6963H60.8918L57.4426 69.4469Z" fill="#3F4B50"></path><path d="M69.5815 65.1354V68.253H74.092V69.4469H68.2549V59.6963H74.0257V60.8902H69.5815V63.8751H73.694V65.0691H69.5815V65.1354Z" fill="#3F4B50"></path><path d="M87.8886 66.9268V59.6304H89.2152V69.381H88.1539L83.1128 62.0846V69.381H81.7861V59.6304H82.8474L87.8886 66.9268Z" fill="#3F4B50"></path><path d="M96.6445 59.6963H103.676V60.8902H100.823V69.4469H99.5631V60.8902H96.6445V59.6963Z" fill="#3F4B50"></path><path d="M111.104 69.4469V59.6963H112.431V69.4469H111.104Z" fill="#3F4B50"></path><path d="M126.692 66.9268V59.6304H128.019V69.381H126.958L121.916 62.0846V69.381H120.59V59.6304H121.651L126.692 66.9268Z" fill="#3F4B50"></path><path d="M140.821 64.6051H145.73V65.2021C145.73 66.4624 145.266 67.5237 144.403 68.386C143.541 69.2483 142.347 69.6463 140.954 69.6463C139.495 69.6463 138.235 69.182 137.24 68.187C136.245 67.192 135.78 65.9981 135.78 64.6051C135.78 63.2122 136.245 62.0182 137.24 61.0233C138.235 60.0283 139.428 59.564 140.888 59.564C141.75 59.564 142.612 59.763 143.342 60.2273C144.138 60.6916 144.669 61.2222 145.067 61.9519L143.939 62.6152C143.674 62.0845 143.209 61.6866 142.679 61.3549C142.082 61.0233 141.485 60.8906 140.821 60.8906C139.694 60.8906 138.765 61.2886 138.102 62.0182C137.372 62.7479 137.041 63.6765 137.041 64.7378C137.041 65.7991 137.372 66.7277 138.102 67.4573C138.831 68.187 139.76 68.5186 140.888 68.5186C141.816 68.5186 142.612 68.2533 143.209 67.789C143.806 67.3247 144.204 66.7277 144.337 65.9317H140.755V64.6051H140.821Z" fill="#3F4B50"></path><path d="M162.245 59.6963H169.276V60.8902H166.424V69.4469H165.164V60.8902H162.311V59.6963H162.245Z" fill="#3F4B50"></path><path d="M182.741 63.8088V59.6963H184.001V69.4469H182.741V65.0691H178.032V69.4469H176.705V59.6963H178.032V63.8088H182.741Z" fill="#3F4B50"></path><path d="M193.62 65.1354V68.253H198.13V69.4469H192.293V59.6963H198.064V60.8902H193.62V63.8751H197.732V65.0691H193.62V65.1354Z" fill="#3F4B50"></path><path d="M216.77 65.1354V68.253H221.28V69.4469H215.443V59.6963H221.214V60.8902H216.77V63.8751H220.882V65.0691H216.77V65.1354Z" fill="#3F4B50"></path><path d="M235.077 66.9268V59.6304H236.404V69.381H235.342L230.301 62.0846V69.381H228.975V59.6304H230.036L235.077 66.9268Z" fill="#3F4B50"></path><path d="M248.675 69.4469H247.216L243.7 59.6963H245.093L247.945 67.855L250.731 59.6963H252.124L248.675 69.4469Z" fill="#3F4B50"></path><path d="M259.486 69.4469V59.6963H260.813V69.4469H259.486Z" fill="#3F4B50"></path><path d="M276.202 69.4469H274.742L272.553 65.7324H270.232V69.4469H268.905V59.6963H272.819C273.681 59.6963 274.344 59.9616 274.941 60.5586C275.538 61.1556 275.804 61.8852 275.804 62.6812C275.804 63.3445 275.605 63.8751 275.207 64.4058C274.809 64.9364 274.344 65.3344 273.747 65.5334L276.202 69.4469ZM272.885 60.8902H270.298V64.5384H272.885C273.349 64.5384 273.747 64.3395 274.079 64.0078C274.411 63.6761 274.61 63.2118 274.61 62.6812C274.61 62.1505 274.411 61.7525 274.079 61.4209C273.814 61.0892 273.416 60.8902 272.885 60.8902Z" fill="#3F4B50"></path><path d="M283.101 64.5387C283.101 63.1458 283.565 61.9518 284.56 60.9568C285.555 59.9619 286.749 59.4976 288.142 59.4976C289.535 59.4976 290.729 59.9619 291.724 60.9568C292.719 61.9518 293.183 63.1458 293.183 64.5387C293.183 65.9317 292.719 67.1256 291.724 68.1206C290.729 69.1155 289.535 69.5799 288.142 69.5799C286.749 69.5799 285.555 69.1155 284.56 68.1206C283.631 67.1256 283.101 65.9317 283.101 64.5387ZM291.923 64.5387C291.923 63.4774 291.591 62.5488 290.861 61.8191C290.132 61.0895 289.269 60.6915 288.208 60.6915C287.147 60.6915 286.218 61.0895 285.489 61.8191C284.759 62.5488 284.427 63.4774 284.427 64.5387C284.427 65.6 284.759 66.5286 285.489 67.2583C286.218 67.9879 287.08 68.3196 288.208 68.3196C289.269 68.3196 290.198 67.9879 290.861 67.2583C291.591 66.5286 291.923 65.6 291.923 64.5387Z" fill="#3F4B50"></path><path d="M306.979 66.9268V59.6304H308.306V69.381H307.245L302.204 62.0846V69.381H300.877V59.6304H301.938L306.979 66.9268Z" fill="#3F4B50"></path><path d="M324.226 59.6963H325.685V69.4469H324.425V61.8189L321.241 67.1253H321.042L317.858 61.8189V69.4469H316.531V59.6963H317.991L321.108 64.8701L324.226 59.6963Z" fill="#3F4B50"></path><path d="M335.237 65.1354V68.253H339.747V69.4469H333.91V59.6963H339.681V60.8902H335.237V63.8751H339.349V65.0691H335.237V65.1354Z" fill="#3F4B50"></path><path d="M353.544 66.9268V59.6304H354.87V69.381H353.809L348.768 62.0846V69.381H347.441V59.6304H348.503L353.544 66.9268Z" fill="#3F4B50"></path><path d="M362.3 59.6963H369.331V60.8902H366.479V69.4469H365.218V60.8902H362.366V59.6963H362.3Z" fill="#3F4B50"></path></svg> 