<?xml version="1.0" encoding="UTF-8"?> <svg xmlns="http://www.w3.org/2000/svg" width="142" height="162" viewBox="0 0 142 162" fill="none"><g clip-path="url(#clip0_4363_13595)"><path d="M142 93.1769H0V88.6683H31.0927C28.5491 84.5263 26.2393 80.2439 24.174 75.8415L62.3723 79.824C62.4209 79.8235 62.4677 79.8054 62.5041 79.773C62.5405 79.7406 62.5641 79.6961 62.5704 79.6477C62.5768 79.5993 62.5656 79.5502 62.5388 79.5094C62.512 79.4686 62.4715 79.4389 62.4246 79.4258L22.895 72.5577C20.8681 67.9891 20.0752 64.3972 19.1552 59.3176L61.6468 71.2728C61.6957 71.2842 61.7472 71.2768 61.791 71.2521C61.8348 71.2274 61.868 71.1872 61.8838 71.1393C61.8997 71.0914 61.8973 71.0392 61.877 70.9931C61.8566 70.9469 61.8199 70.91 61.7739 70.8896L18.5195 55.5154C17.9826 51.4046 17.8923 47.2473 18.2502 43.1168L61.6318 62.9921C61.6786 63.0058 61.7287 63.0026 61.7734 62.9832C61.8182 62.9638 61.8548 62.9293 61.8769 62.8857C61.8991 62.8421 61.9054 62.7921 61.8948 62.7443C61.8842 62.6965 61.8573 62.6539 61.8188 62.6239L18.7663 39.3747C19.1887 36.2714 19.9178 33.2181 20.9428 30.2599L21.7656 27.8779C21.8853 27.5623 22.005 27.2467 22.1246 26.9461L62.6116 53.9975C62.6542 54.0173 62.7023 54.0215 62.7476 54.0096C62.7929 53.9976 62.8327 53.9702 62.8602 53.932C62.8876 53.8938 62.9009 53.8472 62.8979 53.8002C62.8948 53.7532 62.8756 53.7087 62.8435 53.6744L23.5233 23.7451C24.204 22.3098 24.937 20.9723 25.7672 19.5371L27.0088 17.5157C28.0968 15.7511 29.2803 14.0478 30.5541 12.4136L65.1771 44.2515C65.2168 44.2914 65.2706 44.3137 65.3267 44.3137C65.3828 44.3137 65.4367 44.2914 65.4763 44.2515C65.516 44.2116 65.5383 44.1576 65.5383 44.1012C65.5383 44.0448 65.516 43.9908 65.4763 43.9509L32.6634 9.85871L33.2318 9.19746C34.9142 7.24102 36.7285 5.40319 38.662 3.69702L40.2925 2.25428C42.0802 0.751426 43.2096 0 43.2096 0L68.9394 34.8887C79.7848 11.1061 98.3342 0 98.3342 0V74.7369L106.794 86.2111H125.814L130.01 90.4266L142 93.1769Z" fill="#1C1B1D"></path><path d="M19.1702 117.869C20.7259 119.682 21.5063 122.355 21.5113 125.886V139.134H17.2031V125.886C17.2031 121.538 15.4304 119.361 11.8851 119.356C9.93119 119.256 7.99811 119.799 6.38009 120.904C5.00883 121.956 4.3232 123.617 4.3232 125.886V139.134H0V106.019H4.3232V120.13C4.85321 118.565 5.91168 117.236 7.31504 116.373C8.91964 115.503 10.7288 115.085 12.5508 115.163C15.398 115.158 17.6045 116.06 19.1702 117.869Z" fill="#1C1B1D"></path><path d="M43.8981 117.275C45.5835 118.843 46.4262 121.41 46.4262 124.977V139.134H42.1104V134.295C41.5654 135.823 40.5847 137.155 39.2906 138.127C37.9203 139.138 36.2559 139.666 34.556 139.63C31.4371 139.63 29.1633 138.939 27.7421 137.571C27.05 136.926 26.5015 136.142 26.1328 135.269C25.7641 134.396 25.5835 133.454 25.603 132.506C25.603 127.938 28.5948 125.273 34.5785 124.511L36.583 124.233C38.0337 124.111 39.4541 123.748 40.7865 123.159C41.128 123.019 41.4228 122.784 41.6361 122.482C41.8494 122.18 41.9724 121.823 41.9908 121.453C41.9908 120.015 40.1882 119.299 36.583 119.304C35.0602 119.208 33.5446 119.58 32.2374 120.371C31.2401 121.092 30.7415 122.345 30.7415 124.128H26.3734C26.3734 121.027 27.3133 118.728 29.1932 117.23C31.3204 115.655 33.9205 114.859 36.5606 114.976C39.7718 114.94 42.2176 115.707 43.8981 117.275ZM42.1104 126.525C40.4018 127.495 38.5126 128.101 36.5606 128.306L34.556 128.629C33.2603 128.729 32.0212 129.204 30.9883 129.997C30.6649 130.265 30.4022 130.599 30.2177 130.978C30.0333 131.356 29.9313 131.77 29.9187 132.191C29.8945 132.624 29.9775 133.057 30.1602 133.45C30.3429 133.843 30.6197 134.185 30.9658 134.445C31.6614 134.979 32.8582 135.242 34.556 135.242C37.0193 135.242 38.8917 134.678 40.1732 133.551C41.4597 132.424 42.1104 130.387 42.1104 127.434V126.525Z" fill="#1C1B1D"></path><path d="M52.0583 115.156H56.6059V139.134C56.6059 142.545 55.6235 145.225 53.6589 147.174C51.6943 149.123 48.9642 150.097 45.4688 150.097V145.777C47.2065 145.892 48.9251 145.356 50.2931 144.274C51.4375 143.252 52.0358 141.538 52.0583 139.134V115.156ZM57.8849 106.019L54.3321 111.82L50.8615 106.019H57.8849Z" fill="#1C1B1D"></path><path d="M67.2505 134.04C68.4023 134.911 70.1151 135.34 72.3889 135.34C73.916 135.431 75.4451 135.198 76.8767 134.656C77.3026 134.486 77.6664 134.188 77.9191 133.804C78.1719 133.42 78.3014 132.967 78.2903 132.507C78.3129 132.1 78.2227 131.695 78.0299 131.337C77.8371 130.979 77.5493 130.682 77.1983 130.478C75.997 129.878 74.71 129.47 73.3837 129.268L70.519 128.674C67.5272 128.123 65.3132 127.284 63.8772 126.157C63.1809 125.616 62.6235 124.916 62.2513 124.115C61.8792 123.314 61.7032 122.434 61.738 121.551C61.6971 120.552 61.9138 119.559 62.3673 118.669C62.8207 117.779 63.4954 117.022 64.3259 116.471C66.0413 115.284 68.4422 114.69 71.5288 114.69C74.7749 114.69 77.2457 115.504 78.9411 117.133C79.7967 117.977 80.466 118.993 80.9055 120.114C81.3449 121.235 81.5446 122.436 81.4916 123.64H77.1684C77.2106 122.993 77.115 122.345 76.888 121.739C76.661 121.132 76.3078 120.582 75.852 120.123C74.9694 119.304 73.5333 118.891 71.5288 118.891C70.1302 118.816 68.7309 119.025 67.415 119.507C67.0088 119.665 66.6616 119.945 66.4217 120.31C66.1817 120.675 66.0609 121.106 66.0762 121.543C66.0635 121.965 66.1545 122.383 66.3411 122.76C66.5277 123.138 66.804 123.463 67.1457 123.708C68.1707 124.361 69.3286 124.774 70.534 124.917L73.3089 125.376C76.6049 125.922 78.9909 126.721 80.4669 127.773C81.207 128.307 81.8008 129.02 82.1931 129.846C82.5854 130.673 82.7634 131.585 82.7108 132.499C82.768 133.558 82.5381 134.613 82.0454 135.552C81.5528 136.49 80.8159 137.276 79.9134 137.827C78.0535 138.999 75.5603 139.585 72.4338 139.585C68.7987 139.585 66.0263 138.771 64.1165 137.143C63.1596 136.308 62.4039 135.265 61.9064 134.093C61.4089 132.922 61.1825 131.652 61.2443 130.38H65.5227C65.4905 131.086 65.6312 131.788 65.9324 132.426C66.2337 133.064 66.6863 133.618 67.2505 134.04Z" fill="#1C1B1D"></path><path d="M93.3436 118.808V129.997C93.2914 131.059 93.3998 132.123 93.6652 133.153C93.7573 133.44 93.92 133.699 94.1383 133.907C94.3566 134.115 94.6235 134.263 94.9143 134.34C95.9687 134.562 97.0464 134.653 98.123 134.61V139.119C96.3414 139.19 94.5631 138.912 92.8873 138.3C91.6127 137.762 90.5816 136.769 89.9927 135.512C89.2653 133.768 88.9283 131.886 89.0054 129.997V118.808H84.9141V115.156H89.0054V106.928L93.3211 106.019V115.156H98.1006V118.808H93.3436Z" fill="#1C1B1D"></path><path d="M111.939 135.257C113.629 135.353 115.312 134.984 116.808 134.19C117.381 133.834 117.875 133.364 118.261 132.81C118.647 132.256 118.916 131.628 119.052 130.966H123.413C123.195 132.587 122.561 134.122 121.573 135.422C120.529 136.757 119.169 137.809 117.616 138.48C115.829 139.253 113.899 139.635 111.954 139.6C109.691 139.663 107.451 139.124 105.462 138.037C103.681 137.025 102.247 135.495 101.348 133.649C100.424 131.601 99.9453 129.379 99.9453 127.13C99.9453 124.882 100.424 122.659 101.348 120.611C102.255 118.776 103.687 117.255 105.462 116.246C107.449 115.17 109.683 114.636 111.939 114.698C115.612 114.698 118.491 115.877 120.601 118.237C122.71 120.596 123.764 124.166 123.764 128.945H104.318C104.851 133.153 107.392 135.257 111.939 135.257ZM104.347 125.436H119.352C119.112 123.061 118.349 121.393 117.108 120.439C115.598 119.406 113.793 118.899 111.969 118.996C107.372 118.991 104.831 121.135 104.347 125.428V125.436Z" fill="#1C1B1D"></path><path d="M140.545 115.314C141.06 115.419 141.553 115.612 142.003 115.885V120.394C141.507 120.08 140.968 119.842 140.403 119.687C139.285 119.418 138.122 119.407 137 119.656C135.877 119.904 134.826 120.406 133.925 121.123C132.759 122.22 132.175 123.88 132.175 126.105V139.119H127.859V115.156H132.175V119.477C132.733 118.2 133.631 117.103 134.771 116.306C135.914 115.541 137.264 115.15 138.637 115.186C139.276 115.166 139.915 115.209 140.545 115.314Z" fill="#1C1B1D"></path></g><defs><clipPath id="clip0_4363_13595"><rect width="142" height="162" fill="white"></rect></clipPath></defs></svg> 