<?xml version="1.0" encoding="UTF-8"?> <svg xmlns="http://www.w3.org/2000/svg" width="141" height="141" viewBox="0 0 141 141" fill="none"><path d="M75.2571 0V65.743H141V0H75.2571ZM129.479 47.481L122.738 54.222L108.129 39.6125L93.519 54.222L86.778 47.481L101.388 32.8715L86.778 18.2619L93.519 11.5209L108.129 26.1305L122.763 11.5209L129.504 18.2619L114.894 32.8715L129.479 47.481Z" fill="black"></path><path d="M0 65.743H65.743V0H0V65.743ZM15.6391 48.0938C15.8107 38.1172 24.2675 34.857 31.0821 32.2587C36.1807 30.2976 40.593 28.6063 40.7891 24.8558C40.9116 22.8458 40.4949 21.3015 39.5389 20.2229C38.4849 19.0463 36.6709 18.36 34.1952 18.1884L31.94 18.2374C27.3316 18.5561 25.2725 21.1054 25.2725 26.4492V27.4297H16.0558V26.4492C16.0558 16.1784 21.5221 10.5404 31.8419 10.1728L33.1166 10.1482H33.2392H33.4108L34.1461 10.1728C39.9066 10.3689 44.1963 11.9867 46.9172 14.9527C49.295 17.5266 50.3735 21.0319 50.1529 25.3706C49.6872 34.0481 41.9166 37.0386 35.0531 39.6615C29.6358 41.7451 24.9784 43.559 24.8313 47.6036H50.0794V55.6192H49.0989C37.8475 55.5457 33.5823 55.5457 26.1305 55.5457H24.8068H24.0224H15.5655L15.6391 48.0938Z" fill="black"></path><path d="M0 140.997H65.743V75.2544H0V140.997ZM12.7956 110.749L36.2297 86.9714L38.632 84.4712L45.3484 90.2806V90.3052L21.6202 114.033H34.9796L45.3729 103.64V114.94H52.9719V122.809H45.3729V131.805H35.9356V122.809H12.7956V110.749Z" fill="black"></path><path d="M75.2571 140.997H141V75.2544H75.2571V140.997ZM83.8855 107.783C83.8855 105.601 85.6259 103.861 87.8076 103.861C93.519 103.861 104.648 106.851 105.726 107.145C104.746 106.582 94.7446 100.821 90.7246 96.801C89.1803 95.2567 89.1803 92.7809 90.7246 91.2366L91.2148 90.7464C92.7591 89.2021 95.2349 89.2021 96.7792 90.7464C100.824 94.791 106.56 104.768 107.124 105.748C106.829 104.645 103.839 93.5163 103.839 87.8294C103.839 85.6478 105.604 83.9074 107.761 83.9074H108.472C110.653 83.9074 112.394 85.6478 112.394 87.8294C112.394 93.5408 109.403 104.67 109.109 105.748C109.673 104.768 115.433 94.7665 119.453 90.7464C120.998 89.2021 123.473 89.2021 125.018 90.7464L125.508 91.2366C127.052 92.7809 127.052 95.2567 125.508 96.801C121.463 100.846 111.487 106.582 110.506 107.145C111.609 106.851 122.738 103.861 128.425 103.861C130.607 103.861 132.347 105.626 132.347 107.783V108.494C132.347 110.675 130.607 112.416 128.425 112.416C122.714 112.416 111.585 109.425 110.506 109.131C111.487 109.695 121.488 115.455 125.508 119.475C127.052 121.02 127.052 123.495 125.508 125.04L125.018 125.53C123.473 127.074 120.998 127.074 119.453 125.53C115.409 121.485 109.673 111.509 109.109 110.528C109.403 111.631 112.394 122.76 112.394 128.447C112.394 130.628 110.629 132.369 108.472 132.369H107.761C105.579 132.369 103.839 130.628 103.839 128.447C103.839 122.735 106.829 111.607 107.124 110.528C106.56 111.509 100.799 121.51 96.7792 125.53C95.2349 127.074 92.7591 127.074 91.2148 125.53L90.7246 125.04C89.1803 123.495 89.1803 121.02 90.7246 119.475C94.7692 115.431 104.746 109.695 105.726 109.131C104.623 109.425 93.4945 112.416 87.8076 112.416C85.6259 112.416 83.8855 110.651 83.8855 108.494V107.783Z" fill="black"></path></svg> 