<?xml version="1.0" encoding="UTF-8"?> <svg xmlns="http://www.w3.org/2000/svg" width="64" height="64" viewBox="0 0 64 64" fill="none"><g clip-path="url(#clip0_5702_16034)"><path d="M21.134 1.59138C24.3806 0.53047 27.7793 -0.00343906 31.1608 1.66678e-05C34.5422 0.00347239 37.9046 0.546021 41.0856 1.59311C44.2666 2.63846 47.2592 4.19008 49.9236 6.16157C47.1366 4.36805 44.0783 3.03414 40.9042 2.21514C37.7301 1.3944 34.442 1.08857 31.2022 1.29764C27.9642 1.50671 24.7763 2.22723 21.7975 3.42291C18.8169 4.61514 16.0472 6.28252 13.6195 8.32831C13.0718 8.78965 12.2528 8.72054 11.7897 8.1728C11.3284 7.62507 11.3975 6.80606 11.9452 6.343C13.2307 5.26136 16.9837 2.94602 21.134 1.59311V1.59138Z" fill="#B0B2BC"></path><path d="M51.9874 57.7123C49.209 59.7598 46.1161 61.3494 42.8678 62.4086C39.6211 63.4695 36.2207 64.0034 32.841 64C29.4596 63.9965 26.0971 63.4539 22.9161 62.4069C19.7351 61.3615 16.7408 59.8099 14.0781 57.8384C16.8652 59.6319 19.9235 60.9658 23.0993 61.7848C26.2734 62.6056 29.5615 62.9114 32.8012 62.7023C36.0392 62.4933 39.2272 61.771 42.206 60.5771C45.1866 59.3848 47.9563 57.7174 50.384 55.6717C50.9317 55.2103 51.7507 55.2794 52.2138 55.8272C52.6958 56.3991 52.5974 57.2596 51.9943 57.7071L51.9891 57.7105L51.9874 57.7123Z" fill="#B0B2BC"></path><path d="M1.59138 42.8665C0.53047 39.6199 -0.00343906 36.2212 1.66678e-05 32.8398C0.00347239 29.4583 0.546021 26.0959 1.59311 22.9149C2.63846 19.7339 4.19008 16.7413 6.16157 14.0769C4.36805 16.8639 3.03414 19.9223 2.21514 23.0963C1.3944 26.2704 1.08857 29.5585 1.29764 32.7983C1.50671 36.0363 2.22896 39.2242 3.42291 42.203C4.61514 45.1836 6.28252 47.9534 8.32831 50.381C8.78965 50.9287 8.72054 51.7477 8.1728 52.2108C7.62507 52.6721 6.80606 52.603 6.343 52.0553C5.26136 50.7698 2.94602 47.0169 1.59311 42.8665H1.59138Z" fill="#B0B2BC"></path><path d="M62.4094 21.1335C63.4704 24.3801 64.0043 27.7806 64.0008 31.1603C63.9973 34.5417 63.4548 37.9041 62.4077 41.0851C61.3624 44.2661 59.8107 47.2588 57.8392 49.9231C59.6328 47.1361 60.9667 44.0778 61.7857 40.9037C62.6064 37.7296 62.9123 34.4415 62.7032 31.2017C62.4941 27.9637 61.7736 24.7758 60.5779 21.797C59.3857 18.8164 57.7183 16.0467 55.6725 13.619C55.2112 13.0713 55.2803 12.2523 55.828 11.7892C56.3758 11.3279 57.1948 11.397 57.6578 11.9447C58.3282 12.7378 60.8647 16.4026 62.4077 21.1335H62.4094Z" fill="#B0B2BC"></path><path d="M6.91944 20.1261C8.26199 17.5136 10.014 15.1343 12.0788 13.0972C14.1436 11.0583 16.5194 9.36154 19.087 8.08293C21.6529 6.80258 24.4106 5.94556 27.2149 5.54297C24.4486 6.15809 21.7998 7.21554 19.3981 8.65139C16.9946 10.0855 14.8382 11.898 13.024 13.9853C11.2097 16.0726 9.74104 18.4345 8.68186 20.952C7.62096 23.4678 6.97473 26.1374 6.76221 28.8242C6.70519 29.5395 6.0797 30.0734 5.36437 30.0164C4.64903 29.9594 4.11512 29.3339 4.17214 28.6186C4.18769 28.4112 4.70605 24.4233 6.91771 20.1261H6.91944Z" fill="#B0B2BC"></path><path d="M57.0806 43.8738C55.7381 46.4864 53.986 48.8656 51.9212 50.9028C49.8564 52.9416 47.4806 54.6384 44.913 55.917C42.3471 57.1974 39.5895 58.0544 36.7852 58.457C39.5515 57.8419 42.1986 56.7844 44.602 55.3486C47.0055 53.9144 49.1618 52.1019 50.9761 50.0146C52.7903 47.9274 54.259 45.5654 55.3182 43.0479C56.3791 40.5321 57.0253 37.8626 57.2379 35.1758C57.2949 34.4604 57.9204 33.9265 58.6357 33.9835C59.351 34.0406 59.8849 34.6661 59.8279 35.3814C59.8124 35.5697 59.2975 39.5697 57.0823 43.8738H57.0806Z" fill="#B0B2BC"></path><path d="M28.5166 59.8169C25.581 59.3573 22.7369 58.426 20.1261 57.0834C17.5136 55.7409 15.1343 53.9888 13.0972 51.924C11.0583 49.8592 9.36154 47.4834 8.08293 44.9158C6.80258 42.35 5.94556 39.5923 5.54297 36.788C6.15809 39.5543 7.21554 42.2031 8.65139 44.6048C10.0855 47.0083 11.898 49.1646 13.9853 50.9789C16.0726 52.7931 18.4345 54.2618 20.952 55.321C23.4678 56.3819 26.1374 57.0281 28.8242 57.2407C29.5395 57.2977 30.0734 57.9232 30.0164 58.6385C29.9594 59.3538 29.3339 59.8877 28.6186 59.8307C28.5857 59.829 28.5546 59.8238 28.5235 59.8204H28.5166V59.8169Z" fill="#B0B2BC"></path><path d="M43.8749 6.91834C46.4875 8.26089 48.8667 10.0129 50.9039 12.0777C52.9427 14.1425 54.6395 16.5183 55.9181 19.0859C57.1985 21.6518 58.0555 24.4095 58.4581 27.2138C57.843 24.4475 56.7855 21.8004 55.3497 19.397C53.9155 16.9935 52.103 14.8371 50.0157 13.0229C47.9285 11.2086 45.5665 9.73994 43.049 8.68076C40.5332 7.61986 37.8637 6.97364 35.1769 6.76111C34.4615 6.70409 33.9276 6.0786 33.9846 5.36327C34.0417 4.64793 34.6671 4.11402 35.3825 4.17104C35.6745 4.19351 39.6486 4.74124 43.8749 6.91662V6.91834Z" fill="#B0B2BC"></path><path d="M24.4042 10.7491C26.685 10.0372 29.0608 9.69853 31.4159 9.73481C33.7693 9.76937 36.1001 10.1806 38.2928 10.9374C40.4872 11.6925 42.5416 12.7966 44.3576 14.1841C42.4172 12.9746 40.2971 12.0882 38.1096 11.5594C35.9222 11.029 33.6656 10.8545 31.4556 11.0307C29.244 11.2069 27.0807 11.7339 25.0677 12.5789C23.0548 13.4221 21.1956 14.5832 19.5749 15.9931C19.034 16.4648 18.2133 16.4078 17.7416 15.867C17.2699 15.3262 17.3269 14.5054 17.8677 14.0337C18.0405 13.8834 20.66 11.9136 24.4042 10.7473V10.7491Z" fill="#B0B2BC"></path><path d="M46.0285 50.0457C44.0588 51.4574 41.8748 52.5408 39.594 53.2509C37.3132 53.9628 34.9374 54.3015 32.5823 54.2652C30.229 54.2306 27.8981 53.8194 25.7054 53.0626C23.511 52.3075 21.4566 51.2034 19.6406 49.8159C21.581 51.0254 23.7011 51.9118 25.8886 52.4406C28.076 52.971 30.3326 53.1455 32.5426 52.9693C34.7525 52.793 36.9175 52.266 38.9305 51.4211C40.9434 50.5779 42.8026 49.4168 44.4233 48.0069C44.9642 47.5352 45.7849 47.5922 46.2566 48.133C46.7283 48.6738 46.6713 49.4946 46.1305 49.9663C46.0994 49.9939 46.0683 50.0181 46.0354 50.0423L46.0285 50.0475V50.0457Z" fill="#B0B2BC"></path><path d="M10.7474 39.5957C10.0355 37.3149 9.69682 34.9391 9.7331 32.584C9.76766 30.2307 10.1789 27.8998 10.9357 25.7071C11.6908 23.5127 12.7949 21.4583 14.1823 19.6423C12.9728 21.5827 12.0865 23.7028 11.5577 25.8903C11.0273 28.0778 10.8528 30.3343 11.029 32.5443C11.2052 34.7559 11.7322 36.9192 12.5772 38.9322C13.4204 40.9451 14.5815 42.8043 15.9914 44.4251C16.4631 44.9659 16.4061 45.7866 15.8653 46.2583C15.3245 46.73 14.5037 46.673 14.032 46.1322C13.8817 45.9594 11.9102 43.3348 10.7456 39.5957H10.7474Z" fill="#B0B2BC"></path><path d="M53.2513 24.4044C53.9632 26.6851 54.3018 29.061 54.2655 31.416C54.231 33.7694 53.8198 36.1003 53.063 38.2929C52.3079 40.4873 51.2038 42.5417 49.8163 44.3577C51.0258 42.4173 51.9122 40.2972 52.4409 38.1098C52.9714 35.9223 53.1459 33.6657 52.9697 31.4558C52.7934 29.2458 52.2664 27.0808 51.4215 25.0679C50.5783 23.0549 49.4172 21.1957 48.0072 19.575C47.5355 19.0342 47.5925 18.2134 48.1334 17.7417C48.6742 17.27 49.4949 17.327 49.9666 17.8679C50.117 18.0407 52.0867 20.6584 53.253 24.4044H53.2513Z" fill="#B0B2BC"></path><path d="M16.1309 24.4889C17.0156 22.8527 18.1543 21.3771 19.4813 20.1226C20.8083 18.8699 22.3219 17.8401 23.9426 17.0781C25.5633 16.3162 27.2912 15.822 29.0346 15.6129C27.3292 16.0362 25.7102 16.7291 24.2536 17.6483C22.797 18.5658 21.5011 19.7097 20.4264 21.0108C19.3517 22.3136 18.4947 23.7736 17.8934 25.3131C17.2903 26.8527 16.9448 28.4734 16.8584 30.0907C16.8204 30.8077 16.2087 31.3589 15.4899 31.3209C14.7728 31.2829 14.2217 30.6712 14.2597 29.9524C14.2752 29.6708 14.6985 27.1291 16.1292 24.4889H16.1309Z" fill="#B0B2BC"></path><path d="M47.8685 39.511C46.9839 41.1472 45.8452 42.6228 44.5182 43.8773C43.1912 45.13 41.6776 46.1598 40.0569 46.92C38.4361 47.682 36.7083 48.1762 34.9648 48.3853C36.6702 47.9619 38.2892 47.2691 39.7458 46.3498C41.2024 45.4323 42.4983 44.2885 43.573 42.9874C44.6478 41.6846 45.5048 40.2246 46.1061 38.685C46.7091 37.1455 47.0547 35.5248 47.1411 33.9075C47.1791 33.1904 47.7908 32.6393 48.5096 32.6773C49.2266 32.7153 49.7778 33.3269 49.7398 34.0457C49.7242 34.3326 49.2975 36.876 47.8702 39.5092L47.8685 39.511Z" fill="#B0B2BC"></path><path d="M24.4876 47.8686C22.8513 46.984 21.3757 45.8453 20.1213 44.5183C18.8686 43.1913 17.8388 41.6777 17.0785 40.057C16.3165 38.4362 15.8224 36.7084 15.6133 34.965C16.0366 36.6704 16.7295 38.2894 17.6487 39.746C18.5679 41.2025 19.71 42.4984 21.0111 43.5732C22.3139 44.6479 23.774 45.5049 25.3135 46.1062C26.853 46.7092 28.4738 47.0548 30.091 47.1412C30.8081 47.1792 31.3593 47.7909 31.3213 48.5097C31.2833 49.2267 30.6716 49.7779 29.9528 49.7399C29.6712 49.7244 27.1278 49.2993 24.4893 47.8704L24.4876 47.8686Z" fill="#B0B2BC"></path><path d="M39.5096 16.1313C41.1459 17.016 42.6215 18.1546 43.8759 19.4816C45.1286 20.8086 46.1584 22.3222 46.9204 23.943C47.6824 25.5637 48.1766 27.2916 48.3856 29.035C47.9623 27.3296 47.2694 25.7106 46.3502 24.254C45.431 22.7974 44.2889 21.5015 42.9878 20.4268C41.685 19.352 40.2249 18.495 38.6854 17.8937C37.1459 17.2907 35.5252 16.9451 33.9079 16.8587C33.1908 16.8207 32.6396 16.2091 32.6776 15.4903C32.7156 14.7732 33.3273 14.222 34.0461 14.26C34.3329 14.2756 36.8763 14.7024 39.5096 16.1296V16.1313Z" fill="#B0B2BC"></path><path d="M27.8323 20.3491C29.1005 20.0052 30.4051 19.8704 31.6802 19.9378C32.9571 20.0069 34.2046 20.28 35.364 20.7327C36.5234 21.1854 37.593 21.8195 38.5243 22.5936C37.4703 21.9974 36.3368 21.581 35.1826 21.3564C34.0284 21.1301 32.8552 21.092 31.7217 21.2355C30.5882 21.3789 29.4945 21.702 28.4958 22.1789C27.4954 22.6558 26.5917 23.2864 25.8176 24.0311C25.2992 24.5305 24.4733 24.5149 23.974 23.9966C23.4746 23.4782 23.4902 22.6523 24.0085 22.153C24.2781 21.8938 25.8746 20.8812 27.8323 20.3508V20.3491Z" fill="#B0B2BC"></path><path d="M36.1686 43.6527C34.9003 43.9966 33.5958 44.1314 32.3206 44.064C31.0437 43.9949 29.7962 43.7219 28.6368 43.2692C27.4774 42.8165 26.4079 42.1823 25.4766 41.4083C26.5306 42.0044 27.664 42.4208 28.8182 42.6454C29.9725 42.8718 31.1457 42.9098 32.2792 42.7664C33.4126 42.6229 34.5064 42.2998 35.5051 41.8229C36.5055 41.3461 37.4092 40.7154 38.1833 39.9707C38.7016 39.4713 39.5275 39.4869 40.0269 40.0052C40.5262 40.5236 40.5107 41.3495 39.9923 41.8489C39.7211 42.1098 38.1211 43.1223 36.1686 43.651V43.6527Z" fill="#B0B2BC"></path><path d="M20.3499 36.1676C20.0061 34.8993 19.8713 33.5948 19.9387 32.3196C20.0078 31.0428 20.2808 29.7952 20.7335 28.6358C21.1862 27.4764 21.8203 26.4069 22.5944 25.4756C21.9983 26.5296 21.5819 27.6631 21.3573 28.8173C21.1309 29.9715 21.0929 31.1447 21.2363 32.2782C21.3797 33.4117 21.7028 34.5054 22.1797 35.5041C22.6566 36.5045 23.2873 37.4082 24.032 38.1823C24.5313 38.7006 24.5158 39.5266 23.9974 40.0259C23.4791 40.5253 22.6532 40.5097 22.1538 39.9914C21.8497 39.6752 20.8545 38.0268 20.3516 36.1676H20.3499Z" fill="#B0B2BC"></path><path d="M43.6521 27.8341C43.996 29.1006 44.1308 30.4069 44.0634 31.6821C43.9943 32.959 43.7213 34.2065 43.2686 35.3659C42.8159 36.5253 42.1817 37.5948 41.4076 38.5261C42.0038 37.4721 42.4202 36.3387 42.6448 35.1844C42.8711 34.0302 42.9092 32.857 42.7657 31.7235C42.6223 30.5901 42.2992 29.4963 41.8223 28.4976C41.3454 27.4972 40.7148 26.5935 39.9701 25.8194C39.4707 25.3011 39.4863 24.4752 40.0046 23.9758C40.523 23.4764 41.3489 23.492 41.8482 24.0104C42.104 24.2764 43.1165 25.8626 43.6504 27.8341H43.6521Z" fill="#B0B2BC"></path></g><defs><clipPath id="clip0_5702_16034"><rect width="64" height="64" fill="white"></rect></clipPath></defs></svg> 