<?xml version="1.0" encoding="UTF-8"?> <svg xmlns="http://www.w3.org/2000/svg" width="64" height="64" viewBox="0 0 64 64" fill="none"><g clip-path="url(#clip0_5702_14962)"><path d="M18.693 49.9501C17.4706 49.9501 16.4981 49.6085 15.8254 48.9227C14.175 47.2382 14.531 43.6063 16.8018 38.9562C21.2334 29.8823 31.6317 19.3544 39.9805 15.4882C43.793 13.7227 46.7012 13.5761 48.1709 15.076C49.8213 16.7604 49.4653 20.3923 47.1946 25.0424C42.763 34.1163 32.3646 44.6442 24.0158 48.5104C21.9466 49.4684 20.1444 49.9501 18.693 49.9501ZM40.0198 15.5733L40.059 15.6584C31.743 19.5088 21.3852 29.9975 16.9706 39.0387C14.7365 43.6129 14.3687 47.1663 15.9589 48.7905C17.3685 50.2288 20.202 50.0692 23.936 48.3402C32.2521 44.4898 42.6099 34.0011 47.0244 24.96C49.2585 20.387 49.6263 16.8324 48.0348 15.2081C46.6253 13.7698 43.793 13.9295 40.0577 15.6584L40.0185 15.5733H40.0198Z" fill="#7D8488"></path><path d="M17.8182 50.1948C16.389 50.1948 15.2778 49.7839 14.5593 48.9645C12.8775 47.0459 13.4953 43.0868 16.2542 38.1003C21.4593 28.6953 32.7345 18.2812 41.3896 14.8862C45.1916 13.3942 48.0513 13.4478 49.4426 15.0354C51.1244 16.9541 50.5066 20.9132 47.7477 25.8984C42.5426 35.3034 31.2674 45.7174 22.6123 49.1124C20.7748 49.8336 19.1558 50.1935 17.8182 50.1935V50.1948ZM46.1863 13.991C44.8749 13.991 43.2795 14.347 41.4589 15.0616C32.8392 18.4435 21.6058 28.8196 16.4191 38.1919C13.7007 43.1038 13.0738 46.9857 14.7007 48.8415C16.0356 50.365 18.822 50.4003 22.5443 48.9397C31.164 45.5578 42.3973 35.1816 47.5841 25.8094C50.3025 20.8975 50.9294 17.0156 49.3025 15.1597C48.6193 14.381 47.5579 13.991 46.1863 13.991Z" fill="#7D8488"></path><path d="M17.0147 50.3821C15.3316 50.3821 14.0542 49.886 13.2859 48.9031C11.5832 46.724 12.4928 42.4298 15.7818 37.1227C21.7866 27.4324 33.9269 17.2251 42.8451 14.368C46.6118 13.1613 49.4073 13.4204 50.7188 15.0983C52.4215 17.2774 51.5119 21.5716 48.2229 26.8787C42.2181 36.569 30.0778 46.7763 21.1596 49.6334C19.5996 50.1334 18.2057 50.3821 17.0147 50.3821ZM46.9913 13.8052C45.8212 13.8052 44.4457 14.0513 42.9013 14.546C34.0199 17.3913 21.9253 27.5632 15.9402 37.2208C12.6957 42.4573 11.7821 46.6729 13.4325 48.7866C14.6916 50.3978 17.4152 50.636 21.1008 49.4541C29.9822 46.6088 42.0768 36.4369 48.0619 26.7793C51.3064 21.5428 52.2199 17.3272 50.5695 15.2135C49.8379 14.2777 48.6129 13.8052 46.9913 13.8052Z" fill="#7D8488"></path><path d="M16.2607 50.5246C14.2818 50.5246 12.8382 49.9213 12.0137 48.7277C10.3057 46.2567 11.5386 41.6248 15.3943 36.018C22.2196 26.0947 35.2042 16.1924 44.3382 13.9425C48.101 13.0159 50.7474 13.4766 51.9894 15.2736C53.6974 17.7446 52.4645 22.3764 48.6088 27.9833C41.7835 37.9066 28.7989 47.8089 19.6662 50.0587C18.4019 50.3702 17.2632 50.5246 16.262 50.5246H16.2607ZM47.7437 13.6625C46.7582 13.6625 45.6339 13.8156 44.3827 14.1245C35.2866 16.3638 22.3531 26.2334 15.5487 36.124C11.7388 41.6628 10.5059 46.2174 12.1681 48.6203C13.363 50.3479 15.94 50.7825 19.6204 49.8768C28.7152 47.6374 41.65 37.7678 48.4544 27.8773C52.2643 22.3385 53.4972 17.7839 51.835 15.3809C51.0471 14.241 49.6559 13.6638 47.7437 13.6638V13.6625Z" fill="#7D8488"></path><path d="M15.6677 50.6019C13.3001 50.6019 11.6196 49.8664 10.748 48.4267C9.05571 45.6324 10.6433 40.6603 15.1023 34.7852C22.7666 24.6865 36.5652 15.1938 45.8603 13.6233C49.5445 13.0016 52.0993 13.6756 53.2484 15.5734C54.9407 18.3676 53.3531 23.3398 48.8941 29.2149C41.2298 39.3136 27.4312 48.8063 18.1361 50.3768C17.2461 50.5273 16.4216 50.6019 15.6677 50.6019ZM48.3313 13.5853C47.5879 13.5853 46.7738 13.6586 45.893 13.8078C36.6372 15.3705 22.8923 24.8318 15.2529 34.8977C10.9077 40.6224 9.28475 45.6442 10.9103 48.3285C12.0162 50.1556 14.5042 50.7995 18.106 50.191C27.3618 48.627 41.1068 39.167 48.7462 29.1011C53.0914 23.3764 54.7143 18.3546 53.0888 15.6702C52.2537 14.2908 50.6282 13.5853 48.3313 13.5853Z" fill="#7D8488"></path><path d="M15.2477 50.6385C12.3893 50.6385 10.417 49.7342 9.50604 47.9882C7.88314 44.8798 9.90784 39.4353 14.9231 33.4227C23.4381 23.2141 38.0129 14.2423 47.41 13.4217C50.9961 13.1089 53.4462 14.0041 54.4945 16.0105C56.1174 19.1189 54.0927 24.5634 49.0774 30.576C40.5624 40.7846 25.9877 49.7564 16.5892 50.577C16.122 50.6176 15.6744 50.6385 15.2477 50.6385ZM47.4192 13.5159L47.427 13.6088C38.0718 14.4242 23.5546 23.3672 15.0671 33.5431C10.1015 39.4955 8.08469 44.8628 9.67226 47.9018C10.6826 49.8362 13.0686 50.6974 16.5735 50.3912C25.9288 49.5758 40.4459 40.6328 48.9334 30.4569C53.899 24.5045 55.9159 19.1372 54.3283 16.0995C53.3179 14.1651 50.932 13.3052 47.427 13.6101L47.4192 13.5172V13.5159Z" fill="#7D8488"></path><path d="M15.0339 50.6477H15.0287C11.5538 50.6477 9.22285 49.5221 8.28706 47.3966C6.74661 43.8982 9.20322 38.116 14.8611 31.9319C24.2321 21.6867 39.5306 13.3523 48.9657 13.3523H48.9709C52.4458 13.3523 54.7767 14.4779 55.7125 16.6033C57.253 20.1017 54.7963 25.884 49.1384 32.068C39.7675 42.3133 24.469 50.6477 15.0339 50.6477ZM48.9657 13.5395C39.5764 13.5395 24.3407 21.8451 14.9986 32.0576C9.39299 38.1853 6.94817 43.8917 8.45852 47.3207C9.36289 49.3729 11.6336 50.4592 15.0287 50.4592H15.0339C24.4232 50.4592 39.6588 42.1536 49.001 31.9411C54.6066 25.8133 57.0514 20.107 55.541 16.6779C54.6367 14.6258 52.3646 13.5395 48.9709 13.5395H48.9657Z" fill="#7D8488"></path><path d="M15.0463 50.649C14.5032 50.649 13.977 50.6255 13.4705 50.5771C10.12 50.2577 7.91994 48.894 7.10979 46.635C5.70022 42.7073 8.62407 36.6057 14.9325 30.3117C25.1633 20.1031 41.1345 12.5278 50.5356 13.4243C53.8861 13.7437 56.0861 15.1074 56.8963 17.3664C58.3059 21.2941 55.382 27.3957 49.0736 33.6897C39.3951 43.3473 24.5769 50.649 15.0476 50.649H15.0463ZM48.9506 13.5395C39.4684 13.5395 24.7118 20.8177 15.0633 30.4452C8.80861 36.6868 5.90047 42.7151 7.28517 46.5722C8.06914 48.7578 10.2143 50.0784 13.4875 50.3912C22.8376 51.2838 38.7433 43.7321 48.9401 33.5575C55.1949 27.3159 58.103 21.2876 56.7183 17.4306C55.9343 15.2449 53.7892 13.9243 50.5159 13.6115C50.012 13.5631 49.4898 13.5395 48.9506 13.5395Z" fill="#7D8488"></path><path d="M15.3167 50.6621C14.1021 50.6621 12.9648 50.5613 11.9178 50.3506C8.69813 49.7054 6.64333 48.089 5.97584 45.6782C4.75997 41.2885 8.18508 34.8911 15.1387 28.5631C26.2216 18.4776 42.7948 11.787 52.082 13.6494C55.3016 14.2947 57.3564 15.911 58.0239 18.3218C59.2398 22.7115 55.8147 29.1089 48.8611 35.4369C39.0281 44.3851 24.8709 50.6608 15.3167 50.6621ZM48.6713 13.5238C39.1655 13.5238 25.0672 19.7811 15.2643 28.7005C8.36439 34.9801 4.95891 41.3082 6.15645 45.6272C6.80431 47.966 8.80938 49.5352 11.9544 50.1661C12.9923 50.3742 14.1244 50.4749 15.3285 50.4749C24.8342 50.4749 38.9326 44.2176 48.7354 35.2982C55.6354 29.0186 59.0409 22.6906 57.8433 18.3715C57.1955 16.0327 55.1904 14.4635 52.0454 13.8327C51.0075 13.6246 49.8754 13.5238 48.6713 13.5238Z" fill="#7D8488"></path><path d="M15.8989 50.717C13.8611 50.717 12.0026 50.4723 10.3928 49.9605C7.30926 48.9776 5.41413 47.0903 4.91155 44.5028C3.96529 39.6237 7.92309 32.9645 15.4997 26.6902C27.4202 16.8179 44.5156 11.1443 53.6078 14.0407C56.6913 15.0236 58.5865 16.9109 59.0891 19.4983C60.0353 24.3775 56.0775 31.0367 48.5009 37.311C38.6902 45.436 25.3745 50.717 15.8989 50.717ZM48.0873 13.4687C38.6614 13.4687 25.3981 18.7353 15.6188 26.8341C8.09585 33.064 4.16161 39.6551 5.09478 44.4662C5.58296 46.983 7.43491 48.8206 10.4491 49.7812C19.4876 52.6606 36.5032 47.0013 48.3805 37.1657C55.9035 30.9359 59.8377 24.3448 58.9045 19.5337C58.4163 17.0169 56.5644 15.1793 53.5502 14.2187C51.9548 13.7109 50.1094 13.4674 48.0873 13.4674V13.4687Z" fill="#7D8488"></path><path d="M16.827 50.8467C13.7906 50.8467 11.0827 50.3794 8.90613 49.3913C5.95873 48.0537 4.24028 45.868 3.93403 43.0737C3.34507 37.6894 7.86433 30.8182 16.0207 24.6957C28.7579 15.1349 46.284 10.6091 55.0921 14.6088C58.0395 15.9464 59.758 18.1321 60.0642 20.9263C60.6532 26.3107 56.1339 33.1819 47.9775 39.3044C38.388 46.5028 26.0814 50.848 16.827 50.848V50.8467ZM47.1609 13.3366C37.9535 13.3366 25.694 17.6688 16.1346 24.8462C8.03186 30.9294 3.54008 37.7352 4.12249 43.0541C4.4209 45.7803 6.10139 47.9123 8.98466 49.2211C17.7353 53.1946 35.1775 48.6793 47.865 39.1552C55.9677 33.0719 60.4595 26.2662 59.8771 20.9473C59.5787 18.2211 57.8982 16.089 55.0149 14.7802C52.858 13.8013 50.1724 13.3366 47.1609 13.3366Z" fill="#7D8488"></path><path d="M18.12 51.094C13.8978 51.094 10.1966 50.3022 7.47558 48.6348C4.6656 46.9124 3.14478 44.3956 3.07673 41.3553C2.94454 35.4683 8.0436 28.4506 16.7157 22.5846C30.2381 13.4374 48.0966 10.1982 56.5226 15.3627C59.3326 17.085 60.8534 19.6018 60.9215 22.6422C61.0536 28.5291 55.9546 35.5469 47.2825 41.4129C38.1249 47.6074 26.9779 51.0927 18.1187 51.0927L18.12 51.094ZM45.873 13.088C37.0582 13.088 25.9518 16.5654 16.8204 22.7416C8.20196 28.571 3.13431 35.5286 3.26519 41.3514C3.33194 44.325 4.82135 46.7881 7.57374 48.4751C15.9435 53.6056 33.7103 50.369 47.1778 41.2584C55.7962 35.4278 60.8652 28.4715 60.7343 22.6474C60.6676 19.6738 59.1782 17.2107 56.4258 15.5236C53.731 13.8719 50.0611 13.0867 45.8743 13.0867L45.873 13.088Z" fill="#7D8488"></path><path d="M19.7556 51.5023C14.171 51.5023 9.31928 50.2589 6.11536 47.6819C3.44542 45.5342 2.15364 42.6405 2.37614 39.3109C2.8028 32.9502 8.49082 25.8683 17.5909 20.3674C31.8619 11.7425 49.9364 9.92586 57.8821 16.3193C60.552 18.467 61.8438 21.3608 61.6213 24.6904C61.1946 31.0511 55.5066 38.133 46.4066 43.6338C37.8902 48.7813 28.0193 51.5036 19.7556 51.5036V51.5023ZM44.2431 12.6796C36.016 12.6796 26.1805 15.3953 17.6877 20.5271C8.64002 25.9965 2.98603 33.0221 2.56329 39.3227C2.34472 42.5881 3.61295 45.4269 6.23315 47.534C14.1226 53.8817 32.1014 52.0585 46.3097 43.4715C55.3574 38.0034 61.0114 30.9765 61.4341 24.676C61.6527 21.4105 60.3845 18.5718 57.7643 16.4646C54.5904 13.9111 49.7806 12.6796 44.2431 12.6796Z" fill="#7D8488"></path><path d="M21.6665 52.1135C14.5742 52.1135 8.43068 50.2563 4.8472 46.5184C2.32646 43.889 1.30168 40.5621 1.88671 36.8988C2.96777 30.1231 9.23689 23.0753 18.6602 18.0482C33.6302 10.0593 51.7975 9.80543 59.1569 17.4815C61.6776 20.1109 62.7024 23.4378 62.1174 27.1011C61.0363 33.8768 54.7672 40.9246 45.3439 45.953C37.6639 50.0521 29.1397 52.1148 21.6678 52.1148L21.6665 52.1135ZM42.3428 12.0683C34.9023 12.0683 26.407 14.1258 18.7479 18.2131C9.37693 23.214 3.14184 30.2095 2.07125 36.9289C1.49669 40.5333 2.50315 43.804 4.98201 46.3901C12.2877 54.0099 30.353 53.739 45.2549 45.7881C54.6258 40.7872 60.8596 33.7917 61.9315 27.0723C62.5061 23.4679 61.4996 20.1973 59.0208 17.6111C55.47 13.9085 49.3776 12.0683 42.3428 12.0683Z" fill="#7D8488"></path><path d="M23.7242 52.9681C15.0377 52.9681 7.48859 50.2904 3.68 45.1403C1.32548 41.956 0.626584 38.1343 1.65922 34.0888C3.4719 26.9912 10.2986 20.0939 19.9208 15.6361C35.5321 8.40373 53.6537 9.84863 60.3167 18.8584C62.6712 22.0427 63.3701 25.8643 62.3375 29.9098C60.5248 37.0074 53.6982 43.9048 44.0759 48.3638C37.3867 51.463 30.2354 52.9682 23.7229 52.9695L23.7242 52.9681ZM40.2856 11.215C33.7993 11.215 26.6716 12.7162 20.0007 15.8076C10.4294 20.2418 3.64074 27.0933 1.84245 34.1359C0.824212 38.1251 1.51133 41.8918 3.83182 45.029C10.4452 53.9707 28.4633 55.3894 43.9987 48.1924C53.5699 43.7582 60.3573 36.9053 62.1569 29.8627C63.1751 25.8735 62.488 22.1068 60.1675 18.9696C56.3943 13.8666 48.9053 11.2137 40.2856 11.2137V11.215Z" fill="#7D8488"></path><path d="M25.7845 54.0938C15.4791 54.0938 6.47456 50.3401 2.64241 43.5396C0.485517 39.7114 0.185803 35.3296 1.77337 30.8666C4.3674 23.5753 11.7019 16.9502 21.3922 13.1455C37.5767 6.79134 55.5059 10.0725 61.3588 20.4604C63.5157 24.2886 63.8167 28.6704 62.2278 33.1334C59.6338 40.4247 52.2993 47.0498 42.609 50.8545C37.0192 53.0493 31.2212 54.0938 25.7845 54.0938ZM38.2272 10.0908C32.8114 10.0908 27.0331 11.1326 21.4615 13.3196C11.821 17.1059 4.52707 23.6879 1.95006 30.9294C0.380813 35.34 0.6766 39.6682 2.80601 43.448C8.61443 53.7574 26.4389 57.0006 42.5397 50.6804C52.1802 46.8954 59.4741 40.3122 62.0512 33.0719C63.6204 28.6613 63.3246 24.3331 61.1952 20.5533C57.3971 13.8117 48.4606 10.0921 38.2272 10.0921V10.0908Z" fill="#7D8488"></path><path d="M27.6912 55.506C15.7968 55.506 5.36182 50.3729 1.74563 41.7074C-0.161285 37.1345 0.0258719 32.1283 2.28747 27.2282C5.67332 19.895 13.4436 13.6743 23.0724 10.5882C39.7504 5.24047 57.3275 10.4913 62.2525 22.2927C64.1607 26.8657 63.9735 31.8731 61.7119 36.7719C58.3261 44.1051 50.5558 50.3258 40.927 53.4132C36.4941 54.8346 31.9971 55.5073 27.6925 55.5073L27.6912 55.506ZM36.3148 8.67998C32.0259 8.67998 27.5472 9.35008 23.13 10.7662C13.5509 13.8379 5.82252 20.022 2.45761 27.3067C0.218265 32.1571 0.032416 37.1122 1.9197 41.6354C5.50579 50.2302 15.8688 55.3188 27.6846 55.3201C31.9735 55.3201 36.4522 54.65 40.8694 53.2339C50.4498 50.1622 58.1769 43.9794 61.5418 36.6934C63.7811 31.843 63.9683 26.8879 62.0797 22.3647C58.4936 13.7699 48.1306 8.67998 36.3148 8.67998Z" fill="#7D8488"></path><path d="M29.3288 57.21C15.9071 57.21 4.15019 50.3545 1.01432 39.6421C-0.575865 34.2119 0.204176 28.5265 3.26937 23.201C7.47583 15.8888 15.3862 10.3395 24.9705 7.97711C42.0542 3.76672 59.1064 11.1156 62.9831 24.358C64.5732 29.7882 63.7932 35.4736 60.728 40.7977C56.5202 48.11 48.6099 53.6592 39.0256 56.0216C35.7615 56.8265 32.4973 57.2087 29.3274 57.2087L29.3288 57.21ZM34.6726 6.97719C31.5157 6.97719 28.2673 7.35805 25.0163 8.15903C15.4804 10.5096 7.61326 16.0262 3.43035 23.2939C0.392642 28.5749 -0.380855 34.2093 1.19362 39.5884C4.30593 50.2197 15.9869 57.0215 29.3248 57.0228C32.4816 57.0228 35.7301 56.642 38.9811 55.841C48.5157 53.4904 56.3828 47.9738 60.5657 40.7061C63.6034 35.4264 64.3769 29.7921 62.8025 24.4116C59.6901 13.7803 48.0092 6.97719 34.6712 6.97719H34.6726Z" fill="#7D8488"></path><path d="M30.6176 59.2006C15.7367 59.2006 2.84373 50.2485 0.465656 37.3359C-0.696553 31.0249 0.829501 24.4535 4.76373 18.8322C9.66909 11.8223 17.8072 6.89993 27.0904 5.33068C44.4778 2.38851 60.8246 11.9597 63.5325 26.664C64.6947 32.975 63.1686 39.5465 59.2344 45.1677C54.3291 52.1776 46.191 57.1 36.9077 58.6692C34.7888 59.0279 32.6829 59.2006 30.6176 59.2006ZM33.3818 4.98647C31.3257 4.98647 29.2316 5.15792 27.1219 5.51522C17.8883 7.07792 9.79474 11.9702 4.91817 18.9395C1.01404 24.5189 -0.501542 31.0406 0.651505 37.3019C3.01257 50.1241 15.827 59.0135 30.6176 59.0135C32.6738 59.0135 34.7678 58.842 36.8776 58.4847C46.1111 56.922 54.2047 52.0297 59.0813 45.0604C62.9854 39.481 64.501 32.9593 63.3479 26.698C60.9869 13.8758 48.1725 4.98647 33.3818 4.98647Z" fill="#7D8488"></path><path d="M31.5113 61.4688C15.2299 61.4701 1.45225 50.0208 0.119895 34.789C-1.29491 18.6136 11.8545 4.20252 29.4316 2.66468C37.9453 1.91998 46.2169 4.27057 52.7216 9.28194C59.2289 14.2959 63.1907 21.3739 63.8765 29.2109C64.5623 37.048 61.8897 44.7057 56.3522 50.7746C50.816 56.8409 43.0784 60.5906 34.5647 61.3366C33.5399 61.4256 32.5204 61.4701 31.5126 61.4701L31.5113 61.4688ZM32.5165 2.71704C31.4982 2.71704 30.4747 2.76154 29.4473 2.85184C11.9736 4.38051 -1.0999 18.7 0.307053 34.772C1.63155 49.9056 15.3294 61.2803 31.5126 61.2803C32.5165 61.2803 33.5282 61.2371 34.549 61.1468C43.0156 60.406 50.71 56.6773 56.2135 50.6464C61.7156 44.6181 64.3712 37.01 63.6893 29.2266C63.0087 21.4419 59.0719 14.4111 52.6064 9.42984C46.9237 5.05192 39.885 2.71573 32.5165 2.71573V2.71704Z" fill="#7D8488"></path><path d="M32 64C14.3548 64 0 49.6452 0 32C0 14.3548 14.3548 0 32 0C49.6452 0 64 14.3548 64 32C64 49.6452 49.6452 64 32 64ZM32 0.187157C14.4582 0.187157 0.187157 14.4582 0.187157 32C0.187157 49.5418 14.4582 63.8128 32 63.8128C49.5418 63.8128 63.8128 49.5418 63.8128 32C63.8128 14.4582 49.5418 0.187157 32 0.187157Z" fill="#7D8488"></path></g><defs><clipPath id="clip0_5702_14962"><rect width="64" height="64" fill="white"></rect></clipPath></defs></svg> 