<?xml version="1.0" encoding="UTF-8"?> <svg xmlns="http://www.w3.org/2000/svg" width="65" height="56" viewBox="0 0 65 56" fill="none"><path d="M37.14 31.2361L27.4297 29.9709L28.5773 19.6132L37.14 31.2361ZM27.5768 29.8532L36.7869 31.0596L28.6656 20.0545L27.5768 29.8532Z" fill="#7D8488"></path><path d="M37.2772 31.5317L27.0078 29.8545L28.5968 19.1437L37.2772 31.5317ZM27.1844 29.7368L36.9241 31.3258L28.6851 19.5556L27.1844 29.7368Z" fill="#7D8488"></path><path d="M37.4517 31.8545L26.5938 29.7359L28.6829 18.6426L37.4517 31.8545ZM26.7703 29.6182L37.0986 31.6191L28.7712 19.0545L26.7703 29.6182Z" fill="#7D8488"></path><path d="M37.6027 32.1783L26.1563 29.5889L28.7751 18.1425L37.6027 32.1783ZM26.3622 29.4712L37.279 31.9429L28.8634 18.5544L26.3622 29.4712Z" fill="#7D8488"></path><path d="M37.7831 32.531L25.7188 29.412L28.9261 17.6124L37.7831 32.531ZM25.9247 29.3237L37.4594 32.2956L29.0144 18.0244L25.9247 29.3237Z" fill="#7D8488"></path><path d="M37.9362 32.913L25.2539 29.2348L29.1086 17.0527L37.9362 32.913ZM25.4599 29.1465L37.6125 32.6481L29.138 17.4647L25.4599 29.1465Z" fill="#7D8488"></path><path d="M38.0797 33.2956L24.75 29.0289L29.2815 16.5232L38.0797 33.2956ZM24.956 28.9112L37.756 33.0308L29.3109 16.9057L24.956 28.9112Z" fill="#7D8488"></path><path d="M38.2291 33.7078L24.2227 28.7938L29.5192 15.9349L38.2291 33.7078ZM24.4286 28.6761L37.9054 33.4135L29.5192 16.3175L24.4286 28.6761Z" fill="#7D8488"></path><path d="M38.3707 34.1493L23.6875 28.4997L29.7785 15.3171L38.3707 34.1493ZM23.8935 28.4114L38.0765 33.8551L29.7491 15.7291L23.8935 28.4114Z" fill="#7D8488"></path><path d="M38.5183 34.6194L23.1289 28.2341L30.0733 14.7573L38.5183 34.6194ZM23.3349 28.1164L38.2241 34.2957L30.0733 15.081L23.3349 28.1164Z" fill="#7D8488"></path><path d="M38.629 35.0907L22.5039 27.8815L30.3899 14.1105L38.629 35.0907ZM22.7393 27.7932L38.3347 34.767L30.3605 14.4636L22.7393 27.7932Z" fill="#7D8488"></path><path d="M38.763 35.5918L21.9023 27.4999L30.7888 13.464L30.8476 13.6111L38.763 35.5918ZM22.1377 27.441L38.4982 35.2976L30.7594 13.8465L22.1377 27.441Z" fill="#7D8488"></path><path d="M38.8424 36.1204L21.2461 27.0868L31.2213 12.8156L38.8424 36.1204ZM21.4815 27.028L38.5776 35.7967L31.1624 13.1687L21.4815 27.028Z" fill="#7D8488"></path><path d="M38.9278 36.6813L20.5664 26.6473L20.6253 26.5884L31.6892 12.17L38.9278 36.6813ZM20.8018 26.5884L38.663 36.3576L31.6009 12.5231L20.8018 26.5884Z" fill="#7D8488"></path><path d="M39.0269 37.2685L19.8711 26.1751L32.2297 11.5214L39.0269 37.2685ZM20.1359 26.1163L38.7915 36.9154L32.1709 11.8156L20.1359 26.1163Z" fill="#7D8488"></path><path d="M39.0772 37.8586L19.1563 25.6177L32.8096 10.8168L32.839 10.9639L39.0772 37.8586ZM19.3917 25.5883L38.8418 37.5349L32.7213 11.1405L19.3917 25.5883Z" fill="#7D8488"></path><path d="M39.1451 38.5049L18.4297 25.0575L33.4954 10.1389L39.1451 38.5049ZM18.6651 25.0281L38.9097 38.1812L33.3777 10.4626L18.6651 25.0281Z" fill="#7D8488"></path><path d="M39.1349 39.1517L17.625 24.4096L34.1914 9.43213L39.1349 39.1517ZM17.8898 24.3802L38.9289 38.7986L34.0737 9.72638L17.8898 24.3802Z" fill="#7D8488"></path><path d="M39.1481 39.8575L16.8438 23.7325L34.9992 8.755L39.1481 39.8575ZM17.1086 23.703L38.9716 39.5044L34.8815 9.04926L17.1086 23.703Z" fill="#7D8488"></path><path d="M39.1322 40.5649L16.0039 22.9685L35.8365 8.04993L39.1322 40.5649ZM16.2687 22.9685L38.9262 40.2118L35.7188 8.34418L16.2687 22.9685Z" fill="#7D8488"></path><path d="M39.079 41.3307L15.1563 22.1748L36.7838 7.3739L39.079 41.3307ZM15.4211 22.1748L38.873 40.9776L36.6367 7.66815L15.4211 22.1748Z" fill="#7D8488"></path><path d="M38.9964 42.0939L14.3086 21.2903L37.8488 6.66589V6.81302L38.9964 42.0939ZM14.5734 21.3197L38.8199 41.7408L37.7017 6.96015L14.5734 21.3197Z" fill="#7D8488"></path><path d="M38.8612 42.8897L13.3789 20.3499L38.9495 5.99036L38.8612 42.8897ZM13.6437 20.3793L38.6846 42.5365L38.7729 6.28461L13.6437 20.3793Z" fill="#7D8488"></path><path d="M38.72 43.7416L12.4727 19.3774L40.1619 5.37097V5.5181L38.72 43.7416ZM12.7375 19.3774L38.5435 43.359L39.9853 5.60637L12.7375 19.3774Z" fill="#7D8488"></path><path d="M38.5103 44.595L11.5273 18.2888L41.4823 4.72375L38.5103 44.595ZM11.8216 18.3182L38.3926 44.2419L41.3352 4.95917L11.8216 18.3182Z" fill="#7D8488"></path><path d="M38.2868 45.4786L10.5977 17.1127L42.936 4.07727L42.9066 4.19496L38.2868 45.4786ZM10.8625 17.1715L38.1691 45.1255L42.7595 4.31267L10.8625 17.1715Z" fill="#7D8488"></path><path d="M37.991 46.3906L9.625 15.8766L44.494 3.48853L37.991 46.3906ZM9.88983 15.9354L37.8733 46.0375L44.2586 3.72392L9.88983 15.9354Z" fill="#7D8488"></path><path d="M37.6344 47.3317L8.62109 14.5225L46.1383 2.89954L46.1089 3.01723L37.6344 47.3317ZM8.91535 14.6108L37.5756 46.9786L45.9323 3.13493L8.91535 14.6108Z" fill="#7D8488"></path><path d="M37.2523 48.3031L7.62109 13.1105L47.9043 2.37024L47.8749 2.48795L37.2523 48.3031ZM7.91535 13.1988L37.1935 47.95L47.7278 2.60566L7.91535 13.1988Z" fill="#7D8488"></path><path d="M36.8114 49.3035L36.7232 49.1858L6.62109 11.6098L49.8174 1.89941L36.8114 49.3035ZM6.88592 11.698L36.7232 48.9504L49.6114 2.10539L6.88592 11.698Z" fill="#7D8488"></path><path d="M36.2843 50.3344L5.59375 9.99232L51.8797 1.45898L51.8503 1.57669L36.2843 50.3344ZM5.85858 10.11L36.196 50.0107L51.6443 1.69438L5.85858 10.11Z" fill="#7D8488"></path><path d="M35.6984 51.3628L4.56641 8.28415L54.0892 1.10437L35.6984 51.3628ZM4.86066 8.40184L35.6395 51.0391L53.8538 1.28093L4.86066 8.40184Z" fill="#7D8488"></path><path d="M35.0163 52.4218L3.53125 6.43007H3.64895L56.4379 0.750977L56.3791 0.868685L35.0163 52.4218ZM3.8255 6.5772L34.9869 52.0981L56.2025 0.956957L3.8255 6.5772Z" fill="#7D8488"></path><path d="M34.2793 53.5109L2.5 4.51784L58.9377 0.515991L34.2793 53.5109ZM2.79425 4.66497L34.2499 53.1873L58.7023 0.692554L2.79425 4.66497Z" fill="#7D8488"></path><path d="M33.4303 54.6003L1.50391 2.45871L61.6492 0.369507L33.4303 54.6003ZM1.76874 2.60584L33.4009 54.2766L61.3549 0.516633L1.76874 2.60584Z" fill="#7D8488"></path><path d="M32.5147 55.7186L0.5 0.281372L64.5 0.281372L32.5147 55.7186ZM0.764826 0.457917L32.4853 55.4244L64.2352 0.457917L0.764826 0.457917Z" fill="#7D8488"></path></svg> 