<?xml version="1.0" encoding="UTF-8"?> <svg xmlns="http://www.w3.org/2000/svg" width="64" height="66" viewBox="0 0 64 66" fill="none"><path d="M16.8493 50.3069C15.7051 50.3069 14.7754 50.0209 14.096 49.4845C12.8087 48.4475 12.4153 46.5166 12.9517 43.8705V43.799L28.864 32.6067C30.0083 31.82 31.1526 30.6758 32.0823 29.46L40.9503 17.7313C42.7024 15.4071 45.2413 13.5119 46.7431 13.4046C47.1364 13.3688 47.4225 13.4761 47.637 13.6907C49.4249 15.4428 49.0674 19.3047 46.6716 24.2035C42.023 33.7152 31.1526 44.7287 22.3918 48.7693C20.2821 49.8063 18.3869 50.3069 16.8493 50.3069ZM13.2378 44.0135C12.7371 46.5166 13.0947 48.3403 14.2748 49.27C15.8124 50.4857 18.673 50.2354 22.2846 48.5548C30.9738 44.5141 41.8085 33.5722 46.4213 24.132C48.7813 19.3404 49.1389 15.6216 47.4583 13.941C47.3152 13.7979 47.0649 13.7264 46.7789 13.7622C45.3485 13.8695 42.917 15.7289 41.2006 17.9816L32.3326 29.7103C31.4029 30.9261 30.2229 32.1061 29.0428 32.9285L13.2378 44.0135Z" fill="#7D8488"></path><path d="M16.062 50.4856C14.7031 50.4856 13.6304 50.128 12.8795 49.4486C11.5207 48.2328 11.2704 46.0516 12.057 43.1194V43.0837L28.8633 32.4993C30.0434 31.7483 31.3307 30.6041 32.3319 29.3883L42.2011 17.5524C44.1678 15.1924 46.8497 13.3687 48.3515 13.4044C48.7448 13.4044 49.0309 13.5475 49.2455 13.7978C50.8546 15.8718 50.1752 19.9839 47.3503 25.0616C41.9151 34.8951 30.0791 45.8013 21.0323 49.3771C19.1729 50.128 17.4923 50.4856 16.062 50.4856ZM12.3431 43.2982C11.5922 46.0873 11.8425 48.1255 13.094 49.2698C14.5601 50.5929 17.385 50.5571 20.9966 49.1268C30.0076 45.5867 41.7363 34.752 47.1715 24.9543C49.9249 19.9482 50.64 15.979 49.0667 14.0123C48.9236 13.8335 48.7091 13.762 48.423 13.7263C47.0285 13.7263 44.4181 15.4784 42.4872 17.7669L32.6179 29.6029L32.5107 29.4956L32.6179 29.6029C31.581 30.8544 30.2937 31.9987 29.0779 32.7496L12.3431 43.2982Z" fill="#7D8488"></path><path d="M15.3485 50.6287C13.7394 50.6287 12.5237 50.1996 11.6655 49.3414C10.2709 47.9468 10.1279 45.4795 11.2364 42.2613V42.2255L28.9009 32.3563C30.1524 31.6412 31.5112 30.5684 32.6197 29.3169L43.4902 17.4094C45.6356 15.0494 48.4605 13.333 49.9624 13.5118C50.3557 13.5476 50.6418 13.7264 50.8206 14.0124C52.2509 16.4082 51.2139 20.7707 47.9599 26.0271C41.6665 36.1824 28.9724 46.8741 19.6395 49.842C18.0662 50.3784 16.6001 50.6287 15.3485 50.6287ZM11.5224 42.4043C10.4854 45.4795 10.5927 47.8038 11.88 49.1269C13.2746 50.5572 16.028 50.7002 19.6038 49.556C28.9009 46.588 41.5235 35.9321 47.7811 25.8483C50.9636 20.6992 52.0006 16.444 50.6418 14.1555C50.5345 13.9409 50.2842 13.8336 49.9981 13.7979C48.6036 13.6548 45.8502 15.3355 43.7762 17.624L32.9058 29.5314L32.7985 29.4242L32.9058 29.5314C31.7615 30.783 30.4027 31.8915 29.1154 32.6066L11.5224 42.4043Z" fill="#7D8488"></path><path d="M14.7381 50.7003C12.8429 50.7003 11.3769 50.1639 10.4829 49.1269C9.08834 47.4821 9.08833 44.7644 10.5187 41.2601L10.5544 41.2244L29.0056 32.2134C30.3286 31.5697 31.759 30.497 32.9747 29.2812L44.8464 17.4095C47.2065 15.0495 50.1029 13.5119 51.6047 13.7979C51.998 13.8695 52.3199 14.084 52.4629 14.4058C53.6787 17.1235 52.2483 21.772 48.5653 27.1357C41.4136 37.5413 27.8256 47.9112 18.2424 50.2354C16.9551 50.5215 15.7751 50.7003 14.7381 50.7003ZM10.769 41.4032C9.41016 44.8002 9.3744 47.3748 10.6974 48.9124C12.0205 50.45 14.6308 50.8076 18.2066 49.9136C27.7183 47.5893 41.2348 37.2552 48.3507 26.9212C51.998 21.629 53.3926 17.1234 52.2126 14.4774C52.1053 14.227 51.8908 14.084 51.5689 14.0125C50.1744 13.7622 47.3137 15.2998 45.061 17.5525L33.1893 29.4242L33.082 29.317L33.1893 29.4242C31.9378 30.6758 30.4717 31.7485 29.1486 32.3921L10.769 41.4032Z" fill="#7D8488"></path><path d="M14.2724 50.7004C11.9839 50.7004 10.2675 50.021 9.30206 48.7337C7.87173 46.8385 8.0863 43.8348 9.8742 40.0445L9.90995 40.0087L29.112 31.9989C30.4709 31.4268 32.0085 30.4255 33.3315 29.2098L33.4388 29.317L33.3315 29.2098L46.1687 17.4811C48.6717 15.1926 51.6754 13.7623 53.1772 14.1914C53.6063 14.2986 53.8924 14.5847 53.9997 14.9423C54.9651 17.9817 53.1415 22.8806 49.0293 28.3158C41.0195 38.9002 26.5732 48.8409 16.8113 50.4858C15.9173 50.6288 15.0591 50.7004 14.2724 50.7004ZM10.1245 40.2232C8.40812 43.8348 8.19357 46.8027 9.51662 48.5549C10.7682 50.1998 13.2712 50.7719 16.7755 50.164C26.466 48.5191 40.8049 38.6499 48.8148 28.1013C52.8912 22.7375 54.6791 17.946 53.7494 14.978C53.6421 14.692 53.4275 14.5132 53.1057 14.4059C51.7112 14.0483 48.7432 15.4429 46.3475 17.6241L33.5103 29.3528C32.1872 30.5686 30.6139 31.6055 29.2193 32.1777L10.1245 40.2232Z" fill="#7D8488"></path><path d="M13.9684 50.7003C11.1792 50.7003 9.17679 49.8779 8.1398 48.2688C6.74524 46.1233 7.17434 42.762 9.35559 38.7213L9.39134 38.6856L29.2013 31.82C30.5959 31.3194 32.2407 30.3897 33.6353 29.2097L47.4737 17.7314C50.1198 15.5501 53.2308 14.2628 54.6968 14.7992C55.1617 14.9422 55.4478 15.264 55.5193 15.7289C56.2344 19.1259 53.9817 24.2036 49.4046 29.7103C40.5009 40.402 25.2322 49.8064 15.3987 50.6645C14.8981 50.6645 14.4332 50.7003 13.9684 50.7003ZM9.57013 38.9001C7.4604 42.8335 7.03131 46.0875 8.39011 48.1257C9.53437 49.8779 11.9659 50.6645 15.3272 50.3427C25.0891 49.4845 40.2863 40.1517 49.1543 29.4958C53.6956 24.0605 55.9126 19.0544 55.2332 15.7289C55.1617 15.3713 54.9471 15.1568 54.5896 15.0137C53.195 14.5131 50.2271 15.7647 47.6525 17.9101L33.8141 29.3885C32.3838 30.5685 30.7389 31.5697 29.2728 32.0703L9.57013 38.9001Z" fill="#7D8488"></path><path d="M13.8888 50.6647C10.4918 50.6647 8.13178 49.6277 7.02328 47.661C5.66447 45.2295 6.34386 41.5106 8.9542 37.2197L8.98997 37.1839L29.3363 31.6057C30.7666 31.2123 32.483 30.3184 33.9849 29.2099L48.753 18.0891C51.5421 15.9794 54.653 14.9066 56.1549 15.5503C56.6197 15.7648 56.9058 16.1224 56.9773 16.6588C57.3707 20.3776 54.7246 25.7056 49.6469 31.2123C39.7777 41.9397 23.7581 50.6647 13.8888 50.6647ZM9.13299 37.3985C6.59417 41.5822 5.95053 45.158 7.23782 47.518C8.2748 49.3774 10.5633 50.3786 13.8531 50.3786C23.6508 50.3786 39.5989 41.6894 49.3608 31.0335C54.367 25.5625 57.0131 20.3419 56.6197 16.6945C56.584 16.3012 56.3694 16.0151 55.9761 15.8363C54.6173 15.2285 51.5421 16.3012 48.8602 18.3394L34.1279 29.4244L34.0564 29.3171L34.1279 29.4244C32.5903 30.5687 30.8739 31.4626 29.3721 31.8917L9.13299 37.3985Z" fill="#7D8488"></path><path d="M14.0623 50.629C13.4902 50.629 12.9538 50.5932 12.4175 50.5575C9.16347 50.2356 6.94647 48.9841 5.94525 46.8744C4.6222 44.121 5.58766 40.0803 8.66285 35.5391L8.69863 35.5033L29.4383 31.3911C30.9044 31.1051 32.6923 30.3184 34.2657 29.2099L49.9634 18.5897C52.8599 16.623 56.0066 15.7649 57.4727 16.5158C57.9733 16.7661 58.2593 17.2309 58.2593 17.8031C58.3308 21.8795 55.2199 27.3505 49.7131 32.8572C39.5578 42.9768 24.0388 50.629 14.0623 50.629ZM8.84165 35.7536C5.87372 40.1876 4.90827 44.0853 6.19556 46.7671C7.12527 48.7696 9.30651 49.9853 12.4532 50.2714C22.2152 51.2011 38.8427 43.2986 49.4986 32.6784C54.9696 27.2432 58.0448 21.808 57.9732 17.8388C57.9732 17.374 57.7587 17.0164 57.3296 16.8018C55.9708 16.0867 52.8956 16.9806 50.1065 18.8758L34.4087 29.496L34.3372 29.3887L34.4087 29.496C32.7638 30.6045 30.9759 31.4269 29.4741 31.713L8.84165 35.7536Z" fill="#7D8488"></path><path d="M14.4834 50.6286C13.1961 50.6286 12.0161 50.5213 10.9076 50.3067C7.79666 49.6989 5.72271 48.1613 4.86451 45.9443C3.64874 42.7975 4.93602 38.4708 8.47607 33.715L8.51184 33.6792L29.5376 31.2119C31.0394 31.0331 32.8631 30.3537 34.5437 29.3168L51.0997 19.3045C54.1034 17.4808 57.2143 16.8372 58.6804 17.6954C59.2168 18.0172 59.4671 18.5536 59.4314 19.233C59.1453 23.6312 55.5695 29.281 49.5979 34.7162C39.3353 44.0491 24.4957 50.6286 14.4834 50.6286ZM8.69063 33.9295C5.25785 38.5781 4.00631 42.7975 5.15057 45.837C5.97301 47.9825 7.97546 49.4128 10.9791 50.0207C20.6338 51.9516 37.8692 44.9788 49.4191 34.4659C55.3192 29.0664 58.895 23.5239 59.1453 19.1972C59.181 18.6251 58.9665 18.196 58.5374 17.9457C57.1786 17.1232 54.1392 17.8026 51.2428 19.5548L34.6867 29.5671C32.9704 30.604 31.1109 31.3192 29.5733 31.498L8.69063 33.9295Z" fill="#7D8488"></path><path d="M15.2902 50.6644C13.1447 50.6644 11.2138 50.4141 9.53313 49.8777C6.60097 48.948 4.67002 47.1959 3.95486 44.8001C2.91788 41.26 4.527 36.6115 8.56766 31.7126L8.60341 31.6769L29.7722 30.9975C31.274 30.9617 33.1335 30.3896 34.9214 29.4241L52.264 20.127C55.3035 18.4821 58.4502 18.053 59.8448 19.0543C60.4169 19.4476 60.6672 20.0555 60.5599 20.8422C59.9163 25.598 55.8398 31.355 49.4392 36.6472C39.1408 45.1219 25.1952 50.6644 15.2902 50.6644ZM8.7107 31.9272C4.77731 36.7545 3.20394 41.26 4.20517 44.6928C4.88457 46.9813 6.74401 48.662 9.60466 49.5917C19.0448 52.5953 36.8165 46.6953 49.2604 36.3969C55.6253 31.1405 59.6302 25.4192 60.3096 20.7707C60.4169 20.127 60.2023 19.6264 59.7017 19.2688C58.3787 18.3391 55.3035 18.804 52.4071 20.3773L35.0644 29.6744L34.9929 29.5314L35.0644 29.6744C33.2407 30.6399 31.3456 31.212 29.7722 31.2835L8.7107 31.9272Z" fill="#7D8488"></path><path d="M16.4252 50.8076C13.2427 50.8076 10.4179 50.307 8.12933 49.27C5.3402 48.0184 3.58805 45.9802 3.05168 43.4056C2.22925 39.4722 4.23171 34.5376 8.73723 29.5315L8.77298 29.4957L29.906 30.7473C31.4079 30.8546 33.3388 30.3897 35.1625 29.5315L53.256 21.1284C56.3312 19.698 59.4422 19.4835 60.8367 20.592C61.4446 21.0926 61.6949 21.8078 61.5162 22.6659C60.4434 27.7436 55.9021 33.5722 49.0366 38.7213C38.9886 46.2663 26.1157 50.8076 16.4252 50.8076ZM8.88027 29.7818C4.48202 34.7164 2.51531 39.508 3.30199 43.3699C3.83836 45.8372 5.51899 47.8039 8.2366 49.0197C17.3907 53.1676 35.5916 48.4475 48.8578 38.5068C55.6518 33.3934 60.1574 27.6006 61.2301 22.5944C61.3731 21.8435 61.1943 21.2356 60.6579 20.8065C59.3707 19.7695 56.367 20.0199 53.3991 21.3787L35.3055 29.7818C33.4103 30.6758 31.4436 31.1049 29.906 31.0333L8.88027 29.7818Z" fill="#7D8488"></path><path d="M17.9271 51.0937C13.4931 51.0937 9.6312 50.2713 6.77055 48.5191C4.16021 46.91 2.58685 44.5857 2.22927 41.8324C1.6929 37.4699 4.12445 32.285 9.09483 27.2431L9.13058 27.2073L30.0848 30.5686C31.5509 30.8189 33.5176 30.497 35.4128 29.7461L54.1858 22.3442C57.2967 21.1284 60.3004 21.1284 61.6592 22.3442C62.3029 22.9521 62.5174 23.7745 62.2671 24.74C60.7652 30.1037 55.7234 36.0395 48.4645 40.9384C38.8813 47.4464 27.2242 51.0937 17.9271 51.0937ZM9.23787 27.4576C4.37477 32.428 1.97896 37.5056 2.51533 41.7608C2.83715 44.4427 4.37477 46.6955 6.91359 48.2688C15.6743 53.6325 34.2328 50.2355 48.2857 40.7239C55.5088 35.825 60.515 29.9964 61.981 24.6685C62.2314 23.8103 62.0526 23.0951 61.4804 22.5588C60.1931 21.4145 57.2967 21.4145 54.2931 22.5945L35.5558 29.9964C33.5891 30.7831 31.5867 31.0692 30.0491 30.8189L9.23787 27.4576Z" fill="#7D8488"></path><path d="M19.8108 51.5583C13.9465 51.5583 8.86887 50.271 5.50761 47.5534C3.0403 45.5867 1.68149 42.9406 1.57422 39.9011C1.39543 35.1096 4.29182 29.7458 9.65554 24.7397L9.72706 24.6682L30.3237 30.318C31.7898 30.7113 33.7565 30.5683 35.7232 29.9604L55.0683 23.7385C58.1793 22.7373 61.0757 22.9518 62.3987 24.3106C63.1139 25.0258 63.2927 25.9912 62.8993 27.064C60.9326 32.7495 55.3901 38.6496 47.7379 43.2982C38.7984 48.6976 28.4643 51.5583 19.8108 51.5583ZM9.79858 24.99C4.50638 29.9246 1.68149 35.2168 1.86028 39.8654C1.96755 42.7975 3.29061 45.3721 5.6864 47.3031C13.9108 53.9183 32.7195 52.0231 47.5591 43.0478C55.1756 38.4351 60.6466 32.5707 62.6133 26.9567C62.9351 25.9912 62.7921 25.133 62.1842 24.4894C60.9326 23.2379 58.1077 23.0233 55.1398 23.9888L35.7947 30.2107C33.7565 30.8543 31.754 30.9974 30.2522 30.5683L9.79858 24.99Z" fill="#7D8488"></path><path d="M21.9614 52.2378C14.5237 52.2378 8.08728 50.3069 4.33268 46.3735C2.04416 43.9777 0.935647 40.974 1.07868 37.6843C1.36474 32.5351 4.69025 26.9926 10.4473 22.0937L10.5188 22.0222L30.5434 30.0678C31.9379 30.6399 33.9046 30.6757 35.9428 30.1751L55.7528 25.2762C58.828 24.5253 61.6171 24.9901 62.9044 26.4562C63.6553 27.3144 63.7626 28.4229 63.2977 29.6029C60.8304 35.5745 54.8231 41.4389 46.7775 45.7298C38.6962 50.0923 29.7924 52.2378 21.9614 52.2378ZM10.5903 22.3798C4.90481 27.2071 1.65083 32.6424 1.36476 37.6843C1.18597 40.9025 2.29447 43.8346 4.51147 46.1589C12.1279 54.133 31.0082 53.8469 46.5987 45.5153C54.6086 41.2601 60.5802 35.4315 63.0117 29.5314C63.4766 28.4229 63.3335 27.4574 62.6899 26.6708C61.4741 25.2762 58.7922 24.8471 55.8243 25.598L36.0143 30.4969L35.9786 30.3538L36.0143 30.4969C33.9404 30.9975 31.9022 30.9617 30.4361 30.3896L10.5903 22.3798Z" fill="#7D8488"></path><path d="M24.2893 53.2037C15.171 53.2037 7.26848 50.3788 3.26357 44.9793C-2.20742 37.5774 1.11808 27.2791 11.4879 19.305L11.5595 19.2335L30.7973 29.8537C32.1561 30.6046 34.1228 30.8191 36.161 30.4973L56.3286 27.0645C59.368 26.5639 62.0141 27.2433 63.2299 28.8524C64.0166 29.8537 64.0881 31.141 63.4444 32.464C60.4765 38.6859 53.9685 44.4787 45.5654 48.3764C38.5926 51.6303 31.0834 53.2037 24.2893 53.2037ZM11.5952 19.6269C1.40414 27.4936 -1.84983 37.6132 3.51388 44.8363C6.83938 49.3061 13.0255 52.131 20.9996 52.7746C28.9736 53.4183 37.6628 51.7734 45.4939 48.1261C53.8255 44.2642 60.2977 38.5071 63.2299 32.3567C63.802 31.141 63.7305 29.9967 63.0511 29.0312C61.9068 27.5294 59.3323 26.8857 56.4358 27.3506L36.2683 30.7834L36.2325 30.6403L36.2683 30.7834C34.1586 31.141 32.1203 30.8907 30.7258 30.1397L11.5952 19.6269Z" fill="#7D8488"></path><path d="M26.5758 54.4909C15.7768 54.4909 6.33668 50.5575 2.33178 43.4417C-2.45981 34.9312 1.7239 24.0965 12.7731 16.4443L12.8447 16.3728L31.117 29.7106C32.4043 30.6403 34.3353 31.0694 36.4093 30.8906V31.0336V30.8906L56.7914 29.0669C59.7235 28.8166 62.2623 29.7106 63.4066 31.4627C64.1933 32.6785 64.1933 34.1088 63.4424 35.5749C59.9381 42.0113 52.9652 47.6969 44.2403 51.0939C38.3402 53.3824 32.2613 54.4909 26.5758 54.4909ZM12.8447 16.7304C2.00996 24.2753 -2.13798 34.9312 2.58209 43.2986C5.47849 48.4836 11.4501 52.0951 19.3169 53.5612C27.2194 54.9915 36.0159 54.0261 44.0972 50.8436C52.7507 47.4466 59.6877 41.8326 63.1205 35.4319C63.8357 34.1088 63.8357 32.75 63.1205 31.6415C62.0478 29.9966 59.6162 29.1384 56.7914 29.3887L36.4093 31.2124C34.2638 31.3912 32.2613 30.9621 30.9382 29.9609L12.8447 16.7304Z" fill="#7D8488"></path><path d="M28.799 56.0643C24.9014 56.0643 21.0753 55.5279 17.4637 54.4552C9.66845 52.1309 4.01866 47.5539 1.51559 41.618C-2.52507 31.9633 2.58835 20.628 14.2455 13.4049L14.3528 13.3334L31.3736 29.496C32.5536 30.6403 34.4488 31.2839 36.5228 31.2839V31.427V31.2839L56.9764 31.2482C59.7655 31.2482 62.1613 32.3924 63.2341 34.2519C64.0207 35.6822 63.9492 37.327 63.0195 38.8646C58.9789 45.5156 51.5054 50.9866 42.5659 53.8473C38.0246 55.3491 33.376 56.0643 28.799 56.0643ZM14.317 13.691C2.83864 20.8426 -2.16749 31.9991 1.7659 41.5107C4.23321 47.3751 9.81147 51.8806 17.5352 54.2049C25.259 56.4934 34.127 56.3146 42.4586 53.6327C51.3624 50.7721 58.7643 45.3726 62.7692 38.7574C63.6632 37.2913 63.7347 35.7537 62.9837 34.4306C61.9825 32.6785 59.694 31.57 56.9764 31.57L36.5228 31.6058C34.3773 31.6058 32.4463 30.9263 31.1948 29.7463L14.317 13.691Z" fill="#7D8488"></path><path d="M30.58 57.9947C25.3235 57.9947 20.2459 56.9935 15.6331 54.991C8.05236 51.7371 2.83168 46.2661 0.864988 39.5793C-2.31748 28.7446 3.79716 16.9444 16.0264 10.2577L16.1337 10.1862L31.6885 29.3167C32.797 30.6755 34.5849 31.5337 36.6588 31.7483L57.0409 33.6435C59.7585 33.8938 61.9756 35.2526 62.9053 37.255C63.6919 38.8999 63.4774 40.7951 62.3689 42.4399C57.7561 49.2697 49.8536 54.4904 40.6637 56.7432C37.3382 57.6014 33.9412 57.9947 30.58 57.9947ZM16.0622 10.5795C4.0117 17.2305 -1.9599 28.8519 1.15105 39.5078C3.08199 46.123 8.2669 51.5225 15.7403 54.7407C23.2495 57.959 32.0818 58.6026 40.628 56.4929C49.7463 54.2401 57.5773 49.091 62.1544 42.2969C63.2271 40.7236 63.4059 38.9714 62.655 37.3981C61.761 35.4671 59.6513 34.1798 57.0052 33.9295L36.6231 32.0344C34.4776 31.8198 32.5824 30.9258 31.4382 29.4955L16.0622 10.5795Z" fill="#7D8488"></path><path d="M32.0488 60.2477C25.5408 60.2477 19.2116 58.6028 13.7764 55.4203C6.51747 51.1651 1.79741 44.7644 0.402847 37.3267C-1.81415 25.312 5.26594 13.1185 18.0316 7.00389L18.1388 6.93237L31.9772 29.1381C32.9427 30.7115 34.6948 31.82 36.7331 32.2133L56.8649 36.2182C59.4394 36.7189 61.4777 38.328 62.3359 40.4735C63.0868 42.3686 62.7292 44.4784 61.4419 46.2305C56.257 53.1676 47.9253 58.0664 38.5925 59.6756C36.4112 60.0689 34.1942 60.2477 32.0488 60.2477ZM18.0673 7.36147C5.48048 13.4403 -1.49234 25.4551 0.688907 37.291C2.04771 44.6214 6.73202 50.9863 13.9194 55.17C21.1068 59.3895 29.8318 60.8913 38.5567 59.4252C47.8181 57.8519 56.114 52.9888 61.2274 46.1232C62.4789 44.4426 62.7649 42.4759 62.0855 40.6522C61.2988 38.5783 59.3322 37.0764 56.8291 36.5758L36.6973 32.5352C34.5876 32.1061 32.7997 30.926 31.7627 29.3169L18.0673 7.36147Z" fill="#7D8488"></path><path d="M33.0592 62.8223C25.3354 62.8223 17.8977 60.355 11.8904 55.7065C5.02481 50.4143 0.87688 43.0124 0.161718 34.8595C-0.982541 21.629 7.13454 9.1137 20.365 3.71422L20.5081 3.67847L20.5796 3.78574L32.3797 28.9952C33.2022 30.7831 34.8471 32.1777 36.8495 32.7855L56.5522 39.0075C58.9838 39.7941 60.8789 41.6178 61.5583 43.9421C62.202 46.1233 61.7371 48.4476 60.2353 50.2713C54.4783 57.3156 45.7175 61.8211 36.2774 62.6435C35.1689 62.7866 34.1319 62.8223 33.0592 62.8223ZM20.365 4.07181C7.31334 9.43552 -0.696481 21.8078 0.447778 34.8595C1.16294 42.9408 5.27512 50.2712 12.0692 55.4919C18.8632 60.7126 27.4451 63.1799 36.2059 62.429C45.5745 61.6066 54.2279 57.1368 59.9492 50.164C61.3796 48.4118 61.8444 46.1948 61.2366 44.0851C60.5929 41.8681 58.7692 40.116 56.4092 39.365L36.7065 33.1431C34.6325 32.4995 32.9519 31.0334 32.0937 29.174L20.365 4.07181Z" fill="#7D8488"></path><path d="M33.6348 65.6829C24.7311 65.6829 16.3279 62.1786 9.963 55.8137C3.59806 49.4487 0.09375 41.0456 0.09375 32.1418C0.09375 17.7313 9.28359 4.96569 22.9432 0.352896L23.0862 0.317139L32.6694 28.8878C33.3488 30.8903 34.8506 32.5709 36.7816 33.4291L55.8764 42.0468C58.2364 43.1196 59.8813 45.1578 60.3819 47.6608C60.9183 50.1639 60.2389 52.667 58.5582 54.5264C52.2291 61.6423 43.1107 65.6829 33.6348 65.6829ZM22.9074 0.710477C9.42661 5.28751 0.37981 17.9101 0.37981 32.1776C0.37981 41.0098 3.84835 49.3415 10.1775 55.6349C16.471 61.9283 24.8026 65.4326 33.6348 65.4326C43.0392 65.4326 52.0503 61.4277 58.3795 54.3834C60.0243 52.5597 60.668 50.1639 60.1674 47.7681C59.6667 45.3366 58.0576 43.3699 55.8048 42.3329L36.71 33.7152C34.7076 32.8212 33.1342 31.1049 32.4548 28.9951L22.9074 0.710477Z" fill="#7D8488"></path></svg> 