<?xml version="1.0" encoding="UTF-8"?> <svg xmlns="http://www.w3.org/2000/svg" width="402" height="60" viewBox="0 0 402 60" fill="none"><g clip-path="url(#clip0_6001_60794)"><path fill-rule="evenodd" clip-rule="evenodd" d="M370.361 0.809488C369.335 0.811088 368.309 0.812687 367.283 0.804688C365.516 7.53951 363.773 14.2802 362.03 21.0206L362.03 21.0228L362.029 21.0247L362.029 21.0265L362.028 21.0284L362.028 21.0303L362.027 21.0322L362.027 21.034L362.027 21.0359C360.187 28.1518 358.347 35.2672 356.478 42.3747C356.145 40.9409 355.808 39.5079 355.471 38.0745C354.892 35.6138 354.313 33.1523 353.753 30.6847C351.025 30.6872 348.296 30.6872 345.566 30.6872H345.56C342.828 30.6872 340.096 30.6872 337.363 30.6897C337.379 31.9263 337.378 33.1642 337.378 34.4028V34.4109C337.377 35.5435 337.376 36.6766 337.388 37.8097C338.681 37.8136 339.974 37.8122 341.266 37.8108H341.267C343.297 37.8086 345.327 37.8064 347.358 37.8247C348.206 41.3614 349.04 44.9028 349.873 48.4443L349.877 48.4583L349.88 48.4729C350.78 52.2968 351.681 56.1209 352.598 59.9397C353.831 59.9372 355.066 59.9372 356.301 59.9372H356.307C357.541 59.9372 358.775 59.9372 360.008 59.9347C360.652 57.4862 361.294 55.0373 361.936 52.5884L361.939 52.5774L361.939 52.5763L361.94 52.5755L361.94 52.5748L361.94 52.574L361.94 52.5733L361.94 52.5725L361.941 52.5718C364.485 42.869 367.03 33.1657 369.663 23.4847C369.999 25.9914 370.358 28.4958 370.717 31.0001C371.111 33.7508 371.504 36.5014 371.868 39.2547C376.888 39.2497 381.908 39.2447 386.928 39.2547C389.118 43.4097 395.328 44.5947 398.668 41.1597C402.288 38.1247 401.663 31.7097 397.578 29.3747C394.068 27.0247 388.958 28.4497 386.968 32.1197C385.756 32.1285 384.544 32.1266 383.332 32.1248C381.79 32.1224 380.248 32.1201 378.708 32.1397C377.433 21.7097 376.208 11.2747 374.983 0.834687C373.441 0.804688 371.901 0.807088 370.361 0.809488ZM151.428 3.62571C149.557 3.62351 147.687 3.6213 145.818 3.63963C145.826 5.12894 145.819 6.61878 145.813 8.10882V8.10906V8.1093V8.10954V8.10979V8.11003V8.11027V8.11052V8.11076C145.8 11.1473 145.787 14.1846 145.898 17.2196C141.813 15.5296 137.298 15.2096 132.928 15.5946C130.173 15.8446 127.318 16.3946 124.993 17.9746C122.383 19.7896 121.248 23.0796 121.208 26.1496C121.173 30.6758 121.183 35.1983 121.193 39.7202C121.194 40.4734 121.196 41.2265 121.198 41.9796C121.278 44.7796 121.608 47.8046 123.368 50.0996C125.498 52.9296 129.218 53.7446 132.558 54.0646C137.068 54.3646 141.888 54.3546 145.963 52.1246C145.958 52.4696 145.943 53.1546 145.933 53.4996H155.003C155.003 47.958 155.003 42.4163 155.004 36.8746C155.005 25.7913 155.006 14.708 155.003 3.62463C153.81 3.62852 152.619 3.62712 151.428 3.62571ZM130.333 25.5046C130.273 24.5796 130.718 23.4996 131.723 23.3146C135.408 22.6146 139.278 22.5646 142.958 23.3246C144.263 23.6396 145.948 24.4246 145.813 26.0196C145.811 27.9592 145.813 29.8982 145.815 31.837V31.8373V31.8376V31.8379V31.8382V31.8386V31.8389V31.8392V31.8395C145.82 35.7176 145.824 39.595 145.798 43.4746C145.798 44.7396 144.818 45.8046 143.648 46.1596C141.173 46.9896 138.513 46.9846 135.933 46.9046C135.803 46.8938 135.673 46.8834 135.542 46.8729C134.048 46.7533 132.463 46.6265 131.213 45.7346C130.508 45.0146 130.273 43.9596 130.308 42.9746C130.321 40.3719 130.317 37.7682 130.314 35.164V35.1636V35.1633V35.1629V35.1626V35.1622V35.1619V35.1615V35.1612C130.309 31.9429 130.305 28.7238 130.333 25.5046ZM244.457 3.62476H253.627V53.4998H244.442C244.446 47.2662 244.443 41.0326 244.441 34.799C244.436 24.4076 244.432 14.0162 244.457 3.62476ZM33.3346 4.64978C26.5146 3.82978 19.5946 3.27478 12.7546 4.14478C9.33461 4.63978 5.61461 5.55478 3.34461 8.38478C0.959609 10.9448 0.739609 14.6548 0.874609 17.9698C0.709609 21.9098 1.22961 26.3448 4.26461 29.1848C7.67182 32.1892 12.4579 32.1575 16.7668 32.129C17.0043 32.1274 17.2403 32.1258 17.4746 32.1248C18.0551 32.1472 18.6535 32.1394 19.2579 32.1316C21.345 32.1044 23.5037 32.0762 25.2446 33.2898C26.1518 34.5981 26.108 36.1808 26.065 37.7337C26.0485 38.3292 26.0322 38.9202 26.0696 39.4898C26.0409 39.9428 26.0534 40.4163 26.0661 40.8945C26.1019 42.2479 26.1387 43.6397 25.2446 44.7148C23.7401 45.7537 21.8466 45.9521 20.0678 46.1384L19.9596 46.1498C13.8196 46.5498 7.72461 45.3898 1.74961 44.1148C1.75628 45.4103 1.75504 46.7067 1.75381 48.0037C1.75226 49.6252 1.75072 51.2475 1.76461 52.8698C7.93961 53.7998 14.2046 54.4148 20.4496 54.0998C24.9746 53.7448 30.0796 52.7798 33.0446 49.0098C35.786 45.2648 35.656 40.4577 35.5357 36.0047C35.5265 35.6658 35.5174 35.329 35.5096 34.9948C35.3646 31.3398 33.9696 27.2048 30.3846 25.6048C26.9092 24.0533 23.1543 24.0936 19.4056 24.1338C17.416 24.1552 15.428 24.1765 13.4846 23.9598C12.1046 23.7998 10.3146 23.1548 10.3496 21.4798C10.3437 21.0208 10.3349 20.5613 10.3261 20.1015L10.3261 20.1012C10.2901 18.2268 10.254 16.3477 10.4146 14.4848C10.6196 12.7198 12.4046 11.9398 13.9596 11.7298C20.0243 10.7707 26.151 11.6948 32.1691 12.6025L32.1699 12.6026C32.5519 12.6602 32.9335 12.7178 33.3146 12.7748C33.3183 11.7764 33.3172 10.7786 33.3162 9.78107V9.78095V9.78083V9.78071V9.78059V9.78047V9.78035C33.3143 8.07048 33.3125 6.36113 33.3346 4.64978ZM163.562 4.42985C166.242 4.4554 168.921 4.4454 171.601 4.43541C175.736 4.41998 179.87 4.40455 184.003 4.51985C187.887 4.84485 192.368 5.29485 195.048 8.48985C196.663 10.1248 197.022 12.5098 197.292 14.6898C197.337 17.8805 197.322 21.075 197.308 24.2665L197.303 25.5398C197.232 29.1498 195.202 32.6848 191.923 34.2948C186.793 36.9017 180.954 36.8579 175.312 36.8155H175.311H175.311H175.311H175.311H175.311C174.601 36.8102 173.894 36.8048 173.193 36.8048C173.189 40.5148 173.19 44.2248 173.191 47.9348C173.192 49.7898 173.193 51.6448 173.193 53.4998H163.562V4.42985ZM173.128 18.5554V18.5555C173.123 22.2523 173.118 25.9495 173.158 29.6448C174.376 29.565 175.626 29.5948 176.881 29.6247C179.945 29.6979 183.037 29.7717 185.773 28.2498C187.202 27.5898 187.837 25.9948 187.807 24.4948C187.822 21.4848 187.817 18.4748 187.807 15.4648C187.902 14.0498 186.803 12.7348 185.473 12.3698C182.664 11.5131 179.739 11.5687 176.823 11.6241C175.586 11.6475 174.351 11.671 173.128 11.6248C173.135 13.9343 173.132 16.2444 173.128 18.5547V18.5549V18.555V18.5552V18.5554ZM59.0038 15.4448C54.7138 15.5048 50.0788 15.8898 46.5238 18.5448C43.6588 20.7298 42.5888 24.4848 42.5138 27.9498C42.4976 30.4842 42.5004 33.0186 42.5032 35.5538V35.5541V35.5545V35.5548V35.5552C42.5056 37.701 42.508 39.8474 42.4988 41.9948C42.4438 44.7798 43.2088 47.7048 45.1888 49.7448C47.6788 52.4748 51.4338 53.5098 54.9788 53.9548C61.0738 54.6098 67.2488 53.9098 73.1938 52.4948C73.1938 51.7806 73.1927 51.0667 73.1916 50.353L73.1916 50.3389V50.3384V50.3379V50.3374V50.3369C73.1886 48.423 73.1857 46.5102 73.2038 44.5948L73.1013 44.6211C67.009 46.1841 60.3494 47.8927 54.2088 45.7348C51.5875 44.7493 51.671 41.9496 51.7446 39.4839V39.4838V39.4836C51.7621 38.8971 51.779 38.3296 51.7589 37.8098C55.0078 37.812 58.2567 37.8114 61.5056 37.8107C65.8367 37.8099 70.1678 37.8091 74.4988 37.8148C74.4988 36.8005 74.501 35.7862 74.5032 34.772L74.5032 34.7617V34.7613V34.7609V34.7605V34.7601C74.5084 32.3187 74.5135 29.878 74.4888 27.4398C74.3638 24.0948 73.3689 20.4798 70.5838 18.3748C67.2839 15.9048 62.9888 15.5248 59.0038 15.4448ZM51.757 28.4304C51.6406 26.3102 51.5159 24.0382 53.7088 23.2298C56.9488 22.3048 60.5639 22.2798 63.7788 23.3198C65.5824 24.3835 65.4751 26.4518 65.3729 28.423C65.3315 29.2224 65.2908 30.0059 65.3788 30.6998C62.4602 30.6838 59.5416 30.6863 56.623 30.6888H56.6201C54.9997 30.6902 53.3793 30.6916 51.7589 30.6898C51.8441 30.0173 51.8012 29.2348 51.757 28.4304ZM91.1229 17.4197C94.9129 15.4147 99.3429 15.2897 103.523 15.5597C106.563 15.8447 109.963 16.5647 111.888 19.1697C113.738 21.5047 114.163 24.6097 114.128 27.4997V53.4997H104.943C104.936 49.6271 104.938 45.7554 104.94 41.8838V41.8837V41.8836V41.8835C104.943 36.7226 104.945 31.562 104.928 26.3997C104.948 24.9497 104.013 23.3697 102.463 23.2147C99.4879 22.6397 96.3579 22.7547 93.4079 23.4297C91.9579 23.6797 91.1779 25.1747 91.2079 26.5397C91.1829 32.155 91.1872 37.7703 91.1915 43.3868V43.3873V43.3878V43.3884C91.1941 46.7583 91.1966 50.1287 91.1929 53.4997H82.0029C82.0047 49.0575 82.0033 44.6152 82.0019 40.1729C81.9993 32.1752 81.9968 24.1775 82.0129 16.1797C83.6502 16.1904 85.289 16.1897 86.9277 16.189H86.9283C88.3619 16.1884 89.7954 16.1877 91.2279 16.1947L91.2227 16.2584C91.1964 16.5788 91.1509 17.1347 91.1229 17.4197ZM284.752 15.8377C278.794 15.4034 272.754 14.963 267.042 16.9347C263.582 18.0297 260.712 21.2497 260.877 25.0147C260.627 28.7997 260.962 33.2647 264.357 35.6497C267.37 37.9903 271.04 38.0185 274.694 38.0465C276.535 38.0607 278.372 38.0748 280.117 38.3847C281.892 38.6347 281.892 40.6097 281.827 41.9897C281.814 42.2748 281.822 42.5896 281.83 42.916V42.9168V42.9176C281.866 44.3367 281.907 45.974 280.257 46.3397C275.493 47.5068 270.637 46.7423 265.837 45.9868C264.406 45.7615 262.98 45.537 261.562 45.3647V53.1497C265.347 53.7347 269.172 54.1097 273.012 54.1797C277.647 54.2747 282.577 54.0547 286.692 51.6697C289.507 50.0297 290.847 46.6947 290.867 43.5447C290.862 43.0303 290.871 42.5081 290.88 41.9825C290.919 39.6625 290.959 37.2774 289.772 35.2147C288.307 32.3797 285.077 31.0397 282.067 30.6297C280.511 30.3736 278.926 30.4065 277.343 30.4394C275.247 30.4829 273.156 30.5263 271.142 29.8997C269.82 29.4013 269.907 28.0731 269.99 26.8162C270.021 26.3331 270.052 25.8606 270.002 25.4497C269.717 23.6947 271.537 22.8697 272.992 22.7647C278.392 22.1247 283.862 22.8147 289.182 23.7897C289.192 22.5796 289.191 21.3695 289.191 20.1593V20.1505C289.19 18.8085 289.189 17.4666 289.202 16.1247C287.729 16.0547 286.243 15.9464 284.752 15.8377ZM299.139 21.1348C301.424 17.1748 306.264 15.9248 310.514 15.5998C315.284 15.2948 320.454 15.3098 324.694 17.8298C327.864 19.6698 329.174 23.4698 329.339 26.9548C329.395 29.0808 329.387 31.2085 329.379 33.336C329.373 34.831 329.368 36.3258 329.384 37.8198C325.592 37.8048 321.801 37.8073 318.009 37.8098H318.007H318.004C314.212 37.8123 310.421 37.8148 306.629 37.7998C306.64 38.27 306.626 38.7768 306.612 39.3001C306.541 41.848 306.46 44.7859 309.214 45.7898C315.305 47.8464 321.841 46.1878 327.874 44.6568L328.079 44.6048C328.061 46.5174 328.064 48.4274 328.067 50.3386V50.3391C328.068 51.0558 328.069 51.7726 328.069 52.4898C321.559 54.0348 314.729 54.7798 308.094 53.6848C304.379 53.0348 300.474 51.2848 298.659 47.7798C297.225 45.0495 297.302 41.9906 297.378 38.9609C297.407 37.7961 297.436 36.6356 297.379 35.4998C297.426 34.3135 297.402 33.1005 297.379 31.8808C297.306 28.1754 297.232 24.4075 299.139 21.1348ZM307.699 23.6448C306.41 24.97 306.524 26.8129 306.634 28.6022C306.679 29.3243 306.723 30.0377 306.674 30.7048C309.502 30.6798 312.33 30.6841 315.158 30.6884H315.158C316.855 30.6909 318.552 30.6935 320.249 30.6898C320.218 30.0308 320.236 29.3655 320.253 28.6999V28.6995C320.29 27.3097 320.326 25.9185 319.924 24.5798C319.148 23.0844 317.288 22.8682 315.764 22.6911C315.688 22.6823 315.613 22.6736 315.539 22.6648C312.919 22.5048 310.099 22.4198 307.699 23.6448ZM210.308 16.1883C208.394 16.1887 206.48 16.1891 204.564 16.1797C204.566 19.7624 204.565 23.3443 204.564 26.9258C204.562 32.2961 204.56 37.6654 204.569 43.0347C204.604 46.0447 205.319 49.2847 207.614 51.4047C209.729 53.3647 212.739 53.9297 215.524 54.1297C219.569 54.3197 223.879 54.2647 227.514 52.2347C227.509 52.5497 227.504 53.1847 227.504 53.4997H236.694C236.694 49.9478 236.694 46.3955 236.693 42.843C236.691 33.9584 236.689 25.0728 236.699 16.1897C235.55 16.1878 234.401 16.188 233.253 16.1883C231.339 16.1887 229.427 16.1891 227.514 16.1797C227.496 20.3529 227.501 24.5251 227.505 28.6968C227.51 33.8166 227.515 38.9357 227.479 44.0547C227.494 45.6397 225.809 46.2747 224.499 46.4747C221.534 46.8647 218.444 47.0847 215.529 46.2747C214.204 45.7797 213.709 44.2947 213.759 42.9897C213.754 37.885 213.754 32.7803 213.755 27.6765C213.756 23.8469 213.757 20.0178 213.754 16.1897C212.605 16.1878 211.456 16.188 210.308 16.1883Z" fill="url(#paint0_linear_6001_60794)"></path></g><defs><linearGradient id="paint0_linear_6001_60794" x1="0.84375" y1="30.3722" x2="401.048" y2="30.3722" gradientUnits="userSpaceOnUse"><stop stop-color="#20C498"></stop><stop offset="0.442786" stop-color="#129EC5"></stop><stop offset="1" stop-color="#6C6AC8"></stop></linearGradient><clipPath id="clip0_6001_60794"><rect width="402" height="60" fill="white"></rect></clipPath></defs></svg> 